G04 #@! TF.GenerationSoftware,KiCad,Pcbnew,(6.0.0-rc1-dev-1491-g0a4812be0)*
G04 #@! TF.CreationDate,2019-01-22T09:02:21+01:00
G04 #@! TF.ProjectId,atmega328,61746d65-6761-4333-9238-2e6b69636164,1*
G04 #@! TF.SameCoordinates,Original*
G04 #@! TF.FileFunction,Legend,Top*
G04 #@! TF.FilePolarity,Positive*
%FSLAX46Y46*%
G04 Gerber Fmt 4.6, Leading zero omitted, Abs format (unit mm)*
G04 Created by KiCad (PCBNEW (6.0.0-rc1-dev-1491-g0a4812be0)) date 2019-01-22 09:02:21*
%MOMM*%
%LPD*%
G04 APERTURE LIST*
%ADD10C,0.150000*%
%ADD11C,0.300000*%
%ADD12C,0.120000*%
%ADD13C,0.010000*%
G04 APERTURE END LIST*
D10*
X150241142Y-100274380D02*
X150241142Y-99274380D01*
X150479238Y-99274380D01*
X150622095Y-99322000D01*
X150717333Y-99417238D01*
X150764952Y-99512476D01*
X150812571Y-99702952D01*
X150812571Y-99845809D01*
X150764952Y-100036285D01*
X150717333Y-100131523D01*
X150622095Y-100226761D01*
X150479238Y-100274380D01*
X150241142Y-100274380D01*
X151098285Y-99274380D02*
X151669714Y-99274380D01*
X151384000Y-100274380D02*
X151384000Y-99274380D01*
X152574476Y-100274380D02*
X152241142Y-99798190D01*
X152003047Y-100274380D02*
X152003047Y-99274380D01*
X152384000Y-99274380D01*
X152479238Y-99322000D01*
X152526857Y-99369619D01*
X152574476Y-99464857D01*
X152574476Y-99607714D01*
X152526857Y-99702952D01*
X152479238Y-99750571D01*
X152384000Y-99798190D01*
X152003047Y-99798190D01*
X159344523Y-99222380D02*
X158868333Y-99222380D01*
X158820714Y-99698571D01*
X158868333Y-99650952D01*
X158963571Y-99603333D01*
X159201666Y-99603333D01*
X159296904Y-99650952D01*
X159344523Y-99698571D01*
X159392142Y-99793809D01*
X159392142Y-100031904D01*
X159344523Y-100127142D01*
X159296904Y-100174761D01*
X159201666Y-100222380D01*
X158963571Y-100222380D01*
X158868333Y-100174761D01*
X158820714Y-100127142D01*
X159677857Y-99222380D02*
X160011190Y-100222380D01*
X160344523Y-99222380D01*
X156828333Y-100222380D02*
X156495000Y-99746190D01*
X156256904Y-100222380D02*
X156256904Y-99222380D01*
X156637857Y-99222380D01*
X156733095Y-99270000D01*
X156780714Y-99317619D01*
X156828333Y-99412857D01*
X156828333Y-99555714D01*
X156780714Y-99650952D01*
X156733095Y-99698571D01*
X156637857Y-99746190D01*
X156256904Y-99746190D01*
X157161666Y-99222380D02*
X157828333Y-100222380D01*
X157828333Y-99222380D02*
X157161666Y-100222380D01*
X153693095Y-99222380D02*
X154264523Y-99222380D01*
X153978809Y-100222380D02*
X153978809Y-99222380D01*
X154502619Y-99222380D02*
X155169285Y-100222380D01*
X155169285Y-99222380D02*
X154502619Y-100222380D01*
D11*
X140695285Y-68190571D02*
X139981000Y-68190571D01*
X139981000Y-66690571D01*
X131039428Y-68190571D02*
X131039428Y-66690571D01*
X131896571Y-68190571D01*
X131896571Y-66690571D01*
X124312285Y-68190571D02*
X123598000Y-68190571D01*
X123598000Y-66690571D01*
D12*
X123850000Y-78560000D02*
X123850000Y-108860000D01*
X103550000Y-78560000D02*
X123850000Y-78560000D01*
X103550000Y-108860000D02*
X103550000Y-78560000D01*
X123850000Y-108860000D02*
X103550000Y-108860000D01*
D10*
X183062000Y-87578000D02*
X183062000Y-74878000D01*
X182462000Y-87578000D02*
X182462000Y-74878000D01*
X182462000Y-74878000D02*
X188262000Y-74878000D01*
X188262000Y-74878000D02*
X188262000Y-87578000D01*
X188262000Y-87578000D02*
X182462000Y-87578000D01*
D12*
X152725000Y-74085225D02*
X152225000Y-74085225D01*
X152475000Y-73835225D02*
X152475000Y-74335225D01*
X151284000Y-79241000D02*
X150716000Y-79241000D01*
X151518000Y-79201000D02*
X150482000Y-79201000D01*
X151677000Y-79161000D02*
X150323000Y-79161000D01*
X151805000Y-79121000D02*
X150195000Y-79121000D01*
X151915000Y-79081000D02*
X150085000Y-79081000D01*
X152011000Y-79041000D02*
X149989000Y-79041000D01*
X152098000Y-79001000D02*
X149902000Y-79001000D01*
X152178000Y-78961000D02*
X149822000Y-78961000D01*
X152251000Y-78921000D02*
X149749000Y-78921000D01*
X152319000Y-78881000D02*
X149681000Y-78881000D01*
X152383000Y-78841000D02*
X149617000Y-78841000D01*
X152443000Y-78801000D02*
X149557000Y-78801000D01*
X152500000Y-78761000D02*
X149500000Y-78761000D01*
X152554000Y-78721000D02*
X149446000Y-78721000D01*
X152605000Y-78681000D02*
X149395000Y-78681000D01*
X149960000Y-78641000D02*
X149347000Y-78641000D01*
X152653000Y-78641000D02*
X152040000Y-78641000D01*
X149960000Y-78601000D02*
X149301000Y-78601000D01*
X152699000Y-78601000D02*
X152040000Y-78601000D01*
X149960000Y-78561000D02*
X149257000Y-78561000D01*
X152743000Y-78561000D02*
X152040000Y-78561000D01*
X149960000Y-78521000D02*
X149215000Y-78521000D01*
X152785000Y-78521000D02*
X152040000Y-78521000D01*
X149960000Y-78481000D02*
X149174000Y-78481000D01*
X152826000Y-78481000D02*
X152040000Y-78481000D01*
X149960000Y-78441000D02*
X149136000Y-78441000D01*
X152864000Y-78441000D02*
X152040000Y-78441000D01*
X149960000Y-78401000D02*
X149099000Y-78401000D01*
X152901000Y-78401000D02*
X152040000Y-78401000D01*
X149960000Y-78361000D02*
X149063000Y-78361000D01*
X152937000Y-78361000D02*
X152040000Y-78361000D01*
X149960000Y-78321000D02*
X149029000Y-78321000D01*
X152971000Y-78321000D02*
X152040000Y-78321000D01*
X149960000Y-78281000D02*
X148996000Y-78281000D01*
X153004000Y-78281000D02*
X152040000Y-78281000D01*
X149960000Y-78241000D02*
X148965000Y-78241000D01*
X153035000Y-78241000D02*
X152040000Y-78241000D01*
X149960000Y-78201000D02*
X148935000Y-78201000D01*
X153065000Y-78201000D02*
X152040000Y-78201000D01*
X149960000Y-78161000D02*
X148905000Y-78161000D01*
X153095000Y-78161000D02*
X152040000Y-78161000D01*
X149960000Y-78121000D02*
X148878000Y-78121000D01*
X153122000Y-78121000D02*
X152040000Y-78121000D01*
X149960000Y-78081000D02*
X148851000Y-78081000D01*
X153149000Y-78081000D02*
X152040000Y-78081000D01*
X149960000Y-78041000D02*
X148825000Y-78041000D01*
X153175000Y-78041000D02*
X152040000Y-78041000D01*
X149960000Y-78001000D02*
X148800000Y-78001000D01*
X153200000Y-78001000D02*
X152040000Y-78001000D01*
X149960000Y-77961000D02*
X148776000Y-77961000D01*
X153224000Y-77961000D02*
X152040000Y-77961000D01*
X149960000Y-77921000D02*
X148753000Y-77921000D01*
X153247000Y-77921000D02*
X152040000Y-77921000D01*
X149960000Y-77881000D02*
X148732000Y-77881000D01*
X153268000Y-77881000D02*
X152040000Y-77881000D01*
X149960000Y-77841000D02*
X148710000Y-77841000D01*
X153290000Y-77841000D02*
X152040000Y-77841000D01*
X149960000Y-77801000D02*
X148690000Y-77801000D01*
X153310000Y-77801000D02*
X152040000Y-77801000D01*
X149960000Y-77761000D02*
X148671000Y-77761000D01*
X153329000Y-77761000D02*
X152040000Y-77761000D01*
X149960000Y-77721000D02*
X148652000Y-77721000D01*
X153348000Y-77721000D02*
X152040000Y-77721000D01*
X149960000Y-77681000D02*
X148635000Y-77681000D01*
X153365000Y-77681000D02*
X152040000Y-77681000D01*
X149960000Y-77641000D02*
X148618000Y-77641000D01*
X153382000Y-77641000D02*
X152040000Y-77641000D01*
X149960000Y-77601000D02*
X148602000Y-77601000D01*
X153398000Y-77601000D02*
X152040000Y-77601000D01*
X149960000Y-77561000D02*
X148586000Y-77561000D01*
X153414000Y-77561000D02*
X152040000Y-77561000D01*
X149960000Y-77521000D02*
X148572000Y-77521000D01*
X153428000Y-77521000D02*
X152040000Y-77521000D01*
X149960000Y-77481000D02*
X148558000Y-77481000D01*
X153442000Y-77481000D02*
X152040000Y-77481000D01*
X149960000Y-77441000D02*
X148545000Y-77441000D01*
X153455000Y-77441000D02*
X152040000Y-77441000D01*
X149960000Y-77401000D02*
X148532000Y-77401000D01*
X153468000Y-77401000D02*
X152040000Y-77401000D01*
X149960000Y-77361000D02*
X148520000Y-77361000D01*
X153480000Y-77361000D02*
X152040000Y-77361000D01*
X149960000Y-77320000D02*
X148509000Y-77320000D01*
X153491000Y-77320000D02*
X152040000Y-77320000D01*
X149960000Y-77280000D02*
X148499000Y-77280000D01*
X153501000Y-77280000D02*
X152040000Y-77280000D01*
X149960000Y-77240000D02*
X148489000Y-77240000D01*
X153511000Y-77240000D02*
X152040000Y-77240000D01*
X149960000Y-77200000D02*
X148480000Y-77200000D01*
X153520000Y-77200000D02*
X152040000Y-77200000D01*
X149960000Y-77160000D02*
X148472000Y-77160000D01*
X153528000Y-77160000D02*
X152040000Y-77160000D01*
X149960000Y-77120000D02*
X148464000Y-77120000D01*
X153536000Y-77120000D02*
X152040000Y-77120000D01*
X149960000Y-77080000D02*
X148457000Y-77080000D01*
X153543000Y-77080000D02*
X152040000Y-77080000D01*
X149960000Y-77040000D02*
X148450000Y-77040000D01*
X153550000Y-77040000D02*
X152040000Y-77040000D01*
X149960000Y-77000000D02*
X148444000Y-77000000D01*
X153556000Y-77000000D02*
X152040000Y-77000000D01*
X149960000Y-76960000D02*
X148439000Y-76960000D01*
X153561000Y-76960000D02*
X152040000Y-76960000D01*
X149960000Y-76920000D02*
X148435000Y-76920000D01*
X153565000Y-76920000D02*
X152040000Y-76920000D01*
X149960000Y-76880000D02*
X148431000Y-76880000D01*
X153569000Y-76880000D02*
X152040000Y-76880000D01*
X149960000Y-76840000D02*
X148427000Y-76840000D01*
X153573000Y-76840000D02*
X152040000Y-76840000D01*
X149960000Y-76800000D02*
X148424000Y-76800000D01*
X153576000Y-76800000D02*
X152040000Y-76800000D01*
X149960000Y-76760000D02*
X148422000Y-76760000D01*
X153578000Y-76760000D02*
X152040000Y-76760000D01*
X149960000Y-76720000D02*
X148421000Y-76720000D01*
X153579000Y-76720000D02*
X152040000Y-76720000D01*
X153580000Y-76680000D02*
X152040000Y-76680000D01*
X149960000Y-76680000D02*
X148420000Y-76680000D01*
X153580000Y-76640000D02*
X152040000Y-76640000D01*
X149960000Y-76640000D02*
X148420000Y-76640000D01*
X153620000Y-76640000D02*
G75*
G03X153620000Y-76640000I-2620000J0D01*
G01*
X161747000Y-105642775D02*
X162247000Y-105642775D01*
X161997000Y-105892775D02*
X161997000Y-105392775D01*
X163188000Y-100487000D02*
X163756000Y-100487000D01*
X162954000Y-100527000D02*
X163990000Y-100527000D01*
X162795000Y-100567000D02*
X164149000Y-100567000D01*
X162667000Y-100607000D02*
X164277000Y-100607000D01*
X162557000Y-100647000D02*
X164387000Y-100647000D01*
X162461000Y-100687000D02*
X164483000Y-100687000D01*
X162374000Y-100727000D02*
X164570000Y-100727000D01*
X162294000Y-100767000D02*
X164650000Y-100767000D01*
X162221000Y-100807000D02*
X164723000Y-100807000D01*
X162153000Y-100847000D02*
X164791000Y-100847000D01*
X162089000Y-100887000D02*
X164855000Y-100887000D01*
X162029000Y-100927000D02*
X164915000Y-100927000D01*
X161972000Y-100967000D02*
X164972000Y-100967000D01*
X161918000Y-101007000D02*
X165026000Y-101007000D01*
X161867000Y-101047000D02*
X165077000Y-101047000D01*
X164512000Y-101087000D02*
X165125000Y-101087000D01*
X161819000Y-101087000D02*
X162432000Y-101087000D01*
X164512000Y-101127000D02*
X165171000Y-101127000D01*
X161773000Y-101127000D02*
X162432000Y-101127000D01*
X164512000Y-101167000D02*
X165215000Y-101167000D01*
X161729000Y-101167000D02*
X162432000Y-101167000D01*
X164512000Y-101207000D02*
X165257000Y-101207000D01*
X161687000Y-101207000D02*
X162432000Y-101207000D01*
X164512000Y-101247000D02*
X165298000Y-101247000D01*
X161646000Y-101247000D02*
X162432000Y-101247000D01*
X164512000Y-101287000D02*
X165336000Y-101287000D01*
X161608000Y-101287000D02*
X162432000Y-101287000D01*
X164512000Y-101327000D02*
X165373000Y-101327000D01*
X161571000Y-101327000D02*
X162432000Y-101327000D01*
X164512000Y-101367000D02*
X165409000Y-101367000D01*
X161535000Y-101367000D02*
X162432000Y-101367000D01*
X164512000Y-101407000D02*
X165443000Y-101407000D01*
X161501000Y-101407000D02*
X162432000Y-101407000D01*
X164512000Y-101447000D02*
X165476000Y-101447000D01*
X161468000Y-101447000D02*
X162432000Y-101447000D01*
X164512000Y-101487000D02*
X165507000Y-101487000D01*
X161437000Y-101487000D02*
X162432000Y-101487000D01*
X164512000Y-101527000D02*
X165537000Y-101527000D01*
X161407000Y-101527000D02*
X162432000Y-101527000D01*
X164512000Y-101567000D02*
X165567000Y-101567000D01*
X161377000Y-101567000D02*
X162432000Y-101567000D01*
X164512000Y-101607000D02*
X165594000Y-101607000D01*
X161350000Y-101607000D02*
X162432000Y-101607000D01*
X164512000Y-101647000D02*
X165621000Y-101647000D01*
X161323000Y-101647000D02*
X162432000Y-101647000D01*
X164512000Y-101687000D02*
X165647000Y-101687000D01*
X161297000Y-101687000D02*
X162432000Y-101687000D01*
X164512000Y-101727000D02*
X165672000Y-101727000D01*
X161272000Y-101727000D02*
X162432000Y-101727000D01*
X164512000Y-101767000D02*
X165696000Y-101767000D01*
X161248000Y-101767000D02*
X162432000Y-101767000D01*
X164512000Y-101807000D02*
X165719000Y-101807000D01*
X161225000Y-101807000D02*
X162432000Y-101807000D01*
X164512000Y-101847000D02*
X165740000Y-101847000D01*
X161204000Y-101847000D02*
X162432000Y-101847000D01*
X164512000Y-101887000D02*
X165762000Y-101887000D01*
X161182000Y-101887000D02*
X162432000Y-101887000D01*
X164512000Y-101927000D02*
X165782000Y-101927000D01*
X161162000Y-101927000D02*
X162432000Y-101927000D01*
X164512000Y-101967000D02*
X165801000Y-101967000D01*
X161143000Y-101967000D02*
X162432000Y-101967000D01*
X164512000Y-102007000D02*
X165820000Y-102007000D01*
X161124000Y-102007000D02*
X162432000Y-102007000D01*
X164512000Y-102047000D02*
X165837000Y-102047000D01*
X161107000Y-102047000D02*
X162432000Y-102047000D01*
X164512000Y-102087000D02*
X165854000Y-102087000D01*
X161090000Y-102087000D02*
X162432000Y-102087000D01*
X164512000Y-102127000D02*
X165870000Y-102127000D01*
X161074000Y-102127000D02*
X162432000Y-102127000D01*
X164512000Y-102167000D02*
X165886000Y-102167000D01*
X161058000Y-102167000D02*
X162432000Y-102167000D01*
X164512000Y-102207000D02*
X165900000Y-102207000D01*
X161044000Y-102207000D02*
X162432000Y-102207000D01*
X164512000Y-102247000D02*
X165914000Y-102247000D01*
X161030000Y-102247000D02*
X162432000Y-102247000D01*
X164512000Y-102287000D02*
X165927000Y-102287000D01*
X161017000Y-102287000D02*
X162432000Y-102287000D01*
X164512000Y-102327000D02*
X165940000Y-102327000D01*
X161004000Y-102327000D02*
X162432000Y-102327000D01*
X164512000Y-102367000D02*
X165952000Y-102367000D01*
X160992000Y-102367000D02*
X162432000Y-102367000D01*
X164512000Y-102408000D02*
X165963000Y-102408000D01*
X160981000Y-102408000D02*
X162432000Y-102408000D01*
X164512000Y-102448000D02*
X165973000Y-102448000D01*
X160971000Y-102448000D02*
X162432000Y-102448000D01*
X164512000Y-102488000D02*
X165983000Y-102488000D01*
X160961000Y-102488000D02*
X162432000Y-102488000D01*
X164512000Y-102528000D02*
X165992000Y-102528000D01*
X160952000Y-102528000D02*
X162432000Y-102528000D01*
X164512000Y-102568000D02*
X166000000Y-102568000D01*
X160944000Y-102568000D02*
X162432000Y-102568000D01*
X164512000Y-102608000D02*
X166008000Y-102608000D01*
X160936000Y-102608000D02*
X162432000Y-102608000D01*
X164512000Y-102648000D02*
X166015000Y-102648000D01*
X160929000Y-102648000D02*
X162432000Y-102648000D01*
X164512000Y-102688000D02*
X166022000Y-102688000D01*
X160922000Y-102688000D02*
X162432000Y-102688000D01*
X164512000Y-102728000D02*
X166028000Y-102728000D01*
X160916000Y-102728000D02*
X162432000Y-102728000D01*
X164512000Y-102768000D02*
X166033000Y-102768000D01*
X160911000Y-102768000D02*
X162432000Y-102768000D01*
X164512000Y-102808000D02*
X166037000Y-102808000D01*
X160907000Y-102808000D02*
X162432000Y-102808000D01*
X164512000Y-102848000D02*
X166041000Y-102848000D01*
X160903000Y-102848000D02*
X162432000Y-102848000D01*
X164512000Y-102888000D02*
X166045000Y-102888000D01*
X160899000Y-102888000D02*
X162432000Y-102888000D01*
X164512000Y-102928000D02*
X166048000Y-102928000D01*
X160896000Y-102928000D02*
X162432000Y-102928000D01*
X164512000Y-102968000D02*
X166050000Y-102968000D01*
X160894000Y-102968000D02*
X162432000Y-102968000D01*
X164512000Y-103008000D02*
X166051000Y-103008000D01*
X160893000Y-103008000D02*
X162432000Y-103008000D01*
X160892000Y-103048000D02*
X162432000Y-103048000D01*
X164512000Y-103048000D02*
X166052000Y-103048000D01*
X160892000Y-103088000D02*
X162432000Y-103088000D01*
X164512000Y-103088000D02*
X166052000Y-103088000D01*
X166092000Y-103088000D02*
G75*
G03X166092000Y-103088000I-2620000J0D01*
G01*
X130544000Y-107698000D02*
X130544000Y-110638000D01*
X130784000Y-107698000D02*
X130784000Y-110638000D01*
X130664000Y-107698000D02*
X130664000Y-110638000D01*
X136224000Y-109168000D02*
X135204000Y-109168000D01*
X128744000Y-109168000D02*
X129764000Y-109168000D01*
X135204000Y-107698000D02*
X129764000Y-107698000D01*
X135204000Y-110638000D02*
X135204000Y-107698000D01*
X129764000Y-110638000D02*
X135204000Y-110638000D01*
X129764000Y-107698000D02*
X129764000Y-110638000D01*
X150682000Y-102017000D02*
X150682000Y-101351000D01*
X150682000Y-104793000D02*
X150682000Y-104127000D01*
X156022000Y-102017000D02*
X156022000Y-101351000D01*
X156022000Y-104793000D02*
X156022000Y-104127000D01*
X156022000Y-101351000D02*
X150682000Y-101351000D01*
X156022000Y-104793000D02*
X150682000Y-104793000D01*
X166580000Y-97000000D02*
X166580000Y-98330000D01*
X166580000Y-98330000D02*
X165250000Y-98330000D01*
X163980000Y-98330000D02*
X151220000Y-98330000D01*
X151220000Y-95670000D02*
X151220000Y-98330000D01*
X163980000Y-95670000D02*
X151220000Y-95670000D01*
X163980000Y-95670000D02*
X163980000Y-98330000D01*
X164001000Y-84360000D02*
G75*
G03X158951000Y-84360000I-2525000J0D01*
G01*
X164001000Y-90760000D02*
G75*
G02X158951000Y-90760000I-2525000J0D01*
G01*
X164001000Y-90760000D02*
X164001000Y-84360000D01*
X158951000Y-90760000D02*
X158951000Y-84360000D01*
X162170000Y-78055000D02*
X162170000Y-78721000D01*
X162170000Y-75279000D02*
X162170000Y-75945000D01*
X156830000Y-78055000D02*
X156830000Y-78721000D01*
X156830000Y-75279000D02*
X156830000Y-75945000D01*
X156830000Y-78721000D02*
X162170000Y-78721000D01*
X156830000Y-75279000D02*
X162170000Y-75279000D01*
X186117000Y-98918000D02*
X186783000Y-98918000D01*
X183341000Y-98918000D02*
X184007000Y-98918000D01*
X186117000Y-104258000D02*
X186783000Y-104258000D01*
X183341000Y-104258000D02*
X184007000Y-104258000D01*
X186783000Y-104258000D02*
X186783000Y-98918000D01*
X183341000Y-104258000D02*
X183341000Y-98918000D01*
X132574000Y-105905000D02*
X132574000Y-106571000D01*
X132574000Y-103129000D02*
X132574000Y-103795000D01*
X127234000Y-105905000D02*
X127234000Y-106571000D01*
X127234000Y-103129000D02*
X127234000Y-103795000D01*
X127234000Y-106571000D02*
X132574000Y-106571000D01*
X127234000Y-103129000D02*
X132574000Y-103129000D01*
X109142302Y-115851000D02*
X109142302Y-116651000D01*
X108742302Y-116251000D02*
X109542302Y-116251000D01*
X117233000Y-118033000D02*
X117233000Y-119099000D01*
X117193000Y-117798000D02*
X117193000Y-119334000D01*
X117153000Y-117618000D02*
X117153000Y-119514000D01*
X117113000Y-117468000D02*
X117113000Y-119664000D01*
X117073000Y-117337000D02*
X117073000Y-119795000D01*
X117033000Y-117220000D02*
X117033000Y-119912000D01*
X116993000Y-117113000D02*
X116993000Y-120019000D01*
X116953000Y-117014000D02*
X116953000Y-120118000D01*
X116913000Y-116921000D02*
X116913000Y-120211000D01*
X116873000Y-116835000D02*
X116873000Y-120297000D01*
X116833000Y-116753000D02*
X116833000Y-120379000D01*
X116793000Y-116676000D02*
X116793000Y-120456000D01*
X116753000Y-116602000D02*
X116753000Y-120530000D01*
X116713000Y-116532000D02*
X116713000Y-120600000D01*
X116673000Y-116464000D02*
X116673000Y-120668000D01*
X116633000Y-116400000D02*
X116633000Y-120732000D01*
X116593000Y-116338000D02*
X116593000Y-120794000D01*
X116553000Y-116279000D02*
X116553000Y-120853000D01*
X116513000Y-116221000D02*
X116513000Y-120911000D01*
X116473000Y-116166000D02*
X116473000Y-120966000D01*
X116433000Y-116112000D02*
X116433000Y-121020000D01*
X116393000Y-116061000D02*
X116393000Y-121071000D01*
X116353000Y-116010000D02*
X116353000Y-121122000D01*
X116313000Y-115962000D02*
X116313000Y-121170000D01*
X116273000Y-115915000D02*
X116273000Y-121217000D01*
X116233000Y-115869000D02*
X116233000Y-121263000D01*
X116193000Y-115825000D02*
X116193000Y-121307000D01*
X116153000Y-115782000D02*
X116153000Y-121350000D01*
X116113000Y-115740000D02*
X116113000Y-121392000D01*
X116073000Y-115699000D02*
X116073000Y-121433000D01*
X116033000Y-115659000D02*
X116033000Y-121473000D01*
X115993000Y-115621000D02*
X115993000Y-121511000D01*
X115953000Y-115583000D02*
X115953000Y-121549000D01*
X115913000Y-119606000D02*
X115913000Y-121585000D01*
X115913000Y-115547000D02*
X115913000Y-117526000D01*
X115873000Y-119606000D02*
X115873000Y-121621000D01*
X115873000Y-115511000D02*
X115873000Y-117526000D01*
X115833000Y-119606000D02*
X115833000Y-121656000D01*
X115833000Y-115476000D02*
X115833000Y-117526000D01*
X115793000Y-119606000D02*
X115793000Y-121690000D01*
X115793000Y-115442000D02*
X115793000Y-117526000D01*
X115753000Y-119606000D02*
X115753000Y-121722000D01*
X115753000Y-115410000D02*
X115753000Y-117526000D01*
X115713000Y-119606000D02*
X115713000Y-121755000D01*
X115713000Y-115377000D02*
X115713000Y-117526000D01*
X115673000Y-119606000D02*
X115673000Y-121786000D01*
X115673000Y-115346000D02*
X115673000Y-117526000D01*
X115633000Y-119606000D02*
X115633000Y-121816000D01*
X115633000Y-115316000D02*
X115633000Y-117526000D01*
X115593000Y-119606000D02*
X115593000Y-121846000D01*
X115593000Y-115286000D02*
X115593000Y-117526000D01*
X115553000Y-119606000D02*
X115553000Y-121875000D01*
X115553000Y-115257000D02*
X115553000Y-117526000D01*
X115513000Y-119606000D02*
X115513000Y-121904000D01*
X115513000Y-115228000D02*
X115513000Y-117526000D01*
X115473000Y-119606000D02*
X115473000Y-121931000D01*
X115473000Y-115201000D02*
X115473000Y-117526000D01*
X115433000Y-119606000D02*
X115433000Y-121958000D01*
X115433000Y-115174000D02*
X115433000Y-117526000D01*
X115393000Y-119606000D02*
X115393000Y-121984000D01*
X115393000Y-115148000D02*
X115393000Y-117526000D01*
X115353000Y-119606000D02*
X115353000Y-122010000D01*
X115353000Y-115122000D02*
X115353000Y-117526000D01*
X115313000Y-119606000D02*
X115313000Y-122035000D01*
X115313000Y-115097000D02*
X115313000Y-117526000D01*
X115273000Y-119606000D02*
X115273000Y-122059000D01*
X115273000Y-115073000D02*
X115273000Y-117526000D01*
X115233000Y-119606000D02*
X115233000Y-122083000D01*
X115233000Y-115049000D02*
X115233000Y-117526000D01*
X115193000Y-119606000D02*
X115193000Y-122106000D01*
X115193000Y-115026000D02*
X115193000Y-117526000D01*
X115153000Y-119606000D02*
X115153000Y-122128000D01*
X115153000Y-115004000D02*
X115153000Y-117526000D01*
X115113000Y-119606000D02*
X115113000Y-122150000D01*
X115113000Y-114982000D02*
X115113000Y-117526000D01*
X115073000Y-119606000D02*
X115073000Y-122172000D01*
X115073000Y-114960000D02*
X115073000Y-117526000D01*
X115033000Y-119606000D02*
X115033000Y-122193000D01*
X115033000Y-114939000D02*
X115033000Y-117526000D01*
X114993000Y-119606000D02*
X114993000Y-122213000D01*
X114993000Y-114919000D02*
X114993000Y-117526000D01*
X114953000Y-119606000D02*
X114953000Y-122232000D01*
X114953000Y-114900000D02*
X114953000Y-117526000D01*
X114913000Y-119606000D02*
X114913000Y-122252000D01*
X114913000Y-114880000D02*
X114913000Y-117526000D01*
X114873000Y-119606000D02*
X114873000Y-122270000D01*
X114873000Y-114862000D02*
X114873000Y-117526000D01*
X114833000Y-119606000D02*
X114833000Y-122288000D01*
X114833000Y-114844000D02*
X114833000Y-117526000D01*
X114793000Y-119606000D02*
X114793000Y-122306000D01*
X114793000Y-114826000D02*
X114793000Y-117526000D01*
X114753000Y-119606000D02*
X114753000Y-122323000D01*
X114753000Y-114809000D02*
X114753000Y-117526000D01*
X114713000Y-119606000D02*
X114713000Y-122340000D01*
X114713000Y-114792000D02*
X114713000Y-117526000D01*
X114673000Y-119606000D02*
X114673000Y-122356000D01*
X114673000Y-114776000D02*
X114673000Y-117526000D01*
X114633000Y-119606000D02*
X114633000Y-122371000D01*
X114633000Y-114761000D02*
X114633000Y-117526000D01*
X114593000Y-119606000D02*
X114593000Y-122387000D01*
X114593000Y-114745000D02*
X114593000Y-117526000D01*
X114553000Y-119606000D02*
X114553000Y-122401000D01*
X114553000Y-114731000D02*
X114553000Y-117526000D01*
X114513000Y-119606000D02*
X114513000Y-122416000D01*
X114513000Y-114716000D02*
X114513000Y-117526000D01*
X114473000Y-119606000D02*
X114473000Y-122429000D01*
X114473000Y-114703000D02*
X114473000Y-117526000D01*
X114433000Y-119606000D02*
X114433000Y-122443000D01*
X114433000Y-114689000D02*
X114433000Y-117526000D01*
X114393000Y-119606000D02*
X114393000Y-122455000D01*
X114393000Y-114677000D02*
X114393000Y-117526000D01*
X114353000Y-119606000D02*
X114353000Y-122468000D01*
X114353000Y-114664000D02*
X114353000Y-117526000D01*
X114313000Y-119606000D02*
X114313000Y-122480000D01*
X114313000Y-114652000D02*
X114313000Y-117526000D01*
X114273000Y-119606000D02*
X114273000Y-122491000D01*
X114273000Y-114641000D02*
X114273000Y-117526000D01*
X114233000Y-119606000D02*
X114233000Y-122502000D01*
X114233000Y-114630000D02*
X114233000Y-117526000D01*
X114193000Y-119606000D02*
X114193000Y-122513000D01*
X114193000Y-114619000D02*
X114193000Y-117526000D01*
X114153000Y-119606000D02*
X114153000Y-122523000D01*
X114153000Y-114609000D02*
X114153000Y-117526000D01*
X114113000Y-119606000D02*
X114113000Y-122533000D01*
X114113000Y-114599000D02*
X114113000Y-117526000D01*
X114073000Y-119606000D02*
X114073000Y-122542000D01*
X114073000Y-114590000D02*
X114073000Y-117526000D01*
X114033000Y-119606000D02*
X114033000Y-122551000D01*
X114033000Y-114581000D02*
X114033000Y-117526000D01*
X113993000Y-119606000D02*
X113993000Y-122560000D01*
X113993000Y-114572000D02*
X113993000Y-117526000D01*
X113953000Y-119606000D02*
X113953000Y-122568000D01*
X113953000Y-114564000D02*
X113953000Y-117526000D01*
X113913000Y-119606000D02*
X113913000Y-122576000D01*
X113913000Y-114556000D02*
X113913000Y-117526000D01*
X113873000Y-119606000D02*
X113873000Y-122583000D01*
X113873000Y-114549000D02*
X113873000Y-117526000D01*
X113832000Y-114542000D02*
X113832000Y-122590000D01*
X113792000Y-114536000D02*
X113792000Y-122596000D01*
X113752000Y-114529000D02*
X113752000Y-122603000D01*
X113712000Y-114524000D02*
X113712000Y-122608000D01*
X113672000Y-114518000D02*
X113672000Y-122614000D01*
X113632000Y-114514000D02*
X113632000Y-122618000D01*
X113592000Y-114509000D02*
X113592000Y-122623000D01*
X113552000Y-114505000D02*
X113552000Y-122627000D01*
X113512000Y-114501000D02*
X113512000Y-122631000D01*
X113472000Y-114498000D02*
X113472000Y-122634000D01*
X113432000Y-114495000D02*
X113432000Y-122637000D01*
X113392000Y-114492000D02*
X113392000Y-122640000D01*
X113352000Y-114490000D02*
X113352000Y-122642000D01*
X113312000Y-114489000D02*
X113312000Y-122643000D01*
X113272000Y-114487000D02*
X113272000Y-122645000D01*
X113232000Y-114486000D02*
X113232000Y-122646000D01*
X113192000Y-114486000D02*
X113192000Y-122646000D01*
X113152000Y-114486000D02*
X113152000Y-122646000D01*
X117272000Y-118566000D02*
G75*
G03X117272000Y-118566000I-4120000J0D01*
G01*
X186900478Y-89803522D02*
G75*
G03X182462000Y-91642000I-1838478J-1838478D01*
G01*
X186900478Y-93480478D02*
G75*
G02X182462000Y-91642000I-1838478J1838478D01*
G01*
X186912000Y-93442000D02*
X186912000Y-89842000D01*
X117240000Y-77950000D02*
X115230000Y-77950000D01*
X123840000Y-112540000D02*
X123840000Y-78340000D01*
X103640000Y-112540000D02*
X123840000Y-112540000D01*
X103640000Y-78340000D02*
X103640000Y-112540000D01*
X123840000Y-78340000D02*
X103640000Y-78340000D01*
X145984184Y-99622795D02*
G75*
G02X145460000Y-100350000I-2324184J1122795D01*
G01*
X146016400Y-97401193D02*
G75*
G03X143660000Y-95900000I-2356400J-1098807D01*
G01*
X141303600Y-97401193D02*
G75*
G02X143660000Y-95900000I2356400J-1098807D01*
G01*
X141335816Y-99622795D02*
G75*
G03X141860000Y-100350000I2324184J1122795D01*
G01*
X141860000Y-100350000D02*
X145460000Y-100350000D01*
X142150000Y-68850000D02*
X142150000Y-76850000D01*
X131750000Y-68850000D02*
X142150000Y-68850000D01*
X131750000Y-76850000D02*
X131750000Y-68850000D01*
X142150000Y-76850000D02*
X131750000Y-76850000D01*
X132150000Y-68850000D02*
X132150000Y-76850000D01*
X121750000Y-68850000D02*
X132150000Y-68850000D01*
X121750000Y-76850000D02*
X121750000Y-68850000D01*
X132150000Y-76850000D02*
X121750000Y-76850000D01*
X156630000Y-73364000D02*
X156630000Y-73664000D01*
X157520000Y-73664000D02*
X157520000Y-73314000D01*
X157520000Y-73664000D02*
X156630000Y-73664000D01*
X158010000Y-71114000D02*
X162990000Y-71114000D01*
X156630000Y-66874000D02*
X156630000Y-70724000D01*
X164370000Y-66874000D02*
X156630000Y-66874000D01*
X164370000Y-70724000D02*
X164370000Y-66874000D01*
X164370000Y-73364000D02*
X164370000Y-73664000D01*
X164370000Y-73664000D02*
X163480000Y-73664000D01*
X163480000Y-73664000D02*
X163480000Y-73314000D01*
X154655000Y-122896000D02*
X152115000Y-122896000D01*
X154655000Y-122896000D02*
X154655000Y-120356000D01*
X154405000Y-122646000D02*
X145055000Y-122646000D01*
X154405000Y-106866000D02*
X154405000Y-122646000D01*
X145055000Y-106866000D02*
X154405000Y-106866000D01*
X145055000Y-122646000D02*
X145055000Y-106866000D01*
X137950000Y-114756000D02*
X140560000Y-114756000D01*
X137950000Y-114756000D02*
G75*
G03X137950000Y-114756000I-1370000J0D01*
G01*
X129568000Y-114756000D02*
X132178000Y-114756000D01*
X129568000Y-114756000D02*
G75*
G03X129568000Y-114756000I-1370000J0D01*
G01*
X121186000Y-114756000D02*
X123796000Y-114756000D01*
X121186000Y-114756000D02*
G75*
G03X121186000Y-114756000I-1370000J0D01*
G01*
X139077000Y-119905000D02*
X139077000Y-119905000D01*
X139077000Y-122575000D02*
X139077000Y-119905000D01*
X139077000Y-122575000D02*
X139077000Y-122575000D01*
X139077000Y-119905000D02*
X139077000Y-122575000D01*
X136537000Y-119905000D02*
X136537000Y-119905000D01*
X136537000Y-122575000D02*
X136537000Y-119905000D01*
X136537000Y-122575000D02*
X136537000Y-122575000D01*
X136537000Y-119905000D02*
X136537000Y-122575000D01*
X140367000Y-122575000D02*
X140767000Y-122575000D01*
X140367000Y-123695000D02*
X140367000Y-122575000D01*
X140767000Y-123695000D02*
X140367000Y-123695000D01*
X140767000Y-122575000D02*
X140767000Y-123695000D01*
X135247000Y-122575000D02*
X140367000Y-122575000D01*
X140367000Y-122575000D02*
X140367000Y-128735000D01*
X135247000Y-122575000D02*
X135247000Y-128735000D01*
X140367000Y-128735000D02*
G75*
G02X135247000Y-128735000I-2560000J0D01*
G01*
X131577000Y-119905000D02*
X131577000Y-119905000D01*
X131577000Y-122575000D02*
X131577000Y-119905000D01*
X131577000Y-122575000D02*
X131577000Y-122575000D01*
X131577000Y-119905000D02*
X131577000Y-122575000D01*
X129037000Y-119905000D02*
X129037000Y-119905000D01*
X129037000Y-122575000D02*
X129037000Y-119905000D01*
X129037000Y-122575000D02*
X129037000Y-122575000D01*
X129037000Y-119905000D02*
X129037000Y-122575000D01*
X132867000Y-122575000D02*
X133267000Y-122575000D01*
X132867000Y-123695000D02*
X132867000Y-122575000D01*
X133267000Y-123695000D02*
X132867000Y-123695000D01*
X133267000Y-122575000D02*
X133267000Y-123695000D01*
X127747000Y-122575000D02*
X132867000Y-122575000D01*
X132867000Y-122575000D02*
X132867000Y-128735000D01*
X127747000Y-122575000D02*
X127747000Y-128735000D01*
X132867000Y-128735000D02*
G75*
G02X127747000Y-128735000I-2560000J0D01*
G01*
X124077000Y-119905000D02*
X124077000Y-119905000D01*
X124077000Y-122575000D02*
X124077000Y-119905000D01*
X124077000Y-122575000D02*
X124077000Y-122575000D01*
X124077000Y-119905000D02*
X124077000Y-122575000D01*
X121537000Y-119905000D02*
X121537000Y-119905000D01*
X121537000Y-122575000D02*
X121537000Y-119905000D01*
X121537000Y-122575000D02*
X121537000Y-122575000D01*
X121537000Y-119905000D02*
X121537000Y-122575000D01*
X125367000Y-122575000D02*
X125767000Y-122575000D01*
X125367000Y-123695000D02*
X125367000Y-122575000D01*
X125767000Y-123695000D02*
X125367000Y-123695000D01*
X125767000Y-122575000D02*
X125767000Y-123695000D01*
X120247000Y-122575000D02*
X125367000Y-122575000D01*
X125367000Y-122575000D02*
X125367000Y-128735000D01*
X120247000Y-122575000D02*
X120247000Y-128735000D01*
X125367000Y-128735000D02*
G75*
G02X120247000Y-128735000I-2560000J0D01*
G01*
D10*
X146190000Y-72744000D02*
X146190000Y-66944000D01*
X153810000Y-72744000D02*
X146190000Y-72744000D01*
X153810000Y-66944000D02*
X153810000Y-72744000D01*
X146190000Y-66944000D02*
X153810000Y-66944000D01*
X146190000Y-67544000D02*
X153810000Y-67544000D01*
D12*
X135962000Y-87650000D02*
X131962000Y-87650000D01*
X135962000Y-84050000D02*
X135962000Y-87650000D01*
X131962000Y-84050000D02*
X135962000Y-84050000D01*
X131962000Y-87650000D02*
X131962000Y-84050000D01*
X135962000Y-87650000D02*
X131962000Y-84050000D01*
X133962000Y-87650000D02*
X133962000Y-91850000D01*
X133962000Y-79850000D02*
X133962000Y-84050000D01*
X130562000Y-85850000D02*
X130562000Y-89450000D01*
X137362000Y-85850000D02*
X137362000Y-89450000D01*
X137362000Y-89450000D02*
X130562000Y-89450000D01*
X138862000Y-85850000D02*
X143462000Y-83350000D01*
X137362000Y-85850000D02*
X138862000Y-85850000D01*
X133962000Y-79850000D02*
X131462000Y-79850000D01*
X130562000Y-85850000D02*
X129762000Y-85850000D01*
X131462000Y-91850000D02*
X133962000Y-91850000D01*
X142062000Y-81600000D02*
X142062000Y-84100000D01*
X142062000Y-90000000D02*
X142062000Y-87550000D01*
X146312000Y-93600000D02*
X126512000Y-93600000D01*
X146312000Y-78000000D02*
X146312000Y-93600000D01*
X126512000Y-78000000D02*
X146312000Y-78000000D01*
X126512000Y-78000000D02*
X126512000Y-84600000D01*
X126512000Y-87000000D02*
X126512000Y-93600000D01*
X130544000Y-95252000D02*
X130544000Y-98192000D01*
X130784000Y-95252000D02*
X130784000Y-98192000D01*
X130664000Y-95252000D02*
X130664000Y-98192000D01*
X136224000Y-96722000D02*
X135204000Y-96722000D01*
X128744000Y-96722000D02*
X129764000Y-96722000D01*
X135204000Y-95252000D02*
X129764000Y-95252000D01*
X135204000Y-98192000D02*
X135204000Y-95252000D01*
X129764000Y-98192000D02*
X135204000Y-98192000D01*
X129764000Y-95252000D02*
X129764000Y-98192000D01*
X120851000Y-72094000D02*
G75*
G03X120851000Y-72094000I-4750000J0D01*
G01*
X119051000Y-76074000D02*
X118921000Y-75924000D01*
X119231000Y-76154000D02*
X119051000Y-76074000D01*
X119521000Y-76194000D02*
X119231000Y-76154000D01*
X119811000Y-76114000D02*
X119521000Y-76194000D01*
X120031000Y-75944000D02*
X119811000Y-76114000D01*
X120181000Y-75684000D02*
X120031000Y-75944000D01*
X120211000Y-75424000D02*
X120181000Y-75684000D01*
X120161000Y-75174000D02*
X120211000Y-75424000D01*
X120071000Y-75014000D02*
X120161000Y-75174000D01*
X119951000Y-74874000D02*
X120071000Y-75014000D01*
X138412000Y-103930000D02*
X138412000Y-105770000D01*
X138652000Y-103930000D02*
X138652000Y-105770000D01*
X138532000Y-103930000D02*
X138532000Y-105770000D01*
X142416000Y-104850000D02*
X141236000Y-104850000D01*
X136776000Y-104850000D02*
X137956000Y-104850000D01*
X141236000Y-103930000D02*
X137956000Y-103930000D01*
X141236000Y-105770000D02*
X141236000Y-103930000D01*
X137956000Y-105770000D02*
X141236000Y-105770000D01*
X137956000Y-103930000D02*
X137956000Y-105770000D01*
X153091000Y-82530000D02*
X153716000Y-82530000D01*
X150876000Y-82530000D02*
X151501000Y-82530000D01*
X153091000Y-86570000D02*
X153716000Y-86570000D01*
X150876000Y-86570000D02*
X151501000Y-86570000D01*
X153716000Y-86570000D02*
X153716000Y-82530000D01*
X150876000Y-86570000D02*
X150876000Y-82530000D01*
X151501000Y-92118000D02*
X150876000Y-92118000D01*
X153716000Y-92118000D02*
X153091000Y-92118000D01*
X151501000Y-88078000D02*
X150876000Y-88078000D01*
X153716000Y-88078000D02*
X153091000Y-88078000D01*
X150876000Y-88078000D02*
X150876000Y-92118000D01*
X153716000Y-88078000D02*
X153716000Y-92118000D01*
X168000000Y-79630000D02*
X168000000Y-77020000D01*
X169370000Y-81000000D02*
G75*
G03X169370000Y-81000000I-1370000J0D01*
G01*
X156360000Y-91650000D02*
X156360000Y-90880000D01*
X156360000Y-83570000D02*
X156360000Y-84340000D01*
X157730000Y-90880000D02*
X157730000Y-84340000D01*
X154990000Y-90880000D02*
X157730000Y-90880000D01*
X154990000Y-84340000D02*
X154990000Y-90880000D01*
X157730000Y-84340000D02*
X154990000Y-84340000D01*
X136524000Y-100532000D02*
X135754000Y-100532000D01*
X128444000Y-100532000D02*
X129214000Y-100532000D01*
X135754000Y-99162000D02*
X129214000Y-99162000D01*
X135754000Y-101902000D02*
X135754000Y-99162000D01*
X129214000Y-101902000D02*
X135754000Y-101902000D01*
X129214000Y-99162000D02*
X129214000Y-101902000D01*
X178568000Y-67960000D02*
X176918000Y-67960000D01*
X178568000Y-103640000D02*
X178568000Y-67960000D01*
X173268000Y-103640000D02*
X178568000Y-103640000D01*
X173268000Y-67960000D02*
X173268000Y-103640000D01*
X174918000Y-67960000D02*
X173268000Y-67960000D01*
X176918000Y-67960000D02*
G75*
G02X174918000Y-67960000I-1000000J0D01*
G01*
X159662000Y-107644000D02*
X159662000Y-107644000D01*
X159662000Y-118312000D02*
X159662000Y-107644000D01*
X159332000Y-107068000D02*
X159332000Y-107068000D01*
X159332000Y-122518000D02*
X159332000Y-107068000D01*
X188532000Y-122518000D02*
X159332000Y-122518000D01*
X188532000Y-107068000D02*
X188532000Y-122518000D01*
X159332000Y-107068000D02*
X188532000Y-107068000D01*
X159916000Y-110438000D02*
X159916000Y-110438000D01*
X162202000Y-110438000D02*
X159916000Y-110438000D01*
X162202000Y-108152000D02*
X162202000Y-110438000D01*
X159662000Y-118312000D02*
X159662000Y-118312000D01*
X164996000Y-118312000D02*
X159662000Y-118312000D01*
X164996000Y-107644000D02*
X164996000Y-118312000D01*
X159662000Y-107644000D02*
X164996000Y-107644000D01*
D13*
G36*
X114139878Y-93287776D02*
G01*
X114245612Y-93288355D01*
X114322132Y-93289922D01*
X114374372Y-93292972D01*
X114407263Y-93297996D01*
X114425737Y-93305489D01*
X114434727Y-93315944D01*
X114439163Y-93329853D01*
X114439594Y-93331654D01*
X114446333Y-93364145D01*
X114458808Y-93428252D01*
X114475719Y-93517151D01*
X114495771Y-93624019D01*
X114517664Y-93742033D01*
X114518429Y-93746178D01*
X114540359Y-93861831D01*
X114560877Y-93964014D01*
X114578659Y-94046598D01*
X114592381Y-94103456D01*
X114600718Y-94128458D01*
X114601116Y-94128901D01*
X114625677Y-94141110D01*
X114676315Y-94161456D01*
X114742095Y-94185545D01*
X114742461Y-94185674D01*
X114825317Y-94216818D01*
X114923000Y-94256491D01*
X115015077Y-94296381D01*
X115019434Y-94298353D01*
X115169407Y-94366420D01*
X115501498Y-94139639D01*
X115603374Y-94070504D01*
X115695657Y-94008697D01*
X115773003Y-93957733D01*
X115830064Y-93921127D01*
X115861495Y-93902394D01*
X115864479Y-93901004D01*
X115887321Y-93907190D01*
X115929982Y-93937035D01*
X115994128Y-93991947D01*
X116081421Y-94073334D01*
X116170535Y-94159922D01*
X116256441Y-94245247D01*
X116333327Y-94323108D01*
X116396564Y-94388697D01*
X116441523Y-94437205D01*
X116463576Y-94463825D01*
X116464396Y-94465195D01*
X116466834Y-94483463D01*
X116457650Y-94513295D01*
X116434574Y-94558721D01*
X116395337Y-94623770D01*
X116337670Y-94712470D01*
X116260795Y-94826657D01*
X116192570Y-94927162D01*
X116131582Y-95017303D01*
X116081356Y-95091849D01*
X116045416Y-95145565D01*
X116027287Y-95173218D01*
X116026146Y-95175095D01*
X116028359Y-95201590D01*
X116045138Y-95253086D01*
X116073142Y-95319851D01*
X116083122Y-95341172D01*
X116126672Y-95436159D01*
X116173134Y-95543937D01*
X116210877Y-95637192D01*
X116238073Y-95706406D01*
X116259675Y-95759006D01*
X116272158Y-95786497D01*
X116273709Y-95788616D01*
X116296668Y-95792124D01*
X116350786Y-95801738D01*
X116428868Y-95816089D01*
X116523719Y-95833807D01*
X116628143Y-95853525D01*
X116734944Y-95873874D01*
X116836926Y-95893486D01*
X116926894Y-95910991D01*
X116997653Y-95925022D01*
X117042006Y-95934209D01*
X117052885Y-95936807D01*
X117064122Y-95943218D01*
X117072605Y-95957697D01*
X117078714Y-95985133D01*
X117082832Y-96030411D01*
X117085341Y-96098420D01*
X117086621Y-96194047D01*
X117087054Y-96322180D01*
X117087077Y-96374701D01*
X117087077Y-96801845D01*
X116984500Y-96822091D01*
X116927431Y-96833070D01*
X116842269Y-96849095D01*
X116739372Y-96868233D01*
X116629096Y-96888551D01*
X116598615Y-96894132D01*
X116496855Y-96913917D01*
X116408205Y-96933373D01*
X116340108Y-96950697D01*
X116300004Y-96964088D01*
X116293323Y-96968079D01*
X116276919Y-96996342D01*
X116253399Y-97051109D01*
X116227316Y-97121588D01*
X116222142Y-97136769D01*
X116187956Y-97230896D01*
X116145523Y-97337101D01*
X116103997Y-97432473D01*
X116103792Y-97432916D01*
X116034640Y-97582525D01*
X116489512Y-98251617D01*
X116197500Y-98544116D01*
X116109180Y-98631170D01*
X116028625Y-98707909D01*
X115960360Y-98770237D01*
X115908908Y-98814056D01*
X115878794Y-98835270D01*
X115874474Y-98836616D01*
X115849111Y-98826016D01*
X115797358Y-98796547D01*
X115724868Y-98751705D01*
X115637294Y-98694984D01*
X115542612Y-98631462D01*
X115446516Y-98566668D01*
X115360837Y-98510287D01*
X115291016Y-98465788D01*
X115242494Y-98436639D01*
X115220782Y-98426308D01*
X115194293Y-98435050D01*
X115144062Y-98458087D01*
X115080451Y-98490631D01*
X115073708Y-98494249D01*
X114988046Y-98537210D01*
X114929306Y-98558279D01*
X114892772Y-98558503D01*
X114873731Y-98538928D01*
X114873620Y-98538654D01*
X114864102Y-98515472D01*
X114841403Y-98460441D01*
X114807282Y-98377822D01*
X114763500Y-98271872D01*
X114711816Y-98146852D01*
X114653992Y-98007020D01*
X114597991Y-97871637D01*
X114536447Y-97722234D01*
X114479939Y-97583832D01*
X114430161Y-97460673D01*
X114388806Y-97357002D01*
X114357568Y-97277059D01*
X114338141Y-97225088D01*
X114332154Y-97205692D01*
X114347168Y-97183443D01*
X114386439Y-97147982D01*
X114438807Y-97108887D01*
X114587941Y-96985245D01*
X114704511Y-96843522D01*
X114787118Y-96686704D01*
X114834366Y-96517775D01*
X114844857Y-96339722D01*
X114837231Y-96257539D01*
X114795682Y-96087031D01*
X114724123Y-95936459D01*
X114626995Y-95807309D01*
X114508734Y-95701064D01*
X114373780Y-95619210D01*
X114226571Y-95563232D01*
X114071544Y-95534615D01*
X113913139Y-95534844D01*
X113755794Y-95565405D01*
X113603946Y-95627782D01*
X113462035Y-95723460D01*
X113402803Y-95777572D01*
X113289203Y-95916520D01*
X113210106Y-96068361D01*
X113164986Y-96228667D01*
X113153316Y-96393012D01*
X113174569Y-96556971D01*
X113228220Y-96716118D01*
X113313740Y-96866025D01*
X113430605Y-97002267D01*
X113561193Y-97108887D01*
X113615588Y-97149642D01*
X113654014Y-97184718D01*
X113667846Y-97205726D01*
X113660603Y-97228635D01*
X113640005Y-97283365D01*
X113607746Y-97365672D01*
X113565521Y-97471315D01*
X113515023Y-97596050D01*
X113457948Y-97735636D01*
X113401854Y-97871670D01*
X113339967Y-98021201D01*
X113282644Y-98159767D01*
X113231644Y-98283107D01*
X113188727Y-98386964D01*
X113155653Y-98467080D01*
X113134181Y-98519195D01*
X113126225Y-98538654D01*
X113107429Y-98558423D01*
X113071074Y-98558365D01*
X113012479Y-98537441D01*
X112926968Y-98494613D01*
X112926292Y-98494249D01*
X112861907Y-98461012D01*
X112809861Y-98436802D01*
X112780512Y-98426404D01*
X112779217Y-98426308D01*
X112757124Y-98436855D01*
X112708348Y-98466184D01*
X112638331Y-98510827D01*
X112552514Y-98567314D01*
X112457388Y-98631462D01*
X112360540Y-98696411D01*
X112273253Y-98752896D01*
X112201181Y-98797421D01*
X112149977Y-98826490D01*
X112125526Y-98836616D01*
X112103010Y-98823307D01*
X112057742Y-98786112D01*
X111994244Y-98729128D01*
X111917039Y-98656449D01*
X111830651Y-98572171D01*
X111802399Y-98544016D01*
X111510287Y-98251416D01*
X111732631Y-97925104D01*
X111800202Y-97824897D01*
X111859507Y-97734963D01*
X111907217Y-97660510D01*
X111940007Y-97606751D01*
X111954548Y-97578894D01*
X111954974Y-97576912D01*
X111947308Y-97550655D01*
X111926689Y-97497837D01*
X111896685Y-97427310D01*
X111875625Y-97380093D01*
X111836248Y-97289694D01*
X111799165Y-97198366D01*
X111770415Y-97121200D01*
X111762605Y-97097692D01*
X111740417Y-97034916D01*
X111718727Y-96986411D01*
X111706813Y-96968079D01*
X111680523Y-96956859D01*
X111623142Y-96940954D01*
X111542118Y-96922167D01*
X111444895Y-96902299D01*
X111401385Y-96894132D01*
X111290896Y-96873829D01*
X111184916Y-96854170D01*
X111093801Y-96837088D01*
X111027908Y-96824518D01*
X111015500Y-96822091D01*
X110912923Y-96801845D01*
X110912923Y-96374701D01*
X110913153Y-96234246D01*
X110914099Y-96127979D01*
X110916141Y-96051013D01*
X110919662Y-95998460D01*
X110925043Y-95965433D01*
X110932666Y-95947045D01*
X110942912Y-95938408D01*
X110947115Y-95936807D01*
X110972470Y-95931127D01*
X111028484Y-95919795D01*
X111107964Y-95904179D01*
X111203712Y-95885647D01*
X111308533Y-95865569D01*
X111415232Y-95845312D01*
X111516613Y-95826246D01*
X111605479Y-95809739D01*
X111674637Y-95797159D01*
X111716889Y-95789875D01*
X111726290Y-95788616D01*
X111734807Y-95771763D01*
X111753660Y-95726870D01*
X111779324Y-95662430D01*
X111789123Y-95637192D01*
X111828648Y-95539686D01*
X111875192Y-95431959D01*
X111916877Y-95341172D01*
X111947550Y-95271753D01*
X111967956Y-95214710D01*
X111974768Y-95179777D01*
X111973682Y-95175095D01*
X111959285Y-95152991D01*
X111926412Y-95103831D01*
X111878590Y-95032848D01*
X111819348Y-94945278D01*
X111752215Y-94846357D01*
X111738941Y-94826830D01*
X111661046Y-94711140D01*
X111603787Y-94623044D01*
X111564881Y-94558486D01*
X111542044Y-94513411D01*
X111532994Y-94483763D01*
X111535448Y-94465485D01*
X111535511Y-94465369D01*
X111554827Y-94441361D01*
X111597551Y-94394947D01*
X111659051Y-94330937D01*
X111734698Y-94254145D01*
X111819861Y-94169382D01*
X111829465Y-94159922D01*
X111936790Y-94055989D01*
X112019615Y-93979675D01*
X112079605Y-93929571D01*
X112118423Y-93904270D01*
X112135520Y-93901004D01*
X112160473Y-93915250D01*
X112212255Y-93948156D01*
X112285520Y-93996208D01*
X112374920Y-94055890D01*
X112475111Y-94123688D01*
X112498501Y-94139639D01*
X112830593Y-94366420D01*
X112980565Y-94298353D01*
X113071770Y-94258685D01*
X113169669Y-94218791D01*
X113253831Y-94186983D01*
X113257538Y-94185674D01*
X113323369Y-94161576D01*
X113374116Y-94141200D01*
X113398842Y-94128936D01*
X113398884Y-94128901D01*
X113406729Y-94106734D01*
X113420066Y-94052217D01*
X113437570Y-93971480D01*
X113457917Y-93870650D01*
X113479782Y-93755856D01*
X113481571Y-93746178D01*
X113503504Y-93627904D01*
X113523640Y-93520542D01*
X113540680Y-93430917D01*
X113553328Y-93365851D01*
X113560284Y-93332168D01*
X113560406Y-93331654D01*
X113564639Y-93317325D01*
X113572871Y-93306507D01*
X113590033Y-93298706D01*
X113621058Y-93293429D01*
X113670878Y-93290182D01*
X113744424Y-93288472D01*
X113846629Y-93287807D01*
X113982425Y-93287693D01*
X114000000Y-93287692D01*
X114139878Y-93287776D01*
X114139878Y-93287776D01*
G37*
X114139878Y-93287776D02*
X114245612Y-93288355D01*
X114322132Y-93289922D01*
X114374372Y-93292972D01*
X114407263Y-93297996D01*
X114425737Y-93305489D01*
X114434727Y-93315944D01*
X114439163Y-93329853D01*
X114439594Y-93331654D01*
X114446333Y-93364145D01*
X114458808Y-93428252D01*
X114475719Y-93517151D01*
X114495771Y-93624019D01*
X114517664Y-93742033D01*
X114518429Y-93746178D01*
X114540359Y-93861831D01*
X114560877Y-93964014D01*
X114578659Y-94046598D01*
X114592381Y-94103456D01*
X114600718Y-94128458D01*
X114601116Y-94128901D01*
X114625677Y-94141110D01*
X114676315Y-94161456D01*
X114742095Y-94185545D01*
X114742461Y-94185674D01*
X114825317Y-94216818D01*
X114923000Y-94256491D01*
X115015077Y-94296381D01*
X115019434Y-94298353D01*
X115169407Y-94366420D01*
X115501498Y-94139639D01*
X115603374Y-94070504D01*
X115695657Y-94008697D01*
X115773003Y-93957733D01*
X115830064Y-93921127D01*
X115861495Y-93902394D01*
X115864479Y-93901004D01*
X115887321Y-93907190D01*
X115929982Y-93937035D01*
X115994128Y-93991947D01*
X116081421Y-94073334D01*
X116170535Y-94159922D01*
X116256441Y-94245247D01*
X116333327Y-94323108D01*
X116396564Y-94388697D01*
X116441523Y-94437205D01*
X116463576Y-94463825D01*
X116464396Y-94465195D01*
X116466834Y-94483463D01*
X116457650Y-94513295D01*
X116434574Y-94558721D01*
X116395337Y-94623770D01*
X116337670Y-94712470D01*
X116260795Y-94826657D01*
X116192570Y-94927162D01*
X116131582Y-95017303D01*
X116081356Y-95091849D01*
X116045416Y-95145565D01*
X116027287Y-95173218D01*
X116026146Y-95175095D01*
X116028359Y-95201590D01*
X116045138Y-95253086D01*
X116073142Y-95319851D01*
X116083122Y-95341172D01*
X116126672Y-95436159D01*
X116173134Y-95543937D01*
X116210877Y-95637192D01*
X116238073Y-95706406D01*
X116259675Y-95759006D01*
X116272158Y-95786497D01*
X116273709Y-95788616D01*
X116296668Y-95792124D01*
X116350786Y-95801738D01*
X116428868Y-95816089D01*
X116523719Y-95833807D01*
X116628143Y-95853525D01*
X116734944Y-95873874D01*
X116836926Y-95893486D01*
X116926894Y-95910991D01*
X116997653Y-95925022D01*
X117042006Y-95934209D01*
X117052885Y-95936807D01*
X117064122Y-95943218D01*
X117072605Y-95957697D01*
X117078714Y-95985133D01*
X117082832Y-96030411D01*
X117085341Y-96098420D01*
X117086621Y-96194047D01*
X117087054Y-96322180D01*
X117087077Y-96374701D01*
X117087077Y-96801845D01*
X116984500Y-96822091D01*
X116927431Y-96833070D01*
X116842269Y-96849095D01*
X116739372Y-96868233D01*
X116629096Y-96888551D01*
X116598615Y-96894132D01*
X116496855Y-96913917D01*
X116408205Y-96933373D01*
X116340108Y-96950697D01*
X116300004Y-96964088D01*
X116293323Y-96968079D01*
X116276919Y-96996342D01*
X116253399Y-97051109D01*
X116227316Y-97121588D01*
X116222142Y-97136769D01*
X116187956Y-97230896D01*
X116145523Y-97337101D01*
X116103997Y-97432473D01*
X116103792Y-97432916D01*
X116034640Y-97582525D01*
X116489512Y-98251617D01*
X116197500Y-98544116D01*
X116109180Y-98631170D01*
X116028625Y-98707909D01*
X115960360Y-98770237D01*
X115908908Y-98814056D01*
X115878794Y-98835270D01*
X115874474Y-98836616D01*
X115849111Y-98826016D01*
X115797358Y-98796547D01*
X115724868Y-98751705D01*
X115637294Y-98694984D01*
X115542612Y-98631462D01*
X115446516Y-98566668D01*
X115360837Y-98510287D01*
X115291016Y-98465788D01*
X115242494Y-98436639D01*
X115220782Y-98426308D01*
X115194293Y-98435050D01*
X115144062Y-98458087D01*
X115080451Y-98490631D01*
X115073708Y-98494249D01*
X114988046Y-98537210D01*
X114929306Y-98558279D01*
X114892772Y-98558503D01*
X114873731Y-98538928D01*
X114873620Y-98538654D01*
X114864102Y-98515472D01*
X114841403Y-98460441D01*
X114807282Y-98377822D01*
X114763500Y-98271872D01*
X114711816Y-98146852D01*
X114653992Y-98007020D01*
X114597991Y-97871637D01*
X114536447Y-97722234D01*
X114479939Y-97583832D01*
X114430161Y-97460673D01*
X114388806Y-97357002D01*
X114357568Y-97277059D01*
X114338141Y-97225088D01*
X114332154Y-97205692D01*
X114347168Y-97183443D01*
X114386439Y-97147982D01*
X114438807Y-97108887D01*
X114587941Y-96985245D01*
X114704511Y-96843522D01*
X114787118Y-96686704D01*
X114834366Y-96517775D01*
X114844857Y-96339722D01*
X114837231Y-96257539D01*
X114795682Y-96087031D01*
X114724123Y-95936459D01*
X114626995Y-95807309D01*
X114508734Y-95701064D01*
X114373780Y-95619210D01*
X114226571Y-95563232D01*
X114071544Y-95534615D01*
X113913139Y-95534844D01*
X113755794Y-95565405D01*
X113603946Y-95627782D01*
X113462035Y-95723460D01*
X113402803Y-95777572D01*
X113289203Y-95916520D01*
X113210106Y-96068361D01*
X113164986Y-96228667D01*
X113153316Y-96393012D01*
X113174569Y-96556971D01*
X113228220Y-96716118D01*
X113313740Y-96866025D01*
X113430605Y-97002267D01*
X113561193Y-97108887D01*
X113615588Y-97149642D01*
X113654014Y-97184718D01*
X113667846Y-97205726D01*
X113660603Y-97228635D01*
X113640005Y-97283365D01*
X113607746Y-97365672D01*
X113565521Y-97471315D01*
X113515023Y-97596050D01*
X113457948Y-97735636D01*
X113401854Y-97871670D01*
X113339967Y-98021201D01*
X113282644Y-98159767D01*
X113231644Y-98283107D01*
X113188727Y-98386964D01*
X113155653Y-98467080D01*
X113134181Y-98519195D01*
X113126225Y-98538654D01*
X113107429Y-98558423D01*
X113071074Y-98558365D01*
X113012479Y-98537441D01*
X112926968Y-98494613D01*
X112926292Y-98494249D01*
X112861907Y-98461012D01*
X112809861Y-98436802D01*
X112780512Y-98426404D01*
X112779217Y-98426308D01*
X112757124Y-98436855D01*
X112708348Y-98466184D01*
X112638331Y-98510827D01*
X112552514Y-98567314D01*
X112457388Y-98631462D01*
X112360540Y-98696411D01*
X112273253Y-98752896D01*
X112201181Y-98797421D01*
X112149977Y-98826490D01*
X112125526Y-98836616D01*
X112103010Y-98823307D01*
X112057742Y-98786112D01*
X111994244Y-98729128D01*
X111917039Y-98656449D01*
X111830651Y-98572171D01*
X111802399Y-98544016D01*
X111510287Y-98251416D01*
X111732631Y-97925104D01*
X111800202Y-97824897D01*
X111859507Y-97734963D01*
X111907217Y-97660510D01*
X111940007Y-97606751D01*
X111954548Y-97578894D01*
X111954974Y-97576912D01*
X111947308Y-97550655D01*
X111926689Y-97497837D01*
X111896685Y-97427310D01*
X111875625Y-97380093D01*
X111836248Y-97289694D01*
X111799165Y-97198366D01*
X111770415Y-97121200D01*
X111762605Y-97097692D01*
X111740417Y-97034916D01*
X111718727Y-96986411D01*
X111706813Y-96968079D01*
X111680523Y-96956859D01*
X111623142Y-96940954D01*
X111542118Y-96922167D01*
X111444895Y-96902299D01*
X111401385Y-96894132D01*
X111290896Y-96873829D01*
X111184916Y-96854170D01*
X111093801Y-96837088D01*
X111027908Y-96824518D01*
X111015500Y-96822091D01*
X110912923Y-96801845D01*
X110912923Y-96374701D01*
X110913153Y-96234246D01*
X110914099Y-96127979D01*
X110916141Y-96051013D01*
X110919662Y-95998460D01*
X110925043Y-95965433D01*
X110932666Y-95947045D01*
X110942912Y-95938408D01*
X110947115Y-95936807D01*
X110972470Y-95931127D01*
X111028484Y-95919795D01*
X111107964Y-95904179D01*
X111203712Y-95885647D01*
X111308533Y-95865569D01*
X111415232Y-95845312D01*
X111516613Y-95826246D01*
X111605479Y-95809739D01*
X111674637Y-95797159D01*
X111716889Y-95789875D01*
X111726290Y-95788616D01*
X111734807Y-95771763D01*
X111753660Y-95726870D01*
X111779324Y-95662430D01*
X111789123Y-95637192D01*
X111828648Y-95539686D01*
X111875192Y-95431959D01*
X111916877Y-95341172D01*
X111947550Y-95271753D01*
X111967956Y-95214710D01*
X111974768Y-95179777D01*
X111973682Y-95175095D01*
X111959285Y-95152991D01*
X111926412Y-95103831D01*
X111878590Y-95032848D01*
X111819348Y-94945278D01*
X111752215Y-94846357D01*
X111738941Y-94826830D01*
X111661046Y-94711140D01*
X111603787Y-94623044D01*
X111564881Y-94558486D01*
X111542044Y-94513411D01*
X111532994Y-94483763D01*
X111535448Y-94465485D01*
X111535511Y-94465369D01*
X111554827Y-94441361D01*
X111597551Y-94394947D01*
X111659051Y-94330937D01*
X111734698Y-94254145D01*
X111819861Y-94169382D01*
X111829465Y-94159922D01*
X111936790Y-94055989D01*
X112019615Y-93979675D01*
X112079605Y-93929571D01*
X112118423Y-93904270D01*
X112135520Y-93901004D01*
X112160473Y-93915250D01*
X112212255Y-93948156D01*
X112285520Y-93996208D01*
X112374920Y-94055890D01*
X112475111Y-94123688D01*
X112498501Y-94139639D01*
X112830593Y-94366420D01*
X112980565Y-94298353D01*
X113071770Y-94258685D01*
X113169669Y-94218791D01*
X113253831Y-94186983D01*
X113257538Y-94185674D01*
X113323369Y-94161576D01*
X113374116Y-94141200D01*
X113398842Y-94128936D01*
X113398884Y-94128901D01*
X113406729Y-94106734D01*
X113420066Y-94052217D01*
X113437570Y-93971480D01*
X113457917Y-93870650D01*
X113479782Y-93755856D01*
X113481571Y-93746178D01*
X113503504Y-93627904D01*
X113523640Y-93520542D01*
X113540680Y-93430917D01*
X113553328Y-93365851D01*
X113560284Y-93332168D01*
X113560406Y-93331654D01*
X113564639Y-93317325D01*
X113572871Y-93306507D01*
X113590033Y-93298706D01*
X113621058Y-93293429D01*
X113670878Y-93290182D01*
X113744424Y-93288472D01*
X113846629Y-93287807D01*
X113982425Y-93287693D01*
X114000000Y-93287692D01*
X114139878Y-93287776D01*
G36*
X118245224Y-99647838D02*
G01*
X118322528Y-99698361D01*
X118359814Y-99743590D01*
X118389353Y-99825663D01*
X118391699Y-99890607D01*
X118386385Y-99977445D01*
X118186115Y-100065103D01*
X118088739Y-100109887D01*
X118025113Y-100145913D01*
X117992029Y-100177117D01*
X117986280Y-100207436D01*
X118004658Y-100240805D01*
X118024923Y-100262923D01*
X118083889Y-100298393D01*
X118148024Y-100300879D01*
X118206926Y-100273235D01*
X118250197Y-100218320D01*
X118257936Y-100198928D01*
X118295006Y-100138364D01*
X118337654Y-100112552D01*
X118396154Y-100090471D01*
X118396154Y-100174184D01*
X118390982Y-100231150D01*
X118370723Y-100279189D01*
X118328262Y-100334346D01*
X118321951Y-100341514D01*
X118274720Y-100390585D01*
X118234121Y-100416920D01*
X118183328Y-100429035D01*
X118141220Y-100433003D01*
X118065902Y-100433991D01*
X118012286Y-100421466D01*
X117978838Y-100402869D01*
X117926268Y-100361975D01*
X117889879Y-100317748D01*
X117866850Y-100262126D01*
X117854359Y-100187047D01*
X117849587Y-100084449D01*
X117849206Y-100032376D01*
X117850501Y-99969948D01*
X117968471Y-99969948D01*
X117969839Y-100003438D01*
X117973249Y-100008923D01*
X117995753Y-100001472D01*
X118044182Y-99981753D01*
X118108908Y-99953718D01*
X118122443Y-99947692D01*
X118204244Y-99906096D01*
X118249312Y-99869538D01*
X118259217Y-99835296D01*
X118235526Y-99800648D01*
X118215960Y-99785339D01*
X118145360Y-99754721D01*
X118079280Y-99759780D01*
X118023959Y-99797151D01*
X117985636Y-99863473D01*
X117973349Y-99916116D01*
X117968471Y-99969948D01*
X117850501Y-99969948D01*
X117851730Y-99910720D01*
X117861032Y-99820710D01*
X117879460Y-99755167D01*
X117909360Y-99706912D01*
X117953080Y-99668767D01*
X117972141Y-99656440D01*
X118058726Y-99624336D01*
X118153522Y-99622316D01*
X118245224Y-99647838D01*
X118245224Y-99647838D01*
G37*
X118245224Y-99647838D02*
X118322528Y-99698361D01*
X118359814Y-99743590D01*
X118389353Y-99825663D01*
X118391699Y-99890607D01*
X118386385Y-99977445D01*
X118186115Y-100065103D01*
X118088739Y-100109887D01*
X118025113Y-100145913D01*
X117992029Y-100177117D01*
X117986280Y-100207436D01*
X118004658Y-100240805D01*
X118024923Y-100262923D01*
X118083889Y-100298393D01*
X118148024Y-100300879D01*
X118206926Y-100273235D01*
X118250197Y-100218320D01*
X118257936Y-100198928D01*
X118295006Y-100138364D01*
X118337654Y-100112552D01*
X118396154Y-100090471D01*
X118396154Y-100174184D01*
X118390982Y-100231150D01*
X118370723Y-100279189D01*
X118328262Y-100334346D01*
X118321951Y-100341514D01*
X118274720Y-100390585D01*
X118234121Y-100416920D01*
X118183328Y-100429035D01*
X118141220Y-100433003D01*
X118065902Y-100433991D01*
X118012286Y-100421466D01*
X117978838Y-100402869D01*
X117926268Y-100361975D01*
X117889879Y-100317748D01*
X117866850Y-100262126D01*
X117854359Y-100187047D01*
X117849587Y-100084449D01*
X117849206Y-100032376D01*
X117850501Y-99969948D01*
X117968471Y-99969948D01*
X117969839Y-100003438D01*
X117973249Y-100008923D01*
X117995753Y-100001472D01*
X118044182Y-99981753D01*
X118108908Y-99953718D01*
X118122443Y-99947692D01*
X118204244Y-99906096D01*
X118249312Y-99869538D01*
X118259217Y-99835296D01*
X118235526Y-99800648D01*
X118215960Y-99785339D01*
X118145360Y-99754721D01*
X118079280Y-99759780D01*
X118023959Y-99797151D01*
X117985636Y-99863473D01*
X117973349Y-99916116D01*
X117968471Y-99969948D01*
X117850501Y-99969948D01*
X117851730Y-99910720D01*
X117861032Y-99820710D01*
X117879460Y-99755167D01*
X117909360Y-99706912D01*
X117953080Y-99668767D01*
X117972141Y-99656440D01*
X118058726Y-99624336D01*
X118153522Y-99622316D01*
X118245224Y-99647838D01*
G36*
X117570807Y-99636782D02*
G01*
X117594161Y-99646988D01*
X117649902Y-99691134D01*
X117697569Y-99754967D01*
X117727048Y-99823087D01*
X117731846Y-99856670D01*
X117715760Y-99903556D01*
X117680475Y-99928365D01*
X117642644Y-99943387D01*
X117625321Y-99946155D01*
X117616886Y-99926066D01*
X117600230Y-99882351D01*
X117592923Y-99862598D01*
X117551948Y-99794271D01*
X117492622Y-99760191D01*
X117416552Y-99761239D01*
X117410918Y-99762581D01*
X117370305Y-99781836D01*
X117340448Y-99819375D01*
X117320055Y-99879809D01*
X117307836Y-99967751D01*
X117302500Y-100087813D01*
X117302000Y-100151698D01*
X117301752Y-100252403D01*
X117300126Y-100321054D01*
X117295801Y-100364673D01*
X117287454Y-100390282D01*
X117273765Y-100404903D01*
X117253411Y-100415558D01*
X117252234Y-100416095D01*
X117213038Y-100432667D01*
X117193619Y-100438769D01*
X117190635Y-100420319D01*
X117188081Y-100369323D01*
X117186140Y-100292308D01*
X117184997Y-100195805D01*
X117184769Y-100125184D01*
X117185932Y-99988525D01*
X117190479Y-99884851D01*
X117199999Y-99808108D01*
X117216081Y-99752246D01*
X117240313Y-99711212D01*
X117274286Y-99678954D01*
X117307833Y-99656440D01*
X117388499Y-99626476D01*
X117482381Y-99619718D01*
X117570807Y-99636782D01*
X117570807Y-99636782D01*
G37*
X117570807Y-99636782D02*
X117594161Y-99646988D01*
X117649902Y-99691134D01*
X117697569Y-99754967D01*
X117727048Y-99823087D01*
X117731846Y-99856670D01*
X117715760Y-99903556D01*
X117680475Y-99928365D01*
X117642644Y-99943387D01*
X117625321Y-99946155D01*
X117616886Y-99926066D01*
X117600230Y-99882351D01*
X117592923Y-99862598D01*
X117551948Y-99794271D01*
X117492622Y-99760191D01*
X117416552Y-99761239D01*
X117410918Y-99762581D01*
X117370305Y-99781836D01*
X117340448Y-99819375D01*
X117320055Y-99879809D01*
X117307836Y-99967751D01*
X117302500Y-100087813D01*
X117302000Y-100151698D01*
X117301752Y-100252403D01*
X117300126Y-100321054D01*
X117295801Y-100364673D01*
X117287454Y-100390282D01*
X117273765Y-100404903D01*
X117253411Y-100415558D01*
X117252234Y-100416095D01*
X117213038Y-100432667D01*
X117193619Y-100438769D01*
X117190635Y-100420319D01*
X117188081Y-100369323D01*
X117186140Y-100292308D01*
X117184997Y-100195805D01*
X117184769Y-100125184D01*
X117185932Y-99988525D01*
X117190479Y-99884851D01*
X117199999Y-99808108D01*
X117216081Y-99752246D01*
X117240313Y-99711212D01*
X117274286Y-99678954D01*
X117307833Y-99656440D01*
X117388499Y-99626476D01*
X117482381Y-99619718D01*
X117570807Y-99636782D01*
G36*
X116887333Y-99633528D02*
G01*
X116943590Y-99659117D01*
X116987747Y-99690124D01*
X117020101Y-99724795D01*
X117042438Y-99769520D01*
X117056546Y-99830692D01*
X117064211Y-99914701D01*
X117067220Y-100027940D01*
X117067538Y-100102509D01*
X117067538Y-100393420D01*
X117017773Y-100416095D01*
X116978576Y-100432667D01*
X116959157Y-100438769D01*
X116955442Y-100420610D01*
X116952495Y-100371648D01*
X116950691Y-100300153D01*
X116950308Y-100243385D01*
X116948661Y-100161371D01*
X116944222Y-100096309D01*
X116937740Y-100056467D01*
X116932590Y-100048000D01*
X116897977Y-100056646D01*
X116843640Y-100078823D01*
X116780722Y-100108886D01*
X116720368Y-100141192D01*
X116673721Y-100170098D01*
X116651926Y-100189961D01*
X116651839Y-100190175D01*
X116653714Y-100226935D01*
X116670525Y-100262026D01*
X116700039Y-100290528D01*
X116743116Y-100300061D01*
X116779932Y-100298950D01*
X116832074Y-100298133D01*
X116859444Y-100310349D01*
X116875882Y-100342624D01*
X116877955Y-100348710D01*
X116885081Y-100394739D01*
X116866024Y-100422687D01*
X116816353Y-100436007D01*
X116762697Y-100438470D01*
X116666142Y-100420210D01*
X116616159Y-100394131D01*
X116554429Y-100332868D01*
X116521690Y-100257670D01*
X116518753Y-100178211D01*
X116546424Y-100104167D01*
X116588047Y-100057769D01*
X116629604Y-100031793D01*
X116694922Y-99998907D01*
X116771038Y-99965557D01*
X116783726Y-99960461D01*
X116867333Y-99923565D01*
X116915530Y-99891046D01*
X116931030Y-99858718D01*
X116916550Y-99822394D01*
X116891692Y-99794000D01*
X116832939Y-99759039D01*
X116768293Y-99756417D01*
X116709008Y-99783358D01*
X116666339Y-99837088D01*
X116660739Y-99850950D01*
X116628133Y-99901936D01*
X116580530Y-99939787D01*
X116520461Y-99970850D01*
X116520461Y-99882768D01*
X116523997Y-99828951D01*
X116539156Y-99786534D01*
X116572768Y-99741279D01*
X116605035Y-99706420D01*
X116655209Y-99657062D01*
X116694193Y-99630547D01*
X116736064Y-99619911D01*
X116783460Y-99618154D01*
X116887333Y-99633528D01*
X116887333Y-99633528D01*
G37*
X116887333Y-99633528D02*
X116943590Y-99659117D01*
X116987747Y-99690124D01*
X117020101Y-99724795D01*
X117042438Y-99769520D01*
X117056546Y-99830692D01*
X117064211Y-99914701D01*
X117067220Y-100027940D01*
X117067538Y-100102509D01*
X117067538Y-100393420D01*
X117017773Y-100416095D01*
X116978576Y-100432667D01*
X116959157Y-100438769D01*
X116955442Y-100420610D01*
X116952495Y-100371648D01*
X116950691Y-100300153D01*
X116950308Y-100243385D01*
X116948661Y-100161371D01*
X116944222Y-100096309D01*
X116937740Y-100056467D01*
X116932590Y-100048000D01*
X116897977Y-100056646D01*
X116843640Y-100078823D01*
X116780722Y-100108886D01*
X116720368Y-100141192D01*
X116673721Y-100170098D01*
X116651926Y-100189961D01*
X116651839Y-100190175D01*
X116653714Y-100226935D01*
X116670525Y-100262026D01*
X116700039Y-100290528D01*
X116743116Y-100300061D01*
X116779932Y-100298950D01*
X116832074Y-100298133D01*
X116859444Y-100310349D01*
X116875882Y-100342624D01*
X116877955Y-100348710D01*
X116885081Y-100394739D01*
X116866024Y-100422687D01*
X116816353Y-100436007D01*
X116762697Y-100438470D01*
X116666142Y-100420210D01*
X116616159Y-100394131D01*
X116554429Y-100332868D01*
X116521690Y-100257670D01*
X116518753Y-100178211D01*
X116546424Y-100104167D01*
X116588047Y-100057769D01*
X116629604Y-100031793D01*
X116694922Y-99998907D01*
X116771038Y-99965557D01*
X116783726Y-99960461D01*
X116867333Y-99923565D01*
X116915530Y-99891046D01*
X116931030Y-99858718D01*
X116916550Y-99822394D01*
X116891692Y-99794000D01*
X116832939Y-99759039D01*
X116768293Y-99756417D01*
X116709008Y-99783358D01*
X116666339Y-99837088D01*
X116660739Y-99850950D01*
X116628133Y-99901936D01*
X116580530Y-99939787D01*
X116520461Y-99970850D01*
X116520461Y-99882768D01*
X116523997Y-99828951D01*
X116539156Y-99786534D01*
X116572768Y-99741279D01*
X116605035Y-99706420D01*
X116655209Y-99657062D01*
X116694193Y-99630547D01*
X116736064Y-99619911D01*
X116783460Y-99618154D01*
X116887333Y-99633528D01*
G36*
X116395929Y-99636662D02*
G01*
X116398911Y-99688068D01*
X116401247Y-99766192D01*
X116402749Y-99864857D01*
X116403231Y-99968343D01*
X116403231Y-100318533D01*
X116341401Y-100380363D01*
X116298793Y-100418462D01*
X116261390Y-100433895D01*
X116210270Y-100432918D01*
X116189978Y-100430433D01*
X116126554Y-100423200D01*
X116074095Y-100419055D01*
X116061308Y-100418672D01*
X116018199Y-100421176D01*
X115956544Y-100427462D01*
X115932638Y-100430433D01*
X115873922Y-100435028D01*
X115834464Y-100425046D01*
X115795338Y-100394228D01*
X115781215Y-100380363D01*
X115719385Y-100318533D01*
X115719385Y-99663503D01*
X115769150Y-99640829D01*
X115812002Y-99624034D01*
X115837073Y-99618154D01*
X115843501Y-99636736D01*
X115849509Y-99688655D01*
X115854697Y-99768172D01*
X115858664Y-99869546D01*
X115860577Y-99955192D01*
X115865923Y-100292231D01*
X115912560Y-100298825D01*
X115954976Y-100294214D01*
X115975760Y-100279287D01*
X115981570Y-100251377D01*
X115986530Y-100191925D01*
X115990246Y-100108466D01*
X115992324Y-100008532D01*
X115992624Y-99957104D01*
X115992923Y-99661054D01*
X116054454Y-99639604D01*
X116098004Y-99625020D01*
X116121694Y-99618219D01*
X116122377Y-99618154D01*
X116124754Y-99636642D01*
X116127366Y-99687906D01*
X116129995Y-99765649D01*
X116132421Y-99863574D01*
X116134115Y-99955192D01*
X116139461Y-100292231D01*
X116256692Y-100292231D01*
X116262072Y-99984746D01*
X116267451Y-99677261D01*
X116324601Y-99647707D01*
X116366797Y-99627413D01*
X116391770Y-99618204D01*
X116392491Y-99618154D01*
X116395929Y-99636662D01*
X116395929Y-99636662D01*
G37*
X116395929Y-99636662D02*
X116398911Y-99688068D01*
X116401247Y-99766192D01*
X116402749Y-99864857D01*
X116403231Y-99968343D01*
X116403231Y-100318533D01*
X116341401Y-100380363D01*
X116298793Y-100418462D01*
X116261390Y-100433895D01*
X116210270Y-100432918D01*
X116189978Y-100430433D01*
X116126554Y-100423200D01*
X116074095Y-100419055D01*
X116061308Y-100418672D01*
X116018199Y-100421176D01*
X115956544Y-100427462D01*
X115932638Y-100430433D01*
X115873922Y-100435028D01*
X115834464Y-100425046D01*
X115795338Y-100394228D01*
X115781215Y-100380363D01*
X115719385Y-100318533D01*
X115719385Y-99663503D01*
X115769150Y-99640829D01*
X115812002Y-99624034D01*
X115837073Y-99618154D01*
X115843501Y-99636736D01*
X115849509Y-99688655D01*
X115854697Y-99768172D01*
X115858664Y-99869546D01*
X115860577Y-99955192D01*
X115865923Y-100292231D01*
X115912560Y-100298825D01*
X115954976Y-100294214D01*
X115975760Y-100279287D01*
X115981570Y-100251377D01*
X115986530Y-100191925D01*
X115990246Y-100108466D01*
X115992324Y-100008532D01*
X115992624Y-99957104D01*
X115992923Y-99661054D01*
X116054454Y-99639604D01*
X116098004Y-99625020D01*
X116121694Y-99618219D01*
X116122377Y-99618154D01*
X116124754Y-99636642D01*
X116127366Y-99687906D01*
X116129995Y-99765649D01*
X116132421Y-99863574D01*
X116134115Y-99955192D01*
X116139461Y-100292231D01*
X116256692Y-100292231D01*
X116262072Y-99984746D01*
X116267451Y-99677261D01*
X116324601Y-99647707D01*
X116366797Y-99627413D01*
X116391770Y-99618204D01*
X116392491Y-99618154D01*
X116395929Y-99636662D01*
G36*
X115602081Y-99780289D02*
G01*
X115601833Y-99926320D01*
X115600872Y-100038655D01*
X115598794Y-100122678D01*
X115595193Y-100183769D01*
X115589665Y-100227309D01*
X115581804Y-100258679D01*
X115571207Y-100283262D01*
X115563182Y-100297294D01*
X115496728Y-100373388D01*
X115412470Y-100421084D01*
X115319249Y-100438199D01*
X115225900Y-100422546D01*
X115170312Y-100394418D01*
X115111957Y-100345760D01*
X115072186Y-100286333D01*
X115048190Y-100208507D01*
X115037161Y-100104652D01*
X115035599Y-100028462D01*
X115035809Y-100022986D01*
X115172308Y-100022986D01*
X115173141Y-100110355D01*
X115176961Y-100168192D01*
X115185746Y-100206029D01*
X115201474Y-100233398D01*
X115220266Y-100254042D01*
X115283375Y-100293890D01*
X115351137Y-100297295D01*
X115415179Y-100264025D01*
X115420164Y-100259517D01*
X115441439Y-100236067D01*
X115454779Y-100208166D01*
X115462001Y-100166641D01*
X115464923Y-100102316D01*
X115465385Y-100031200D01*
X115464383Y-99941858D01*
X115460238Y-99882258D01*
X115451236Y-99843089D01*
X115435667Y-99815040D01*
X115422902Y-99800144D01*
X115363600Y-99762575D01*
X115295301Y-99758057D01*
X115230110Y-99786753D01*
X115217528Y-99797406D01*
X115196111Y-99821063D01*
X115182744Y-99849251D01*
X115175566Y-99891245D01*
X115172719Y-99956319D01*
X115172308Y-100022986D01*
X115035809Y-100022986D01*
X115040322Y-99905765D01*
X115056362Y-99813577D01*
X115086528Y-99744269D01*
X115133629Y-99690211D01*
X115170312Y-99662505D01*
X115236990Y-99632572D01*
X115314272Y-99618678D01*
X115386110Y-99622397D01*
X115426308Y-99637400D01*
X115442082Y-99641670D01*
X115452550Y-99625750D01*
X115459856Y-99583089D01*
X115465385Y-99518106D01*
X115471437Y-99445732D01*
X115479844Y-99402187D01*
X115495141Y-99377287D01*
X115521864Y-99360845D01*
X115538654Y-99353564D01*
X115602154Y-99326963D01*
X115602081Y-99780289D01*
X115602081Y-99780289D01*
G37*
X115602081Y-99780289D02*
X115601833Y-99926320D01*
X115600872Y-100038655D01*
X115598794Y-100122678D01*
X115595193Y-100183769D01*
X115589665Y-100227309D01*
X115581804Y-100258679D01*
X115571207Y-100283262D01*
X115563182Y-100297294D01*
X115496728Y-100373388D01*
X115412470Y-100421084D01*
X115319249Y-100438199D01*
X115225900Y-100422546D01*
X115170312Y-100394418D01*
X115111957Y-100345760D01*
X115072186Y-100286333D01*
X115048190Y-100208507D01*
X115037161Y-100104652D01*
X115035599Y-100028462D01*
X115035809Y-100022986D01*
X115172308Y-100022986D01*
X115173141Y-100110355D01*
X115176961Y-100168192D01*
X115185746Y-100206029D01*
X115201474Y-100233398D01*
X115220266Y-100254042D01*
X115283375Y-100293890D01*
X115351137Y-100297295D01*
X115415179Y-100264025D01*
X115420164Y-100259517D01*
X115441439Y-100236067D01*
X115454779Y-100208166D01*
X115462001Y-100166641D01*
X115464923Y-100102316D01*
X115465385Y-100031200D01*
X115464383Y-99941858D01*
X115460238Y-99882258D01*
X115451236Y-99843089D01*
X115435667Y-99815040D01*
X115422902Y-99800144D01*
X115363600Y-99762575D01*
X115295301Y-99758057D01*
X115230110Y-99786753D01*
X115217528Y-99797406D01*
X115196111Y-99821063D01*
X115182744Y-99849251D01*
X115175566Y-99891245D01*
X115172719Y-99956319D01*
X115172308Y-100022986D01*
X115035809Y-100022986D01*
X115040322Y-99905765D01*
X115056362Y-99813577D01*
X115086528Y-99744269D01*
X115133629Y-99690211D01*
X115170312Y-99662505D01*
X115236990Y-99632572D01*
X115314272Y-99618678D01*
X115386110Y-99622397D01*
X115426308Y-99637400D01*
X115442082Y-99641670D01*
X115452550Y-99625750D01*
X115459856Y-99583089D01*
X115465385Y-99518106D01*
X115471437Y-99445732D01*
X115479844Y-99402187D01*
X115495141Y-99377287D01*
X115521864Y-99360845D01*
X115538654Y-99353564D01*
X115602154Y-99326963D01*
X115602081Y-99780289D01*
G36*
X114713362Y-99624670D02*
G01*
X114802117Y-99657421D01*
X114874022Y-99715350D01*
X114902144Y-99756128D01*
X114932802Y-99830954D01*
X114932165Y-99885058D01*
X114899987Y-99921446D01*
X114888081Y-99927633D01*
X114836675Y-99946925D01*
X114810422Y-99941982D01*
X114801530Y-99909587D01*
X114801077Y-99891692D01*
X114784797Y-99825859D01*
X114742365Y-99779807D01*
X114683388Y-99757564D01*
X114617475Y-99763161D01*
X114563895Y-99792229D01*
X114545798Y-99808810D01*
X114532971Y-99828925D01*
X114524306Y-99859332D01*
X114518696Y-99906788D01*
X114515035Y-99978050D01*
X114512215Y-100079875D01*
X114511484Y-100112115D01*
X114508820Y-100222410D01*
X114505792Y-100300036D01*
X114501250Y-100351396D01*
X114494046Y-100382890D01*
X114483033Y-100400920D01*
X114467060Y-100411888D01*
X114456834Y-100416733D01*
X114413406Y-100433301D01*
X114387842Y-100438769D01*
X114379395Y-100420507D01*
X114374239Y-100365296D01*
X114372346Y-100272499D01*
X114373689Y-100141478D01*
X114374107Y-100121269D01*
X114377058Y-100001733D01*
X114380548Y-99914449D01*
X114385514Y-99852591D01*
X114392893Y-99809336D01*
X114403624Y-99777860D01*
X114418645Y-99751339D01*
X114426502Y-99739975D01*
X114471553Y-99689692D01*
X114521940Y-99650581D01*
X114528108Y-99647167D01*
X114618458Y-99620212D01*
X114713362Y-99624670D01*
X114713362Y-99624670D01*
G37*
X114713362Y-99624670D02*
X114802117Y-99657421D01*
X114874022Y-99715350D01*
X114902144Y-99756128D01*
X114932802Y-99830954D01*
X114932165Y-99885058D01*
X114899987Y-99921446D01*
X114888081Y-99927633D01*
X114836675Y-99946925D01*
X114810422Y-99941982D01*
X114801530Y-99909587D01*
X114801077Y-99891692D01*
X114784797Y-99825859D01*
X114742365Y-99779807D01*
X114683388Y-99757564D01*
X114617475Y-99763161D01*
X114563895Y-99792229D01*
X114545798Y-99808810D01*
X114532971Y-99828925D01*
X114524306Y-99859332D01*
X114518696Y-99906788D01*
X114515035Y-99978050D01*
X114512215Y-100079875D01*
X114511484Y-100112115D01*
X114508820Y-100222410D01*
X114505792Y-100300036D01*
X114501250Y-100351396D01*
X114494046Y-100382890D01*
X114483033Y-100400920D01*
X114467060Y-100411888D01*
X114456834Y-100416733D01*
X114413406Y-100433301D01*
X114387842Y-100438769D01*
X114379395Y-100420507D01*
X114374239Y-100365296D01*
X114372346Y-100272499D01*
X114373689Y-100141478D01*
X114374107Y-100121269D01*
X114377058Y-100001733D01*
X114380548Y-99914449D01*
X114385514Y-99852591D01*
X114392893Y-99809336D01*
X114403624Y-99777860D01*
X114418645Y-99751339D01*
X114426502Y-99739975D01*
X114471553Y-99689692D01*
X114521940Y-99650581D01*
X114528108Y-99647167D01*
X114618458Y-99620212D01*
X114713362Y-99624670D01*
G36*
X114053501Y-99626303D02*
G01*
X114130060Y-99654733D01*
X114130936Y-99655279D01*
X114178285Y-99690127D01*
X114213241Y-99730852D01*
X114237825Y-99783925D01*
X114254062Y-99855814D01*
X114263975Y-99952992D01*
X114269586Y-100081928D01*
X114270077Y-100100298D01*
X114277141Y-100377287D01*
X114217695Y-100408028D01*
X114174681Y-100428802D01*
X114148710Y-100438646D01*
X114147509Y-100438769D01*
X114143014Y-100420606D01*
X114139444Y-100371612D01*
X114137248Y-100300031D01*
X114136769Y-100242068D01*
X114136758Y-100148170D01*
X114132466Y-100089203D01*
X114117503Y-100061079D01*
X114085482Y-100059706D01*
X114030014Y-100080998D01*
X113946269Y-100120136D01*
X113884689Y-100152643D01*
X113853017Y-100180845D01*
X113843706Y-100211582D01*
X113843692Y-100213104D01*
X113859057Y-100266054D01*
X113904547Y-100294660D01*
X113974166Y-100298803D01*
X114024313Y-100298084D01*
X114050754Y-100312527D01*
X114067243Y-100347218D01*
X114076733Y-100391416D01*
X114063057Y-100416493D01*
X114057907Y-100420082D01*
X114009425Y-100434496D01*
X113941531Y-100436537D01*
X113871612Y-100426983D01*
X113822068Y-100409522D01*
X113753570Y-100351364D01*
X113714634Y-100270408D01*
X113706923Y-100207160D01*
X113712807Y-100150111D01*
X113734101Y-100103542D01*
X113776265Y-100062181D01*
X113844759Y-100020755D01*
X113945044Y-99973993D01*
X113951154Y-99971350D01*
X114041490Y-99929617D01*
X114097235Y-99895391D01*
X114121129Y-99864635D01*
X114115913Y-99833311D01*
X114084328Y-99797383D01*
X114074883Y-99789116D01*
X114011617Y-99757058D01*
X113946064Y-99758407D01*
X113888972Y-99789838D01*
X113851093Y-99848024D01*
X113847574Y-99859446D01*
X113813300Y-99914837D01*
X113769809Y-99941518D01*
X113706923Y-99967960D01*
X113706923Y-99899548D01*
X113726052Y-99800110D01*
X113782831Y-99708902D01*
X113812378Y-99678389D01*
X113879542Y-99639228D01*
X113964956Y-99621500D01*
X114053501Y-99626303D01*
X114053501Y-99626303D01*
G37*
X114053501Y-99626303D02*
X114130060Y-99654733D01*
X114130936Y-99655279D01*
X114178285Y-99690127D01*
X114213241Y-99730852D01*
X114237825Y-99783925D01*
X114254062Y-99855814D01*
X114263975Y-99952992D01*
X114269586Y-100081928D01*
X114270077Y-100100298D01*
X114277141Y-100377287D01*
X114217695Y-100408028D01*
X114174681Y-100428802D01*
X114148710Y-100438646D01*
X114147509Y-100438769D01*
X114143014Y-100420606D01*
X114139444Y-100371612D01*
X114137248Y-100300031D01*
X114136769Y-100242068D01*
X114136758Y-100148170D01*
X114132466Y-100089203D01*
X114117503Y-100061079D01*
X114085482Y-100059706D01*
X114030014Y-100080998D01*
X113946269Y-100120136D01*
X113884689Y-100152643D01*
X113853017Y-100180845D01*
X113843706Y-100211582D01*
X113843692Y-100213104D01*
X113859057Y-100266054D01*
X113904547Y-100294660D01*
X113974166Y-100298803D01*
X114024313Y-100298084D01*
X114050754Y-100312527D01*
X114067243Y-100347218D01*
X114076733Y-100391416D01*
X114063057Y-100416493D01*
X114057907Y-100420082D01*
X114009425Y-100434496D01*
X113941531Y-100436537D01*
X113871612Y-100426983D01*
X113822068Y-100409522D01*
X113753570Y-100351364D01*
X113714634Y-100270408D01*
X113706923Y-100207160D01*
X113712807Y-100150111D01*
X113734101Y-100103542D01*
X113776265Y-100062181D01*
X113844759Y-100020755D01*
X113945044Y-99973993D01*
X113951154Y-99971350D01*
X114041490Y-99929617D01*
X114097235Y-99895391D01*
X114121129Y-99864635D01*
X114115913Y-99833311D01*
X114084328Y-99797383D01*
X114074883Y-99789116D01*
X114011617Y-99757058D01*
X113946064Y-99758407D01*
X113888972Y-99789838D01*
X113851093Y-99848024D01*
X113847574Y-99859446D01*
X113813300Y-99914837D01*
X113769809Y-99941518D01*
X113706923Y-99967960D01*
X113706923Y-99899548D01*
X113726052Y-99800110D01*
X113782831Y-99708902D01*
X113812378Y-99678389D01*
X113879542Y-99639228D01*
X113964956Y-99621500D01*
X114053501Y-99626303D01*
G36*
X113159846Y-99492120D02*
G01*
X113165572Y-99571980D01*
X113172149Y-99619039D01*
X113181262Y-99639566D01*
X113194598Y-99639829D01*
X113198923Y-99637378D01*
X113256444Y-99619636D01*
X113331268Y-99620672D01*
X113407339Y-99638910D01*
X113454918Y-99662505D01*
X113503702Y-99700198D01*
X113539364Y-99742855D01*
X113563845Y-99797057D01*
X113579087Y-99869384D01*
X113587030Y-99966419D01*
X113589616Y-100094742D01*
X113589662Y-100119358D01*
X113589692Y-100395870D01*
X113528161Y-100417320D01*
X113484459Y-100431912D01*
X113460482Y-100438706D01*
X113459777Y-100438769D01*
X113457415Y-100420345D01*
X113455406Y-100369526D01*
X113453901Y-100292993D01*
X113453053Y-100197430D01*
X113452923Y-100139329D01*
X113452651Y-100024771D01*
X113451252Y-99942667D01*
X113447849Y-99886393D01*
X113441567Y-99849326D01*
X113431529Y-99824844D01*
X113416861Y-99806325D01*
X113407702Y-99797406D01*
X113344789Y-99761466D01*
X113276136Y-99758775D01*
X113213848Y-99789170D01*
X113202329Y-99800144D01*
X113185433Y-99820779D01*
X113173714Y-99845256D01*
X113166233Y-99880647D01*
X113162054Y-99934026D01*
X113160237Y-100012466D01*
X113159846Y-100120617D01*
X113159846Y-100395870D01*
X113098315Y-100417320D01*
X113054613Y-100431912D01*
X113030636Y-100438706D01*
X113029930Y-100438769D01*
X113028126Y-100420069D01*
X113026500Y-100367322D01*
X113025117Y-100285557D01*
X113024042Y-100179805D01*
X113023340Y-100055094D01*
X113023077Y-99916455D01*
X113023077Y-99381806D01*
X113150077Y-99328236D01*
X113159846Y-99492120D01*
X113159846Y-99492120D01*
G37*
X113159846Y-99492120D02*
X113165572Y-99571980D01*
X113172149Y-99619039D01*
X113181262Y-99639566D01*
X113194598Y-99639829D01*
X113198923Y-99637378D01*
X113256444Y-99619636D01*
X113331268Y-99620672D01*
X113407339Y-99638910D01*
X113454918Y-99662505D01*
X113503702Y-99700198D01*
X113539364Y-99742855D01*
X113563845Y-99797057D01*
X113579087Y-99869384D01*
X113587030Y-99966419D01*
X113589616Y-100094742D01*
X113589662Y-100119358D01*
X113589692Y-100395870D01*
X113528161Y-100417320D01*
X113484459Y-100431912D01*
X113460482Y-100438706D01*
X113459777Y-100438769D01*
X113457415Y-100420345D01*
X113455406Y-100369526D01*
X113453901Y-100292993D01*
X113453053Y-100197430D01*
X113452923Y-100139329D01*
X113452651Y-100024771D01*
X113451252Y-99942667D01*
X113447849Y-99886393D01*
X113441567Y-99849326D01*
X113431529Y-99824844D01*
X113416861Y-99806325D01*
X113407702Y-99797406D01*
X113344789Y-99761466D01*
X113276136Y-99758775D01*
X113213848Y-99789170D01*
X113202329Y-99800144D01*
X113185433Y-99820779D01*
X113173714Y-99845256D01*
X113166233Y-99880647D01*
X113162054Y-99934026D01*
X113160237Y-100012466D01*
X113159846Y-100120617D01*
X113159846Y-100395870D01*
X113098315Y-100417320D01*
X113054613Y-100431912D01*
X113030636Y-100438706D01*
X113029930Y-100438769D01*
X113028126Y-100420069D01*
X113026500Y-100367322D01*
X113025117Y-100285557D01*
X113024042Y-100179805D01*
X113023340Y-100055094D01*
X113023077Y-99916455D01*
X113023077Y-99381806D01*
X113150077Y-99328236D01*
X113159846Y-99492120D01*
G36*
X111534254Y-99599745D02*
G01*
X111611286Y-99651567D01*
X111670816Y-99726412D01*
X111706378Y-99821654D01*
X111713571Y-99891756D01*
X111712754Y-99921009D01*
X111705914Y-99943407D01*
X111687112Y-99963474D01*
X111650408Y-99985733D01*
X111589862Y-100014709D01*
X111499534Y-100054927D01*
X111499077Y-100055129D01*
X111415933Y-100093210D01*
X111347753Y-100127025D01*
X111301505Y-100152933D01*
X111284158Y-100167295D01*
X111284154Y-100167411D01*
X111299443Y-100198685D01*
X111335196Y-100233157D01*
X111376242Y-100257990D01*
X111397037Y-100262923D01*
X111453770Y-100245862D01*
X111502627Y-100203133D01*
X111526465Y-100156155D01*
X111549397Y-100121522D01*
X111594318Y-100082081D01*
X111647123Y-100048009D01*
X111693710Y-100029480D01*
X111703452Y-100028462D01*
X111714418Y-100045215D01*
X111715079Y-100088039D01*
X111707020Y-100145781D01*
X111691827Y-100207289D01*
X111671086Y-100261409D01*
X111670038Y-100263510D01*
X111607621Y-100350660D01*
X111526726Y-100409939D01*
X111434856Y-100439034D01*
X111339513Y-100435634D01*
X111248198Y-100397428D01*
X111244138Y-100394741D01*
X111172306Y-100329642D01*
X111125073Y-100244705D01*
X111098934Y-100133021D01*
X111095426Y-100101643D01*
X111089213Y-99953536D01*
X111096661Y-99884468D01*
X111284154Y-99884468D01*
X111286590Y-99927552D01*
X111299914Y-99940126D01*
X111333132Y-99930719D01*
X111385494Y-99908483D01*
X111444024Y-99880610D01*
X111445479Y-99879872D01*
X111495089Y-99853777D01*
X111515000Y-99836363D01*
X111510090Y-99818107D01*
X111489416Y-99794120D01*
X111436819Y-99759406D01*
X111380177Y-99756856D01*
X111329369Y-99782119D01*
X111294276Y-99830847D01*
X111284154Y-99884468D01*
X111096661Y-99884468D01*
X111101992Y-99835036D01*
X111134778Y-99741055D01*
X111180421Y-99675215D01*
X111262802Y-99608681D01*
X111353546Y-99575676D01*
X111446185Y-99573573D01*
X111534254Y-99599745D01*
X111534254Y-99599745D01*
G37*
X111534254Y-99599745D02*
X111611286Y-99651567D01*
X111670816Y-99726412D01*
X111706378Y-99821654D01*
X111713571Y-99891756D01*
X111712754Y-99921009D01*
X111705914Y-99943407D01*
X111687112Y-99963474D01*
X111650408Y-99985733D01*
X111589862Y-100014709D01*
X111499534Y-100054927D01*
X111499077Y-100055129D01*
X111415933Y-100093210D01*
X111347753Y-100127025D01*
X111301505Y-100152933D01*
X111284158Y-100167295D01*
X111284154Y-100167411D01*
X111299443Y-100198685D01*
X111335196Y-100233157D01*
X111376242Y-100257990D01*
X111397037Y-100262923D01*
X111453770Y-100245862D01*
X111502627Y-100203133D01*
X111526465Y-100156155D01*
X111549397Y-100121522D01*
X111594318Y-100082081D01*
X111647123Y-100048009D01*
X111693710Y-100029480D01*
X111703452Y-100028462D01*
X111714418Y-100045215D01*
X111715079Y-100088039D01*
X111707020Y-100145781D01*
X111691827Y-100207289D01*
X111671086Y-100261409D01*
X111670038Y-100263510D01*
X111607621Y-100350660D01*
X111526726Y-100409939D01*
X111434856Y-100439034D01*
X111339513Y-100435634D01*
X111248198Y-100397428D01*
X111244138Y-100394741D01*
X111172306Y-100329642D01*
X111125073Y-100244705D01*
X111098934Y-100133021D01*
X111095426Y-100101643D01*
X111089213Y-99953536D01*
X111096661Y-99884468D01*
X111284154Y-99884468D01*
X111286590Y-99927552D01*
X111299914Y-99940126D01*
X111333132Y-99930719D01*
X111385494Y-99908483D01*
X111444024Y-99880610D01*
X111445479Y-99879872D01*
X111495089Y-99853777D01*
X111515000Y-99836363D01*
X111510090Y-99818107D01*
X111489416Y-99794120D01*
X111436819Y-99759406D01*
X111380177Y-99756856D01*
X111329369Y-99782119D01*
X111294276Y-99830847D01*
X111284154Y-99884468D01*
X111096661Y-99884468D01*
X111101992Y-99835036D01*
X111134778Y-99741055D01*
X111180421Y-99675215D01*
X111262802Y-99608681D01*
X111353546Y-99575676D01*
X111446185Y-99573573D01*
X111534254Y-99599745D01*
G36*
X110016886Y-99587256D02*
G01*
X110108464Y-99635409D01*
X110176049Y-99712905D01*
X110200057Y-99762727D01*
X110218738Y-99837533D01*
X110228301Y-99932052D01*
X110229208Y-100035210D01*
X110221921Y-100135935D01*
X110206903Y-100223153D01*
X110184615Y-100285791D01*
X110177765Y-100296579D01*
X110096632Y-100377105D01*
X110000266Y-100425336D01*
X109895701Y-100439450D01*
X109789968Y-100417629D01*
X109760543Y-100404547D01*
X109703241Y-100364231D01*
X109652950Y-100310775D01*
X109648197Y-100303995D01*
X109628878Y-100271321D01*
X109616108Y-100236394D01*
X109608564Y-100190414D01*
X109604924Y-100124584D01*
X109603865Y-100030105D01*
X109603846Y-100008923D01*
X109603894Y-100002182D01*
X109799231Y-100002182D01*
X109800368Y-100091349D01*
X109804841Y-100150520D01*
X109814246Y-100188741D01*
X109830176Y-100215053D01*
X109838308Y-100223846D01*
X109885058Y-100257261D01*
X109930447Y-100255737D01*
X109976340Y-100226752D01*
X110003712Y-100195809D01*
X110019923Y-100150643D01*
X110029026Y-100079420D01*
X110029651Y-100071114D01*
X110031204Y-99942037D01*
X110014965Y-99846172D01*
X109981152Y-99784107D01*
X109929984Y-99756432D01*
X109911720Y-99754923D01*
X109863760Y-99762513D01*
X109830953Y-99788808D01*
X109810895Y-99839095D01*
X109801178Y-99918664D01*
X109799231Y-100002182D01*
X109603894Y-100002182D01*
X109604574Y-99908249D01*
X109607629Y-99837906D01*
X109614322Y-99789163D01*
X109625960Y-99753288D01*
X109643853Y-99721548D01*
X109647808Y-99715648D01*
X109714267Y-99636104D01*
X109786685Y-99589929D01*
X109874849Y-99571599D01*
X109904787Y-99570703D01*
X110016886Y-99587256D01*
X110016886Y-99587256D01*
G37*
X110016886Y-99587256D02*
X110108464Y-99635409D01*
X110176049Y-99712905D01*
X110200057Y-99762727D01*
X110218738Y-99837533D01*
X110228301Y-99932052D01*
X110229208Y-100035210D01*
X110221921Y-100135935D01*
X110206903Y-100223153D01*
X110184615Y-100285791D01*
X110177765Y-100296579D01*
X110096632Y-100377105D01*
X110000266Y-100425336D01*
X109895701Y-100439450D01*
X109789968Y-100417629D01*
X109760543Y-100404547D01*
X109703241Y-100364231D01*
X109652950Y-100310775D01*
X109648197Y-100303995D01*
X109628878Y-100271321D01*
X109616108Y-100236394D01*
X109608564Y-100190414D01*
X109604924Y-100124584D01*
X109603865Y-100030105D01*
X109603846Y-100008923D01*
X109603894Y-100002182D01*
X109799231Y-100002182D01*
X109800368Y-100091349D01*
X109804841Y-100150520D01*
X109814246Y-100188741D01*
X109830176Y-100215053D01*
X109838308Y-100223846D01*
X109885058Y-100257261D01*
X109930447Y-100255737D01*
X109976340Y-100226752D01*
X110003712Y-100195809D01*
X110019923Y-100150643D01*
X110029026Y-100079420D01*
X110029651Y-100071114D01*
X110031204Y-99942037D01*
X110014965Y-99846172D01*
X109981152Y-99784107D01*
X109929984Y-99756432D01*
X109911720Y-99754923D01*
X109863760Y-99762513D01*
X109830953Y-99788808D01*
X109810895Y-99839095D01*
X109801178Y-99918664D01*
X109799231Y-100002182D01*
X109603894Y-100002182D01*
X109604574Y-99908249D01*
X109607629Y-99837906D01*
X109614322Y-99789163D01*
X109625960Y-99753288D01*
X109643853Y-99721548D01*
X109647808Y-99715648D01*
X109714267Y-99636104D01*
X109786685Y-99589929D01*
X109874849Y-99571599D01*
X109904787Y-99570703D01*
X110016886Y-99587256D01*
G36*
X112271664Y-99595089D02*
G01*
X112334367Y-99631358D01*
X112377961Y-99667358D01*
X112409845Y-99705075D01*
X112431810Y-99751199D01*
X112445649Y-99812421D01*
X112453153Y-99895431D01*
X112456117Y-100006919D01*
X112456461Y-100087062D01*
X112456461Y-100382065D01*
X112290385Y-100456515D01*
X112280615Y-100133402D01*
X112276579Y-100012729D01*
X112272344Y-99925141D01*
X112267097Y-99864650D01*
X112260025Y-99825268D01*
X112250311Y-99801007D01*
X112237144Y-99785880D01*
X112232919Y-99782606D01*
X112168909Y-99757034D01*
X112104208Y-99767153D01*
X112065692Y-99794000D01*
X112050025Y-99813024D01*
X112039180Y-99837988D01*
X112032288Y-99875834D01*
X112028479Y-99933502D01*
X112026883Y-100017935D01*
X112026615Y-100105928D01*
X112026563Y-100216323D01*
X112024672Y-100294463D01*
X112018345Y-100347165D01*
X112004983Y-100381242D01*
X111981985Y-100403511D01*
X111946754Y-100420787D01*
X111899697Y-100438738D01*
X111848303Y-100458278D01*
X111854421Y-100111485D01*
X111856884Y-99986468D01*
X111859767Y-99894082D01*
X111863898Y-99827881D01*
X111870107Y-99781420D01*
X111879226Y-99748256D01*
X111892083Y-99721944D01*
X111907584Y-99698729D01*
X111982371Y-99624569D01*
X112073628Y-99581684D01*
X112172883Y-99571412D01*
X112271664Y-99595089D01*
X112271664Y-99595089D01*
G37*
X112271664Y-99595089D02*
X112334367Y-99631358D01*
X112377961Y-99667358D01*
X112409845Y-99705075D01*
X112431810Y-99751199D01*
X112445649Y-99812421D01*
X112453153Y-99895431D01*
X112456117Y-100006919D01*
X112456461Y-100087062D01*
X112456461Y-100382065D01*
X112290385Y-100456515D01*
X112280615Y-100133402D01*
X112276579Y-100012729D01*
X112272344Y-99925141D01*
X112267097Y-99864650D01*
X112260025Y-99825268D01*
X112250311Y-99801007D01*
X112237144Y-99785880D01*
X112232919Y-99782606D01*
X112168909Y-99757034D01*
X112104208Y-99767153D01*
X112065692Y-99794000D01*
X112050025Y-99813024D01*
X112039180Y-99837988D01*
X112032288Y-99875834D01*
X112028479Y-99933502D01*
X112026883Y-100017935D01*
X112026615Y-100105928D01*
X112026563Y-100216323D01*
X112024672Y-100294463D01*
X112018345Y-100347165D01*
X112004983Y-100381242D01*
X111981985Y-100403511D01*
X111946754Y-100420787D01*
X111899697Y-100438738D01*
X111848303Y-100458278D01*
X111854421Y-100111485D01*
X111856884Y-99986468D01*
X111859767Y-99894082D01*
X111863898Y-99827881D01*
X111870107Y-99781420D01*
X111879226Y-99748256D01*
X111892083Y-99721944D01*
X111907584Y-99698729D01*
X111982371Y-99624569D01*
X112073628Y-99581684D01*
X112172883Y-99571412D01*
X112271664Y-99595089D01*
G36*
X110768886Y-99584505D02*
G01*
X110843539Y-99621727D01*
X110909431Y-99690261D01*
X110927577Y-99715648D01*
X110947345Y-99748866D01*
X110960172Y-99784945D01*
X110967510Y-99833098D01*
X110970813Y-99902536D01*
X110971538Y-99994206D01*
X110968263Y-100119830D01*
X110956877Y-100214154D01*
X110935041Y-100284523D01*
X110900419Y-100338286D01*
X110850670Y-100382788D01*
X110847014Y-100385423D01*
X110797985Y-100412377D01*
X110738945Y-100425712D01*
X110663859Y-100429000D01*
X110541795Y-100429000D01*
X110541744Y-100547497D01*
X110540608Y-100613492D01*
X110533686Y-100652202D01*
X110515598Y-100675419D01*
X110480962Y-100694933D01*
X110472645Y-100698920D01*
X110433720Y-100717603D01*
X110403583Y-100729403D01*
X110381174Y-100730422D01*
X110365433Y-100716761D01*
X110355302Y-100684522D01*
X110349723Y-100629804D01*
X110347635Y-100548711D01*
X110347981Y-100437344D01*
X110349700Y-100291802D01*
X110350237Y-100248269D01*
X110352172Y-100098205D01*
X110353904Y-100000042D01*
X110541692Y-100000042D01*
X110542748Y-100083364D01*
X110547438Y-100137880D01*
X110558051Y-100173837D01*
X110576872Y-100201482D01*
X110589650Y-100214965D01*
X110641890Y-100254417D01*
X110688142Y-100257628D01*
X110735867Y-100225049D01*
X110737077Y-100223846D01*
X110756494Y-100198668D01*
X110768307Y-100164447D01*
X110774265Y-100111748D01*
X110776120Y-100031131D01*
X110776154Y-100013271D01*
X110771670Y-99902175D01*
X110757074Y-99825161D01*
X110730650Y-99778147D01*
X110690683Y-99757050D01*
X110667584Y-99754923D01*
X110612762Y-99764900D01*
X110575158Y-99797752D01*
X110552523Y-99857857D01*
X110542606Y-99949598D01*
X110541692Y-100000042D01*
X110353904Y-100000042D01*
X110354222Y-99982060D01*
X110356873Y-99894679D01*
X110360606Y-99830905D01*
X110365907Y-99785582D01*
X110373258Y-99753555D01*
X110383143Y-99729668D01*
X110396046Y-99708764D01*
X110401579Y-99700898D01*
X110474969Y-99626595D01*
X110567760Y-99584467D01*
X110675096Y-99572722D01*
X110768886Y-99584505D01*
X110768886Y-99584505D01*
G37*
X110768886Y-99584505D02*
X110843539Y-99621727D01*
X110909431Y-99690261D01*
X110927577Y-99715648D01*
X110947345Y-99748866D01*
X110960172Y-99784945D01*
X110967510Y-99833098D01*
X110970813Y-99902536D01*
X110971538Y-99994206D01*
X110968263Y-100119830D01*
X110956877Y-100214154D01*
X110935041Y-100284523D01*
X110900419Y-100338286D01*
X110850670Y-100382788D01*
X110847014Y-100385423D01*
X110797985Y-100412377D01*
X110738945Y-100425712D01*
X110663859Y-100429000D01*
X110541795Y-100429000D01*
X110541744Y-100547497D01*
X110540608Y-100613492D01*
X110533686Y-100652202D01*
X110515598Y-100675419D01*
X110480962Y-100694933D01*
X110472645Y-100698920D01*
X110433720Y-100717603D01*
X110403583Y-100729403D01*
X110381174Y-100730422D01*
X110365433Y-100716761D01*
X110355302Y-100684522D01*
X110349723Y-100629804D01*
X110347635Y-100548711D01*
X110347981Y-100437344D01*
X110349700Y-100291802D01*
X110350237Y-100248269D01*
X110352172Y-100098205D01*
X110353904Y-100000042D01*
X110541692Y-100000042D01*
X110542748Y-100083364D01*
X110547438Y-100137880D01*
X110558051Y-100173837D01*
X110576872Y-100201482D01*
X110589650Y-100214965D01*
X110641890Y-100254417D01*
X110688142Y-100257628D01*
X110735867Y-100225049D01*
X110737077Y-100223846D01*
X110756494Y-100198668D01*
X110768307Y-100164447D01*
X110774265Y-100111748D01*
X110776120Y-100031131D01*
X110776154Y-100013271D01*
X110771670Y-99902175D01*
X110757074Y-99825161D01*
X110730650Y-99778147D01*
X110690683Y-99757050D01*
X110667584Y-99754923D01*
X110612762Y-99764900D01*
X110575158Y-99797752D01*
X110552523Y-99857857D01*
X110542606Y-99949598D01*
X110541692Y-100000042D01*
X110353904Y-100000042D01*
X110354222Y-99982060D01*
X110356873Y-99894679D01*
X110360606Y-99830905D01*
X110365907Y-99785582D01*
X110373258Y-99753555D01*
X110383143Y-99729668D01*
X110396046Y-99708764D01*
X110401579Y-99700898D01*
X110474969Y-99626595D01*
X110567760Y-99584467D01*
X110675096Y-99572722D01*
X110768886Y-99584505D01*
D10*
X104576714Y-80589380D02*
X104576714Y-79589380D01*
X104957666Y-79589380D01*
X105052904Y-79637000D01*
X105100523Y-79684619D01*
X105148142Y-79779857D01*
X105148142Y-79922714D01*
X105100523Y-80017952D01*
X105052904Y-80065571D01*
X104957666Y-80113190D01*
X104576714Y-80113190D01*
X105529095Y-80541761D02*
X105671952Y-80589380D01*
X105910047Y-80589380D01*
X106005285Y-80541761D01*
X106052904Y-80494142D01*
X106100523Y-80398904D01*
X106100523Y-80303666D01*
X106052904Y-80208428D01*
X106005285Y-80160809D01*
X105910047Y-80113190D01*
X105719571Y-80065571D01*
X105624333Y-80017952D01*
X105576714Y-79970333D01*
X105529095Y-79875095D01*
X105529095Y-79779857D01*
X105576714Y-79684619D01*
X105624333Y-79637000D01*
X105719571Y-79589380D01*
X105957666Y-79589380D01*
X106100523Y-79637000D01*
X106481476Y-79684619D02*
X106529095Y-79637000D01*
X106624333Y-79589380D01*
X106862428Y-79589380D01*
X106957666Y-79637000D01*
X107005285Y-79684619D01*
X107052904Y-79779857D01*
X107052904Y-79875095D01*
X107005285Y-80017952D01*
X106433857Y-80589380D01*
X107052904Y-80589380D01*
X188904571Y-83585142D02*
X188952190Y-83442285D01*
X188999809Y-83394666D01*
X189095047Y-83347047D01*
X189237904Y-83347047D01*
X189333142Y-83394666D01*
X189380761Y-83442285D01*
X189428380Y-83537523D01*
X189428380Y-83918476D01*
X188428380Y-83918476D01*
X188428380Y-83585142D01*
X188476000Y-83489904D01*
X188523619Y-83442285D01*
X188618857Y-83394666D01*
X188714095Y-83394666D01*
X188809333Y-83442285D01*
X188856952Y-83489904D01*
X188904571Y-83585142D01*
X188904571Y-83918476D01*
X189428380Y-82918476D02*
X188428380Y-82918476D01*
X188904571Y-82918476D02*
X188904571Y-82347047D01*
X189428380Y-82347047D02*
X188428380Y-82347047D01*
X189428380Y-81347047D02*
X189428380Y-81918476D01*
X189428380Y-81632761D02*
X188428380Y-81632761D01*
X188571238Y-81728000D01*
X188666476Y-81823238D01*
X188714095Y-81918476D01*
X188428380Y-81013714D02*
X188428380Y-80347047D01*
X189428380Y-80775619D01*
X188428380Y-79489904D02*
X188428380Y-79966095D01*
X188904571Y-80013714D01*
X188856952Y-79966095D01*
X188809333Y-79870857D01*
X188809333Y-79632761D01*
X188856952Y-79537523D01*
X188904571Y-79489904D01*
X188999809Y-79442285D01*
X189237904Y-79442285D01*
X189333142Y-79489904D01*
X189380761Y-79537523D01*
X189428380Y-79632761D01*
X189428380Y-79870857D01*
X189380761Y-79966095D01*
X189333142Y-80013714D01*
X188428380Y-78823238D02*
X188428380Y-78728000D01*
X188476000Y-78632761D01*
X188523619Y-78585142D01*
X188618857Y-78537523D01*
X188809333Y-78489904D01*
X189047428Y-78489904D01*
X189237904Y-78537523D01*
X189333142Y-78585142D01*
X189380761Y-78632761D01*
X189428380Y-78728000D01*
X189428380Y-78823238D01*
X189380761Y-78918476D01*
X189333142Y-78966095D01*
X189237904Y-79013714D01*
X189047428Y-79061333D01*
X188809333Y-79061333D01*
X188618857Y-79013714D01*
X188523619Y-78966095D01*
X188476000Y-78918476D01*
X188428380Y-78823238D01*
X147677142Y-76806666D02*
X147724761Y-76854285D01*
X147772380Y-76997142D01*
X147772380Y-77092380D01*
X147724761Y-77235238D01*
X147629523Y-77330476D01*
X147534285Y-77378095D01*
X147343809Y-77425714D01*
X147200952Y-77425714D01*
X147010476Y-77378095D01*
X146915238Y-77330476D01*
X146820000Y-77235238D01*
X146772380Y-77092380D01*
X146772380Y-76997142D01*
X146820000Y-76854285D01*
X146867619Y-76806666D01*
X147200952Y-76235238D02*
X147153333Y-76330476D01*
X147105714Y-76378095D01*
X147010476Y-76425714D01*
X146962857Y-76425714D01*
X146867619Y-76378095D01*
X146820000Y-76330476D01*
X146772380Y-76235238D01*
X146772380Y-76044761D01*
X146820000Y-75949523D01*
X146867619Y-75901904D01*
X146962857Y-75854285D01*
X147010476Y-75854285D01*
X147105714Y-75901904D01*
X147153333Y-75949523D01*
X147200952Y-76044761D01*
X147200952Y-76235238D01*
X147248571Y-76330476D01*
X147296190Y-76378095D01*
X147391428Y-76425714D01*
X147581904Y-76425714D01*
X147677142Y-76378095D01*
X147724761Y-76330476D01*
X147772380Y-76235238D01*
X147772380Y-76044761D01*
X147724761Y-75949523D01*
X147677142Y-75901904D01*
X147581904Y-75854285D01*
X147391428Y-75854285D01*
X147296190Y-75901904D01*
X147248571Y-75949523D01*
X147200952Y-76044761D01*
X160079142Y-103254666D02*
X160126761Y-103302285D01*
X160174380Y-103445142D01*
X160174380Y-103540380D01*
X160126761Y-103683238D01*
X160031523Y-103778476D01*
X159936285Y-103826095D01*
X159745809Y-103873714D01*
X159602952Y-103873714D01*
X159412476Y-103826095D01*
X159317238Y-103778476D01*
X159222000Y-103683238D01*
X159174380Y-103540380D01*
X159174380Y-103445142D01*
X159222000Y-103302285D01*
X159269619Y-103254666D01*
X159174380Y-102397523D02*
X159174380Y-102588000D01*
X159222000Y-102683238D01*
X159269619Y-102730857D01*
X159412476Y-102826095D01*
X159602952Y-102873714D01*
X159983904Y-102873714D01*
X160079142Y-102826095D01*
X160126761Y-102778476D01*
X160174380Y-102683238D01*
X160174380Y-102492761D01*
X160126761Y-102397523D01*
X160079142Y-102349904D01*
X159983904Y-102302285D01*
X159745809Y-102302285D01*
X159650571Y-102349904D01*
X159602952Y-102397523D01*
X159555333Y-102492761D01*
X159555333Y-102683238D01*
X159602952Y-102778476D01*
X159650571Y-102826095D01*
X159745809Y-102873714D01*
X132103904Y-109418380D02*
X132103904Y-108418380D01*
X132342000Y-108418380D01*
X132484857Y-108466000D01*
X132580095Y-108561238D01*
X132627714Y-108656476D01*
X132675333Y-108846952D01*
X132675333Y-108989809D01*
X132627714Y-109180285D01*
X132580095Y-109275523D01*
X132484857Y-109370761D01*
X132342000Y-109418380D01*
X132103904Y-109418380D01*
X133627714Y-109418380D02*
X133056285Y-109418380D01*
X133342000Y-109418380D02*
X133342000Y-108418380D01*
X133246761Y-108561238D01*
X133151523Y-108656476D01*
X133056285Y-108704095D01*
X127142095Y-107520380D02*
X127142095Y-106520380D01*
X127713523Y-107520380D02*
X127284952Y-106948952D01*
X127713523Y-106520380D02*
X127142095Y-107091809D01*
X153185333Y-103484142D02*
X153137714Y-103531761D01*
X152994857Y-103579380D01*
X152899619Y-103579380D01*
X152756761Y-103531761D01*
X152661523Y-103436523D01*
X152613904Y-103341285D01*
X152566285Y-103150809D01*
X152566285Y-103007952D01*
X152613904Y-102817476D01*
X152661523Y-102722238D01*
X152756761Y-102627000D01*
X152899619Y-102579380D01*
X152994857Y-102579380D01*
X153137714Y-102627000D01*
X153185333Y-102674619D01*
X154090095Y-102579380D02*
X153613904Y-102579380D01*
X153566285Y-103055571D01*
X153613904Y-103007952D01*
X153709142Y-102960333D01*
X153947238Y-102960333D01*
X154042476Y-103007952D01*
X154090095Y-103055571D01*
X154137714Y-103150809D01*
X154137714Y-103388904D01*
X154090095Y-103484142D01*
X154042476Y-103531761D01*
X153947238Y-103579380D01*
X153709142Y-103579380D01*
X153613904Y-103531761D01*
X153566285Y-103484142D01*
X167472380Y-97333333D02*
X168186666Y-97333333D01*
X168329523Y-97380952D01*
X168424761Y-97476190D01*
X168472380Y-97619047D01*
X168472380Y-97714285D01*
X167472380Y-96380952D02*
X167472380Y-96857142D01*
X167948571Y-96904761D01*
X167900952Y-96857142D01*
X167853333Y-96761904D01*
X167853333Y-96523809D01*
X167900952Y-96428571D01*
X167948571Y-96380952D01*
X168043809Y-96333333D01*
X168281904Y-96333333D01*
X168377142Y-96380952D01*
X168424761Y-96428571D01*
X168472380Y-96523809D01*
X168472380Y-96761904D01*
X168424761Y-96857142D01*
X168377142Y-96904761D01*
X161393190Y-88036190D02*
X161869380Y-88036190D01*
X160869380Y-88369523D02*
X161393190Y-88036190D01*
X160869380Y-87702857D01*
X161869380Y-86845714D02*
X161869380Y-87417142D01*
X161869380Y-87131428D02*
X160869380Y-87131428D01*
X161012238Y-87226666D01*
X161107476Y-87321904D01*
X161155095Y-87417142D01*
X159333333Y-74507142D02*
X159285714Y-74554761D01*
X159142857Y-74602380D01*
X159047619Y-74602380D01*
X158904761Y-74554761D01*
X158809523Y-74459523D01*
X158761904Y-74364285D01*
X158714285Y-74173809D01*
X158714285Y-74030952D01*
X158761904Y-73840476D01*
X158809523Y-73745238D01*
X158904761Y-73650000D01*
X159047619Y-73602380D01*
X159142857Y-73602380D01*
X159285714Y-73650000D01*
X159333333Y-73697619D01*
X159809523Y-74602380D02*
X160000000Y-74602380D01*
X160095238Y-74554761D01*
X160142857Y-74507142D01*
X160238095Y-74364285D01*
X160285714Y-74173809D01*
X160285714Y-73792857D01*
X160238095Y-73697619D01*
X160190476Y-73650000D01*
X160095238Y-73602380D01*
X159904761Y-73602380D01*
X159809523Y-73650000D01*
X159761904Y-73697619D01*
X159714285Y-73792857D01*
X159714285Y-74030952D01*
X159761904Y-74126190D01*
X159809523Y-74173809D01*
X159904761Y-74221428D01*
X160095238Y-74221428D01*
X160190476Y-74173809D01*
X160238095Y-74126190D01*
X160285714Y-74030952D01*
X188721142Y-101460666D02*
X188768761Y-101508285D01*
X188816380Y-101651142D01*
X188816380Y-101746380D01*
X188768761Y-101889238D01*
X188673523Y-101984476D01*
X188578285Y-102032095D01*
X188387809Y-102079714D01*
X188244952Y-102079714D01*
X188054476Y-102032095D01*
X187959238Y-101984476D01*
X187864000Y-101889238D01*
X187816380Y-101746380D01*
X187816380Y-101651142D01*
X187864000Y-101508285D01*
X187911619Y-101460666D01*
X187816380Y-101127333D02*
X187816380Y-100460666D01*
X188816380Y-100889238D01*
X129737333Y-105207142D02*
X129689714Y-105254761D01*
X129546857Y-105302380D01*
X129451619Y-105302380D01*
X129308761Y-105254761D01*
X129213523Y-105159523D01*
X129165904Y-105064285D01*
X129118285Y-104873809D01*
X129118285Y-104730952D01*
X129165904Y-104540476D01*
X129213523Y-104445238D01*
X129308761Y-104350000D01*
X129451619Y-104302380D01*
X129546857Y-104302380D01*
X129689714Y-104350000D01*
X129737333Y-104397619D01*
X130070666Y-104302380D02*
X130689714Y-104302380D01*
X130356380Y-104683333D01*
X130499238Y-104683333D01*
X130594476Y-104730952D01*
X130642095Y-104778571D01*
X130689714Y-104873809D01*
X130689714Y-105111904D01*
X130642095Y-105207142D01*
X130594476Y-105254761D01*
X130499238Y-105302380D01*
X130213523Y-105302380D01*
X130118285Y-105254761D01*
X130070666Y-105207142D01*
X112990333Y-113895142D02*
X112942714Y-113942761D01*
X112799857Y-113990380D01*
X112704619Y-113990380D01*
X112561761Y-113942761D01*
X112466523Y-113847523D01*
X112418904Y-113752285D01*
X112371285Y-113561809D01*
X112371285Y-113418952D01*
X112418904Y-113228476D01*
X112466523Y-113133238D01*
X112561761Y-113038000D01*
X112704619Y-112990380D01*
X112799857Y-112990380D01*
X112942714Y-113038000D01*
X112990333Y-113085619D01*
X113942714Y-113990380D02*
X113371285Y-113990380D01*
X113657000Y-113990380D02*
X113657000Y-112990380D01*
X113561761Y-113133238D01*
X113466523Y-113228476D01*
X113371285Y-113276095D01*
X187816380Y-92403904D02*
X188625904Y-92403904D01*
X188721142Y-92356285D01*
X188768761Y-92308666D01*
X188816380Y-92213428D01*
X188816380Y-92022952D01*
X188768761Y-91927714D01*
X188721142Y-91880095D01*
X188625904Y-91832476D01*
X187816380Y-91832476D01*
X187911619Y-91403904D02*
X187864000Y-91356285D01*
X187816380Y-91261047D01*
X187816380Y-91022952D01*
X187864000Y-90927714D01*
X187911619Y-90880095D01*
X188006857Y-90832476D01*
X188102095Y-90832476D01*
X188244952Y-90880095D01*
X188816380Y-91451523D01*
X188816380Y-90832476D01*
X115625714Y-111831380D02*
X115625714Y-110831380D01*
X116006666Y-110831380D01*
X116101904Y-110879000D01*
X116149523Y-110926619D01*
X116197142Y-111021857D01*
X116197142Y-111164714D01*
X116149523Y-111259952D01*
X116101904Y-111307571D01*
X116006666Y-111355190D01*
X115625714Y-111355190D01*
X116578095Y-111783761D02*
X116720952Y-111831380D01*
X116959047Y-111831380D01*
X117054285Y-111783761D01*
X117101904Y-111736142D01*
X117149523Y-111640904D01*
X117149523Y-111545666D01*
X117101904Y-111450428D01*
X117054285Y-111402809D01*
X116959047Y-111355190D01*
X116768571Y-111307571D01*
X116673333Y-111259952D01*
X116625714Y-111212333D01*
X116578095Y-111117095D01*
X116578095Y-111021857D01*
X116625714Y-110926619D01*
X116673333Y-110879000D01*
X116768571Y-110831380D01*
X117006666Y-110831380D01*
X117149523Y-110879000D01*
X118101904Y-111831380D02*
X117530476Y-111831380D01*
X117816190Y-111831380D02*
X117816190Y-110831380D01*
X117720952Y-110974238D01*
X117625714Y-111069476D01*
X117530476Y-111117095D01*
X143904761Y-102047619D02*
X143809523Y-102000000D01*
X143714285Y-101904761D01*
X143571428Y-101761904D01*
X143476190Y-101714285D01*
X143380952Y-101714285D01*
X143428571Y-101952380D02*
X143333333Y-101904761D01*
X143238095Y-101809523D01*
X143190476Y-101619047D01*
X143190476Y-101285714D01*
X143238095Y-101095238D01*
X143333333Y-101000000D01*
X143428571Y-100952380D01*
X143619047Y-100952380D01*
X143714285Y-101000000D01*
X143809523Y-101095238D01*
X143857142Y-101285714D01*
X143857142Y-101619047D01*
X143809523Y-101809523D01*
X143714285Y-101904761D01*
X143619047Y-101952380D01*
X143428571Y-101952380D01*
X144809523Y-101952380D02*
X144238095Y-101952380D01*
X144523809Y-101952380D02*
X144523809Y-100952380D01*
X144428571Y-101095238D01*
X144333333Y-101190476D01*
X144238095Y-101238095D01*
X135209523Y-68302380D02*
X134733333Y-68302380D01*
X134733333Y-67302380D01*
X135495238Y-68016666D02*
X135971428Y-68016666D01*
X135400000Y-68302380D02*
X135733333Y-67302380D01*
X136066666Y-68302380D01*
X136400000Y-68302380D02*
X136400000Y-67302380D01*
X136733333Y-68016666D01*
X137066666Y-67302380D01*
X137066666Y-68302380D01*
X137542857Y-68302380D02*
X137542857Y-67302380D01*
X137923809Y-67302380D01*
X138019047Y-67350000D01*
X138066666Y-67397619D01*
X138114285Y-67492857D01*
X138114285Y-67635714D01*
X138066666Y-67730952D01*
X138019047Y-67778571D01*
X137923809Y-67826190D01*
X137542857Y-67826190D01*
X125737333Y-67397619D02*
X125784952Y-67350000D01*
X125880190Y-67302380D01*
X126118285Y-67302380D01*
X126213523Y-67350000D01*
X126261142Y-67397619D01*
X126308761Y-67492857D01*
X126308761Y-67588095D01*
X126261142Y-67730952D01*
X125689714Y-68302380D01*
X126308761Y-68302380D01*
X126689714Y-67397619D02*
X126737333Y-67350000D01*
X126832571Y-67302380D01*
X127070666Y-67302380D01*
X127165904Y-67350000D01*
X127213523Y-67397619D01*
X127261142Y-67492857D01*
X127261142Y-67588095D01*
X127213523Y-67730952D01*
X126642095Y-68302380D01*
X127261142Y-68302380D01*
X127880190Y-67302380D02*
X127975428Y-67302380D01*
X128070666Y-67350000D01*
X128118285Y-67397619D01*
X128165904Y-67492857D01*
X128213523Y-67683333D01*
X128213523Y-67921428D01*
X128165904Y-68111904D01*
X128118285Y-68207142D01*
X128070666Y-68254761D01*
X127975428Y-68302380D01*
X127880190Y-68302380D01*
X127784952Y-68254761D01*
X127737333Y-68207142D01*
X127689714Y-68111904D01*
X127642095Y-67921428D01*
X127642095Y-67683333D01*
X127689714Y-67492857D01*
X127737333Y-67397619D01*
X127784952Y-67350000D01*
X127880190Y-67302380D01*
X128499238Y-67302380D02*
X128832571Y-68302380D01*
X129165904Y-67302380D01*
X159166666Y-72448761D02*
X159309523Y-72496380D01*
X159547619Y-72496380D01*
X159642857Y-72448761D01*
X159690476Y-72401142D01*
X159738095Y-72305904D01*
X159738095Y-72210666D01*
X159690476Y-72115428D01*
X159642857Y-72067809D01*
X159547619Y-72020190D01*
X159357142Y-71972571D01*
X159261904Y-71924952D01*
X159214285Y-71877333D01*
X159166666Y-71782095D01*
X159166666Y-71686857D01*
X159214285Y-71591619D01*
X159261904Y-71544000D01*
X159357142Y-71496380D01*
X159595238Y-71496380D01*
X159738095Y-71544000D01*
X160071428Y-71496380D02*
X160309523Y-72496380D01*
X160500000Y-71782095D01*
X160690476Y-72496380D01*
X160928571Y-71496380D01*
X161833333Y-72496380D02*
X161261904Y-72496380D01*
X161547619Y-72496380D02*
X161547619Y-71496380D01*
X161452380Y-71639238D01*
X161357142Y-71734476D01*
X161261904Y-71782095D01*
X149396666Y-123352380D02*
X149396666Y-124066666D01*
X149349047Y-124209523D01*
X149253809Y-124304761D01*
X149110952Y-124352380D01*
X149015714Y-124352380D01*
X149825238Y-123447619D02*
X149872857Y-123400000D01*
X149968095Y-123352380D01*
X150206190Y-123352380D01*
X150301428Y-123400000D01*
X150349047Y-123447619D01*
X150396666Y-123542857D01*
X150396666Y-123638095D01*
X150349047Y-123780952D01*
X149777619Y-124352380D01*
X150396666Y-124352380D01*
X139207333Y-113600380D02*
X138874000Y-113124190D01*
X138635904Y-113600380D02*
X138635904Y-112600380D01*
X139016857Y-112600380D01*
X139112095Y-112648000D01*
X139159714Y-112695619D01*
X139207333Y-112790857D01*
X139207333Y-112933714D01*
X139159714Y-113028952D01*
X139112095Y-113076571D01*
X139016857Y-113124190D01*
X138635904Y-113124190D01*
X140112095Y-112600380D02*
X139635904Y-112600380D01*
X139588285Y-113076571D01*
X139635904Y-113028952D01*
X139731142Y-112981333D01*
X139969238Y-112981333D01*
X140064476Y-113028952D01*
X140112095Y-113076571D01*
X140159714Y-113171809D01*
X140159714Y-113409904D01*
X140112095Y-113505142D01*
X140064476Y-113552761D01*
X139969238Y-113600380D01*
X139731142Y-113600380D01*
X139635904Y-113552761D01*
X139588285Y-113505142D01*
X130825333Y-113600380D02*
X130492000Y-113124190D01*
X130253904Y-113600380D02*
X130253904Y-112600380D01*
X130634857Y-112600380D01*
X130730095Y-112648000D01*
X130777714Y-112695619D01*
X130825333Y-112790857D01*
X130825333Y-112933714D01*
X130777714Y-113028952D01*
X130730095Y-113076571D01*
X130634857Y-113124190D01*
X130253904Y-113124190D01*
X131682476Y-112933714D02*
X131682476Y-113600380D01*
X131444380Y-112552761D02*
X131206285Y-113267047D01*
X131825333Y-113267047D01*
X122443333Y-113600380D02*
X122110000Y-113124190D01*
X121871904Y-113600380D02*
X121871904Y-112600380D01*
X122252857Y-112600380D01*
X122348095Y-112648000D01*
X122395714Y-112695619D01*
X122443333Y-112790857D01*
X122443333Y-112933714D01*
X122395714Y-113028952D01*
X122348095Y-113076571D01*
X122252857Y-113124190D01*
X121871904Y-113124190D01*
X122776666Y-112600380D02*
X123395714Y-112600380D01*
X123062380Y-112981333D01*
X123205238Y-112981333D01*
X123300476Y-113028952D01*
X123348095Y-113076571D01*
X123395714Y-113171809D01*
X123395714Y-113409904D01*
X123348095Y-113505142D01*
X123300476Y-113552761D01*
X123205238Y-113600380D01*
X122919523Y-113600380D01*
X122824285Y-113552761D01*
X122776666Y-113505142D01*
X137068904Y-117317380D02*
X137068904Y-116317380D01*
X137307000Y-116317380D01*
X137449857Y-116365000D01*
X137545095Y-116460238D01*
X137592714Y-116555476D01*
X137640333Y-116745952D01*
X137640333Y-116888809D01*
X137592714Y-117079285D01*
X137545095Y-117174523D01*
X137449857Y-117269761D01*
X137307000Y-117317380D01*
X137068904Y-117317380D01*
X138545095Y-116317380D02*
X138068904Y-116317380D01*
X138021285Y-116793571D01*
X138068904Y-116745952D01*
X138164142Y-116698333D01*
X138402238Y-116698333D01*
X138497476Y-116745952D01*
X138545095Y-116793571D01*
X138592714Y-116888809D01*
X138592714Y-117126904D01*
X138545095Y-117222142D01*
X138497476Y-117269761D01*
X138402238Y-117317380D01*
X138164142Y-117317380D01*
X138068904Y-117269761D01*
X138021285Y-117222142D01*
X129568904Y-117317380D02*
X129568904Y-116317380D01*
X129807000Y-116317380D01*
X129949857Y-116365000D01*
X130045095Y-116460238D01*
X130092714Y-116555476D01*
X130140333Y-116745952D01*
X130140333Y-116888809D01*
X130092714Y-117079285D01*
X130045095Y-117174523D01*
X129949857Y-117269761D01*
X129807000Y-117317380D01*
X129568904Y-117317380D01*
X130997476Y-116650714D02*
X130997476Y-117317380D01*
X130759380Y-116269761D02*
X130521285Y-116984047D01*
X131140333Y-116984047D01*
X122068904Y-117317380D02*
X122068904Y-116317380D01*
X122307000Y-116317380D01*
X122449857Y-116365000D01*
X122545095Y-116460238D01*
X122592714Y-116555476D01*
X122640333Y-116745952D01*
X122640333Y-116888809D01*
X122592714Y-117079285D01*
X122545095Y-117174523D01*
X122449857Y-117269761D01*
X122307000Y-117317380D01*
X122068904Y-117317380D01*
X122973666Y-116317380D02*
X123592714Y-116317380D01*
X123259380Y-116698333D01*
X123402238Y-116698333D01*
X123497476Y-116745952D01*
X123545095Y-116793571D01*
X123592714Y-116888809D01*
X123592714Y-117126904D01*
X123545095Y-117222142D01*
X123497476Y-117269761D01*
X123402238Y-117317380D01*
X123116523Y-117317380D01*
X123021285Y-117269761D01*
X122973666Y-117222142D01*
X148987000Y-66746380D02*
X148987000Y-65746380D01*
X149367952Y-65746380D01*
X149463190Y-65794000D01*
X149510809Y-65841619D01*
X149558428Y-65936857D01*
X149558428Y-66079714D01*
X149510809Y-66174952D01*
X149463190Y-66222571D01*
X149367952Y-66270190D01*
X148987000Y-66270190D01*
X149987000Y-66746380D02*
X149987000Y-65746380D01*
X151034619Y-66746380D02*
X150701285Y-66270190D01*
X150463190Y-66746380D02*
X150463190Y-65746380D01*
X150844142Y-65746380D01*
X150939380Y-65794000D01*
X150987000Y-65841619D01*
X151034619Y-65936857D01*
X151034619Y-66079714D01*
X150987000Y-66174952D01*
X150939380Y-66222571D01*
X150844142Y-66270190D01*
X150463190Y-66270190D01*
X136825904Y-81680380D02*
X136825904Y-80680380D01*
X137397333Y-81680380D02*
X136968761Y-81108952D01*
X137397333Y-80680380D02*
X136825904Y-81251809D01*
X138349714Y-81680380D02*
X137778285Y-81680380D01*
X138064000Y-81680380D02*
X138064000Y-80680380D01*
X137968761Y-80823238D01*
X137873523Y-80918476D01*
X137778285Y-80966095D01*
X132126904Y-97174380D02*
X132126904Y-96174380D01*
X132365000Y-96174380D01*
X132507857Y-96222000D01*
X132603095Y-96317238D01*
X132650714Y-96412476D01*
X132698333Y-96602952D01*
X132698333Y-96745809D01*
X132650714Y-96936285D01*
X132603095Y-97031523D01*
X132507857Y-97126761D01*
X132365000Y-97174380D01*
X132126904Y-97174380D01*
X133079285Y-96269619D02*
X133126904Y-96222000D01*
X133222142Y-96174380D01*
X133460238Y-96174380D01*
X133555476Y-96222000D01*
X133603095Y-96269619D01*
X133650714Y-96364857D01*
X133650714Y-96460095D01*
X133603095Y-96602952D01*
X133031666Y-97174380D01*
X133650714Y-97174380D01*
X115894666Y-69218571D02*
X115561333Y-69218571D01*
X115561333Y-69742380D02*
X115561333Y-68742380D01*
X116037523Y-68742380D01*
X116942285Y-69742380D02*
X116370857Y-69742380D01*
X116656571Y-69742380D02*
X116656571Y-68742380D01*
X116561333Y-68885238D01*
X116466095Y-68980476D01*
X116370857Y-69028095D01*
X138857904Y-103382380D02*
X138857904Y-102382380D01*
X139096000Y-102382380D01*
X139238857Y-102430000D01*
X139334095Y-102525238D01*
X139381714Y-102620476D01*
X139429333Y-102810952D01*
X139429333Y-102953809D01*
X139381714Y-103144285D01*
X139334095Y-103239523D01*
X139238857Y-103334761D01*
X139096000Y-103382380D01*
X138857904Y-103382380D01*
X140286476Y-102382380D02*
X140096000Y-102382380D01*
X140000761Y-102430000D01*
X139953142Y-102477619D01*
X139857904Y-102620476D01*
X139810285Y-102810952D01*
X139810285Y-103191904D01*
X139857904Y-103287142D01*
X139905523Y-103334761D01*
X140000761Y-103382380D01*
X140191238Y-103382380D01*
X140286476Y-103334761D01*
X140334095Y-103287142D01*
X140381714Y-103191904D01*
X140381714Y-102953809D01*
X140334095Y-102858571D01*
X140286476Y-102810952D01*
X140191238Y-102763333D01*
X140000761Y-102763333D01*
X139905523Y-102810952D01*
X139857904Y-102858571D01*
X139810285Y-102953809D01*
X150344142Y-85002666D02*
X150391761Y-85050285D01*
X150439380Y-85193142D01*
X150439380Y-85288380D01*
X150391761Y-85431238D01*
X150296523Y-85526476D01*
X150201285Y-85574095D01*
X150010809Y-85621714D01*
X149867952Y-85621714D01*
X149677476Y-85574095D01*
X149582238Y-85526476D01*
X149487000Y-85431238D01*
X149439380Y-85288380D01*
X149439380Y-85193142D01*
X149487000Y-85050285D01*
X149534619Y-85002666D01*
X149772714Y-84145523D02*
X150439380Y-84145523D01*
X149391761Y-84383619D02*
X150106047Y-84621714D01*
X150106047Y-84002666D01*
X150217142Y-90082666D02*
X150264761Y-90130285D01*
X150312380Y-90273142D01*
X150312380Y-90368380D01*
X150264761Y-90511238D01*
X150169523Y-90606476D01*
X150074285Y-90654095D01*
X149883809Y-90701714D01*
X149740952Y-90701714D01*
X149550476Y-90654095D01*
X149455238Y-90606476D01*
X149360000Y-90511238D01*
X149312380Y-90368380D01*
X149312380Y-90273142D01*
X149360000Y-90130285D01*
X149407619Y-90082666D01*
X149407619Y-89701714D02*
X149360000Y-89654095D01*
X149312380Y-89558857D01*
X149312380Y-89320761D01*
X149360000Y-89225523D01*
X149407619Y-89177904D01*
X149502857Y-89130285D01*
X149598095Y-89130285D01*
X149740952Y-89177904D01*
X150312380Y-89749333D01*
X150312380Y-89130285D01*
X166082380Y-78626666D02*
X165606190Y-78960000D01*
X166082380Y-79198095D02*
X165082380Y-79198095D01*
X165082380Y-78817142D01*
X165130000Y-78721904D01*
X165177619Y-78674285D01*
X165272857Y-78626666D01*
X165415714Y-78626666D01*
X165510952Y-78674285D01*
X165558571Y-78721904D01*
X165606190Y-78817142D01*
X165606190Y-79198095D01*
X165177619Y-78245714D02*
X165130000Y-78198095D01*
X165082380Y-78102857D01*
X165082380Y-77864761D01*
X165130000Y-77769523D01*
X165177619Y-77721904D01*
X165272857Y-77674285D01*
X165368095Y-77674285D01*
X165510952Y-77721904D01*
X166082380Y-78293333D01*
X166082380Y-77674285D01*
X156789380Y-87776666D02*
X156313190Y-88110000D01*
X156789380Y-88348095D02*
X155789380Y-88348095D01*
X155789380Y-87967142D01*
X155837000Y-87871904D01*
X155884619Y-87824285D01*
X155979857Y-87776666D01*
X156122714Y-87776666D01*
X156217952Y-87824285D01*
X156265571Y-87871904D01*
X156313190Y-87967142D01*
X156313190Y-88348095D01*
X156789380Y-86824285D02*
X156789380Y-87395714D01*
X156789380Y-87110000D02*
X155789380Y-87110000D01*
X155932238Y-87205238D01*
X156027476Y-87300476D01*
X156075095Y-87395714D01*
X132317333Y-100984380D02*
X131984000Y-100508190D01*
X131745904Y-100984380D02*
X131745904Y-99984380D01*
X132126857Y-99984380D01*
X132222095Y-100032000D01*
X132269714Y-100079619D01*
X132317333Y-100174857D01*
X132317333Y-100317714D01*
X132269714Y-100412952D01*
X132222095Y-100460571D01*
X132126857Y-100508190D01*
X131745904Y-100508190D01*
X133174476Y-99984380D02*
X132984000Y-99984380D01*
X132888761Y-100032000D01*
X132841142Y-100079619D01*
X132745904Y-100222476D01*
X132698285Y-100412952D01*
X132698285Y-100793904D01*
X132745904Y-100889142D01*
X132793523Y-100936761D01*
X132888761Y-100984380D01*
X133079238Y-100984380D01*
X133174476Y-100936761D01*
X133222095Y-100889142D01*
X133269714Y-100793904D01*
X133269714Y-100555809D01*
X133222095Y-100460571D01*
X133174476Y-100412952D01*
X133079238Y-100365333D01*
X132888761Y-100365333D01*
X132793523Y-100412952D01*
X132745904Y-100460571D01*
X132698285Y-100555809D01*
X175156095Y-66412380D02*
X175156095Y-67221904D01*
X175203714Y-67317142D01*
X175251333Y-67364761D01*
X175346571Y-67412380D01*
X175537047Y-67412380D01*
X175632285Y-67364761D01*
X175679904Y-67317142D01*
X175727523Y-67221904D01*
X175727523Y-66412380D01*
X176108476Y-66412380D02*
X176727523Y-66412380D01*
X176394190Y-66793333D01*
X176537047Y-66793333D01*
X176632285Y-66840952D01*
X176679904Y-66888571D01*
X176727523Y-66983809D01*
X176727523Y-67221904D01*
X176679904Y-67317142D01*
X176632285Y-67364761D01*
X176537047Y-67412380D01*
X176251333Y-67412380D01*
X176156095Y-67364761D01*
X176108476Y-67317142D01*
X160170095Y-105620380D02*
X160170095Y-106429904D01*
X160217714Y-106525142D01*
X160265333Y-106572761D01*
X160360571Y-106620380D01*
X160551047Y-106620380D01*
X160646285Y-106572761D01*
X160693904Y-106525142D01*
X160741523Y-106429904D01*
X160741523Y-105620380D01*
X161741523Y-106620380D02*
X161170095Y-106620380D01*
X161455809Y-106620380D02*
X161455809Y-105620380D01*
X161360571Y-105763238D01*
X161265333Y-105858476D01*
X161170095Y-105906095D01*
M02*
