G04 #@! TF.GenerationSoftware,KiCad,Pcbnew,6.0.0-rc1-unknown-4b7ef22~84~ubuntu18.04.1*
G04 #@! TF.CreationDate,2019-01-03T12:38:09+01:00
G04 #@! TF.ProjectId,atmega328,61746d65-6761-4333-9238-2e6b69636164,1*
G04 #@! TF.SameCoordinates,Original*
G04 #@! TF.FileFunction,Copper,L1,Top*
G04 #@! TF.FilePolarity,Positive*
%FSLAX46Y46*%
G04 Gerber Fmt 4.6, Leading zero omitted, Abs format (unit mm)*
G04 Created by KiCad (PCBNEW 6.0.0-rc1-unknown-4b7ef22~84~ubuntu18.04.1) date czw, 3 sty 2019, 12:38:09*
%MOMM*%
%LPD*%
G04 APERTURE LIST*
%ADD10C,1.600000*%
%ADD11O,1.700000X1.700000*%
%ADD12R,1.700000X1.700000*%
%ADD13C,1.500000*%
%ADD14R,1.600000X1.600000*%
%ADD15R,1.300000X1.300000*%
%ADD16C,1.300000*%
%ADD17C,2.540000*%
%ADD18C,2.300000*%
%ADD19R,2.000000X2.300000*%
%ADD20C,0.800000*%
%ADD21C,5.400000*%
%ADD22R,1.500000X1.500000*%
%ADD23R,2.540000X2.540000*%
%ADD24C,1.700000*%
%ADD25C,2.200000*%
%ADD26O,1.727200X1.727200*%
%ADD27R,1.727200X1.727200*%
%ADD28O,1.600000X1.600000*%
%ADD29C,1.800000*%
%ADD30R,1.800000X1.800000*%
%ADD31O,2.200000X1.700000*%
%ADD32R,2.200000X1.700000*%
%ADD33O,1.700000X2.200000*%
%ADD34R,1.700000X2.200000*%
%ADD35C,3.000000*%
%ADD36C,2.500000*%
%ADD37O,2.200000X2.200000*%
%ADD38R,2.200000X2.200000*%
%ADD39C,2.000000*%
%ADD40O,1.500000X1.500000*%
%ADD41C,1.524000*%
%ADD42R,1.524000X1.524000*%
%ADD43C,1.200000*%
%ADD44C,0.700000*%
%ADD45C,1.000000*%
%ADD46C,0.254000*%
G04 APERTURE END LIST*
D10*
X150852000Y-103072000D03*
X155852000Y-103072000D03*
D11*
X152550000Y-97000000D03*
X155090000Y-97000000D03*
X157630000Y-97000000D03*
X160170000Y-97000000D03*
X162710000Y-97000000D03*
D12*
X165250000Y-97000000D03*
D13*
X161476000Y-85120000D03*
X161476000Y-90000000D03*
D10*
X151000000Y-78140000D03*
D14*
X151000000Y-75640000D03*
D10*
X162000000Y-77000000D03*
X157000000Y-77000000D03*
X185062000Y-99088000D03*
X185062000Y-104088000D03*
X163472000Y-101588000D03*
D14*
X163472000Y-104088000D03*
D10*
X132404000Y-104850000D03*
X127404000Y-104850000D03*
X114902000Y-118566000D03*
D14*
X111402000Y-118566000D03*
D15*
X185062000Y-92912000D03*
D16*
X185062000Y-90372000D03*
X183792000Y-91642000D03*
D17*
X116320000Y-107120000D03*
X110770000Y-107120000D03*
X112000000Y-80000000D03*
X107680000Y-80000000D03*
D18*
X106800000Y-109400000D03*
X112000000Y-80000000D03*
D19*
X117000000Y-80000000D03*
D18*
X122200000Y-109400000D03*
D20*
X187431891Y-119568109D03*
X186000000Y-118975000D03*
X184568109Y-119568109D03*
X183975000Y-121000000D03*
X184568109Y-122431891D03*
X186000000Y-123025000D03*
X187431891Y-122431891D03*
X188025000Y-121000000D03*
D21*
X186000000Y-121000000D03*
D20*
X105431891Y-119568109D03*
X104000000Y-118975000D03*
X102568109Y-119568109D03*
X101975000Y-121000000D03*
X102568109Y-122431891D03*
X104000000Y-123025000D03*
X105431891Y-122431891D03*
X106025000Y-121000000D03*
D21*
X104000000Y-121000000D03*
D20*
X187431891Y-67568109D03*
X186000000Y-66975000D03*
X184568109Y-67568109D03*
X183975000Y-69000000D03*
X184568109Y-70431891D03*
X186000000Y-71025000D03*
X187431891Y-70431891D03*
X188025000Y-69000000D03*
D21*
X186000000Y-69000000D03*
D20*
X105431891Y-67568109D03*
X104000000Y-66975000D03*
X102568109Y-67568109D03*
X101975000Y-69000000D03*
X102568109Y-70431891D03*
X104000000Y-71025000D03*
X105431891Y-70431891D03*
X106025000Y-69000000D03*
D21*
X104000000Y-69000000D03*
D22*
X141120000Y-98500000D03*
D13*
X146200000Y-98500000D03*
X143660000Y-98500000D03*
D17*
X134450000Y-72150000D03*
D23*
X139450000Y-72150000D03*
D17*
X124450000Y-72150000D03*
D23*
X129450000Y-72150000D03*
D24*
X158250000Y-69544000D03*
X162750000Y-69544000D03*
D25*
X157000000Y-72044000D03*
X164000000Y-72044000D03*
D26*
X148460000Y-112216000D03*
X151000000Y-112216000D03*
X148460000Y-114756000D03*
X151000000Y-114756000D03*
X148460000Y-117296000D03*
D27*
X151000000Y-117296000D03*
D28*
X141660000Y-114756000D03*
D10*
X136580000Y-114756000D03*
D28*
X133278000Y-114756000D03*
D10*
X128198000Y-114756000D03*
D28*
X124896000Y-114756000D03*
D10*
X119816000Y-114756000D03*
D29*
X139077000Y-118825000D03*
D30*
X136537000Y-118825000D03*
D29*
X131577000Y-118825000D03*
D30*
X129037000Y-118825000D03*
D29*
X124077000Y-118825000D03*
D30*
X121537000Y-118825000D03*
D31*
X185062000Y-76148000D03*
X185062000Y-78688000D03*
D32*
X185062000Y-86308000D03*
D31*
X185062000Y-83768000D03*
X185062000Y-81228000D03*
D33*
X150000000Y-69544000D03*
D34*
X147460000Y-69544000D03*
D33*
X152540000Y-69544000D03*
D35*
X127912000Y-85800000D03*
D36*
X129862000Y-79850000D03*
D35*
X142112000Y-79800000D03*
X142062000Y-91850000D03*
D36*
X129862000Y-91850000D03*
D37*
X137564000Y-96722000D03*
D38*
X127404000Y-96722000D03*
D39*
X118641000Y-72094000D03*
X113561000Y-72084000D03*
D40*
X143406000Y-104850000D03*
D22*
X135786000Y-104850000D03*
D10*
X152296000Y-83300000D03*
X152296000Y-85800000D03*
X152296000Y-91348000D03*
X152296000Y-88848000D03*
D28*
X168000000Y-75920000D03*
D10*
X168000000Y-81000000D03*
D28*
X156360000Y-92690000D03*
D10*
X156360000Y-82530000D03*
D28*
X137564000Y-100532000D03*
D10*
X127404000Y-100532000D03*
D40*
X135024000Y-109168000D03*
D22*
X127404000Y-109168000D03*
D28*
X179728000Y-69290000D03*
X172108000Y-102310000D03*
X179728000Y-71830000D03*
X172108000Y-99770000D03*
X179728000Y-74370000D03*
X172108000Y-97230000D03*
X179728000Y-76910000D03*
X172108000Y-94690000D03*
X179728000Y-79450000D03*
X172108000Y-92150000D03*
X179728000Y-81990000D03*
X172108000Y-89610000D03*
X179728000Y-84530000D03*
X172108000Y-87070000D03*
X179728000Y-87070000D03*
X172108000Y-84530000D03*
X179728000Y-89610000D03*
X172108000Y-81990000D03*
X179728000Y-92150000D03*
X172108000Y-79450000D03*
X179728000Y-94690000D03*
X172108000Y-76910000D03*
X179728000Y-97230000D03*
X172108000Y-74370000D03*
X179728000Y-99770000D03*
X172108000Y-71830000D03*
X179728000Y-102310000D03*
D14*
X172108000Y-69290000D03*
D41*
X163472000Y-116788000D03*
X160932000Y-116788000D03*
X163472000Y-114248000D03*
X160932000Y-114248000D03*
X163472000Y-111708000D03*
X160932000Y-111708000D03*
X163472000Y-109168000D03*
D42*
X160932000Y-109168000D03*
D43*
X164665300Y-87062000D03*
X148839500Y-95864500D03*
X147526000Y-103854400D03*
X157823700Y-104281400D03*
X147552900Y-96834100D03*
X161550800Y-80955900D03*
D44*
X184261900Y-99888100D02*
X185062000Y-99088000D01*
X184261800Y-99888200D02*
X184261900Y-99888100D01*
X184261700Y-99888300D02*
X184261800Y-99888200D01*
X184261500Y-99888500D02*
X184261700Y-99888300D01*
X184261100Y-99888900D02*
X184261500Y-99888500D01*
X184260200Y-99889800D02*
X184261100Y-99888900D01*
X184258500Y-99891500D02*
X184260200Y-99889800D01*
X184255000Y-99895000D02*
X184258500Y-99891500D01*
X184248000Y-99902000D02*
X184255000Y-99895000D01*
X184234000Y-99916000D02*
X184248000Y-99902000D01*
X184206000Y-99944000D02*
X184234000Y-99916000D01*
X184150000Y-100000000D02*
X184206000Y-99944000D01*
X184038000Y-100112000D02*
X184150000Y-100000000D01*
X183814000Y-100336000D02*
X184038000Y-100112000D01*
X183366000Y-100784000D02*
X183814000Y-100336000D01*
X182470000Y-101680000D02*
X183366000Y-100784000D01*
X160932000Y-109168000D02*
X162344400Y-107755600D01*
X162344400Y-107755600D02*
X176394400Y-107755600D01*
X176394400Y-107755600D02*
X182470000Y-101680000D01*
X165250000Y-97000000D02*
X165250000Y-93928000D01*
X165250000Y-93928000D02*
X172108000Y-87070000D01*
X165250000Y-97000000D02*
X162710000Y-97000000D01*
X158250000Y-69544000D02*
X160225900Y-67568100D01*
X160225900Y-67568100D02*
X184568100Y-67568100D01*
X152540000Y-69544000D02*
X158250000Y-69544000D01*
X151000000Y-78140000D02*
X151861900Y-79001900D01*
X151861900Y-79001900D02*
X159998100Y-79001900D01*
X159998100Y-79001900D02*
X162000000Y-77000000D01*
X122200000Y-109400000D02*
X124332400Y-107267600D01*
X124332400Y-107267600D02*
X129986400Y-107267600D01*
X129986400Y-107267600D02*
X132404000Y-104850000D01*
X122200000Y-109400000D02*
X118600000Y-109400000D01*
X118600000Y-109400000D02*
X116320000Y-107120000D01*
X101975000Y-121000000D02*
X104000000Y-121000000D01*
X104000000Y-121000000D02*
X106025000Y-121000000D01*
X183975000Y-69000000D02*
X186000000Y-69000000D01*
X186000000Y-69000000D02*
X188025000Y-69000000D01*
X101975000Y-69000000D02*
X104000000Y-69000000D01*
X104000000Y-69000000D02*
X106025000Y-69000000D01*
X156360000Y-92690000D02*
X158786000Y-92690000D01*
X158786000Y-92690000D02*
X161476000Y-90000000D01*
X163472000Y-109168000D02*
X179982000Y-109168000D01*
X179982000Y-109168000D02*
X185062000Y-104088000D01*
X156360000Y-82530000D02*
X158886000Y-82530000D01*
X158886000Y-82530000D02*
X161476000Y-85120000D01*
D45*
X179306600Y-89610000D02*
X179728000Y-89610000D01*
X160170000Y-94849700D02*
X160979700Y-94849700D01*
X160979700Y-94849700D02*
X171299400Y-84530000D01*
X171299400Y-84530000D02*
X172108000Y-84530000D01*
X179306600Y-89610000D02*
X177627700Y-89610000D01*
X174208300Y-84530000D02*
X174208300Y-86190600D01*
X174208300Y-86190600D02*
X177627700Y-89610000D01*
X157000000Y-77000000D02*
X159142600Y-74857400D01*
X159142600Y-74857400D02*
X162897200Y-74857400D01*
X162897200Y-74857400D02*
X168000000Y-79960200D01*
X168000000Y-79960200D02*
X168000000Y-81000000D01*
X151000000Y-75640000D02*
X155640000Y-75640000D01*
X155640000Y-75640000D02*
X157000000Y-77000000D01*
X151000000Y-75640000D02*
X148899700Y-75640000D01*
X129862000Y-91850000D02*
X134026600Y-91850000D01*
X134026600Y-91850000D02*
X148899700Y-76976900D01*
X148899700Y-76976900D02*
X148899700Y-75640000D01*
X160170000Y-97000000D02*
X160170000Y-94849700D01*
X111402000Y-118566000D02*
X113861400Y-121025400D01*
X113861400Y-121025400D02*
X123039600Y-121025400D01*
X123039600Y-121025400D02*
X124077000Y-119988000D01*
X124077000Y-119988000D02*
X124077000Y-118825000D01*
X106800000Y-109400000D02*
X108490000Y-109400000D01*
X108490000Y-109400000D02*
X110770000Y-107120000D01*
X172108000Y-84530000D02*
X174208300Y-84530000D01*
X184646002Y-89610000D02*
X185062000Y-90025998D01*
X179728000Y-89610000D02*
X184646002Y-89610000D01*
X185062000Y-90025998D02*
X185062000Y-90118000D01*
D44*
X148460000Y-114756000D02*
X146896400Y-114756000D01*
X163472000Y-114248000D02*
X164915500Y-115691500D01*
X164915500Y-115691500D02*
X164915500Y-117358200D01*
X164915500Y-117358200D02*
X162948700Y-119325000D01*
X162948700Y-119325000D02*
X147621400Y-119325000D01*
X147621400Y-119325000D02*
X146413100Y-118116700D01*
X146413100Y-118116700D02*
X146413100Y-115239300D01*
X146413100Y-115239300D02*
X146896400Y-114756000D01*
X151000000Y-114756000D02*
X152563600Y-114756000D01*
X160932000Y-114248000D02*
X153071600Y-114248000D01*
X153071600Y-114248000D02*
X152563600Y-114756000D01*
X151000000Y-117296000D02*
X152563600Y-117296000D01*
X160932000Y-116788000D02*
X153071600Y-116788000D01*
X153071600Y-116788000D02*
X152563600Y-117296000D01*
X179728000Y-69290000D02*
X181228000Y-69290000D01*
X181228000Y-69290000D02*
X186829200Y-74891200D01*
X186829200Y-74891200D02*
X186829200Y-79460800D01*
X186829200Y-79460800D02*
X185062000Y-81228000D01*
X147526000Y-103854400D02*
X148201700Y-104530100D01*
X148201700Y-104530100D02*
X157575000Y-104530100D01*
X157575000Y-104530100D02*
X157823700Y-104281400D01*
X148839500Y-95864500D02*
X148839500Y-90192700D01*
X148839500Y-90192700D02*
X151708200Y-87324000D01*
X151708200Y-87324000D02*
X164403300Y-87324000D01*
X164403300Y-87324000D02*
X164665300Y-87062000D01*
X179728000Y-102310000D02*
X178228000Y-102310000D01*
X160932000Y-111708000D02*
X159483100Y-110259100D01*
X159483100Y-110259100D02*
X159483100Y-108116800D01*
X159483100Y-108116800D02*
X161040700Y-106559200D01*
X161040700Y-106559200D02*
X173978800Y-106559200D01*
X173978800Y-106559200D02*
X178228000Y-102310000D01*
X135786000Y-104850000D02*
X134336000Y-104850000D01*
X127404000Y-100532000D02*
X130199300Y-100532000D01*
X130199300Y-100532000D02*
X134336000Y-104668700D01*
X134336000Y-104668700D02*
X134336000Y-104850000D01*
X126396000Y-114756000D02*
X126396000Y-114450500D01*
X126396000Y-114450500D02*
X133573900Y-107272600D01*
X133573900Y-107272600D02*
X135814700Y-107272600D01*
X135814700Y-107272600D02*
X142701500Y-100385800D01*
X142701500Y-100385800D02*
X146361500Y-100385800D01*
X146361500Y-100385800D02*
X158147700Y-88599600D01*
X158147700Y-88599600D02*
X164896000Y-88599600D01*
X164896000Y-88599600D02*
X170608000Y-82887600D01*
X170608000Y-82887600D02*
X170608000Y-81990000D01*
X172108000Y-81990000D02*
X170608000Y-81990000D01*
X124896000Y-114756000D02*
X126396000Y-114756000D01*
X172108000Y-97230000D02*
X169657700Y-97230000D01*
X169657700Y-97230000D02*
X167617800Y-99269900D01*
X167617800Y-99269900D02*
X150342300Y-99269900D01*
X150342300Y-99269900D02*
X146892000Y-102720200D01*
X146892000Y-102720200D02*
X143502700Y-102720200D01*
X143502700Y-102720200D02*
X133278000Y-112944900D01*
X133278000Y-112944900D02*
X133278000Y-114756000D01*
X141660000Y-114756000D02*
X143160000Y-114756000D01*
X172108000Y-99770000D02*
X170608000Y-99770000D01*
X170608000Y-99770000D02*
X164839700Y-105538300D01*
X164839700Y-105538300D02*
X152377700Y-105538300D01*
X152377700Y-105538300D02*
X143160000Y-114756000D01*
X161550800Y-80955900D02*
X152568200Y-80955900D01*
X152568200Y-80955900D02*
X147552900Y-85971200D01*
X147552900Y-85971200D02*
X147552900Y-96834100D01*
X172108000Y-69290000D02*
X163004000Y-69290000D01*
X163004000Y-69290000D02*
X162750000Y-69544000D01*
D46*
G36*
X102116284Y-66169117D02*
G01*
X102105472Y-66176341D01*
X101799414Y-66619809D01*
X104000000Y-68820395D01*
X106200586Y-66619809D01*
X105894528Y-66176341D01*
X105264590Y-65914000D01*
X184735537Y-65914000D01*
X184116284Y-66169117D01*
X184105472Y-66176341D01*
X183799414Y-66619809D01*
X186000000Y-68820395D01*
X188200586Y-66619809D01*
X187894528Y-66176341D01*
X187264590Y-65914000D01*
X189086000Y-65914000D01*
X189086000Y-67735537D01*
X188830883Y-67116284D01*
X188823659Y-67105472D01*
X188380191Y-66799414D01*
X186179605Y-69000000D01*
X188380191Y-71200586D01*
X188823659Y-70894528D01*
X189086000Y-70264590D01*
X189086001Y-105739000D01*
X185489703Y-105739000D01*
X186018741Y-105519865D01*
X186493865Y-105044741D01*
X186751000Y-104423963D01*
X186751000Y-103752037D01*
X186493865Y-103131259D01*
X186018741Y-102656135D01*
X185397963Y-102399000D01*
X184726037Y-102399000D01*
X184105259Y-102656135D01*
X183630135Y-103131259D01*
X183373000Y-103752037D01*
X183373000Y-104024790D01*
X179468791Y-107929000D01*
X164567866Y-107929000D01*
X164437066Y-107798200D01*
X173856772Y-107798200D01*
X173978800Y-107822473D01*
X174100828Y-107798200D01*
X174100829Y-107798200D01*
X174462234Y-107726312D01*
X174872069Y-107452469D01*
X174941196Y-107349013D01*
X178661488Y-103628722D01*
X179068985Y-103901003D01*
X179561650Y-103999000D01*
X179894350Y-103999000D01*
X180387015Y-103901003D01*
X180945701Y-103527701D01*
X181319003Y-102969015D01*
X181450089Y-102310000D01*
X181319003Y-101650985D01*
X180945701Y-101092299D01*
X180867430Y-101040000D01*
X180945701Y-100987701D01*
X181319003Y-100429015D01*
X181385294Y-100095745D01*
X184233861Y-100095745D01*
X184307995Y-100341864D01*
X184845223Y-100534965D01*
X185415454Y-100507778D01*
X185816005Y-100341864D01*
X185890139Y-100095745D01*
X185062000Y-99267605D01*
X184233861Y-100095745D01*
X181385294Y-100095745D01*
X181450089Y-99770000D01*
X181319003Y-99110985D01*
X181158800Y-98871223D01*
X183615035Y-98871223D01*
X183642222Y-99441454D01*
X183808136Y-99842005D01*
X184054255Y-99916139D01*
X184882395Y-99088000D01*
X185241605Y-99088000D01*
X186069745Y-99916139D01*
X186315864Y-99842005D01*
X186508965Y-99304777D01*
X186481778Y-98734546D01*
X186315864Y-98333995D01*
X186069745Y-98259861D01*
X185241605Y-99088000D01*
X184882395Y-99088000D01*
X184054255Y-98259861D01*
X183808136Y-98333995D01*
X183615035Y-98871223D01*
X181158800Y-98871223D01*
X180945701Y-98552299D01*
X180867430Y-98500000D01*
X180945701Y-98447701D01*
X181191220Y-98080255D01*
X184233861Y-98080255D01*
X185062000Y-98908395D01*
X185890139Y-98080255D01*
X185816005Y-97834136D01*
X185278777Y-97641035D01*
X184708546Y-97668222D01*
X184307995Y-97834136D01*
X184233861Y-98080255D01*
X181191220Y-98080255D01*
X181319003Y-97889015D01*
X181450089Y-97230000D01*
X181319003Y-96570985D01*
X180945701Y-96012299D01*
X180867430Y-95960000D01*
X180945701Y-95907701D01*
X181319003Y-95349015D01*
X181450089Y-94690000D01*
X181319003Y-94030985D01*
X180945701Y-93472299D01*
X180867430Y-93420000D01*
X180945701Y-93367701D01*
X181319003Y-92809015D01*
X181450089Y-92150000D01*
X181319003Y-91490985D01*
X181015660Y-91037000D01*
X182641952Y-91037000D01*
X182494378Y-91461078D01*
X182523917Y-91971428D01*
X182662389Y-92305729D01*
X182892984Y-92361410D01*
X183612395Y-91642000D01*
X183598252Y-91627858D01*
X183777858Y-91448252D01*
X183792000Y-91462395D01*
X183806143Y-91448253D01*
X183895688Y-91537798D01*
X183771067Y-91621067D01*
X183574581Y-91915130D01*
X183543818Y-92069788D01*
X183072590Y-92541016D01*
X183128271Y-92771611D01*
X183505584Y-92902911D01*
X183505584Y-93562000D01*
X183574581Y-93908870D01*
X183771067Y-94202933D01*
X184065130Y-94399419D01*
X184412000Y-94468416D01*
X185712000Y-94468416D01*
X186058870Y-94399419D01*
X186352933Y-94202933D01*
X186549419Y-93908870D01*
X186618416Y-93562000D01*
X186618416Y-92262000D01*
X186549419Y-91915130D01*
X186352933Y-91621067D01*
X186167230Y-91496985D01*
X186398916Y-91265299D01*
X186639000Y-90685685D01*
X186639000Y-90058315D01*
X186416569Y-89521320D01*
X186406204Y-89469210D01*
X186090808Y-88997189D01*
X185971659Y-88917576D01*
X185754426Y-88700343D01*
X185674811Y-88581191D01*
X185202790Y-88265796D01*
X184786546Y-88183000D01*
X184786542Y-88183000D01*
X184646002Y-88155045D01*
X184505462Y-88183000D01*
X181015660Y-88183000D01*
X181319003Y-87729015D01*
X181450089Y-87070000D01*
X181319003Y-86410985D01*
X180945701Y-85852299D01*
X180623961Y-85637319D01*
X180786401Y-85458000D01*
X183055584Y-85458000D01*
X183055584Y-87158000D01*
X183124581Y-87504870D01*
X183321067Y-87798933D01*
X183615130Y-87995419D01*
X183962000Y-88064416D01*
X186162000Y-88064416D01*
X186508870Y-87995419D01*
X186802933Y-87798933D01*
X186999419Y-87504870D01*
X187068416Y-87158000D01*
X187068416Y-85458000D01*
X186999419Y-85111130D01*
X186802933Y-84817067D01*
X186513146Y-84623438D01*
X186732352Y-84235491D01*
X186753476Y-84124890D01*
X186632155Y-83895000D01*
X185189000Y-83895000D01*
X185189000Y-83915000D01*
X184935000Y-83915000D01*
X184935000Y-83895000D01*
X183491845Y-83895000D01*
X183370524Y-84124890D01*
X183391648Y-84235491D01*
X183610854Y-84623438D01*
X183321067Y-84817067D01*
X183124581Y-85111130D01*
X183055584Y-85458000D01*
X180786401Y-85458000D01*
X180959041Y-85267423D01*
X181119904Y-84879039D01*
X180997915Y-84657000D01*
X179855000Y-84657000D01*
X179855000Y-84677000D01*
X179601000Y-84677000D01*
X179601000Y-84657000D01*
X178458085Y-84657000D01*
X178336096Y-84879039D01*
X178496959Y-85267423D01*
X178832039Y-85637319D01*
X178510299Y-85852299D01*
X178136997Y-86410985D01*
X178005911Y-87070000D01*
X178136997Y-87729015D01*
X178440340Y-88183000D01*
X178218783Y-88183000D01*
X175635300Y-85599519D01*
X175635300Y-84670544D01*
X175663256Y-84530000D01*
X175552504Y-83973212D01*
X175237109Y-83501191D01*
X174765088Y-83185796D01*
X174348844Y-83103000D01*
X174208300Y-83075044D01*
X174067756Y-83103000D01*
X173395660Y-83103000D01*
X173699003Y-82649015D01*
X173830089Y-81990000D01*
X173699003Y-81330985D01*
X173325701Y-80772299D01*
X173247430Y-80720000D01*
X173325701Y-80667701D01*
X173699003Y-80109015D01*
X173830089Y-79450000D01*
X173699003Y-78790985D01*
X173325701Y-78232299D01*
X173247430Y-78180000D01*
X173325701Y-78127701D01*
X173699003Y-77569015D01*
X173830089Y-76910000D01*
X173699003Y-76250985D01*
X173325701Y-75692299D01*
X173247430Y-75640000D01*
X173325701Y-75587701D01*
X173699003Y-75029015D01*
X173830089Y-74370000D01*
X173699003Y-73710985D01*
X173325701Y-73152299D01*
X173247430Y-73100000D01*
X173325701Y-73047701D01*
X173699003Y-72489015D01*
X173830089Y-71830000D01*
X173699003Y-71170985D01*
X173449405Y-70797435D01*
X173548933Y-70730933D01*
X173745419Y-70436870D01*
X173814416Y-70090000D01*
X173814416Y-69290000D01*
X178005911Y-69290000D01*
X178136997Y-69949015D01*
X178510299Y-70507701D01*
X178588570Y-70560000D01*
X178510299Y-70612299D01*
X178136997Y-71170985D01*
X178005911Y-71830000D01*
X178136997Y-72489015D01*
X178510299Y-73047701D01*
X178588570Y-73100000D01*
X178510299Y-73152299D01*
X178136997Y-73710985D01*
X178005911Y-74370000D01*
X178136997Y-75029015D01*
X178510299Y-75587701D01*
X178588570Y-75640000D01*
X178510299Y-75692299D01*
X178136997Y-76250985D01*
X178005911Y-76910000D01*
X178136997Y-77569015D01*
X178510299Y-78127701D01*
X178588570Y-78180000D01*
X178510299Y-78232299D01*
X178136997Y-78790985D01*
X178005911Y-79450000D01*
X178136997Y-80109015D01*
X178510299Y-80667701D01*
X178588570Y-80720000D01*
X178510299Y-80772299D01*
X178136997Y-81330985D01*
X178005911Y-81990000D01*
X178136997Y-82649015D01*
X178510299Y-83207701D01*
X178832039Y-83422681D01*
X178496959Y-83792577D01*
X178336096Y-84180961D01*
X178458085Y-84403000D01*
X179601000Y-84403000D01*
X179601000Y-84383000D01*
X179855000Y-84383000D01*
X179855000Y-84403000D01*
X180997915Y-84403000D01*
X181119904Y-84180961D01*
X180959041Y-83792577D01*
X180623961Y-83422681D01*
X180945701Y-83207701D01*
X181319003Y-82649015D01*
X181450089Y-81990000D01*
X181319003Y-81330985D01*
X180945701Y-80772299D01*
X180867430Y-80720000D01*
X180945701Y-80667701D01*
X181319003Y-80109015D01*
X181450089Y-79450000D01*
X181319003Y-78790985D01*
X180945701Y-78232299D01*
X180867430Y-78180000D01*
X180945701Y-78127701D01*
X181319003Y-77569015D01*
X181450089Y-76910000D01*
X181319003Y-76250985D01*
X180945701Y-75692299D01*
X180867430Y-75640000D01*
X180945701Y-75587701D01*
X181319003Y-75029015D01*
X181450089Y-74370000D01*
X181319003Y-73710985D01*
X180945701Y-73152299D01*
X180867430Y-73100000D01*
X180945701Y-73047701D01*
X181319003Y-72489015D01*
X181450089Y-71830000D01*
X181319003Y-71170985D01*
X181242941Y-71057150D01*
X184602411Y-74416621D01*
X184133476Y-74509898D01*
X183558251Y-74894251D01*
X183173898Y-75469476D01*
X183038931Y-76148000D01*
X183173898Y-76826524D01*
X183558251Y-77401749D01*
X183582572Y-77418000D01*
X183558251Y-77434251D01*
X183173898Y-78009476D01*
X183038931Y-78688000D01*
X183173898Y-79366524D01*
X183558251Y-79941749D01*
X183582572Y-79958000D01*
X183558251Y-79974251D01*
X183173898Y-80549476D01*
X183038931Y-81228000D01*
X183173898Y-81906524D01*
X183558251Y-82481749D01*
X183837484Y-82668326D01*
X183678667Y-82792549D01*
X183391648Y-83300509D01*
X183370524Y-83411110D01*
X183491845Y-83641000D01*
X184935000Y-83641000D01*
X184935000Y-83621000D01*
X185189000Y-83621000D01*
X185189000Y-83641000D01*
X186632155Y-83641000D01*
X186753476Y-83411110D01*
X186732352Y-83300509D01*
X186445333Y-82792549D01*
X186286516Y-82668326D01*
X186565749Y-82481749D01*
X186950102Y-81906524D01*
X187085069Y-81228000D01*
X187040130Y-81002079D01*
X187619015Y-80423194D01*
X187722469Y-80354069D01*
X187996312Y-79944234D01*
X188068200Y-79582829D01*
X188068200Y-79582826D01*
X188092472Y-79460801D01*
X188068200Y-79338776D01*
X188068200Y-75013228D01*
X188092473Y-74891199D01*
X187996312Y-74407766D01*
X187722469Y-73997931D01*
X187619016Y-73928806D01*
X186025264Y-72335054D01*
X186656995Y-72336262D01*
X187883716Y-71830883D01*
X187894528Y-71823659D01*
X188200586Y-71380191D01*
X186000000Y-69179605D01*
X185985858Y-69193748D01*
X185806253Y-69014143D01*
X185820395Y-69000000D01*
X183619809Y-66799414D01*
X183176341Y-67105472D01*
X182666275Y-68330252D01*
X182665042Y-68974833D01*
X182190396Y-68500187D01*
X182121269Y-68396731D01*
X181711434Y-68122888D01*
X181350029Y-68051000D01*
X181350028Y-68051000D01*
X181228000Y-68026727D01*
X181105972Y-68051000D01*
X180913825Y-68051000D01*
X180387015Y-67698997D01*
X179894350Y-67601000D01*
X179561650Y-67601000D01*
X179068985Y-67698997D01*
X178510299Y-68072299D01*
X178136997Y-68630985D01*
X178005911Y-69290000D01*
X173814416Y-69290000D01*
X173814416Y-68490000D01*
X173745419Y-68143130D01*
X173548933Y-67849067D01*
X173254870Y-67652581D01*
X172908000Y-67583584D01*
X171308000Y-67583584D01*
X170961130Y-67652581D01*
X170667067Y-67849067D01*
X170532140Y-68051000D01*
X163689805Y-68051000D01*
X163095909Y-67805000D01*
X162404091Y-67805000D01*
X161764936Y-68069747D01*
X161275747Y-68558936D01*
X161011000Y-69198091D01*
X161011000Y-69889909D01*
X161275747Y-70529064D01*
X161764936Y-71018253D01*
X162197742Y-71197527D01*
X162011000Y-71648363D01*
X162011000Y-72439637D01*
X162313807Y-73170678D01*
X162573529Y-73430400D01*
X159283140Y-73430400D01*
X159142600Y-73402445D01*
X159002059Y-73430400D01*
X159002056Y-73430400D01*
X158612985Y-73507791D01*
X158585812Y-73513196D01*
X158232938Y-73748979D01*
X158232937Y-73748980D01*
X158113791Y-73828591D01*
X158034180Y-73947737D01*
X157000000Y-74981918D01*
X156748423Y-74730342D01*
X156668809Y-74611191D01*
X156196788Y-74295796D01*
X155780544Y-74213000D01*
X155780540Y-74213000D01*
X155640000Y-74185045D01*
X155499460Y-74213000D01*
X152495946Y-74213000D01*
X152468330Y-74171670D01*
X152161697Y-73966785D01*
X151800000Y-73894839D01*
X150200000Y-73894839D01*
X149838303Y-73966785D01*
X149531670Y-74171670D01*
X149504054Y-74213000D01*
X149040244Y-74213000D01*
X148899700Y-74185044D01*
X148759156Y-74213000D01*
X148342912Y-74295796D01*
X147870891Y-74611191D01*
X147555496Y-75083212D01*
X147444744Y-75640000D01*
X147472700Y-75780544D01*
X147472700Y-76385817D01*
X144501000Y-79357517D01*
X144501000Y-79324798D01*
X144137296Y-78446740D01*
X143465260Y-77774704D01*
X142587202Y-77411000D01*
X141636798Y-77411000D01*
X140758740Y-77774704D01*
X140086704Y-78446740D01*
X139723000Y-79324798D01*
X139723000Y-80275202D01*
X140086704Y-81153260D01*
X140758740Y-81825296D01*
X141636798Y-82189000D01*
X141669518Y-82189000D01*
X133435519Y-90423000D01*
X131513743Y-90423000D01*
X131095171Y-90004428D01*
X130295032Y-89673000D01*
X129428968Y-89673000D01*
X128628829Y-90004428D01*
X128016428Y-90616829D01*
X127685000Y-91416968D01*
X127685000Y-92283032D01*
X128016428Y-93083171D01*
X128628829Y-93695572D01*
X129428968Y-94027000D01*
X130295032Y-94027000D01*
X131095171Y-93695572D01*
X131513743Y-93277000D01*
X133886060Y-93277000D01*
X134026600Y-93304955D01*
X134167140Y-93277000D01*
X134167144Y-93277000D01*
X134583388Y-93194204D01*
X135055409Y-92878809D01*
X135135024Y-92759657D01*
X136519883Y-91374798D01*
X139673000Y-91374798D01*
X139673000Y-92325202D01*
X140036704Y-93203260D01*
X140708740Y-93875296D01*
X141586798Y-94239000D01*
X142537202Y-94239000D01*
X143415260Y-93875296D01*
X144087296Y-93203260D01*
X144451000Y-92325202D01*
X144451000Y-91374798D01*
X144087296Y-90496740D01*
X143415260Y-89824704D01*
X142537202Y-89461000D01*
X141586798Y-89461000D01*
X140708740Y-89824704D01*
X140036704Y-90496740D01*
X139673000Y-91374798D01*
X136519883Y-91374798D01*
X148746936Y-79147745D01*
X150171861Y-79147745D01*
X150245995Y-79393864D01*
X150783223Y-79586965D01*
X151353454Y-79559778D01*
X151754005Y-79393864D01*
X151828139Y-79147745D01*
X151000000Y-78319605D01*
X150171861Y-79147745D01*
X148746936Y-79147745D01*
X149572076Y-78322606D01*
X149580222Y-78493454D01*
X149746136Y-78894005D01*
X149992255Y-78968139D01*
X150820395Y-78140000D01*
X150806252Y-78125858D01*
X150985858Y-77946252D01*
X151000000Y-77960395D01*
X151014142Y-77946252D01*
X151193748Y-78125858D01*
X151179605Y-78140000D01*
X152007745Y-78968139D01*
X152253864Y-78894005D01*
X152446965Y-78356777D01*
X152419778Y-77786546D01*
X152253864Y-77385995D01*
X152071683Y-77331120D01*
X152161697Y-77313215D01*
X152468330Y-77108330D01*
X152495946Y-77067000D01*
X155048918Y-77067000D01*
X155273000Y-77291082D01*
X155273000Y-77343522D01*
X155535920Y-77978267D01*
X156021733Y-78464080D01*
X156656478Y-78727000D01*
X157343522Y-78727000D01*
X157978267Y-78464080D01*
X158434602Y-78007745D01*
X161171861Y-78007745D01*
X161245995Y-78253864D01*
X161783223Y-78446965D01*
X162353454Y-78419778D01*
X162754005Y-78253864D01*
X162828139Y-78007745D01*
X162000000Y-77179605D01*
X161171861Y-78007745D01*
X158434602Y-78007745D01*
X158464080Y-77978267D01*
X158727000Y-77343522D01*
X158727000Y-77291082D01*
X159733683Y-76284400D01*
X160732332Y-76284400D01*
X160553035Y-76783223D01*
X160580222Y-77353454D01*
X160746136Y-77754005D01*
X160992255Y-77828139D01*
X161820395Y-77000000D01*
X161806252Y-76985858D01*
X161985858Y-76806252D01*
X162000000Y-76820395D01*
X162014143Y-76806253D01*
X162193748Y-76985858D01*
X162179605Y-77000000D01*
X163007745Y-77828139D01*
X163253864Y-77754005D01*
X163391845Y-77370127D01*
X166391679Y-80369962D01*
X166273000Y-80656478D01*
X166273000Y-81343522D01*
X166535920Y-81978267D01*
X167021733Y-82464080D01*
X167656478Y-82727000D01*
X168343522Y-82727000D01*
X168978267Y-82464080D01*
X169362582Y-82079765D01*
X169369000Y-82112029D01*
X169369000Y-82374390D01*
X165726227Y-86017163D01*
X165508751Y-85799687D01*
X164961480Y-85573000D01*
X164369120Y-85573000D01*
X163821849Y-85799687D01*
X163536536Y-86085000D01*
X162828896Y-86085000D01*
X162865477Y-86048419D01*
X163115000Y-85446017D01*
X163115000Y-84793983D01*
X162865477Y-84191581D01*
X162404419Y-83730523D01*
X161802017Y-83481000D01*
X161589210Y-83481000D01*
X160303109Y-82194900D01*
X160684036Y-82194900D01*
X160707349Y-82218213D01*
X161254620Y-82444900D01*
X161846980Y-82444900D01*
X162394251Y-82218213D01*
X162813113Y-81799351D01*
X163039800Y-81252080D01*
X163039800Y-80659720D01*
X162813113Y-80112449D01*
X162394251Y-79693587D01*
X161846980Y-79466900D01*
X161254620Y-79466900D01*
X160707349Y-79693587D01*
X160684036Y-79716900D01*
X152690224Y-79716900D01*
X152568199Y-79692628D01*
X152446174Y-79716900D01*
X152446171Y-79716900D01*
X152084766Y-79788788D01*
X151674931Y-80062631D01*
X151605806Y-80166084D01*
X146763087Y-85008804D01*
X146659631Y-85077931D01*
X146405678Y-85458000D01*
X146385788Y-85487767D01*
X146289627Y-85971200D01*
X146313900Y-86093228D01*
X146313901Y-95967335D01*
X146290587Y-95990649D01*
X146063900Y-96537920D01*
X146063900Y-97120129D01*
X145854552Y-97130770D01*
X145476077Y-97287540D01*
X145408088Y-97528483D01*
X146200000Y-98320395D01*
X146214143Y-98306253D01*
X146393748Y-98485858D01*
X146379605Y-98500000D01*
X146393748Y-98514143D01*
X146214143Y-98693748D01*
X146200000Y-98679605D01*
X146185858Y-98693748D01*
X146006253Y-98514143D01*
X146020395Y-98500000D01*
X145228483Y-97708088D01*
X145118836Y-97739028D01*
X145049477Y-97571581D01*
X144588419Y-97110523D01*
X143986017Y-96861000D01*
X143333983Y-96861000D01*
X142731581Y-97110523D01*
X142599895Y-97242209D01*
X142510933Y-97109067D01*
X142216870Y-96912581D01*
X141870000Y-96843584D01*
X140370000Y-96843584D01*
X140023130Y-96912581D01*
X139729067Y-97109067D01*
X139532581Y-97403130D01*
X139463584Y-97750000D01*
X139463584Y-99250000D01*
X139532581Y-99596870D01*
X139729067Y-99890933D01*
X140023130Y-100087419D01*
X140370000Y-100156416D01*
X141178674Y-100156416D01*
X137408018Y-103927072D01*
X137373419Y-103753130D01*
X137176933Y-103459067D01*
X136882870Y-103262581D01*
X136536000Y-103193584D01*
X135036000Y-103193584D01*
X134689130Y-103262581D01*
X134684910Y-103265400D01*
X131951510Y-100532000D01*
X135841911Y-100532000D01*
X135972997Y-101191015D01*
X136346299Y-101749701D01*
X136904985Y-102123003D01*
X137397650Y-102221000D01*
X137730350Y-102221000D01*
X138223015Y-102123003D01*
X138781701Y-101749701D01*
X139155003Y-101191015D01*
X139286089Y-100532000D01*
X139155003Y-99872985D01*
X138781701Y-99314299D01*
X138223015Y-98940997D01*
X137730350Y-98843000D01*
X137397650Y-98843000D01*
X136904985Y-98940997D01*
X136346299Y-99314299D01*
X135972997Y-99872985D01*
X135841911Y-100532000D01*
X131951510Y-100532000D01*
X131161696Y-99742187D01*
X131092569Y-99638731D01*
X130682734Y-99364888D01*
X130321329Y-99293000D01*
X130321328Y-99293000D01*
X130199300Y-99268727D01*
X130077272Y-99293000D01*
X128553606Y-99293000D01*
X128360741Y-99100135D01*
X127739963Y-98843000D01*
X127068037Y-98843000D01*
X126447259Y-99100135D01*
X125972135Y-99575259D01*
X125715000Y-100196037D01*
X125715000Y-100867963D01*
X125972135Y-101488741D01*
X126447259Y-101963865D01*
X127068037Y-102221000D01*
X127739963Y-102221000D01*
X128360741Y-101963865D01*
X128553606Y-101771000D01*
X129686091Y-101771000D01*
X131617872Y-103702782D01*
X131575861Y-103842255D01*
X132404000Y-104670395D01*
X132418143Y-104656253D01*
X132597748Y-104835858D01*
X132583605Y-104850000D01*
X133373976Y-105640370D01*
X133442731Y-105743269D01*
X133852566Y-106017112D01*
X133935457Y-106033600D01*
X133695928Y-106033600D01*
X133573900Y-106009327D01*
X133451871Y-106033600D01*
X133173357Y-106089000D01*
X133161789Y-106091301D01*
X133232139Y-105857745D01*
X132404000Y-105029605D01*
X131575861Y-105857745D01*
X131649995Y-106103864D01*
X132187223Y-106296965D01*
X132757454Y-106269778D01*
X132986704Y-106174819D01*
X132844589Y-106269778D01*
X132680631Y-106379331D01*
X132611508Y-106482781D01*
X129080010Y-110014280D01*
X129099161Y-109918000D01*
X129099161Y-108418000D01*
X129027215Y-108056303D01*
X128822330Y-107749670D01*
X128515697Y-107544785D01*
X128154000Y-107472839D01*
X126654000Y-107472839D01*
X126292303Y-107544785D01*
X125985670Y-107749670D01*
X125780785Y-108056303D01*
X125708839Y-108418000D01*
X125708839Y-109918000D01*
X125780785Y-110279697D01*
X125985670Y-110586330D01*
X126292303Y-110791215D01*
X126654000Y-110863161D01*
X128154000Y-110863161D01*
X128250281Y-110844010D01*
X125779379Y-113314912D01*
X125555015Y-113164997D01*
X125062350Y-113067000D01*
X124729650Y-113067000D01*
X124236985Y-113164997D01*
X123678299Y-113538299D01*
X123304997Y-114096985D01*
X123173911Y-114756000D01*
X123304997Y-115415015D01*
X123678299Y-115973701D01*
X124236985Y-116347003D01*
X124729650Y-116445000D01*
X125062350Y-116445000D01*
X125555015Y-116347003D01*
X126081825Y-115995000D01*
X126273971Y-115995000D01*
X126396000Y-116019273D01*
X126518028Y-115995000D01*
X126518029Y-115995000D01*
X126879434Y-115923112D01*
X126937624Y-115884230D01*
X127241259Y-116187865D01*
X127862037Y-116445000D01*
X128533963Y-116445000D01*
X129154741Y-116187865D01*
X129629865Y-115712741D01*
X129887000Y-115091963D01*
X129887000Y-114420037D01*
X129629865Y-113799259D01*
X129214658Y-113384052D01*
X133365802Y-109232909D01*
X133480097Y-109807506D01*
X133842347Y-110349653D01*
X134009410Y-110461281D01*
X132488187Y-111982504D01*
X132384731Y-112051631D01*
X132190045Y-112343000D01*
X132110888Y-112461467D01*
X132014727Y-112944900D01*
X132039000Y-113066929D01*
X132039000Y-113570175D01*
X131686997Y-114096985D01*
X131555911Y-114756000D01*
X131686997Y-115415015D01*
X132060299Y-115973701D01*
X132618985Y-116347003D01*
X133111650Y-116445000D01*
X133444350Y-116445000D01*
X133937015Y-116347003D01*
X134495701Y-115973701D01*
X134869003Y-115415015D01*
X134919551Y-115160892D01*
X135148135Y-115712741D01*
X135623259Y-116187865D01*
X136244037Y-116445000D01*
X136915963Y-116445000D01*
X137536741Y-116187865D01*
X138011865Y-115712741D01*
X138269000Y-115091963D01*
X138269000Y-114420037D01*
X138011865Y-113799259D01*
X137536741Y-113324135D01*
X136915963Y-113067000D01*
X136244037Y-113067000D01*
X135623259Y-113324135D01*
X135148135Y-113799259D01*
X134919551Y-114351108D01*
X134869003Y-114096985D01*
X134517000Y-113570175D01*
X134517000Y-113458109D01*
X142111839Y-105863272D01*
X142224347Y-106031653D01*
X142766494Y-106393903D01*
X143244578Y-106489000D01*
X143567422Y-106489000D01*
X144045506Y-106393903D01*
X144587653Y-106031653D01*
X144949903Y-105489506D01*
X145077109Y-104850000D01*
X144949903Y-104210494D01*
X144781994Y-103959200D01*
X146037000Y-103959200D01*
X146037000Y-104150580D01*
X146263687Y-104697851D01*
X146682549Y-105116713D01*
X147229820Y-105343400D01*
X147254997Y-105343400D01*
X147308431Y-105423369D01*
X147670125Y-105665045D01*
X147718266Y-105697212D01*
X148201699Y-105793373D01*
X148323728Y-105769100D01*
X150394689Y-105769100D01*
X142726513Y-113437278D01*
X142319015Y-113164997D01*
X141826350Y-113067000D01*
X141493650Y-113067000D01*
X141000985Y-113164997D01*
X140442299Y-113538299D01*
X140068997Y-114096985D01*
X139937911Y-114756000D01*
X140068997Y-115415015D01*
X140442299Y-115973701D01*
X141000985Y-116347003D01*
X141493650Y-116445000D01*
X141826350Y-116445000D01*
X142319015Y-116347003D01*
X142845825Y-115995000D01*
X143037972Y-115995000D01*
X143160000Y-116019273D01*
X143282028Y-115995000D01*
X143282029Y-115995000D01*
X143643434Y-115923112D01*
X144053269Y-115649269D01*
X144122396Y-115545813D01*
X147030857Y-112637353D01*
X147177312Y-112990947D01*
X147468897Y-113310400D01*
X147196446Y-113492446D01*
X147180040Y-113517000D01*
X147018423Y-113517000D01*
X146896399Y-113492728D01*
X146774376Y-113517000D01*
X146774371Y-113517000D01*
X146412966Y-113588888D01*
X146003131Y-113862731D01*
X145934007Y-113966183D01*
X145623284Y-114276906D01*
X145519832Y-114346031D01*
X145450708Y-114449483D01*
X145245988Y-114755867D01*
X145149827Y-115239300D01*
X145174101Y-115361333D01*
X145174100Y-117994671D01*
X145149827Y-118116700D01*
X145213937Y-118439000D01*
X145245988Y-118600133D01*
X145519831Y-119009969D01*
X145623287Y-119079096D01*
X146659005Y-120114815D01*
X146728131Y-120218269D01*
X147137966Y-120492112D01*
X147499371Y-120564000D01*
X147499374Y-120564000D01*
X147621399Y-120588272D01*
X147743424Y-120564000D01*
X162826672Y-120564000D01*
X162948700Y-120588273D01*
X163070728Y-120564000D01*
X163070729Y-120564000D01*
X163432134Y-120492112D01*
X163841969Y-120218269D01*
X163911096Y-120114813D01*
X165705315Y-118320594D01*
X165808769Y-118251469D01*
X165881236Y-118143014D01*
X165874098Y-124086000D01*
X105264463Y-124086000D01*
X105883716Y-123830883D01*
X105894528Y-123823659D01*
X106200586Y-123380191D01*
X104000000Y-121179605D01*
X101799414Y-123380191D01*
X102105472Y-123823659D01*
X102735410Y-124086000D01*
X100914000Y-124086000D01*
X100914000Y-122264463D01*
X101169117Y-122883716D01*
X101176341Y-122894528D01*
X101619809Y-123200586D01*
X103820395Y-121000000D01*
X104179605Y-121000000D01*
X106380191Y-123200586D01*
X106823659Y-122894528D01*
X107333725Y-121669748D01*
X107336262Y-120343005D01*
X106830883Y-119116284D01*
X106823659Y-119105472D01*
X106380191Y-118799414D01*
X104179605Y-121000000D01*
X103820395Y-121000000D01*
X101619809Y-118799414D01*
X101176341Y-119105472D01*
X100914000Y-119735410D01*
X100914000Y-118619809D01*
X101799414Y-118619809D01*
X104000000Y-120820395D01*
X106200586Y-118619809D01*
X105894528Y-118176341D01*
X104909210Y-117766000D01*
X109656839Y-117766000D01*
X109656839Y-119366000D01*
X109728785Y-119727697D01*
X109933670Y-120034330D01*
X110240303Y-120239215D01*
X110602000Y-120311161D01*
X111129079Y-120311161D01*
X112752980Y-121935063D01*
X112832591Y-122054209D01*
X112951737Y-122133820D01*
X112951738Y-122133821D01*
X113183980Y-122289000D01*
X113304612Y-122369604D01*
X113720856Y-122452400D01*
X113720859Y-122452400D01*
X113861400Y-122480355D01*
X114001940Y-122452400D01*
X122899060Y-122452400D01*
X123039600Y-122480355D01*
X123180140Y-122452400D01*
X123180144Y-122452400D01*
X123596388Y-122369604D01*
X124068409Y-122054209D01*
X124148024Y-121935058D01*
X124986662Y-121096420D01*
X125105808Y-121016809D01*
X125421204Y-120544788D01*
X125504000Y-120128544D01*
X125504000Y-120128541D01*
X125531955Y-119988001D01*
X125526283Y-119959485D01*
X125625856Y-119859912D01*
X125904000Y-119188413D01*
X125904000Y-118461587D01*
X125681739Y-117925000D01*
X127230584Y-117925000D01*
X127230584Y-119725000D01*
X127299581Y-120071870D01*
X127496067Y-120365933D01*
X127790130Y-120562419D01*
X128137000Y-120631416D01*
X129937000Y-120631416D01*
X130283870Y-120562419D01*
X130556896Y-120379990D01*
X131213587Y-120652000D01*
X131940413Y-120652000D01*
X132611912Y-120373856D01*
X133125856Y-119859912D01*
X133404000Y-119188413D01*
X133404000Y-118461587D01*
X133181739Y-117925000D01*
X134730584Y-117925000D01*
X134730584Y-119725000D01*
X134799581Y-120071870D01*
X134996067Y-120365933D01*
X135290130Y-120562419D01*
X135637000Y-120631416D01*
X137437000Y-120631416D01*
X137783870Y-120562419D01*
X138056896Y-120379990D01*
X138713587Y-120652000D01*
X139440413Y-120652000D01*
X140111912Y-120373856D01*
X140625856Y-119859912D01*
X140904000Y-119188413D01*
X140904000Y-118461587D01*
X140625856Y-117790088D01*
X140111912Y-117276144D01*
X139440413Y-116998000D01*
X138713587Y-116998000D01*
X138056896Y-117270010D01*
X137783870Y-117087581D01*
X137437000Y-117018584D01*
X135637000Y-117018584D01*
X135290130Y-117087581D01*
X134996067Y-117284067D01*
X134799581Y-117578130D01*
X134730584Y-117925000D01*
X133181739Y-117925000D01*
X133125856Y-117790088D01*
X132611912Y-117276144D01*
X131940413Y-116998000D01*
X131213587Y-116998000D01*
X130556896Y-117270010D01*
X130283870Y-117087581D01*
X129937000Y-117018584D01*
X128137000Y-117018584D01*
X127790130Y-117087581D01*
X127496067Y-117284067D01*
X127299581Y-117578130D01*
X127230584Y-117925000D01*
X125681739Y-117925000D01*
X125625856Y-117790088D01*
X125111912Y-117276144D01*
X124440413Y-116998000D01*
X123713587Y-116998000D01*
X123056896Y-117270010D01*
X122783870Y-117087581D01*
X122437000Y-117018584D01*
X120637000Y-117018584D01*
X120290130Y-117087581D01*
X119996067Y-117284067D01*
X119799581Y-117578130D01*
X119730584Y-117925000D01*
X119730584Y-119598400D01*
X115935236Y-119598400D01*
X116024622Y-119509014D01*
X115909747Y-119394139D01*
X116155864Y-119320005D01*
X116348965Y-118782777D01*
X116321778Y-118212546D01*
X116155864Y-117811995D01*
X115909745Y-117737861D01*
X115081605Y-118566000D01*
X115095748Y-118580142D01*
X114916142Y-118759748D01*
X114902000Y-118745605D01*
X114887858Y-118759748D01*
X114708252Y-118580142D01*
X114722395Y-118566000D01*
X113894255Y-117737861D01*
X113648136Y-117811995D01*
X113455035Y-118349223D01*
X113467638Y-118613556D01*
X113147161Y-118293079D01*
X113147161Y-117766000D01*
X113105838Y-117558255D01*
X114073861Y-117558255D01*
X114902000Y-118386395D01*
X115730139Y-117558255D01*
X115656005Y-117312136D01*
X115118777Y-117119035D01*
X114548546Y-117146222D01*
X114147995Y-117312136D01*
X114073861Y-117558255D01*
X113105838Y-117558255D01*
X113075215Y-117404303D01*
X112870330Y-117097670D01*
X112563697Y-116892785D01*
X112202000Y-116820839D01*
X110602000Y-116820839D01*
X110240303Y-116892785D01*
X109933670Y-117097670D01*
X109728785Y-117404303D01*
X109656839Y-117766000D01*
X104909210Y-117766000D01*
X104669748Y-117666275D01*
X103343005Y-117663738D01*
X102116284Y-118169117D01*
X102105472Y-118176341D01*
X101799414Y-118619809D01*
X100914000Y-118619809D01*
X100914000Y-114420037D01*
X118127000Y-114420037D01*
X118127000Y-115091963D01*
X118384135Y-115712741D01*
X118859259Y-116187865D01*
X119480037Y-116445000D01*
X120151963Y-116445000D01*
X120772741Y-116187865D01*
X121247865Y-115712741D01*
X121505000Y-115091963D01*
X121505000Y-114420037D01*
X121247865Y-113799259D01*
X120772741Y-113324135D01*
X120151963Y-113067000D01*
X119480037Y-113067000D01*
X118859259Y-113324135D01*
X118384135Y-113799259D01*
X118127000Y-114420037D01*
X100914000Y-114420037D01*
X100914000Y-108986859D01*
X104723000Y-108986859D01*
X104723000Y-109813141D01*
X105039204Y-110576526D01*
X105623474Y-111160796D01*
X106386859Y-111477000D01*
X107213141Y-111477000D01*
X107976526Y-111160796D01*
X108310322Y-110827000D01*
X108349460Y-110827000D01*
X108490000Y-110854955D01*
X108630540Y-110827000D01*
X108630544Y-110827000D01*
X109046788Y-110744204D01*
X109171273Y-110661025D01*
X121118581Y-110661025D01*
X121235601Y-110943446D01*
X121899663Y-111195018D01*
X122609448Y-111173314D01*
X123164399Y-110943446D01*
X123281419Y-110661025D01*
X122200000Y-109579605D01*
X121118581Y-110661025D01*
X109171273Y-110661025D01*
X109518809Y-110428809D01*
X109598424Y-110309658D01*
X110591082Y-109317000D01*
X111207011Y-109317000D01*
X111731709Y-109099663D01*
X120404982Y-109099663D01*
X120426686Y-109809448D01*
X120656554Y-110364399D01*
X120938975Y-110481419D01*
X122020395Y-109400000D01*
X122379605Y-109400000D01*
X123461025Y-110481419D01*
X123743446Y-110364399D01*
X123995018Y-109700337D01*
X123973314Y-108990552D01*
X123743446Y-108435601D01*
X123461025Y-108318581D01*
X122379605Y-109400000D01*
X122020395Y-109400000D01*
X120938975Y-108318581D01*
X120656554Y-108435601D01*
X120404982Y-109099663D01*
X111731709Y-109099663D01*
X112014501Y-108982527D01*
X112529251Y-108467777D01*
X115151828Y-108467777D01*
X115283520Y-108762657D01*
X115991036Y-109034261D01*
X116748632Y-109014436D01*
X117356480Y-108762657D01*
X117488172Y-108467777D01*
X116320000Y-107299605D01*
X115151828Y-108467777D01*
X112529251Y-108467777D01*
X112632527Y-108364501D01*
X112967000Y-107557011D01*
X112967000Y-106791036D01*
X114405739Y-106791036D01*
X114425564Y-107548632D01*
X114677343Y-108156480D01*
X114972223Y-108288172D01*
X116140395Y-107120000D01*
X116499605Y-107120000D01*
X117667777Y-108288172D01*
X117962657Y-108156480D01*
X117969376Y-108138975D01*
X121118581Y-108138975D01*
X122200000Y-109220395D01*
X123281419Y-108138975D01*
X123164399Y-107856554D01*
X122500337Y-107604982D01*
X121790552Y-107626686D01*
X121235601Y-107856554D01*
X121118581Y-108138975D01*
X117969376Y-108138975D01*
X118234261Y-107448964D01*
X118214436Y-106691368D01*
X117962657Y-106083520D01*
X117667777Y-105951828D01*
X116499605Y-107120000D01*
X116140395Y-107120000D01*
X114972223Y-105951828D01*
X114677343Y-106083520D01*
X114405739Y-106791036D01*
X112967000Y-106791036D01*
X112967000Y-106682989D01*
X112632527Y-105875499D01*
X112529251Y-105772223D01*
X115151828Y-105772223D01*
X116320000Y-106940395D01*
X117488172Y-105772223D01*
X117356480Y-105477343D01*
X116648964Y-105205739D01*
X115891368Y-105225564D01*
X115283520Y-105477343D01*
X115151828Y-105772223D01*
X112529251Y-105772223D01*
X112014501Y-105257473D01*
X111207011Y-104923000D01*
X110332989Y-104923000D01*
X109525499Y-105257473D01*
X108907473Y-105875499D01*
X108573000Y-106682989D01*
X108573000Y-107298918D01*
X108104620Y-107767298D01*
X107976526Y-107639204D01*
X107213141Y-107323000D01*
X106386859Y-107323000D01*
X105623474Y-107639204D01*
X105039204Y-108223474D01*
X104723000Y-108986859D01*
X100914000Y-108986859D01*
X100914000Y-104506478D01*
X125677000Y-104506478D01*
X125677000Y-105193522D01*
X125939920Y-105828267D01*
X126425733Y-106314080D01*
X127060478Y-106577000D01*
X127747522Y-106577000D01*
X128382267Y-106314080D01*
X128868080Y-105828267D01*
X129131000Y-105193522D01*
X129131000Y-104633223D01*
X130957035Y-104633223D01*
X130984222Y-105203454D01*
X131150136Y-105604005D01*
X131396255Y-105678139D01*
X132224395Y-104850000D01*
X131396255Y-104021861D01*
X131150136Y-104095995D01*
X130957035Y-104633223D01*
X129131000Y-104633223D01*
X129131000Y-104506478D01*
X128868080Y-103871733D01*
X128382267Y-103385920D01*
X127747522Y-103123000D01*
X127060478Y-103123000D01*
X126425733Y-103385920D01*
X125939920Y-103871733D01*
X125677000Y-104506478D01*
X100914000Y-104506478D01*
X100914000Y-95622000D01*
X125358839Y-95622000D01*
X125358839Y-97822000D01*
X125430785Y-98183697D01*
X125635670Y-98490330D01*
X125942303Y-98695215D01*
X126304000Y-98767161D01*
X128504000Y-98767161D01*
X128865697Y-98695215D01*
X129172330Y-98490330D01*
X129377215Y-98183697D01*
X129449161Y-97822000D01*
X129449161Y-96722000D01*
X135536034Y-96722000D01*
X135690404Y-97498069D01*
X136130011Y-98155989D01*
X136787931Y-98595596D01*
X137368105Y-98711000D01*
X137759895Y-98711000D01*
X138340069Y-98595596D01*
X138997989Y-98155989D01*
X139437596Y-97498069D01*
X139591966Y-96722000D01*
X139437596Y-95945931D01*
X138997989Y-95288011D01*
X138340069Y-94848404D01*
X137759895Y-94733000D01*
X137368105Y-94733000D01*
X136787931Y-94848404D01*
X136130011Y-95288011D01*
X135690404Y-95945931D01*
X135536034Y-96722000D01*
X129449161Y-96722000D01*
X129449161Y-95622000D01*
X129377215Y-95260303D01*
X129172330Y-94953670D01*
X128865697Y-94748785D01*
X128504000Y-94676839D01*
X126304000Y-94676839D01*
X125942303Y-94748785D01*
X125635670Y-94953670D01*
X125430785Y-95260303D01*
X125358839Y-95622000D01*
X100914000Y-95622000D01*
X100914000Y-85277457D01*
X125285000Y-85277457D01*
X125285000Y-86322543D01*
X125684937Y-87288076D01*
X126423924Y-88027063D01*
X127389457Y-88427000D01*
X128434543Y-88427000D01*
X129400076Y-88027063D01*
X130139063Y-87288076D01*
X130539000Y-86322543D01*
X130539000Y-85277457D01*
X130139063Y-84311924D01*
X129400076Y-83572937D01*
X128434543Y-83173000D01*
X127389457Y-83173000D01*
X126423924Y-83572937D01*
X125684937Y-84311924D01*
X125285000Y-85277457D01*
X100914000Y-85277457D01*
X100914000Y-79523207D01*
X105283000Y-79523207D01*
X105283000Y-80476793D01*
X105647922Y-81357791D01*
X106322209Y-82032078D01*
X107203207Y-82397000D01*
X108156793Y-82397000D01*
X109037791Y-82032078D01*
X109712078Y-81357791D01*
X109840000Y-81048961D01*
X109967922Y-81357791D01*
X110642209Y-82032078D01*
X111523207Y-82397000D01*
X112476793Y-82397000D01*
X113357791Y-82032078D01*
X114032078Y-81357791D01*
X114397000Y-80476793D01*
X114397000Y-79523207D01*
X114118149Y-78850000D01*
X114850921Y-78850000D01*
X114850921Y-81150000D01*
X114938389Y-81589733D01*
X115187478Y-81962522D01*
X115560267Y-82211611D01*
X116000000Y-82299079D01*
X118000000Y-82299079D01*
X118439733Y-82211611D01*
X118812522Y-81962522D01*
X119061611Y-81589733D01*
X119149079Y-81150000D01*
X119149079Y-79424527D01*
X127723000Y-79424527D01*
X127723000Y-80275473D01*
X128048644Y-81061646D01*
X128650354Y-81663356D01*
X129436527Y-81989000D01*
X130287473Y-81989000D01*
X131073646Y-81663356D01*
X131675356Y-81061646D01*
X132001000Y-80275473D01*
X132001000Y-79424527D01*
X131675356Y-78638354D01*
X131073646Y-78036644D01*
X130287473Y-77711000D01*
X129436527Y-77711000D01*
X128650354Y-78036644D01*
X128048644Y-78638354D01*
X127723000Y-79424527D01*
X119149079Y-79424527D01*
X119149079Y-78850000D01*
X119061611Y-78410267D01*
X118812522Y-78037478D01*
X118439733Y-77788389D01*
X118000000Y-77700921D01*
X116000000Y-77700921D01*
X115560267Y-77788389D01*
X115187478Y-78037478D01*
X114938389Y-78410267D01*
X114850921Y-78850000D01*
X114118149Y-78850000D01*
X114032078Y-78642209D01*
X113357791Y-77967922D01*
X112476793Y-77603000D01*
X111523207Y-77603000D01*
X110642209Y-77967922D01*
X109967922Y-78642209D01*
X109840000Y-78951039D01*
X109712078Y-78642209D01*
X109037791Y-77967922D01*
X108156793Y-77603000D01*
X107203207Y-77603000D01*
X106322209Y-77967922D01*
X105647922Y-78642209D01*
X105283000Y-79523207D01*
X100914000Y-79523207D01*
X100914000Y-71380191D01*
X101799414Y-71380191D01*
X102105472Y-71823659D01*
X103330252Y-72333725D01*
X104656995Y-72336262D01*
X105883716Y-71830883D01*
X105894528Y-71823659D01*
X106006846Y-71660913D01*
X111434000Y-71660913D01*
X111434000Y-72507087D01*
X111757817Y-73288848D01*
X112356152Y-73887183D01*
X113137913Y-74211000D01*
X113984087Y-74211000D01*
X114765848Y-73887183D01*
X115364183Y-73288848D01*
X115688000Y-72507087D01*
X115688000Y-71670913D01*
X116514000Y-71670913D01*
X116514000Y-72517087D01*
X116837817Y-73298848D01*
X117436152Y-73897183D01*
X118217913Y-74221000D01*
X119064087Y-74221000D01*
X119845848Y-73897183D01*
X120444183Y-73298848D01*
X120768000Y-72517087D01*
X120768000Y-71673207D01*
X122053000Y-71673207D01*
X122053000Y-72626793D01*
X122417922Y-73507791D01*
X123092209Y-74182078D01*
X123973207Y-74547000D01*
X124926793Y-74547000D01*
X125807791Y-74182078D01*
X126482078Y-73507791D01*
X126847000Y-72626793D01*
X126847000Y-71673207D01*
X126518443Y-70880000D01*
X127030921Y-70880000D01*
X127030921Y-73420000D01*
X127118389Y-73859733D01*
X127367478Y-74232522D01*
X127740267Y-74481611D01*
X128180000Y-74569079D01*
X130720000Y-74569079D01*
X131159733Y-74481611D01*
X131532522Y-74232522D01*
X131781611Y-73859733D01*
X131869079Y-73420000D01*
X131869079Y-71673207D01*
X132053000Y-71673207D01*
X132053000Y-72626793D01*
X132417922Y-73507791D01*
X133092209Y-74182078D01*
X133973207Y-74547000D01*
X134926793Y-74547000D01*
X135807791Y-74182078D01*
X136482078Y-73507791D01*
X136847000Y-72626793D01*
X136847000Y-71673207D01*
X136518443Y-70880000D01*
X137273584Y-70880000D01*
X137273584Y-73420000D01*
X137342581Y-73766870D01*
X137539067Y-74060933D01*
X137833130Y-74257419D01*
X138180000Y-74326416D01*
X140720000Y-74326416D01*
X141066870Y-74257419D01*
X141360933Y-74060933D01*
X141557419Y-73766870D01*
X141626416Y-73420000D01*
X141626416Y-71648363D01*
X155011000Y-71648363D01*
X155011000Y-72439637D01*
X155313807Y-73170678D01*
X155873322Y-73730193D01*
X156604363Y-74033000D01*
X157395637Y-74033000D01*
X158126678Y-73730193D01*
X158686193Y-73170678D01*
X158989000Y-72439637D01*
X158989000Y-71648363D01*
X158709540Y-70973688D01*
X159034080Y-70839259D01*
X159114353Y-70587958D01*
X158250000Y-69723605D01*
X158235858Y-69737748D01*
X158056253Y-69558143D01*
X158070395Y-69544000D01*
X158429605Y-69544000D01*
X159293958Y-70408353D01*
X159545259Y-70328080D01*
X159746718Y-69772721D01*
X159720315Y-69182542D01*
X159545259Y-68759920D01*
X159293958Y-68679647D01*
X158429605Y-69544000D01*
X158070395Y-69544000D01*
X157206042Y-68679647D01*
X156954741Y-68759920D01*
X156753282Y-69315279D01*
X156779685Y-69905458D01*
X156841627Y-70055000D01*
X156604363Y-70055000D01*
X155873322Y-70357807D01*
X155313807Y-70917322D01*
X155011000Y-71648363D01*
X141626416Y-71648363D01*
X141626416Y-70880000D01*
X141557419Y-70533130D01*
X141360933Y-70239067D01*
X141066870Y-70042581D01*
X140720000Y-69973584D01*
X138180000Y-69973584D01*
X137833130Y-70042581D01*
X137539067Y-70239067D01*
X137342581Y-70533130D01*
X137273584Y-70880000D01*
X136518443Y-70880000D01*
X136482078Y-70792209D01*
X135807791Y-70117922D01*
X134926793Y-69753000D01*
X133973207Y-69753000D01*
X133092209Y-70117922D01*
X132417922Y-70792209D01*
X132053000Y-71673207D01*
X131869079Y-71673207D01*
X131869079Y-70880000D01*
X131781611Y-70440267D01*
X131532522Y-70067478D01*
X131159733Y-69818389D01*
X130720000Y-69730921D01*
X128180000Y-69730921D01*
X127740267Y-69818389D01*
X127367478Y-70067478D01*
X127118389Y-70440267D01*
X127030921Y-70880000D01*
X126518443Y-70880000D01*
X126482078Y-70792209D01*
X125807791Y-70117922D01*
X124926793Y-69753000D01*
X123973207Y-69753000D01*
X123092209Y-70117922D01*
X122417922Y-70792209D01*
X122053000Y-71673207D01*
X120768000Y-71673207D01*
X120768000Y-71670913D01*
X120444183Y-70889152D01*
X119845848Y-70290817D01*
X119064087Y-69967000D01*
X118217913Y-69967000D01*
X117436152Y-70290817D01*
X116837817Y-70889152D01*
X116514000Y-71670913D01*
X115688000Y-71670913D01*
X115688000Y-71660913D01*
X115364183Y-70879152D01*
X114765848Y-70280817D01*
X113984087Y-69957000D01*
X113137913Y-69957000D01*
X112356152Y-70280817D01*
X111757817Y-70879152D01*
X111434000Y-71660913D01*
X106006846Y-71660913D01*
X106200586Y-71380191D01*
X104000000Y-69179605D01*
X101799414Y-71380191D01*
X100914000Y-71380191D01*
X100914000Y-70264463D01*
X101169117Y-70883716D01*
X101176341Y-70894528D01*
X101619809Y-71200586D01*
X103820395Y-69000000D01*
X104179605Y-69000000D01*
X106380191Y-71200586D01*
X106823659Y-70894528D01*
X107333725Y-69669748D01*
X107336068Y-68444000D01*
X145664839Y-68444000D01*
X145664839Y-70644000D01*
X145736785Y-71005697D01*
X145941670Y-71312330D01*
X146248303Y-71517215D01*
X146610000Y-71589161D01*
X148310000Y-71589161D01*
X148671697Y-71517215D01*
X148978330Y-71312330D01*
X149028917Y-71236620D01*
X149321477Y-71432102D01*
X150000000Y-71567069D01*
X150678524Y-71432102D01*
X151253749Y-71047749D01*
X151440326Y-70768516D01*
X151564549Y-70927333D01*
X152072509Y-71214352D01*
X152183110Y-71235476D01*
X152413000Y-71114155D01*
X152413000Y-69671000D01*
X152667000Y-69671000D01*
X152667000Y-71114155D01*
X152896890Y-71235476D01*
X153007491Y-71214352D01*
X153515451Y-70927333D01*
X153874907Y-70467774D01*
X154031135Y-69905639D01*
X153871491Y-69671000D01*
X152667000Y-69671000D01*
X152413000Y-69671000D01*
X152393000Y-69671000D01*
X152393000Y-69417000D01*
X152413000Y-69417000D01*
X152413000Y-67973845D01*
X152667000Y-67973845D01*
X152667000Y-69417000D01*
X153871491Y-69417000D01*
X154031135Y-69182361D01*
X153874907Y-68620226D01*
X153780902Y-68500042D01*
X157385647Y-68500042D01*
X158250000Y-69364395D01*
X159114353Y-68500042D01*
X159034080Y-68248741D01*
X158478721Y-68047282D01*
X157888542Y-68073685D01*
X157465920Y-68248741D01*
X157385647Y-68500042D01*
X153780902Y-68500042D01*
X153515451Y-68160667D01*
X153007491Y-67873648D01*
X152896890Y-67852524D01*
X152667000Y-67973845D01*
X152413000Y-67973845D01*
X152183110Y-67852524D01*
X152072509Y-67873648D01*
X151564549Y-68160667D01*
X151440326Y-68319484D01*
X151253749Y-68040251D01*
X150678523Y-67655898D01*
X150000000Y-67520931D01*
X149321476Y-67655898D01*
X149028917Y-67851379D01*
X148978330Y-67775670D01*
X148671697Y-67570785D01*
X148310000Y-67498839D01*
X146610000Y-67498839D01*
X146248303Y-67570785D01*
X145941670Y-67775670D01*
X145736785Y-68082303D01*
X145664839Y-68444000D01*
X107336068Y-68444000D01*
X107336262Y-68343005D01*
X106830883Y-67116284D01*
X106823659Y-67105472D01*
X106380191Y-66799414D01*
X104179605Y-69000000D01*
X103820395Y-69000000D01*
X101619809Y-66799414D01*
X101176341Y-67105472D01*
X100914000Y-67735410D01*
X100914000Y-65914000D01*
X102735537Y-65914000D01*
X102116284Y-66169117D01*
X102116284Y-66169117D01*
G37*
X102116284Y-66169117D02*
X102105472Y-66176341D01*
X101799414Y-66619809D01*
X104000000Y-68820395D01*
X106200586Y-66619809D01*
X105894528Y-66176341D01*
X105264590Y-65914000D01*
X184735537Y-65914000D01*
X184116284Y-66169117D01*
X184105472Y-66176341D01*
X183799414Y-66619809D01*
X186000000Y-68820395D01*
X188200586Y-66619809D01*
X187894528Y-66176341D01*
X187264590Y-65914000D01*
X189086000Y-65914000D01*
X189086000Y-67735537D01*
X188830883Y-67116284D01*
X188823659Y-67105472D01*
X188380191Y-66799414D01*
X186179605Y-69000000D01*
X188380191Y-71200586D01*
X188823659Y-70894528D01*
X189086000Y-70264590D01*
X189086001Y-105739000D01*
X185489703Y-105739000D01*
X186018741Y-105519865D01*
X186493865Y-105044741D01*
X186751000Y-104423963D01*
X186751000Y-103752037D01*
X186493865Y-103131259D01*
X186018741Y-102656135D01*
X185397963Y-102399000D01*
X184726037Y-102399000D01*
X184105259Y-102656135D01*
X183630135Y-103131259D01*
X183373000Y-103752037D01*
X183373000Y-104024790D01*
X179468791Y-107929000D01*
X164567866Y-107929000D01*
X164437066Y-107798200D01*
X173856772Y-107798200D01*
X173978800Y-107822473D01*
X174100828Y-107798200D01*
X174100829Y-107798200D01*
X174462234Y-107726312D01*
X174872069Y-107452469D01*
X174941196Y-107349013D01*
X178661488Y-103628722D01*
X179068985Y-103901003D01*
X179561650Y-103999000D01*
X179894350Y-103999000D01*
X180387015Y-103901003D01*
X180945701Y-103527701D01*
X181319003Y-102969015D01*
X181450089Y-102310000D01*
X181319003Y-101650985D01*
X180945701Y-101092299D01*
X180867430Y-101040000D01*
X180945701Y-100987701D01*
X181319003Y-100429015D01*
X181385294Y-100095745D01*
X184233861Y-100095745D01*
X184307995Y-100341864D01*
X184845223Y-100534965D01*
X185415454Y-100507778D01*
X185816005Y-100341864D01*
X185890139Y-100095745D01*
X185062000Y-99267605D01*
X184233861Y-100095745D01*
X181385294Y-100095745D01*
X181450089Y-99770000D01*
X181319003Y-99110985D01*
X181158800Y-98871223D01*
X183615035Y-98871223D01*
X183642222Y-99441454D01*
X183808136Y-99842005D01*
X184054255Y-99916139D01*
X184882395Y-99088000D01*
X185241605Y-99088000D01*
X186069745Y-99916139D01*
X186315864Y-99842005D01*
X186508965Y-99304777D01*
X186481778Y-98734546D01*
X186315864Y-98333995D01*
X186069745Y-98259861D01*
X185241605Y-99088000D01*
X184882395Y-99088000D01*
X184054255Y-98259861D01*
X183808136Y-98333995D01*
X183615035Y-98871223D01*
X181158800Y-98871223D01*
X180945701Y-98552299D01*
X180867430Y-98500000D01*
X180945701Y-98447701D01*
X181191220Y-98080255D01*
X184233861Y-98080255D01*
X185062000Y-98908395D01*
X185890139Y-98080255D01*
X185816005Y-97834136D01*
X185278777Y-97641035D01*
X184708546Y-97668222D01*
X184307995Y-97834136D01*
X184233861Y-98080255D01*
X181191220Y-98080255D01*
X181319003Y-97889015D01*
X181450089Y-97230000D01*
X181319003Y-96570985D01*
X180945701Y-96012299D01*
X180867430Y-95960000D01*
X180945701Y-95907701D01*
X181319003Y-95349015D01*
X181450089Y-94690000D01*
X181319003Y-94030985D01*
X180945701Y-93472299D01*
X180867430Y-93420000D01*
X180945701Y-93367701D01*
X181319003Y-92809015D01*
X181450089Y-92150000D01*
X181319003Y-91490985D01*
X181015660Y-91037000D01*
X182641952Y-91037000D01*
X182494378Y-91461078D01*
X182523917Y-91971428D01*
X182662389Y-92305729D01*
X182892984Y-92361410D01*
X183612395Y-91642000D01*
X183598252Y-91627858D01*
X183777858Y-91448252D01*
X183792000Y-91462395D01*
X183806143Y-91448253D01*
X183895688Y-91537798D01*
X183771067Y-91621067D01*
X183574581Y-91915130D01*
X183543818Y-92069788D01*
X183072590Y-92541016D01*
X183128271Y-92771611D01*
X183505584Y-92902911D01*
X183505584Y-93562000D01*
X183574581Y-93908870D01*
X183771067Y-94202933D01*
X184065130Y-94399419D01*
X184412000Y-94468416D01*
X185712000Y-94468416D01*
X186058870Y-94399419D01*
X186352933Y-94202933D01*
X186549419Y-93908870D01*
X186618416Y-93562000D01*
X186618416Y-92262000D01*
X186549419Y-91915130D01*
X186352933Y-91621067D01*
X186167230Y-91496985D01*
X186398916Y-91265299D01*
X186639000Y-90685685D01*
X186639000Y-90058315D01*
X186416569Y-89521320D01*
X186406204Y-89469210D01*
X186090808Y-88997189D01*
X185971659Y-88917576D01*
X185754426Y-88700343D01*
X185674811Y-88581191D01*
X185202790Y-88265796D01*
X184786546Y-88183000D01*
X184786542Y-88183000D01*
X184646002Y-88155045D01*
X184505462Y-88183000D01*
X181015660Y-88183000D01*
X181319003Y-87729015D01*
X181450089Y-87070000D01*
X181319003Y-86410985D01*
X180945701Y-85852299D01*
X180623961Y-85637319D01*
X180786401Y-85458000D01*
X183055584Y-85458000D01*
X183055584Y-87158000D01*
X183124581Y-87504870D01*
X183321067Y-87798933D01*
X183615130Y-87995419D01*
X183962000Y-88064416D01*
X186162000Y-88064416D01*
X186508870Y-87995419D01*
X186802933Y-87798933D01*
X186999419Y-87504870D01*
X187068416Y-87158000D01*
X187068416Y-85458000D01*
X186999419Y-85111130D01*
X186802933Y-84817067D01*
X186513146Y-84623438D01*
X186732352Y-84235491D01*
X186753476Y-84124890D01*
X186632155Y-83895000D01*
X185189000Y-83895000D01*
X185189000Y-83915000D01*
X184935000Y-83915000D01*
X184935000Y-83895000D01*
X183491845Y-83895000D01*
X183370524Y-84124890D01*
X183391648Y-84235491D01*
X183610854Y-84623438D01*
X183321067Y-84817067D01*
X183124581Y-85111130D01*
X183055584Y-85458000D01*
X180786401Y-85458000D01*
X180959041Y-85267423D01*
X181119904Y-84879039D01*
X180997915Y-84657000D01*
X179855000Y-84657000D01*
X179855000Y-84677000D01*
X179601000Y-84677000D01*
X179601000Y-84657000D01*
X178458085Y-84657000D01*
X178336096Y-84879039D01*
X178496959Y-85267423D01*
X178832039Y-85637319D01*
X178510299Y-85852299D01*
X178136997Y-86410985D01*
X178005911Y-87070000D01*
X178136997Y-87729015D01*
X178440340Y-88183000D01*
X178218783Y-88183000D01*
X175635300Y-85599519D01*
X175635300Y-84670544D01*
X175663256Y-84530000D01*
X175552504Y-83973212D01*
X175237109Y-83501191D01*
X174765088Y-83185796D01*
X174348844Y-83103000D01*
X174208300Y-83075044D01*
X174067756Y-83103000D01*
X173395660Y-83103000D01*
X173699003Y-82649015D01*
X173830089Y-81990000D01*
X173699003Y-81330985D01*
X173325701Y-80772299D01*
X173247430Y-80720000D01*
X173325701Y-80667701D01*
X173699003Y-80109015D01*
X173830089Y-79450000D01*
X173699003Y-78790985D01*
X173325701Y-78232299D01*
X173247430Y-78180000D01*
X173325701Y-78127701D01*
X173699003Y-77569015D01*
X173830089Y-76910000D01*
X173699003Y-76250985D01*
X173325701Y-75692299D01*
X173247430Y-75640000D01*
X173325701Y-75587701D01*
X173699003Y-75029015D01*
X173830089Y-74370000D01*
X173699003Y-73710985D01*
X173325701Y-73152299D01*
X173247430Y-73100000D01*
X173325701Y-73047701D01*
X173699003Y-72489015D01*
X173830089Y-71830000D01*
X173699003Y-71170985D01*
X173449405Y-70797435D01*
X173548933Y-70730933D01*
X173745419Y-70436870D01*
X173814416Y-70090000D01*
X173814416Y-69290000D01*
X178005911Y-69290000D01*
X178136997Y-69949015D01*
X178510299Y-70507701D01*
X178588570Y-70560000D01*
X178510299Y-70612299D01*
X178136997Y-71170985D01*
X178005911Y-71830000D01*
X178136997Y-72489015D01*
X178510299Y-73047701D01*
X178588570Y-73100000D01*
X178510299Y-73152299D01*
X178136997Y-73710985D01*
X178005911Y-74370000D01*
X178136997Y-75029015D01*
X178510299Y-75587701D01*
X178588570Y-75640000D01*
X178510299Y-75692299D01*
X178136997Y-76250985D01*
X178005911Y-76910000D01*
X178136997Y-77569015D01*
X178510299Y-78127701D01*
X178588570Y-78180000D01*
X178510299Y-78232299D01*
X178136997Y-78790985D01*
X178005911Y-79450000D01*
X178136997Y-80109015D01*
X178510299Y-80667701D01*
X178588570Y-80720000D01*
X178510299Y-80772299D01*
X178136997Y-81330985D01*
X178005911Y-81990000D01*
X178136997Y-82649015D01*
X178510299Y-83207701D01*
X178832039Y-83422681D01*
X178496959Y-83792577D01*
X178336096Y-84180961D01*
X178458085Y-84403000D01*
X179601000Y-84403000D01*
X179601000Y-84383000D01*
X179855000Y-84383000D01*
X179855000Y-84403000D01*
X180997915Y-84403000D01*
X181119904Y-84180961D01*
X180959041Y-83792577D01*
X180623961Y-83422681D01*
X180945701Y-83207701D01*
X181319003Y-82649015D01*
X181450089Y-81990000D01*
X181319003Y-81330985D01*
X180945701Y-80772299D01*
X180867430Y-80720000D01*
X180945701Y-80667701D01*
X181319003Y-80109015D01*
X181450089Y-79450000D01*
X181319003Y-78790985D01*
X180945701Y-78232299D01*
X180867430Y-78180000D01*
X180945701Y-78127701D01*
X181319003Y-77569015D01*
X181450089Y-76910000D01*
X181319003Y-76250985D01*
X180945701Y-75692299D01*
X180867430Y-75640000D01*
X180945701Y-75587701D01*
X181319003Y-75029015D01*
X181450089Y-74370000D01*
X181319003Y-73710985D01*
X180945701Y-73152299D01*
X180867430Y-73100000D01*
X180945701Y-73047701D01*
X181319003Y-72489015D01*
X181450089Y-71830000D01*
X181319003Y-71170985D01*
X181242941Y-71057150D01*
X184602411Y-74416621D01*
X184133476Y-74509898D01*
X183558251Y-74894251D01*
X183173898Y-75469476D01*
X183038931Y-76148000D01*
X183173898Y-76826524D01*
X183558251Y-77401749D01*
X183582572Y-77418000D01*
X183558251Y-77434251D01*
X183173898Y-78009476D01*
X183038931Y-78688000D01*
X183173898Y-79366524D01*
X183558251Y-79941749D01*
X183582572Y-79958000D01*
X183558251Y-79974251D01*
X183173898Y-80549476D01*
X183038931Y-81228000D01*
X183173898Y-81906524D01*
X183558251Y-82481749D01*
X183837484Y-82668326D01*
X183678667Y-82792549D01*
X183391648Y-83300509D01*
X183370524Y-83411110D01*
X183491845Y-83641000D01*
X184935000Y-83641000D01*
X184935000Y-83621000D01*
X185189000Y-83621000D01*
X185189000Y-83641000D01*
X186632155Y-83641000D01*
X186753476Y-83411110D01*
X186732352Y-83300509D01*
X186445333Y-82792549D01*
X186286516Y-82668326D01*
X186565749Y-82481749D01*
X186950102Y-81906524D01*
X187085069Y-81228000D01*
X187040130Y-81002079D01*
X187619015Y-80423194D01*
X187722469Y-80354069D01*
X187996312Y-79944234D01*
X188068200Y-79582829D01*
X188068200Y-79582826D01*
X188092472Y-79460801D01*
X188068200Y-79338776D01*
X188068200Y-75013228D01*
X188092473Y-74891199D01*
X187996312Y-74407766D01*
X187722469Y-73997931D01*
X187619016Y-73928806D01*
X186025264Y-72335054D01*
X186656995Y-72336262D01*
X187883716Y-71830883D01*
X187894528Y-71823659D01*
X188200586Y-71380191D01*
X186000000Y-69179605D01*
X185985858Y-69193748D01*
X185806253Y-69014143D01*
X185820395Y-69000000D01*
X183619809Y-66799414D01*
X183176341Y-67105472D01*
X182666275Y-68330252D01*
X182665042Y-68974833D01*
X182190396Y-68500187D01*
X182121269Y-68396731D01*
X181711434Y-68122888D01*
X181350029Y-68051000D01*
X181350028Y-68051000D01*
X181228000Y-68026727D01*
X181105972Y-68051000D01*
X180913825Y-68051000D01*
X180387015Y-67698997D01*
X179894350Y-67601000D01*
X179561650Y-67601000D01*
X179068985Y-67698997D01*
X178510299Y-68072299D01*
X178136997Y-68630985D01*
X178005911Y-69290000D01*
X173814416Y-69290000D01*
X173814416Y-68490000D01*
X173745419Y-68143130D01*
X173548933Y-67849067D01*
X173254870Y-67652581D01*
X172908000Y-67583584D01*
X171308000Y-67583584D01*
X170961130Y-67652581D01*
X170667067Y-67849067D01*
X170532140Y-68051000D01*
X163689805Y-68051000D01*
X163095909Y-67805000D01*
X162404091Y-67805000D01*
X161764936Y-68069747D01*
X161275747Y-68558936D01*
X161011000Y-69198091D01*
X161011000Y-69889909D01*
X161275747Y-70529064D01*
X161764936Y-71018253D01*
X162197742Y-71197527D01*
X162011000Y-71648363D01*
X162011000Y-72439637D01*
X162313807Y-73170678D01*
X162573529Y-73430400D01*
X159283140Y-73430400D01*
X159142600Y-73402445D01*
X159002059Y-73430400D01*
X159002056Y-73430400D01*
X158612985Y-73507791D01*
X158585812Y-73513196D01*
X158232938Y-73748979D01*
X158232937Y-73748980D01*
X158113791Y-73828591D01*
X158034180Y-73947737D01*
X157000000Y-74981918D01*
X156748423Y-74730342D01*
X156668809Y-74611191D01*
X156196788Y-74295796D01*
X155780544Y-74213000D01*
X155780540Y-74213000D01*
X155640000Y-74185045D01*
X155499460Y-74213000D01*
X152495946Y-74213000D01*
X152468330Y-74171670D01*
X152161697Y-73966785D01*
X151800000Y-73894839D01*
X150200000Y-73894839D01*
X149838303Y-73966785D01*
X149531670Y-74171670D01*
X149504054Y-74213000D01*
X149040244Y-74213000D01*
X148899700Y-74185044D01*
X148759156Y-74213000D01*
X148342912Y-74295796D01*
X147870891Y-74611191D01*
X147555496Y-75083212D01*
X147444744Y-75640000D01*
X147472700Y-75780544D01*
X147472700Y-76385817D01*
X144501000Y-79357517D01*
X144501000Y-79324798D01*
X144137296Y-78446740D01*
X143465260Y-77774704D01*
X142587202Y-77411000D01*
X141636798Y-77411000D01*
X140758740Y-77774704D01*
X140086704Y-78446740D01*
X139723000Y-79324798D01*
X139723000Y-80275202D01*
X140086704Y-81153260D01*
X140758740Y-81825296D01*
X141636798Y-82189000D01*
X141669518Y-82189000D01*
X133435519Y-90423000D01*
X131513743Y-90423000D01*
X131095171Y-90004428D01*
X130295032Y-89673000D01*
X129428968Y-89673000D01*
X128628829Y-90004428D01*
X128016428Y-90616829D01*
X127685000Y-91416968D01*
X127685000Y-92283032D01*
X128016428Y-93083171D01*
X128628829Y-93695572D01*
X129428968Y-94027000D01*
X130295032Y-94027000D01*
X131095171Y-93695572D01*
X131513743Y-93277000D01*
X133886060Y-93277000D01*
X134026600Y-93304955D01*
X134167140Y-93277000D01*
X134167144Y-93277000D01*
X134583388Y-93194204D01*
X135055409Y-92878809D01*
X135135024Y-92759657D01*
X136519883Y-91374798D01*
X139673000Y-91374798D01*
X139673000Y-92325202D01*
X140036704Y-93203260D01*
X140708740Y-93875296D01*
X141586798Y-94239000D01*
X142537202Y-94239000D01*
X143415260Y-93875296D01*
X144087296Y-93203260D01*
X144451000Y-92325202D01*
X144451000Y-91374798D01*
X144087296Y-90496740D01*
X143415260Y-89824704D01*
X142537202Y-89461000D01*
X141586798Y-89461000D01*
X140708740Y-89824704D01*
X140036704Y-90496740D01*
X139673000Y-91374798D01*
X136519883Y-91374798D01*
X148746936Y-79147745D01*
X150171861Y-79147745D01*
X150245995Y-79393864D01*
X150783223Y-79586965D01*
X151353454Y-79559778D01*
X151754005Y-79393864D01*
X151828139Y-79147745D01*
X151000000Y-78319605D01*
X150171861Y-79147745D01*
X148746936Y-79147745D01*
X149572076Y-78322606D01*
X149580222Y-78493454D01*
X149746136Y-78894005D01*
X149992255Y-78968139D01*
X150820395Y-78140000D01*
X150806252Y-78125858D01*
X150985858Y-77946252D01*
X151000000Y-77960395D01*
X151014142Y-77946252D01*
X151193748Y-78125858D01*
X151179605Y-78140000D01*
X152007745Y-78968139D01*
X152253864Y-78894005D01*
X152446965Y-78356777D01*
X152419778Y-77786546D01*
X152253864Y-77385995D01*
X152071683Y-77331120D01*
X152161697Y-77313215D01*
X152468330Y-77108330D01*
X152495946Y-77067000D01*
X155048918Y-77067000D01*
X155273000Y-77291082D01*
X155273000Y-77343522D01*
X155535920Y-77978267D01*
X156021733Y-78464080D01*
X156656478Y-78727000D01*
X157343522Y-78727000D01*
X157978267Y-78464080D01*
X158434602Y-78007745D01*
X161171861Y-78007745D01*
X161245995Y-78253864D01*
X161783223Y-78446965D01*
X162353454Y-78419778D01*
X162754005Y-78253864D01*
X162828139Y-78007745D01*
X162000000Y-77179605D01*
X161171861Y-78007745D01*
X158434602Y-78007745D01*
X158464080Y-77978267D01*
X158727000Y-77343522D01*
X158727000Y-77291082D01*
X159733683Y-76284400D01*
X160732332Y-76284400D01*
X160553035Y-76783223D01*
X160580222Y-77353454D01*
X160746136Y-77754005D01*
X160992255Y-77828139D01*
X161820395Y-77000000D01*
X161806252Y-76985858D01*
X161985858Y-76806252D01*
X162000000Y-76820395D01*
X162014143Y-76806253D01*
X162193748Y-76985858D01*
X162179605Y-77000000D01*
X163007745Y-77828139D01*
X163253864Y-77754005D01*
X163391845Y-77370127D01*
X166391679Y-80369962D01*
X166273000Y-80656478D01*
X166273000Y-81343522D01*
X166535920Y-81978267D01*
X167021733Y-82464080D01*
X167656478Y-82727000D01*
X168343522Y-82727000D01*
X168978267Y-82464080D01*
X169362582Y-82079765D01*
X169369000Y-82112029D01*
X169369000Y-82374390D01*
X165726227Y-86017163D01*
X165508751Y-85799687D01*
X164961480Y-85573000D01*
X164369120Y-85573000D01*
X163821849Y-85799687D01*
X163536536Y-86085000D01*
X162828896Y-86085000D01*
X162865477Y-86048419D01*
X163115000Y-85446017D01*
X163115000Y-84793983D01*
X162865477Y-84191581D01*
X162404419Y-83730523D01*
X161802017Y-83481000D01*
X161589210Y-83481000D01*
X160303109Y-82194900D01*
X160684036Y-82194900D01*
X160707349Y-82218213D01*
X161254620Y-82444900D01*
X161846980Y-82444900D01*
X162394251Y-82218213D01*
X162813113Y-81799351D01*
X163039800Y-81252080D01*
X163039800Y-80659720D01*
X162813113Y-80112449D01*
X162394251Y-79693587D01*
X161846980Y-79466900D01*
X161254620Y-79466900D01*
X160707349Y-79693587D01*
X160684036Y-79716900D01*
X152690224Y-79716900D01*
X152568199Y-79692628D01*
X152446174Y-79716900D01*
X152446171Y-79716900D01*
X152084766Y-79788788D01*
X151674931Y-80062631D01*
X151605806Y-80166084D01*
X146763087Y-85008804D01*
X146659631Y-85077931D01*
X146405678Y-85458000D01*
X146385788Y-85487767D01*
X146289627Y-85971200D01*
X146313900Y-86093228D01*
X146313901Y-95967335D01*
X146290587Y-95990649D01*
X146063900Y-96537920D01*
X146063900Y-97120129D01*
X145854552Y-97130770D01*
X145476077Y-97287540D01*
X145408088Y-97528483D01*
X146200000Y-98320395D01*
X146214143Y-98306253D01*
X146393748Y-98485858D01*
X146379605Y-98500000D01*
X146393748Y-98514143D01*
X146214143Y-98693748D01*
X146200000Y-98679605D01*
X146185858Y-98693748D01*
X146006253Y-98514143D01*
X146020395Y-98500000D01*
X145228483Y-97708088D01*
X145118836Y-97739028D01*
X145049477Y-97571581D01*
X144588419Y-97110523D01*
X143986017Y-96861000D01*
X143333983Y-96861000D01*
X142731581Y-97110523D01*
X142599895Y-97242209D01*
X142510933Y-97109067D01*
X142216870Y-96912581D01*
X141870000Y-96843584D01*
X140370000Y-96843584D01*
X140023130Y-96912581D01*
X139729067Y-97109067D01*
X139532581Y-97403130D01*
X139463584Y-97750000D01*
X139463584Y-99250000D01*
X139532581Y-99596870D01*
X139729067Y-99890933D01*
X140023130Y-100087419D01*
X140370000Y-100156416D01*
X141178674Y-100156416D01*
X137408018Y-103927072D01*
X137373419Y-103753130D01*
X137176933Y-103459067D01*
X136882870Y-103262581D01*
X136536000Y-103193584D01*
X135036000Y-103193584D01*
X134689130Y-103262581D01*
X134684910Y-103265400D01*
X131951510Y-100532000D01*
X135841911Y-100532000D01*
X135972997Y-101191015D01*
X136346299Y-101749701D01*
X136904985Y-102123003D01*
X137397650Y-102221000D01*
X137730350Y-102221000D01*
X138223015Y-102123003D01*
X138781701Y-101749701D01*
X139155003Y-101191015D01*
X139286089Y-100532000D01*
X139155003Y-99872985D01*
X138781701Y-99314299D01*
X138223015Y-98940997D01*
X137730350Y-98843000D01*
X137397650Y-98843000D01*
X136904985Y-98940997D01*
X136346299Y-99314299D01*
X135972997Y-99872985D01*
X135841911Y-100532000D01*
X131951510Y-100532000D01*
X131161696Y-99742187D01*
X131092569Y-99638731D01*
X130682734Y-99364888D01*
X130321329Y-99293000D01*
X130321328Y-99293000D01*
X130199300Y-99268727D01*
X130077272Y-99293000D01*
X128553606Y-99293000D01*
X128360741Y-99100135D01*
X127739963Y-98843000D01*
X127068037Y-98843000D01*
X126447259Y-99100135D01*
X125972135Y-99575259D01*
X125715000Y-100196037D01*
X125715000Y-100867963D01*
X125972135Y-101488741D01*
X126447259Y-101963865D01*
X127068037Y-102221000D01*
X127739963Y-102221000D01*
X128360741Y-101963865D01*
X128553606Y-101771000D01*
X129686091Y-101771000D01*
X131617872Y-103702782D01*
X131575861Y-103842255D01*
X132404000Y-104670395D01*
X132418143Y-104656253D01*
X132597748Y-104835858D01*
X132583605Y-104850000D01*
X133373976Y-105640370D01*
X133442731Y-105743269D01*
X133852566Y-106017112D01*
X133935457Y-106033600D01*
X133695928Y-106033600D01*
X133573900Y-106009327D01*
X133451871Y-106033600D01*
X133173357Y-106089000D01*
X133161789Y-106091301D01*
X133232139Y-105857745D01*
X132404000Y-105029605D01*
X131575861Y-105857745D01*
X131649995Y-106103864D01*
X132187223Y-106296965D01*
X132757454Y-106269778D01*
X132986704Y-106174819D01*
X132844589Y-106269778D01*
X132680631Y-106379331D01*
X132611508Y-106482781D01*
X129080010Y-110014280D01*
X129099161Y-109918000D01*
X129099161Y-108418000D01*
X129027215Y-108056303D01*
X128822330Y-107749670D01*
X128515697Y-107544785D01*
X128154000Y-107472839D01*
X126654000Y-107472839D01*
X126292303Y-107544785D01*
X125985670Y-107749670D01*
X125780785Y-108056303D01*
X125708839Y-108418000D01*
X125708839Y-109918000D01*
X125780785Y-110279697D01*
X125985670Y-110586330D01*
X126292303Y-110791215D01*
X126654000Y-110863161D01*
X128154000Y-110863161D01*
X128250281Y-110844010D01*
X125779379Y-113314912D01*
X125555015Y-113164997D01*
X125062350Y-113067000D01*
X124729650Y-113067000D01*
X124236985Y-113164997D01*
X123678299Y-113538299D01*
X123304997Y-114096985D01*
X123173911Y-114756000D01*
X123304997Y-115415015D01*
X123678299Y-115973701D01*
X124236985Y-116347003D01*
X124729650Y-116445000D01*
X125062350Y-116445000D01*
X125555015Y-116347003D01*
X126081825Y-115995000D01*
X126273971Y-115995000D01*
X126396000Y-116019273D01*
X126518028Y-115995000D01*
X126518029Y-115995000D01*
X126879434Y-115923112D01*
X126937624Y-115884230D01*
X127241259Y-116187865D01*
X127862037Y-116445000D01*
X128533963Y-116445000D01*
X129154741Y-116187865D01*
X129629865Y-115712741D01*
X129887000Y-115091963D01*
X129887000Y-114420037D01*
X129629865Y-113799259D01*
X129214658Y-113384052D01*
X133365802Y-109232909D01*
X133480097Y-109807506D01*
X133842347Y-110349653D01*
X134009410Y-110461281D01*
X132488187Y-111982504D01*
X132384731Y-112051631D01*
X132190045Y-112343000D01*
X132110888Y-112461467D01*
X132014727Y-112944900D01*
X132039000Y-113066929D01*
X132039000Y-113570175D01*
X131686997Y-114096985D01*
X131555911Y-114756000D01*
X131686997Y-115415015D01*
X132060299Y-115973701D01*
X132618985Y-116347003D01*
X133111650Y-116445000D01*
X133444350Y-116445000D01*
X133937015Y-116347003D01*
X134495701Y-115973701D01*
X134869003Y-115415015D01*
X134919551Y-115160892D01*
X135148135Y-115712741D01*
X135623259Y-116187865D01*
X136244037Y-116445000D01*
X136915963Y-116445000D01*
X137536741Y-116187865D01*
X138011865Y-115712741D01*
X138269000Y-115091963D01*
X138269000Y-114420037D01*
X138011865Y-113799259D01*
X137536741Y-113324135D01*
X136915963Y-113067000D01*
X136244037Y-113067000D01*
X135623259Y-113324135D01*
X135148135Y-113799259D01*
X134919551Y-114351108D01*
X134869003Y-114096985D01*
X134517000Y-113570175D01*
X134517000Y-113458109D01*
X142111839Y-105863272D01*
X142224347Y-106031653D01*
X142766494Y-106393903D01*
X143244578Y-106489000D01*
X143567422Y-106489000D01*
X144045506Y-106393903D01*
X144587653Y-106031653D01*
X144949903Y-105489506D01*
X145077109Y-104850000D01*
X144949903Y-104210494D01*
X144781994Y-103959200D01*
X146037000Y-103959200D01*
X146037000Y-104150580D01*
X146263687Y-104697851D01*
X146682549Y-105116713D01*
X147229820Y-105343400D01*
X147254997Y-105343400D01*
X147308431Y-105423369D01*
X147670125Y-105665045D01*
X147718266Y-105697212D01*
X148201699Y-105793373D01*
X148323728Y-105769100D01*
X150394689Y-105769100D01*
X142726513Y-113437278D01*
X142319015Y-113164997D01*
X141826350Y-113067000D01*
X141493650Y-113067000D01*
X141000985Y-113164997D01*
X140442299Y-113538299D01*
X140068997Y-114096985D01*
X139937911Y-114756000D01*
X140068997Y-115415015D01*
X140442299Y-115973701D01*
X141000985Y-116347003D01*
X141493650Y-116445000D01*
X141826350Y-116445000D01*
X142319015Y-116347003D01*
X142845825Y-115995000D01*
X143037972Y-115995000D01*
X143160000Y-116019273D01*
X143282028Y-115995000D01*
X143282029Y-115995000D01*
X143643434Y-115923112D01*
X144053269Y-115649269D01*
X144122396Y-115545813D01*
X147030857Y-112637353D01*
X147177312Y-112990947D01*
X147468897Y-113310400D01*
X147196446Y-113492446D01*
X147180040Y-113517000D01*
X147018423Y-113517000D01*
X146896399Y-113492728D01*
X146774376Y-113517000D01*
X146774371Y-113517000D01*
X146412966Y-113588888D01*
X146003131Y-113862731D01*
X145934007Y-113966183D01*
X145623284Y-114276906D01*
X145519832Y-114346031D01*
X145450708Y-114449483D01*
X145245988Y-114755867D01*
X145149827Y-115239300D01*
X145174101Y-115361333D01*
X145174100Y-117994671D01*
X145149827Y-118116700D01*
X145213937Y-118439000D01*
X145245988Y-118600133D01*
X145519831Y-119009969D01*
X145623287Y-119079096D01*
X146659005Y-120114815D01*
X146728131Y-120218269D01*
X147137966Y-120492112D01*
X147499371Y-120564000D01*
X147499374Y-120564000D01*
X147621399Y-120588272D01*
X147743424Y-120564000D01*
X162826672Y-120564000D01*
X162948700Y-120588273D01*
X163070728Y-120564000D01*
X163070729Y-120564000D01*
X163432134Y-120492112D01*
X163841969Y-120218269D01*
X163911096Y-120114813D01*
X165705315Y-118320594D01*
X165808769Y-118251469D01*
X165881236Y-118143014D01*
X165874098Y-124086000D01*
X105264463Y-124086000D01*
X105883716Y-123830883D01*
X105894528Y-123823659D01*
X106200586Y-123380191D01*
X104000000Y-121179605D01*
X101799414Y-123380191D01*
X102105472Y-123823659D01*
X102735410Y-124086000D01*
X100914000Y-124086000D01*
X100914000Y-122264463D01*
X101169117Y-122883716D01*
X101176341Y-122894528D01*
X101619809Y-123200586D01*
X103820395Y-121000000D01*
X104179605Y-121000000D01*
X106380191Y-123200586D01*
X106823659Y-122894528D01*
X107333725Y-121669748D01*
X107336262Y-120343005D01*
X106830883Y-119116284D01*
X106823659Y-119105472D01*
X106380191Y-118799414D01*
X104179605Y-121000000D01*
X103820395Y-121000000D01*
X101619809Y-118799414D01*
X101176341Y-119105472D01*
X100914000Y-119735410D01*
X100914000Y-118619809D01*
X101799414Y-118619809D01*
X104000000Y-120820395D01*
X106200586Y-118619809D01*
X105894528Y-118176341D01*
X104909210Y-117766000D01*
X109656839Y-117766000D01*
X109656839Y-119366000D01*
X109728785Y-119727697D01*
X109933670Y-120034330D01*
X110240303Y-120239215D01*
X110602000Y-120311161D01*
X111129079Y-120311161D01*
X112752980Y-121935063D01*
X112832591Y-122054209D01*
X112951737Y-122133820D01*
X112951738Y-122133821D01*
X113183980Y-122289000D01*
X113304612Y-122369604D01*
X113720856Y-122452400D01*
X113720859Y-122452400D01*
X113861400Y-122480355D01*
X114001940Y-122452400D01*
X122899060Y-122452400D01*
X123039600Y-122480355D01*
X123180140Y-122452400D01*
X123180144Y-122452400D01*
X123596388Y-122369604D01*
X124068409Y-122054209D01*
X124148024Y-121935058D01*
X124986662Y-121096420D01*
X125105808Y-121016809D01*
X125421204Y-120544788D01*
X125504000Y-120128544D01*
X125504000Y-120128541D01*
X125531955Y-119988001D01*
X125526283Y-119959485D01*
X125625856Y-119859912D01*
X125904000Y-119188413D01*
X125904000Y-118461587D01*
X125681739Y-117925000D01*
X127230584Y-117925000D01*
X127230584Y-119725000D01*
X127299581Y-120071870D01*
X127496067Y-120365933D01*
X127790130Y-120562419D01*
X128137000Y-120631416D01*
X129937000Y-120631416D01*
X130283870Y-120562419D01*
X130556896Y-120379990D01*
X131213587Y-120652000D01*
X131940413Y-120652000D01*
X132611912Y-120373856D01*
X133125856Y-119859912D01*
X133404000Y-119188413D01*
X133404000Y-118461587D01*
X133181739Y-117925000D01*
X134730584Y-117925000D01*
X134730584Y-119725000D01*
X134799581Y-120071870D01*
X134996067Y-120365933D01*
X135290130Y-120562419D01*
X135637000Y-120631416D01*
X137437000Y-120631416D01*
X137783870Y-120562419D01*
X138056896Y-120379990D01*
X138713587Y-120652000D01*
X139440413Y-120652000D01*
X140111912Y-120373856D01*
X140625856Y-119859912D01*
X140904000Y-119188413D01*
X140904000Y-118461587D01*
X140625856Y-117790088D01*
X140111912Y-117276144D01*
X139440413Y-116998000D01*
X138713587Y-116998000D01*
X138056896Y-117270010D01*
X137783870Y-117087581D01*
X137437000Y-117018584D01*
X135637000Y-117018584D01*
X135290130Y-117087581D01*
X134996067Y-117284067D01*
X134799581Y-117578130D01*
X134730584Y-117925000D01*
X133181739Y-117925000D01*
X133125856Y-117790088D01*
X132611912Y-117276144D01*
X131940413Y-116998000D01*
X131213587Y-116998000D01*
X130556896Y-117270010D01*
X130283870Y-117087581D01*
X129937000Y-117018584D01*
X128137000Y-117018584D01*
X127790130Y-117087581D01*
X127496067Y-117284067D01*
X127299581Y-117578130D01*
X127230584Y-117925000D01*
X125681739Y-117925000D01*
X125625856Y-117790088D01*
X125111912Y-117276144D01*
X124440413Y-116998000D01*
X123713587Y-116998000D01*
X123056896Y-117270010D01*
X122783870Y-117087581D01*
X122437000Y-117018584D01*
X120637000Y-117018584D01*
X120290130Y-117087581D01*
X119996067Y-117284067D01*
X119799581Y-117578130D01*
X119730584Y-117925000D01*
X119730584Y-119598400D01*
X115935236Y-119598400D01*
X116024622Y-119509014D01*
X115909747Y-119394139D01*
X116155864Y-119320005D01*
X116348965Y-118782777D01*
X116321778Y-118212546D01*
X116155864Y-117811995D01*
X115909745Y-117737861D01*
X115081605Y-118566000D01*
X115095748Y-118580142D01*
X114916142Y-118759748D01*
X114902000Y-118745605D01*
X114887858Y-118759748D01*
X114708252Y-118580142D01*
X114722395Y-118566000D01*
X113894255Y-117737861D01*
X113648136Y-117811995D01*
X113455035Y-118349223D01*
X113467638Y-118613556D01*
X113147161Y-118293079D01*
X113147161Y-117766000D01*
X113105838Y-117558255D01*
X114073861Y-117558255D01*
X114902000Y-118386395D01*
X115730139Y-117558255D01*
X115656005Y-117312136D01*
X115118777Y-117119035D01*
X114548546Y-117146222D01*
X114147995Y-117312136D01*
X114073861Y-117558255D01*
X113105838Y-117558255D01*
X113075215Y-117404303D01*
X112870330Y-117097670D01*
X112563697Y-116892785D01*
X112202000Y-116820839D01*
X110602000Y-116820839D01*
X110240303Y-116892785D01*
X109933670Y-117097670D01*
X109728785Y-117404303D01*
X109656839Y-117766000D01*
X104909210Y-117766000D01*
X104669748Y-117666275D01*
X103343005Y-117663738D01*
X102116284Y-118169117D01*
X102105472Y-118176341D01*
X101799414Y-118619809D01*
X100914000Y-118619809D01*
X100914000Y-114420037D01*
X118127000Y-114420037D01*
X118127000Y-115091963D01*
X118384135Y-115712741D01*
X118859259Y-116187865D01*
X119480037Y-116445000D01*
X120151963Y-116445000D01*
X120772741Y-116187865D01*
X121247865Y-115712741D01*
X121505000Y-115091963D01*
X121505000Y-114420037D01*
X121247865Y-113799259D01*
X120772741Y-113324135D01*
X120151963Y-113067000D01*
X119480037Y-113067000D01*
X118859259Y-113324135D01*
X118384135Y-113799259D01*
X118127000Y-114420037D01*
X100914000Y-114420037D01*
X100914000Y-108986859D01*
X104723000Y-108986859D01*
X104723000Y-109813141D01*
X105039204Y-110576526D01*
X105623474Y-111160796D01*
X106386859Y-111477000D01*
X107213141Y-111477000D01*
X107976526Y-111160796D01*
X108310322Y-110827000D01*
X108349460Y-110827000D01*
X108490000Y-110854955D01*
X108630540Y-110827000D01*
X108630544Y-110827000D01*
X109046788Y-110744204D01*
X109171273Y-110661025D01*
X121118581Y-110661025D01*
X121235601Y-110943446D01*
X121899663Y-111195018D01*
X122609448Y-111173314D01*
X123164399Y-110943446D01*
X123281419Y-110661025D01*
X122200000Y-109579605D01*
X121118581Y-110661025D01*
X109171273Y-110661025D01*
X109518809Y-110428809D01*
X109598424Y-110309658D01*
X110591082Y-109317000D01*
X111207011Y-109317000D01*
X111731709Y-109099663D01*
X120404982Y-109099663D01*
X120426686Y-109809448D01*
X120656554Y-110364399D01*
X120938975Y-110481419D01*
X122020395Y-109400000D01*
X122379605Y-109400000D01*
X123461025Y-110481419D01*
X123743446Y-110364399D01*
X123995018Y-109700337D01*
X123973314Y-108990552D01*
X123743446Y-108435601D01*
X123461025Y-108318581D01*
X122379605Y-109400000D01*
X122020395Y-109400000D01*
X120938975Y-108318581D01*
X120656554Y-108435601D01*
X120404982Y-109099663D01*
X111731709Y-109099663D01*
X112014501Y-108982527D01*
X112529251Y-108467777D01*
X115151828Y-108467777D01*
X115283520Y-108762657D01*
X115991036Y-109034261D01*
X116748632Y-109014436D01*
X117356480Y-108762657D01*
X117488172Y-108467777D01*
X116320000Y-107299605D01*
X115151828Y-108467777D01*
X112529251Y-108467777D01*
X112632527Y-108364501D01*
X112967000Y-107557011D01*
X112967000Y-106791036D01*
X114405739Y-106791036D01*
X114425564Y-107548632D01*
X114677343Y-108156480D01*
X114972223Y-108288172D01*
X116140395Y-107120000D01*
X116499605Y-107120000D01*
X117667777Y-108288172D01*
X117962657Y-108156480D01*
X117969376Y-108138975D01*
X121118581Y-108138975D01*
X122200000Y-109220395D01*
X123281419Y-108138975D01*
X123164399Y-107856554D01*
X122500337Y-107604982D01*
X121790552Y-107626686D01*
X121235601Y-107856554D01*
X121118581Y-108138975D01*
X117969376Y-108138975D01*
X118234261Y-107448964D01*
X118214436Y-106691368D01*
X117962657Y-106083520D01*
X117667777Y-105951828D01*
X116499605Y-107120000D01*
X116140395Y-107120000D01*
X114972223Y-105951828D01*
X114677343Y-106083520D01*
X114405739Y-106791036D01*
X112967000Y-106791036D01*
X112967000Y-106682989D01*
X112632527Y-105875499D01*
X112529251Y-105772223D01*
X115151828Y-105772223D01*
X116320000Y-106940395D01*
X117488172Y-105772223D01*
X117356480Y-105477343D01*
X116648964Y-105205739D01*
X115891368Y-105225564D01*
X115283520Y-105477343D01*
X115151828Y-105772223D01*
X112529251Y-105772223D01*
X112014501Y-105257473D01*
X111207011Y-104923000D01*
X110332989Y-104923000D01*
X109525499Y-105257473D01*
X108907473Y-105875499D01*
X108573000Y-106682989D01*
X108573000Y-107298918D01*
X108104620Y-107767298D01*
X107976526Y-107639204D01*
X107213141Y-107323000D01*
X106386859Y-107323000D01*
X105623474Y-107639204D01*
X105039204Y-108223474D01*
X104723000Y-108986859D01*
X100914000Y-108986859D01*
X100914000Y-104506478D01*
X125677000Y-104506478D01*
X125677000Y-105193522D01*
X125939920Y-105828267D01*
X126425733Y-106314080D01*
X127060478Y-106577000D01*
X127747522Y-106577000D01*
X128382267Y-106314080D01*
X128868080Y-105828267D01*
X129131000Y-105193522D01*
X129131000Y-104633223D01*
X130957035Y-104633223D01*
X130984222Y-105203454D01*
X131150136Y-105604005D01*
X131396255Y-105678139D01*
X132224395Y-104850000D01*
X131396255Y-104021861D01*
X131150136Y-104095995D01*
X130957035Y-104633223D01*
X129131000Y-104633223D01*
X129131000Y-104506478D01*
X128868080Y-103871733D01*
X128382267Y-103385920D01*
X127747522Y-103123000D01*
X127060478Y-103123000D01*
X126425733Y-103385920D01*
X125939920Y-103871733D01*
X125677000Y-104506478D01*
X100914000Y-104506478D01*
X100914000Y-95622000D01*
X125358839Y-95622000D01*
X125358839Y-97822000D01*
X125430785Y-98183697D01*
X125635670Y-98490330D01*
X125942303Y-98695215D01*
X126304000Y-98767161D01*
X128504000Y-98767161D01*
X128865697Y-98695215D01*
X129172330Y-98490330D01*
X129377215Y-98183697D01*
X129449161Y-97822000D01*
X129449161Y-96722000D01*
X135536034Y-96722000D01*
X135690404Y-97498069D01*
X136130011Y-98155989D01*
X136787931Y-98595596D01*
X137368105Y-98711000D01*
X137759895Y-98711000D01*
X138340069Y-98595596D01*
X138997989Y-98155989D01*
X139437596Y-97498069D01*
X139591966Y-96722000D01*
X139437596Y-95945931D01*
X138997989Y-95288011D01*
X138340069Y-94848404D01*
X137759895Y-94733000D01*
X137368105Y-94733000D01*
X136787931Y-94848404D01*
X136130011Y-95288011D01*
X135690404Y-95945931D01*
X135536034Y-96722000D01*
X129449161Y-96722000D01*
X129449161Y-95622000D01*
X129377215Y-95260303D01*
X129172330Y-94953670D01*
X128865697Y-94748785D01*
X128504000Y-94676839D01*
X126304000Y-94676839D01*
X125942303Y-94748785D01*
X125635670Y-94953670D01*
X125430785Y-95260303D01*
X125358839Y-95622000D01*
X100914000Y-95622000D01*
X100914000Y-85277457D01*
X125285000Y-85277457D01*
X125285000Y-86322543D01*
X125684937Y-87288076D01*
X126423924Y-88027063D01*
X127389457Y-88427000D01*
X128434543Y-88427000D01*
X129400076Y-88027063D01*
X130139063Y-87288076D01*
X130539000Y-86322543D01*
X130539000Y-85277457D01*
X130139063Y-84311924D01*
X129400076Y-83572937D01*
X128434543Y-83173000D01*
X127389457Y-83173000D01*
X126423924Y-83572937D01*
X125684937Y-84311924D01*
X125285000Y-85277457D01*
X100914000Y-85277457D01*
X100914000Y-79523207D01*
X105283000Y-79523207D01*
X105283000Y-80476793D01*
X105647922Y-81357791D01*
X106322209Y-82032078D01*
X107203207Y-82397000D01*
X108156793Y-82397000D01*
X109037791Y-82032078D01*
X109712078Y-81357791D01*
X109840000Y-81048961D01*
X109967922Y-81357791D01*
X110642209Y-82032078D01*
X111523207Y-82397000D01*
X112476793Y-82397000D01*
X113357791Y-82032078D01*
X114032078Y-81357791D01*
X114397000Y-80476793D01*
X114397000Y-79523207D01*
X114118149Y-78850000D01*
X114850921Y-78850000D01*
X114850921Y-81150000D01*
X114938389Y-81589733D01*
X115187478Y-81962522D01*
X115560267Y-82211611D01*
X116000000Y-82299079D01*
X118000000Y-82299079D01*
X118439733Y-82211611D01*
X118812522Y-81962522D01*
X119061611Y-81589733D01*
X119149079Y-81150000D01*
X119149079Y-79424527D01*
X127723000Y-79424527D01*
X127723000Y-80275473D01*
X128048644Y-81061646D01*
X128650354Y-81663356D01*
X129436527Y-81989000D01*
X130287473Y-81989000D01*
X131073646Y-81663356D01*
X131675356Y-81061646D01*
X132001000Y-80275473D01*
X132001000Y-79424527D01*
X131675356Y-78638354D01*
X131073646Y-78036644D01*
X130287473Y-77711000D01*
X129436527Y-77711000D01*
X128650354Y-78036644D01*
X128048644Y-78638354D01*
X127723000Y-79424527D01*
X119149079Y-79424527D01*
X119149079Y-78850000D01*
X119061611Y-78410267D01*
X118812522Y-78037478D01*
X118439733Y-77788389D01*
X118000000Y-77700921D01*
X116000000Y-77700921D01*
X115560267Y-77788389D01*
X115187478Y-78037478D01*
X114938389Y-78410267D01*
X114850921Y-78850000D01*
X114118149Y-78850000D01*
X114032078Y-78642209D01*
X113357791Y-77967922D01*
X112476793Y-77603000D01*
X111523207Y-77603000D01*
X110642209Y-77967922D01*
X109967922Y-78642209D01*
X109840000Y-78951039D01*
X109712078Y-78642209D01*
X109037791Y-77967922D01*
X108156793Y-77603000D01*
X107203207Y-77603000D01*
X106322209Y-77967922D01*
X105647922Y-78642209D01*
X105283000Y-79523207D01*
X100914000Y-79523207D01*
X100914000Y-71380191D01*
X101799414Y-71380191D01*
X102105472Y-71823659D01*
X103330252Y-72333725D01*
X104656995Y-72336262D01*
X105883716Y-71830883D01*
X105894528Y-71823659D01*
X106006846Y-71660913D01*
X111434000Y-71660913D01*
X111434000Y-72507087D01*
X111757817Y-73288848D01*
X112356152Y-73887183D01*
X113137913Y-74211000D01*
X113984087Y-74211000D01*
X114765848Y-73887183D01*
X115364183Y-73288848D01*
X115688000Y-72507087D01*
X115688000Y-71670913D01*
X116514000Y-71670913D01*
X116514000Y-72517087D01*
X116837817Y-73298848D01*
X117436152Y-73897183D01*
X118217913Y-74221000D01*
X119064087Y-74221000D01*
X119845848Y-73897183D01*
X120444183Y-73298848D01*
X120768000Y-72517087D01*
X120768000Y-71673207D01*
X122053000Y-71673207D01*
X122053000Y-72626793D01*
X122417922Y-73507791D01*
X123092209Y-74182078D01*
X123973207Y-74547000D01*
X124926793Y-74547000D01*
X125807791Y-74182078D01*
X126482078Y-73507791D01*
X126847000Y-72626793D01*
X126847000Y-71673207D01*
X126518443Y-70880000D01*
X127030921Y-70880000D01*
X127030921Y-73420000D01*
X127118389Y-73859733D01*
X127367478Y-74232522D01*
X127740267Y-74481611D01*
X128180000Y-74569079D01*
X130720000Y-74569079D01*
X131159733Y-74481611D01*
X131532522Y-74232522D01*
X131781611Y-73859733D01*
X131869079Y-73420000D01*
X131869079Y-71673207D01*
X132053000Y-71673207D01*
X132053000Y-72626793D01*
X132417922Y-73507791D01*
X133092209Y-74182078D01*
X133973207Y-74547000D01*
X134926793Y-74547000D01*
X135807791Y-74182078D01*
X136482078Y-73507791D01*
X136847000Y-72626793D01*
X136847000Y-71673207D01*
X136518443Y-70880000D01*
X137273584Y-70880000D01*
X137273584Y-73420000D01*
X137342581Y-73766870D01*
X137539067Y-74060933D01*
X137833130Y-74257419D01*
X138180000Y-74326416D01*
X140720000Y-74326416D01*
X141066870Y-74257419D01*
X141360933Y-74060933D01*
X141557419Y-73766870D01*
X141626416Y-73420000D01*
X141626416Y-71648363D01*
X155011000Y-71648363D01*
X155011000Y-72439637D01*
X155313807Y-73170678D01*
X155873322Y-73730193D01*
X156604363Y-74033000D01*
X157395637Y-74033000D01*
X158126678Y-73730193D01*
X158686193Y-73170678D01*
X158989000Y-72439637D01*
X158989000Y-71648363D01*
X158709540Y-70973688D01*
X159034080Y-70839259D01*
X159114353Y-70587958D01*
X158250000Y-69723605D01*
X158235858Y-69737748D01*
X158056253Y-69558143D01*
X158070395Y-69544000D01*
X158429605Y-69544000D01*
X159293958Y-70408353D01*
X159545259Y-70328080D01*
X159746718Y-69772721D01*
X159720315Y-69182542D01*
X159545259Y-68759920D01*
X159293958Y-68679647D01*
X158429605Y-69544000D01*
X158070395Y-69544000D01*
X157206042Y-68679647D01*
X156954741Y-68759920D01*
X156753282Y-69315279D01*
X156779685Y-69905458D01*
X156841627Y-70055000D01*
X156604363Y-70055000D01*
X155873322Y-70357807D01*
X155313807Y-70917322D01*
X155011000Y-71648363D01*
X141626416Y-71648363D01*
X141626416Y-70880000D01*
X141557419Y-70533130D01*
X141360933Y-70239067D01*
X141066870Y-70042581D01*
X140720000Y-69973584D01*
X138180000Y-69973584D01*
X137833130Y-70042581D01*
X137539067Y-70239067D01*
X137342581Y-70533130D01*
X137273584Y-70880000D01*
X136518443Y-70880000D01*
X136482078Y-70792209D01*
X135807791Y-70117922D01*
X134926793Y-69753000D01*
X133973207Y-69753000D01*
X133092209Y-70117922D01*
X132417922Y-70792209D01*
X132053000Y-71673207D01*
X131869079Y-71673207D01*
X131869079Y-70880000D01*
X131781611Y-70440267D01*
X131532522Y-70067478D01*
X131159733Y-69818389D01*
X130720000Y-69730921D01*
X128180000Y-69730921D01*
X127740267Y-69818389D01*
X127367478Y-70067478D01*
X127118389Y-70440267D01*
X127030921Y-70880000D01*
X126518443Y-70880000D01*
X126482078Y-70792209D01*
X125807791Y-70117922D01*
X124926793Y-69753000D01*
X123973207Y-69753000D01*
X123092209Y-70117922D01*
X122417922Y-70792209D01*
X122053000Y-71673207D01*
X120768000Y-71673207D01*
X120768000Y-71670913D01*
X120444183Y-70889152D01*
X119845848Y-70290817D01*
X119064087Y-69967000D01*
X118217913Y-69967000D01*
X117436152Y-70290817D01*
X116837817Y-70889152D01*
X116514000Y-71670913D01*
X115688000Y-71670913D01*
X115688000Y-71660913D01*
X115364183Y-70879152D01*
X114765848Y-70280817D01*
X113984087Y-69957000D01*
X113137913Y-69957000D01*
X112356152Y-70280817D01*
X111757817Y-70879152D01*
X111434000Y-71660913D01*
X106006846Y-71660913D01*
X106200586Y-71380191D01*
X104000000Y-69179605D01*
X101799414Y-71380191D01*
X100914000Y-71380191D01*
X100914000Y-70264463D01*
X101169117Y-70883716D01*
X101176341Y-70894528D01*
X101619809Y-71200586D01*
X103820395Y-69000000D01*
X104179605Y-69000000D01*
X106380191Y-71200586D01*
X106823659Y-70894528D01*
X107333725Y-69669748D01*
X107336068Y-68444000D01*
X145664839Y-68444000D01*
X145664839Y-70644000D01*
X145736785Y-71005697D01*
X145941670Y-71312330D01*
X146248303Y-71517215D01*
X146610000Y-71589161D01*
X148310000Y-71589161D01*
X148671697Y-71517215D01*
X148978330Y-71312330D01*
X149028917Y-71236620D01*
X149321477Y-71432102D01*
X150000000Y-71567069D01*
X150678524Y-71432102D01*
X151253749Y-71047749D01*
X151440326Y-70768516D01*
X151564549Y-70927333D01*
X152072509Y-71214352D01*
X152183110Y-71235476D01*
X152413000Y-71114155D01*
X152413000Y-69671000D01*
X152667000Y-69671000D01*
X152667000Y-71114155D01*
X152896890Y-71235476D01*
X153007491Y-71214352D01*
X153515451Y-70927333D01*
X153874907Y-70467774D01*
X154031135Y-69905639D01*
X153871491Y-69671000D01*
X152667000Y-69671000D01*
X152413000Y-69671000D01*
X152393000Y-69671000D01*
X152393000Y-69417000D01*
X152413000Y-69417000D01*
X152413000Y-67973845D01*
X152667000Y-67973845D01*
X152667000Y-69417000D01*
X153871491Y-69417000D01*
X154031135Y-69182361D01*
X153874907Y-68620226D01*
X153780902Y-68500042D01*
X157385647Y-68500042D01*
X158250000Y-69364395D01*
X159114353Y-68500042D01*
X159034080Y-68248741D01*
X158478721Y-68047282D01*
X157888542Y-68073685D01*
X157465920Y-68248741D01*
X157385647Y-68500042D01*
X153780902Y-68500042D01*
X153515451Y-68160667D01*
X153007491Y-67873648D01*
X152896890Y-67852524D01*
X152667000Y-67973845D01*
X152413000Y-67973845D01*
X152183110Y-67852524D01*
X152072509Y-67873648D01*
X151564549Y-68160667D01*
X151440326Y-68319484D01*
X151253749Y-68040251D01*
X150678523Y-67655898D01*
X150000000Y-67520931D01*
X149321476Y-67655898D01*
X149028917Y-67851379D01*
X148978330Y-67775670D01*
X148671697Y-67570785D01*
X148310000Y-67498839D01*
X146610000Y-67498839D01*
X146248303Y-67570785D01*
X145941670Y-67775670D01*
X145736785Y-68082303D01*
X145664839Y-68444000D01*
X107336068Y-68444000D01*
X107336262Y-68343005D01*
X106830883Y-67116284D01*
X106823659Y-67105472D01*
X106380191Y-66799414D01*
X104179605Y-69000000D01*
X103820395Y-69000000D01*
X101619809Y-66799414D01*
X101176341Y-67105472D01*
X100914000Y-67735410D01*
X100914000Y-65914000D01*
X102735537Y-65914000D01*
X102116284Y-66169117D01*
G36*
X148587000Y-112089000D02*
G01*
X148607000Y-112089000D01*
X148607000Y-112343000D01*
X148587000Y-112343000D01*
X148587000Y-112363000D01*
X148333000Y-112363000D01*
X148333000Y-112343000D01*
X148313000Y-112343000D01*
X148313000Y-112089000D01*
X148333000Y-112089000D01*
X148333000Y-112069000D01*
X148587000Y-112069000D01*
X148587000Y-112089000D01*
X148587000Y-112089000D01*
G37*
X148587000Y-112089000D02*
X148607000Y-112089000D01*
X148607000Y-112343000D01*
X148587000Y-112343000D01*
X148587000Y-112363000D01*
X148333000Y-112363000D01*
X148333000Y-112343000D01*
X148313000Y-112343000D01*
X148313000Y-112089000D01*
X148333000Y-112089000D01*
X148333000Y-112069000D01*
X148587000Y-112069000D01*
X148587000Y-112089000D01*
G36*
X161059000Y-109041000D02*
G01*
X161079000Y-109041000D01*
X161079000Y-109295000D01*
X161059000Y-109295000D01*
X161059000Y-109315000D01*
X160805000Y-109315000D01*
X160805000Y-109295000D01*
X160785000Y-109295000D01*
X160785000Y-109041000D01*
X160805000Y-109041000D01*
X160805000Y-109021000D01*
X161059000Y-109021000D01*
X161059000Y-109041000D01*
X161059000Y-109041000D01*
G37*
X161059000Y-109041000D02*
X161079000Y-109041000D01*
X161079000Y-109295000D01*
X161059000Y-109295000D01*
X161059000Y-109315000D01*
X160805000Y-109315000D01*
X160805000Y-109295000D01*
X160785000Y-109295000D01*
X160785000Y-109041000D01*
X160805000Y-109041000D01*
X160805000Y-109021000D01*
X161059000Y-109021000D01*
X161059000Y-109041000D01*
G36*
X162240090Y-108065044D02*
G01*
X162232327Y-108046301D01*
X162053698Y-107867673D01*
X161885976Y-107798200D01*
X162506934Y-107798200D01*
X162240090Y-108065044D01*
X162240090Y-108065044D01*
G37*
X162240090Y-108065044D02*
X162232327Y-108046301D01*
X162053698Y-107867673D01*
X161885976Y-107798200D01*
X162506934Y-107798200D01*
X162240090Y-108065044D01*
G36*
X165178416Y-103447375D02*
G01*
X165178416Y-103288000D01*
X165109419Y-102941130D01*
X164912933Y-102647067D01*
X164618870Y-102450581D01*
X164488196Y-102424588D01*
X164479747Y-102416139D01*
X164725864Y-102342005D01*
X164918965Y-101804777D01*
X164891778Y-101234546D01*
X164725864Y-100833995D01*
X164479745Y-100759861D01*
X163651605Y-101588000D01*
X163665748Y-101602142D01*
X163486142Y-101781748D01*
X163472000Y-101767605D01*
X163457858Y-101781748D01*
X163278252Y-101602142D01*
X163292395Y-101588000D01*
X162464255Y-100759861D01*
X162218136Y-100833995D01*
X162025035Y-101371223D01*
X162052222Y-101941454D01*
X162218136Y-102342005D01*
X162464253Y-102416139D01*
X162455804Y-102424588D01*
X162325130Y-102450581D01*
X162031067Y-102647067D01*
X161834581Y-102941130D01*
X161765584Y-103288000D01*
X161765584Y-104299300D01*
X159312700Y-104299300D01*
X159312700Y-103985220D01*
X159086013Y-103437949D01*
X158667151Y-103019087D01*
X158119880Y-102792400D01*
X157541000Y-102792400D01*
X157541000Y-102736037D01*
X157283865Y-102115259D01*
X156808741Y-101640135D01*
X156187963Y-101383000D01*
X155516037Y-101383000D01*
X154895259Y-101640135D01*
X154420135Y-102115259D01*
X154163000Y-102736037D01*
X154163000Y-103291100D01*
X152541000Y-103291100D01*
X152541000Y-102736037D01*
X152283865Y-102115259D01*
X151808741Y-101640135D01*
X151187963Y-101383000D01*
X150516037Y-101383000D01*
X149895259Y-101640135D01*
X149420135Y-102115259D01*
X149163000Y-102736037D01*
X149163000Y-103291100D01*
X148904355Y-103291100D01*
X148788313Y-103010949D01*
X148570887Y-102793523D01*
X150855510Y-100508900D01*
X162665354Y-100508900D01*
X162643861Y-100580255D01*
X163472000Y-101408395D01*
X164300139Y-100580255D01*
X164278646Y-100508900D01*
X167495772Y-100508900D01*
X167617800Y-100533173D01*
X167739828Y-100508900D01*
X167739829Y-100508900D01*
X168101234Y-100437012D01*
X168365063Y-100260727D01*
X165178416Y-103447375D01*
X165178416Y-103447375D01*
G37*
X165178416Y-103447375D02*
X165178416Y-103288000D01*
X165109419Y-102941130D01*
X164912933Y-102647067D01*
X164618870Y-102450581D01*
X164488196Y-102424588D01*
X164479747Y-102416139D01*
X164725864Y-102342005D01*
X164918965Y-101804777D01*
X164891778Y-101234546D01*
X164725864Y-100833995D01*
X164479745Y-100759861D01*
X163651605Y-101588000D01*
X163665748Y-101602142D01*
X163486142Y-101781748D01*
X163472000Y-101767605D01*
X163457858Y-101781748D01*
X163278252Y-101602142D01*
X163292395Y-101588000D01*
X162464255Y-100759861D01*
X162218136Y-100833995D01*
X162025035Y-101371223D01*
X162052222Y-101941454D01*
X162218136Y-102342005D01*
X162464253Y-102416139D01*
X162455804Y-102424588D01*
X162325130Y-102450581D01*
X162031067Y-102647067D01*
X161834581Y-102941130D01*
X161765584Y-103288000D01*
X161765584Y-104299300D01*
X159312700Y-104299300D01*
X159312700Y-103985220D01*
X159086013Y-103437949D01*
X158667151Y-103019087D01*
X158119880Y-102792400D01*
X157541000Y-102792400D01*
X157541000Y-102736037D01*
X157283865Y-102115259D01*
X156808741Y-101640135D01*
X156187963Y-101383000D01*
X155516037Y-101383000D01*
X154895259Y-101640135D01*
X154420135Y-102115259D01*
X154163000Y-102736037D01*
X154163000Y-103291100D01*
X152541000Y-103291100D01*
X152541000Y-102736037D01*
X152283865Y-102115259D01*
X151808741Y-101640135D01*
X151187963Y-101383000D01*
X150516037Y-101383000D01*
X149895259Y-101640135D01*
X149420135Y-102115259D01*
X149163000Y-102736037D01*
X149163000Y-103291100D01*
X148904355Y-103291100D01*
X148788313Y-103010949D01*
X148570887Y-102793523D01*
X150855510Y-100508900D01*
X162665354Y-100508900D01*
X162643861Y-100580255D01*
X163472000Y-101408395D01*
X164300139Y-100580255D01*
X164278646Y-100508900D01*
X167495772Y-100508900D01*
X167617800Y-100533173D01*
X167739828Y-100508900D01*
X167739829Y-100508900D01*
X168101234Y-100437012D01*
X168365063Y-100260727D01*
X165178416Y-103447375D01*
G36*
X170673000Y-87197002D02*
G01*
X170838084Y-87197002D01*
X170716096Y-87419039D01*
X170876959Y-87807423D01*
X171212039Y-88177319D01*
X170890299Y-88392299D01*
X170516997Y-88950985D01*
X170385911Y-89610000D01*
X170516997Y-90269015D01*
X170890299Y-90827701D01*
X170968570Y-90880000D01*
X170890299Y-90932299D01*
X170516997Y-91490985D01*
X170385911Y-92150000D01*
X170516997Y-92809015D01*
X170890299Y-93367701D01*
X170968570Y-93420000D01*
X170890299Y-93472299D01*
X170516997Y-94030985D01*
X170385911Y-94690000D01*
X170516997Y-95349015D01*
X170890299Y-95907701D01*
X170968570Y-95960000D01*
X170922175Y-95991000D01*
X169779724Y-95991000D01*
X169657699Y-95966728D01*
X169535674Y-95991000D01*
X169535671Y-95991000D01*
X169174266Y-96062888D01*
X168764431Y-96336731D01*
X168695306Y-96440184D01*
X167104591Y-98030900D01*
X166712388Y-98030900D01*
X166735000Y-97976309D01*
X166735000Y-97285750D01*
X166576250Y-97127000D01*
X165377000Y-97127000D01*
X165377000Y-97147000D01*
X165123000Y-97147000D01*
X165123000Y-97127000D01*
X162837000Y-97127000D01*
X162837000Y-97147000D01*
X162583000Y-97147000D01*
X162583000Y-97127000D01*
X162563000Y-97127000D01*
X162563000Y-96873000D01*
X162583000Y-96873000D01*
X162583000Y-95679845D01*
X162837000Y-95679845D01*
X162837000Y-96873000D01*
X165123000Y-96873000D01*
X165123000Y-95673750D01*
X165377000Y-95673750D01*
X165377000Y-96873000D01*
X166576250Y-96873000D01*
X166735000Y-96714250D01*
X166735000Y-96023691D01*
X166638327Y-95790302D01*
X166459699Y-95611673D01*
X166226310Y-95515000D01*
X165535750Y-95515000D01*
X165377000Y-95673750D01*
X165123000Y-95673750D01*
X164964250Y-95515000D01*
X164273690Y-95515000D01*
X164040301Y-95611673D01*
X163861673Y-95790302D01*
X163774864Y-95999878D01*
X163476924Y-95728355D01*
X163066890Y-95558524D01*
X162837000Y-95679845D01*
X162583000Y-95679845D01*
X162353110Y-95558524D01*
X162243599Y-95603882D01*
X170673000Y-87174483D01*
X170673000Y-87197002D01*
X170673000Y-87197002D01*
G37*
X170673000Y-87197002D02*
X170838084Y-87197002D01*
X170716096Y-87419039D01*
X170876959Y-87807423D01*
X171212039Y-88177319D01*
X170890299Y-88392299D01*
X170516997Y-88950985D01*
X170385911Y-89610000D01*
X170516997Y-90269015D01*
X170890299Y-90827701D01*
X170968570Y-90880000D01*
X170890299Y-90932299D01*
X170516997Y-91490985D01*
X170385911Y-92150000D01*
X170516997Y-92809015D01*
X170890299Y-93367701D01*
X170968570Y-93420000D01*
X170890299Y-93472299D01*
X170516997Y-94030985D01*
X170385911Y-94690000D01*
X170516997Y-95349015D01*
X170890299Y-95907701D01*
X170968570Y-95960000D01*
X170922175Y-95991000D01*
X169779724Y-95991000D01*
X169657699Y-95966728D01*
X169535674Y-95991000D01*
X169535671Y-95991000D01*
X169174266Y-96062888D01*
X168764431Y-96336731D01*
X168695306Y-96440184D01*
X167104591Y-98030900D01*
X166712388Y-98030900D01*
X166735000Y-97976309D01*
X166735000Y-97285750D01*
X166576250Y-97127000D01*
X165377000Y-97127000D01*
X165377000Y-97147000D01*
X165123000Y-97147000D01*
X165123000Y-97127000D01*
X162837000Y-97127000D01*
X162837000Y-97147000D01*
X162583000Y-97147000D01*
X162583000Y-97127000D01*
X162563000Y-97127000D01*
X162563000Y-96873000D01*
X162583000Y-96873000D01*
X162583000Y-95679845D01*
X162837000Y-95679845D01*
X162837000Y-96873000D01*
X165123000Y-96873000D01*
X165123000Y-95673750D01*
X165377000Y-95673750D01*
X165377000Y-96873000D01*
X166576250Y-96873000D01*
X166735000Y-96714250D01*
X166735000Y-96023691D01*
X166638327Y-95790302D01*
X166459699Y-95611673D01*
X166226310Y-95515000D01*
X165535750Y-95515000D01*
X165377000Y-95673750D01*
X165123000Y-95673750D01*
X164964250Y-95515000D01*
X164273690Y-95515000D01*
X164040301Y-95611673D01*
X163861673Y-95790302D01*
X163774864Y-95999878D01*
X163476924Y-95728355D01*
X163066890Y-95558524D01*
X162837000Y-95679845D01*
X162583000Y-95679845D01*
X162353110Y-95558524D01*
X162243599Y-95603882D01*
X170673000Y-87174483D01*
X170673000Y-87197002D01*
G36*
X153728737Y-91266353D02*
G01*
X153715778Y-90994546D01*
X153549864Y-90593995D01*
X153303745Y-90519861D01*
X152475605Y-91348000D01*
X152489748Y-91362142D01*
X152310142Y-91541748D01*
X152296000Y-91527605D01*
X151467861Y-92355745D01*
X151541995Y-92601864D01*
X152079223Y-92794965D01*
X152206178Y-92788912D01*
X150078500Y-94916591D01*
X150078500Y-91131223D01*
X150849035Y-91131223D01*
X150876222Y-91701454D01*
X151042136Y-92102005D01*
X151288255Y-92176139D01*
X152116395Y-91348000D01*
X151288255Y-90519861D01*
X151042136Y-90593995D01*
X150849035Y-91131223D01*
X150078500Y-91131223D01*
X150078500Y-90705909D01*
X150921902Y-89862508D01*
X151339259Y-90279865D01*
X151469768Y-90333924D01*
X151467861Y-90340255D01*
X152296000Y-91168395D01*
X153124139Y-90340255D01*
X153122232Y-90333924D01*
X153252741Y-90279865D01*
X153727865Y-89804741D01*
X153985000Y-89183963D01*
X153985000Y-88563000D01*
X156432090Y-88563000D01*
X153728737Y-91266353D01*
X153728737Y-91266353D01*
G37*
X153728737Y-91266353D02*
X153715778Y-90994546D01*
X153549864Y-90593995D01*
X153303745Y-90519861D01*
X152475605Y-91348000D01*
X152489748Y-91362142D01*
X152310142Y-91541748D01*
X152296000Y-91527605D01*
X151467861Y-92355745D01*
X151541995Y-92601864D01*
X152079223Y-92794965D01*
X152206178Y-92788912D01*
X150078500Y-94916591D01*
X150078500Y-91131223D01*
X150849035Y-91131223D01*
X150876222Y-91701454D01*
X151042136Y-92102005D01*
X151288255Y-92176139D01*
X152116395Y-91348000D01*
X151288255Y-90519861D01*
X151042136Y-90593995D01*
X150849035Y-91131223D01*
X150078500Y-91131223D01*
X150078500Y-90705909D01*
X150921902Y-89862508D01*
X151339259Y-90279865D01*
X151469768Y-90333924D01*
X151467861Y-90340255D01*
X152296000Y-91168395D01*
X153124139Y-90340255D01*
X153122232Y-90333924D01*
X153252741Y-90279865D01*
X153727865Y-89804741D01*
X153985000Y-89183963D01*
X153985000Y-88563000D01*
X156432090Y-88563000D01*
X153728737Y-91266353D01*
G36*
X154671000Y-82865963D02*
G01*
X154928135Y-83486741D01*
X155403259Y-83961865D01*
X156024037Y-84219000D01*
X156695963Y-84219000D01*
X157316741Y-83961865D01*
X157509606Y-83769000D01*
X158372791Y-83769000D01*
X159837000Y-85233210D01*
X159837000Y-85446017D01*
X160086523Y-86048419D01*
X160123104Y-86085000D01*
X153985000Y-86085000D01*
X153985000Y-85464037D01*
X153727865Y-84843259D01*
X153252741Y-84368135D01*
X153122232Y-84314076D01*
X153124139Y-84307745D01*
X152296000Y-83479605D01*
X151467861Y-84307745D01*
X151469768Y-84314076D01*
X151339259Y-84368135D01*
X150864135Y-84843259D01*
X150607000Y-85464037D01*
X150607000Y-86135963D01*
X150761944Y-86510031D01*
X150745808Y-86534182D01*
X148791900Y-88488090D01*
X148791900Y-86484409D01*
X151180598Y-84095711D01*
X151288255Y-84128139D01*
X152116395Y-83300000D01*
X152475605Y-83300000D01*
X153303745Y-84128139D01*
X153549864Y-84054005D01*
X153742965Y-83516777D01*
X153715778Y-82946546D01*
X153549864Y-82545995D01*
X153303745Y-82471861D01*
X152475605Y-83300000D01*
X152116395Y-83300000D01*
X152102253Y-83285858D01*
X152281858Y-83106253D01*
X152296000Y-83120395D01*
X153124139Y-82292255D01*
X153094815Y-82194900D01*
X154671000Y-82194900D01*
X154671000Y-82865963D01*
X154671000Y-82865963D01*
G37*
X154671000Y-82865963D02*
X154928135Y-83486741D01*
X155403259Y-83961865D01*
X156024037Y-84219000D01*
X156695963Y-84219000D01*
X157316741Y-83961865D01*
X157509606Y-83769000D01*
X158372791Y-83769000D01*
X159837000Y-85233210D01*
X159837000Y-85446017D01*
X160086523Y-86048419D01*
X160123104Y-86085000D01*
X153985000Y-86085000D01*
X153985000Y-85464037D01*
X153727865Y-84843259D01*
X153252741Y-84368135D01*
X153122232Y-84314076D01*
X153124139Y-84307745D01*
X152296000Y-83479605D01*
X151467861Y-84307745D01*
X151469768Y-84314076D01*
X151339259Y-84368135D01*
X150864135Y-84843259D01*
X150607000Y-85464037D01*
X150607000Y-86135963D01*
X150761944Y-86510031D01*
X150745808Y-86534182D01*
X148791900Y-88488090D01*
X148791900Y-86484409D01*
X151180598Y-84095711D01*
X151288255Y-84128139D01*
X152116395Y-83300000D01*
X152475605Y-83300000D01*
X153303745Y-84128139D01*
X153549864Y-84054005D01*
X153742965Y-83516777D01*
X153715778Y-82946546D01*
X153549864Y-82545995D01*
X153303745Y-82471861D01*
X152475605Y-83300000D01*
X152116395Y-83300000D01*
X152102253Y-83285858D01*
X152281858Y-83106253D01*
X152296000Y-83120395D01*
X153124139Y-82292255D01*
X153094815Y-82194900D01*
X154671000Y-82194900D01*
X154671000Y-82865963D01*
G36*
X172235000Y-86943000D02*
G01*
X172255000Y-86943000D01*
X172255000Y-87197000D01*
X172235000Y-87197000D01*
X172235000Y-87217000D01*
X171981000Y-87217000D01*
X171981000Y-87197000D01*
X171961000Y-87197000D01*
X171961000Y-86943000D01*
X171981000Y-86943000D01*
X171981000Y-86923000D01*
X172235000Y-86923000D01*
X172235000Y-86943000D01*
X172235000Y-86943000D01*
G37*
X172235000Y-86943000D02*
X172255000Y-86943000D01*
X172255000Y-87197000D01*
X172235000Y-87197000D01*
X172235000Y-87217000D01*
X171981000Y-87217000D01*
X171981000Y-87197000D01*
X171961000Y-87197000D01*
X171961000Y-86943000D01*
X171981000Y-86943000D01*
X171981000Y-86923000D01*
X172235000Y-86923000D01*
X172235000Y-86943000D01*
M02*
