G04 #@! TF.GenerationSoftware,KiCad,Pcbnew,6.0.0-rc1-unknown-4b7ef22~84~ubuntu18.04.1*
G04 #@! TF.CreationDate,2019-01-03T12:38:09+01:00
G04 #@! TF.ProjectId,atmega328,61746d65-6761-4333-9238-2e6b69636164,1*
G04 #@! TF.SameCoordinates,Original*
G04 #@! TF.FileFunction,Copper,L2,Bot*
G04 #@! TF.FilePolarity,Positive*
%FSLAX46Y46*%
G04 Gerber Fmt 4.6, Leading zero omitted, Abs format (unit mm)*
G04 Created by KiCad (PCBNEW 6.0.0-rc1-unknown-4b7ef22~84~ubuntu18.04.1) date czw, 3 sty 2019, 12:38:09*
%MOMM*%
%LPD*%
G04 APERTURE LIST*
%ADD10C,1.600000*%
%ADD11O,1.700000X1.700000*%
%ADD12R,1.700000X1.700000*%
%ADD13C,1.500000*%
%ADD14R,1.600000X1.600000*%
%ADD15R,1.300000X1.300000*%
%ADD16C,1.300000*%
%ADD17C,2.540000*%
%ADD18C,2.300000*%
%ADD19R,2.000000X2.300000*%
%ADD20C,0.800000*%
%ADD21C,5.400000*%
%ADD22R,1.500000X1.500000*%
%ADD23R,2.540000X2.540000*%
%ADD24C,1.700000*%
%ADD25C,2.200000*%
%ADD26O,1.727200X1.727200*%
%ADD27R,1.727200X1.727200*%
%ADD28O,1.600000X1.600000*%
%ADD29C,1.800000*%
%ADD30R,1.800000X1.800000*%
%ADD31O,2.200000X1.700000*%
%ADD32R,2.200000X1.700000*%
%ADD33O,1.700000X2.200000*%
%ADD34R,1.700000X2.200000*%
%ADD35C,3.000000*%
%ADD36C,2.500000*%
%ADD37O,2.200000X2.200000*%
%ADD38R,2.200000X2.200000*%
%ADD39C,2.000000*%
%ADD40O,1.500000X1.500000*%
%ADD41C,1.524000*%
%ADD42R,1.524000X1.524000*%
%ADD43C,1.200000*%
%ADD44C,0.700000*%
%ADD45C,1.000000*%
%ADD46C,3.000000*%
%ADD47C,0.254000*%
G04 APERTURE END LIST*
D10*
X150852000Y-103072000D03*
X155852000Y-103072000D03*
D11*
X152550000Y-97000000D03*
X155090000Y-97000000D03*
X157630000Y-97000000D03*
X160170000Y-97000000D03*
X162710000Y-97000000D03*
D12*
X165250000Y-97000000D03*
D13*
X161476000Y-85120000D03*
X161476000Y-90000000D03*
D10*
X151000000Y-78140000D03*
D14*
X151000000Y-75640000D03*
D10*
X162000000Y-77000000D03*
X157000000Y-77000000D03*
X185062000Y-99088000D03*
X185062000Y-104088000D03*
X163472000Y-101588000D03*
D14*
X163472000Y-104088000D03*
D10*
X132404000Y-104850000D03*
X127404000Y-104850000D03*
X114902000Y-118566000D03*
D14*
X111402000Y-118566000D03*
D15*
X185062000Y-92912000D03*
D16*
X185062000Y-90372000D03*
X183792000Y-91642000D03*
D17*
X116320000Y-107120000D03*
X110770000Y-107120000D03*
X112000000Y-80000000D03*
X107680000Y-80000000D03*
D18*
X106800000Y-109400000D03*
X112000000Y-80000000D03*
D19*
X117000000Y-80000000D03*
D18*
X122200000Y-109400000D03*
D20*
X187431891Y-119568109D03*
X186000000Y-118975000D03*
X184568109Y-119568109D03*
X183975000Y-121000000D03*
X184568109Y-122431891D03*
X186000000Y-123025000D03*
X187431891Y-122431891D03*
X188025000Y-121000000D03*
D21*
X186000000Y-121000000D03*
D20*
X105431891Y-119568109D03*
X104000000Y-118975000D03*
X102568109Y-119568109D03*
X101975000Y-121000000D03*
X102568109Y-122431891D03*
X104000000Y-123025000D03*
X105431891Y-122431891D03*
X106025000Y-121000000D03*
D21*
X104000000Y-121000000D03*
D20*
X187431891Y-67568109D03*
X186000000Y-66975000D03*
X184568109Y-67568109D03*
X183975000Y-69000000D03*
X184568109Y-70431891D03*
X186000000Y-71025000D03*
X187431891Y-70431891D03*
X188025000Y-69000000D03*
D21*
X186000000Y-69000000D03*
D20*
X105431891Y-67568109D03*
X104000000Y-66975000D03*
X102568109Y-67568109D03*
X101975000Y-69000000D03*
X102568109Y-70431891D03*
X104000000Y-71025000D03*
X105431891Y-70431891D03*
X106025000Y-69000000D03*
D21*
X104000000Y-69000000D03*
D22*
X141120000Y-98500000D03*
D13*
X146200000Y-98500000D03*
X143660000Y-98500000D03*
D17*
X134450000Y-72150000D03*
D23*
X139450000Y-72150000D03*
D17*
X124450000Y-72150000D03*
D23*
X129450000Y-72150000D03*
D24*
X158250000Y-69544000D03*
X162750000Y-69544000D03*
D25*
X157000000Y-72044000D03*
X164000000Y-72044000D03*
D26*
X148460000Y-112216000D03*
X151000000Y-112216000D03*
X148460000Y-114756000D03*
X151000000Y-114756000D03*
X148460000Y-117296000D03*
D27*
X151000000Y-117296000D03*
D28*
X141660000Y-114756000D03*
D10*
X136580000Y-114756000D03*
D28*
X133278000Y-114756000D03*
D10*
X128198000Y-114756000D03*
D28*
X124896000Y-114756000D03*
D10*
X119816000Y-114756000D03*
D29*
X139077000Y-118825000D03*
D30*
X136537000Y-118825000D03*
D29*
X131577000Y-118825000D03*
D30*
X129037000Y-118825000D03*
D29*
X124077000Y-118825000D03*
D30*
X121537000Y-118825000D03*
D31*
X185062000Y-76148000D03*
X185062000Y-78688000D03*
D32*
X185062000Y-86308000D03*
D31*
X185062000Y-83768000D03*
X185062000Y-81228000D03*
D33*
X150000000Y-69544000D03*
D34*
X147460000Y-69544000D03*
D33*
X152540000Y-69544000D03*
D35*
X127912000Y-85800000D03*
D36*
X129862000Y-79850000D03*
D35*
X142112000Y-79800000D03*
X142062000Y-91850000D03*
D36*
X129862000Y-91850000D03*
D37*
X137564000Y-96722000D03*
D38*
X127404000Y-96722000D03*
D39*
X118641000Y-72094000D03*
X113561000Y-72084000D03*
D40*
X143406000Y-104850000D03*
D22*
X135786000Y-104850000D03*
D10*
X152296000Y-83300000D03*
X152296000Y-85800000D03*
X152296000Y-91348000D03*
X152296000Y-88848000D03*
D28*
X168000000Y-75920000D03*
D10*
X168000000Y-81000000D03*
D28*
X156360000Y-92690000D03*
D10*
X156360000Y-82530000D03*
D28*
X137564000Y-100532000D03*
D10*
X127404000Y-100532000D03*
D40*
X135024000Y-109168000D03*
D22*
X127404000Y-109168000D03*
D28*
X179728000Y-69290000D03*
X172108000Y-102310000D03*
X179728000Y-71830000D03*
X172108000Y-99770000D03*
X179728000Y-74370000D03*
X172108000Y-97230000D03*
X179728000Y-76910000D03*
X172108000Y-94690000D03*
X179728000Y-79450000D03*
X172108000Y-92150000D03*
X179728000Y-81990000D03*
X172108000Y-89610000D03*
X179728000Y-84530000D03*
X172108000Y-87070000D03*
X179728000Y-87070000D03*
X172108000Y-84530000D03*
X179728000Y-89610000D03*
X172108000Y-81990000D03*
X179728000Y-92150000D03*
X172108000Y-79450000D03*
X179728000Y-94690000D03*
X172108000Y-76910000D03*
X179728000Y-97230000D03*
X172108000Y-74370000D03*
X179728000Y-99770000D03*
X172108000Y-71830000D03*
X179728000Y-102310000D03*
D14*
X172108000Y-69290000D03*
D41*
X163472000Y-116788000D03*
X160932000Y-116788000D03*
X163472000Y-114248000D03*
X160932000Y-114248000D03*
X163472000Y-111708000D03*
X160932000Y-111708000D03*
X163472000Y-109168000D03*
D42*
X160932000Y-109168000D03*
D43*
X164665300Y-87062000D03*
X148839500Y-95864500D03*
X147526000Y-103854400D03*
X157823700Y-104281400D03*
X147552900Y-96834100D03*
X161550800Y-80955900D03*
D44*
X152296000Y-91348000D02*
X151587800Y-91348000D01*
X151587800Y-91348000D02*
X147352000Y-95583800D01*
X147352000Y-95583800D02*
X147035000Y-95583800D01*
X147035000Y-95583800D02*
X146302600Y-96316200D01*
X146302600Y-96316200D02*
X146302600Y-96633200D01*
X146302600Y-96633200D02*
X146200000Y-96735800D01*
X146200000Y-96735800D02*
X146200000Y-98500000D01*
X178228000Y-84530000D02*
X175688000Y-87070000D01*
X175688000Y-87070000D02*
X172108000Y-87070000D01*
X146200000Y-98500000D02*
X137068600Y-107631400D01*
X137068600Y-107631400D02*
X133623000Y-107631400D01*
X133623000Y-107631400D02*
X133623000Y-109748000D01*
X133623000Y-109748000D02*
X136091000Y-112216000D01*
X136091000Y-112216000D02*
X148460000Y-112216000D01*
X133623000Y-107631400D02*
X132404000Y-106412400D01*
X132404000Y-106412400D02*
X132404000Y-104850000D01*
X114902000Y-118138600D02*
X114902000Y-118327500D01*
X114902000Y-118327500D02*
X112229500Y-121000000D01*
X112229500Y-121000000D02*
X106025000Y-121000000D01*
X114902000Y-118138600D02*
X114902000Y-118566000D01*
X114902000Y-107120000D02*
X114902000Y-118138600D01*
X104000000Y-71025000D02*
X104000000Y-96218000D01*
X104000000Y-96218000D02*
X114902000Y-107120000D01*
X114902000Y-107120000D02*
X116320000Y-107120000D01*
X106025000Y-121000000D02*
X105431900Y-120406900D01*
X105431900Y-120406900D02*
X105431900Y-119568100D01*
X104000000Y-118975000D02*
X104000000Y-121000000D01*
X101975000Y-121000000D02*
X102568100Y-120406900D01*
X102568100Y-120406900D02*
X102568100Y-119568100D01*
X102568100Y-122431900D02*
X101975000Y-121838800D01*
X101975000Y-121838800D02*
X101975000Y-121000000D01*
X104000000Y-123025000D02*
X104000000Y-121000000D01*
X106025000Y-121000000D02*
X105431900Y-121593100D01*
X105431900Y-121593100D02*
X105431900Y-122431900D01*
X185261400Y-83568600D02*
X187842600Y-80987400D01*
X187842600Y-80987400D02*
X187842600Y-70842600D01*
X187842600Y-70842600D02*
X187431900Y-70431900D01*
X185062000Y-83768000D02*
X185261400Y-83568600D01*
X185261400Y-83568600D02*
X187922000Y-86229200D01*
X187922000Y-86229200D02*
X187922000Y-96228000D01*
X187922000Y-96228000D02*
X185062000Y-99088000D01*
X186000000Y-66975000D02*
X186000000Y-69000000D01*
X183975000Y-69000000D02*
X184568100Y-68406900D01*
X184568100Y-68406900D02*
X184568100Y-67568100D01*
X184568100Y-70431900D02*
X183975000Y-69838800D01*
X183975000Y-69838800D02*
X183975000Y-69000000D01*
X186000000Y-71025000D02*
X186000000Y-69000000D01*
X188025000Y-69000000D02*
X187431900Y-68406900D01*
X187431900Y-68406900D02*
X187431900Y-67568100D01*
X188025000Y-69000000D02*
X188025000Y-69838800D01*
X188025000Y-69838800D02*
X187431900Y-70431900D01*
X104000000Y-69000000D02*
X104000000Y-71025000D01*
X104000000Y-66975000D02*
X104000000Y-69000000D01*
X101975000Y-69000000D02*
X102568100Y-68406900D01*
X102568100Y-68406900D02*
X102568100Y-67568100D01*
X102568100Y-70431900D02*
X101975000Y-69838800D01*
X101975000Y-69838800D02*
X101975000Y-69000000D01*
X106025000Y-69000000D02*
X105431900Y-68406900D01*
X105431900Y-68406900D02*
X105431900Y-67568100D01*
X106025000Y-69000000D02*
X105431900Y-69593100D01*
X105431900Y-69593100D02*
X105431900Y-70431900D01*
X152296000Y-91348000D02*
X150835100Y-89887100D01*
X150835100Y-89887100D02*
X150835100Y-84760900D01*
X150835100Y-84760900D02*
X152296000Y-83300000D01*
X152296000Y-83300000D02*
X151000000Y-82004000D01*
X151000000Y-82004000D02*
X151000000Y-78140000D01*
X152540000Y-69544000D02*
X152540000Y-71344000D01*
X152540000Y-71344000D02*
X152950400Y-71754400D01*
X152950400Y-71754400D02*
X152950400Y-76977600D01*
X152950400Y-76977600D02*
X151788000Y-78140000D01*
X151788000Y-78140000D02*
X151000000Y-78140000D01*
X185062000Y-83768000D02*
X183262000Y-83768000D01*
X179728000Y-84530000D02*
X182500000Y-84530000D01*
X182500000Y-84530000D02*
X183262000Y-83768000D01*
X179728000Y-84530000D02*
X178228000Y-84530000D01*
X160932000Y-109168000D02*
X160932000Y-104034700D01*
X160932000Y-104034700D02*
X163378700Y-101588000D01*
X163378700Y-101588000D02*
X163472000Y-101588000D01*
X182500000Y-91269238D02*
X182500000Y-84530000D01*
X182872762Y-91642000D02*
X182500000Y-91269238D01*
X183792000Y-91642000D02*
X182872762Y-91642000D01*
X156360000Y-92690000D02*
X154860000Y-92690000D01*
X154860000Y-92690000D02*
X154860000Y-91412000D01*
X154860000Y-91412000D02*
X152296000Y-88848000D01*
X172108000Y-92150000D02*
X163626000Y-92150000D01*
X163626000Y-92150000D02*
X161476000Y-90000000D01*
X185737000Y-92912000D02*
X183532000Y-95117000D01*
X183532000Y-95117000D02*
X183532000Y-102558000D01*
X183532000Y-102558000D02*
X185062000Y-104088000D01*
X185737000Y-92912000D02*
X186412000Y-92912000D01*
X185062000Y-92912000D02*
X185737000Y-92912000D01*
X185062000Y-86308000D02*
X185062000Y-87858000D01*
X185062000Y-87858000D02*
X185158900Y-87858000D01*
X185158900Y-87858000D02*
X186886300Y-89585400D01*
X186886300Y-89585400D02*
X186886300Y-92437700D01*
X186886300Y-92437700D02*
X186412000Y-92912000D01*
X163472000Y-109168000D02*
X163472000Y-104088000D01*
X161476000Y-85120000D02*
X161476000Y-85640900D01*
X161476000Y-85640900D02*
X165445100Y-89610000D01*
X165445100Y-89610000D02*
X172108000Y-89610000D01*
X156360000Y-82530000D02*
X153090000Y-85800000D01*
X153090000Y-85800000D02*
X152296000Y-85800000D01*
D45*
X110770000Y-107120000D02*
X111402000Y-107752000D01*
X111402000Y-107752000D02*
X111402000Y-118566000D01*
X148460000Y-117296000D02*
X146296100Y-117296000D01*
X146296100Y-117296000D02*
X144767100Y-118825000D01*
X144767100Y-118825000D02*
X139077000Y-118825000D01*
X139077000Y-118825000D02*
X139077000Y-119923900D01*
X139077000Y-119923900D02*
X137975500Y-121025400D01*
X137975500Y-121025400D02*
X133777400Y-121025400D01*
X133777400Y-121025400D02*
X131577000Y-118825000D01*
X131577000Y-118825000D02*
X131577000Y-117431000D01*
X131577000Y-117431000D02*
X130738000Y-116592000D01*
X130738000Y-116592000D02*
X130738000Y-114315100D01*
X130738000Y-114315100D02*
X127641200Y-111218300D01*
X127641200Y-111218300D02*
X127404000Y-111218300D01*
X127404000Y-109168000D02*
X127404000Y-111218300D01*
X124077000Y-118825000D02*
X124077000Y-116925800D01*
X124077000Y-116925800D02*
X122760200Y-115609000D01*
X122760200Y-115609000D02*
X122760200Y-113811800D01*
X122760200Y-113811800D02*
X125353700Y-111218300D01*
X125353700Y-111218300D02*
X127404000Y-111218300D01*
X147460000Y-69544000D02*
X147460000Y-71944300D01*
X151000000Y-75640000D02*
X151000000Y-73539700D01*
X147460000Y-71944300D02*
X149404600Y-71944300D01*
X149404600Y-71944300D02*
X151000000Y-73539700D01*
X129862000Y-91856800D02*
X129862000Y-102392000D01*
X129862000Y-102392000D02*
X127404000Y-104850000D01*
X129862000Y-91856800D02*
X129862000Y-91850000D01*
X127404000Y-94321700D02*
X129862000Y-91863700D01*
X129862000Y-91863700D02*
X129862000Y-91856800D01*
X127404000Y-96722000D02*
X127404000Y-94321700D01*
X127404000Y-109168000D02*
X127404000Y-104850000D01*
X172108000Y-84530000D02*
X170007700Y-84530000D01*
X170007700Y-84530000D02*
X170007700Y-83007700D01*
X170007700Y-83007700D02*
X168000000Y-81000000D01*
D44*
X141120000Y-98500000D02*
X141120000Y-97050000D01*
X137564000Y-96722000D02*
X139364000Y-96722000D01*
X139364000Y-96722000D02*
X139692000Y-97050000D01*
X139692000Y-97050000D02*
X141120000Y-97050000D01*
X133792100Y-83780100D02*
X133792100Y-92950100D01*
X129862000Y-79850000D02*
X133792100Y-83780100D01*
X133792100Y-92950100D02*
X137652900Y-96810900D01*
X143406000Y-104850000D02*
X144856000Y-104850000D01*
X144856000Y-104850000D02*
X145110700Y-105104700D01*
X145110700Y-105104700D02*
X151244000Y-105104700D01*
X151244000Y-105104700D02*
X157348400Y-99000300D01*
X157348400Y-99000300D02*
X166297700Y-99000300D01*
X166297700Y-99000300D02*
X170608000Y-94690000D01*
X172108000Y-94690000D02*
X170608000Y-94690000D01*
X121537000Y-118825000D02*
X121537000Y-117225000D01*
X121537000Y-117225000D02*
X119816000Y-115504000D01*
X119816000Y-115504000D02*
X119816000Y-114756000D01*
D46*
X129450000Y-72150000D02*
X129450000Y-75920300D01*
X129450000Y-75920300D02*
X126782300Y-75920300D01*
X126782300Y-75920300D02*
X118666000Y-84036600D01*
X118666000Y-84036600D02*
X115279700Y-84036600D01*
X115279700Y-84036600D02*
X112000100Y-80757000D01*
X112000100Y-80757000D02*
X112000100Y-80000000D01*
X112000100Y-80000000D02*
X112000000Y-80000000D01*
X129450000Y-72150000D02*
X134450000Y-72150000D01*
X113561000Y-72084000D02*
X113561000Y-72781600D01*
X113561000Y-72781600D02*
X113496500Y-72846100D01*
X117000000Y-76349700D02*
X113496500Y-72846100D01*
X117000000Y-80000000D02*
X117000000Y-76349700D01*
X124838600Y-88873400D02*
X111541700Y-88873400D01*
X127912000Y-85800000D02*
X124838600Y-88873400D01*
X111541700Y-88873400D02*
X107693600Y-85025300D01*
X107693600Y-85025300D02*
X107693600Y-80085000D01*
X113037849Y-72846100D02*
X113496500Y-72846100D01*
X107680000Y-78203949D02*
X113037849Y-72846100D01*
X107680000Y-80000000D02*
X107680000Y-78203949D01*
D44*
X179728000Y-97230000D02*
X181181600Y-98683600D01*
X181181600Y-98683600D02*
X181181600Y-102988900D01*
X181181600Y-102988900D02*
X177398800Y-106771700D01*
X177398800Y-106771700D02*
X170948300Y-106771700D01*
X170948300Y-106771700D02*
X163472000Y-114248000D01*
X151000000Y-114756000D02*
X154112300Y-114756000D01*
X154112300Y-114756000D02*
X158596200Y-119239900D01*
X158596200Y-119239900D02*
X163056700Y-119239900D01*
X163056700Y-119239900D02*
X164884400Y-117412200D01*
X164884400Y-117412200D02*
X164884400Y-115183200D01*
X164884400Y-115183200D02*
X170153000Y-109914600D01*
X170153000Y-109914600D02*
X175677900Y-109914600D01*
X175677900Y-109914600D02*
X182254200Y-103338300D01*
X182254200Y-103338300D02*
X182254200Y-94676200D01*
X182254200Y-94676200D02*
X179728000Y-92150000D01*
X160932000Y-116788000D02*
X159510900Y-115366900D01*
X159510900Y-115366900D02*
X159510900Y-103493600D01*
X159510900Y-103493600D02*
X162893900Y-100110600D01*
X162893900Y-100110600D02*
X166129400Y-100110600D01*
X166129400Y-100110600D02*
X169820500Y-103801700D01*
X169820500Y-103801700D02*
X172708100Y-103801700D01*
X172708100Y-103801700D02*
X174139300Y-102370500D01*
X174139300Y-102370500D02*
X174139300Y-100278700D01*
X174139300Y-100278700D02*
X179728000Y-94690000D01*
X172108000Y-79450000D02*
X174606400Y-76951600D01*
X174606400Y-76951600D02*
X174606400Y-67785500D01*
X174606400Y-67785500D02*
X173654600Y-66833700D01*
X173654600Y-66833700D02*
X152710300Y-66833700D01*
X152710300Y-66833700D02*
X150000000Y-69544000D01*
X179728000Y-71830000D02*
X183119400Y-71830000D01*
X183119400Y-71830000D02*
X186820700Y-75531300D01*
X186820700Y-75531300D02*
X186820700Y-76929300D01*
X186820700Y-76929300D02*
X185062000Y-78688000D01*
X137564000Y-100532000D02*
X141628000Y-100532000D01*
X141628000Y-100532000D02*
X143660000Y-98500000D01*
X172108000Y-76910000D02*
X170608000Y-76910000D01*
X163472000Y-116788000D02*
X162040100Y-118219900D01*
X162040100Y-118219900D02*
X160324900Y-118219900D01*
X160324900Y-118219900D02*
X157823700Y-115718700D01*
X157823700Y-115718700D02*
X157823700Y-104281400D01*
X164665300Y-87062000D02*
X164665300Y-81560100D01*
X164665300Y-81560100D02*
X167411200Y-78814200D01*
X167411200Y-78814200D02*
X168703800Y-78814200D01*
X168703800Y-78814200D02*
X170608000Y-76910000D01*
X147526000Y-103854400D02*
X148839500Y-102540900D01*
X148839500Y-102540900D02*
X148839500Y-95864500D01*
X163472000Y-111708000D02*
X169408600Y-105771400D01*
X169408600Y-105771400D02*
X172226600Y-105771400D01*
X172226600Y-105771400D02*
X178228000Y-99770000D01*
X179728000Y-99770000D02*
X178228000Y-99770000D01*
D46*
X118641000Y-72094000D02*
X124394000Y-72094000D01*
X124394000Y-72094000D02*
X124450000Y-72150000D01*
D44*
X129037000Y-118825000D02*
X129037000Y-117225000D01*
X129037000Y-117225000D02*
X128198000Y-116386000D01*
X128198000Y-116386000D02*
X128198000Y-114756000D01*
X136537000Y-118825000D02*
X136537000Y-114799000D01*
X136537000Y-114799000D02*
X136580000Y-114756000D01*
X141984800Y-109168000D02*
X147952000Y-109168000D01*
X147952000Y-109168000D02*
X151000000Y-112216000D01*
X135024000Y-109168000D02*
X141984800Y-109168000D01*
X147552900Y-96834100D02*
X147624400Y-96905600D01*
X147624400Y-96905600D02*
X147624400Y-99106100D01*
X147624400Y-99106100D02*
X146830100Y-99900400D01*
X146830100Y-99900400D02*
X146375000Y-99900400D01*
X146375000Y-99900400D02*
X141984800Y-104290600D01*
X141984800Y-104290600D02*
X141984800Y-109168000D01*
X168000000Y-75174500D02*
X167332200Y-75174500D01*
X167332200Y-75174500D02*
X161550800Y-80955900D01*
X168000000Y-75174500D02*
X168000000Y-75920000D01*
X172108000Y-69290000D02*
X168000000Y-73398000D01*
X168000000Y-73398000D02*
X168000000Y-75174500D01*
X151000000Y-112216000D02*
X151000000Y-110652400D01*
X155852000Y-103072000D02*
X151000000Y-107924000D01*
X151000000Y-107924000D02*
X151000000Y-110652400D01*
X172108000Y-71830000D02*
X169893100Y-74044900D01*
X169893100Y-74044900D02*
X169893100Y-76079000D01*
X169893100Y-76079000D02*
X168469200Y-77502900D01*
X168469200Y-77502900D02*
X167075700Y-77502900D01*
X167075700Y-77502900D02*
X159075200Y-85503400D01*
X159075200Y-85503400D02*
X159075200Y-94004800D01*
X159075200Y-94004800D02*
X157630000Y-95450000D01*
X157630000Y-97000000D02*
X157630000Y-95450000D01*
X172108000Y-74370000D02*
X173606100Y-72871900D01*
X173606100Y-72871900D02*
X173606100Y-68199900D01*
X173606100Y-68199900D02*
X173245900Y-67839700D01*
X173245900Y-67839700D02*
X171038600Y-67839700D01*
X171038600Y-67839700D02*
X163460600Y-75417700D01*
X163460600Y-75417700D02*
X163460600Y-77631400D01*
X163460600Y-77631400D02*
X161386400Y-79705600D01*
X161386400Y-79705600D02*
X161032900Y-79705600D01*
X161032900Y-79705600D02*
X160300500Y-80438000D01*
X160300500Y-80438000D02*
X160300500Y-81470000D01*
X160300500Y-81470000D02*
X158074900Y-83695600D01*
X158074900Y-83695600D02*
X158074900Y-93027000D01*
X158074900Y-93027000D02*
X155651900Y-95450000D01*
X155651900Y-95450000D02*
X155090000Y-95450000D01*
X155090000Y-97000000D02*
X155090000Y-95450000D01*
D46*
X142062000Y-91850000D02*
X139450000Y-89238000D01*
X139450000Y-89238000D02*
X139450000Y-72150000D01*
D44*
X150852000Y-103072000D02*
X150852000Y-100248000D01*
X150852000Y-100248000D02*
X152550000Y-98550000D01*
X152550000Y-97000000D02*
X152550000Y-98550000D01*
D47*
G36*
X102116284Y-66169117D02*
G01*
X102105472Y-66176341D01*
X101799414Y-66619809D01*
X104000000Y-68820395D01*
X106200586Y-66619809D01*
X105894528Y-66176341D01*
X105264590Y-65914000D01*
X151856588Y-65914000D01*
X151817031Y-65940431D01*
X151747906Y-66043884D01*
X150225921Y-67565870D01*
X150000000Y-67520931D01*
X149321476Y-67655898D01*
X149028917Y-67851379D01*
X148978330Y-67775670D01*
X148671697Y-67570785D01*
X148310000Y-67498839D01*
X146610000Y-67498839D01*
X146248303Y-67570785D01*
X145941670Y-67775670D01*
X145736785Y-68082303D01*
X145664839Y-68444000D01*
X145664839Y-70644000D01*
X145736785Y-71005697D01*
X145941670Y-71312330D01*
X146033001Y-71373355D01*
X146033001Y-71803751D01*
X146005044Y-71944300D01*
X146115796Y-72501088D01*
X146431191Y-72973109D01*
X146903212Y-73288504D01*
X147319456Y-73371300D01*
X147460000Y-73399256D01*
X147600544Y-73371300D01*
X148813519Y-73371300D01*
X149573001Y-74130782D01*
X149573001Y-74144054D01*
X149531670Y-74171670D01*
X149326785Y-74478303D01*
X149254839Y-74840000D01*
X149254839Y-76440000D01*
X149326785Y-76801697D01*
X149531670Y-77108330D01*
X149838303Y-77313215D01*
X149928317Y-77331120D01*
X149746136Y-77385995D01*
X149553035Y-77923223D01*
X149580222Y-78493454D01*
X149746136Y-78894005D01*
X149992255Y-78968139D01*
X150820395Y-78140000D01*
X150806252Y-78125858D01*
X150985858Y-77946252D01*
X151000000Y-77960395D01*
X151014142Y-77946252D01*
X151193748Y-78125858D01*
X151179605Y-78140000D01*
X152007745Y-78968139D01*
X152253864Y-78894005D01*
X152446965Y-78356777D01*
X152419778Y-77786546D01*
X152253864Y-77385995D01*
X152071683Y-77331120D01*
X152161697Y-77313215D01*
X152468330Y-77108330D01*
X152673215Y-76801697D01*
X152702100Y-76656478D01*
X155273000Y-76656478D01*
X155273000Y-77343522D01*
X155535920Y-77978267D01*
X156021733Y-78464080D01*
X156656478Y-78727000D01*
X157343522Y-78727000D01*
X157978267Y-78464080D01*
X158464080Y-77978267D01*
X158727000Y-77343522D01*
X158727000Y-76783223D01*
X160553035Y-76783223D01*
X160580222Y-77353454D01*
X160746136Y-77754005D01*
X160992255Y-77828139D01*
X161820395Y-77000000D01*
X160992255Y-76171861D01*
X160746136Y-76245995D01*
X160553035Y-76783223D01*
X158727000Y-76783223D01*
X158727000Y-76656478D01*
X158464080Y-76021733D01*
X157978267Y-75535920D01*
X157343522Y-75273000D01*
X156656478Y-75273000D01*
X156021733Y-75535920D01*
X155535920Y-76021733D01*
X155273000Y-76656478D01*
X152702100Y-76656478D01*
X152745161Y-76440000D01*
X152745161Y-74840000D01*
X152673215Y-74478303D01*
X152468330Y-74171670D01*
X152427000Y-74144054D01*
X152427000Y-73680239D01*
X152454955Y-73539699D01*
X152427000Y-73399159D01*
X152427000Y-73399156D01*
X152344204Y-72982912D01*
X152028809Y-72510891D01*
X151909660Y-72431278D01*
X151126745Y-71648363D01*
X155011000Y-71648363D01*
X155011000Y-72439637D01*
X155313807Y-73170678D01*
X155873322Y-73730193D01*
X156604363Y-74033000D01*
X157395637Y-74033000D01*
X158126678Y-73730193D01*
X158686193Y-73170678D01*
X158989000Y-72439637D01*
X158989000Y-71648363D01*
X158709540Y-70973688D01*
X159034080Y-70839259D01*
X159114353Y-70587958D01*
X158250000Y-69723605D01*
X158235858Y-69737748D01*
X158056253Y-69558143D01*
X158070395Y-69544000D01*
X158429605Y-69544000D01*
X159293958Y-70408353D01*
X159545259Y-70328080D01*
X159746718Y-69772721D01*
X159720315Y-69182542D01*
X159545259Y-68759920D01*
X159293958Y-68679647D01*
X158429605Y-69544000D01*
X158070395Y-69544000D01*
X157206042Y-68679647D01*
X156954741Y-68759920D01*
X156753282Y-69315279D01*
X156779685Y-69905458D01*
X156841627Y-70055000D01*
X156604363Y-70055000D01*
X155873322Y-70357807D01*
X155313807Y-70917322D01*
X155011000Y-71648363D01*
X151126745Y-71648363D01*
X150817573Y-71339192D01*
X151253749Y-71047749D01*
X151440326Y-70768516D01*
X151564549Y-70927333D01*
X152072509Y-71214352D01*
X152183110Y-71235476D01*
X152413000Y-71114155D01*
X152413000Y-69671000D01*
X152667000Y-69671000D01*
X152667000Y-71114155D01*
X152896890Y-71235476D01*
X153007491Y-71214352D01*
X153515451Y-70927333D01*
X153874907Y-70467774D01*
X154031135Y-69905639D01*
X153871491Y-69671000D01*
X152667000Y-69671000D01*
X152413000Y-69671000D01*
X152393000Y-69671000D01*
X152393000Y-69417000D01*
X152413000Y-69417000D01*
X152413000Y-69397000D01*
X152667000Y-69397000D01*
X152667000Y-69417000D01*
X153871491Y-69417000D01*
X154031135Y-69182361D01*
X153874907Y-68620226D01*
X153515451Y-68160667D01*
X153359769Y-68072700D01*
X157910559Y-68072700D01*
X157888542Y-68073685D01*
X157465920Y-68248741D01*
X157385647Y-68500042D01*
X158250000Y-69364395D01*
X159114353Y-68500042D01*
X159034080Y-68248741D01*
X158548790Y-68072700D01*
X161761983Y-68072700D01*
X161275747Y-68558936D01*
X161011000Y-69198091D01*
X161011000Y-69889909D01*
X161275747Y-70529064D01*
X161764936Y-71018253D01*
X162197742Y-71197527D01*
X162011000Y-71648363D01*
X162011000Y-72439637D01*
X162313807Y-73170678D01*
X162873322Y-73730193D01*
X163242839Y-73883252D01*
X162670787Y-74455304D01*
X162567331Y-74524431D01*
X162325325Y-74886620D01*
X162293488Y-74934267D01*
X162197327Y-75417700D01*
X162221600Y-75539729D01*
X162221600Y-75554769D01*
X162216777Y-75553035D01*
X161646546Y-75580222D01*
X161245995Y-75746136D01*
X161171861Y-75992255D01*
X162000000Y-76820395D01*
X162014143Y-76806253D01*
X162193748Y-76985858D01*
X162179605Y-77000000D01*
X162193748Y-77014143D01*
X162014143Y-77193748D01*
X162000000Y-77179605D01*
X161171861Y-78007745D01*
X161208941Y-78130849D01*
X160863835Y-78475956D01*
X160618939Y-78524669D01*
X160549466Y-78538488D01*
X160139631Y-78812331D01*
X160070504Y-78915787D01*
X159510687Y-79475604D01*
X159407231Y-79544731D01*
X159147509Y-79933433D01*
X159133388Y-79954567D01*
X159037227Y-80438000D01*
X159061500Y-80560028D01*
X159061500Y-80956789D01*
X157983173Y-82035117D01*
X157791865Y-81573259D01*
X157316741Y-81098135D01*
X156695963Y-80841000D01*
X156024037Y-80841000D01*
X155403259Y-81098135D01*
X154928135Y-81573259D01*
X154671000Y-82194037D01*
X154671000Y-82466790D01*
X153737415Y-83400375D01*
X153715778Y-82946546D01*
X153549864Y-82545995D01*
X153303745Y-82471861D01*
X152475605Y-83300000D01*
X152489748Y-83314142D01*
X152310142Y-83493748D01*
X152296000Y-83479605D01*
X151467861Y-84307745D01*
X151469768Y-84314076D01*
X151339259Y-84368135D01*
X150864135Y-84843259D01*
X150607000Y-85464037D01*
X150607000Y-86135963D01*
X150864135Y-86756741D01*
X151339259Y-87231865D01*
X151561692Y-87324000D01*
X151339259Y-87416135D01*
X150864135Y-87891259D01*
X150607000Y-88512037D01*
X150607000Y-89183963D01*
X150864135Y-89804741D01*
X151339259Y-90279865D01*
X151469768Y-90333924D01*
X151467861Y-90340255D01*
X152296000Y-91168395D01*
X152310142Y-91154252D01*
X152489748Y-91333858D01*
X152475605Y-91348000D01*
X153303745Y-92176139D01*
X153549864Y-92102005D01*
X153615417Y-91919628D01*
X153621000Y-91925211D01*
X153621000Y-92567971D01*
X153596727Y-92690000D01*
X153692888Y-93173434D01*
X153966731Y-93583269D01*
X154376566Y-93857112D01*
X154694078Y-93920269D01*
X154860000Y-93953273D01*
X154982028Y-93929000D01*
X155174175Y-93929000D01*
X155321950Y-94027740D01*
X155150858Y-94198832D01*
X155090000Y-94186727D01*
X154967972Y-94211000D01*
X154967971Y-94211000D01*
X154606566Y-94282888D01*
X154196731Y-94556731D01*
X153922888Y-94966566D01*
X153826727Y-95450000D01*
X153851000Y-95572029D01*
X153851000Y-95736396D01*
X153836251Y-95746251D01*
X153820000Y-95770572D01*
X153803749Y-95746251D01*
X153228524Y-95361898D01*
X152721276Y-95261000D01*
X152378724Y-95261000D01*
X151871476Y-95361898D01*
X151296251Y-95746251D01*
X150911898Y-96321476D01*
X150776931Y-97000000D01*
X150911898Y-97678524D01*
X151215257Y-98132533D01*
X150078500Y-99269291D01*
X150078500Y-96731264D01*
X150101813Y-96707951D01*
X150328500Y-96160680D01*
X150328500Y-95568320D01*
X150101813Y-95021049D01*
X149682951Y-94602187D01*
X149135680Y-94375500D01*
X148543320Y-94375500D01*
X147996049Y-94602187D01*
X147577187Y-95021049D01*
X147442961Y-95345100D01*
X147256720Y-95345100D01*
X146709449Y-95571787D01*
X146290587Y-95990649D01*
X146063900Y-96537920D01*
X146063900Y-97120129D01*
X145854552Y-97130770D01*
X145476077Y-97287540D01*
X145408088Y-97528483D01*
X146200000Y-98320395D01*
X146214143Y-98306253D01*
X146385401Y-98477511D01*
X146385401Y-98494204D01*
X146379605Y-98500000D01*
X146385401Y-98505796D01*
X146385401Y-98522489D01*
X146244881Y-98663009D01*
X146170012Y-98677902D01*
X146006253Y-98514143D01*
X146020395Y-98500000D01*
X145228483Y-97708088D01*
X145118836Y-97739028D01*
X145049477Y-97571581D01*
X144588419Y-97110523D01*
X143986017Y-96861000D01*
X143333983Y-96861000D01*
X142731581Y-97110523D01*
X142599895Y-97242209D01*
X142510933Y-97109067D01*
X142377255Y-97019747D01*
X142345986Y-96862543D01*
X142287112Y-96566566D01*
X142013269Y-96156731D01*
X141603434Y-95882888D01*
X141352067Y-95832888D01*
X141242029Y-95811000D01*
X141120000Y-95786727D01*
X140997972Y-95811000D01*
X140230733Y-95811000D01*
X139847434Y-95554888D01*
X139486029Y-95483000D01*
X139486028Y-95483000D01*
X139364000Y-95458727D01*
X139241972Y-95483000D01*
X139128276Y-95483000D01*
X138997989Y-95288011D01*
X138340069Y-94848404D01*
X137759895Y-94733000D01*
X137368105Y-94733000D01*
X137333995Y-94739785D01*
X135031100Y-92436891D01*
X135031100Y-83902128D01*
X135055373Y-83780100D01*
X134959212Y-83296666D01*
X134754493Y-82990282D01*
X134754492Y-82990281D01*
X134685369Y-82886831D01*
X134581919Y-82817708D01*
X132001000Y-80236790D01*
X132001000Y-79424527D01*
X131675356Y-78638354D01*
X131073646Y-78036644D01*
X131035061Y-78020661D01*
X131343961Y-77814261D01*
X131924579Y-76945304D01*
X132077000Y-76179032D01*
X132128465Y-75920300D01*
X132077000Y-75661568D01*
X132077000Y-74777000D01*
X134708732Y-74777000D01*
X135475004Y-74624579D01*
X136343961Y-74043961D01*
X136924579Y-73175004D01*
X137061001Y-72489165D01*
X137061000Y-89002706D01*
X137014197Y-89238000D01*
X137061000Y-89473294D01*
X137199611Y-90170140D01*
X137727627Y-90960373D01*
X137927104Y-91093659D01*
X140036704Y-93203260D01*
X140708740Y-93875296D01*
X140930385Y-93967105D01*
X141129858Y-94100388D01*
X141365151Y-94147191D01*
X141586798Y-94239000D01*
X141826706Y-94239000D01*
X142062000Y-94285803D01*
X142297294Y-94239000D01*
X142537202Y-94239000D01*
X142758849Y-94147191D01*
X142994142Y-94100388D01*
X143193613Y-93967105D01*
X143415260Y-93875296D01*
X143584902Y-93705654D01*
X143784372Y-93572372D01*
X143917654Y-93372902D01*
X144087296Y-93203260D01*
X144179105Y-92981613D01*
X144312388Y-92782142D01*
X144359191Y-92546849D01*
X144438348Y-92355745D01*
X151467861Y-92355745D01*
X151541995Y-92601864D01*
X152079223Y-92794965D01*
X152649454Y-92767778D01*
X153050005Y-92601864D01*
X153124139Y-92355745D01*
X152296000Y-91527605D01*
X151467861Y-92355745D01*
X144438348Y-92355745D01*
X144451000Y-92325202D01*
X144451000Y-92085294D01*
X144497803Y-91850000D01*
X144451000Y-91614706D01*
X144451000Y-91374798D01*
X144359191Y-91153151D01*
X144354830Y-91131223D01*
X150849035Y-91131223D01*
X150876222Y-91701454D01*
X151042136Y-92102005D01*
X151288255Y-92176139D01*
X152116395Y-91348000D01*
X151288255Y-90519861D01*
X151042136Y-90593995D01*
X150849035Y-91131223D01*
X144354830Y-91131223D01*
X144312388Y-90917858D01*
X144179105Y-90718385D01*
X144087296Y-90496740D01*
X143415260Y-89824704D01*
X141839000Y-88248445D01*
X141839000Y-83083223D01*
X150849035Y-83083223D01*
X150876222Y-83653454D01*
X151042136Y-84054005D01*
X151288255Y-84128139D01*
X152116395Y-83300000D01*
X151288255Y-82471861D01*
X151042136Y-82545995D01*
X150849035Y-83083223D01*
X141839000Y-83083223D01*
X141839000Y-82292255D01*
X151467861Y-82292255D01*
X152296000Y-83120395D01*
X153124139Y-82292255D01*
X153050005Y-82046136D01*
X152512777Y-81853035D01*
X151942546Y-81880222D01*
X151541995Y-82046136D01*
X151467861Y-82292255D01*
X141839000Y-82292255D01*
X141839000Y-82189000D01*
X142587202Y-82189000D01*
X143465260Y-81825296D01*
X144137296Y-81153260D01*
X144501000Y-80275202D01*
X144501000Y-79324798D01*
X144427663Y-79147745D01*
X150171861Y-79147745D01*
X150245995Y-79393864D01*
X150783223Y-79586965D01*
X151353454Y-79559778D01*
X151754005Y-79393864D01*
X151828139Y-79147745D01*
X151000000Y-78319605D01*
X150171861Y-79147745D01*
X144427663Y-79147745D01*
X144137296Y-78446740D01*
X143465260Y-77774704D01*
X142587202Y-77411000D01*
X141839000Y-77411000D01*
X141839000Y-71914705D01*
X141700389Y-71217859D01*
X141626416Y-71107151D01*
X141626416Y-70880000D01*
X141557419Y-70533130D01*
X141360933Y-70239067D01*
X141066870Y-70042581D01*
X140720000Y-69973584D01*
X140492849Y-69973584D01*
X140382141Y-69899611D01*
X139450000Y-69714197D01*
X138517860Y-69899611D01*
X138407152Y-69973584D01*
X138180000Y-69973584D01*
X137833130Y-70042581D01*
X137539067Y-70239067D01*
X137342581Y-70533130D01*
X137273584Y-70880000D01*
X137273584Y-71107152D01*
X137199612Y-71217859D01*
X137071331Y-71862770D01*
X136924579Y-71124996D01*
X136343961Y-70256039D01*
X135475004Y-69675421D01*
X134708732Y-69523000D01*
X129708732Y-69523000D01*
X129450000Y-69471535D01*
X129191268Y-69523000D01*
X128424996Y-69675421D01*
X128341934Y-69730921D01*
X128180000Y-69730921D01*
X127740267Y-69818389D01*
X127367478Y-70067478D01*
X127118389Y-70440267D01*
X127030921Y-70880000D01*
X127030921Y-71041934D01*
X126975421Y-71124996D01*
X126950000Y-71252798D01*
X126924578Y-71124996D01*
X126490520Y-70475382D01*
X126434524Y-70419386D01*
X126287961Y-70200039D01*
X125419004Y-69619421D01*
X124652732Y-69467000D01*
X124652731Y-69467000D01*
X124394000Y-69415535D01*
X124135269Y-69467000D01*
X118382268Y-69467000D01*
X117615996Y-69619421D01*
X116747039Y-70200039D01*
X116166421Y-71068996D01*
X116101995Y-71392890D01*
X116035579Y-71058996D01*
X115454961Y-70190039D01*
X114586003Y-69609421D01*
X113561000Y-69405535D01*
X112535996Y-69609421D01*
X111667039Y-70190039D01*
X111169059Y-70935320D01*
X111143888Y-70952139D01*
X110997328Y-71171482D01*
X106005383Y-76163428D01*
X105786040Y-76309988D01*
X105205421Y-77178945D01*
X105064580Y-77887000D01*
X105001535Y-78203949D01*
X105053000Y-78462680D01*
X105053000Y-80258731D01*
X105066601Y-80327107D01*
X105066600Y-84766569D01*
X105015135Y-85025300D01*
X105066600Y-85284031D01*
X105219021Y-86050303D01*
X105799639Y-86919261D01*
X106018985Y-87065823D01*
X109501178Y-90548017D01*
X109647739Y-90767361D01*
X110516696Y-91347979D01*
X111282968Y-91500400D01*
X111541699Y-91551865D01*
X111800430Y-91500400D01*
X124579869Y-91500400D01*
X124838600Y-91551865D01*
X125097331Y-91500400D01*
X125097332Y-91500400D01*
X125863604Y-91347979D01*
X126732561Y-90767361D01*
X126879123Y-90548015D01*
X129952520Y-87474619D01*
X130139063Y-87288076D01*
X130240020Y-87044345D01*
X130386578Y-86825005D01*
X130438043Y-86566275D01*
X130539000Y-86322543D01*
X130539000Y-86058731D01*
X130590465Y-85800000D01*
X130539000Y-85541269D01*
X130539000Y-85277457D01*
X130438042Y-85033724D01*
X130386578Y-84774996D01*
X130240021Y-84555658D01*
X130139063Y-84311924D01*
X129952517Y-84125378D01*
X129805960Y-83906040D01*
X129586622Y-83759483D01*
X129400076Y-83572937D01*
X129156342Y-83471979D01*
X128937004Y-83325422D01*
X128678276Y-83273958D01*
X128434543Y-83173000D01*
X128170731Y-83173000D01*
X127912000Y-83121535D01*
X127653269Y-83173000D01*
X127389457Y-83173000D01*
X127145725Y-83273957D01*
X126886995Y-83325422D01*
X126667655Y-83471980D01*
X126423924Y-83572937D01*
X126237381Y-83759480D01*
X123750462Y-86246400D01*
X120087274Y-86246400D01*
X120559961Y-85930561D01*
X120706523Y-85711215D01*
X127870439Y-78547300D01*
X128139698Y-78547300D01*
X128048644Y-78638354D01*
X127723000Y-79424527D01*
X127723000Y-80275473D01*
X128048644Y-81061646D01*
X128650354Y-81663356D01*
X129436527Y-81989000D01*
X130248790Y-81989000D01*
X132553100Y-84293311D01*
X132553101Y-92828067D01*
X132528827Y-92950100D01*
X132624988Y-93433533D01*
X132676372Y-93510434D01*
X132898832Y-93843369D01*
X133002285Y-93912494D01*
X135581785Y-96491995D01*
X135536034Y-96722000D01*
X135690404Y-97498069D01*
X136130011Y-98155989D01*
X136787931Y-98595596D01*
X137368105Y-98711000D01*
X137759895Y-98711000D01*
X138340069Y-98595596D01*
X138997989Y-98155989D01*
X139034750Y-98100972D01*
X139208566Y-98217112D01*
X139463584Y-98267838D01*
X139463584Y-99250000D01*
X139472137Y-99293000D01*
X138749825Y-99293000D01*
X138223015Y-98940997D01*
X137730350Y-98843000D01*
X137397650Y-98843000D01*
X136904985Y-98940997D01*
X136346299Y-99314299D01*
X135972997Y-99872985D01*
X135841911Y-100532000D01*
X135972997Y-101191015D01*
X136346299Y-101749701D01*
X136904985Y-102123003D01*
X137397650Y-102221000D01*
X137730350Y-102221000D01*
X138223015Y-102123003D01*
X138749825Y-101771000D01*
X141505972Y-101771000D01*
X141628000Y-101795273D01*
X141750028Y-101771000D01*
X141750029Y-101771000D01*
X142111434Y-101699112D01*
X142521269Y-101425269D01*
X142590396Y-101321813D01*
X143773210Y-100139000D01*
X143986017Y-100139000D01*
X144588419Y-99889477D01*
X145049477Y-99428419D01*
X145118836Y-99260972D01*
X145228481Y-99291911D01*
X145113426Y-99406966D01*
X145114825Y-99408365D01*
X141194987Y-103328204D01*
X141091531Y-103397331D01*
X140836697Y-103778718D01*
X140817688Y-103807167D01*
X140721527Y-104290600D01*
X140745800Y-104412629D01*
X140745801Y-107929000D01*
X136119827Y-107929000D01*
X135663506Y-107624097D01*
X135185422Y-107529000D01*
X134862578Y-107529000D01*
X134384494Y-107624097D01*
X133842347Y-107986347D01*
X133480097Y-108528494D01*
X133352891Y-109168000D01*
X133480097Y-109807506D01*
X133842347Y-110349653D01*
X134384494Y-110711903D01*
X134862578Y-110807000D01*
X135185422Y-110807000D01*
X135663506Y-110711903D01*
X136119827Y-110407000D01*
X141862772Y-110407000D01*
X141984800Y-110431273D01*
X142106829Y-110407000D01*
X147438791Y-110407000D01*
X147891158Y-110859367D01*
X147571510Y-111009179D01*
X147177312Y-111441053D01*
X147005042Y-111856974D01*
X147126183Y-112089000D01*
X148333000Y-112089000D01*
X148333000Y-112069000D01*
X148587000Y-112069000D01*
X148587000Y-112089000D01*
X148607000Y-112089000D01*
X148607000Y-112343000D01*
X148587000Y-112343000D01*
X148587000Y-112363000D01*
X148333000Y-112363000D01*
X148333000Y-112343000D01*
X147126183Y-112343000D01*
X147005042Y-112575026D01*
X147177312Y-112990947D01*
X147468897Y-113310400D01*
X147196446Y-113492446D01*
X146809087Y-114072170D01*
X146673065Y-114756000D01*
X146809087Y-115439830D01*
X147095849Y-115869000D01*
X146436640Y-115869000D01*
X146296100Y-115841045D01*
X146155560Y-115869000D01*
X146155556Y-115869000D01*
X145739312Y-115951796D01*
X145573972Y-116062273D01*
X145386438Y-116187579D01*
X145386437Y-116187580D01*
X145267291Y-116267191D01*
X145187680Y-116386338D01*
X144176018Y-117398000D01*
X140233768Y-117398000D01*
X140111912Y-117276144D01*
X139440413Y-116998000D01*
X138713587Y-116998000D01*
X138056896Y-117270010D01*
X137783870Y-117087581D01*
X137776000Y-117086016D01*
X137776000Y-115948606D01*
X138011865Y-115712741D01*
X138269000Y-115091963D01*
X138269000Y-114756000D01*
X139937911Y-114756000D01*
X140068997Y-115415015D01*
X140442299Y-115973701D01*
X141000985Y-116347003D01*
X141493650Y-116445000D01*
X141826350Y-116445000D01*
X142319015Y-116347003D01*
X142877701Y-115973701D01*
X143251003Y-115415015D01*
X143382089Y-114756000D01*
X143251003Y-114096985D01*
X142877701Y-113538299D01*
X142319015Y-113164997D01*
X141826350Y-113067000D01*
X141493650Y-113067000D01*
X141000985Y-113164997D01*
X140442299Y-113538299D01*
X140068997Y-114096985D01*
X139937911Y-114756000D01*
X138269000Y-114756000D01*
X138269000Y-114420037D01*
X138011865Y-113799259D01*
X137536741Y-113324135D01*
X136915963Y-113067000D01*
X136244037Y-113067000D01*
X135623259Y-113324135D01*
X135148135Y-113799259D01*
X134919551Y-114351108D01*
X134869003Y-114096985D01*
X134495701Y-113538299D01*
X133937015Y-113164997D01*
X133444350Y-113067000D01*
X133111650Y-113067000D01*
X132618985Y-113164997D01*
X132060299Y-113538299D01*
X131997747Y-113631914D01*
X131920964Y-113517000D01*
X131846421Y-113405438D01*
X131846420Y-113405437D01*
X131766809Y-113286291D01*
X131647663Y-113206680D01*
X128904434Y-110463453D01*
X129027215Y-110279697D01*
X129099161Y-109918000D01*
X129099161Y-108418000D01*
X129027215Y-108056303D01*
X128831000Y-107762646D01*
X128831000Y-105865347D01*
X128838602Y-105857745D01*
X131575861Y-105857745D01*
X131649995Y-106103864D01*
X132187223Y-106296965D01*
X132757454Y-106269778D01*
X133158005Y-106103864D01*
X133232139Y-105857745D01*
X132404000Y-105029605D01*
X131575861Y-105857745D01*
X128838602Y-105857745D01*
X128868080Y-105828267D01*
X129131000Y-105193522D01*
X129131000Y-105141082D01*
X129638859Y-104633223D01*
X130957035Y-104633223D01*
X130984222Y-105203454D01*
X131150136Y-105604005D01*
X131396255Y-105678139D01*
X132224395Y-104850000D01*
X132583605Y-104850000D01*
X133411745Y-105678139D01*
X133657864Y-105604005D01*
X133850965Y-105066777D01*
X133823778Y-104496546D01*
X133659523Y-104100000D01*
X134129584Y-104100000D01*
X134129584Y-105600000D01*
X134198581Y-105946870D01*
X134395067Y-106240933D01*
X134689130Y-106437419D01*
X135036000Y-106506416D01*
X136536000Y-106506416D01*
X136882870Y-106437419D01*
X137176933Y-106240933D01*
X137373419Y-105946870D01*
X137442416Y-105600000D01*
X137442416Y-104100000D01*
X137373419Y-103753130D01*
X137176933Y-103459067D01*
X136882870Y-103262581D01*
X136536000Y-103193584D01*
X135036000Y-103193584D01*
X134689130Y-103262581D01*
X134395067Y-103459067D01*
X134198581Y-103753130D01*
X134129584Y-104100000D01*
X133659523Y-104100000D01*
X133657864Y-104095995D01*
X133411745Y-104021861D01*
X132583605Y-104850000D01*
X132224395Y-104850000D01*
X131396255Y-104021861D01*
X131150136Y-104095995D01*
X130957035Y-104633223D01*
X129638859Y-104633223D01*
X130429827Y-103842255D01*
X131575861Y-103842255D01*
X132404000Y-104670395D01*
X133232139Y-103842255D01*
X133158005Y-103596136D01*
X132620777Y-103403035D01*
X132050546Y-103430222D01*
X131649995Y-103596136D01*
X131575861Y-103842255D01*
X130429827Y-103842255D01*
X130771663Y-103500420D01*
X130890809Y-103420809D01*
X130979550Y-103288000D01*
X131206204Y-102948788D01*
X131224886Y-102854867D01*
X131289000Y-102532544D01*
X131289000Y-102532541D01*
X131316955Y-102392000D01*
X131289000Y-102251460D01*
X131289000Y-93501743D01*
X131707572Y-93083171D01*
X132039000Y-92283032D01*
X132039000Y-91416968D01*
X131707572Y-90616829D01*
X131095171Y-90004428D01*
X130295032Y-89673000D01*
X129428968Y-89673000D01*
X128628829Y-90004428D01*
X128016428Y-90616829D01*
X127685000Y-91416968D01*
X127685000Y-92022618D01*
X126494340Y-93213278D01*
X126375192Y-93292891D01*
X126229834Y-93510434D01*
X126059796Y-93764913D01*
X125949045Y-94321700D01*
X125977001Y-94462245D01*
X125977001Y-94741883D01*
X125942303Y-94748785D01*
X125635670Y-94953670D01*
X125430785Y-95260303D01*
X125358839Y-95622000D01*
X125358839Y-97822000D01*
X125430785Y-98183697D01*
X125635670Y-98490330D01*
X125942303Y-98695215D01*
X126304000Y-98767161D01*
X128435001Y-98767161D01*
X128435001Y-99174395D01*
X128360741Y-99100135D01*
X127739963Y-98843000D01*
X127068037Y-98843000D01*
X126447259Y-99100135D01*
X125972135Y-99575259D01*
X125715000Y-100196037D01*
X125715000Y-100867963D01*
X125972135Y-101488741D01*
X126447259Y-101963865D01*
X127068037Y-102221000D01*
X127739963Y-102221000D01*
X128209340Y-102026577D01*
X127112918Y-103123000D01*
X127060478Y-103123000D01*
X126425733Y-103385920D01*
X125939920Y-103871733D01*
X125677000Y-104506478D01*
X125677000Y-105193522D01*
X125939920Y-105828267D01*
X125977001Y-105865348D01*
X125977000Y-107762645D01*
X125780785Y-108056303D01*
X125708839Y-108418000D01*
X125708839Y-109791300D01*
X125494240Y-109791300D01*
X125353700Y-109763345D01*
X125213159Y-109791300D01*
X125213156Y-109791300D01*
X124796912Y-109874096D01*
X124444038Y-110109879D01*
X124444037Y-110109880D01*
X124324891Y-110189491D01*
X124245280Y-110308637D01*
X121850541Y-112703378D01*
X121731392Y-112782991D01*
X121651780Y-112902139D01*
X121415996Y-113255013D01*
X121305245Y-113811800D01*
X121333201Y-113952345D01*
X121333201Y-114005278D01*
X121247865Y-113799259D01*
X120772741Y-113324135D01*
X120151963Y-113067000D01*
X119480037Y-113067000D01*
X118859259Y-113324135D01*
X118384135Y-113799259D01*
X118127000Y-114420037D01*
X118127000Y-115091963D01*
X118384135Y-115712741D01*
X118646420Y-115975026D01*
X118648888Y-115987433D01*
X118922731Y-116397269D01*
X119026187Y-116466396D01*
X119935100Y-117375310D01*
X119799581Y-117578130D01*
X119730584Y-117925000D01*
X119730584Y-119725000D01*
X119799581Y-120071870D01*
X119996067Y-120365933D01*
X120290130Y-120562419D01*
X120637000Y-120631416D01*
X122437000Y-120631416D01*
X122783870Y-120562419D01*
X123056896Y-120379990D01*
X123713587Y-120652000D01*
X124440413Y-120652000D01*
X125111912Y-120373856D01*
X125625856Y-119859912D01*
X125904000Y-119188413D01*
X125904000Y-118461587D01*
X125625856Y-117790088D01*
X125504000Y-117668232D01*
X125504000Y-117066339D01*
X125531955Y-116925799D01*
X125504000Y-116785259D01*
X125504000Y-116785256D01*
X125422086Y-116373444D01*
X125555015Y-116347003D01*
X126113701Y-115973701D01*
X126487003Y-115415015D01*
X126537551Y-115160892D01*
X126766135Y-115712741D01*
X126959000Y-115905606D01*
X126959000Y-116263972D01*
X126934727Y-116386000D01*
X126975703Y-116592000D01*
X127030888Y-116869433D01*
X127304731Y-117279269D01*
X127408187Y-117348396D01*
X127435101Y-117375310D01*
X127299581Y-117578130D01*
X127230584Y-117925000D01*
X127230584Y-119725000D01*
X127299581Y-120071870D01*
X127496067Y-120365933D01*
X127790130Y-120562419D01*
X128137000Y-120631416D01*
X129937000Y-120631416D01*
X130283870Y-120562419D01*
X130556896Y-120379990D01*
X131213587Y-120652000D01*
X131385918Y-120652000D01*
X132668980Y-121935063D01*
X132748591Y-122054209D01*
X132867737Y-122133820D01*
X132867738Y-122133821D01*
X132930105Y-122175493D01*
X133220612Y-122369604D01*
X133636856Y-122452400D01*
X133636860Y-122452400D01*
X133777400Y-122480355D01*
X133917940Y-122452400D01*
X137834960Y-122452400D01*
X137975500Y-122480355D01*
X138116040Y-122452400D01*
X138116044Y-122452400D01*
X138532288Y-122369604D01*
X139004309Y-122054209D01*
X139083924Y-121935058D01*
X139986660Y-121032322D01*
X140105809Y-120952709D01*
X140421204Y-120480688D01*
X140466693Y-120252000D01*
X144626560Y-120252000D01*
X144767100Y-120279955D01*
X144907640Y-120252000D01*
X144907644Y-120252000D01*
X145323888Y-120169204D01*
X145795909Y-119853809D01*
X145875523Y-119734658D01*
X146887182Y-118723000D01*
X147372663Y-118723000D01*
X147761343Y-118982707D01*
X148283647Y-119086600D01*
X148636353Y-119086600D01*
X149158657Y-118982707D01*
X149475661Y-118770892D01*
X149495467Y-118800533D01*
X149789530Y-118997019D01*
X150136400Y-119066016D01*
X151863600Y-119066016D01*
X152210470Y-118997019D01*
X152504533Y-118800533D01*
X152701019Y-118506470D01*
X152770016Y-118159600D01*
X152770016Y-116432400D01*
X152701019Y-116085530D01*
X152640529Y-115995000D01*
X153599091Y-115995000D01*
X157633806Y-120029716D01*
X157702931Y-120133169D01*
X158112766Y-120407012D01*
X158474171Y-120478900D01*
X158474174Y-120478900D01*
X158596199Y-120503172D01*
X158718224Y-120478900D01*
X162934672Y-120478900D01*
X163056700Y-120503173D01*
X163178728Y-120478900D01*
X163178729Y-120478900D01*
X163540134Y-120407012D01*
X163949969Y-120133169D01*
X164019096Y-120029713D01*
X165674216Y-118374594D01*
X165777669Y-118305469D01*
X165881227Y-118150483D01*
X165874098Y-124086000D01*
X105264463Y-124086000D01*
X105883716Y-123830883D01*
X105894528Y-123823659D01*
X106200586Y-123380191D01*
X104000000Y-121179605D01*
X101799414Y-123380191D01*
X102105472Y-123823659D01*
X102735410Y-124086000D01*
X100914000Y-124086000D01*
X100914000Y-122264463D01*
X101169117Y-122883716D01*
X101176341Y-122894528D01*
X101619809Y-123200586D01*
X103820395Y-121000000D01*
X104179605Y-121000000D01*
X106380191Y-123200586D01*
X106823659Y-122894528D01*
X107333725Y-121669748D01*
X107336262Y-120343005D01*
X106830883Y-119116284D01*
X106823659Y-119105472D01*
X106380191Y-118799414D01*
X104179605Y-121000000D01*
X103820395Y-121000000D01*
X101619809Y-118799414D01*
X101176341Y-119105472D01*
X100914000Y-119735410D01*
X100914000Y-118619809D01*
X101799414Y-118619809D01*
X104000000Y-120820395D01*
X106200586Y-118619809D01*
X105894528Y-118176341D01*
X104669748Y-117666275D01*
X103343005Y-117663738D01*
X102116284Y-118169117D01*
X102105472Y-118176341D01*
X101799414Y-118619809D01*
X100914000Y-118619809D01*
X100914000Y-108986859D01*
X104723000Y-108986859D01*
X104723000Y-109813141D01*
X105039204Y-110576526D01*
X105623474Y-111160796D01*
X106386859Y-111477000D01*
X107213141Y-111477000D01*
X107976526Y-111160796D01*
X108560796Y-110576526D01*
X108877000Y-109813141D01*
X108877000Y-108986859D01*
X108560796Y-108223474D01*
X107976526Y-107639204D01*
X107213141Y-107323000D01*
X106386859Y-107323000D01*
X105623474Y-107639204D01*
X105039204Y-108223474D01*
X104723000Y-108986859D01*
X100914000Y-108986859D01*
X100914000Y-106682989D01*
X108573000Y-106682989D01*
X108573000Y-107557011D01*
X108907473Y-108364501D01*
X109525499Y-108982527D01*
X109975000Y-109168716D01*
X109975001Y-117070054D01*
X109933670Y-117097670D01*
X109728785Y-117404303D01*
X109656839Y-117766000D01*
X109656839Y-119366000D01*
X109728785Y-119727697D01*
X109933670Y-120034330D01*
X110240303Y-120239215D01*
X110602000Y-120311161D01*
X112202000Y-120311161D01*
X112563697Y-120239215D01*
X112870330Y-120034330D01*
X113075215Y-119727697D01*
X113105837Y-119573745D01*
X114073861Y-119573745D01*
X114147995Y-119819864D01*
X114685223Y-120012965D01*
X115255454Y-119985778D01*
X115656005Y-119819864D01*
X115730139Y-119573745D01*
X114902000Y-118745605D01*
X114073861Y-119573745D01*
X113105837Y-119573745D01*
X113147161Y-119366000D01*
X113147161Y-118349223D01*
X113455035Y-118349223D01*
X113482222Y-118919454D01*
X113648136Y-119320005D01*
X113894255Y-119394139D01*
X114722395Y-118566000D01*
X115081605Y-118566000D01*
X115909745Y-119394139D01*
X116155864Y-119320005D01*
X116348965Y-118782777D01*
X116321778Y-118212546D01*
X116155864Y-117811995D01*
X115909745Y-117737861D01*
X115081605Y-118566000D01*
X114722395Y-118566000D01*
X113894255Y-117737861D01*
X113648136Y-117811995D01*
X113455035Y-118349223D01*
X113147161Y-118349223D01*
X113147161Y-117766000D01*
X113105838Y-117558255D01*
X114073861Y-117558255D01*
X114902000Y-118386395D01*
X115730139Y-117558255D01*
X115656005Y-117312136D01*
X115118777Y-117119035D01*
X114548546Y-117146222D01*
X114147995Y-117312136D01*
X114073861Y-117558255D01*
X113105838Y-117558255D01*
X113075215Y-117404303D01*
X112870330Y-117097670D01*
X112829000Y-117070054D01*
X112829000Y-110661025D01*
X121118581Y-110661025D01*
X121235601Y-110943446D01*
X121899663Y-111195018D01*
X122609448Y-111173314D01*
X123164399Y-110943446D01*
X123281419Y-110661025D01*
X122200000Y-109579605D01*
X121118581Y-110661025D01*
X112829000Y-110661025D01*
X112829000Y-109099663D01*
X120404982Y-109099663D01*
X120426686Y-109809448D01*
X120656554Y-110364399D01*
X120938975Y-110481419D01*
X122020395Y-109400000D01*
X122379605Y-109400000D01*
X123461025Y-110481419D01*
X123743446Y-110364399D01*
X123995018Y-109700337D01*
X123973314Y-108990552D01*
X123743446Y-108435601D01*
X123461025Y-108318581D01*
X122379605Y-109400000D01*
X122020395Y-109400000D01*
X120938975Y-108318581D01*
X120656554Y-108435601D01*
X120404982Y-109099663D01*
X112829000Y-109099663D01*
X112829000Y-108467777D01*
X115151828Y-108467777D01*
X115283520Y-108762657D01*
X115991036Y-109034261D01*
X116748632Y-109014436D01*
X117356480Y-108762657D01*
X117488172Y-108467777D01*
X116320000Y-107299605D01*
X115151828Y-108467777D01*
X112829000Y-108467777D01*
X112829000Y-107892540D01*
X112829906Y-107887985D01*
X112967000Y-107557011D01*
X112967000Y-106791036D01*
X114405739Y-106791036D01*
X114425564Y-107548632D01*
X114677343Y-108156480D01*
X114972223Y-108288172D01*
X116140395Y-107120000D01*
X116499605Y-107120000D01*
X117667777Y-108288172D01*
X117962657Y-108156480D01*
X117969376Y-108138975D01*
X121118581Y-108138975D01*
X122200000Y-109220395D01*
X123281419Y-108138975D01*
X123164399Y-107856554D01*
X122500337Y-107604982D01*
X121790552Y-107626686D01*
X121235601Y-107856554D01*
X121118581Y-108138975D01*
X117969376Y-108138975D01*
X118234261Y-107448964D01*
X118214436Y-106691368D01*
X117962657Y-106083520D01*
X117667777Y-105951828D01*
X116499605Y-107120000D01*
X116140395Y-107120000D01*
X114972223Y-105951828D01*
X114677343Y-106083520D01*
X114405739Y-106791036D01*
X112967000Y-106791036D01*
X112967000Y-106682989D01*
X112632527Y-105875499D01*
X112529251Y-105772223D01*
X115151828Y-105772223D01*
X116320000Y-106940395D01*
X117488172Y-105772223D01*
X117356480Y-105477343D01*
X116648964Y-105205739D01*
X115891368Y-105225564D01*
X115283520Y-105477343D01*
X115151828Y-105772223D01*
X112529251Y-105772223D01*
X112014501Y-105257473D01*
X111207011Y-104923000D01*
X110332989Y-104923000D01*
X109525499Y-105257473D01*
X108907473Y-105875499D01*
X108573000Y-106682989D01*
X100914000Y-106682989D01*
X100914000Y-71380191D01*
X101799414Y-71380191D01*
X102105472Y-71823659D01*
X103330252Y-72333725D01*
X104656995Y-72336262D01*
X105883716Y-71830883D01*
X105894528Y-71823659D01*
X106200586Y-71380191D01*
X104000000Y-69179605D01*
X101799414Y-71380191D01*
X100914000Y-71380191D01*
X100914000Y-70264463D01*
X101169117Y-70883716D01*
X101176341Y-70894528D01*
X101619809Y-71200586D01*
X103820395Y-69000000D01*
X104179605Y-69000000D01*
X106380191Y-71200586D01*
X106823659Y-70894528D01*
X107333725Y-69669748D01*
X107336262Y-68343005D01*
X106830883Y-67116284D01*
X106823659Y-67105472D01*
X106380191Y-66799414D01*
X104179605Y-69000000D01*
X103820395Y-69000000D01*
X101619809Y-66799414D01*
X101176341Y-67105472D01*
X100914000Y-67735410D01*
X100914000Y-65914000D01*
X102735537Y-65914000D01*
X102116284Y-66169117D01*
X102116284Y-66169117D01*
G37*
X102116284Y-66169117D02*
X102105472Y-66176341D01*
X101799414Y-66619809D01*
X104000000Y-68820395D01*
X106200586Y-66619809D01*
X105894528Y-66176341D01*
X105264590Y-65914000D01*
X151856588Y-65914000D01*
X151817031Y-65940431D01*
X151747906Y-66043884D01*
X150225921Y-67565870D01*
X150000000Y-67520931D01*
X149321476Y-67655898D01*
X149028917Y-67851379D01*
X148978330Y-67775670D01*
X148671697Y-67570785D01*
X148310000Y-67498839D01*
X146610000Y-67498839D01*
X146248303Y-67570785D01*
X145941670Y-67775670D01*
X145736785Y-68082303D01*
X145664839Y-68444000D01*
X145664839Y-70644000D01*
X145736785Y-71005697D01*
X145941670Y-71312330D01*
X146033001Y-71373355D01*
X146033001Y-71803751D01*
X146005044Y-71944300D01*
X146115796Y-72501088D01*
X146431191Y-72973109D01*
X146903212Y-73288504D01*
X147319456Y-73371300D01*
X147460000Y-73399256D01*
X147600544Y-73371300D01*
X148813519Y-73371300D01*
X149573001Y-74130782D01*
X149573001Y-74144054D01*
X149531670Y-74171670D01*
X149326785Y-74478303D01*
X149254839Y-74840000D01*
X149254839Y-76440000D01*
X149326785Y-76801697D01*
X149531670Y-77108330D01*
X149838303Y-77313215D01*
X149928317Y-77331120D01*
X149746136Y-77385995D01*
X149553035Y-77923223D01*
X149580222Y-78493454D01*
X149746136Y-78894005D01*
X149992255Y-78968139D01*
X150820395Y-78140000D01*
X150806252Y-78125858D01*
X150985858Y-77946252D01*
X151000000Y-77960395D01*
X151014142Y-77946252D01*
X151193748Y-78125858D01*
X151179605Y-78140000D01*
X152007745Y-78968139D01*
X152253864Y-78894005D01*
X152446965Y-78356777D01*
X152419778Y-77786546D01*
X152253864Y-77385995D01*
X152071683Y-77331120D01*
X152161697Y-77313215D01*
X152468330Y-77108330D01*
X152673215Y-76801697D01*
X152702100Y-76656478D01*
X155273000Y-76656478D01*
X155273000Y-77343522D01*
X155535920Y-77978267D01*
X156021733Y-78464080D01*
X156656478Y-78727000D01*
X157343522Y-78727000D01*
X157978267Y-78464080D01*
X158464080Y-77978267D01*
X158727000Y-77343522D01*
X158727000Y-76783223D01*
X160553035Y-76783223D01*
X160580222Y-77353454D01*
X160746136Y-77754005D01*
X160992255Y-77828139D01*
X161820395Y-77000000D01*
X160992255Y-76171861D01*
X160746136Y-76245995D01*
X160553035Y-76783223D01*
X158727000Y-76783223D01*
X158727000Y-76656478D01*
X158464080Y-76021733D01*
X157978267Y-75535920D01*
X157343522Y-75273000D01*
X156656478Y-75273000D01*
X156021733Y-75535920D01*
X155535920Y-76021733D01*
X155273000Y-76656478D01*
X152702100Y-76656478D01*
X152745161Y-76440000D01*
X152745161Y-74840000D01*
X152673215Y-74478303D01*
X152468330Y-74171670D01*
X152427000Y-74144054D01*
X152427000Y-73680239D01*
X152454955Y-73539699D01*
X152427000Y-73399159D01*
X152427000Y-73399156D01*
X152344204Y-72982912D01*
X152028809Y-72510891D01*
X151909660Y-72431278D01*
X151126745Y-71648363D01*
X155011000Y-71648363D01*
X155011000Y-72439637D01*
X155313807Y-73170678D01*
X155873322Y-73730193D01*
X156604363Y-74033000D01*
X157395637Y-74033000D01*
X158126678Y-73730193D01*
X158686193Y-73170678D01*
X158989000Y-72439637D01*
X158989000Y-71648363D01*
X158709540Y-70973688D01*
X159034080Y-70839259D01*
X159114353Y-70587958D01*
X158250000Y-69723605D01*
X158235858Y-69737748D01*
X158056253Y-69558143D01*
X158070395Y-69544000D01*
X158429605Y-69544000D01*
X159293958Y-70408353D01*
X159545259Y-70328080D01*
X159746718Y-69772721D01*
X159720315Y-69182542D01*
X159545259Y-68759920D01*
X159293958Y-68679647D01*
X158429605Y-69544000D01*
X158070395Y-69544000D01*
X157206042Y-68679647D01*
X156954741Y-68759920D01*
X156753282Y-69315279D01*
X156779685Y-69905458D01*
X156841627Y-70055000D01*
X156604363Y-70055000D01*
X155873322Y-70357807D01*
X155313807Y-70917322D01*
X155011000Y-71648363D01*
X151126745Y-71648363D01*
X150817573Y-71339192D01*
X151253749Y-71047749D01*
X151440326Y-70768516D01*
X151564549Y-70927333D01*
X152072509Y-71214352D01*
X152183110Y-71235476D01*
X152413000Y-71114155D01*
X152413000Y-69671000D01*
X152667000Y-69671000D01*
X152667000Y-71114155D01*
X152896890Y-71235476D01*
X153007491Y-71214352D01*
X153515451Y-70927333D01*
X153874907Y-70467774D01*
X154031135Y-69905639D01*
X153871491Y-69671000D01*
X152667000Y-69671000D01*
X152413000Y-69671000D01*
X152393000Y-69671000D01*
X152393000Y-69417000D01*
X152413000Y-69417000D01*
X152413000Y-69397000D01*
X152667000Y-69397000D01*
X152667000Y-69417000D01*
X153871491Y-69417000D01*
X154031135Y-69182361D01*
X153874907Y-68620226D01*
X153515451Y-68160667D01*
X153359769Y-68072700D01*
X157910559Y-68072700D01*
X157888542Y-68073685D01*
X157465920Y-68248741D01*
X157385647Y-68500042D01*
X158250000Y-69364395D01*
X159114353Y-68500042D01*
X159034080Y-68248741D01*
X158548790Y-68072700D01*
X161761983Y-68072700D01*
X161275747Y-68558936D01*
X161011000Y-69198091D01*
X161011000Y-69889909D01*
X161275747Y-70529064D01*
X161764936Y-71018253D01*
X162197742Y-71197527D01*
X162011000Y-71648363D01*
X162011000Y-72439637D01*
X162313807Y-73170678D01*
X162873322Y-73730193D01*
X163242839Y-73883252D01*
X162670787Y-74455304D01*
X162567331Y-74524431D01*
X162325325Y-74886620D01*
X162293488Y-74934267D01*
X162197327Y-75417700D01*
X162221600Y-75539729D01*
X162221600Y-75554769D01*
X162216777Y-75553035D01*
X161646546Y-75580222D01*
X161245995Y-75746136D01*
X161171861Y-75992255D01*
X162000000Y-76820395D01*
X162014143Y-76806253D01*
X162193748Y-76985858D01*
X162179605Y-77000000D01*
X162193748Y-77014143D01*
X162014143Y-77193748D01*
X162000000Y-77179605D01*
X161171861Y-78007745D01*
X161208941Y-78130849D01*
X160863835Y-78475956D01*
X160618939Y-78524669D01*
X160549466Y-78538488D01*
X160139631Y-78812331D01*
X160070504Y-78915787D01*
X159510687Y-79475604D01*
X159407231Y-79544731D01*
X159147509Y-79933433D01*
X159133388Y-79954567D01*
X159037227Y-80438000D01*
X159061500Y-80560028D01*
X159061500Y-80956789D01*
X157983173Y-82035117D01*
X157791865Y-81573259D01*
X157316741Y-81098135D01*
X156695963Y-80841000D01*
X156024037Y-80841000D01*
X155403259Y-81098135D01*
X154928135Y-81573259D01*
X154671000Y-82194037D01*
X154671000Y-82466790D01*
X153737415Y-83400375D01*
X153715778Y-82946546D01*
X153549864Y-82545995D01*
X153303745Y-82471861D01*
X152475605Y-83300000D01*
X152489748Y-83314142D01*
X152310142Y-83493748D01*
X152296000Y-83479605D01*
X151467861Y-84307745D01*
X151469768Y-84314076D01*
X151339259Y-84368135D01*
X150864135Y-84843259D01*
X150607000Y-85464037D01*
X150607000Y-86135963D01*
X150864135Y-86756741D01*
X151339259Y-87231865D01*
X151561692Y-87324000D01*
X151339259Y-87416135D01*
X150864135Y-87891259D01*
X150607000Y-88512037D01*
X150607000Y-89183963D01*
X150864135Y-89804741D01*
X151339259Y-90279865D01*
X151469768Y-90333924D01*
X151467861Y-90340255D01*
X152296000Y-91168395D01*
X152310142Y-91154252D01*
X152489748Y-91333858D01*
X152475605Y-91348000D01*
X153303745Y-92176139D01*
X153549864Y-92102005D01*
X153615417Y-91919628D01*
X153621000Y-91925211D01*
X153621000Y-92567971D01*
X153596727Y-92690000D01*
X153692888Y-93173434D01*
X153966731Y-93583269D01*
X154376566Y-93857112D01*
X154694078Y-93920269D01*
X154860000Y-93953273D01*
X154982028Y-93929000D01*
X155174175Y-93929000D01*
X155321950Y-94027740D01*
X155150858Y-94198832D01*
X155090000Y-94186727D01*
X154967972Y-94211000D01*
X154967971Y-94211000D01*
X154606566Y-94282888D01*
X154196731Y-94556731D01*
X153922888Y-94966566D01*
X153826727Y-95450000D01*
X153851000Y-95572029D01*
X153851000Y-95736396D01*
X153836251Y-95746251D01*
X153820000Y-95770572D01*
X153803749Y-95746251D01*
X153228524Y-95361898D01*
X152721276Y-95261000D01*
X152378724Y-95261000D01*
X151871476Y-95361898D01*
X151296251Y-95746251D01*
X150911898Y-96321476D01*
X150776931Y-97000000D01*
X150911898Y-97678524D01*
X151215257Y-98132533D01*
X150078500Y-99269291D01*
X150078500Y-96731264D01*
X150101813Y-96707951D01*
X150328500Y-96160680D01*
X150328500Y-95568320D01*
X150101813Y-95021049D01*
X149682951Y-94602187D01*
X149135680Y-94375500D01*
X148543320Y-94375500D01*
X147996049Y-94602187D01*
X147577187Y-95021049D01*
X147442961Y-95345100D01*
X147256720Y-95345100D01*
X146709449Y-95571787D01*
X146290587Y-95990649D01*
X146063900Y-96537920D01*
X146063900Y-97120129D01*
X145854552Y-97130770D01*
X145476077Y-97287540D01*
X145408088Y-97528483D01*
X146200000Y-98320395D01*
X146214143Y-98306253D01*
X146385401Y-98477511D01*
X146385401Y-98494204D01*
X146379605Y-98500000D01*
X146385401Y-98505796D01*
X146385401Y-98522489D01*
X146244881Y-98663009D01*
X146170012Y-98677902D01*
X146006253Y-98514143D01*
X146020395Y-98500000D01*
X145228483Y-97708088D01*
X145118836Y-97739028D01*
X145049477Y-97571581D01*
X144588419Y-97110523D01*
X143986017Y-96861000D01*
X143333983Y-96861000D01*
X142731581Y-97110523D01*
X142599895Y-97242209D01*
X142510933Y-97109067D01*
X142377255Y-97019747D01*
X142345986Y-96862543D01*
X142287112Y-96566566D01*
X142013269Y-96156731D01*
X141603434Y-95882888D01*
X141352067Y-95832888D01*
X141242029Y-95811000D01*
X141120000Y-95786727D01*
X140997972Y-95811000D01*
X140230733Y-95811000D01*
X139847434Y-95554888D01*
X139486029Y-95483000D01*
X139486028Y-95483000D01*
X139364000Y-95458727D01*
X139241972Y-95483000D01*
X139128276Y-95483000D01*
X138997989Y-95288011D01*
X138340069Y-94848404D01*
X137759895Y-94733000D01*
X137368105Y-94733000D01*
X137333995Y-94739785D01*
X135031100Y-92436891D01*
X135031100Y-83902128D01*
X135055373Y-83780100D01*
X134959212Y-83296666D01*
X134754493Y-82990282D01*
X134754492Y-82990281D01*
X134685369Y-82886831D01*
X134581919Y-82817708D01*
X132001000Y-80236790D01*
X132001000Y-79424527D01*
X131675356Y-78638354D01*
X131073646Y-78036644D01*
X131035061Y-78020661D01*
X131343961Y-77814261D01*
X131924579Y-76945304D01*
X132077000Y-76179032D01*
X132128465Y-75920300D01*
X132077000Y-75661568D01*
X132077000Y-74777000D01*
X134708732Y-74777000D01*
X135475004Y-74624579D01*
X136343961Y-74043961D01*
X136924579Y-73175004D01*
X137061001Y-72489165D01*
X137061000Y-89002706D01*
X137014197Y-89238000D01*
X137061000Y-89473294D01*
X137199611Y-90170140D01*
X137727627Y-90960373D01*
X137927104Y-91093659D01*
X140036704Y-93203260D01*
X140708740Y-93875296D01*
X140930385Y-93967105D01*
X141129858Y-94100388D01*
X141365151Y-94147191D01*
X141586798Y-94239000D01*
X141826706Y-94239000D01*
X142062000Y-94285803D01*
X142297294Y-94239000D01*
X142537202Y-94239000D01*
X142758849Y-94147191D01*
X142994142Y-94100388D01*
X143193613Y-93967105D01*
X143415260Y-93875296D01*
X143584902Y-93705654D01*
X143784372Y-93572372D01*
X143917654Y-93372902D01*
X144087296Y-93203260D01*
X144179105Y-92981613D01*
X144312388Y-92782142D01*
X144359191Y-92546849D01*
X144438348Y-92355745D01*
X151467861Y-92355745D01*
X151541995Y-92601864D01*
X152079223Y-92794965D01*
X152649454Y-92767778D01*
X153050005Y-92601864D01*
X153124139Y-92355745D01*
X152296000Y-91527605D01*
X151467861Y-92355745D01*
X144438348Y-92355745D01*
X144451000Y-92325202D01*
X144451000Y-92085294D01*
X144497803Y-91850000D01*
X144451000Y-91614706D01*
X144451000Y-91374798D01*
X144359191Y-91153151D01*
X144354830Y-91131223D01*
X150849035Y-91131223D01*
X150876222Y-91701454D01*
X151042136Y-92102005D01*
X151288255Y-92176139D01*
X152116395Y-91348000D01*
X151288255Y-90519861D01*
X151042136Y-90593995D01*
X150849035Y-91131223D01*
X144354830Y-91131223D01*
X144312388Y-90917858D01*
X144179105Y-90718385D01*
X144087296Y-90496740D01*
X143415260Y-89824704D01*
X141839000Y-88248445D01*
X141839000Y-83083223D01*
X150849035Y-83083223D01*
X150876222Y-83653454D01*
X151042136Y-84054005D01*
X151288255Y-84128139D01*
X152116395Y-83300000D01*
X151288255Y-82471861D01*
X151042136Y-82545995D01*
X150849035Y-83083223D01*
X141839000Y-83083223D01*
X141839000Y-82292255D01*
X151467861Y-82292255D01*
X152296000Y-83120395D01*
X153124139Y-82292255D01*
X153050005Y-82046136D01*
X152512777Y-81853035D01*
X151942546Y-81880222D01*
X151541995Y-82046136D01*
X151467861Y-82292255D01*
X141839000Y-82292255D01*
X141839000Y-82189000D01*
X142587202Y-82189000D01*
X143465260Y-81825296D01*
X144137296Y-81153260D01*
X144501000Y-80275202D01*
X144501000Y-79324798D01*
X144427663Y-79147745D01*
X150171861Y-79147745D01*
X150245995Y-79393864D01*
X150783223Y-79586965D01*
X151353454Y-79559778D01*
X151754005Y-79393864D01*
X151828139Y-79147745D01*
X151000000Y-78319605D01*
X150171861Y-79147745D01*
X144427663Y-79147745D01*
X144137296Y-78446740D01*
X143465260Y-77774704D01*
X142587202Y-77411000D01*
X141839000Y-77411000D01*
X141839000Y-71914705D01*
X141700389Y-71217859D01*
X141626416Y-71107151D01*
X141626416Y-70880000D01*
X141557419Y-70533130D01*
X141360933Y-70239067D01*
X141066870Y-70042581D01*
X140720000Y-69973584D01*
X140492849Y-69973584D01*
X140382141Y-69899611D01*
X139450000Y-69714197D01*
X138517860Y-69899611D01*
X138407152Y-69973584D01*
X138180000Y-69973584D01*
X137833130Y-70042581D01*
X137539067Y-70239067D01*
X137342581Y-70533130D01*
X137273584Y-70880000D01*
X137273584Y-71107152D01*
X137199612Y-71217859D01*
X137071331Y-71862770D01*
X136924579Y-71124996D01*
X136343961Y-70256039D01*
X135475004Y-69675421D01*
X134708732Y-69523000D01*
X129708732Y-69523000D01*
X129450000Y-69471535D01*
X129191268Y-69523000D01*
X128424996Y-69675421D01*
X128341934Y-69730921D01*
X128180000Y-69730921D01*
X127740267Y-69818389D01*
X127367478Y-70067478D01*
X127118389Y-70440267D01*
X127030921Y-70880000D01*
X127030921Y-71041934D01*
X126975421Y-71124996D01*
X126950000Y-71252798D01*
X126924578Y-71124996D01*
X126490520Y-70475382D01*
X126434524Y-70419386D01*
X126287961Y-70200039D01*
X125419004Y-69619421D01*
X124652732Y-69467000D01*
X124652731Y-69467000D01*
X124394000Y-69415535D01*
X124135269Y-69467000D01*
X118382268Y-69467000D01*
X117615996Y-69619421D01*
X116747039Y-70200039D01*
X116166421Y-71068996D01*
X116101995Y-71392890D01*
X116035579Y-71058996D01*
X115454961Y-70190039D01*
X114586003Y-69609421D01*
X113561000Y-69405535D01*
X112535996Y-69609421D01*
X111667039Y-70190039D01*
X111169059Y-70935320D01*
X111143888Y-70952139D01*
X110997328Y-71171482D01*
X106005383Y-76163428D01*
X105786040Y-76309988D01*
X105205421Y-77178945D01*
X105064580Y-77887000D01*
X105001535Y-78203949D01*
X105053000Y-78462680D01*
X105053000Y-80258731D01*
X105066601Y-80327107D01*
X105066600Y-84766569D01*
X105015135Y-85025300D01*
X105066600Y-85284031D01*
X105219021Y-86050303D01*
X105799639Y-86919261D01*
X106018985Y-87065823D01*
X109501178Y-90548017D01*
X109647739Y-90767361D01*
X110516696Y-91347979D01*
X111282968Y-91500400D01*
X111541699Y-91551865D01*
X111800430Y-91500400D01*
X124579869Y-91500400D01*
X124838600Y-91551865D01*
X125097331Y-91500400D01*
X125097332Y-91500400D01*
X125863604Y-91347979D01*
X126732561Y-90767361D01*
X126879123Y-90548015D01*
X129952520Y-87474619D01*
X130139063Y-87288076D01*
X130240020Y-87044345D01*
X130386578Y-86825005D01*
X130438043Y-86566275D01*
X130539000Y-86322543D01*
X130539000Y-86058731D01*
X130590465Y-85800000D01*
X130539000Y-85541269D01*
X130539000Y-85277457D01*
X130438042Y-85033724D01*
X130386578Y-84774996D01*
X130240021Y-84555658D01*
X130139063Y-84311924D01*
X129952517Y-84125378D01*
X129805960Y-83906040D01*
X129586622Y-83759483D01*
X129400076Y-83572937D01*
X129156342Y-83471979D01*
X128937004Y-83325422D01*
X128678276Y-83273958D01*
X128434543Y-83173000D01*
X128170731Y-83173000D01*
X127912000Y-83121535D01*
X127653269Y-83173000D01*
X127389457Y-83173000D01*
X127145725Y-83273957D01*
X126886995Y-83325422D01*
X126667655Y-83471980D01*
X126423924Y-83572937D01*
X126237381Y-83759480D01*
X123750462Y-86246400D01*
X120087274Y-86246400D01*
X120559961Y-85930561D01*
X120706523Y-85711215D01*
X127870439Y-78547300D01*
X128139698Y-78547300D01*
X128048644Y-78638354D01*
X127723000Y-79424527D01*
X127723000Y-80275473D01*
X128048644Y-81061646D01*
X128650354Y-81663356D01*
X129436527Y-81989000D01*
X130248790Y-81989000D01*
X132553100Y-84293311D01*
X132553101Y-92828067D01*
X132528827Y-92950100D01*
X132624988Y-93433533D01*
X132676372Y-93510434D01*
X132898832Y-93843369D01*
X133002285Y-93912494D01*
X135581785Y-96491995D01*
X135536034Y-96722000D01*
X135690404Y-97498069D01*
X136130011Y-98155989D01*
X136787931Y-98595596D01*
X137368105Y-98711000D01*
X137759895Y-98711000D01*
X138340069Y-98595596D01*
X138997989Y-98155989D01*
X139034750Y-98100972D01*
X139208566Y-98217112D01*
X139463584Y-98267838D01*
X139463584Y-99250000D01*
X139472137Y-99293000D01*
X138749825Y-99293000D01*
X138223015Y-98940997D01*
X137730350Y-98843000D01*
X137397650Y-98843000D01*
X136904985Y-98940997D01*
X136346299Y-99314299D01*
X135972997Y-99872985D01*
X135841911Y-100532000D01*
X135972997Y-101191015D01*
X136346299Y-101749701D01*
X136904985Y-102123003D01*
X137397650Y-102221000D01*
X137730350Y-102221000D01*
X138223015Y-102123003D01*
X138749825Y-101771000D01*
X141505972Y-101771000D01*
X141628000Y-101795273D01*
X141750028Y-101771000D01*
X141750029Y-101771000D01*
X142111434Y-101699112D01*
X142521269Y-101425269D01*
X142590396Y-101321813D01*
X143773210Y-100139000D01*
X143986017Y-100139000D01*
X144588419Y-99889477D01*
X145049477Y-99428419D01*
X145118836Y-99260972D01*
X145228481Y-99291911D01*
X145113426Y-99406966D01*
X145114825Y-99408365D01*
X141194987Y-103328204D01*
X141091531Y-103397331D01*
X140836697Y-103778718D01*
X140817688Y-103807167D01*
X140721527Y-104290600D01*
X140745800Y-104412629D01*
X140745801Y-107929000D01*
X136119827Y-107929000D01*
X135663506Y-107624097D01*
X135185422Y-107529000D01*
X134862578Y-107529000D01*
X134384494Y-107624097D01*
X133842347Y-107986347D01*
X133480097Y-108528494D01*
X133352891Y-109168000D01*
X133480097Y-109807506D01*
X133842347Y-110349653D01*
X134384494Y-110711903D01*
X134862578Y-110807000D01*
X135185422Y-110807000D01*
X135663506Y-110711903D01*
X136119827Y-110407000D01*
X141862772Y-110407000D01*
X141984800Y-110431273D01*
X142106829Y-110407000D01*
X147438791Y-110407000D01*
X147891158Y-110859367D01*
X147571510Y-111009179D01*
X147177312Y-111441053D01*
X147005042Y-111856974D01*
X147126183Y-112089000D01*
X148333000Y-112089000D01*
X148333000Y-112069000D01*
X148587000Y-112069000D01*
X148587000Y-112089000D01*
X148607000Y-112089000D01*
X148607000Y-112343000D01*
X148587000Y-112343000D01*
X148587000Y-112363000D01*
X148333000Y-112363000D01*
X148333000Y-112343000D01*
X147126183Y-112343000D01*
X147005042Y-112575026D01*
X147177312Y-112990947D01*
X147468897Y-113310400D01*
X147196446Y-113492446D01*
X146809087Y-114072170D01*
X146673065Y-114756000D01*
X146809087Y-115439830D01*
X147095849Y-115869000D01*
X146436640Y-115869000D01*
X146296100Y-115841045D01*
X146155560Y-115869000D01*
X146155556Y-115869000D01*
X145739312Y-115951796D01*
X145573972Y-116062273D01*
X145386438Y-116187579D01*
X145386437Y-116187580D01*
X145267291Y-116267191D01*
X145187680Y-116386338D01*
X144176018Y-117398000D01*
X140233768Y-117398000D01*
X140111912Y-117276144D01*
X139440413Y-116998000D01*
X138713587Y-116998000D01*
X138056896Y-117270010D01*
X137783870Y-117087581D01*
X137776000Y-117086016D01*
X137776000Y-115948606D01*
X138011865Y-115712741D01*
X138269000Y-115091963D01*
X138269000Y-114756000D01*
X139937911Y-114756000D01*
X140068997Y-115415015D01*
X140442299Y-115973701D01*
X141000985Y-116347003D01*
X141493650Y-116445000D01*
X141826350Y-116445000D01*
X142319015Y-116347003D01*
X142877701Y-115973701D01*
X143251003Y-115415015D01*
X143382089Y-114756000D01*
X143251003Y-114096985D01*
X142877701Y-113538299D01*
X142319015Y-113164997D01*
X141826350Y-113067000D01*
X141493650Y-113067000D01*
X141000985Y-113164997D01*
X140442299Y-113538299D01*
X140068997Y-114096985D01*
X139937911Y-114756000D01*
X138269000Y-114756000D01*
X138269000Y-114420037D01*
X138011865Y-113799259D01*
X137536741Y-113324135D01*
X136915963Y-113067000D01*
X136244037Y-113067000D01*
X135623259Y-113324135D01*
X135148135Y-113799259D01*
X134919551Y-114351108D01*
X134869003Y-114096985D01*
X134495701Y-113538299D01*
X133937015Y-113164997D01*
X133444350Y-113067000D01*
X133111650Y-113067000D01*
X132618985Y-113164997D01*
X132060299Y-113538299D01*
X131997747Y-113631914D01*
X131920964Y-113517000D01*
X131846421Y-113405438D01*
X131846420Y-113405437D01*
X131766809Y-113286291D01*
X131647663Y-113206680D01*
X128904434Y-110463453D01*
X129027215Y-110279697D01*
X129099161Y-109918000D01*
X129099161Y-108418000D01*
X129027215Y-108056303D01*
X128831000Y-107762646D01*
X128831000Y-105865347D01*
X128838602Y-105857745D01*
X131575861Y-105857745D01*
X131649995Y-106103864D01*
X132187223Y-106296965D01*
X132757454Y-106269778D01*
X133158005Y-106103864D01*
X133232139Y-105857745D01*
X132404000Y-105029605D01*
X131575861Y-105857745D01*
X128838602Y-105857745D01*
X128868080Y-105828267D01*
X129131000Y-105193522D01*
X129131000Y-105141082D01*
X129638859Y-104633223D01*
X130957035Y-104633223D01*
X130984222Y-105203454D01*
X131150136Y-105604005D01*
X131396255Y-105678139D01*
X132224395Y-104850000D01*
X132583605Y-104850000D01*
X133411745Y-105678139D01*
X133657864Y-105604005D01*
X133850965Y-105066777D01*
X133823778Y-104496546D01*
X133659523Y-104100000D01*
X134129584Y-104100000D01*
X134129584Y-105600000D01*
X134198581Y-105946870D01*
X134395067Y-106240933D01*
X134689130Y-106437419D01*
X135036000Y-106506416D01*
X136536000Y-106506416D01*
X136882870Y-106437419D01*
X137176933Y-106240933D01*
X137373419Y-105946870D01*
X137442416Y-105600000D01*
X137442416Y-104100000D01*
X137373419Y-103753130D01*
X137176933Y-103459067D01*
X136882870Y-103262581D01*
X136536000Y-103193584D01*
X135036000Y-103193584D01*
X134689130Y-103262581D01*
X134395067Y-103459067D01*
X134198581Y-103753130D01*
X134129584Y-104100000D01*
X133659523Y-104100000D01*
X133657864Y-104095995D01*
X133411745Y-104021861D01*
X132583605Y-104850000D01*
X132224395Y-104850000D01*
X131396255Y-104021861D01*
X131150136Y-104095995D01*
X130957035Y-104633223D01*
X129638859Y-104633223D01*
X130429827Y-103842255D01*
X131575861Y-103842255D01*
X132404000Y-104670395D01*
X133232139Y-103842255D01*
X133158005Y-103596136D01*
X132620777Y-103403035D01*
X132050546Y-103430222D01*
X131649995Y-103596136D01*
X131575861Y-103842255D01*
X130429827Y-103842255D01*
X130771663Y-103500420D01*
X130890809Y-103420809D01*
X130979550Y-103288000D01*
X131206204Y-102948788D01*
X131224886Y-102854867D01*
X131289000Y-102532544D01*
X131289000Y-102532541D01*
X131316955Y-102392000D01*
X131289000Y-102251460D01*
X131289000Y-93501743D01*
X131707572Y-93083171D01*
X132039000Y-92283032D01*
X132039000Y-91416968D01*
X131707572Y-90616829D01*
X131095171Y-90004428D01*
X130295032Y-89673000D01*
X129428968Y-89673000D01*
X128628829Y-90004428D01*
X128016428Y-90616829D01*
X127685000Y-91416968D01*
X127685000Y-92022618D01*
X126494340Y-93213278D01*
X126375192Y-93292891D01*
X126229834Y-93510434D01*
X126059796Y-93764913D01*
X125949045Y-94321700D01*
X125977001Y-94462245D01*
X125977001Y-94741883D01*
X125942303Y-94748785D01*
X125635670Y-94953670D01*
X125430785Y-95260303D01*
X125358839Y-95622000D01*
X125358839Y-97822000D01*
X125430785Y-98183697D01*
X125635670Y-98490330D01*
X125942303Y-98695215D01*
X126304000Y-98767161D01*
X128435001Y-98767161D01*
X128435001Y-99174395D01*
X128360741Y-99100135D01*
X127739963Y-98843000D01*
X127068037Y-98843000D01*
X126447259Y-99100135D01*
X125972135Y-99575259D01*
X125715000Y-100196037D01*
X125715000Y-100867963D01*
X125972135Y-101488741D01*
X126447259Y-101963865D01*
X127068037Y-102221000D01*
X127739963Y-102221000D01*
X128209340Y-102026577D01*
X127112918Y-103123000D01*
X127060478Y-103123000D01*
X126425733Y-103385920D01*
X125939920Y-103871733D01*
X125677000Y-104506478D01*
X125677000Y-105193522D01*
X125939920Y-105828267D01*
X125977001Y-105865348D01*
X125977000Y-107762645D01*
X125780785Y-108056303D01*
X125708839Y-108418000D01*
X125708839Y-109791300D01*
X125494240Y-109791300D01*
X125353700Y-109763345D01*
X125213159Y-109791300D01*
X125213156Y-109791300D01*
X124796912Y-109874096D01*
X124444038Y-110109879D01*
X124444037Y-110109880D01*
X124324891Y-110189491D01*
X124245280Y-110308637D01*
X121850541Y-112703378D01*
X121731392Y-112782991D01*
X121651780Y-112902139D01*
X121415996Y-113255013D01*
X121305245Y-113811800D01*
X121333201Y-113952345D01*
X121333201Y-114005278D01*
X121247865Y-113799259D01*
X120772741Y-113324135D01*
X120151963Y-113067000D01*
X119480037Y-113067000D01*
X118859259Y-113324135D01*
X118384135Y-113799259D01*
X118127000Y-114420037D01*
X118127000Y-115091963D01*
X118384135Y-115712741D01*
X118646420Y-115975026D01*
X118648888Y-115987433D01*
X118922731Y-116397269D01*
X119026187Y-116466396D01*
X119935100Y-117375310D01*
X119799581Y-117578130D01*
X119730584Y-117925000D01*
X119730584Y-119725000D01*
X119799581Y-120071870D01*
X119996067Y-120365933D01*
X120290130Y-120562419D01*
X120637000Y-120631416D01*
X122437000Y-120631416D01*
X122783870Y-120562419D01*
X123056896Y-120379990D01*
X123713587Y-120652000D01*
X124440413Y-120652000D01*
X125111912Y-120373856D01*
X125625856Y-119859912D01*
X125904000Y-119188413D01*
X125904000Y-118461587D01*
X125625856Y-117790088D01*
X125504000Y-117668232D01*
X125504000Y-117066339D01*
X125531955Y-116925799D01*
X125504000Y-116785259D01*
X125504000Y-116785256D01*
X125422086Y-116373444D01*
X125555015Y-116347003D01*
X126113701Y-115973701D01*
X126487003Y-115415015D01*
X126537551Y-115160892D01*
X126766135Y-115712741D01*
X126959000Y-115905606D01*
X126959000Y-116263972D01*
X126934727Y-116386000D01*
X126975703Y-116592000D01*
X127030888Y-116869433D01*
X127304731Y-117279269D01*
X127408187Y-117348396D01*
X127435101Y-117375310D01*
X127299581Y-117578130D01*
X127230584Y-117925000D01*
X127230584Y-119725000D01*
X127299581Y-120071870D01*
X127496067Y-120365933D01*
X127790130Y-120562419D01*
X128137000Y-120631416D01*
X129937000Y-120631416D01*
X130283870Y-120562419D01*
X130556896Y-120379990D01*
X131213587Y-120652000D01*
X131385918Y-120652000D01*
X132668980Y-121935063D01*
X132748591Y-122054209D01*
X132867737Y-122133820D01*
X132867738Y-122133821D01*
X132930105Y-122175493D01*
X133220612Y-122369604D01*
X133636856Y-122452400D01*
X133636860Y-122452400D01*
X133777400Y-122480355D01*
X133917940Y-122452400D01*
X137834960Y-122452400D01*
X137975500Y-122480355D01*
X138116040Y-122452400D01*
X138116044Y-122452400D01*
X138532288Y-122369604D01*
X139004309Y-122054209D01*
X139083924Y-121935058D01*
X139986660Y-121032322D01*
X140105809Y-120952709D01*
X140421204Y-120480688D01*
X140466693Y-120252000D01*
X144626560Y-120252000D01*
X144767100Y-120279955D01*
X144907640Y-120252000D01*
X144907644Y-120252000D01*
X145323888Y-120169204D01*
X145795909Y-119853809D01*
X145875523Y-119734658D01*
X146887182Y-118723000D01*
X147372663Y-118723000D01*
X147761343Y-118982707D01*
X148283647Y-119086600D01*
X148636353Y-119086600D01*
X149158657Y-118982707D01*
X149475661Y-118770892D01*
X149495467Y-118800533D01*
X149789530Y-118997019D01*
X150136400Y-119066016D01*
X151863600Y-119066016D01*
X152210470Y-118997019D01*
X152504533Y-118800533D01*
X152701019Y-118506470D01*
X152770016Y-118159600D01*
X152770016Y-116432400D01*
X152701019Y-116085530D01*
X152640529Y-115995000D01*
X153599091Y-115995000D01*
X157633806Y-120029716D01*
X157702931Y-120133169D01*
X158112766Y-120407012D01*
X158474171Y-120478900D01*
X158474174Y-120478900D01*
X158596199Y-120503172D01*
X158718224Y-120478900D01*
X162934672Y-120478900D01*
X163056700Y-120503173D01*
X163178728Y-120478900D01*
X163178729Y-120478900D01*
X163540134Y-120407012D01*
X163949969Y-120133169D01*
X164019096Y-120029713D01*
X165674216Y-118374594D01*
X165777669Y-118305469D01*
X165881227Y-118150483D01*
X165874098Y-124086000D01*
X105264463Y-124086000D01*
X105883716Y-123830883D01*
X105894528Y-123823659D01*
X106200586Y-123380191D01*
X104000000Y-121179605D01*
X101799414Y-123380191D01*
X102105472Y-123823659D01*
X102735410Y-124086000D01*
X100914000Y-124086000D01*
X100914000Y-122264463D01*
X101169117Y-122883716D01*
X101176341Y-122894528D01*
X101619809Y-123200586D01*
X103820395Y-121000000D01*
X104179605Y-121000000D01*
X106380191Y-123200586D01*
X106823659Y-122894528D01*
X107333725Y-121669748D01*
X107336262Y-120343005D01*
X106830883Y-119116284D01*
X106823659Y-119105472D01*
X106380191Y-118799414D01*
X104179605Y-121000000D01*
X103820395Y-121000000D01*
X101619809Y-118799414D01*
X101176341Y-119105472D01*
X100914000Y-119735410D01*
X100914000Y-118619809D01*
X101799414Y-118619809D01*
X104000000Y-120820395D01*
X106200586Y-118619809D01*
X105894528Y-118176341D01*
X104669748Y-117666275D01*
X103343005Y-117663738D01*
X102116284Y-118169117D01*
X102105472Y-118176341D01*
X101799414Y-118619809D01*
X100914000Y-118619809D01*
X100914000Y-108986859D01*
X104723000Y-108986859D01*
X104723000Y-109813141D01*
X105039204Y-110576526D01*
X105623474Y-111160796D01*
X106386859Y-111477000D01*
X107213141Y-111477000D01*
X107976526Y-111160796D01*
X108560796Y-110576526D01*
X108877000Y-109813141D01*
X108877000Y-108986859D01*
X108560796Y-108223474D01*
X107976526Y-107639204D01*
X107213141Y-107323000D01*
X106386859Y-107323000D01*
X105623474Y-107639204D01*
X105039204Y-108223474D01*
X104723000Y-108986859D01*
X100914000Y-108986859D01*
X100914000Y-106682989D01*
X108573000Y-106682989D01*
X108573000Y-107557011D01*
X108907473Y-108364501D01*
X109525499Y-108982527D01*
X109975000Y-109168716D01*
X109975001Y-117070054D01*
X109933670Y-117097670D01*
X109728785Y-117404303D01*
X109656839Y-117766000D01*
X109656839Y-119366000D01*
X109728785Y-119727697D01*
X109933670Y-120034330D01*
X110240303Y-120239215D01*
X110602000Y-120311161D01*
X112202000Y-120311161D01*
X112563697Y-120239215D01*
X112870330Y-120034330D01*
X113075215Y-119727697D01*
X113105837Y-119573745D01*
X114073861Y-119573745D01*
X114147995Y-119819864D01*
X114685223Y-120012965D01*
X115255454Y-119985778D01*
X115656005Y-119819864D01*
X115730139Y-119573745D01*
X114902000Y-118745605D01*
X114073861Y-119573745D01*
X113105837Y-119573745D01*
X113147161Y-119366000D01*
X113147161Y-118349223D01*
X113455035Y-118349223D01*
X113482222Y-118919454D01*
X113648136Y-119320005D01*
X113894255Y-119394139D01*
X114722395Y-118566000D01*
X115081605Y-118566000D01*
X115909745Y-119394139D01*
X116155864Y-119320005D01*
X116348965Y-118782777D01*
X116321778Y-118212546D01*
X116155864Y-117811995D01*
X115909745Y-117737861D01*
X115081605Y-118566000D01*
X114722395Y-118566000D01*
X113894255Y-117737861D01*
X113648136Y-117811995D01*
X113455035Y-118349223D01*
X113147161Y-118349223D01*
X113147161Y-117766000D01*
X113105838Y-117558255D01*
X114073861Y-117558255D01*
X114902000Y-118386395D01*
X115730139Y-117558255D01*
X115656005Y-117312136D01*
X115118777Y-117119035D01*
X114548546Y-117146222D01*
X114147995Y-117312136D01*
X114073861Y-117558255D01*
X113105838Y-117558255D01*
X113075215Y-117404303D01*
X112870330Y-117097670D01*
X112829000Y-117070054D01*
X112829000Y-110661025D01*
X121118581Y-110661025D01*
X121235601Y-110943446D01*
X121899663Y-111195018D01*
X122609448Y-111173314D01*
X123164399Y-110943446D01*
X123281419Y-110661025D01*
X122200000Y-109579605D01*
X121118581Y-110661025D01*
X112829000Y-110661025D01*
X112829000Y-109099663D01*
X120404982Y-109099663D01*
X120426686Y-109809448D01*
X120656554Y-110364399D01*
X120938975Y-110481419D01*
X122020395Y-109400000D01*
X122379605Y-109400000D01*
X123461025Y-110481419D01*
X123743446Y-110364399D01*
X123995018Y-109700337D01*
X123973314Y-108990552D01*
X123743446Y-108435601D01*
X123461025Y-108318581D01*
X122379605Y-109400000D01*
X122020395Y-109400000D01*
X120938975Y-108318581D01*
X120656554Y-108435601D01*
X120404982Y-109099663D01*
X112829000Y-109099663D01*
X112829000Y-108467777D01*
X115151828Y-108467777D01*
X115283520Y-108762657D01*
X115991036Y-109034261D01*
X116748632Y-109014436D01*
X117356480Y-108762657D01*
X117488172Y-108467777D01*
X116320000Y-107299605D01*
X115151828Y-108467777D01*
X112829000Y-108467777D01*
X112829000Y-107892540D01*
X112829906Y-107887985D01*
X112967000Y-107557011D01*
X112967000Y-106791036D01*
X114405739Y-106791036D01*
X114425564Y-107548632D01*
X114677343Y-108156480D01*
X114972223Y-108288172D01*
X116140395Y-107120000D01*
X116499605Y-107120000D01*
X117667777Y-108288172D01*
X117962657Y-108156480D01*
X117969376Y-108138975D01*
X121118581Y-108138975D01*
X122200000Y-109220395D01*
X123281419Y-108138975D01*
X123164399Y-107856554D01*
X122500337Y-107604982D01*
X121790552Y-107626686D01*
X121235601Y-107856554D01*
X121118581Y-108138975D01*
X117969376Y-108138975D01*
X118234261Y-107448964D01*
X118214436Y-106691368D01*
X117962657Y-106083520D01*
X117667777Y-105951828D01*
X116499605Y-107120000D01*
X116140395Y-107120000D01*
X114972223Y-105951828D01*
X114677343Y-106083520D01*
X114405739Y-106791036D01*
X112967000Y-106791036D01*
X112967000Y-106682989D01*
X112632527Y-105875499D01*
X112529251Y-105772223D01*
X115151828Y-105772223D01*
X116320000Y-106940395D01*
X117488172Y-105772223D01*
X117356480Y-105477343D01*
X116648964Y-105205739D01*
X115891368Y-105225564D01*
X115283520Y-105477343D01*
X115151828Y-105772223D01*
X112529251Y-105772223D01*
X112014501Y-105257473D01*
X111207011Y-104923000D01*
X110332989Y-104923000D01*
X109525499Y-105257473D01*
X108907473Y-105875499D01*
X108573000Y-106682989D01*
X100914000Y-106682989D01*
X100914000Y-71380191D01*
X101799414Y-71380191D01*
X102105472Y-71823659D01*
X103330252Y-72333725D01*
X104656995Y-72336262D01*
X105883716Y-71830883D01*
X105894528Y-71823659D01*
X106200586Y-71380191D01*
X104000000Y-69179605D01*
X101799414Y-71380191D01*
X100914000Y-71380191D01*
X100914000Y-70264463D01*
X101169117Y-70883716D01*
X101176341Y-70894528D01*
X101619809Y-71200586D01*
X103820395Y-69000000D01*
X104179605Y-69000000D01*
X106380191Y-71200586D01*
X106823659Y-70894528D01*
X107333725Y-69669748D01*
X107336262Y-68343005D01*
X106830883Y-67116284D01*
X106823659Y-67105472D01*
X106380191Y-66799414D01*
X104179605Y-69000000D01*
X103820395Y-69000000D01*
X101619809Y-66799414D01*
X101176341Y-67105472D01*
X100914000Y-67735410D01*
X100914000Y-65914000D01*
X102735537Y-65914000D01*
X102116284Y-66169117D01*
G36*
X161834581Y-102941130D02*
G01*
X161765584Y-103288000D01*
X161765584Y-104888000D01*
X161834581Y-105234870D01*
X162031067Y-105528933D01*
X162233001Y-105663860D01*
X162233000Y-108047926D01*
X162232327Y-108046301D01*
X162053698Y-107867673D01*
X161820309Y-107771000D01*
X161217750Y-107771000D01*
X161059000Y-107929750D01*
X161059000Y-109041000D01*
X161079000Y-109041000D01*
X161079000Y-109295000D01*
X161059000Y-109295000D01*
X161059000Y-109315000D01*
X160805000Y-109315000D01*
X160805000Y-109295000D01*
X160785000Y-109295000D01*
X160785000Y-109041000D01*
X160805000Y-109041000D01*
X160805000Y-107929750D01*
X160749900Y-107874650D01*
X160749900Y-104006809D01*
X161872843Y-102883867D01*
X161834581Y-102941130D01*
X161834581Y-102941130D01*
G37*
X161834581Y-102941130D02*
X161765584Y-103288000D01*
X161765584Y-104888000D01*
X161834581Y-105234870D01*
X162031067Y-105528933D01*
X162233001Y-105663860D01*
X162233000Y-108047926D01*
X162232327Y-108046301D01*
X162053698Y-107867673D01*
X161820309Y-107771000D01*
X161217750Y-107771000D01*
X161059000Y-107929750D01*
X161059000Y-109041000D01*
X161079000Y-109041000D01*
X161079000Y-109295000D01*
X161059000Y-109295000D01*
X161059000Y-109315000D01*
X160805000Y-109315000D01*
X160805000Y-109295000D01*
X160785000Y-109295000D01*
X160785000Y-109041000D01*
X160805000Y-109041000D01*
X160805000Y-107929750D01*
X160749900Y-107874650D01*
X160749900Y-104006809D01*
X161872843Y-102883867D01*
X161834581Y-102941130D01*
G36*
X184116284Y-66169117D02*
G01*
X184105472Y-66176341D01*
X183799414Y-66619809D01*
X186000000Y-68820395D01*
X188200586Y-66619809D01*
X187894528Y-66176341D01*
X187264590Y-65914000D01*
X189086000Y-65914000D01*
X189086000Y-67735537D01*
X188830883Y-67116284D01*
X188823659Y-67105472D01*
X188380191Y-66799414D01*
X186179605Y-69000000D01*
X188380191Y-71200586D01*
X188823659Y-70894528D01*
X189086000Y-70264590D01*
X189086001Y-105739000D01*
X185489703Y-105739000D01*
X186018741Y-105519865D01*
X186493865Y-105044741D01*
X186751000Y-104423963D01*
X186751000Y-103752037D01*
X186493865Y-103131259D01*
X186018741Y-102656135D01*
X185397963Y-102399000D01*
X185125210Y-102399000D01*
X184771000Y-102044790D01*
X184771000Y-100508286D01*
X184845223Y-100534965D01*
X185415454Y-100507778D01*
X185816005Y-100341864D01*
X185890139Y-100095745D01*
X185062000Y-99267605D01*
X185047858Y-99281748D01*
X184868253Y-99102143D01*
X184882395Y-99088000D01*
X185241605Y-99088000D01*
X186069745Y-99916139D01*
X186315864Y-99842005D01*
X186508965Y-99304777D01*
X186481778Y-98734546D01*
X186315864Y-98333995D01*
X186069745Y-98259861D01*
X185241605Y-99088000D01*
X184882395Y-99088000D01*
X184868253Y-99073858D01*
X185047858Y-98894253D01*
X185062000Y-98908395D01*
X185890139Y-98080255D01*
X185816005Y-97834136D01*
X185278777Y-97641035D01*
X184771000Y-97665244D01*
X184771000Y-95630209D01*
X185987618Y-94413592D01*
X186058870Y-94399419D01*
X186352933Y-94202933D01*
X186376176Y-94168147D01*
X186412000Y-94175273D01*
X186534028Y-94151000D01*
X186534029Y-94151000D01*
X186895434Y-94079112D01*
X187305269Y-93805269D01*
X187374396Y-93701814D01*
X187676115Y-93400095D01*
X187779569Y-93330969D01*
X188053412Y-92921134D01*
X188125300Y-92559729D01*
X188125300Y-92559724D01*
X188149572Y-92437701D01*
X188125300Y-92315677D01*
X188125300Y-89707428D01*
X188149573Y-89585400D01*
X188053412Y-89101966D01*
X187848693Y-88795582D01*
X187848692Y-88795581D01*
X187779569Y-88692131D01*
X187676119Y-88623008D01*
X186822604Y-87769494D01*
X186999419Y-87504870D01*
X187068416Y-87158000D01*
X187068416Y-85458000D01*
X186999419Y-85111130D01*
X186802933Y-84817067D01*
X186513146Y-84623438D01*
X186732352Y-84235491D01*
X186753476Y-84124890D01*
X186632155Y-83895000D01*
X185189000Y-83895000D01*
X185189000Y-83915000D01*
X184935000Y-83915000D01*
X184935000Y-83895000D01*
X183491845Y-83895000D01*
X183370524Y-84124890D01*
X183391648Y-84235491D01*
X183610854Y-84623438D01*
X183321067Y-84817067D01*
X183124581Y-85111130D01*
X183055584Y-85458000D01*
X183055584Y-87158000D01*
X183124581Y-87504870D01*
X183321067Y-87798933D01*
X183615130Y-87995419D01*
X183834751Y-88039104D01*
X183894888Y-88341434D01*
X184168731Y-88751269D01*
X184430930Y-88926465D01*
X184168701Y-89035084D01*
X183725084Y-89478701D01*
X183485000Y-90058315D01*
X183485000Y-90372619D01*
X183462572Y-90373917D01*
X183128271Y-90512389D01*
X183072590Y-90742984D01*
X183792000Y-91462395D01*
X183806143Y-91448253D01*
X183895688Y-91537798D01*
X183771067Y-91621067D01*
X183574581Y-91915130D01*
X183543818Y-92069788D01*
X183072590Y-92541016D01*
X183128271Y-92771611D01*
X183505584Y-92902911D01*
X183505584Y-93391207D01*
X183127322Y-93769469D01*
X183044016Y-93713806D01*
X181442610Y-92112401D01*
X181319003Y-91490985D01*
X181299020Y-91461078D01*
X182494378Y-91461078D01*
X182523917Y-91971428D01*
X182662389Y-92305729D01*
X182892984Y-92361410D01*
X183612395Y-91642000D01*
X182892984Y-90922590D01*
X182662389Y-90978271D01*
X182494378Y-91461078D01*
X181299020Y-91461078D01*
X180945701Y-90932299D01*
X180901629Y-90902851D01*
X180973097Y-90855097D01*
X181354798Y-90283842D01*
X181488833Y-89610000D01*
X181354798Y-88936158D01*
X180973097Y-88364903D01*
X180901629Y-88317149D01*
X180945701Y-88287701D01*
X181319003Y-87729015D01*
X181450089Y-87070000D01*
X181319003Y-86410985D01*
X180945701Y-85852299D01*
X180623961Y-85637319D01*
X180959041Y-85267423D01*
X181119904Y-84879039D01*
X180997915Y-84657000D01*
X179855000Y-84657000D01*
X179855000Y-84677000D01*
X179601000Y-84677000D01*
X179601000Y-84657000D01*
X178458085Y-84657000D01*
X178336096Y-84879039D01*
X178496959Y-85267423D01*
X178832039Y-85637319D01*
X178510299Y-85852299D01*
X178136997Y-86410985D01*
X178005911Y-87070000D01*
X178136997Y-87729015D01*
X178510299Y-88287701D01*
X178554371Y-88317149D01*
X178482903Y-88364903D01*
X178101202Y-88936158D01*
X177967167Y-89610000D01*
X178101202Y-90283842D01*
X178482903Y-90855097D01*
X178554371Y-90902851D01*
X178510299Y-90932299D01*
X178136997Y-91490985D01*
X178005911Y-92150000D01*
X178136997Y-92809015D01*
X178510299Y-93367701D01*
X178588570Y-93420000D01*
X178510299Y-93472299D01*
X178136997Y-94030985D01*
X178013390Y-94652399D01*
X173641246Y-99024545D01*
X173325701Y-98552299D01*
X173247430Y-98500000D01*
X173325701Y-98447701D01*
X173699003Y-97889015D01*
X173830089Y-97230000D01*
X173699003Y-96570985D01*
X173325701Y-96012299D01*
X173247430Y-95960000D01*
X173325701Y-95907701D01*
X173699003Y-95349015D01*
X173830089Y-94690000D01*
X173699003Y-94030985D01*
X173325701Y-93472299D01*
X173247430Y-93420000D01*
X173325701Y-93367701D01*
X173699003Y-92809015D01*
X173830089Y-92150000D01*
X173699003Y-91490985D01*
X173325701Y-90932299D01*
X173247430Y-90880000D01*
X173325701Y-90827701D01*
X173699003Y-90269015D01*
X173830089Y-89610000D01*
X173699003Y-88950985D01*
X173325701Y-88392299D01*
X173003961Y-88177319D01*
X173339041Y-87807423D01*
X173499904Y-87419039D01*
X173377915Y-87197000D01*
X172235000Y-87197000D01*
X172235000Y-87217000D01*
X171981000Y-87217000D01*
X171981000Y-87197000D01*
X170838085Y-87197000D01*
X170716096Y-87419039D01*
X170876959Y-87807423D01*
X171212039Y-88177319D01*
X170922175Y-88371000D01*
X165958310Y-88371000D01*
X165710187Y-88122877D01*
X165927613Y-87905451D01*
X166154300Y-87358180D01*
X166154300Y-86765820D01*
X165927613Y-86218549D01*
X165904300Y-86195236D01*
X165904300Y-82073309D01*
X166378760Y-81598849D01*
X166535920Y-81978267D01*
X167021733Y-82464080D01*
X167656478Y-82727000D01*
X167708918Y-82727000D01*
X168580700Y-83598783D01*
X168580700Y-84389456D01*
X168552744Y-84530000D01*
X168663496Y-85086788D01*
X168978891Y-85558809D01*
X169376624Y-85824566D01*
X169450912Y-85874204D01*
X170007700Y-85984956D01*
X170148244Y-85957000D01*
X171135140Y-85957000D01*
X171186249Y-85991150D01*
X170876959Y-86332577D01*
X170716096Y-86720961D01*
X170838085Y-86943000D01*
X171981000Y-86943000D01*
X171981000Y-86923000D01*
X172235000Y-86923000D01*
X172235000Y-86943000D01*
X173377915Y-86943000D01*
X173499904Y-86720961D01*
X173339041Y-86332577D01*
X173029751Y-85991150D01*
X173353097Y-85775097D01*
X173734798Y-85203842D01*
X173868833Y-84530000D01*
X173734798Y-83856158D01*
X173353097Y-83284903D01*
X173281629Y-83237149D01*
X173325701Y-83207701D01*
X173699003Y-82649015D01*
X173830089Y-81990000D01*
X173699003Y-81330985D01*
X173325701Y-80772299D01*
X173247430Y-80720000D01*
X173325701Y-80667701D01*
X173699003Y-80109015D01*
X173822610Y-79487599D01*
X175396216Y-77913994D01*
X175499669Y-77844869D01*
X175773512Y-77435034D01*
X175845400Y-77073629D01*
X175845400Y-77073628D01*
X175869673Y-76951601D01*
X175845400Y-76829572D01*
X175845400Y-69290000D01*
X178005911Y-69290000D01*
X178136997Y-69949015D01*
X178510299Y-70507701D01*
X178588570Y-70560000D01*
X178510299Y-70612299D01*
X178136997Y-71170985D01*
X178005911Y-71830000D01*
X178136997Y-72489015D01*
X178510299Y-73047701D01*
X178588570Y-73100000D01*
X178510299Y-73152299D01*
X178136997Y-73710985D01*
X178005911Y-74370000D01*
X178136997Y-75029015D01*
X178510299Y-75587701D01*
X178588570Y-75640000D01*
X178510299Y-75692299D01*
X178136997Y-76250985D01*
X178005911Y-76910000D01*
X178136997Y-77569015D01*
X178510299Y-78127701D01*
X178588570Y-78180000D01*
X178510299Y-78232299D01*
X178136997Y-78790985D01*
X178005911Y-79450000D01*
X178136997Y-80109015D01*
X178510299Y-80667701D01*
X178588570Y-80720000D01*
X178510299Y-80772299D01*
X178136997Y-81330985D01*
X178005911Y-81990000D01*
X178136997Y-82649015D01*
X178510299Y-83207701D01*
X178832039Y-83422681D01*
X178496959Y-83792577D01*
X178336096Y-84180961D01*
X178458085Y-84403000D01*
X179601000Y-84403000D01*
X179601000Y-84383000D01*
X179855000Y-84383000D01*
X179855000Y-84403000D01*
X180997915Y-84403000D01*
X181119904Y-84180961D01*
X180959041Y-83792577D01*
X180623961Y-83422681D01*
X180945701Y-83207701D01*
X181319003Y-82649015D01*
X181450089Y-81990000D01*
X181319003Y-81330985D01*
X180945701Y-80772299D01*
X180867430Y-80720000D01*
X180945701Y-80667701D01*
X181319003Y-80109015D01*
X181450089Y-79450000D01*
X181319003Y-78790985D01*
X180945701Y-78232299D01*
X180867430Y-78180000D01*
X180945701Y-78127701D01*
X181319003Y-77569015D01*
X181450089Y-76910000D01*
X181319003Y-76250985D01*
X180945701Y-75692299D01*
X180867430Y-75640000D01*
X180945701Y-75587701D01*
X181319003Y-75029015D01*
X181450089Y-74370000D01*
X181319003Y-73710985D01*
X180945701Y-73152299D01*
X180867430Y-73100000D01*
X180913825Y-73069000D01*
X182606191Y-73069000D01*
X184081690Y-74544500D01*
X183558251Y-74894251D01*
X183173898Y-75469476D01*
X183038931Y-76148000D01*
X183173898Y-76826524D01*
X183558251Y-77401749D01*
X183582572Y-77418000D01*
X183558251Y-77434251D01*
X183173898Y-78009476D01*
X183038931Y-78688000D01*
X183173898Y-79366524D01*
X183558251Y-79941749D01*
X183582572Y-79958000D01*
X183558251Y-79974251D01*
X183173898Y-80549476D01*
X183038931Y-81228000D01*
X183173898Y-81906524D01*
X183558251Y-82481749D01*
X183837484Y-82668326D01*
X183678667Y-82792549D01*
X183391648Y-83300509D01*
X183370524Y-83411110D01*
X183491845Y-83641000D01*
X184935000Y-83641000D01*
X184935000Y-83621000D01*
X185189000Y-83621000D01*
X185189000Y-83641000D01*
X186632155Y-83641000D01*
X186753476Y-83411110D01*
X186732352Y-83300509D01*
X186445333Y-82792549D01*
X186286516Y-82668326D01*
X186565749Y-82481749D01*
X186950102Y-81906524D01*
X187085069Y-81228000D01*
X186950102Y-80549476D01*
X186565749Y-79974251D01*
X186541428Y-79958000D01*
X186565749Y-79941749D01*
X186950102Y-79366524D01*
X187085069Y-78688000D01*
X187040131Y-78462080D01*
X187610518Y-77891693D01*
X187713969Y-77822569D01*
X187987812Y-77412734D01*
X188059700Y-77051329D01*
X188059700Y-77051324D01*
X188083972Y-76929301D01*
X188059700Y-76807277D01*
X188059700Y-75653328D01*
X188083973Y-75531300D01*
X188037104Y-75295671D01*
X187987812Y-75047866D01*
X187911907Y-74934266D01*
X187783093Y-74741482D01*
X187783092Y-74741481D01*
X187713969Y-74638031D01*
X187610519Y-74568908D01*
X185375421Y-72333811D01*
X186656995Y-72336262D01*
X187883716Y-71830883D01*
X187894528Y-71823659D01*
X188200586Y-71380191D01*
X186000000Y-69179605D01*
X185985858Y-69193748D01*
X185806253Y-69014143D01*
X185820395Y-69000000D01*
X183619809Y-66799414D01*
X183176341Y-67105472D01*
X182666275Y-68330252D01*
X182663738Y-69656995D01*
X183044651Y-70581596D01*
X182997372Y-70591000D01*
X180913825Y-70591000D01*
X180867430Y-70560000D01*
X180945701Y-70507701D01*
X181319003Y-69949015D01*
X181450089Y-69290000D01*
X181319003Y-68630985D01*
X180945701Y-68072299D01*
X180387015Y-67698997D01*
X179894350Y-67601000D01*
X179561650Y-67601000D01*
X179068985Y-67698997D01*
X178510299Y-68072299D01*
X178136997Y-68630985D01*
X178005911Y-69290000D01*
X175845400Y-69290000D01*
X175845400Y-67907523D01*
X175869672Y-67785499D01*
X175845400Y-67663476D01*
X175845400Y-67663471D01*
X175773512Y-67302066D01*
X175499669Y-66892231D01*
X175396218Y-66823107D01*
X174616996Y-66043886D01*
X174547869Y-65940431D01*
X174508312Y-65914000D01*
X184735537Y-65914000D01*
X184116284Y-66169117D01*
X184116284Y-66169117D01*
G37*
X184116284Y-66169117D02*
X184105472Y-66176341D01*
X183799414Y-66619809D01*
X186000000Y-68820395D01*
X188200586Y-66619809D01*
X187894528Y-66176341D01*
X187264590Y-65914000D01*
X189086000Y-65914000D01*
X189086000Y-67735537D01*
X188830883Y-67116284D01*
X188823659Y-67105472D01*
X188380191Y-66799414D01*
X186179605Y-69000000D01*
X188380191Y-71200586D01*
X188823659Y-70894528D01*
X189086000Y-70264590D01*
X189086001Y-105739000D01*
X185489703Y-105739000D01*
X186018741Y-105519865D01*
X186493865Y-105044741D01*
X186751000Y-104423963D01*
X186751000Y-103752037D01*
X186493865Y-103131259D01*
X186018741Y-102656135D01*
X185397963Y-102399000D01*
X185125210Y-102399000D01*
X184771000Y-102044790D01*
X184771000Y-100508286D01*
X184845223Y-100534965D01*
X185415454Y-100507778D01*
X185816005Y-100341864D01*
X185890139Y-100095745D01*
X185062000Y-99267605D01*
X185047858Y-99281748D01*
X184868253Y-99102143D01*
X184882395Y-99088000D01*
X185241605Y-99088000D01*
X186069745Y-99916139D01*
X186315864Y-99842005D01*
X186508965Y-99304777D01*
X186481778Y-98734546D01*
X186315864Y-98333995D01*
X186069745Y-98259861D01*
X185241605Y-99088000D01*
X184882395Y-99088000D01*
X184868253Y-99073858D01*
X185047858Y-98894253D01*
X185062000Y-98908395D01*
X185890139Y-98080255D01*
X185816005Y-97834136D01*
X185278777Y-97641035D01*
X184771000Y-97665244D01*
X184771000Y-95630209D01*
X185987618Y-94413592D01*
X186058870Y-94399419D01*
X186352933Y-94202933D01*
X186376176Y-94168147D01*
X186412000Y-94175273D01*
X186534028Y-94151000D01*
X186534029Y-94151000D01*
X186895434Y-94079112D01*
X187305269Y-93805269D01*
X187374396Y-93701814D01*
X187676115Y-93400095D01*
X187779569Y-93330969D01*
X188053412Y-92921134D01*
X188125300Y-92559729D01*
X188125300Y-92559724D01*
X188149572Y-92437701D01*
X188125300Y-92315677D01*
X188125300Y-89707428D01*
X188149573Y-89585400D01*
X188053412Y-89101966D01*
X187848693Y-88795582D01*
X187848692Y-88795581D01*
X187779569Y-88692131D01*
X187676119Y-88623008D01*
X186822604Y-87769494D01*
X186999419Y-87504870D01*
X187068416Y-87158000D01*
X187068416Y-85458000D01*
X186999419Y-85111130D01*
X186802933Y-84817067D01*
X186513146Y-84623438D01*
X186732352Y-84235491D01*
X186753476Y-84124890D01*
X186632155Y-83895000D01*
X185189000Y-83895000D01*
X185189000Y-83915000D01*
X184935000Y-83915000D01*
X184935000Y-83895000D01*
X183491845Y-83895000D01*
X183370524Y-84124890D01*
X183391648Y-84235491D01*
X183610854Y-84623438D01*
X183321067Y-84817067D01*
X183124581Y-85111130D01*
X183055584Y-85458000D01*
X183055584Y-87158000D01*
X183124581Y-87504870D01*
X183321067Y-87798933D01*
X183615130Y-87995419D01*
X183834751Y-88039104D01*
X183894888Y-88341434D01*
X184168731Y-88751269D01*
X184430930Y-88926465D01*
X184168701Y-89035084D01*
X183725084Y-89478701D01*
X183485000Y-90058315D01*
X183485000Y-90372619D01*
X183462572Y-90373917D01*
X183128271Y-90512389D01*
X183072590Y-90742984D01*
X183792000Y-91462395D01*
X183806143Y-91448253D01*
X183895688Y-91537798D01*
X183771067Y-91621067D01*
X183574581Y-91915130D01*
X183543818Y-92069788D01*
X183072590Y-92541016D01*
X183128271Y-92771611D01*
X183505584Y-92902911D01*
X183505584Y-93391207D01*
X183127322Y-93769469D01*
X183044016Y-93713806D01*
X181442610Y-92112401D01*
X181319003Y-91490985D01*
X181299020Y-91461078D01*
X182494378Y-91461078D01*
X182523917Y-91971428D01*
X182662389Y-92305729D01*
X182892984Y-92361410D01*
X183612395Y-91642000D01*
X182892984Y-90922590D01*
X182662389Y-90978271D01*
X182494378Y-91461078D01*
X181299020Y-91461078D01*
X180945701Y-90932299D01*
X180901629Y-90902851D01*
X180973097Y-90855097D01*
X181354798Y-90283842D01*
X181488833Y-89610000D01*
X181354798Y-88936158D01*
X180973097Y-88364903D01*
X180901629Y-88317149D01*
X180945701Y-88287701D01*
X181319003Y-87729015D01*
X181450089Y-87070000D01*
X181319003Y-86410985D01*
X180945701Y-85852299D01*
X180623961Y-85637319D01*
X180959041Y-85267423D01*
X181119904Y-84879039D01*
X180997915Y-84657000D01*
X179855000Y-84657000D01*
X179855000Y-84677000D01*
X179601000Y-84677000D01*
X179601000Y-84657000D01*
X178458085Y-84657000D01*
X178336096Y-84879039D01*
X178496959Y-85267423D01*
X178832039Y-85637319D01*
X178510299Y-85852299D01*
X178136997Y-86410985D01*
X178005911Y-87070000D01*
X178136997Y-87729015D01*
X178510299Y-88287701D01*
X178554371Y-88317149D01*
X178482903Y-88364903D01*
X178101202Y-88936158D01*
X177967167Y-89610000D01*
X178101202Y-90283842D01*
X178482903Y-90855097D01*
X178554371Y-90902851D01*
X178510299Y-90932299D01*
X178136997Y-91490985D01*
X178005911Y-92150000D01*
X178136997Y-92809015D01*
X178510299Y-93367701D01*
X178588570Y-93420000D01*
X178510299Y-93472299D01*
X178136997Y-94030985D01*
X178013390Y-94652399D01*
X173641246Y-99024545D01*
X173325701Y-98552299D01*
X173247430Y-98500000D01*
X173325701Y-98447701D01*
X173699003Y-97889015D01*
X173830089Y-97230000D01*
X173699003Y-96570985D01*
X173325701Y-96012299D01*
X173247430Y-95960000D01*
X173325701Y-95907701D01*
X173699003Y-95349015D01*
X173830089Y-94690000D01*
X173699003Y-94030985D01*
X173325701Y-93472299D01*
X173247430Y-93420000D01*
X173325701Y-93367701D01*
X173699003Y-92809015D01*
X173830089Y-92150000D01*
X173699003Y-91490985D01*
X173325701Y-90932299D01*
X173247430Y-90880000D01*
X173325701Y-90827701D01*
X173699003Y-90269015D01*
X173830089Y-89610000D01*
X173699003Y-88950985D01*
X173325701Y-88392299D01*
X173003961Y-88177319D01*
X173339041Y-87807423D01*
X173499904Y-87419039D01*
X173377915Y-87197000D01*
X172235000Y-87197000D01*
X172235000Y-87217000D01*
X171981000Y-87217000D01*
X171981000Y-87197000D01*
X170838085Y-87197000D01*
X170716096Y-87419039D01*
X170876959Y-87807423D01*
X171212039Y-88177319D01*
X170922175Y-88371000D01*
X165958310Y-88371000D01*
X165710187Y-88122877D01*
X165927613Y-87905451D01*
X166154300Y-87358180D01*
X166154300Y-86765820D01*
X165927613Y-86218549D01*
X165904300Y-86195236D01*
X165904300Y-82073309D01*
X166378760Y-81598849D01*
X166535920Y-81978267D01*
X167021733Y-82464080D01*
X167656478Y-82727000D01*
X167708918Y-82727000D01*
X168580700Y-83598783D01*
X168580700Y-84389456D01*
X168552744Y-84530000D01*
X168663496Y-85086788D01*
X168978891Y-85558809D01*
X169376624Y-85824566D01*
X169450912Y-85874204D01*
X170007700Y-85984956D01*
X170148244Y-85957000D01*
X171135140Y-85957000D01*
X171186249Y-85991150D01*
X170876959Y-86332577D01*
X170716096Y-86720961D01*
X170838085Y-86943000D01*
X171981000Y-86943000D01*
X171981000Y-86923000D01*
X172235000Y-86923000D01*
X172235000Y-86943000D01*
X173377915Y-86943000D01*
X173499904Y-86720961D01*
X173339041Y-86332577D01*
X173029751Y-85991150D01*
X173353097Y-85775097D01*
X173734798Y-85203842D01*
X173868833Y-84530000D01*
X173734798Y-83856158D01*
X173353097Y-83284903D01*
X173281629Y-83237149D01*
X173325701Y-83207701D01*
X173699003Y-82649015D01*
X173830089Y-81990000D01*
X173699003Y-81330985D01*
X173325701Y-80772299D01*
X173247430Y-80720000D01*
X173325701Y-80667701D01*
X173699003Y-80109015D01*
X173822610Y-79487599D01*
X175396216Y-77913994D01*
X175499669Y-77844869D01*
X175773512Y-77435034D01*
X175845400Y-77073629D01*
X175845400Y-77073628D01*
X175869673Y-76951601D01*
X175845400Y-76829572D01*
X175845400Y-69290000D01*
X178005911Y-69290000D01*
X178136997Y-69949015D01*
X178510299Y-70507701D01*
X178588570Y-70560000D01*
X178510299Y-70612299D01*
X178136997Y-71170985D01*
X178005911Y-71830000D01*
X178136997Y-72489015D01*
X178510299Y-73047701D01*
X178588570Y-73100000D01*
X178510299Y-73152299D01*
X178136997Y-73710985D01*
X178005911Y-74370000D01*
X178136997Y-75029015D01*
X178510299Y-75587701D01*
X178588570Y-75640000D01*
X178510299Y-75692299D01*
X178136997Y-76250985D01*
X178005911Y-76910000D01*
X178136997Y-77569015D01*
X178510299Y-78127701D01*
X178588570Y-78180000D01*
X178510299Y-78232299D01*
X178136997Y-78790985D01*
X178005911Y-79450000D01*
X178136997Y-80109015D01*
X178510299Y-80667701D01*
X178588570Y-80720000D01*
X178510299Y-80772299D01*
X178136997Y-81330985D01*
X178005911Y-81990000D01*
X178136997Y-82649015D01*
X178510299Y-83207701D01*
X178832039Y-83422681D01*
X178496959Y-83792577D01*
X178336096Y-84180961D01*
X178458085Y-84403000D01*
X179601000Y-84403000D01*
X179601000Y-84383000D01*
X179855000Y-84383000D01*
X179855000Y-84403000D01*
X180997915Y-84403000D01*
X181119904Y-84180961D01*
X180959041Y-83792577D01*
X180623961Y-83422681D01*
X180945701Y-83207701D01*
X181319003Y-82649015D01*
X181450089Y-81990000D01*
X181319003Y-81330985D01*
X180945701Y-80772299D01*
X180867430Y-80720000D01*
X180945701Y-80667701D01*
X181319003Y-80109015D01*
X181450089Y-79450000D01*
X181319003Y-78790985D01*
X180945701Y-78232299D01*
X180867430Y-78180000D01*
X180945701Y-78127701D01*
X181319003Y-77569015D01*
X181450089Y-76910000D01*
X181319003Y-76250985D01*
X180945701Y-75692299D01*
X180867430Y-75640000D01*
X180945701Y-75587701D01*
X181319003Y-75029015D01*
X181450089Y-74370000D01*
X181319003Y-73710985D01*
X180945701Y-73152299D01*
X180867430Y-73100000D01*
X180913825Y-73069000D01*
X182606191Y-73069000D01*
X184081690Y-74544500D01*
X183558251Y-74894251D01*
X183173898Y-75469476D01*
X183038931Y-76148000D01*
X183173898Y-76826524D01*
X183558251Y-77401749D01*
X183582572Y-77418000D01*
X183558251Y-77434251D01*
X183173898Y-78009476D01*
X183038931Y-78688000D01*
X183173898Y-79366524D01*
X183558251Y-79941749D01*
X183582572Y-79958000D01*
X183558251Y-79974251D01*
X183173898Y-80549476D01*
X183038931Y-81228000D01*
X183173898Y-81906524D01*
X183558251Y-82481749D01*
X183837484Y-82668326D01*
X183678667Y-82792549D01*
X183391648Y-83300509D01*
X183370524Y-83411110D01*
X183491845Y-83641000D01*
X184935000Y-83641000D01*
X184935000Y-83621000D01*
X185189000Y-83621000D01*
X185189000Y-83641000D01*
X186632155Y-83641000D01*
X186753476Y-83411110D01*
X186732352Y-83300509D01*
X186445333Y-82792549D01*
X186286516Y-82668326D01*
X186565749Y-82481749D01*
X186950102Y-81906524D01*
X187085069Y-81228000D01*
X186950102Y-80549476D01*
X186565749Y-79974251D01*
X186541428Y-79958000D01*
X186565749Y-79941749D01*
X186950102Y-79366524D01*
X187085069Y-78688000D01*
X187040131Y-78462080D01*
X187610518Y-77891693D01*
X187713969Y-77822569D01*
X187987812Y-77412734D01*
X188059700Y-77051329D01*
X188059700Y-77051324D01*
X188083972Y-76929301D01*
X188059700Y-76807277D01*
X188059700Y-75653328D01*
X188083973Y-75531300D01*
X188037104Y-75295671D01*
X187987812Y-75047866D01*
X187911907Y-74934266D01*
X187783093Y-74741482D01*
X187783092Y-74741481D01*
X187713969Y-74638031D01*
X187610519Y-74568908D01*
X185375421Y-72333811D01*
X186656995Y-72336262D01*
X187883716Y-71830883D01*
X187894528Y-71823659D01*
X188200586Y-71380191D01*
X186000000Y-69179605D01*
X185985858Y-69193748D01*
X185806253Y-69014143D01*
X185820395Y-69000000D01*
X183619809Y-66799414D01*
X183176341Y-67105472D01*
X182666275Y-68330252D01*
X182663738Y-69656995D01*
X183044651Y-70581596D01*
X182997372Y-70591000D01*
X180913825Y-70591000D01*
X180867430Y-70560000D01*
X180945701Y-70507701D01*
X181319003Y-69949015D01*
X181450089Y-69290000D01*
X181319003Y-68630985D01*
X180945701Y-68072299D01*
X180387015Y-67698997D01*
X179894350Y-67601000D01*
X179561650Y-67601000D01*
X179068985Y-67698997D01*
X178510299Y-68072299D01*
X178136997Y-68630985D01*
X178005911Y-69290000D01*
X175845400Y-69290000D01*
X175845400Y-67907523D01*
X175869672Y-67785499D01*
X175845400Y-67663476D01*
X175845400Y-67663471D01*
X175773512Y-67302066D01*
X175499669Y-66892231D01*
X175396218Y-66823107D01*
X174616996Y-66043886D01*
X174547869Y-65940431D01*
X174508312Y-65914000D01*
X184735537Y-65914000D01*
X184116284Y-66169117D01*
G36*
X163665748Y-101573858D02*
G01*
X163651605Y-101588000D01*
X163665748Y-101602142D01*
X163486142Y-101781748D01*
X163472000Y-101767605D01*
X163457858Y-101781748D01*
X163278252Y-101602142D01*
X163292395Y-101588000D01*
X163278253Y-101573858D01*
X163457858Y-101394253D01*
X163472000Y-101408395D01*
X163486143Y-101394253D01*
X163665748Y-101573858D01*
X163665748Y-101573858D01*
G37*
X163665748Y-101573858D02*
X163651605Y-101588000D01*
X163665748Y-101602142D01*
X163486142Y-101781748D01*
X163472000Y-101767605D01*
X163457858Y-101781748D01*
X163278252Y-101602142D01*
X163292395Y-101588000D01*
X163278253Y-101573858D01*
X163457858Y-101394253D01*
X163472000Y-101408395D01*
X163486143Y-101394253D01*
X163665748Y-101573858D01*
G36*
X160547581Y-91389477D02*
G01*
X161149983Y-91639000D01*
X161362791Y-91639000D01*
X162663606Y-92939816D01*
X162732731Y-93043269D01*
X163106317Y-93292891D01*
X163142566Y-93317112D01*
X163625999Y-93413273D01*
X163748028Y-93389000D01*
X170922175Y-93389000D01*
X170968570Y-93420000D01*
X170922175Y-93451000D01*
X170730028Y-93451000D01*
X170608000Y-93426727D01*
X170485971Y-93451000D01*
X170124566Y-93522888D01*
X169714731Y-93796731D01*
X169645608Y-93900181D01*
X166672793Y-96872998D01*
X166576252Y-96872998D01*
X166735000Y-96714250D01*
X166735000Y-96023691D01*
X166638327Y-95790302D01*
X166459699Y-95611673D01*
X166226310Y-95515000D01*
X165535750Y-95515000D01*
X165377000Y-95673750D01*
X165377000Y-96873000D01*
X165397000Y-96873000D01*
X165397000Y-97127000D01*
X165377000Y-97127000D01*
X165377000Y-97147000D01*
X165123000Y-97147000D01*
X165123000Y-97127000D01*
X162837000Y-97127000D01*
X162837000Y-97147000D01*
X162583000Y-97147000D01*
X162583000Y-97127000D01*
X162563000Y-97127000D01*
X162563000Y-96873000D01*
X162583000Y-96873000D01*
X162583000Y-95679845D01*
X162837000Y-95679845D01*
X162837000Y-96873000D01*
X165123000Y-96873000D01*
X165123000Y-95673750D01*
X164964250Y-95515000D01*
X164273690Y-95515000D01*
X164040301Y-95611673D01*
X163861673Y-95790302D01*
X163774864Y-95999878D01*
X163476924Y-95728355D01*
X163066890Y-95558524D01*
X162837000Y-95679845D01*
X162583000Y-95679845D01*
X162353110Y-95558524D01*
X161943076Y-95728355D01*
X161641272Y-96003399D01*
X161451145Y-95718855D01*
X160863351Y-95326103D01*
X160345017Y-95223000D01*
X159994983Y-95223000D01*
X159513422Y-95318788D01*
X159865018Y-94967193D01*
X159968469Y-94898069D01*
X160242312Y-94488234D01*
X160314200Y-94126829D01*
X160314200Y-94126824D01*
X160338472Y-94004801D01*
X160314200Y-93882777D01*
X160314200Y-91156096D01*
X160547581Y-91389477D01*
X160547581Y-91389477D01*
G37*
X160547581Y-91389477D02*
X161149983Y-91639000D01*
X161362791Y-91639000D01*
X162663606Y-92939816D01*
X162732731Y-93043269D01*
X163106317Y-93292891D01*
X163142566Y-93317112D01*
X163625999Y-93413273D01*
X163748028Y-93389000D01*
X170922175Y-93389000D01*
X170968570Y-93420000D01*
X170922175Y-93451000D01*
X170730028Y-93451000D01*
X170608000Y-93426727D01*
X170485971Y-93451000D01*
X170124566Y-93522888D01*
X169714731Y-93796731D01*
X169645608Y-93900181D01*
X166672793Y-96872998D01*
X166576252Y-96872998D01*
X166735000Y-96714250D01*
X166735000Y-96023691D01*
X166638327Y-95790302D01*
X166459699Y-95611673D01*
X166226310Y-95515000D01*
X165535750Y-95515000D01*
X165377000Y-95673750D01*
X165377000Y-96873000D01*
X165397000Y-96873000D01*
X165397000Y-97127000D01*
X165377000Y-97127000D01*
X165377000Y-97147000D01*
X165123000Y-97147000D01*
X165123000Y-97127000D01*
X162837000Y-97127000D01*
X162837000Y-97147000D01*
X162583000Y-97147000D01*
X162583000Y-97127000D01*
X162563000Y-97127000D01*
X162563000Y-96873000D01*
X162583000Y-96873000D01*
X162583000Y-95679845D01*
X162837000Y-95679845D01*
X162837000Y-96873000D01*
X165123000Y-96873000D01*
X165123000Y-95673750D01*
X164964250Y-95515000D01*
X164273690Y-95515000D01*
X164040301Y-95611673D01*
X163861673Y-95790302D01*
X163774864Y-95999878D01*
X163476924Y-95728355D01*
X163066890Y-95558524D01*
X162837000Y-95679845D01*
X162583000Y-95679845D01*
X162353110Y-95558524D01*
X161943076Y-95728355D01*
X161641272Y-96003399D01*
X161451145Y-95718855D01*
X160863351Y-95326103D01*
X160345017Y-95223000D01*
X159994983Y-95223000D01*
X159513422Y-95318788D01*
X159865018Y-94967193D01*
X159968469Y-94898069D01*
X160242312Y-94488234D01*
X160314200Y-94126829D01*
X160314200Y-94126824D01*
X160338472Y-94004801D01*
X160314200Y-93882777D01*
X160314200Y-91156096D01*
X160547581Y-91389477D01*
M02*
