G04 #@! TF.GenerationSoftware,KiCad,Pcbnew,(6.0.0-rc1-dev-1491-g0a4812be0)*
G04 #@! TF.CreationDate,2019-01-22T09:02:21+01:00
G04 #@! TF.ProjectId,atmega328,61746d65-6761-4333-9238-2e6b69636164,1*
G04 #@! TF.SameCoordinates,Original*
G04 #@! TF.FileFunction,Copper,L1,Top*
G04 #@! TF.FilePolarity,Positive*
%FSLAX46Y46*%
G04 Gerber Fmt 4.6, Leading zero omitted, Abs format (unit mm)*
G04 Created by KiCad (PCBNEW (6.0.0-rc1-dev-1491-g0a4812be0)) date 2019-01-22 09:02:21*
%MOMM*%
%LPD*%
G04 APERTURE LIST*
%ADD10C,2.540000*%
%ADD11O,2.200000X1.700000*%
%ADD12R,2.200000X1.700000*%
%ADD13C,1.600000*%
%ADD14R,1.600000X1.600000*%
%ADD15O,2.200000X2.200000*%
%ADD16R,2.200000X2.200000*%
%ADD17C,0.800000*%
%ADD18C,7.000000*%
%ADD19O,1.700000X1.700000*%
%ADD20R,1.700000X1.700000*%
%ADD21C,1.500000*%
%ADD22R,1.300000X1.300000*%
%ADD23C,1.300000*%
%ADD24C,2.300000*%
%ADD25R,2.000000X2.300000*%
%ADD26R,1.500000X1.500000*%
%ADD27R,2.540000X2.540000*%
%ADD28C,1.700000*%
%ADD29C,2.200000*%
%ADD30O,1.727200X1.727200*%
%ADD31R,1.727200X1.727200*%
%ADD32O,1.600000X1.600000*%
%ADD33C,1.800000*%
%ADD34R,1.800000X1.800000*%
%ADD35O,1.700000X2.200000*%
%ADD36R,1.700000X2.200000*%
%ADD37C,3.000000*%
%ADD38C,2.500000*%
%ADD39C,2.000000*%
%ADD40O,1.500000X1.500000*%
%ADD41C,1.524000*%
%ADD42R,1.524000X1.524000*%
%ADD43C,1.200000*%
%ADD44C,0.700000*%
%ADD45C,1.000000*%
%ADD46C,0.508000*%
%ADD47C,2.500000*%
%ADD48C,0.254000*%
G04 APERTURE END LIST*
D10*
X106080000Y-107410000D03*
X111160000Y-107410000D03*
X116240000Y-80740000D03*
X116240000Y-107410000D03*
X121320000Y-80740000D03*
D11*
X185062000Y-76148000D03*
X185062000Y-78688000D03*
D12*
X185062000Y-86308000D03*
D11*
X185062000Y-83768000D03*
X185062000Y-81228000D03*
D13*
X151000000Y-77640000D03*
D14*
X151000000Y-75640000D03*
D13*
X163472000Y-102088000D03*
D14*
X163472000Y-104088000D03*
D15*
X137564000Y-109168000D03*
D16*
X127404000Y-109168000D03*
D17*
X187856155Y-119143845D03*
X186000000Y-118375000D03*
X184143845Y-119143845D03*
X183375000Y-121000000D03*
X184143845Y-122856155D03*
X186000000Y-123625000D03*
X187856155Y-122856155D03*
X188625000Y-121000000D03*
D18*
X186000000Y-121000000D03*
D17*
X105856155Y-119143845D03*
X104000000Y-118375000D03*
X102143845Y-119143845D03*
X101375000Y-121000000D03*
X102143845Y-122856155D03*
X104000000Y-123625000D03*
X105856155Y-122856155D03*
X106625000Y-121000000D03*
D18*
X104000000Y-121000000D03*
D17*
X187856155Y-67143845D03*
X186000000Y-66375000D03*
X184143845Y-67143845D03*
X183375000Y-69000000D03*
X184143845Y-70856155D03*
X186000000Y-71625000D03*
X187856155Y-70856155D03*
X188625000Y-69000000D03*
D18*
X186000000Y-69000000D03*
D17*
X105856155Y-67143845D03*
X104000000Y-66375000D03*
X102143845Y-67143845D03*
X101375000Y-69000000D03*
X102143845Y-70856155D03*
X104000000Y-71625000D03*
X105856155Y-70856155D03*
X106625000Y-69000000D03*
D18*
X104000000Y-69000000D03*
D13*
X150852000Y-103072000D03*
X155852000Y-103072000D03*
D19*
X152550000Y-97000000D03*
X155090000Y-97000000D03*
X157630000Y-97000000D03*
X160170000Y-97000000D03*
X162710000Y-97000000D03*
D20*
X165250000Y-97000000D03*
D21*
X161476000Y-85120000D03*
X161476000Y-90000000D03*
D13*
X162000000Y-77000000D03*
X157000000Y-77000000D03*
X185062000Y-99088000D03*
X185062000Y-104088000D03*
X132404000Y-104850000D03*
X127404000Y-104850000D03*
X114902000Y-118566000D03*
D14*
X111402000Y-118566000D03*
D22*
X185062000Y-92912000D03*
D23*
X185062000Y-90372000D03*
X183792000Y-91642000D03*
D24*
X106040000Y-110140000D03*
X111240000Y-80740000D03*
D25*
X116240000Y-80740000D03*
D24*
X121440000Y-110140000D03*
D26*
X141120000Y-98500000D03*
D21*
X146200000Y-98500000D03*
X143660000Y-98500000D03*
D10*
X134450000Y-72150000D03*
D27*
X139450000Y-72150000D03*
D10*
X124450000Y-72150000D03*
D27*
X129450000Y-72150000D03*
D28*
X158250000Y-69544000D03*
X162750000Y-69544000D03*
D29*
X157000000Y-72044000D03*
X164000000Y-72044000D03*
D30*
X148460000Y-112216000D03*
X151000000Y-112216000D03*
X148460000Y-114756000D03*
X151000000Y-114756000D03*
X148460000Y-117296000D03*
D31*
X151000000Y-117296000D03*
D32*
X141660000Y-114756000D03*
D13*
X136580000Y-114756000D03*
D32*
X133278000Y-114756000D03*
D13*
X128198000Y-114756000D03*
D32*
X124896000Y-114756000D03*
D13*
X119816000Y-114756000D03*
D33*
X139077000Y-118825000D03*
D34*
X136537000Y-118825000D03*
D33*
X131577000Y-118825000D03*
D34*
X129037000Y-118825000D03*
D33*
X124077000Y-118825000D03*
D34*
X121537000Y-118825000D03*
D35*
X150000000Y-69544000D03*
D36*
X147460000Y-69544000D03*
D35*
X152540000Y-69544000D03*
D37*
X127912000Y-85800000D03*
D38*
X129862000Y-79850000D03*
D37*
X142112000Y-79800000D03*
X142062000Y-91850000D03*
D38*
X129862000Y-91850000D03*
D15*
X137564000Y-96722000D03*
D16*
X127404000Y-96722000D03*
D39*
X118641000Y-72094000D03*
X113561000Y-72084000D03*
D40*
X143406000Y-104850000D03*
D26*
X135786000Y-104850000D03*
D13*
X152296000Y-83300000D03*
X152296000Y-85800000D03*
X152296000Y-91348000D03*
X152296000Y-88848000D03*
D32*
X168000000Y-75920000D03*
D13*
X168000000Y-81000000D03*
D32*
X156360000Y-92690000D03*
D13*
X156360000Y-82530000D03*
D32*
X137564000Y-100532000D03*
D13*
X127404000Y-100532000D03*
D32*
X179728000Y-69290000D03*
X172108000Y-102310000D03*
X179728000Y-71830000D03*
X172108000Y-99770000D03*
X179728000Y-74370000D03*
X172108000Y-97230000D03*
X179728000Y-76910000D03*
X172108000Y-94690000D03*
X179728000Y-79450000D03*
X172108000Y-92150000D03*
X179728000Y-81990000D03*
X172108000Y-89610000D03*
X179728000Y-84530000D03*
X172108000Y-87070000D03*
X179728000Y-87070000D03*
X172108000Y-84530000D03*
X179728000Y-89610000D03*
X172108000Y-81990000D03*
X179728000Y-92150000D03*
X172108000Y-79450000D03*
X179728000Y-94690000D03*
X172108000Y-76910000D03*
X179728000Y-97230000D03*
X172108000Y-74370000D03*
X179728000Y-99770000D03*
X172108000Y-71830000D03*
X179728000Y-102310000D03*
D14*
X172108000Y-69290000D03*
D41*
X163472000Y-116788000D03*
X160932000Y-116788000D03*
X163472000Y-114248000D03*
X160932000Y-114248000D03*
X163472000Y-111708000D03*
X160932000Y-111708000D03*
X163472000Y-109168000D03*
D42*
X160932000Y-109168000D03*
D43*
X159394700Y-107814100D03*
X154141700Y-82094500D03*
D44*
X152296000Y-91348000D02*
X152296000Y-91559900D01*
X152296000Y-91559900D02*
X154896000Y-94159900D01*
X154896000Y-94159900D02*
X160644900Y-94159900D01*
X160644900Y-94159900D02*
X162710000Y-96225000D01*
X165250000Y-97000000D02*
X163700000Y-97000000D01*
X162710000Y-96225000D02*
X162925000Y-96225000D01*
X162925000Y-96225000D02*
X163700000Y-97000000D01*
X162710000Y-97000000D02*
X162710000Y-96225000D01*
X184568100Y-67568100D02*
X160225900Y-67568100D01*
X160225900Y-67568100D02*
X158250000Y-69544000D01*
X185406900Y-67568100D02*
X184568100Y-67568100D01*
X148460000Y-112216000D02*
X151508000Y-109168000D01*
X151508000Y-109168000D02*
X160932000Y-109168000D01*
X185406900Y-67568100D02*
X186000000Y-66975000D01*
X185406900Y-67568100D02*
X185406900Y-68406900D01*
X185406900Y-68406900D02*
X186000000Y-69000000D01*
X183975000Y-69000000D02*
X184568100Y-68406900D01*
X184568100Y-68406900D02*
X184568100Y-67568100D01*
X184568100Y-70431900D02*
X183975000Y-69838800D01*
X183975000Y-69838800D02*
X183975000Y-69000000D01*
X186000000Y-71025000D02*
X185161200Y-71025000D01*
X185161200Y-71025000D02*
X184568100Y-70431900D01*
X103406900Y-67568100D02*
X104000000Y-66975000D01*
X102568100Y-67568100D02*
X103406900Y-67568100D01*
X103406900Y-67568100D02*
X103406900Y-68406900D01*
X103406900Y-68406900D02*
X104000000Y-69000000D01*
X104296500Y-122431900D02*
X104000000Y-122728400D01*
X105431900Y-122431900D02*
X104296500Y-122431900D01*
X104296500Y-122431900D02*
X104296500Y-121296500D01*
X104296500Y-121296500D02*
X104000000Y-121000000D01*
X104000000Y-71025000D02*
X103161200Y-71025000D01*
X103161200Y-71025000D02*
X102568100Y-70431900D01*
X102568100Y-119568100D02*
X103406900Y-119568100D01*
X103406900Y-119568100D02*
X104000000Y-118975000D01*
X104000000Y-122728400D02*
X102864600Y-122728400D01*
X102864600Y-122728400D02*
X102568100Y-122431900D01*
X104000000Y-122728400D02*
X104000000Y-123025000D01*
X158250000Y-69544000D02*
X154090000Y-69544000D01*
X152540000Y-69544000D02*
X154090000Y-69544000D01*
X124312400Y-107267600D02*
X121440000Y-110140000D01*
X132404000Y-104850000D02*
X129986400Y-107267600D01*
X129986400Y-107267600D02*
X124312400Y-107267600D01*
X118970000Y-110140000D02*
X116240000Y-107410000D01*
X121440000Y-110140000D02*
X118970000Y-110140000D01*
X172108000Y-92150000D02*
X163626000Y-92150000D01*
X163626000Y-92150000D02*
X161476000Y-90000000D01*
X156360000Y-92690000D02*
X157860000Y-92690000D01*
X156360000Y-92690000D02*
X154860000Y-92690000D01*
X152296000Y-88848000D02*
X154860000Y-91412000D01*
X154860000Y-91412000D02*
X154860000Y-92690000D01*
X157860000Y-92690000D02*
X160550000Y-90000000D01*
X160550000Y-90000000D02*
X161476000Y-90000000D01*
X185062000Y-104088000D02*
X179982000Y-109168000D01*
X179982000Y-109168000D02*
X163472000Y-109168000D01*
X185062000Y-104088000D02*
X185862000Y-103288000D01*
X185862000Y-103288000D02*
X186399000Y-103288000D01*
X186399000Y-103288000D02*
X187452000Y-102235000D01*
X187452000Y-102235000D02*
X187452000Y-91872000D01*
X185062000Y-86383000D02*
X185062000Y-86308000D01*
X187452000Y-91872000D02*
X187452000Y-88773000D01*
X187452000Y-88773000D02*
X185062000Y-86383000D01*
X185062000Y-86383000D02*
X185039000Y-86360000D01*
X185062000Y-92912000D02*
X186412000Y-92912000D01*
X186412000Y-92912000D02*
X187452000Y-91872000D01*
X161476000Y-85120000D02*
X158950000Y-85120000D01*
X158950000Y-85120000D02*
X156360000Y-82530000D01*
X156360000Y-82530000D02*
X153090000Y-85800000D01*
X153090000Y-85800000D02*
X152296000Y-85800000D01*
X172108000Y-89610000D02*
X170608000Y-89610000D01*
X170608000Y-89610000D02*
X166118000Y-85120000D01*
X166118000Y-85120000D02*
X161476000Y-85120000D01*
D45*
X124077000Y-118825000D02*
X124077000Y-119952400D01*
X124077000Y-119952400D02*
X122980100Y-121049300D01*
X122980100Y-121049300D02*
X113885300Y-121049300D01*
X113885300Y-121049300D02*
X111402000Y-118566000D01*
X151000000Y-75640000D02*
X148899700Y-75640000D01*
X148899700Y-75640000D02*
X148899700Y-77058000D01*
X148899700Y-77058000D02*
X134107700Y-91850000D01*
X134107700Y-91850000D02*
X129862000Y-91850000D01*
X151401500Y-75640000D02*
X151000000Y-75640000D01*
X151401500Y-75640000D02*
X153100300Y-75640000D01*
X179840000Y-89722000D02*
X179728000Y-89610000D01*
D44*
X185062000Y-90372000D02*
X184412000Y-89722000D01*
X184412000Y-89722000D02*
X179840000Y-89722000D01*
X179840000Y-89722000D02*
X177733000Y-89722000D01*
X177733000Y-89722000D02*
X172980600Y-84969600D01*
D45*
X157000000Y-77000000D02*
X154460300Y-77000000D01*
X154460300Y-77000000D02*
X153100300Y-75640000D01*
X168000000Y-81000000D02*
X161000000Y-81000000D01*
X161000000Y-81000000D02*
X157000000Y-77000000D01*
X172980600Y-84969600D02*
X172547600Y-84969600D01*
X172547600Y-84969600D02*
X172108000Y-84530000D01*
D46*
X172980600Y-84969600D02*
X172593000Y-84582000D01*
D45*
X106040000Y-107450000D02*
X106080000Y-107410000D01*
X106040000Y-110140000D02*
X106040000Y-107450000D01*
X106040000Y-111766345D02*
X106040000Y-110140000D01*
X106040000Y-115004000D02*
X106040000Y-111766345D01*
X109602000Y-118566000D02*
X106040000Y-115004000D01*
X111402000Y-118566000D02*
X109602000Y-118566000D01*
D44*
X141120000Y-98500000D02*
X141120000Y-97050000D01*
X137564000Y-96722000D02*
X139364000Y-96722000D01*
X139364000Y-96722000D02*
X139692000Y-97050000D01*
X139692000Y-97050000D02*
X141120000Y-97050000D01*
X170608000Y-94690000D02*
X166397900Y-98900100D01*
X166397900Y-98900100D02*
X161281000Y-98900100D01*
X161281000Y-98900100D02*
X159280400Y-100900700D01*
X159280400Y-100900700D02*
X148805300Y-100900700D01*
X148805300Y-100900700D02*
X144856000Y-104850000D01*
X143406000Y-104850000D02*
X144856000Y-104850000D01*
X172108000Y-94690000D02*
X170608000Y-94690000D01*
X121537000Y-118825000D02*
X121537000Y-117225000D01*
X121537000Y-117225000D02*
X119816000Y-115504000D01*
X119816000Y-115504000D02*
X119816000Y-114756000D01*
X148460000Y-114756000D02*
X146896400Y-114756000D01*
X163472000Y-114248000D02*
X164915500Y-115691500D01*
X164915500Y-115691500D02*
X164915500Y-117358200D01*
X164915500Y-117358200D02*
X162948700Y-119325000D01*
X162948700Y-119325000D02*
X147621400Y-119325000D01*
X147621400Y-119325000D02*
X146413100Y-118116700D01*
X146413100Y-118116700D02*
X146413100Y-115239300D01*
X146413100Y-115239300D02*
X146896400Y-114756000D01*
X151000000Y-114756000D02*
X152563600Y-114756000D01*
X160932000Y-114248000D02*
X153071600Y-114248000D01*
X153071600Y-114248000D02*
X152563600Y-114756000D01*
X151000000Y-117296000D02*
X152563600Y-117296000D01*
X160932000Y-116788000D02*
X153071600Y-116788000D01*
X153071600Y-116788000D02*
X152563600Y-117296000D01*
X172108000Y-79450000D02*
X170608000Y-79450000D01*
X170608000Y-79450000D02*
X170133600Y-78975600D01*
X170133600Y-78975600D02*
X161864700Y-78975600D01*
X161864700Y-78975600D02*
X157259100Y-74370000D01*
X157259100Y-74370000D02*
X154826000Y-74370000D01*
X154826000Y-74370000D02*
X150000000Y-69544000D01*
X186820700Y-76820700D02*
X186820700Y-76929300D01*
X186790667Y-76790667D02*
X186820700Y-76820700D01*
X186812010Y-76769324D02*
X186790667Y-76790667D01*
X186812010Y-75526676D02*
X186812010Y-76769324D01*
X179728000Y-71830000D02*
X181830000Y-71830000D01*
X185933324Y-74647990D02*
X186812010Y-75526676D01*
X186820700Y-76929300D02*
X185062000Y-78688000D01*
X181830000Y-71830000D02*
X184647990Y-74647990D01*
X184647990Y-74647990D02*
X185933324Y-74647990D01*
X178228000Y-102310000D02*
X172823600Y-107714400D01*
X172823600Y-107714400D02*
X159494400Y-107714400D01*
X159494400Y-107714400D02*
X159394700Y-107814100D01*
X179728000Y-102310000D02*
X178228000Y-102310000D01*
D47*
X124394000Y-72094000D02*
X124450000Y-72150000D01*
D44*
X135786000Y-104850000D02*
X134336000Y-104850000D01*
X127404000Y-100532000D02*
X130199300Y-100532000D01*
X130199300Y-100532000D02*
X134336000Y-104668700D01*
X134336000Y-104668700D02*
X134336000Y-104850000D01*
X170608000Y-81990000D02*
X169587200Y-83010800D01*
X169587200Y-83010800D02*
X159241300Y-83010800D01*
X159241300Y-83010800D02*
X157028900Y-80798400D01*
X157028900Y-80798400D02*
X150048900Y-80798400D01*
X150048900Y-80798400D02*
X135769500Y-95077800D01*
X135769500Y-95077800D02*
X135769500Y-101238500D01*
X135769500Y-101238500D02*
X137186400Y-102655400D01*
X137186400Y-102655400D02*
X137186400Y-105944100D01*
X137186400Y-105944100D02*
X136830100Y-106300400D01*
X136830100Y-106300400D02*
X134602500Y-106300400D01*
X134602500Y-106300400D02*
X126396000Y-114506900D01*
X126396000Y-114506900D02*
X126396000Y-114756000D01*
X124896000Y-114756000D02*
X126396000Y-114756000D01*
X172108000Y-81990000D02*
X170608000Y-81990000D01*
X163053100Y-99900500D02*
X157415700Y-105537900D01*
X167937500Y-99900500D02*
X163053100Y-99900500D01*
X155891600Y-105537900D02*
X155067000Y-106362500D01*
X134778000Y-114756000D02*
X133278000Y-114756000D01*
X134778000Y-114445200D02*
X134778000Y-114756000D01*
X149338000Y-106362500D02*
X143514400Y-112186100D01*
X172108000Y-97230000D02*
X170608000Y-97230000D01*
X157415700Y-105537900D02*
X155891600Y-105537900D01*
X170608000Y-97230000D02*
X167937500Y-99900500D01*
X143514400Y-112186100D02*
X137037100Y-112186100D01*
X155067000Y-106362500D02*
X149338000Y-106362500D01*
X137037100Y-112186100D02*
X134778000Y-114445200D01*
X170608000Y-99770000D02*
X172108000Y-99770000D01*
X163839300Y-106538700D02*
X170608000Y-99770000D01*
X141660000Y-114756000D02*
X143160000Y-114756000D01*
X143160000Y-114756000D02*
X149966000Y-107950000D01*
X149966000Y-107950000D02*
X156146500Y-107950000D01*
X157557800Y-106538700D02*
X163839300Y-106538700D01*
X156146500Y-107950000D02*
X157557800Y-106538700D01*
X143256000Y-109220000D02*
X137414000Y-109220000D01*
X147938500Y-104537500D02*
X143256000Y-109220000D01*
X154386500Y-104537500D02*
X147938500Y-104537500D01*
X155852000Y-103072000D02*
X154386500Y-104537500D01*
X157630000Y-97000000D02*
X155810000Y-95180000D01*
X155810000Y-95180000D02*
X154058500Y-95180000D01*
X154058500Y-95180000D02*
X150813800Y-91935300D01*
X150813800Y-91935300D02*
X150813800Y-82662500D01*
X150813800Y-82662500D02*
X151652100Y-81824200D01*
X151652100Y-81824200D02*
X153871400Y-81824200D01*
X153871400Y-81824200D02*
X154141700Y-82094500D01*
D48*
G36*
X101265450Y-66085845D02*
G01*
X104000000Y-68820395D01*
X106734550Y-66085845D01*
X106603722Y-65914000D01*
X183396278Y-65914000D01*
X183265450Y-66085845D01*
X186000000Y-68820395D01*
X188734550Y-66085845D01*
X188603722Y-65914000D01*
X189086000Y-65914000D01*
X189086000Y-66396278D01*
X188914155Y-66265450D01*
X186179605Y-69000000D01*
X188914155Y-71734550D01*
X189086000Y-71603722D01*
X189086001Y-105739000D01*
X185419389Y-105739000D01*
X185554663Y-105712092D01*
X185862041Y-105584772D01*
X186138675Y-105399932D01*
X186373932Y-105164675D01*
X186558772Y-104888041D01*
X186686092Y-104580663D01*
X186704086Y-104490204D01*
X186875439Y-104438224D01*
X187090682Y-104323175D01*
X187279344Y-104168344D01*
X187318144Y-104121066D01*
X188285072Y-103154139D01*
X188332344Y-103115344D01*
X188487175Y-102926682D01*
X188602224Y-102711439D01*
X188673072Y-102477886D01*
X188679511Y-102412515D01*
X188696994Y-102235000D01*
X188691000Y-102174141D01*
X188691000Y-91932858D01*
X188696994Y-91872001D01*
X188691000Y-91811141D01*
X188691000Y-88833858D01*
X188696994Y-88772999D01*
X188673072Y-88530113D01*
X188602224Y-88296561D01*
X188533028Y-88167104D01*
X188487175Y-88081318D01*
X188332344Y-87892656D01*
X188285066Y-87853856D01*
X187055301Y-86624091D01*
X187055301Y-85458000D01*
X187038136Y-85283726D01*
X186987303Y-85116149D01*
X186904753Y-84961709D01*
X186793659Y-84826341D01*
X186658291Y-84715247D01*
X186517887Y-84640200D01*
X186613862Y-84503608D01*
X186732357Y-84235493D01*
X186753476Y-84124890D01*
X186632155Y-83895000D01*
X185189000Y-83895000D01*
X185189000Y-83915000D01*
X184935000Y-83915000D01*
X184935000Y-83895000D01*
X183491845Y-83895000D01*
X183370524Y-84124890D01*
X183391643Y-84235493D01*
X183510138Y-84503608D01*
X183606113Y-84640200D01*
X183465709Y-84715247D01*
X183330341Y-84826341D01*
X183219247Y-84961709D01*
X183136697Y-85116149D01*
X183085864Y-85283726D01*
X183068699Y-85458000D01*
X183068699Y-87158000D01*
X183085864Y-87332274D01*
X183136697Y-87499851D01*
X183219247Y-87654291D01*
X183330341Y-87789659D01*
X183465709Y-87900753D01*
X183620149Y-87983303D01*
X183787726Y-88034136D01*
X183962000Y-88051301D01*
X184978091Y-88051301D01*
X186213001Y-89286211D01*
X186213001Y-89292786D01*
X186067279Y-89147064D01*
X185808989Y-88974481D01*
X185521994Y-88855604D01*
X185319970Y-88815418D01*
X185319344Y-88814656D01*
X185124896Y-88655076D01*
X184903051Y-88536498D01*
X184662336Y-88463478D01*
X184474726Y-88445000D01*
X184412000Y-88438822D01*
X184349274Y-88445000D01*
X181006031Y-88445000D01*
X180955082Y-88382918D01*
X180872836Y-88315421D01*
X180928082Y-88270082D01*
X181139147Y-88012898D01*
X181295982Y-87719480D01*
X181392561Y-87401102D01*
X181425172Y-87070000D01*
X181392561Y-86738898D01*
X181295982Y-86420520D01*
X181139147Y-86127102D01*
X180928082Y-85869918D01*
X180670898Y-85658853D01*
X180632005Y-85638065D01*
X180791519Y-85493414D01*
X180959037Y-85267420D01*
X181079246Y-85013087D01*
X181119904Y-84879039D01*
X180997915Y-84657000D01*
X179855000Y-84657000D01*
X179855000Y-84677000D01*
X179601000Y-84677000D01*
X179601000Y-84657000D01*
X178458085Y-84657000D01*
X178336096Y-84879039D01*
X178376754Y-85013087D01*
X178496963Y-85267420D01*
X178664481Y-85493414D01*
X178823995Y-85638065D01*
X178785102Y-85658853D01*
X178527918Y-85869918D01*
X178316853Y-86127102D01*
X178160018Y-86420520D01*
X178063439Y-86738898D01*
X178030828Y-87070000D01*
X178063439Y-87401102D01*
X178160018Y-87719480D01*
X178316853Y-88012898D01*
X178527918Y-88270082D01*
X178583164Y-88315421D01*
X178500918Y-88382918D01*
X178449969Y-88445000D01*
X178261951Y-88445000D01*
X174334762Y-84517812D01*
X174305355Y-84420869D01*
X174172848Y-84172966D01*
X173994523Y-83955677D01*
X173777234Y-83777352D01*
X173618605Y-83692563D01*
X173550896Y-83565888D01*
X173335082Y-83302918D01*
X173252836Y-83235421D01*
X173308082Y-83190082D01*
X173519147Y-82932898D01*
X173675982Y-82639480D01*
X173772561Y-82321102D01*
X173805172Y-81990000D01*
X173772561Y-81658898D01*
X173675982Y-81340520D01*
X173519147Y-81047102D01*
X173308082Y-80789918D01*
X173222886Y-80720000D01*
X173308082Y-80650082D01*
X173519147Y-80392898D01*
X173675982Y-80099480D01*
X173772561Y-79781102D01*
X173805172Y-79450000D01*
X173772561Y-79118898D01*
X173675982Y-78800520D01*
X173519147Y-78507102D01*
X173308082Y-78249918D01*
X173222886Y-78180000D01*
X173308082Y-78110082D01*
X173519147Y-77852898D01*
X173675982Y-77559480D01*
X173772561Y-77241102D01*
X173805172Y-76910000D01*
X173772561Y-76578898D01*
X173675982Y-76260520D01*
X173519147Y-75967102D01*
X173308082Y-75709918D01*
X173222886Y-75640000D01*
X173308082Y-75570082D01*
X173519147Y-75312898D01*
X173675982Y-75019480D01*
X173772561Y-74701102D01*
X173805172Y-74370000D01*
X173772561Y-74038898D01*
X173675982Y-73720520D01*
X173519147Y-73427102D01*
X173308082Y-73169918D01*
X173222886Y-73100000D01*
X173308082Y-73030082D01*
X173519147Y-72772898D01*
X173675982Y-72479480D01*
X173772561Y-72161102D01*
X173805172Y-71830000D01*
X173772561Y-71498898D01*
X173675982Y-71180520D01*
X173519147Y-70887102D01*
X173446270Y-70798301D01*
X173539659Y-70721659D01*
X173650753Y-70586291D01*
X173733303Y-70431851D01*
X173784136Y-70264274D01*
X173801301Y-70090000D01*
X173801301Y-69290000D01*
X178030828Y-69290000D01*
X178063439Y-69621102D01*
X178160018Y-69939480D01*
X178316853Y-70232898D01*
X178527918Y-70490082D01*
X178613114Y-70560000D01*
X178527918Y-70629918D01*
X178316853Y-70887102D01*
X178160018Y-71180520D01*
X178063439Y-71498898D01*
X178030828Y-71830000D01*
X178063439Y-72161102D01*
X178160018Y-72479480D01*
X178316853Y-72772898D01*
X178527918Y-73030082D01*
X178613114Y-73100000D01*
X178527918Y-73169918D01*
X178316853Y-73427102D01*
X178160018Y-73720520D01*
X178063439Y-74038898D01*
X178030828Y-74370000D01*
X178063439Y-74701102D01*
X178160018Y-75019480D01*
X178316853Y-75312898D01*
X178527918Y-75570082D01*
X178613114Y-75640000D01*
X178527918Y-75709918D01*
X178316853Y-75967102D01*
X178160018Y-76260520D01*
X178063439Y-76578898D01*
X178030828Y-76910000D01*
X178063439Y-77241102D01*
X178160018Y-77559480D01*
X178316853Y-77852898D01*
X178527918Y-78110082D01*
X178613114Y-78180000D01*
X178527918Y-78249918D01*
X178316853Y-78507102D01*
X178160018Y-78800520D01*
X178063439Y-79118898D01*
X178030828Y-79450000D01*
X178063439Y-79781102D01*
X178160018Y-80099480D01*
X178316853Y-80392898D01*
X178527918Y-80650082D01*
X178613114Y-80720000D01*
X178527918Y-80789918D01*
X178316853Y-81047102D01*
X178160018Y-81340520D01*
X178063439Y-81658898D01*
X178030828Y-81990000D01*
X178063439Y-82321102D01*
X178160018Y-82639480D01*
X178316853Y-82932898D01*
X178527918Y-83190082D01*
X178785102Y-83401147D01*
X178823995Y-83421935D01*
X178664481Y-83566586D01*
X178496963Y-83792580D01*
X178376754Y-84046913D01*
X178336096Y-84180961D01*
X178458085Y-84403000D01*
X179601000Y-84403000D01*
X179601000Y-84383000D01*
X179855000Y-84383000D01*
X179855000Y-84403000D01*
X180997915Y-84403000D01*
X181119904Y-84180961D01*
X181079246Y-84046913D01*
X180959037Y-83792580D01*
X180791519Y-83566586D01*
X180632005Y-83421935D01*
X180670898Y-83401147D01*
X180928082Y-83190082D01*
X181139147Y-82932898D01*
X181295982Y-82639480D01*
X181392561Y-82321102D01*
X181425172Y-81990000D01*
X181392561Y-81658898D01*
X181295982Y-81340520D01*
X181139147Y-81047102D01*
X180928082Y-80789918D01*
X180842886Y-80720000D01*
X180928082Y-80650082D01*
X181139147Y-80392898D01*
X181295982Y-80099480D01*
X181392561Y-79781102D01*
X181425172Y-79450000D01*
X181392561Y-79118898D01*
X181295982Y-78800520D01*
X181139147Y-78507102D01*
X180928082Y-78249918D01*
X180842886Y-78180000D01*
X180928082Y-78110082D01*
X181139147Y-77852898D01*
X181295982Y-77559480D01*
X181392561Y-77241102D01*
X181425172Y-76910000D01*
X181392561Y-76578898D01*
X181295982Y-76260520D01*
X181139147Y-75967102D01*
X180928082Y-75709918D01*
X180842886Y-75640000D01*
X180928082Y-75570082D01*
X181139147Y-75312898D01*
X181295982Y-75019480D01*
X181392561Y-74701102D01*
X181425172Y-74370000D01*
X181392561Y-74038898D01*
X181295982Y-73720520D01*
X181139147Y-73427102D01*
X180928082Y-73169918D01*
X180842886Y-73100000D01*
X180880660Y-73069000D01*
X181316790Y-73069000D01*
X183388783Y-75140994D01*
X183359078Y-75177189D01*
X183197600Y-75479294D01*
X183098162Y-75807096D01*
X183064586Y-76148000D01*
X183098162Y-76488904D01*
X183197600Y-76816706D01*
X183359078Y-77118811D01*
X183576392Y-77383608D01*
X183618299Y-77418000D01*
X183576392Y-77452392D01*
X183359078Y-77717189D01*
X183197600Y-78019294D01*
X183098162Y-78347096D01*
X183064586Y-78688000D01*
X183098162Y-79028904D01*
X183197600Y-79356706D01*
X183359078Y-79658811D01*
X183576392Y-79923608D01*
X183618299Y-79958000D01*
X183576392Y-79992392D01*
X183359078Y-80257189D01*
X183197600Y-80559294D01*
X183098162Y-80887096D01*
X183064586Y-81228000D01*
X183098162Y-81568904D01*
X183197600Y-81896706D01*
X183359078Y-82198811D01*
X183576392Y-82463608D01*
X183816706Y-82660829D01*
X183678663Y-82792546D01*
X183510138Y-83032392D01*
X183391643Y-83300507D01*
X183370524Y-83411110D01*
X183491845Y-83641000D01*
X184935000Y-83641000D01*
X184935000Y-83621000D01*
X185189000Y-83621000D01*
X185189000Y-83641000D01*
X186632155Y-83641000D01*
X186753476Y-83411110D01*
X186732357Y-83300507D01*
X186613862Y-83032392D01*
X186445337Y-82792546D01*
X186307294Y-82660829D01*
X186547608Y-82463608D01*
X186764922Y-82198811D01*
X186926400Y-81896706D01*
X187025838Y-81568904D01*
X187059414Y-81228000D01*
X187025838Y-80887096D01*
X186926400Y-80559294D01*
X186764922Y-80257189D01*
X186547608Y-79992392D01*
X186505701Y-79958000D01*
X186547608Y-79923608D01*
X186764922Y-79658811D01*
X186926400Y-79356706D01*
X187025838Y-79028904D01*
X187059414Y-78688000D01*
X187037429Y-78464781D01*
X187653766Y-77848444D01*
X187701044Y-77809644D01*
X187809012Y-77678084D01*
X187855874Y-77620983D01*
X187970924Y-77405739D01*
X188041772Y-77172187D01*
X188065694Y-76929301D01*
X188060346Y-76875000D01*
X188065694Y-76820699D01*
X188051010Y-76671609D01*
X188051010Y-75587535D01*
X188057004Y-75526676D01*
X188033082Y-75283790D01*
X187965706Y-75061682D01*
X187962234Y-75050237D01*
X187847185Y-74834994D01*
X187692354Y-74646332D01*
X187645082Y-74607537D01*
X186852468Y-73814924D01*
X186813668Y-73767646D01*
X186625006Y-73612815D01*
X186409763Y-73497766D01*
X186176210Y-73426918D01*
X185994183Y-73408990D01*
X185933324Y-73402996D01*
X185872465Y-73408990D01*
X185161201Y-73408990D01*
X184668183Y-72915973D01*
X185153976Y-73067964D01*
X185963853Y-73154851D01*
X186775118Y-73082069D01*
X187556597Y-72852415D01*
X188278256Y-72474715D01*
X188338366Y-72434550D01*
X188734550Y-71914155D01*
X186000000Y-69179605D01*
X185985858Y-69193748D01*
X185806253Y-69014143D01*
X185820395Y-69000000D01*
X183085845Y-66265450D01*
X182565450Y-66661634D01*
X182175252Y-67376612D01*
X181932036Y-68153976D01*
X181845149Y-68963853D01*
X181917931Y-69775118D01*
X182147585Y-70556597D01*
X182194241Y-70645741D01*
X182072886Y-70608928D01*
X181890859Y-70591000D01*
X181830000Y-70585006D01*
X181769141Y-70591000D01*
X180880660Y-70591000D01*
X180842886Y-70560000D01*
X180928082Y-70490082D01*
X181139147Y-70232898D01*
X181295982Y-69939480D01*
X181392561Y-69621102D01*
X181425172Y-69290000D01*
X181392561Y-68958898D01*
X181295982Y-68640520D01*
X181139147Y-68347102D01*
X180928082Y-68089918D01*
X180670898Y-67878853D01*
X180377480Y-67722018D01*
X180059102Y-67625439D01*
X179810971Y-67601000D01*
X179645029Y-67601000D01*
X179396898Y-67625439D01*
X179078520Y-67722018D01*
X178785102Y-67878853D01*
X178527918Y-68089918D01*
X178316853Y-68347102D01*
X178160018Y-68640520D01*
X178063439Y-68958898D01*
X178030828Y-69290000D01*
X173801301Y-69290000D01*
X173801301Y-68490000D01*
X173784136Y-68315726D01*
X173733303Y-68148149D01*
X173650753Y-67993709D01*
X173539659Y-67858341D01*
X173404291Y-67747247D01*
X173249851Y-67664697D01*
X173082274Y-67613864D01*
X172908000Y-67596699D01*
X171308000Y-67596699D01*
X171133726Y-67613864D01*
X170966149Y-67664697D01*
X170811709Y-67747247D01*
X170676341Y-67858341D01*
X170565247Y-67993709D01*
X170482697Y-68148149D01*
X170431864Y-68315726D01*
X170414699Y-68490000D01*
X170414699Y-70090000D01*
X170431864Y-70264274D01*
X170482697Y-70431851D01*
X170565247Y-70586291D01*
X170676341Y-70721659D01*
X170769730Y-70798301D01*
X170696853Y-70887102D01*
X170540018Y-71180520D01*
X170443439Y-71498898D01*
X170410828Y-71830000D01*
X170443439Y-72161102D01*
X170540018Y-72479480D01*
X170696853Y-72772898D01*
X170907918Y-73030082D01*
X170993114Y-73100000D01*
X170907918Y-73169918D01*
X170696853Y-73427102D01*
X170540018Y-73720520D01*
X170443439Y-74038898D01*
X170410828Y-74370000D01*
X170443439Y-74701102D01*
X170540018Y-75019480D01*
X170696853Y-75312898D01*
X170907918Y-75570082D01*
X170993114Y-75640000D01*
X170907918Y-75709918D01*
X170696853Y-75967102D01*
X170540018Y-76260520D01*
X170443439Y-76578898D01*
X170410828Y-76910000D01*
X170443439Y-77241102D01*
X170540018Y-77559480D01*
X170696853Y-77852898D01*
X170724456Y-77886533D01*
X170610039Y-77825376D01*
X170376486Y-77754528D01*
X170194459Y-77736600D01*
X170133600Y-77730606D01*
X170072741Y-77736600D01*
X163238996Y-77736600D01*
X163357571Y-77486004D01*
X163426300Y-77211816D01*
X163440217Y-76929488D01*
X163398787Y-76649870D01*
X163303603Y-76383708D01*
X163236671Y-76258486D01*
X162992702Y-76186903D01*
X162179605Y-77000000D01*
X162193748Y-77014143D01*
X162014143Y-77193748D01*
X162000000Y-77179605D01*
X161985858Y-77193748D01*
X161806253Y-77014143D01*
X161820395Y-77000000D01*
X161007298Y-76186903D01*
X160868839Y-76227528D01*
X160648609Y-76007298D01*
X161186903Y-76007298D01*
X162000000Y-76820395D01*
X162813097Y-76007298D01*
X162787483Y-75920000D01*
X166302828Y-75920000D01*
X166335439Y-76251102D01*
X166432018Y-76569480D01*
X166588853Y-76862898D01*
X166799918Y-77120082D01*
X167057102Y-77331147D01*
X167350520Y-77487982D01*
X167668898Y-77584561D01*
X167917029Y-77609000D01*
X168082971Y-77609000D01*
X168331102Y-77584561D01*
X168649480Y-77487982D01*
X168942898Y-77331147D01*
X169200082Y-77120082D01*
X169411147Y-76862898D01*
X169567982Y-76569480D01*
X169664561Y-76251102D01*
X169697172Y-75920000D01*
X169664561Y-75588898D01*
X169567982Y-75270520D01*
X169411147Y-74977102D01*
X169200082Y-74719918D01*
X168942898Y-74508853D01*
X168649480Y-74352018D01*
X168331102Y-74255439D01*
X168082971Y-74231000D01*
X167917029Y-74231000D01*
X167668898Y-74255439D01*
X167350520Y-74352018D01*
X167057102Y-74508853D01*
X166799918Y-74719918D01*
X166588853Y-74977102D01*
X166432018Y-75270520D01*
X166335439Y-75588898D01*
X166302828Y-75920000D01*
X162787483Y-75920000D01*
X162741514Y-75763329D01*
X162486004Y-75642429D01*
X162211816Y-75573700D01*
X161929488Y-75559783D01*
X161649870Y-75601213D01*
X161383708Y-75696397D01*
X161258486Y-75763329D01*
X161186903Y-76007298D01*
X160648609Y-76007298D01*
X158245346Y-73604036D01*
X158267914Y-73588957D01*
X158544957Y-73311914D01*
X158762629Y-72986145D01*
X158912564Y-72624170D01*
X158989000Y-72239899D01*
X158989000Y-71848101D01*
X158912564Y-71463830D01*
X158762629Y-71101855D01*
X158674007Y-70969222D01*
X158883747Y-70894919D01*
X159021157Y-70821472D01*
X159098792Y-70572397D01*
X158250000Y-69723605D01*
X158235858Y-69737748D01*
X158056253Y-69558143D01*
X158070395Y-69544000D01*
X158429605Y-69544000D01*
X159278397Y-70392792D01*
X159527472Y-70315157D01*
X159653371Y-70051117D01*
X159725339Y-69767589D01*
X159740611Y-69475469D01*
X159725700Y-69372723D01*
X161011000Y-69372723D01*
X161011000Y-69715277D01*
X161077829Y-70051248D01*
X161208918Y-70367725D01*
X161399231Y-70652548D01*
X161641452Y-70894769D01*
X161926275Y-71085082D01*
X162197742Y-71197527D01*
X162087436Y-71463830D01*
X162011000Y-71848101D01*
X162011000Y-72239899D01*
X162087436Y-72624170D01*
X162237371Y-72986145D01*
X162455043Y-73311914D01*
X162732086Y-73588957D01*
X163057855Y-73806629D01*
X163419830Y-73956564D01*
X163804101Y-74033000D01*
X164195899Y-74033000D01*
X164580170Y-73956564D01*
X164942145Y-73806629D01*
X165267914Y-73588957D01*
X165544957Y-73311914D01*
X165762629Y-72986145D01*
X165912564Y-72624170D01*
X165989000Y-72239899D01*
X165989000Y-71848101D01*
X165912564Y-71463830D01*
X165762629Y-71101855D01*
X165544957Y-70776086D01*
X165267914Y-70499043D01*
X164942145Y-70281371D01*
X164580170Y-70131436D01*
X164403511Y-70096297D01*
X164422171Y-70051248D01*
X164489000Y-69715277D01*
X164489000Y-69372723D01*
X164422171Y-69036752D01*
X164291082Y-68720275D01*
X164100769Y-68435452D01*
X163858548Y-68193231D01*
X163573725Y-68002918D01*
X163257248Y-67871829D01*
X162921277Y-67805000D01*
X162578723Y-67805000D01*
X162242752Y-67871829D01*
X161926275Y-68002918D01*
X161641452Y-68193231D01*
X161399231Y-68435452D01*
X161208918Y-68720275D01*
X161077829Y-69036752D01*
X161011000Y-69372723D01*
X159725700Y-69372723D01*
X159698599Y-69185981D01*
X159600919Y-68910253D01*
X159527472Y-68772843D01*
X159278397Y-68695208D01*
X158429605Y-69544000D01*
X158070395Y-69544000D01*
X157221603Y-68695208D01*
X156972528Y-68772843D01*
X156846629Y-69036883D01*
X156774661Y-69320411D01*
X156759389Y-69612531D01*
X156801401Y-69902019D01*
X156855596Y-70055000D01*
X156804101Y-70055000D01*
X156419830Y-70131436D01*
X156057855Y-70281371D01*
X155732086Y-70499043D01*
X155455043Y-70776086D01*
X155237371Y-71101855D01*
X155087436Y-71463830D01*
X155011000Y-71848101D01*
X155011000Y-72239899D01*
X155087436Y-72624170D01*
X155237371Y-72986145D01*
X155323989Y-73115778D01*
X153292326Y-71084115D01*
X153515454Y-70927337D01*
X153717814Y-70715259D01*
X153874911Y-70467777D01*
X153980708Y-70194402D01*
X154031140Y-69905640D01*
X153871496Y-69671000D01*
X152667000Y-69671000D01*
X152667000Y-69691000D01*
X152413000Y-69691000D01*
X152413000Y-69671000D01*
X152393000Y-69671000D01*
X152393000Y-69417000D01*
X152413000Y-69417000D01*
X152413000Y-67973845D01*
X152667000Y-67973845D01*
X152667000Y-69417000D01*
X153871496Y-69417000D01*
X154031140Y-69182360D01*
X153980708Y-68893598D01*
X153874911Y-68620223D01*
X153808501Y-68515603D01*
X157401208Y-68515603D01*
X158250000Y-69364395D01*
X159098792Y-68515603D01*
X159021157Y-68266528D01*
X158757117Y-68140629D01*
X158473589Y-68068661D01*
X158181469Y-68053389D01*
X157891981Y-68095401D01*
X157616253Y-68193081D01*
X157478843Y-68266528D01*
X157401208Y-68515603D01*
X153808501Y-68515603D01*
X153717814Y-68372741D01*
X153515454Y-68160663D01*
X153275608Y-67992138D01*
X153007493Y-67873643D01*
X152896890Y-67852524D01*
X152667000Y-67973845D01*
X152413000Y-67973845D01*
X152183110Y-67852524D01*
X152072507Y-67873643D01*
X151804392Y-67992138D01*
X151564546Y-68160663D01*
X151432829Y-68298706D01*
X151235608Y-68058392D01*
X150970810Y-67841078D01*
X150668705Y-67679600D01*
X150340903Y-67580162D01*
X150000000Y-67546586D01*
X149659096Y-67580162D01*
X149331294Y-67679600D01*
X149029189Y-67841078D01*
X149020353Y-67848330D01*
X148968659Y-67785341D01*
X148827505Y-67669499D01*
X148666464Y-67583420D01*
X148491724Y-67530413D01*
X148310000Y-67512515D01*
X146610000Y-67512515D01*
X146428276Y-67530413D01*
X146253536Y-67583420D01*
X146092495Y-67669499D01*
X145951341Y-67785341D01*
X145835499Y-67926495D01*
X145749420Y-68087536D01*
X145696413Y-68262276D01*
X145678515Y-68444000D01*
X145678515Y-70644000D01*
X145696413Y-70825724D01*
X145749420Y-71000464D01*
X145835499Y-71161505D01*
X145951341Y-71302659D01*
X146092495Y-71418501D01*
X146253536Y-71504580D01*
X146428276Y-71557587D01*
X146610000Y-71575485D01*
X148310000Y-71575485D01*
X148491724Y-71557587D01*
X148666464Y-71504580D01*
X148827505Y-71418501D01*
X148968659Y-71302659D01*
X149020353Y-71239670D01*
X149029190Y-71246922D01*
X149331295Y-71408400D01*
X149659097Y-71507838D01*
X150000000Y-71541414D01*
X150223219Y-71519429D01*
X152916789Y-74213000D01*
X152484641Y-74213000D01*
X152458659Y-74181341D01*
X152317505Y-74065499D01*
X152156464Y-73979420D01*
X151981724Y-73926413D01*
X151800000Y-73908515D01*
X150200000Y-73908515D01*
X150018276Y-73926413D01*
X149843536Y-73979420D01*
X149682495Y-74065499D01*
X149541341Y-74181341D01*
X149515359Y-74213000D01*
X148969797Y-74213000D01*
X148899700Y-74206096D01*
X148829602Y-74213000D01*
X148619959Y-74233648D01*
X148350969Y-74315245D01*
X148103066Y-74447752D01*
X147885777Y-74626077D01*
X147707452Y-74843366D01*
X147574945Y-75091269D01*
X147493348Y-75360259D01*
X147465796Y-75640000D01*
X147472700Y-75710098D01*
X147472700Y-76466917D01*
X144480081Y-79459536D01*
X144409192Y-79103155D01*
X144229104Y-78668384D01*
X143967657Y-78277101D01*
X143634899Y-77944343D01*
X143243616Y-77682896D01*
X142808845Y-77502808D01*
X142347296Y-77411000D01*
X141876704Y-77411000D01*
X141415155Y-77502808D01*
X140980384Y-77682896D01*
X140589101Y-77944343D01*
X140256343Y-78277101D01*
X139994896Y-78668384D01*
X139814808Y-79103155D01*
X139723000Y-79564704D01*
X139723000Y-80035296D01*
X139814808Y-80496845D01*
X139994896Y-80931616D01*
X140256343Y-81322899D01*
X140589101Y-81655657D01*
X140980384Y-81917104D01*
X141415155Y-82097192D01*
X141771537Y-82168081D01*
X133516618Y-90423000D01*
X131513744Y-90423000D01*
X131249757Y-90159013D01*
X130893196Y-89920767D01*
X130497008Y-89756660D01*
X130076416Y-89673000D01*
X129647584Y-89673000D01*
X129226992Y-89756660D01*
X128830804Y-89920767D01*
X128474243Y-90159013D01*
X128171013Y-90462243D01*
X127932767Y-90818804D01*
X127768660Y-91214992D01*
X127685000Y-91635584D01*
X127685000Y-92064416D01*
X127768660Y-92485008D01*
X127932767Y-92881196D01*
X128171013Y-93237757D01*
X128474243Y-93540987D01*
X128830804Y-93779233D01*
X129226992Y-93943340D01*
X129647584Y-94027000D01*
X130076416Y-94027000D01*
X130497008Y-93943340D01*
X130893196Y-93779233D01*
X131249757Y-93540987D01*
X131513744Y-93277000D01*
X134037612Y-93277000D01*
X134107700Y-93283903D01*
X134177788Y-93277000D01*
X134177798Y-93277000D01*
X134387441Y-93256352D01*
X134656431Y-93174755D01*
X134904334Y-93042248D01*
X135121623Y-92863923D01*
X135166309Y-92809473D01*
X149343080Y-78632702D01*
X150186903Y-78632702D01*
X150258486Y-78876671D01*
X150513996Y-78997571D01*
X150788184Y-79066300D01*
X151070512Y-79080217D01*
X151350130Y-79038787D01*
X151616292Y-78943603D01*
X151741514Y-78876671D01*
X151813097Y-78632702D01*
X151000000Y-77819605D01*
X150186903Y-78632702D01*
X149343080Y-78632702D01*
X149704441Y-78271342D01*
X149763329Y-78381514D01*
X150007298Y-78453097D01*
X150820395Y-77640000D01*
X150806253Y-77625858D01*
X150985858Y-77446253D01*
X151000000Y-77460395D01*
X151014143Y-77446253D01*
X151193748Y-77625858D01*
X151179605Y-77640000D01*
X151992702Y-78453097D01*
X152236671Y-78381514D01*
X152357571Y-78126004D01*
X152426300Y-77851816D01*
X152440217Y-77569488D01*
X152398787Y-77289870D01*
X152359507Y-77180031D01*
X152458659Y-77098659D01*
X152484641Y-77067000D01*
X152509218Y-77067000D01*
X153401690Y-77959472D01*
X153446377Y-78013923D01*
X153663666Y-78192248D01*
X153911569Y-78324755D01*
X154180559Y-78406352D01*
X154390202Y-78427000D01*
X154390211Y-78427000D01*
X154460299Y-78433903D01*
X154530387Y-78427000D01*
X156027140Y-78427000D01*
X156181959Y-78530447D01*
X156496253Y-78660632D01*
X156678876Y-78696958D01*
X157857549Y-79875631D01*
X157720582Y-79763225D01*
X157505339Y-79648176D01*
X157271786Y-79577328D01*
X157089759Y-79559400D01*
X157028900Y-79553406D01*
X156968041Y-79559400D01*
X150109758Y-79559400D01*
X150048899Y-79553406D01*
X149806013Y-79577328D01*
X149686442Y-79613600D01*
X149572461Y-79648176D01*
X149357218Y-79763225D01*
X149168556Y-79918056D01*
X149129760Y-79965329D01*
X134936434Y-94158656D01*
X134889156Y-94197456D01*
X134734325Y-94386119D01*
X134619276Y-94601362D01*
X134619276Y-94601363D01*
X134548428Y-94834914D01*
X134524506Y-95077800D01*
X134530500Y-95138659D01*
X134530501Y-101177631D01*
X134524506Y-101238500D01*
X134548428Y-101481386D01*
X134619276Y-101714937D01*
X134619277Y-101714939D01*
X134734326Y-101930182D01*
X134889157Y-102118844D01*
X134936430Y-102157640D01*
X135947400Y-103168610D01*
X135947400Y-103206699D01*
X135036000Y-103206699D01*
X134861726Y-103223864D01*
X134694194Y-103274684D01*
X131118444Y-99698934D01*
X131079644Y-99651656D01*
X130890982Y-99496825D01*
X130675739Y-99381776D01*
X130442186Y-99310928D01*
X130260159Y-99293000D01*
X130199300Y-99287006D01*
X130138441Y-99293000D01*
X128553607Y-99293000D01*
X128480675Y-99220068D01*
X128204041Y-99035228D01*
X127896663Y-98907908D01*
X127570352Y-98843000D01*
X127237648Y-98843000D01*
X126911337Y-98907908D01*
X126603959Y-99035228D01*
X126327325Y-99220068D01*
X126092068Y-99455325D01*
X125907228Y-99731959D01*
X125779908Y-100039337D01*
X125715000Y-100365648D01*
X125715000Y-100698352D01*
X125779908Y-101024663D01*
X125907228Y-101332041D01*
X126092068Y-101608675D01*
X126327325Y-101843932D01*
X126603959Y-102028772D01*
X126911337Y-102156092D01*
X127237648Y-102221000D01*
X127570352Y-102221000D01*
X127896663Y-102156092D01*
X128204041Y-102028772D01*
X128480675Y-101843932D01*
X128553607Y-101771000D01*
X129686090Y-101771000D01*
X131632073Y-103716983D01*
X131590903Y-103857298D01*
X132404000Y-104670395D01*
X132418143Y-104656253D01*
X132597748Y-104835858D01*
X132583605Y-104850000D01*
X132597748Y-104864143D01*
X132418143Y-105043748D01*
X132404000Y-105029605D01*
X131590903Y-105842702D01*
X131662486Y-106086671D01*
X131917996Y-106207571D01*
X132192184Y-106276300D01*
X132474512Y-106290217D01*
X132754130Y-106248787D01*
X132984167Y-106166522D01*
X129435485Y-109715205D01*
X129435485Y-108068000D01*
X129417587Y-107886276D01*
X129364580Y-107711536D01*
X129278501Y-107550495D01*
X129162659Y-107409341D01*
X129021505Y-107293499D01*
X128860464Y-107207420D01*
X128685724Y-107154413D01*
X128504000Y-107136515D01*
X126304000Y-107136515D01*
X126122276Y-107154413D01*
X125947536Y-107207420D01*
X125786495Y-107293499D01*
X125645341Y-107409341D01*
X125529499Y-107550495D01*
X125443420Y-107711536D01*
X125390413Y-107886276D01*
X125372515Y-108068000D01*
X125372515Y-110268000D01*
X125390413Y-110449724D01*
X125443420Y-110624464D01*
X125529499Y-110785505D01*
X125645341Y-110926659D01*
X125786495Y-111042501D01*
X125947536Y-111128580D01*
X126122276Y-111181587D01*
X126304000Y-111199485D01*
X127951205Y-111199485D01*
X125817353Y-113333337D01*
X125545480Y-113188018D01*
X125227102Y-113091439D01*
X124978971Y-113067000D01*
X124813029Y-113067000D01*
X124564898Y-113091439D01*
X124246520Y-113188018D01*
X123953102Y-113344853D01*
X123695918Y-113555918D01*
X123484853Y-113813102D01*
X123328018Y-114106520D01*
X123231439Y-114424898D01*
X123198828Y-114756000D01*
X123231439Y-115087102D01*
X123328018Y-115405480D01*
X123484853Y-115698898D01*
X123695918Y-115956082D01*
X123953102Y-116167147D01*
X124246520Y-116323982D01*
X124564898Y-116420561D01*
X124813029Y-116445000D01*
X124978971Y-116445000D01*
X125227102Y-116420561D01*
X125545480Y-116323982D01*
X125838898Y-116167147D01*
X126048660Y-115995000D01*
X126335142Y-115995000D01*
X126396000Y-116000994D01*
X126638886Y-115977072D01*
X126872439Y-115906224D01*
X126929251Y-115875858D01*
X127121325Y-116067932D01*
X127397959Y-116252772D01*
X127705337Y-116380092D01*
X128031648Y-116445000D01*
X128364352Y-116445000D01*
X128690663Y-116380092D01*
X128998041Y-116252772D01*
X129274675Y-116067932D01*
X129509932Y-115832675D01*
X129694772Y-115556041D01*
X129822092Y-115248663D01*
X129887000Y-114922352D01*
X129887000Y-114589648D01*
X129822092Y-114263337D01*
X129694772Y-113955959D01*
X129509932Y-113679325D01*
X129274675Y-113444068D01*
X129236530Y-113418580D01*
X135115711Y-107539400D01*
X136413178Y-107539400D01*
X136150760Y-107754760D01*
X135902206Y-108057625D01*
X135717513Y-108403160D01*
X135603780Y-108778088D01*
X135565377Y-109168000D01*
X135603780Y-109557912D01*
X135717513Y-109932840D01*
X135902206Y-110278375D01*
X136150760Y-110581240D01*
X136453625Y-110829794D01*
X136738339Y-110981977D01*
X136677438Y-111000452D01*
X136560661Y-111035876D01*
X136345418Y-111150925D01*
X136156756Y-111305756D01*
X136117960Y-111353029D01*
X134159145Y-113311845D01*
X133927480Y-113188018D01*
X133609102Y-113091439D01*
X133360971Y-113067000D01*
X133195029Y-113067000D01*
X132946898Y-113091439D01*
X132628520Y-113188018D01*
X132335102Y-113344853D01*
X132077918Y-113555918D01*
X131866853Y-113813102D01*
X131710018Y-114106520D01*
X131613439Y-114424898D01*
X131580828Y-114756000D01*
X131613439Y-115087102D01*
X131710018Y-115405480D01*
X131866853Y-115698898D01*
X132077918Y-115956082D01*
X132335102Y-116167147D01*
X132628520Y-116323982D01*
X132946898Y-116420561D01*
X133195029Y-116445000D01*
X133360971Y-116445000D01*
X133609102Y-116420561D01*
X133927480Y-116323982D01*
X134220898Y-116167147D01*
X134430660Y-115995000D01*
X134717142Y-115995000D01*
X134778000Y-116000994D01*
X135020886Y-115977072D01*
X135254439Y-115906224D01*
X135311251Y-115875858D01*
X135503325Y-116067932D01*
X135779959Y-116252772D01*
X136087337Y-116380092D01*
X136413648Y-116445000D01*
X136746352Y-116445000D01*
X137072663Y-116380092D01*
X137380041Y-116252772D01*
X137656675Y-116067932D01*
X137891932Y-115832675D01*
X138076772Y-115556041D01*
X138204092Y-115248663D01*
X138269000Y-114922352D01*
X138269000Y-114589648D01*
X138204092Y-114263337D01*
X138076772Y-113955959D01*
X137891932Y-113679325D01*
X137656675Y-113444068D01*
X137628287Y-113425100D01*
X140619321Y-113425100D01*
X140459918Y-113555918D01*
X140248853Y-113813102D01*
X140092018Y-114106520D01*
X139995439Y-114424898D01*
X139962828Y-114756000D01*
X139995439Y-115087102D01*
X140092018Y-115405480D01*
X140248853Y-115698898D01*
X140459918Y-115956082D01*
X140717102Y-116167147D01*
X141010520Y-116323982D01*
X141328898Y-116420561D01*
X141577029Y-116445000D01*
X141742971Y-116445000D01*
X141991102Y-116420561D01*
X142309480Y-116323982D01*
X142602898Y-116167147D01*
X142812660Y-115995000D01*
X143099141Y-115995000D01*
X143160000Y-116000994D01*
X143402886Y-115977072D01*
X143472080Y-115956082D01*
X143636439Y-115906224D01*
X143851682Y-115791175D01*
X144040344Y-115636344D01*
X144079144Y-115589066D01*
X147025555Y-112642656D01*
X147050778Y-112725814D01*
X147177316Y-112990944D01*
X147353146Y-113226293D01*
X147452433Y-113315649D01*
X147214728Y-113510728D01*
X147209581Y-113517000D01*
X146957258Y-113517000D01*
X146896399Y-113511006D01*
X146653513Y-113534928D01*
X146446752Y-113597649D01*
X146419961Y-113605776D01*
X146204718Y-113720825D01*
X146016056Y-113875656D01*
X145977252Y-113922939D01*
X145580031Y-114320159D01*
X145532757Y-114358956D01*
X145377926Y-114547618D01*
X145269866Y-114749786D01*
X145262876Y-114762863D01*
X145192028Y-114996414D01*
X145168106Y-115239300D01*
X145174101Y-115300168D01*
X145174100Y-118055841D01*
X145168106Y-118116700D01*
X145182757Y-118265450D01*
X145192028Y-118359585D01*
X145262876Y-118593138D01*
X145377925Y-118808381D01*
X145532756Y-118997044D01*
X145580034Y-119035844D01*
X146702256Y-120158066D01*
X146741056Y-120205344D01*
X146929718Y-120360175D01*
X146984451Y-120389430D01*
X147144961Y-120475224D01*
X147378513Y-120546072D01*
X147621399Y-120569994D01*
X147682258Y-120564000D01*
X162887841Y-120564000D01*
X162948700Y-120569994D01*
X163191586Y-120546072D01*
X163425139Y-120475224D01*
X163640382Y-120360175D01*
X163829044Y-120205344D01*
X163867844Y-120158066D01*
X165748566Y-118277344D01*
X165795844Y-118238544D01*
X165881247Y-118134481D01*
X165874098Y-124086000D01*
X106603722Y-124086000D01*
X106734550Y-123914155D01*
X104000000Y-121179605D01*
X101265450Y-123914155D01*
X101396278Y-124086000D01*
X100914000Y-124086000D01*
X100914000Y-123603722D01*
X101085845Y-123734550D01*
X103820395Y-121000000D01*
X104179605Y-121000000D01*
X106914155Y-123734550D01*
X107434550Y-123338366D01*
X107824748Y-122623388D01*
X108067964Y-121846024D01*
X108154851Y-121036147D01*
X108082069Y-120224882D01*
X107852415Y-119443403D01*
X107474715Y-118721744D01*
X107434550Y-118661634D01*
X106914155Y-118265450D01*
X104179605Y-121000000D01*
X103820395Y-121000000D01*
X101085845Y-118265450D01*
X100914000Y-118396278D01*
X100914000Y-118085845D01*
X101265450Y-118085845D01*
X104000000Y-120820395D01*
X106734550Y-118085845D01*
X106338366Y-117565450D01*
X105623388Y-117175252D01*
X104846024Y-116932036D01*
X104036147Y-116845149D01*
X103224882Y-116917931D01*
X102443403Y-117147585D01*
X101721744Y-117525285D01*
X101661634Y-117565450D01*
X101265450Y-118085845D01*
X100914000Y-118085845D01*
X100914000Y-107193614D01*
X103883000Y-107193614D01*
X103883000Y-107626386D01*
X103967430Y-108050841D01*
X104133044Y-108450670D01*
X104373479Y-108810506D01*
X104407572Y-108844599D01*
X104199386Y-109156171D01*
X104042818Y-109534161D01*
X103963000Y-109935433D01*
X103963000Y-110344567D01*
X104042818Y-110745839D01*
X104199386Y-111123829D01*
X104426689Y-111464011D01*
X104613000Y-111650322D01*
X104613000Y-111836442D01*
X104613001Y-111836452D01*
X104613000Y-114933912D01*
X104606097Y-115004000D01*
X104613000Y-115074088D01*
X104613000Y-115074097D01*
X104633648Y-115283740D01*
X104715245Y-115552730D01*
X104842697Y-115791175D01*
X104847753Y-115800634D01*
X104981392Y-115963474D01*
X104981395Y-115963477D01*
X105026077Y-116017922D01*
X105080523Y-116062605D01*
X108543395Y-119525478D01*
X108588077Y-119579923D01*
X108642522Y-119624605D01*
X108642525Y-119624608D01*
X108722704Y-119690409D01*
X108805366Y-119758248D01*
X109053269Y-119890755D01*
X109240661Y-119947600D01*
X109322258Y-119972352D01*
X109346474Y-119974737D01*
X109531902Y-119993000D01*
X109531910Y-119993000D01*
X109602000Y-119999903D01*
X109672090Y-119993000D01*
X109917359Y-119993000D01*
X109943341Y-120024659D01*
X110084495Y-120140501D01*
X110245536Y-120226580D01*
X110420276Y-120279587D01*
X110602000Y-120297485D01*
X111115403Y-120297485D01*
X112826695Y-122008778D01*
X112871377Y-122063223D01*
X112925822Y-122107905D01*
X112925825Y-122107908D01*
X112976766Y-122149714D01*
X113088666Y-122241548D01*
X113336569Y-122374055D01*
X113523961Y-122430900D01*
X113605558Y-122455652D01*
X113629774Y-122458037D01*
X113815202Y-122476300D01*
X113815210Y-122476300D01*
X113885300Y-122483203D01*
X113955390Y-122476300D01*
X122910012Y-122476300D01*
X122980100Y-122483203D01*
X123050188Y-122476300D01*
X123050198Y-122476300D01*
X123259841Y-122455652D01*
X123528831Y-122374055D01*
X123776734Y-122241548D01*
X123994023Y-122063223D01*
X124038709Y-122008773D01*
X125036478Y-121011005D01*
X125090923Y-120966323D01*
X125135605Y-120911878D01*
X125135608Y-120911875D01*
X125236359Y-120789109D01*
X125269248Y-120749034D01*
X125401755Y-120501131D01*
X125466971Y-120286142D01*
X125483352Y-120232142D01*
X125488654Y-120178310D01*
X125504000Y-120022498D01*
X125504000Y-120022490D01*
X125509156Y-119970142D01*
X125696066Y-119690409D01*
X125833789Y-119357916D01*
X125904000Y-119004944D01*
X125904000Y-118645056D01*
X125833789Y-118292084D01*
X125696066Y-117959591D01*
X125672954Y-117925000D01*
X127243699Y-117925000D01*
X127243699Y-119725000D01*
X127260864Y-119899274D01*
X127311697Y-120066851D01*
X127394247Y-120221291D01*
X127505341Y-120356659D01*
X127640709Y-120467753D01*
X127795149Y-120550303D01*
X127962726Y-120601136D01*
X128137000Y-120618301D01*
X129937000Y-120618301D01*
X130111274Y-120601136D01*
X130278851Y-120550303D01*
X130433291Y-120467753D01*
X130568659Y-120356659D01*
X130572950Y-120351430D01*
X130711591Y-120444066D01*
X131044084Y-120581789D01*
X131397056Y-120652000D01*
X131756944Y-120652000D01*
X132109916Y-120581789D01*
X132442409Y-120444066D01*
X132741645Y-120244124D01*
X132996124Y-119989645D01*
X133196066Y-119690409D01*
X133333789Y-119357916D01*
X133404000Y-119004944D01*
X133404000Y-118645056D01*
X133333789Y-118292084D01*
X133196066Y-117959591D01*
X133172954Y-117925000D01*
X134743699Y-117925000D01*
X134743699Y-119725000D01*
X134760864Y-119899274D01*
X134811697Y-120066851D01*
X134894247Y-120221291D01*
X135005341Y-120356659D01*
X135140709Y-120467753D01*
X135295149Y-120550303D01*
X135462726Y-120601136D01*
X135637000Y-120618301D01*
X137437000Y-120618301D01*
X137611274Y-120601136D01*
X137778851Y-120550303D01*
X137933291Y-120467753D01*
X138068659Y-120356659D01*
X138072950Y-120351430D01*
X138211591Y-120444066D01*
X138544084Y-120581789D01*
X138897056Y-120652000D01*
X139256944Y-120652000D01*
X139609916Y-120581789D01*
X139942409Y-120444066D01*
X140241645Y-120244124D01*
X140496124Y-119989645D01*
X140696066Y-119690409D01*
X140833789Y-119357916D01*
X140904000Y-119004944D01*
X140904000Y-118645056D01*
X140833789Y-118292084D01*
X140696066Y-117959591D01*
X140496124Y-117660355D01*
X140241645Y-117405876D01*
X139942409Y-117205934D01*
X139609916Y-117068211D01*
X139256944Y-116998000D01*
X138897056Y-116998000D01*
X138544084Y-117068211D01*
X138211591Y-117205934D01*
X138072950Y-117298570D01*
X138068659Y-117293341D01*
X137933291Y-117182247D01*
X137778851Y-117099697D01*
X137611274Y-117048864D01*
X137437000Y-117031699D01*
X135637000Y-117031699D01*
X135462726Y-117048864D01*
X135295149Y-117099697D01*
X135140709Y-117182247D01*
X135005341Y-117293341D01*
X134894247Y-117428709D01*
X134811697Y-117583149D01*
X134760864Y-117750726D01*
X134743699Y-117925000D01*
X133172954Y-117925000D01*
X132996124Y-117660355D01*
X132741645Y-117405876D01*
X132442409Y-117205934D01*
X132109916Y-117068211D01*
X131756944Y-116998000D01*
X131397056Y-116998000D01*
X131044084Y-117068211D01*
X130711591Y-117205934D01*
X130572950Y-117298570D01*
X130568659Y-117293341D01*
X130433291Y-117182247D01*
X130278851Y-117099697D01*
X130111274Y-117048864D01*
X129937000Y-117031699D01*
X128137000Y-117031699D01*
X127962726Y-117048864D01*
X127795149Y-117099697D01*
X127640709Y-117182247D01*
X127505341Y-117293341D01*
X127394247Y-117428709D01*
X127311697Y-117583149D01*
X127260864Y-117750726D01*
X127243699Y-117925000D01*
X125672954Y-117925000D01*
X125496124Y-117660355D01*
X125241645Y-117405876D01*
X124942409Y-117205934D01*
X124609916Y-117068211D01*
X124256944Y-116998000D01*
X123897056Y-116998000D01*
X123544084Y-117068211D01*
X123211591Y-117205934D01*
X123072950Y-117298570D01*
X123068659Y-117293341D01*
X122933291Y-117182247D01*
X122778851Y-117099697D01*
X122769370Y-117096821D01*
X122758072Y-116982114D01*
X122738602Y-116917931D01*
X122687224Y-116748561D01*
X122572175Y-116533318D01*
X122417344Y-116344656D01*
X122370071Y-116305860D01*
X121402831Y-115338620D01*
X121440092Y-115248663D01*
X121505000Y-114922352D01*
X121505000Y-114589648D01*
X121440092Y-114263337D01*
X121312772Y-113955959D01*
X121127932Y-113679325D01*
X120892675Y-113444068D01*
X120616041Y-113259228D01*
X120308663Y-113131908D01*
X119982352Y-113067000D01*
X119649648Y-113067000D01*
X119323337Y-113131908D01*
X119015959Y-113259228D01*
X118739325Y-113444068D01*
X118504068Y-113679325D01*
X118319228Y-113955959D01*
X118191908Y-114263337D01*
X118127000Y-114589648D01*
X118127000Y-114922352D01*
X118191908Y-115248663D01*
X118319228Y-115556041D01*
X118504068Y-115832675D01*
X118681789Y-116010396D01*
X118780825Y-116195681D01*
X118935656Y-116384344D01*
X118982934Y-116423144D01*
X119936731Y-117376942D01*
X119894247Y-117428709D01*
X119811697Y-117583149D01*
X119760864Y-117750726D01*
X119743699Y-117925000D01*
X119743699Y-119622300D01*
X115696437Y-119622300D01*
X115715097Y-119558702D01*
X114902000Y-118745605D01*
X114887858Y-118759748D01*
X114708253Y-118580143D01*
X114722395Y-118566000D01*
X115081605Y-118566000D01*
X115894702Y-119379097D01*
X116138671Y-119307514D01*
X116259571Y-119052004D01*
X116328300Y-118777816D01*
X116342217Y-118495488D01*
X116300787Y-118215870D01*
X116205603Y-117949708D01*
X116138671Y-117824486D01*
X115894702Y-117752903D01*
X115081605Y-118566000D01*
X114722395Y-118566000D01*
X113909298Y-117752903D01*
X113665329Y-117824486D01*
X113544429Y-118079996D01*
X113475700Y-118354184D01*
X113463137Y-118609054D01*
X113133485Y-118279403D01*
X113133485Y-117766000D01*
X113115587Y-117584276D01*
X113112257Y-117573298D01*
X114088903Y-117573298D01*
X114902000Y-118386395D01*
X115715097Y-117573298D01*
X115643514Y-117329329D01*
X115388004Y-117208429D01*
X115113816Y-117139700D01*
X114831488Y-117125783D01*
X114551870Y-117167213D01*
X114285708Y-117262397D01*
X114160486Y-117329329D01*
X114088903Y-117573298D01*
X113112257Y-117573298D01*
X113062580Y-117409536D01*
X112976501Y-117248495D01*
X112860659Y-117107341D01*
X112719505Y-116991499D01*
X112558464Y-116905420D01*
X112383724Y-116852413D01*
X112202000Y-116834515D01*
X110602000Y-116834515D01*
X110420276Y-116852413D01*
X110245536Y-116905420D01*
X110084495Y-116991499D01*
X110063122Y-117009039D01*
X107467000Y-114412918D01*
X107467000Y-111650322D01*
X107653311Y-111464011D01*
X107707875Y-111382349D01*
X120377256Y-111382349D01*
X120491118Y-111662090D01*
X120806296Y-111817961D01*
X121145826Y-111909349D01*
X121496661Y-111932741D01*
X121845319Y-111887240D01*
X122178400Y-111774594D01*
X122388882Y-111662090D01*
X122502744Y-111382349D01*
X121440000Y-110319605D01*
X120377256Y-111382349D01*
X107707875Y-111382349D01*
X107880614Y-111123829D01*
X108037182Y-110745839D01*
X108117000Y-110344567D01*
X108117000Y-110196661D01*
X119647259Y-110196661D01*
X119692760Y-110545319D01*
X119805406Y-110878400D01*
X119917910Y-111088882D01*
X120197651Y-111202744D01*
X121260395Y-110140000D01*
X121619605Y-110140000D01*
X122682349Y-111202744D01*
X122962090Y-111088882D01*
X123117961Y-110773704D01*
X123209349Y-110434174D01*
X123232741Y-110083339D01*
X123187240Y-109734681D01*
X123074594Y-109401600D01*
X122962090Y-109191118D01*
X122682349Y-109077256D01*
X121619605Y-110140000D01*
X121260395Y-110140000D01*
X120197651Y-109077256D01*
X119917910Y-109191118D01*
X119762039Y-109506296D01*
X119670651Y-109845826D01*
X119647259Y-110196661D01*
X108117000Y-110196661D01*
X108117000Y-109935433D01*
X108037182Y-109534161D01*
X107880614Y-109156171D01*
X107704471Y-108892556D01*
X107786521Y-108810506D01*
X108026956Y-108450670D01*
X108192570Y-108050841D01*
X108277000Y-107626386D01*
X108277000Y-107197357D01*
X109001000Y-107197357D01*
X109001000Y-107622643D01*
X109083970Y-108039757D01*
X109246719Y-108432670D01*
X109482996Y-108786282D01*
X109783718Y-109087004D01*
X110137330Y-109323281D01*
X110530243Y-109486030D01*
X110947357Y-109569000D01*
X111372643Y-109569000D01*
X111789757Y-109486030D01*
X112182670Y-109323281D01*
X112536282Y-109087004D01*
X112837004Y-108786282D01*
X112869364Y-108737852D01*
X115091753Y-108737852D01*
X115220076Y-109029871D01*
X115555695Y-109197723D01*
X115917611Y-109296874D01*
X116291916Y-109323514D01*
X116664227Y-109276618D01*
X117020235Y-109157988D01*
X117259924Y-109029871D01*
X117318025Y-108897651D01*
X120377256Y-108897651D01*
X121440000Y-109960395D01*
X122502744Y-108897651D01*
X122388882Y-108617910D01*
X122073704Y-108462039D01*
X121734174Y-108370651D01*
X121383339Y-108347259D01*
X121034681Y-108392760D01*
X120701600Y-108505406D01*
X120491118Y-108617910D01*
X120377256Y-108897651D01*
X117318025Y-108897651D01*
X117388247Y-108737852D01*
X116240000Y-107589605D01*
X115091753Y-108737852D01*
X112869364Y-108737852D01*
X113073281Y-108432670D01*
X113236030Y-108039757D01*
X113319000Y-107622643D01*
X113319000Y-107461916D01*
X114326486Y-107461916D01*
X114373382Y-107834227D01*
X114492012Y-108190235D01*
X114620129Y-108429924D01*
X114912148Y-108558247D01*
X116060395Y-107410000D01*
X116419605Y-107410000D01*
X117567852Y-108558247D01*
X117859871Y-108429924D01*
X118027723Y-108094305D01*
X118126874Y-107732389D01*
X118153514Y-107358084D01*
X118106618Y-106985773D01*
X117987988Y-106629765D01*
X117859871Y-106390076D01*
X117567852Y-106261753D01*
X116419605Y-107410000D01*
X116060395Y-107410000D01*
X114912148Y-106261753D01*
X114620129Y-106390076D01*
X114452277Y-106725695D01*
X114353126Y-107087611D01*
X114326486Y-107461916D01*
X113319000Y-107461916D01*
X113319000Y-107197357D01*
X113236030Y-106780243D01*
X113073281Y-106387330D01*
X112869365Y-106082148D01*
X115091753Y-106082148D01*
X116240000Y-107230395D01*
X117388247Y-106082148D01*
X117259924Y-105790129D01*
X116924305Y-105622277D01*
X116562389Y-105523126D01*
X116188084Y-105496486D01*
X115815773Y-105543382D01*
X115459765Y-105662012D01*
X115220076Y-105790129D01*
X115091753Y-106082148D01*
X112869365Y-106082148D01*
X112837004Y-106033718D01*
X112536282Y-105732996D01*
X112182670Y-105496719D01*
X111789757Y-105333970D01*
X111372643Y-105251000D01*
X110947357Y-105251000D01*
X110530243Y-105333970D01*
X110137330Y-105496719D01*
X109783718Y-105732996D01*
X109482996Y-106033718D01*
X109246719Y-106387330D01*
X109083970Y-106780243D01*
X109001000Y-107197357D01*
X108277000Y-107197357D01*
X108277000Y-107193614D01*
X108192570Y-106769159D01*
X108026956Y-106369330D01*
X107786521Y-106009494D01*
X107480506Y-105703479D01*
X107120670Y-105463044D01*
X106720841Y-105297430D01*
X106296386Y-105213000D01*
X105863614Y-105213000D01*
X105439159Y-105297430D01*
X105039330Y-105463044D01*
X104679494Y-105703479D01*
X104373479Y-106009494D01*
X104133044Y-106369330D01*
X103967430Y-106769159D01*
X103883000Y-107193614D01*
X100914000Y-107193614D01*
X100914000Y-104679905D01*
X125677000Y-104679905D01*
X125677000Y-105020095D01*
X125743368Y-105353747D01*
X125873553Y-105668041D01*
X126062552Y-105950898D01*
X126303102Y-106191448D01*
X126585959Y-106380447D01*
X126900253Y-106510632D01*
X127233905Y-106577000D01*
X127574095Y-106577000D01*
X127907747Y-106510632D01*
X128222041Y-106380447D01*
X128504898Y-106191448D01*
X128745448Y-105950898D01*
X128934447Y-105668041D01*
X129064632Y-105353747D01*
X129131000Y-105020095D01*
X129131000Y-104920512D01*
X130963783Y-104920512D01*
X131005213Y-105200130D01*
X131100397Y-105466292D01*
X131167329Y-105591514D01*
X131411298Y-105663097D01*
X132224395Y-104850000D01*
X131411298Y-104036903D01*
X131167329Y-104108486D01*
X131046429Y-104363996D01*
X130977700Y-104638184D01*
X130963783Y-104920512D01*
X129131000Y-104920512D01*
X129131000Y-104679905D01*
X129064632Y-104346253D01*
X128934447Y-104031959D01*
X128745448Y-103749102D01*
X128504898Y-103508552D01*
X128222041Y-103319553D01*
X127907747Y-103189368D01*
X127574095Y-103123000D01*
X127233905Y-103123000D01*
X126900253Y-103189368D01*
X126585959Y-103319553D01*
X126303102Y-103508552D01*
X126062552Y-103749102D01*
X125873553Y-104031959D01*
X125743368Y-104346253D01*
X125677000Y-104679905D01*
X100914000Y-104679905D01*
X100914000Y-95622000D01*
X125372515Y-95622000D01*
X125372515Y-97822000D01*
X125390413Y-98003724D01*
X125443420Y-98178464D01*
X125529499Y-98339505D01*
X125645341Y-98480659D01*
X125786495Y-98596501D01*
X125947536Y-98682580D01*
X126122276Y-98735587D01*
X126304000Y-98753485D01*
X128504000Y-98753485D01*
X128685724Y-98735587D01*
X128860464Y-98682580D01*
X129021505Y-98596501D01*
X129162659Y-98480659D01*
X129278501Y-98339505D01*
X129364580Y-98178464D01*
X129417587Y-98003724D01*
X129435485Y-97822000D01*
X129435485Y-95622000D01*
X129417587Y-95440276D01*
X129364580Y-95265536D01*
X129278501Y-95104495D01*
X129162659Y-94963341D01*
X129021505Y-94847499D01*
X128860464Y-94761420D01*
X128685724Y-94708413D01*
X128504000Y-94690515D01*
X126304000Y-94690515D01*
X126122276Y-94708413D01*
X125947536Y-94761420D01*
X125786495Y-94847499D01*
X125645341Y-94963341D01*
X125529499Y-95104495D01*
X125443420Y-95265536D01*
X125390413Y-95440276D01*
X125372515Y-95622000D01*
X100914000Y-95622000D01*
X100914000Y-85541263D01*
X125285000Y-85541263D01*
X125285000Y-86058737D01*
X125385954Y-86566268D01*
X125583983Y-87044351D01*
X125871476Y-87474615D01*
X126237385Y-87840524D01*
X126667649Y-88128017D01*
X127145732Y-88326046D01*
X127653263Y-88427000D01*
X128170737Y-88427000D01*
X128678268Y-88326046D01*
X129156351Y-88128017D01*
X129586615Y-87840524D01*
X129952524Y-87474615D01*
X130240017Y-87044351D01*
X130438046Y-86566268D01*
X130539000Y-86058737D01*
X130539000Y-85541263D01*
X130438046Y-85033732D01*
X130240017Y-84555649D01*
X129952524Y-84125385D01*
X129586615Y-83759476D01*
X129156351Y-83471983D01*
X128678268Y-83273954D01*
X128170737Y-83173000D01*
X127653263Y-83173000D01*
X127145732Y-83273954D01*
X126667649Y-83471983D01*
X126237385Y-83759476D01*
X125871476Y-84125385D01*
X125583983Y-84555649D01*
X125385954Y-85033732D01*
X125285000Y-85541263D01*
X100914000Y-85541263D01*
X100914000Y-80515735D01*
X108963000Y-80515735D01*
X108963000Y-80964265D01*
X109050504Y-81404176D01*
X109222149Y-81818564D01*
X109471339Y-82191503D01*
X109788497Y-82508661D01*
X110161436Y-82757851D01*
X110575824Y-82929496D01*
X111015735Y-83017000D01*
X111464265Y-83017000D01*
X111904176Y-82929496D01*
X112318564Y-82757851D01*
X112691503Y-82508661D01*
X113008661Y-82191503D01*
X113257851Y-81818564D01*
X113429496Y-81404176D01*
X113517000Y-80964265D01*
X113517000Y-80515735D01*
X113514650Y-80503916D01*
X113843000Y-80503916D01*
X113843000Y-80976084D01*
X113935115Y-81439179D01*
X114107547Y-81855466D01*
X114107547Y-81890000D01*
X114129307Y-82110931D01*
X114193750Y-82323371D01*
X114298400Y-82519157D01*
X114439235Y-82690765D01*
X114610843Y-82831600D01*
X114806629Y-82936250D01*
X115019069Y-83000693D01*
X115240000Y-83022453D01*
X115486665Y-83022453D01*
X115540821Y-83044885D01*
X116003916Y-83137000D01*
X116476084Y-83137000D01*
X116939179Y-83044885D01*
X116993335Y-83022453D01*
X117240000Y-83022453D01*
X117460931Y-83000693D01*
X117673371Y-82936250D01*
X117869157Y-82831600D01*
X118040765Y-82690765D01*
X118181600Y-82519157D01*
X118286250Y-82323371D01*
X118350693Y-82110931D01*
X118372453Y-81890000D01*
X118372453Y-81855466D01*
X118544885Y-81439179D01*
X118637000Y-80976084D01*
X118637000Y-80503916D01*
X118923000Y-80503916D01*
X118923000Y-80976084D01*
X119015115Y-81439179D01*
X119195806Y-81875405D01*
X119458129Y-82267998D01*
X119792002Y-82601871D01*
X120184595Y-82864194D01*
X120620821Y-83044885D01*
X121083916Y-83137000D01*
X121556084Y-83137000D01*
X122019179Y-83044885D01*
X122455405Y-82864194D01*
X122847998Y-82601871D01*
X123181871Y-82267998D01*
X123444194Y-81875405D01*
X123624885Y-81439179D01*
X123717000Y-80976084D01*
X123717000Y-80503916D01*
X123624885Y-80040821D01*
X123458581Y-79639327D01*
X127723000Y-79639327D01*
X127723000Y-80060673D01*
X127805200Y-80473923D01*
X127966443Y-80863197D01*
X128200530Y-81213533D01*
X128498467Y-81511470D01*
X128848803Y-81745557D01*
X129238077Y-81906800D01*
X129651327Y-81989000D01*
X130072673Y-81989000D01*
X130485923Y-81906800D01*
X130875197Y-81745557D01*
X131225533Y-81511470D01*
X131523470Y-81213533D01*
X131757557Y-80863197D01*
X131918800Y-80473923D01*
X132001000Y-80060673D01*
X132001000Y-79639327D01*
X131918800Y-79226077D01*
X131757557Y-78836803D01*
X131523470Y-78486467D01*
X131225533Y-78188530D01*
X130875197Y-77954443D01*
X130485923Y-77793200D01*
X130072673Y-77711000D01*
X129651327Y-77711000D01*
X129238077Y-77793200D01*
X128848803Y-77954443D01*
X128498467Y-78188530D01*
X128200530Y-78486467D01*
X127966443Y-78836803D01*
X127805200Y-79226077D01*
X127723000Y-79639327D01*
X123458581Y-79639327D01*
X123444194Y-79604595D01*
X123181871Y-79212002D01*
X122847998Y-78878129D01*
X122455405Y-78615806D01*
X122019179Y-78435115D01*
X121556084Y-78343000D01*
X121083916Y-78343000D01*
X120620821Y-78435115D01*
X120184595Y-78615806D01*
X119792002Y-78878129D01*
X119458129Y-79212002D01*
X119195806Y-79604595D01*
X119015115Y-80040821D01*
X118923000Y-80503916D01*
X118637000Y-80503916D01*
X118544885Y-80040821D01*
X118372453Y-79624534D01*
X118372453Y-79590000D01*
X118350693Y-79369069D01*
X118286250Y-79156629D01*
X118181600Y-78960843D01*
X118040765Y-78789235D01*
X117869157Y-78648400D01*
X117673371Y-78543750D01*
X117460931Y-78479307D01*
X117240000Y-78457547D01*
X116993335Y-78457547D01*
X116939179Y-78435115D01*
X116476084Y-78343000D01*
X116003916Y-78343000D01*
X115540821Y-78435115D01*
X115486665Y-78457547D01*
X115240000Y-78457547D01*
X115019069Y-78479307D01*
X114806629Y-78543750D01*
X114610843Y-78648400D01*
X114439235Y-78789235D01*
X114298400Y-78960843D01*
X114193750Y-79156629D01*
X114129307Y-79369069D01*
X114107547Y-79590000D01*
X114107547Y-79624534D01*
X113935115Y-80040821D01*
X113843000Y-80503916D01*
X113514650Y-80503916D01*
X113429496Y-80075824D01*
X113257851Y-79661436D01*
X113008661Y-79288497D01*
X112691503Y-78971339D01*
X112318564Y-78722149D01*
X111904176Y-78550504D01*
X111464265Y-78463000D01*
X111015735Y-78463000D01*
X110575824Y-78550504D01*
X110161436Y-78722149D01*
X109788497Y-78971339D01*
X109471339Y-79288497D01*
X109222149Y-79661436D01*
X109050504Y-80075824D01*
X108963000Y-80515735D01*
X100914000Y-80515735D01*
X100914000Y-71914155D01*
X101265450Y-71914155D01*
X101661634Y-72434550D01*
X102376612Y-72824748D01*
X103153976Y-73067964D01*
X103963853Y-73154851D01*
X104775118Y-73082069D01*
X105556597Y-72852415D01*
X106278256Y-72474715D01*
X106338366Y-72434550D01*
X106734550Y-71914155D01*
X106694904Y-71874509D01*
X111434000Y-71874509D01*
X111434000Y-72293491D01*
X111515739Y-72704423D01*
X111676077Y-73091512D01*
X111908851Y-73439884D01*
X112205116Y-73736149D01*
X112553488Y-73968923D01*
X112940577Y-74129261D01*
X113351509Y-74211000D01*
X113770491Y-74211000D01*
X114181423Y-74129261D01*
X114568512Y-73968923D01*
X114916884Y-73736149D01*
X115213149Y-73439884D01*
X115445923Y-73091512D01*
X115606261Y-72704423D01*
X115688000Y-72293491D01*
X115688000Y-71884509D01*
X116514000Y-71884509D01*
X116514000Y-72303491D01*
X116595739Y-72714423D01*
X116756077Y-73101512D01*
X116988851Y-73449884D01*
X117285116Y-73746149D01*
X117633488Y-73978923D01*
X118020577Y-74139261D01*
X118431509Y-74221000D01*
X118850491Y-74221000D01*
X119261423Y-74139261D01*
X119648512Y-73978923D01*
X119996884Y-73746149D01*
X120293149Y-73449884D01*
X120525923Y-73101512D01*
X120686261Y-72714423D01*
X120768000Y-72303491D01*
X120768000Y-72094000D01*
X122005500Y-72094000D01*
X122051394Y-72559973D01*
X122187313Y-73008039D01*
X122292191Y-73204252D01*
X122325806Y-73285405D01*
X122374607Y-73358440D01*
X122408035Y-73420980D01*
X122453023Y-73475798D01*
X122588129Y-73677998D01*
X122922002Y-74011871D01*
X123314595Y-74274194D01*
X123750821Y-74454885D01*
X124213916Y-74547000D01*
X124686084Y-74547000D01*
X125149179Y-74454885D01*
X125585405Y-74274194D01*
X125977998Y-74011871D01*
X126311871Y-73677998D01*
X126574194Y-73285405D01*
X126754885Y-72849179D01*
X126847000Y-72386084D01*
X126847000Y-71913916D01*
X126754885Y-71450821D01*
X126574194Y-71014595D01*
X126484261Y-70880000D01*
X127047547Y-70880000D01*
X127047547Y-73420000D01*
X127069307Y-73640931D01*
X127133750Y-73853371D01*
X127238400Y-74049157D01*
X127379235Y-74220765D01*
X127550843Y-74361600D01*
X127746629Y-74466250D01*
X127959069Y-74530693D01*
X128180000Y-74552453D01*
X130720000Y-74552453D01*
X130940931Y-74530693D01*
X131153371Y-74466250D01*
X131349157Y-74361600D01*
X131520765Y-74220765D01*
X131661600Y-74049157D01*
X131766250Y-73853371D01*
X131830693Y-73640931D01*
X131852453Y-73420000D01*
X131852453Y-71913916D01*
X132053000Y-71913916D01*
X132053000Y-72386084D01*
X132145115Y-72849179D01*
X132325806Y-73285405D01*
X132588129Y-73677998D01*
X132922002Y-74011871D01*
X133314595Y-74274194D01*
X133750821Y-74454885D01*
X134213916Y-74547000D01*
X134686084Y-74547000D01*
X135149179Y-74454885D01*
X135585405Y-74274194D01*
X135977998Y-74011871D01*
X136311871Y-73677998D01*
X136574194Y-73285405D01*
X136754885Y-72849179D01*
X136847000Y-72386084D01*
X136847000Y-71913916D01*
X136754885Y-71450821D01*
X136574194Y-71014595D01*
X136484261Y-70880000D01*
X137286699Y-70880000D01*
X137286699Y-73420000D01*
X137303864Y-73594274D01*
X137354697Y-73761851D01*
X137437247Y-73916291D01*
X137548341Y-74051659D01*
X137683709Y-74162753D01*
X137838149Y-74245303D01*
X138005726Y-74296136D01*
X138180000Y-74313301D01*
X140720000Y-74313301D01*
X140894274Y-74296136D01*
X141061851Y-74245303D01*
X141216291Y-74162753D01*
X141351659Y-74051659D01*
X141462753Y-73916291D01*
X141545303Y-73761851D01*
X141596136Y-73594274D01*
X141613301Y-73420000D01*
X141613301Y-70880000D01*
X141596136Y-70705726D01*
X141545303Y-70538149D01*
X141462753Y-70383709D01*
X141351659Y-70248341D01*
X141216291Y-70137247D01*
X141061851Y-70054697D01*
X140894274Y-70003864D01*
X140720000Y-69986699D01*
X138180000Y-69986699D01*
X138005726Y-70003864D01*
X137838149Y-70054697D01*
X137683709Y-70137247D01*
X137548341Y-70248341D01*
X137437247Y-70383709D01*
X137354697Y-70538149D01*
X137303864Y-70705726D01*
X137286699Y-70880000D01*
X136484261Y-70880000D01*
X136311871Y-70622002D01*
X135977998Y-70288129D01*
X135585405Y-70025806D01*
X135149179Y-69845115D01*
X134686084Y-69753000D01*
X134213916Y-69753000D01*
X133750821Y-69845115D01*
X133314595Y-70025806D01*
X132922002Y-70288129D01*
X132588129Y-70622002D01*
X132325806Y-71014595D01*
X132145115Y-71450821D01*
X132053000Y-71913916D01*
X131852453Y-71913916D01*
X131852453Y-70880000D01*
X131830693Y-70659069D01*
X131766250Y-70446629D01*
X131661600Y-70250843D01*
X131520765Y-70079235D01*
X131349157Y-69938400D01*
X131153371Y-69833750D01*
X130940931Y-69769307D01*
X130720000Y-69747547D01*
X128180000Y-69747547D01*
X127959069Y-69769307D01*
X127746629Y-69833750D01*
X127550843Y-69938400D01*
X127379235Y-70079235D01*
X127238400Y-70250843D01*
X127133750Y-70446629D01*
X127069307Y-70659069D01*
X127047547Y-70880000D01*
X126484261Y-70880000D01*
X126311871Y-70622002D01*
X125977998Y-70288129D01*
X125775798Y-70153023D01*
X125720980Y-70108035D01*
X125658440Y-70074607D01*
X125585405Y-70025806D01*
X125504252Y-69992191D01*
X125308039Y-69887313D01*
X124859973Y-69751394D01*
X124394000Y-69705500D01*
X123928027Y-69751394D01*
X123479961Y-69887313D01*
X123067020Y-70108035D01*
X122705075Y-70405075D01*
X122408035Y-70767020D01*
X122187313Y-71179961D01*
X122051394Y-71628027D01*
X122005500Y-72094000D01*
X120768000Y-72094000D01*
X120768000Y-71884509D01*
X120686261Y-71473577D01*
X120525923Y-71086488D01*
X120293149Y-70738116D01*
X119996884Y-70441851D01*
X119648512Y-70209077D01*
X119261423Y-70048739D01*
X118850491Y-69967000D01*
X118431509Y-69967000D01*
X118020577Y-70048739D01*
X117633488Y-70209077D01*
X117285116Y-70441851D01*
X116988851Y-70738116D01*
X116756077Y-71086488D01*
X116595739Y-71473577D01*
X116514000Y-71884509D01*
X115688000Y-71884509D01*
X115688000Y-71874509D01*
X115606261Y-71463577D01*
X115445923Y-71076488D01*
X115213149Y-70728116D01*
X114916884Y-70431851D01*
X114568512Y-70199077D01*
X114181423Y-70038739D01*
X113770491Y-69957000D01*
X113351509Y-69957000D01*
X112940577Y-70038739D01*
X112553488Y-70199077D01*
X112205116Y-70431851D01*
X111908851Y-70728116D01*
X111676077Y-71076488D01*
X111515739Y-71463577D01*
X111434000Y-71874509D01*
X106694904Y-71874509D01*
X104000000Y-69179605D01*
X101265450Y-71914155D01*
X100914000Y-71914155D01*
X100914000Y-71603722D01*
X101085845Y-71734550D01*
X103820395Y-69000000D01*
X104179605Y-69000000D01*
X106914155Y-71734550D01*
X107434550Y-71338366D01*
X107824748Y-70623388D01*
X108067964Y-69846024D01*
X108154851Y-69036147D01*
X108082069Y-68224882D01*
X107852415Y-67443403D01*
X107474715Y-66721744D01*
X107434550Y-66661634D01*
X106914155Y-66265450D01*
X104179605Y-69000000D01*
X103820395Y-69000000D01*
X101085845Y-66265450D01*
X100914000Y-66396278D01*
X100914000Y-65914000D01*
X101396278Y-65914000D01*
X101265450Y-66085845D01*
X101265450Y-66085845D01*
G37*
X101265450Y-66085845D02*
X104000000Y-68820395D01*
X106734550Y-66085845D01*
X106603722Y-65914000D01*
X183396278Y-65914000D01*
X183265450Y-66085845D01*
X186000000Y-68820395D01*
X188734550Y-66085845D01*
X188603722Y-65914000D01*
X189086000Y-65914000D01*
X189086000Y-66396278D01*
X188914155Y-66265450D01*
X186179605Y-69000000D01*
X188914155Y-71734550D01*
X189086000Y-71603722D01*
X189086001Y-105739000D01*
X185419389Y-105739000D01*
X185554663Y-105712092D01*
X185862041Y-105584772D01*
X186138675Y-105399932D01*
X186373932Y-105164675D01*
X186558772Y-104888041D01*
X186686092Y-104580663D01*
X186704086Y-104490204D01*
X186875439Y-104438224D01*
X187090682Y-104323175D01*
X187279344Y-104168344D01*
X187318144Y-104121066D01*
X188285072Y-103154139D01*
X188332344Y-103115344D01*
X188487175Y-102926682D01*
X188602224Y-102711439D01*
X188673072Y-102477886D01*
X188679511Y-102412515D01*
X188696994Y-102235000D01*
X188691000Y-102174141D01*
X188691000Y-91932858D01*
X188696994Y-91872001D01*
X188691000Y-91811141D01*
X188691000Y-88833858D01*
X188696994Y-88772999D01*
X188673072Y-88530113D01*
X188602224Y-88296561D01*
X188533028Y-88167104D01*
X188487175Y-88081318D01*
X188332344Y-87892656D01*
X188285066Y-87853856D01*
X187055301Y-86624091D01*
X187055301Y-85458000D01*
X187038136Y-85283726D01*
X186987303Y-85116149D01*
X186904753Y-84961709D01*
X186793659Y-84826341D01*
X186658291Y-84715247D01*
X186517887Y-84640200D01*
X186613862Y-84503608D01*
X186732357Y-84235493D01*
X186753476Y-84124890D01*
X186632155Y-83895000D01*
X185189000Y-83895000D01*
X185189000Y-83915000D01*
X184935000Y-83915000D01*
X184935000Y-83895000D01*
X183491845Y-83895000D01*
X183370524Y-84124890D01*
X183391643Y-84235493D01*
X183510138Y-84503608D01*
X183606113Y-84640200D01*
X183465709Y-84715247D01*
X183330341Y-84826341D01*
X183219247Y-84961709D01*
X183136697Y-85116149D01*
X183085864Y-85283726D01*
X183068699Y-85458000D01*
X183068699Y-87158000D01*
X183085864Y-87332274D01*
X183136697Y-87499851D01*
X183219247Y-87654291D01*
X183330341Y-87789659D01*
X183465709Y-87900753D01*
X183620149Y-87983303D01*
X183787726Y-88034136D01*
X183962000Y-88051301D01*
X184978091Y-88051301D01*
X186213001Y-89286211D01*
X186213001Y-89292786D01*
X186067279Y-89147064D01*
X185808989Y-88974481D01*
X185521994Y-88855604D01*
X185319970Y-88815418D01*
X185319344Y-88814656D01*
X185124896Y-88655076D01*
X184903051Y-88536498D01*
X184662336Y-88463478D01*
X184474726Y-88445000D01*
X184412000Y-88438822D01*
X184349274Y-88445000D01*
X181006031Y-88445000D01*
X180955082Y-88382918D01*
X180872836Y-88315421D01*
X180928082Y-88270082D01*
X181139147Y-88012898D01*
X181295982Y-87719480D01*
X181392561Y-87401102D01*
X181425172Y-87070000D01*
X181392561Y-86738898D01*
X181295982Y-86420520D01*
X181139147Y-86127102D01*
X180928082Y-85869918D01*
X180670898Y-85658853D01*
X180632005Y-85638065D01*
X180791519Y-85493414D01*
X180959037Y-85267420D01*
X181079246Y-85013087D01*
X181119904Y-84879039D01*
X180997915Y-84657000D01*
X179855000Y-84657000D01*
X179855000Y-84677000D01*
X179601000Y-84677000D01*
X179601000Y-84657000D01*
X178458085Y-84657000D01*
X178336096Y-84879039D01*
X178376754Y-85013087D01*
X178496963Y-85267420D01*
X178664481Y-85493414D01*
X178823995Y-85638065D01*
X178785102Y-85658853D01*
X178527918Y-85869918D01*
X178316853Y-86127102D01*
X178160018Y-86420520D01*
X178063439Y-86738898D01*
X178030828Y-87070000D01*
X178063439Y-87401102D01*
X178160018Y-87719480D01*
X178316853Y-88012898D01*
X178527918Y-88270082D01*
X178583164Y-88315421D01*
X178500918Y-88382918D01*
X178449969Y-88445000D01*
X178261951Y-88445000D01*
X174334762Y-84517812D01*
X174305355Y-84420869D01*
X174172848Y-84172966D01*
X173994523Y-83955677D01*
X173777234Y-83777352D01*
X173618605Y-83692563D01*
X173550896Y-83565888D01*
X173335082Y-83302918D01*
X173252836Y-83235421D01*
X173308082Y-83190082D01*
X173519147Y-82932898D01*
X173675982Y-82639480D01*
X173772561Y-82321102D01*
X173805172Y-81990000D01*
X173772561Y-81658898D01*
X173675982Y-81340520D01*
X173519147Y-81047102D01*
X173308082Y-80789918D01*
X173222886Y-80720000D01*
X173308082Y-80650082D01*
X173519147Y-80392898D01*
X173675982Y-80099480D01*
X173772561Y-79781102D01*
X173805172Y-79450000D01*
X173772561Y-79118898D01*
X173675982Y-78800520D01*
X173519147Y-78507102D01*
X173308082Y-78249918D01*
X173222886Y-78180000D01*
X173308082Y-78110082D01*
X173519147Y-77852898D01*
X173675982Y-77559480D01*
X173772561Y-77241102D01*
X173805172Y-76910000D01*
X173772561Y-76578898D01*
X173675982Y-76260520D01*
X173519147Y-75967102D01*
X173308082Y-75709918D01*
X173222886Y-75640000D01*
X173308082Y-75570082D01*
X173519147Y-75312898D01*
X173675982Y-75019480D01*
X173772561Y-74701102D01*
X173805172Y-74370000D01*
X173772561Y-74038898D01*
X173675982Y-73720520D01*
X173519147Y-73427102D01*
X173308082Y-73169918D01*
X173222886Y-73100000D01*
X173308082Y-73030082D01*
X173519147Y-72772898D01*
X173675982Y-72479480D01*
X173772561Y-72161102D01*
X173805172Y-71830000D01*
X173772561Y-71498898D01*
X173675982Y-71180520D01*
X173519147Y-70887102D01*
X173446270Y-70798301D01*
X173539659Y-70721659D01*
X173650753Y-70586291D01*
X173733303Y-70431851D01*
X173784136Y-70264274D01*
X173801301Y-70090000D01*
X173801301Y-69290000D01*
X178030828Y-69290000D01*
X178063439Y-69621102D01*
X178160018Y-69939480D01*
X178316853Y-70232898D01*
X178527918Y-70490082D01*
X178613114Y-70560000D01*
X178527918Y-70629918D01*
X178316853Y-70887102D01*
X178160018Y-71180520D01*
X178063439Y-71498898D01*
X178030828Y-71830000D01*
X178063439Y-72161102D01*
X178160018Y-72479480D01*
X178316853Y-72772898D01*
X178527918Y-73030082D01*
X178613114Y-73100000D01*
X178527918Y-73169918D01*
X178316853Y-73427102D01*
X178160018Y-73720520D01*
X178063439Y-74038898D01*
X178030828Y-74370000D01*
X178063439Y-74701102D01*
X178160018Y-75019480D01*
X178316853Y-75312898D01*
X178527918Y-75570082D01*
X178613114Y-75640000D01*
X178527918Y-75709918D01*
X178316853Y-75967102D01*
X178160018Y-76260520D01*
X178063439Y-76578898D01*
X178030828Y-76910000D01*
X178063439Y-77241102D01*
X178160018Y-77559480D01*
X178316853Y-77852898D01*
X178527918Y-78110082D01*
X178613114Y-78180000D01*
X178527918Y-78249918D01*
X178316853Y-78507102D01*
X178160018Y-78800520D01*
X178063439Y-79118898D01*
X178030828Y-79450000D01*
X178063439Y-79781102D01*
X178160018Y-80099480D01*
X178316853Y-80392898D01*
X178527918Y-80650082D01*
X178613114Y-80720000D01*
X178527918Y-80789918D01*
X178316853Y-81047102D01*
X178160018Y-81340520D01*
X178063439Y-81658898D01*
X178030828Y-81990000D01*
X178063439Y-82321102D01*
X178160018Y-82639480D01*
X178316853Y-82932898D01*
X178527918Y-83190082D01*
X178785102Y-83401147D01*
X178823995Y-83421935D01*
X178664481Y-83566586D01*
X178496963Y-83792580D01*
X178376754Y-84046913D01*
X178336096Y-84180961D01*
X178458085Y-84403000D01*
X179601000Y-84403000D01*
X179601000Y-84383000D01*
X179855000Y-84383000D01*
X179855000Y-84403000D01*
X180997915Y-84403000D01*
X181119904Y-84180961D01*
X181079246Y-84046913D01*
X180959037Y-83792580D01*
X180791519Y-83566586D01*
X180632005Y-83421935D01*
X180670898Y-83401147D01*
X180928082Y-83190082D01*
X181139147Y-82932898D01*
X181295982Y-82639480D01*
X181392561Y-82321102D01*
X181425172Y-81990000D01*
X181392561Y-81658898D01*
X181295982Y-81340520D01*
X181139147Y-81047102D01*
X180928082Y-80789918D01*
X180842886Y-80720000D01*
X180928082Y-80650082D01*
X181139147Y-80392898D01*
X181295982Y-80099480D01*
X181392561Y-79781102D01*
X181425172Y-79450000D01*
X181392561Y-79118898D01*
X181295982Y-78800520D01*
X181139147Y-78507102D01*
X180928082Y-78249918D01*
X180842886Y-78180000D01*
X180928082Y-78110082D01*
X181139147Y-77852898D01*
X181295982Y-77559480D01*
X181392561Y-77241102D01*
X181425172Y-76910000D01*
X181392561Y-76578898D01*
X181295982Y-76260520D01*
X181139147Y-75967102D01*
X180928082Y-75709918D01*
X180842886Y-75640000D01*
X180928082Y-75570082D01*
X181139147Y-75312898D01*
X181295982Y-75019480D01*
X181392561Y-74701102D01*
X181425172Y-74370000D01*
X181392561Y-74038898D01*
X181295982Y-73720520D01*
X181139147Y-73427102D01*
X180928082Y-73169918D01*
X180842886Y-73100000D01*
X180880660Y-73069000D01*
X181316790Y-73069000D01*
X183388783Y-75140994D01*
X183359078Y-75177189D01*
X183197600Y-75479294D01*
X183098162Y-75807096D01*
X183064586Y-76148000D01*
X183098162Y-76488904D01*
X183197600Y-76816706D01*
X183359078Y-77118811D01*
X183576392Y-77383608D01*
X183618299Y-77418000D01*
X183576392Y-77452392D01*
X183359078Y-77717189D01*
X183197600Y-78019294D01*
X183098162Y-78347096D01*
X183064586Y-78688000D01*
X183098162Y-79028904D01*
X183197600Y-79356706D01*
X183359078Y-79658811D01*
X183576392Y-79923608D01*
X183618299Y-79958000D01*
X183576392Y-79992392D01*
X183359078Y-80257189D01*
X183197600Y-80559294D01*
X183098162Y-80887096D01*
X183064586Y-81228000D01*
X183098162Y-81568904D01*
X183197600Y-81896706D01*
X183359078Y-82198811D01*
X183576392Y-82463608D01*
X183816706Y-82660829D01*
X183678663Y-82792546D01*
X183510138Y-83032392D01*
X183391643Y-83300507D01*
X183370524Y-83411110D01*
X183491845Y-83641000D01*
X184935000Y-83641000D01*
X184935000Y-83621000D01*
X185189000Y-83621000D01*
X185189000Y-83641000D01*
X186632155Y-83641000D01*
X186753476Y-83411110D01*
X186732357Y-83300507D01*
X186613862Y-83032392D01*
X186445337Y-82792546D01*
X186307294Y-82660829D01*
X186547608Y-82463608D01*
X186764922Y-82198811D01*
X186926400Y-81896706D01*
X187025838Y-81568904D01*
X187059414Y-81228000D01*
X187025838Y-80887096D01*
X186926400Y-80559294D01*
X186764922Y-80257189D01*
X186547608Y-79992392D01*
X186505701Y-79958000D01*
X186547608Y-79923608D01*
X186764922Y-79658811D01*
X186926400Y-79356706D01*
X187025838Y-79028904D01*
X187059414Y-78688000D01*
X187037429Y-78464781D01*
X187653766Y-77848444D01*
X187701044Y-77809644D01*
X187809012Y-77678084D01*
X187855874Y-77620983D01*
X187970924Y-77405739D01*
X188041772Y-77172187D01*
X188065694Y-76929301D01*
X188060346Y-76875000D01*
X188065694Y-76820699D01*
X188051010Y-76671609D01*
X188051010Y-75587535D01*
X188057004Y-75526676D01*
X188033082Y-75283790D01*
X187965706Y-75061682D01*
X187962234Y-75050237D01*
X187847185Y-74834994D01*
X187692354Y-74646332D01*
X187645082Y-74607537D01*
X186852468Y-73814924D01*
X186813668Y-73767646D01*
X186625006Y-73612815D01*
X186409763Y-73497766D01*
X186176210Y-73426918D01*
X185994183Y-73408990D01*
X185933324Y-73402996D01*
X185872465Y-73408990D01*
X185161201Y-73408990D01*
X184668183Y-72915973D01*
X185153976Y-73067964D01*
X185963853Y-73154851D01*
X186775118Y-73082069D01*
X187556597Y-72852415D01*
X188278256Y-72474715D01*
X188338366Y-72434550D01*
X188734550Y-71914155D01*
X186000000Y-69179605D01*
X185985858Y-69193748D01*
X185806253Y-69014143D01*
X185820395Y-69000000D01*
X183085845Y-66265450D01*
X182565450Y-66661634D01*
X182175252Y-67376612D01*
X181932036Y-68153976D01*
X181845149Y-68963853D01*
X181917931Y-69775118D01*
X182147585Y-70556597D01*
X182194241Y-70645741D01*
X182072886Y-70608928D01*
X181890859Y-70591000D01*
X181830000Y-70585006D01*
X181769141Y-70591000D01*
X180880660Y-70591000D01*
X180842886Y-70560000D01*
X180928082Y-70490082D01*
X181139147Y-70232898D01*
X181295982Y-69939480D01*
X181392561Y-69621102D01*
X181425172Y-69290000D01*
X181392561Y-68958898D01*
X181295982Y-68640520D01*
X181139147Y-68347102D01*
X180928082Y-68089918D01*
X180670898Y-67878853D01*
X180377480Y-67722018D01*
X180059102Y-67625439D01*
X179810971Y-67601000D01*
X179645029Y-67601000D01*
X179396898Y-67625439D01*
X179078520Y-67722018D01*
X178785102Y-67878853D01*
X178527918Y-68089918D01*
X178316853Y-68347102D01*
X178160018Y-68640520D01*
X178063439Y-68958898D01*
X178030828Y-69290000D01*
X173801301Y-69290000D01*
X173801301Y-68490000D01*
X173784136Y-68315726D01*
X173733303Y-68148149D01*
X173650753Y-67993709D01*
X173539659Y-67858341D01*
X173404291Y-67747247D01*
X173249851Y-67664697D01*
X173082274Y-67613864D01*
X172908000Y-67596699D01*
X171308000Y-67596699D01*
X171133726Y-67613864D01*
X170966149Y-67664697D01*
X170811709Y-67747247D01*
X170676341Y-67858341D01*
X170565247Y-67993709D01*
X170482697Y-68148149D01*
X170431864Y-68315726D01*
X170414699Y-68490000D01*
X170414699Y-70090000D01*
X170431864Y-70264274D01*
X170482697Y-70431851D01*
X170565247Y-70586291D01*
X170676341Y-70721659D01*
X170769730Y-70798301D01*
X170696853Y-70887102D01*
X170540018Y-71180520D01*
X170443439Y-71498898D01*
X170410828Y-71830000D01*
X170443439Y-72161102D01*
X170540018Y-72479480D01*
X170696853Y-72772898D01*
X170907918Y-73030082D01*
X170993114Y-73100000D01*
X170907918Y-73169918D01*
X170696853Y-73427102D01*
X170540018Y-73720520D01*
X170443439Y-74038898D01*
X170410828Y-74370000D01*
X170443439Y-74701102D01*
X170540018Y-75019480D01*
X170696853Y-75312898D01*
X170907918Y-75570082D01*
X170993114Y-75640000D01*
X170907918Y-75709918D01*
X170696853Y-75967102D01*
X170540018Y-76260520D01*
X170443439Y-76578898D01*
X170410828Y-76910000D01*
X170443439Y-77241102D01*
X170540018Y-77559480D01*
X170696853Y-77852898D01*
X170724456Y-77886533D01*
X170610039Y-77825376D01*
X170376486Y-77754528D01*
X170194459Y-77736600D01*
X170133600Y-77730606D01*
X170072741Y-77736600D01*
X163238996Y-77736600D01*
X163357571Y-77486004D01*
X163426300Y-77211816D01*
X163440217Y-76929488D01*
X163398787Y-76649870D01*
X163303603Y-76383708D01*
X163236671Y-76258486D01*
X162992702Y-76186903D01*
X162179605Y-77000000D01*
X162193748Y-77014143D01*
X162014143Y-77193748D01*
X162000000Y-77179605D01*
X161985858Y-77193748D01*
X161806253Y-77014143D01*
X161820395Y-77000000D01*
X161007298Y-76186903D01*
X160868839Y-76227528D01*
X160648609Y-76007298D01*
X161186903Y-76007298D01*
X162000000Y-76820395D01*
X162813097Y-76007298D01*
X162787483Y-75920000D01*
X166302828Y-75920000D01*
X166335439Y-76251102D01*
X166432018Y-76569480D01*
X166588853Y-76862898D01*
X166799918Y-77120082D01*
X167057102Y-77331147D01*
X167350520Y-77487982D01*
X167668898Y-77584561D01*
X167917029Y-77609000D01*
X168082971Y-77609000D01*
X168331102Y-77584561D01*
X168649480Y-77487982D01*
X168942898Y-77331147D01*
X169200082Y-77120082D01*
X169411147Y-76862898D01*
X169567982Y-76569480D01*
X169664561Y-76251102D01*
X169697172Y-75920000D01*
X169664561Y-75588898D01*
X169567982Y-75270520D01*
X169411147Y-74977102D01*
X169200082Y-74719918D01*
X168942898Y-74508853D01*
X168649480Y-74352018D01*
X168331102Y-74255439D01*
X168082971Y-74231000D01*
X167917029Y-74231000D01*
X167668898Y-74255439D01*
X167350520Y-74352018D01*
X167057102Y-74508853D01*
X166799918Y-74719918D01*
X166588853Y-74977102D01*
X166432018Y-75270520D01*
X166335439Y-75588898D01*
X166302828Y-75920000D01*
X162787483Y-75920000D01*
X162741514Y-75763329D01*
X162486004Y-75642429D01*
X162211816Y-75573700D01*
X161929488Y-75559783D01*
X161649870Y-75601213D01*
X161383708Y-75696397D01*
X161258486Y-75763329D01*
X161186903Y-76007298D01*
X160648609Y-76007298D01*
X158245346Y-73604036D01*
X158267914Y-73588957D01*
X158544957Y-73311914D01*
X158762629Y-72986145D01*
X158912564Y-72624170D01*
X158989000Y-72239899D01*
X158989000Y-71848101D01*
X158912564Y-71463830D01*
X158762629Y-71101855D01*
X158674007Y-70969222D01*
X158883747Y-70894919D01*
X159021157Y-70821472D01*
X159098792Y-70572397D01*
X158250000Y-69723605D01*
X158235858Y-69737748D01*
X158056253Y-69558143D01*
X158070395Y-69544000D01*
X158429605Y-69544000D01*
X159278397Y-70392792D01*
X159527472Y-70315157D01*
X159653371Y-70051117D01*
X159725339Y-69767589D01*
X159740611Y-69475469D01*
X159725700Y-69372723D01*
X161011000Y-69372723D01*
X161011000Y-69715277D01*
X161077829Y-70051248D01*
X161208918Y-70367725D01*
X161399231Y-70652548D01*
X161641452Y-70894769D01*
X161926275Y-71085082D01*
X162197742Y-71197527D01*
X162087436Y-71463830D01*
X162011000Y-71848101D01*
X162011000Y-72239899D01*
X162087436Y-72624170D01*
X162237371Y-72986145D01*
X162455043Y-73311914D01*
X162732086Y-73588957D01*
X163057855Y-73806629D01*
X163419830Y-73956564D01*
X163804101Y-74033000D01*
X164195899Y-74033000D01*
X164580170Y-73956564D01*
X164942145Y-73806629D01*
X165267914Y-73588957D01*
X165544957Y-73311914D01*
X165762629Y-72986145D01*
X165912564Y-72624170D01*
X165989000Y-72239899D01*
X165989000Y-71848101D01*
X165912564Y-71463830D01*
X165762629Y-71101855D01*
X165544957Y-70776086D01*
X165267914Y-70499043D01*
X164942145Y-70281371D01*
X164580170Y-70131436D01*
X164403511Y-70096297D01*
X164422171Y-70051248D01*
X164489000Y-69715277D01*
X164489000Y-69372723D01*
X164422171Y-69036752D01*
X164291082Y-68720275D01*
X164100769Y-68435452D01*
X163858548Y-68193231D01*
X163573725Y-68002918D01*
X163257248Y-67871829D01*
X162921277Y-67805000D01*
X162578723Y-67805000D01*
X162242752Y-67871829D01*
X161926275Y-68002918D01*
X161641452Y-68193231D01*
X161399231Y-68435452D01*
X161208918Y-68720275D01*
X161077829Y-69036752D01*
X161011000Y-69372723D01*
X159725700Y-69372723D01*
X159698599Y-69185981D01*
X159600919Y-68910253D01*
X159527472Y-68772843D01*
X159278397Y-68695208D01*
X158429605Y-69544000D01*
X158070395Y-69544000D01*
X157221603Y-68695208D01*
X156972528Y-68772843D01*
X156846629Y-69036883D01*
X156774661Y-69320411D01*
X156759389Y-69612531D01*
X156801401Y-69902019D01*
X156855596Y-70055000D01*
X156804101Y-70055000D01*
X156419830Y-70131436D01*
X156057855Y-70281371D01*
X155732086Y-70499043D01*
X155455043Y-70776086D01*
X155237371Y-71101855D01*
X155087436Y-71463830D01*
X155011000Y-71848101D01*
X155011000Y-72239899D01*
X155087436Y-72624170D01*
X155237371Y-72986145D01*
X155323989Y-73115778D01*
X153292326Y-71084115D01*
X153515454Y-70927337D01*
X153717814Y-70715259D01*
X153874911Y-70467777D01*
X153980708Y-70194402D01*
X154031140Y-69905640D01*
X153871496Y-69671000D01*
X152667000Y-69671000D01*
X152667000Y-69691000D01*
X152413000Y-69691000D01*
X152413000Y-69671000D01*
X152393000Y-69671000D01*
X152393000Y-69417000D01*
X152413000Y-69417000D01*
X152413000Y-67973845D01*
X152667000Y-67973845D01*
X152667000Y-69417000D01*
X153871496Y-69417000D01*
X154031140Y-69182360D01*
X153980708Y-68893598D01*
X153874911Y-68620223D01*
X153808501Y-68515603D01*
X157401208Y-68515603D01*
X158250000Y-69364395D01*
X159098792Y-68515603D01*
X159021157Y-68266528D01*
X158757117Y-68140629D01*
X158473589Y-68068661D01*
X158181469Y-68053389D01*
X157891981Y-68095401D01*
X157616253Y-68193081D01*
X157478843Y-68266528D01*
X157401208Y-68515603D01*
X153808501Y-68515603D01*
X153717814Y-68372741D01*
X153515454Y-68160663D01*
X153275608Y-67992138D01*
X153007493Y-67873643D01*
X152896890Y-67852524D01*
X152667000Y-67973845D01*
X152413000Y-67973845D01*
X152183110Y-67852524D01*
X152072507Y-67873643D01*
X151804392Y-67992138D01*
X151564546Y-68160663D01*
X151432829Y-68298706D01*
X151235608Y-68058392D01*
X150970810Y-67841078D01*
X150668705Y-67679600D01*
X150340903Y-67580162D01*
X150000000Y-67546586D01*
X149659096Y-67580162D01*
X149331294Y-67679600D01*
X149029189Y-67841078D01*
X149020353Y-67848330D01*
X148968659Y-67785341D01*
X148827505Y-67669499D01*
X148666464Y-67583420D01*
X148491724Y-67530413D01*
X148310000Y-67512515D01*
X146610000Y-67512515D01*
X146428276Y-67530413D01*
X146253536Y-67583420D01*
X146092495Y-67669499D01*
X145951341Y-67785341D01*
X145835499Y-67926495D01*
X145749420Y-68087536D01*
X145696413Y-68262276D01*
X145678515Y-68444000D01*
X145678515Y-70644000D01*
X145696413Y-70825724D01*
X145749420Y-71000464D01*
X145835499Y-71161505D01*
X145951341Y-71302659D01*
X146092495Y-71418501D01*
X146253536Y-71504580D01*
X146428276Y-71557587D01*
X146610000Y-71575485D01*
X148310000Y-71575485D01*
X148491724Y-71557587D01*
X148666464Y-71504580D01*
X148827505Y-71418501D01*
X148968659Y-71302659D01*
X149020353Y-71239670D01*
X149029190Y-71246922D01*
X149331295Y-71408400D01*
X149659097Y-71507838D01*
X150000000Y-71541414D01*
X150223219Y-71519429D01*
X152916789Y-74213000D01*
X152484641Y-74213000D01*
X152458659Y-74181341D01*
X152317505Y-74065499D01*
X152156464Y-73979420D01*
X151981724Y-73926413D01*
X151800000Y-73908515D01*
X150200000Y-73908515D01*
X150018276Y-73926413D01*
X149843536Y-73979420D01*
X149682495Y-74065499D01*
X149541341Y-74181341D01*
X149515359Y-74213000D01*
X148969797Y-74213000D01*
X148899700Y-74206096D01*
X148829602Y-74213000D01*
X148619959Y-74233648D01*
X148350969Y-74315245D01*
X148103066Y-74447752D01*
X147885777Y-74626077D01*
X147707452Y-74843366D01*
X147574945Y-75091269D01*
X147493348Y-75360259D01*
X147465796Y-75640000D01*
X147472700Y-75710098D01*
X147472700Y-76466917D01*
X144480081Y-79459536D01*
X144409192Y-79103155D01*
X144229104Y-78668384D01*
X143967657Y-78277101D01*
X143634899Y-77944343D01*
X143243616Y-77682896D01*
X142808845Y-77502808D01*
X142347296Y-77411000D01*
X141876704Y-77411000D01*
X141415155Y-77502808D01*
X140980384Y-77682896D01*
X140589101Y-77944343D01*
X140256343Y-78277101D01*
X139994896Y-78668384D01*
X139814808Y-79103155D01*
X139723000Y-79564704D01*
X139723000Y-80035296D01*
X139814808Y-80496845D01*
X139994896Y-80931616D01*
X140256343Y-81322899D01*
X140589101Y-81655657D01*
X140980384Y-81917104D01*
X141415155Y-82097192D01*
X141771537Y-82168081D01*
X133516618Y-90423000D01*
X131513744Y-90423000D01*
X131249757Y-90159013D01*
X130893196Y-89920767D01*
X130497008Y-89756660D01*
X130076416Y-89673000D01*
X129647584Y-89673000D01*
X129226992Y-89756660D01*
X128830804Y-89920767D01*
X128474243Y-90159013D01*
X128171013Y-90462243D01*
X127932767Y-90818804D01*
X127768660Y-91214992D01*
X127685000Y-91635584D01*
X127685000Y-92064416D01*
X127768660Y-92485008D01*
X127932767Y-92881196D01*
X128171013Y-93237757D01*
X128474243Y-93540987D01*
X128830804Y-93779233D01*
X129226992Y-93943340D01*
X129647584Y-94027000D01*
X130076416Y-94027000D01*
X130497008Y-93943340D01*
X130893196Y-93779233D01*
X131249757Y-93540987D01*
X131513744Y-93277000D01*
X134037612Y-93277000D01*
X134107700Y-93283903D01*
X134177788Y-93277000D01*
X134177798Y-93277000D01*
X134387441Y-93256352D01*
X134656431Y-93174755D01*
X134904334Y-93042248D01*
X135121623Y-92863923D01*
X135166309Y-92809473D01*
X149343080Y-78632702D01*
X150186903Y-78632702D01*
X150258486Y-78876671D01*
X150513996Y-78997571D01*
X150788184Y-79066300D01*
X151070512Y-79080217D01*
X151350130Y-79038787D01*
X151616292Y-78943603D01*
X151741514Y-78876671D01*
X151813097Y-78632702D01*
X151000000Y-77819605D01*
X150186903Y-78632702D01*
X149343080Y-78632702D01*
X149704441Y-78271342D01*
X149763329Y-78381514D01*
X150007298Y-78453097D01*
X150820395Y-77640000D01*
X150806253Y-77625858D01*
X150985858Y-77446253D01*
X151000000Y-77460395D01*
X151014143Y-77446253D01*
X151193748Y-77625858D01*
X151179605Y-77640000D01*
X151992702Y-78453097D01*
X152236671Y-78381514D01*
X152357571Y-78126004D01*
X152426300Y-77851816D01*
X152440217Y-77569488D01*
X152398787Y-77289870D01*
X152359507Y-77180031D01*
X152458659Y-77098659D01*
X152484641Y-77067000D01*
X152509218Y-77067000D01*
X153401690Y-77959472D01*
X153446377Y-78013923D01*
X153663666Y-78192248D01*
X153911569Y-78324755D01*
X154180559Y-78406352D01*
X154390202Y-78427000D01*
X154390211Y-78427000D01*
X154460299Y-78433903D01*
X154530387Y-78427000D01*
X156027140Y-78427000D01*
X156181959Y-78530447D01*
X156496253Y-78660632D01*
X156678876Y-78696958D01*
X157857549Y-79875631D01*
X157720582Y-79763225D01*
X157505339Y-79648176D01*
X157271786Y-79577328D01*
X157089759Y-79559400D01*
X157028900Y-79553406D01*
X156968041Y-79559400D01*
X150109758Y-79559400D01*
X150048899Y-79553406D01*
X149806013Y-79577328D01*
X149686442Y-79613600D01*
X149572461Y-79648176D01*
X149357218Y-79763225D01*
X149168556Y-79918056D01*
X149129760Y-79965329D01*
X134936434Y-94158656D01*
X134889156Y-94197456D01*
X134734325Y-94386119D01*
X134619276Y-94601362D01*
X134619276Y-94601363D01*
X134548428Y-94834914D01*
X134524506Y-95077800D01*
X134530500Y-95138659D01*
X134530501Y-101177631D01*
X134524506Y-101238500D01*
X134548428Y-101481386D01*
X134619276Y-101714937D01*
X134619277Y-101714939D01*
X134734326Y-101930182D01*
X134889157Y-102118844D01*
X134936430Y-102157640D01*
X135947400Y-103168610D01*
X135947400Y-103206699D01*
X135036000Y-103206699D01*
X134861726Y-103223864D01*
X134694194Y-103274684D01*
X131118444Y-99698934D01*
X131079644Y-99651656D01*
X130890982Y-99496825D01*
X130675739Y-99381776D01*
X130442186Y-99310928D01*
X130260159Y-99293000D01*
X130199300Y-99287006D01*
X130138441Y-99293000D01*
X128553607Y-99293000D01*
X128480675Y-99220068D01*
X128204041Y-99035228D01*
X127896663Y-98907908D01*
X127570352Y-98843000D01*
X127237648Y-98843000D01*
X126911337Y-98907908D01*
X126603959Y-99035228D01*
X126327325Y-99220068D01*
X126092068Y-99455325D01*
X125907228Y-99731959D01*
X125779908Y-100039337D01*
X125715000Y-100365648D01*
X125715000Y-100698352D01*
X125779908Y-101024663D01*
X125907228Y-101332041D01*
X126092068Y-101608675D01*
X126327325Y-101843932D01*
X126603959Y-102028772D01*
X126911337Y-102156092D01*
X127237648Y-102221000D01*
X127570352Y-102221000D01*
X127896663Y-102156092D01*
X128204041Y-102028772D01*
X128480675Y-101843932D01*
X128553607Y-101771000D01*
X129686090Y-101771000D01*
X131632073Y-103716983D01*
X131590903Y-103857298D01*
X132404000Y-104670395D01*
X132418143Y-104656253D01*
X132597748Y-104835858D01*
X132583605Y-104850000D01*
X132597748Y-104864143D01*
X132418143Y-105043748D01*
X132404000Y-105029605D01*
X131590903Y-105842702D01*
X131662486Y-106086671D01*
X131917996Y-106207571D01*
X132192184Y-106276300D01*
X132474512Y-106290217D01*
X132754130Y-106248787D01*
X132984167Y-106166522D01*
X129435485Y-109715205D01*
X129435485Y-108068000D01*
X129417587Y-107886276D01*
X129364580Y-107711536D01*
X129278501Y-107550495D01*
X129162659Y-107409341D01*
X129021505Y-107293499D01*
X128860464Y-107207420D01*
X128685724Y-107154413D01*
X128504000Y-107136515D01*
X126304000Y-107136515D01*
X126122276Y-107154413D01*
X125947536Y-107207420D01*
X125786495Y-107293499D01*
X125645341Y-107409341D01*
X125529499Y-107550495D01*
X125443420Y-107711536D01*
X125390413Y-107886276D01*
X125372515Y-108068000D01*
X125372515Y-110268000D01*
X125390413Y-110449724D01*
X125443420Y-110624464D01*
X125529499Y-110785505D01*
X125645341Y-110926659D01*
X125786495Y-111042501D01*
X125947536Y-111128580D01*
X126122276Y-111181587D01*
X126304000Y-111199485D01*
X127951205Y-111199485D01*
X125817353Y-113333337D01*
X125545480Y-113188018D01*
X125227102Y-113091439D01*
X124978971Y-113067000D01*
X124813029Y-113067000D01*
X124564898Y-113091439D01*
X124246520Y-113188018D01*
X123953102Y-113344853D01*
X123695918Y-113555918D01*
X123484853Y-113813102D01*
X123328018Y-114106520D01*
X123231439Y-114424898D01*
X123198828Y-114756000D01*
X123231439Y-115087102D01*
X123328018Y-115405480D01*
X123484853Y-115698898D01*
X123695918Y-115956082D01*
X123953102Y-116167147D01*
X124246520Y-116323982D01*
X124564898Y-116420561D01*
X124813029Y-116445000D01*
X124978971Y-116445000D01*
X125227102Y-116420561D01*
X125545480Y-116323982D01*
X125838898Y-116167147D01*
X126048660Y-115995000D01*
X126335142Y-115995000D01*
X126396000Y-116000994D01*
X126638886Y-115977072D01*
X126872439Y-115906224D01*
X126929251Y-115875858D01*
X127121325Y-116067932D01*
X127397959Y-116252772D01*
X127705337Y-116380092D01*
X128031648Y-116445000D01*
X128364352Y-116445000D01*
X128690663Y-116380092D01*
X128998041Y-116252772D01*
X129274675Y-116067932D01*
X129509932Y-115832675D01*
X129694772Y-115556041D01*
X129822092Y-115248663D01*
X129887000Y-114922352D01*
X129887000Y-114589648D01*
X129822092Y-114263337D01*
X129694772Y-113955959D01*
X129509932Y-113679325D01*
X129274675Y-113444068D01*
X129236530Y-113418580D01*
X135115711Y-107539400D01*
X136413178Y-107539400D01*
X136150760Y-107754760D01*
X135902206Y-108057625D01*
X135717513Y-108403160D01*
X135603780Y-108778088D01*
X135565377Y-109168000D01*
X135603780Y-109557912D01*
X135717513Y-109932840D01*
X135902206Y-110278375D01*
X136150760Y-110581240D01*
X136453625Y-110829794D01*
X136738339Y-110981977D01*
X136677438Y-111000452D01*
X136560661Y-111035876D01*
X136345418Y-111150925D01*
X136156756Y-111305756D01*
X136117960Y-111353029D01*
X134159145Y-113311845D01*
X133927480Y-113188018D01*
X133609102Y-113091439D01*
X133360971Y-113067000D01*
X133195029Y-113067000D01*
X132946898Y-113091439D01*
X132628520Y-113188018D01*
X132335102Y-113344853D01*
X132077918Y-113555918D01*
X131866853Y-113813102D01*
X131710018Y-114106520D01*
X131613439Y-114424898D01*
X131580828Y-114756000D01*
X131613439Y-115087102D01*
X131710018Y-115405480D01*
X131866853Y-115698898D01*
X132077918Y-115956082D01*
X132335102Y-116167147D01*
X132628520Y-116323982D01*
X132946898Y-116420561D01*
X133195029Y-116445000D01*
X133360971Y-116445000D01*
X133609102Y-116420561D01*
X133927480Y-116323982D01*
X134220898Y-116167147D01*
X134430660Y-115995000D01*
X134717142Y-115995000D01*
X134778000Y-116000994D01*
X135020886Y-115977072D01*
X135254439Y-115906224D01*
X135311251Y-115875858D01*
X135503325Y-116067932D01*
X135779959Y-116252772D01*
X136087337Y-116380092D01*
X136413648Y-116445000D01*
X136746352Y-116445000D01*
X137072663Y-116380092D01*
X137380041Y-116252772D01*
X137656675Y-116067932D01*
X137891932Y-115832675D01*
X138076772Y-115556041D01*
X138204092Y-115248663D01*
X138269000Y-114922352D01*
X138269000Y-114589648D01*
X138204092Y-114263337D01*
X138076772Y-113955959D01*
X137891932Y-113679325D01*
X137656675Y-113444068D01*
X137628287Y-113425100D01*
X140619321Y-113425100D01*
X140459918Y-113555918D01*
X140248853Y-113813102D01*
X140092018Y-114106520D01*
X139995439Y-114424898D01*
X139962828Y-114756000D01*
X139995439Y-115087102D01*
X140092018Y-115405480D01*
X140248853Y-115698898D01*
X140459918Y-115956082D01*
X140717102Y-116167147D01*
X141010520Y-116323982D01*
X141328898Y-116420561D01*
X141577029Y-116445000D01*
X141742971Y-116445000D01*
X141991102Y-116420561D01*
X142309480Y-116323982D01*
X142602898Y-116167147D01*
X142812660Y-115995000D01*
X143099141Y-115995000D01*
X143160000Y-116000994D01*
X143402886Y-115977072D01*
X143472080Y-115956082D01*
X143636439Y-115906224D01*
X143851682Y-115791175D01*
X144040344Y-115636344D01*
X144079144Y-115589066D01*
X147025555Y-112642656D01*
X147050778Y-112725814D01*
X147177316Y-112990944D01*
X147353146Y-113226293D01*
X147452433Y-113315649D01*
X147214728Y-113510728D01*
X147209581Y-113517000D01*
X146957258Y-113517000D01*
X146896399Y-113511006D01*
X146653513Y-113534928D01*
X146446752Y-113597649D01*
X146419961Y-113605776D01*
X146204718Y-113720825D01*
X146016056Y-113875656D01*
X145977252Y-113922939D01*
X145580031Y-114320159D01*
X145532757Y-114358956D01*
X145377926Y-114547618D01*
X145269866Y-114749786D01*
X145262876Y-114762863D01*
X145192028Y-114996414D01*
X145168106Y-115239300D01*
X145174101Y-115300168D01*
X145174100Y-118055841D01*
X145168106Y-118116700D01*
X145182757Y-118265450D01*
X145192028Y-118359585D01*
X145262876Y-118593138D01*
X145377925Y-118808381D01*
X145532756Y-118997044D01*
X145580034Y-119035844D01*
X146702256Y-120158066D01*
X146741056Y-120205344D01*
X146929718Y-120360175D01*
X146984451Y-120389430D01*
X147144961Y-120475224D01*
X147378513Y-120546072D01*
X147621399Y-120569994D01*
X147682258Y-120564000D01*
X162887841Y-120564000D01*
X162948700Y-120569994D01*
X163191586Y-120546072D01*
X163425139Y-120475224D01*
X163640382Y-120360175D01*
X163829044Y-120205344D01*
X163867844Y-120158066D01*
X165748566Y-118277344D01*
X165795844Y-118238544D01*
X165881247Y-118134481D01*
X165874098Y-124086000D01*
X106603722Y-124086000D01*
X106734550Y-123914155D01*
X104000000Y-121179605D01*
X101265450Y-123914155D01*
X101396278Y-124086000D01*
X100914000Y-124086000D01*
X100914000Y-123603722D01*
X101085845Y-123734550D01*
X103820395Y-121000000D01*
X104179605Y-121000000D01*
X106914155Y-123734550D01*
X107434550Y-123338366D01*
X107824748Y-122623388D01*
X108067964Y-121846024D01*
X108154851Y-121036147D01*
X108082069Y-120224882D01*
X107852415Y-119443403D01*
X107474715Y-118721744D01*
X107434550Y-118661634D01*
X106914155Y-118265450D01*
X104179605Y-121000000D01*
X103820395Y-121000000D01*
X101085845Y-118265450D01*
X100914000Y-118396278D01*
X100914000Y-118085845D01*
X101265450Y-118085845D01*
X104000000Y-120820395D01*
X106734550Y-118085845D01*
X106338366Y-117565450D01*
X105623388Y-117175252D01*
X104846024Y-116932036D01*
X104036147Y-116845149D01*
X103224882Y-116917931D01*
X102443403Y-117147585D01*
X101721744Y-117525285D01*
X101661634Y-117565450D01*
X101265450Y-118085845D01*
X100914000Y-118085845D01*
X100914000Y-107193614D01*
X103883000Y-107193614D01*
X103883000Y-107626386D01*
X103967430Y-108050841D01*
X104133044Y-108450670D01*
X104373479Y-108810506D01*
X104407572Y-108844599D01*
X104199386Y-109156171D01*
X104042818Y-109534161D01*
X103963000Y-109935433D01*
X103963000Y-110344567D01*
X104042818Y-110745839D01*
X104199386Y-111123829D01*
X104426689Y-111464011D01*
X104613000Y-111650322D01*
X104613000Y-111836442D01*
X104613001Y-111836452D01*
X104613000Y-114933912D01*
X104606097Y-115004000D01*
X104613000Y-115074088D01*
X104613000Y-115074097D01*
X104633648Y-115283740D01*
X104715245Y-115552730D01*
X104842697Y-115791175D01*
X104847753Y-115800634D01*
X104981392Y-115963474D01*
X104981395Y-115963477D01*
X105026077Y-116017922D01*
X105080523Y-116062605D01*
X108543395Y-119525478D01*
X108588077Y-119579923D01*
X108642522Y-119624605D01*
X108642525Y-119624608D01*
X108722704Y-119690409D01*
X108805366Y-119758248D01*
X109053269Y-119890755D01*
X109240661Y-119947600D01*
X109322258Y-119972352D01*
X109346474Y-119974737D01*
X109531902Y-119993000D01*
X109531910Y-119993000D01*
X109602000Y-119999903D01*
X109672090Y-119993000D01*
X109917359Y-119993000D01*
X109943341Y-120024659D01*
X110084495Y-120140501D01*
X110245536Y-120226580D01*
X110420276Y-120279587D01*
X110602000Y-120297485D01*
X111115403Y-120297485D01*
X112826695Y-122008778D01*
X112871377Y-122063223D01*
X112925822Y-122107905D01*
X112925825Y-122107908D01*
X112976766Y-122149714D01*
X113088666Y-122241548D01*
X113336569Y-122374055D01*
X113523961Y-122430900D01*
X113605558Y-122455652D01*
X113629774Y-122458037D01*
X113815202Y-122476300D01*
X113815210Y-122476300D01*
X113885300Y-122483203D01*
X113955390Y-122476300D01*
X122910012Y-122476300D01*
X122980100Y-122483203D01*
X123050188Y-122476300D01*
X123050198Y-122476300D01*
X123259841Y-122455652D01*
X123528831Y-122374055D01*
X123776734Y-122241548D01*
X123994023Y-122063223D01*
X124038709Y-122008773D01*
X125036478Y-121011005D01*
X125090923Y-120966323D01*
X125135605Y-120911878D01*
X125135608Y-120911875D01*
X125236359Y-120789109D01*
X125269248Y-120749034D01*
X125401755Y-120501131D01*
X125466971Y-120286142D01*
X125483352Y-120232142D01*
X125488654Y-120178310D01*
X125504000Y-120022498D01*
X125504000Y-120022490D01*
X125509156Y-119970142D01*
X125696066Y-119690409D01*
X125833789Y-119357916D01*
X125904000Y-119004944D01*
X125904000Y-118645056D01*
X125833789Y-118292084D01*
X125696066Y-117959591D01*
X125672954Y-117925000D01*
X127243699Y-117925000D01*
X127243699Y-119725000D01*
X127260864Y-119899274D01*
X127311697Y-120066851D01*
X127394247Y-120221291D01*
X127505341Y-120356659D01*
X127640709Y-120467753D01*
X127795149Y-120550303D01*
X127962726Y-120601136D01*
X128137000Y-120618301D01*
X129937000Y-120618301D01*
X130111274Y-120601136D01*
X130278851Y-120550303D01*
X130433291Y-120467753D01*
X130568659Y-120356659D01*
X130572950Y-120351430D01*
X130711591Y-120444066D01*
X131044084Y-120581789D01*
X131397056Y-120652000D01*
X131756944Y-120652000D01*
X132109916Y-120581789D01*
X132442409Y-120444066D01*
X132741645Y-120244124D01*
X132996124Y-119989645D01*
X133196066Y-119690409D01*
X133333789Y-119357916D01*
X133404000Y-119004944D01*
X133404000Y-118645056D01*
X133333789Y-118292084D01*
X133196066Y-117959591D01*
X133172954Y-117925000D01*
X134743699Y-117925000D01*
X134743699Y-119725000D01*
X134760864Y-119899274D01*
X134811697Y-120066851D01*
X134894247Y-120221291D01*
X135005341Y-120356659D01*
X135140709Y-120467753D01*
X135295149Y-120550303D01*
X135462726Y-120601136D01*
X135637000Y-120618301D01*
X137437000Y-120618301D01*
X137611274Y-120601136D01*
X137778851Y-120550303D01*
X137933291Y-120467753D01*
X138068659Y-120356659D01*
X138072950Y-120351430D01*
X138211591Y-120444066D01*
X138544084Y-120581789D01*
X138897056Y-120652000D01*
X139256944Y-120652000D01*
X139609916Y-120581789D01*
X139942409Y-120444066D01*
X140241645Y-120244124D01*
X140496124Y-119989645D01*
X140696066Y-119690409D01*
X140833789Y-119357916D01*
X140904000Y-119004944D01*
X140904000Y-118645056D01*
X140833789Y-118292084D01*
X140696066Y-117959591D01*
X140496124Y-117660355D01*
X140241645Y-117405876D01*
X139942409Y-117205934D01*
X139609916Y-117068211D01*
X139256944Y-116998000D01*
X138897056Y-116998000D01*
X138544084Y-117068211D01*
X138211591Y-117205934D01*
X138072950Y-117298570D01*
X138068659Y-117293341D01*
X137933291Y-117182247D01*
X137778851Y-117099697D01*
X137611274Y-117048864D01*
X137437000Y-117031699D01*
X135637000Y-117031699D01*
X135462726Y-117048864D01*
X135295149Y-117099697D01*
X135140709Y-117182247D01*
X135005341Y-117293341D01*
X134894247Y-117428709D01*
X134811697Y-117583149D01*
X134760864Y-117750726D01*
X134743699Y-117925000D01*
X133172954Y-117925000D01*
X132996124Y-117660355D01*
X132741645Y-117405876D01*
X132442409Y-117205934D01*
X132109916Y-117068211D01*
X131756944Y-116998000D01*
X131397056Y-116998000D01*
X131044084Y-117068211D01*
X130711591Y-117205934D01*
X130572950Y-117298570D01*
X130568659Y-117293341D01*
X130433291Y-117182247D01*
X130278851Y-117099697D01*
X130111274Y-117048864D01*
X129937000Y-117031699D01*
X128137000Y-117031699D01*
X127962726Y-117048864D01*
X127795149Y-117099697D01*
X127640709Y-117182247D01*
X127505341Y-117293341D01*
X127394247Y-117428709D01*
X127311697Y-117583149D01*
X127260864Y-117750726D01*
X127243699Y-117925000D01*
X125672954Y-117925000D01*
X125496124Y-117660355D01*
X125241645Y-117405876D01*
X124942409Y-117205934D01*
X124609916Y-117068211D01*
X124256944Y-116998000D01*
X123897056Y-116998000D01*
X123544084Y-117068211D01*
X123211591Y-117205934D01*
X123072950Y-117298570D01*
X123068659Y-117293341D01*
X122933291Y-117182247D01*
X122778851Y-117099697D01*
X122769370Y-117096821D01*
X122758072Y-116982114D01*
X122738602Y-116917931D01*
X122687224Y-116748561D01*
X122572175Y-116533318D01*
X122417344Y-116344656D01*
X122370071Y-116305860D01*
X121402831Y-115338620D01*
X121440092Y-115248663D01*
X121505000Y-114922352D01*
X121505000Y-114589648D01*
X121440092Y-114263337D01*
X121312772Y-113955959D01*
X121127932Y-113679325D01*
X120892675Y-113444068D01*
X120616041Y-113259228D01*
X120308663Y-113131908D01*
X119982352Y-113067000D01*
X119649648Y-113067000D01*
X119323337Y-113131908D01*
X119015959Y-113259228D01*
X118739325Y-113444068D01*
X118504068Y-113679325D01*
X118319228Y-113955959D01*
X118191908Y-114263337D01*
X118127000Y-114589648D01*
X118127000Y-114922352D01*
X118191908Y-115248663D01*
X118319228Y-115556041D01*
X118504068Y-115832675D01*
X118681789Y-116010396D01*
X118780825Y-116195681D01*
X118935656Y-116384344D01*
X118982934Y-116423144D01*
X119936731Y-117376942D01*
X119894247Y-117428709D01*
X119811697Y-117583149D01*
X119760864Y-117750726D01*
X119743699Y-117925000D01*
X119743699Y-119622300D01*
X115696437Y-119622300D01*
X115715097Y-119558702D01*
X114902000Y-118745605D01*
X114887858Y-118759748D01*
X114708253Y-118580143D01*
X114722395Y-118566000D01*
X115081605Y-118566000D01*
X115894702Y-119379097D01*
X116138671Y-119307514D01*
X116259571Y-119052004D01*
X116328300Y-118777816D01*
X116342217Y-118495488D01*
X116300787Y-118215870D01*
X116205603Y-117949708D01*
X116138671Y-117824486D01*
X115894702Y-117752903D01*
X115081605Y-118566000D01*
X114722395Y-118566000D01*
X113909298Y-117752903D01*
X113665329Y-117824486D01*
X113544429Y-118079996D01*
X113475700Y-118354184D01*
X113463137Y-118609054D01*
X113133485Y-118279403D01*
X113133485Y-117766000D01*
X113115587Y-117584276D01*
X113112257Y-117573298D01*
X114088903Y-117573298D01*
X114902000Y-118386395D01*
X115715097Y-117573298D01*
X115643514Y-117329329D01*
X115388004Y-117208429D01*
X115113816Y-117139700D01*
X114831488Y-117125783D01*
X114551870Y-117167213D01*
X114285708Y-117262397D01*
X114160486Y-117329329D01*
X114088903Y-117573298D01*
X113112257Y-117573298D01*
X113062580Y-117409536D01*
X112976501Y-117248495D01*
X112860659Y-117107341D01*
X112719505Y-116991499D01*
X112558464Y-116905420D01*
X112383724Y-116852413D01*
X112202000Y-116834515D01*
X110602000Y-116834515D01*
X110420276Y-116852413D01*
X110245536Y-116905420D01*
X110084495Y-116991499D01*
X110063122Y-117009039D01*
X107467000Y-114412918D01*
X107467000Y-111650322D01*
X107653311Y-111464011D01*
X107707875Y-111382349D01*
X120377256Y-111382349D01*
X120491118Y-111662090D01*
X120806296Y-111817961D01*
X121145826Y-111909349D01*
X121496661Y-111932741D01*
X121845319Y-111887240D01*
X122178400Y-111774594D01*
X122388882Y-111662090D01*
X122502744Y-111382349D01*
X121440000Y-110319605D01*
X120377256Y-111382349D01*
X107707875Y-111382349D01*
X107880614Y-111123829D01*
X108037182Y-110745839D01*
X108117000Y-110344567D01*
X108117000Y-110196661D01*
X119647259Y-110196661D01*
X119692760Y-110545319D01*
X119805406Y-110878400D01*
X119917910Y-111088882D01*
X120197651Y-111202744D01*
X121260395Y-110140000D01*
X121619605Y-110140000D01*
X122682349Y-111202744D01*
X122962090Y-111088882D01*
X123117961Y-110773704D01*
X123209349Y-110434174D01*
X123232741Y-110083339D01*
X123187240Y-109734681D01*
X123074594Y-109401600D01*
X122962090Y-109191118D01*
X122682349Y-109077256D01*
X121619605Y-110140000D01*
X121260395Y-110140000D01*
X120197651Y-109077256D01*
X119917910Y-109191118D01*
X119762039Y-109506296D01*
X119670651Y-109845826D01*
X119647259Y-110196661D01*
X108117000Y-110196661D01*
X108117000Y-109935433D01*
X108037182Y-109534161D01*
X107880614Y-109156171D01*
X107704471Y-108892556D01*
X107786521Y-108810506D01*
X108026956Y-108450670D01*
X108192570Y-108050841D01*
X108277000Y-107626386D01*
X108277000Y-107197357D01*
X109001000Y-107197357D01*
X109001000Y-107622643D01*
X109083970Y-108039757D01*
X109246719Y-108432670D01*
X109482996Y-108786282D01*
X109783718Y-109087004D01*
X110137330Y-109323281D01*
X110530243Y-109486030D01*
X110947357Y-109569000D01*
X111372643Y-109569000D01*
X111789757Y-109486030D01*
X112182670Y-109323281D01*
X112536282Y-109087004D01*
X112837004Y-108786282D01*
X112869364Y-108737852D01*
X115091753Y-108737852D01*
X115220076Y-109029871D01*
X115555695Y-109197723D01*
X115917611Y-109296874D01*
X116291916Y-109323514D01*
X116664227Y-109276618D01*
X117020235Y-109157988D01*
X117259924Y-109029871D01*
X117318025Y-108897651D01*
X120377256Y-108897651D01*
X121440000Y-109960395D01*
X122502744Y-108897651D01*
X122388882Y-108617910D01*
X122073704Y-108462039D01*
X121734174Y-108370651D01*
X121383339Y-108347259D01*
X121034681Y-108392760D01*
X120701600Y-108505406D01*
X120491118Y-108617910D01*
X120377256Y-108897651D01*
X117318025Y-108897651D01*
X117388247Y-108737852D01*
X116240000Y-107589605D01*
X115091753Y-108737852D01*
X112869364Y-108737852D01*
X113073281Y-108432670D01*
X113236030Y-108039757D01*
X113319000Y-107622643D01*
X113319000Y-107461916D01*
X114326486Y-107461916D01*
X114373382Y-107834227D01*
X114492012Y-108190235D01*
X114620129Y-108429924D01*
X114912148Y-108558247D01*
X116060395Y-107410000D01*
X116419605Y-107410000D01*
X117567852Y-108558247D01*
X117859871Y-108429924D01*
X118027723Y-108094305D01*
X118126874Y-107732389D01*
X118153514Y-107358084D01*
X118106618Y-106985773D01*
X117987988Y-106629765D01*
X117859871Y-106390076D01*
X117567852Y-106261753D01*
X116419605Y-107410000D01*
X116060395Y-107410000D01*
X114912148Y-106261753D01*
X114620129Y-106390076D01*
X114452277Y-106725695D01*
X114353126Y-107087611D01*
X114326486Y-107461916D01*
X113319000Y-107461916D01*
X113319000Y-107197357D01*
X113236030Y-106780243D01*
X113073281Y-106387330D01*
X112869365Y-106082148D01*
X115091753Y-106082148D01*
X116240000Y-107230395D01*
X117388247Y-106082148D01*
X117259924Y-105790129D01*
X116924305Y-105622277D01*
X116562389Y-105523126D01*
X116188084Y-105496486D01*
X115815773Y-105543382D01*
X115459765Y-105662012D01*
X115220076Y-105790129D01*
X115091753Y-106082148D01*
X112869365Y-106082148D01*
X112837004Y-106033718D01*
X112536282Y-105732996D01*
X112182670Y-105496719D01*
X111789757Y-105333970D01*
X111372643Y-105251000D01*
X110947357Y-105251000D01*
X110530243Y-105333970D01*
X110137330Y-105496719D01*
X109783718Y-105732996D01*
X109482996Y-106033718D01*
X109246719Y-106387330D01*
X109083970Y-106780243D01*
X109001000Y-107197357D01*
X108277000Y-107197357D01*
X108277000Y-107193614D01*
X108192570Y-106769159D01*
X108026956Y-106369330D01*
X107786521Y-106009494D01*
X107480506Y-105703479D01*
X107120670Y-105463044D01*
X106720841Y-105297430D01*
X106296386Y-105213000D01*
X105863614Y-105213000D01*
X105439159Y-105297430D01*
X105039330Y-105463044D01*
X104679494Y-105703479D01*
X104373479Y-106009494D01*
X104133044Y-106369330D01*
X103967430Y-106769159D01*
X103883000Y-107193614D01*
X100914000Y-107193614D01*
X100914000Y-104679905D01*
X125677000Y-104679905D01*
X125677000Y-105020095D01*
X125743368Y-105353747D01*
X125873553Y-105668041D01*
X126062552Y-105950898D01*
X126303102Y-106191448D01*
X126585959Y-106380447D01*
X126900253Y-106510632D01*
X127233905Y-106577000D01*
X127574095Y-106577000D01*
X127907747Y-106510632D01*
X128222041Y-106380447D01*
X128504898Y-106191448D01*
X128745448Y-105950898D01*
X128934447Y-105668041D01*
X129064632Y-105353747D01*
X129131000Y-105020095D01*
X129131000Y-104920512D01*
X130963783Y-104920512D01*
X131005213Y-105200130D01*
X131100397Y-105466292D01*
X131167329Y-105591514D01*
X131411298Y-105663097D01*
X132224395Y-104850000D01*
X131411298Y-104036903D01*
X131167329Y-104108486D01*
X131046429Y-104363996D01*
X130977700Y-104638184D01*
X130963783Y-104920512D01*
X129131000Y-104920512D01*
X129131000Y-104679905D01*
X129064632Y-104346253D01*
X128934447Y-104031959D01*
X128745448Y-103749102D01*
X128504898Y-103508552D01*
X128222041Y-103319553D01*
X127907747Y-103189368D01*
X127574095Y-103123000D01*
X127233905Y-103123000D01*
X126900253Y-103189368D01*
X126585959Y-103319553D01*
X126303102Y-103508552D01*
X126062552Y-103749102D01*
X125873553Y-104031959D01*
X125743368Y-104346253D01*
X125677000Y-104679905D01*
X100914000Y-104679905D01*
X100914000Y-95622000D01*
X125372515Y-95622000D01*
X125372515Y-97822000D01*
X125390413Y-98003724D01*
X125443420Y-98178464D01*
X125529499Y-98339505D01*
X125645341Y-98480659D01*
X125786495Y-98596501D01*
X125947536Y-98682580D01*
X126122276Y-98735587D01*
X126304000Y-98753485D01*
X128504000Y-98753485D01*
X128685724Y-98735587D01*
X128860464Y-98682580D01*
X129021505Y-98596501D01*
X129162659Y-98480659D01*
X129278501Y-98339505D01*
X129364580Y-98178464D01*
X129417587Y-98003724D01*
X129435485Y-97822000D01*
X129435485Y-95622000D01*
X129417587Y-95440276D01*
X129364580Y-95265536D01*
X129278501Y-95104495D01*
X129162659Y-94963341D01*
X129021505Y-94847499D01*
X128860464Y-94761420D01*
X128685724Y-94708413D01*
X128504000Y-94690515D01*
X126304000Y-94690515D01*
X126122276Y-94708413D01*
X125947536Y-94761420D01*
X125786495Y-94847499D01*
X125645341Y-94963341D01*
X125529499Y-95104495D01*
X125443420Y-95265536D01*
X125390413Y-95440276D01*
X125372515Y-95622000D01*
X100914000Y-95622000D01*
X100914000Y-85541263D01*
X125285000Y-85541263D01*
X125285000Y-86058737D01*
X125385954Y-86566268D01*
X125583983Y-87044351D01*
X125871476Y-87474615D01*
X126237385Y-87840524D01*
X126667649Y-88128017D01*
X127145732Y-88326046D01*
X127653263Y-88427000D01*
X128170737Y-88427000D01*
X128678268Y-88326046D01*
X129156351Y-88128017D01*
X129586615Y-87840524D01*
X129952524Y-87474615D01*
X130240017Y-87044351D01*
X130438046Y-86566268D01*
X130539000Y-86058737D01*
X130539000Y-85541263D01*
X130438046Y-85033732D01*
X130240017Y-84555649D01*
X129952524Y-84125385D01*
X129586615Y-83759476D01*
X129156351Y-83471983D01*
X128678268Y-83273954D01*
X128170737Y-83173000D01*
X127653263Y-83173000D01*
X127145732Y-83273954D01*
X126667649Y-83471983D01*
X126237385Y-83759476D01*
X125871476Y-84125385D01*
X125583983Y-84555649D01*
X125385954Y-85033732D01*
X125285000Y-85541263D01*
X100914000Y-85541263D01*
X100914000Y-80515735D01*
X108963000Y-80515735D01*
X108963000Y-80964265D01*
X109050504Y-81404176D01*
X109222149Y-81818564D01*
X109471339Y-82191503D01*
X109788497Y-82508661D01*
X110161436Y-82757851D01*
X110575824Y-82929496D01*
X111015735Y-83017000D01*
X111464265Y-83017000D01*
X111904176Y-82929496D01*
X112318564Y-82757851D01*
X112691503Y-82508661D01*
X113008661Y-82191503D01*
X113257851Y-81818564D01*
X113429496Y-81404176D01*
X113517000Y-80964265D01*
X113517000Y-80515735D01*
X113514650Y-80503916D01*
X113843000Y-80503916D01*
X113843000Y-80976084D01*
X113935115Y-81439179D01*
X114107547Y-81855466D01*
X114107547Y-81890000D01*
X114129307Y-82110931D01*
X114193750Y-82323371D01*
X114298400Y-82519157D01*
X114439235Y-82690765D01*
X114610843Y-82831600D01*
X114806629Y-82936250D01*
X115019069Y-83000693D01*
X115240000Y-83022453D01*
X115486665Y-83022453D01*
X115540821Y-83044885D01*
X116003916Y-83137000D01*
X116476084Y-83137000D01*
X116939179Y-83044885D01*
X116993335Y-83022453D01*
X117240000Y-83022453D01*
X117460931Y-83000693D01*
X117673371Y-82936250D01*
X117869157Y-82831600D01*
X118040765Y-82690765D01*
X118181600Y-82519157D01*
X118286250Y-82323371D01*
X118350693Y-82110931D01*
X118372453Y-81890000D01*
X118372453Y-81855466D01*
X118544885Y-81439179D01*
X118637000Y-80976084D01*
X118637000Y-80503916D01*
X118923000Y-80503916D01*
X118923000Y-80976084D01*
X119015115Y-81439179D01*
X119195806Y-81875405D01*
X119458129Y-82267998D01*
X119792002Y-82601871D01*
X120184595Y-82864194D01*
X120620821Y-83044885D01*
X121083916Y-83137000D01*
X121556084Y-83137000D01*
X122019179Y-83044885D01*
X122455405Y-82864194D01*
X122847998Y-82601871D01*
X123181871Y-82267998D01*
X123444194Y-81875405D01*
X123624885Y-81439179D01*
X123717000Y-80976084D01*
X123717000Y-80503916D01*
X123624885Y-80040821D01*
X123458581Y-79639327D01*
X127723000Y-79639327D01*
X127723000Y-80060673D01*
X127805200Y-80473923D01*
X127966443Y-80863197D01*
X128200530Y-81213533D01*
X128498467Y-81511470D01*
X128848803Y-81745557D01*
X129238077Y-81906800D01*
X129651327Y-81989000D01*
X130072673Y-81989000D01*
X130485923Y-81906800D01*
X130875197Y-81745557D01*
X131225533Y-81511470D01*
X131523470Y-81213533D01*
X131757557Y-80863197D01*
X131918800Y-80473923D01*
X132001000Y-80060673D01*
X132001000Y-79639327D01*
X131918800Y-79226077D01*
X131757557Y-78836803D01*
X131523470Y-78486467D01*
X131225533Y-78188530D01*
X130875197Y-77954443D01*
X130485923Y-77793200D01*
X130072673Y-77711000D01*
X129651327Y-77711000D01*
X129238077Y-77793200D01*
X128848803Y-77954443D01*
X128498467Y-78188530D01*
X128200530Y-78486467D01*
X127966443Y-78836803D01*
X127805200Y-79226077D01*
X127723000Y-79639327D01*
X123458581Y-79639327D01*
X123444194Y-79604595D01*
X123181871Y-79212002D01*
X122847998Y-78878129D01*
X122455405Y-78615806D01*
X122019179Y-78435115D01*
X121556084Y-78343000D01*
X121083916Y-78343000D01*
X120620821Y-78435115D01*
X120184595Y-78615806D01*
X119792002Y-78878129D01*
X119458129Y-79212002D01*
X119195806Y-79604595D01*
X119015115Y-80040821D01*
X118923000Y-80503916D01*
X118637000Y-80503916D01*
X118544885Y-80040821D01*
X118372453Y-79624534D01*
X118372453Y-79590000D01*
X118350693Y-79369069D01*
X118286250Y-79156629D01*
X118181600Y-78960843D01*
X118040765Y-78789235D01*
X117869157Y-78648400D01*
X117673371Y-78543750D01*
X117460931Y-78479307D01*
X117240000Y-78457547D01*
X116993335Y-78457547D01*
X116939179Y-78435115D01*
X116476084Y-78343000D01*
X116003916Y-78343000D01*
X115540821Y-78435115D01*
X115486665Y-78457547D01*
X115240000Y-78457547D01*
X115019069Y-78479307D01*
X114806629Y-78543750D01*
X114610843Y-78648400D01*
X114439235Y-78789235D01*
X114298400Y-78960843D01*
X114193750Y-79156629D01*
X114129307Y-79369069D01*
X114107547Y-79590000D01*
X114107547Y-79624534D01*
X113935115Y-80040821D01*
X113843000Y-80503916D01*
X113514650Y-80503916D01*
X113429496Y-80075824D01*
X113257851Y-79661436D01*
X113008661Y-79288497D01*
X112691503Y-78971339D01*
X112318564Y-78722149D01*
X111904176Y-78550504D01*
X111464265Y-78463000D01*
X111015735Y-78463000D01*
X110575824Y-78550504D01*
X110161436Y-78722149D01*
X109788497Y-78971339D01*
X109471339Y-79288497D01*
X109222149Y-79661436D01*
X109050504Y-80075824D01*
X108963000Y-80515735D01*
X100914000Y-80515735D01*
X100914000Y-71914155D01*
X101265450Y-71914155D01*
X101661634Y-72434550D01*
X102376612Y-72824748D01*
X103153976Y-73067964D01*
X103963853Y-73154851D01*
X104775118Y-73082069D01*
X105556597Y-72852415D01*
X106278256Y-72474715D01*
X106338366Y-72434550D01*
X106734550Y-71914155D01*
X106694904Y-71874509D01*
X111434000Y-71874509D01*
X111434000Y-72293491D01*
X111515739Y-72704423D01*
X111676077Y-73091512D01*
X111908851Y-73439884D01*
X112205116Y-73736149D01*
X112553488Y-73968923D01*
X112940577Y-74129261D01*
X113351509Y-74211000D01*
X113770491Y-74211000D01*
X114181423Y-74129261D01*
X114568512Y-73968923D01*
X114916884Y-73736149D01*
X115213149Y-73439884D01*
X115445923Y-73091512D01*
X115606261Y-72704423D01*
X115688000Y-72293491D01*
X115688000Y-71884509D01*
X116514000Y-71884509D01*
X116514000Y-72303491D01*
X116595739Y-72714423D01*
X116756077Y-73101512D01*
X116988851Y-73449884D01*
X117285116Y-73746149D01*
X117633488Y-73978923D01*
X118020577Y-74139261D01*
X118431509Y-74221000D01*
X118850491Y-74221000D01*
X119261423Y-74139261D01*
X119648512Y-73978923D01*
X119996884Y-73746149D01*
X120293149Y-73449884D01*
X120525923Y-73101512D01*
X120686261Y-72714423D01*
X120768000Y-72303491D01*
X120768000Y-72094000D01*
X122005500Y-72094000D01*
X122051394Y-72559973D01*
X122187313Y-73008039D01*
X122292191Y-73204252D01*
X122325806Y-73285405D01*
X122374607Y-73358440D01*
X122408035Y-73420980D01*
X122453023Y-73475798D01*
X122588129Y-73677998D01*
X122922002Y-74011871D01*
X123314595Y-74274194D01*
X123750821Y-74454885D01*
X124213916Y-74547000D01*
X124686084Y-74547000D01*
X125149179Y-74454885D01*
X125585405Y-74274194D01*
X125977998Y-74011871D01*
X126311871Y-73677998D01*
X126574194Y-73285405D01*
X126754885Y-72849179D01*
X126847000Y-72386084D01*
X126847000Y-71913916D01*
X126754885Y-71450821D01*
X126574194Y-71014595D01*
X126484261Y-70880000D01*
X127047547Y-70880000D01*
X127047547Y-73420000D01*
X127069307Y-73640931D01*
X127133750Y-73853371D01*
X127238400Y-74049157D01*
X127379235Y-74220765D01*
X127550843Y-74361600D01*
X127746629Y-74466250D01*
X127959069Y-74530693D01*
X128180000Y-74552453D01*
X130720000Y-74552453D01*
X130940931Y-74530693D01*
X131153371Y-74466250D01*
X131349157Y-74361600D01*
X131520765Y-74220765D01*
X131661600Y-74049157D01*
X131766250Y-73853371D01*
X131830693Y-73640931D01*
X131852453Y-73420000D01*
X131852453Y-71913916D01*
X132053000Y-71913916D01*
X132053000Y-72386084D01*
X132145115Y-72849179D01*
X132325806Y-73285405D01*
X132588129Y-73677998D01*
X132922002Y-74011871D01*
X133314595Y-74274194D01*
X133750821Y-74454885D01*
X134213916Y-74547000D01*
X134686084Y-74547000D01*
X135149179Y-74454885D01*
X135585405Y-74274194D01*
X135977998Y-74011871D01*
X136311871Y-73677998D01*
X136574194Y-73285405D01*
X136754885Y-72849179D01*
X136847000Y-72386084D01*
X136847000Y-71913916D01*
X136754885Y-71450821D01*
X136574194Y-71014595D01*
X136484261Y-70880000D01*
X137286699Y-70880000D01*
X137286699Y-73420000D01*
X137303864Y-73594274D01*
X137354697Y-73761851D01*
X137437247Y-73916291D01*
X137548341Y-74051659D01*
X137683709Y-74162753D01*
X137838149Y-74245303D01*
X138005726Y-74296136D01*
X138180000Y-74313301D01*
X140720000Y-74313301D01*
X140894274Y-74296136D01*
X141061851Y-74245303D01*
X141216291Y-74162753D01*
X141351659Y-74051659D01*
X141462753Y-73916291D01*
X141545303Y-73761851D01*
X141596136Y-73594274D01*
X141613301Y-73420000D01*
X141613301Y-70880000D01*
X141596136Y-70705726D01*
X141545303Y-70538149D01*
X141462753Y-70383709D01*
X141351659Y-70248341D01*
X141216291Y-70137247D01*
X141061851Y-70054697D01*
X140894274Y-70003864D01*
X140720000Y-69986699D01*
X138180000Y-69986699D01*
X138005726Y-70003864D01*
X137838149Y-70054697D01*
X137683709Y-70137247D01*
X137548341Y-70248341D01*
X137437247Y-70383709D01*
X137354697Y-70538149D01*
X137303864Y-70705726D01*
X137286699Y-70880000D01*
X136484261Y-70880000D01*
X136311871Y-70622002D01*
X135977998Y-70288129D01*
X135585405Y-70025806D01*
X135149179Y-69845115D01*
X134686084Y-69753000D01*
X134213916Y-69753000D01*
X133750821Y-69845115D01*
X133314595Y-70025806D01*
X132922002Y-70288129D01*
X132588129Y-70622002D01*
X132325806Y-71014595D01*
X132145115Y-71450821D01*
X132053000Y-71913916D01*
X131852453Y-71913916D01*
X131852453Y-70880000D01*
X131830693Y-70659069D01*
X131766250Y-70446629D01*
X131661600Y-70250843D01*
X131520765Y-70079235D01*
X131349157Y-69938400D01*
X131153371Y-69833750D01*
X130940931Y-69769307D01*
X130720000Y-69747547D01*
X128180000Y-69747547D01*
X127959069Y-69769307D01*
X127746629Y-69833750D01*
X127550843Y-69938400D01*
X127379235Y-70079235D01*
X127238400Y-70250843D01*
X127133750Y-70446629D01*
X127069307Y-70659069D01*
X127047547Y-70880000D01*
X126484261Y-70880000D01*
X126311871Y-70622002D01*
X125977998Y-70288129D01*
X125775798Y-70153023D01*
X125720980Y-70108035D01*
X125658440Y-70074607D01*
X125585405Y-70025806D01*
X125504252Y-69992191D01*
X125308039Y-69887313D01*
X124859973Y-69751394D01*
X124394000Y-69705500D01*
X123928027Y-69751394D01*
X123479961Y-69887313D01*
X123067020Y-70108035D01*
X122705075Y-70405075D01*
X122408035Y-70767020D01*
X122187313Y-71179961D01*
X122051394Y-71628027D01*
X122005500Y-72094000D01*
X120768000Y-72094000D01*
X120768000Y-71884509D01*
X120686261Y-71473577D01*
X120525923Y-71086488D01*
X120293149Y-70738116D01*
X119996884Y-70441851D01*
X119648512Y-70209077D01*
X119261423Y-70048739D01*
X118850491Y-69967000D01*
X118431509Y-69967000D01*
X118020577Y-70048739D01*
X117633488Y-70209077D01*
X117285116Y-70441851D01*
X116988851Y-70738116D01*
X116756077Y-71086488D01*
X116595739Y-71473577D01*
X116514000Y-71884509D01*
X115688000Y-71884509D01*
X115688000Y-71874509D01*
X115606261Y-71463577D01*
X115445923Y-71076488D01*
X115213149Y-70728116D01*
X114916884Y-70431851D01*
X114568512Y-70199077D01*
X114181423Y-70038739D01*
X113770491Y-69957000D01*
X113351509Y-69957000D01*
X112940577Y-70038739D01*
X112553488Y-70199077D01*
X112205116Y-70431851D01*
X111908851Y-70728116D01*
X111676077Y-71076488D01*
X111515739Y-71463577D01*
X111434000Y-71874509D01*
X106694904Y-71874509D01*
X104000000Y-69179605D01*
X101265450Y-71914155D01*
X100914000Y-71914155D01*
X100914000Y-71603722D01*
X101085845Y-71734550D01*
X103820395Y-69000000D01*
X104179605Y-69000000D01*
X106914155Y-71734550D01*
X107434550Y-71338366D01*
X107824748Y-70623388D01*
X108067964Y-69846024D01*
X108154851Y-69036147D01*
X108082069Y-68224882D01*
X107852415Y-67443403D01*
X107474715Y-66721744D01*
X107434550Y-66661634D01*
X106914155Y-66265450D01*
X104179605Y-69000000D01*
X103820395Y-69000000D01*
X101085845Y-66265450D01*
X100914000Y-66396278D01*
X100914000Y-65914000D01*
X101396278Y-65914000D01*
X101265450Y-66085845D01*
G36*
X148587000Y-112089000D02*
G01*
X148607000Y-112089000D01*
X148607000Y-112343000D01*
X148587000Y-112343000D01*
X148587000Y-112363000D01*
X148333000Y-112363000D01*
X148333000Y-112343000D01*
X148313000Y-112343000D01*
X148313000Y-112089000D01*
X148333000Y-112089000D01*
X148333000Y-112069000D01*
X148587000Y-112069000D01*
X148587000Y-112089000D01*
X148587000Y-112089000D01*
G37*
X148587000Y-112089000D02*
X148607000Y-112089000D01*
X148607000Y-112343000D01*
X148587000Y-112343000D01*
X148587000Y-112363000D01*
X148333000Y-112363000D01*
X148333000Y-112343000D01*
X148313000Y-112343000D01*
X148313000Y-112089000D01*
X148333000Y-112089000D01*
X148333000Y-112069000D01*
X148587000Y-112069000D01*
X148587000Y-112089000D01*
G36*
X161059000Y-109041000D02*
G01*
X161079000Y-109041000D01*
X161079000Y-109295000D01*
X161059000Y-109295000D01*
X161059000Y-109315000D01*
X160805000Y-109315000D01*
X160805000Y-109295000D01*
X160785000Y-109295000D01*
X160785000Y-109041000D01*
X160805000Y-109041000D01*
X160805000Y-109021000D01*
X161059000Y-109021000D01*
X161059000Y-109041000D01*
X161059000Y-109041000D01*
G37*
X161059000Y-109041000D02*
X161079000Y-109041000D01*
X161079000Y-109295000D01*
X161059000Y-109295000D01*
X161059000Y-109315000D01*
X160805000Y-109315000D01*
X160805000Y-109295000D01*
X160785000Y-109295000D01*
X160785000Y-109041000D01*
X160805000Y-109041000D01*
X160805000Y-109021000D01*
X161059000Y-109021000D01*
X161059000Y-109041000D01*
G36*
X149574800Y-91874441D02*
G01*
X149568806Y-91935300D01*
X149586494Y-92114885D01*
X149592728Y-92178185D01*
X149663576Y-92411738D01*
X149778625Y-92626981D01*
X149933456Y-92815644D01*
X149980734Y-92854444D01*
X152394218Y-95267929D01*
X152209096Y-95286162D01*
X151881294Y-95385600D01*
X151579189Y-95547078D01*
X151314392Y-95764392D01*
X151097078Y-96029189D01*
X150935600Y-96331294D01*
X150836162Y-96659096D01*
X150802586Y-97000000D01*
X150836162Y-97340904D01*
X150935600Y-97668706D01*
X151097078Y-97970811D01*
X151314392Y-98235608D01*
X151579189Y-98452922D01*
X151881294Y-98614400D01*
X152209096Y-98713838D01*
X152464571Y-98739000D01*
X152635429Y-98739000D01*
X152890904Y-98713838D01*
X153218706Y-98614400D01*
X153520811Y-98452922D01*
X153785608Y-98235608D01*
X153820000Y-98193701D01*
X153854392Y-98235608D01*
X154119189Y-98452922D01*
X154421294Y-98614400D01*
X154749096Y-98713838D01*
X155004571Y-98739000D01*
X155175429Y-98739000D01*
X155430904Y-98713838D01*
X155758706Y-98614400D01*
X156060811Y-98452922D01*
X156325608Y-98235608D01*
X156360000Y-98193701D01*
X156394392Y-98235608D01*
X156659189Y-98452922D01*
X156961294Y-98614400D01*
X157289096Y-98713838D01*
X157544571Y-98739000D01*
X157715429Y-98739000D01*
X157970904Y-98713838D01*
X158298706Y-98614400D01*
X158600811Y-98452922D01*
X158865608Y-98235608D01*
X158875421Y-98223651D01*
X158907392Y-98262608D01*
X159177975Y-98484670D01*
X159486681Y-98649677D01*
X159711127Y-98717762D01*
X158767190Y-99661700D01*
X148866159Y-99661700D01*
X148805300Y-99655706D01*
X148744441Y-99661700D01*
X148562414Y-99679628D01*
X148328861Y-99750476D01*
X148113618Y-99865525D01*
X147924956Y-100020356D01*
X147886160Y-100067629D01*
X144404567Y-103549222D01*
X144320985Y-103480628D01*
X144036253Y-103328435D01*
X143727300Y-103234715D01*
X143486515Y-103211000D01*
X143325485Y-103211000D01*
X143084700Y-103234715D01*
X142775747Y-103328435D01*
X142491015Y-103480628D01*
X142241445Y-103685445D01*
X142036628Y-103935015D01*
X141884435Y-104219747D01*
X141790715Y-104528700D01*
X141759070Y-104850000D01*
X141790715Y-105171300D01*
X141884435Y-105480253D01*
X142036628Y-105764985D01*
X142241445Y-106014555D01*
X142491015Y-106219372D01*
X142775747Y-106371565D01*
X143084700Y-106465285D01*
X143325485Y-106489000D01*
X143486515Y-106489000D01*
X143727300Y-106465285D01*
X144036253Y-106371565D01*
X144320985Y-106219372D01*
X144479844Y-106089000D01*
X144634790Y-106089000D01*
X142742790Y-107981000D01*
X139162910Y-107981000D01*
X138977240Y-107754760D01*
X138674375Y-107506206D01*
X138328840Y-107321513D01*
X137953912Y-107207780D01*
X137707119Y-107183473D01*
X137710444Y-107180744D01*
X137749245Y-107133464D01*
X138019461Y-106863248D01*
X138066744Y-106824444D01*
X138221575Y-106635782D01*
X138336624Y-106420539D01*
X138401228Y-106207571D01*
X138407472Y-106186987D01*
X138431394Y-105944101D01*
X138425400Y-105883242D01*
X138425400Y-102716258D01*
X138431394Y-102655399D01*
X138407472Y-102412513D01*
X138336624Y-102178961D01*
X138322673Y-102152861D01*
X138276426Y-102066337D01*
X138506898Y-101943147D01*
X138764082Y-101732082D01*
X138975147Y-101474898D01*
X139131982Y-101181480D01*
X139228561Y-100863102D01*
X139261172Y-100532000D01*
X139228561Y-100200898D01*
X139131982Y-99882520D01*
X138975147Y-99589102D01*
X138764082Y-99331918D01*
X138506898Y-99120853D01*
X138213480Y-98964018D01*
X137895102Y-98867439D01*
X137646971Y-98843000D01*
X137481029Y-98843000D01*
X137232898Y-98867439D01*
X137008500Y-98935509D01*
X137008500Y-98631990D01*
X137174088Y-98682220D01*
X137466296Y-98711000D01*
X137661704Y-98711000D01*
X137953912Y-98682220D01*
X138328840Y-98568487D01*
X138674375Y-98383794D01*
X138977240Y-98135240D01*
X139012836Y-98091866D01*
X139215561Y-98200224D01*
X139332206Y-98235608D01*
X139449113Y-98271072D01*
X139476699Y-98273789D01*
X139476699Y-99250000D01*
X139493864Y-99424274D01*
X139544697Y-99591851D01*
X139627247Y-99746291D01*
X139738341Y-99881659D01*
X139873709Y-99992753D01*
X140028149Y-100075303D01*
X140195726Y-100126136D01*
X140370000Y-100143301D01*
X141870000Y-100143301D01*
X142044274Y-100126136D01*
X142211851Y-100075303D01*
X142366291Y-99992753D01*
X142501659Y-99881659D01*
X142601774Y-99759669D01*
X142615199Y-99773094D01*
X142883643Y-99952463D01*
X143181921Y-100076014D01*
X143498573Y-100139000D01*
X143821427Y-100139000D01*
X144138079Y-100076014D01*
X144436357Y-99952463D01*
X144704801Y-99773094D01*
X144933094Y-99544801D01*
X144991765Y-99456993D01*
X145422612Y-99456993D01*
X145488137Y-99695860D01*
X145735116Y-99811760D01*
X145999960Y-99877250D01*
X146272492Y-99889812D01*
X146542238Y-99848965D01*
X146798832Y-99756277D01*
X146911863Y-99695860D01*
X146977388Y-99456993D01*
X146200000Y-98679605D01*
X145422612Y-99456993D01*
X144991765Y-99456993D01*
X145112463Y-99276357D01*
X145125399Y-99245126D01*
X145243007Y-99277388D01*
X146020395Y-98500000D01*
X146379605Y-98500000D01*
X147156993Y-99277388D01*
X147395860Y-99211863D01*
X147511760Y-98964884D01*
X147577250Y-98700040D01*
X147589812Y-98427508D01*
X147548965Y-98157762D01*
X147456277Y-97901168D01*
X147395860Y-97788137D01*
X147156993Y-97722612D01*
X146379605Y-98500000D01*
X146020395Y-98500000D01*
X145243007Y-97722612D01*
X145125399Y-97754874D01*
X145112463Y-97723643D01*
X144991766Y-97543007D01*
X145422612Y-97543007D01*
X146200000Y-98320395D01*
X146977388Y-97543007D01*
X146911863Y-97304140D01*
X146664884Y-97188240D01*
X146400040Y-97122750D01*
X146127508Y-97110188D01*
X145857762Y-97151035D01*
X145601168Y-97243723D01*
X145488137Y-97304140D01*
X145422612Y-97543007D01*
X144991766Y-97543007D01*
X144933094Y-97455199D01*
X144704801Y-97226906D01*
X144436357Y-97047537D01*
X144138079Y-96923986D01*
X143821427Y-96861000D01*
X143498573Y-96861000D01*
X143181921Y-96923986D01*
X142883643Y-97047537D01*
X142615199Y-97226906D01*
X142601774Y-97240331D01*
X142501659Y-97118341D01*
X142366291Y-97007247D01*
X142360477Y-97004139D01*
X142341072Y-96807114D01*
X142270224Y-96573561D01*
X142155175Y-96358318D01*
X142000344Y-96169656D01*
X141811682Y-96014825D01*
X141596439Y-95899776D01*
X141362886Y-95828928D01*
X141180859Y-95811000D01*
X141120000Y-95805006D01*
X141059142Y-95811000D01*
X140206990Y-95811000D01*
X140055682Y-95686825D01*
X139840439Y-95571776D01*
X139606886Y-95500928D01*
X139424859Y-95483000D01*
X139364000Y-95477006D01*
X139303141Y-95483000D01*
X139120235Y-95483000D01*
X138977240Y-95308760D01*
X138674375Y-95060206D01*
X138328840Y-94875513D01*
X137953912Y-94761780D01*
X137848147Y-94751363D01*
X139849119Y-92750391D01*
X139944896Y-92981616D01*
X140206343Y-93372899D01*
X140539101Y-93705657D01*
X140930384Y-93967104D01*
X141365155Y-94147192D01*
X141826704Y-94239000D01*
X142297296Y-94239000D01*
X142758845Y-94147192D01*
X143193616Y-93967104D01*
X143584899Y-93705657D01*
X143917657Y-93372899D01*
X144179104Y-92981616D01*
X144359192Y-92546845D01*
X144451000Y-92085296D01*
X144451000Y-91614704D01*
X144359192Y-91153155D01*
X144179104Y-90718384D01*
X143917657Y-90327101D01*
X143584899Y-89994343D01*
X143193616Y-89732896D01*
X142962391Y-89637119D01*
X149574801Y-83024710D01*
X149574800Y-91874441D01*
X149574800Y-91874441D01*
G37*
X149574800Y-91874441D02*
X149568806Y-91935300D01*
X149586494Y-92114885D01*
X149592728Y-92178185D01*
X149663576Y-92411738D01*
X149778625Y-92626981D01*
X149933456Y-92815644D01*
X149980734Y-92854444D01*
X152394218Y-95267929D01*
X152209096Y-95286162D01*
X151881294Y-95385600D01*
X151579189Y-95547078D01*
X151314392Y-95764392D01*
X151097078Y-96029189D01*
X150935600Y-96331294D01*
X150836162Y-96659096D01*
X150802586Y-97000000D01*
X150836162Y-97340904D01*
X150935600Y-97668706D01*
X151097078Y-97970811D01*
X151314392Y-98235608D01*
X151579189Y-98452922D01*
X151881294Y-98614400D01*
X152209096Y-98713838D01*
X152464571Y-98739000D01*
X152635429Y-98739000D01*
X152890904Y-98713838D01*
X153218706Y-98614400D01*
X153520811Y-98452922D01*
X153785608Y-98235608D01*
X153820000Y-98193701D01*
X153854392Y-98235608D01*
X154119189Y-98452922D01*
X154421294Y-98614400D01*
X154749096Y-98713838D01*
X155004571Y-98739000D01*
X155175429Y-98739000D01*
X155430904Y-98713838D01*
X155758706Y-98614400D01*
X156060811Y-98452922D01*
X156325608Y-98235608D01*
X156360000Y-98193701D01*
X156394392Y-98235608D01*
X156659189Y-98452922D01*
X156961294Y-98614400D01*
X157289096Y-98713838D01*
X157544571Y-98739000D01*
X157715429Y-98739000D01*
X157970904Y-98713838D01*
X158298706Y-98614400D01*
X158600811Y-98452922D01*
X158865608Y-98235608D01*
X158875421Y-98223651D01*
X158907392Y-98262608D01*
X159177975Y-98484670D01*
X159486681Y-98649677D01*
X159711127Y-98717762D01*
X158767190Y-99661700D01*
X148866159Y-99661700D01*
X148805300Y-99655706D01*
X148744441Y-99661700D01*
X148562414Y-99679628D01*
X148328861Y-99750476D01*
X148113618Y-99865525D01*
X147924956Y-100020356D01*
X147886160Y-100067629D01*
X144404567Y-103549222D01*
X144320985Y-103480628D01*
X144036253Y-103328435D01*
X143727300Y-103234715D01*
X143486515Y-103211000D01*
X143325485Y-103211000D01*
X143084700Y-103234715D01*
X142775747Y-103328435D01*
X142491015Y-103480628D01*
X142241445Y-103685445D01*
X142036628Y-103935015D01*
X141884435Y-104219747D01*
X141790715Y-104528700D01*
X141759070Y-104850000D01*
X141790715Y-105171300D01*
X141884435Y-105480253D01*
X142036628Y-105764985D01*
X142241445Y-106014555D01*
X142491015Y-106219372D01*
X142775747Y-106371565D01*
X143084700Y-106465285D01*
X143325485Y-106489000D01*
X143486515Y-106489000D01*
X143727300Y-106465285D01*
X144036253Y-106371565D01*
X144320985Y-106219372D01*
X144479844Y-106089000D01*
X144634790Y-106089000D01*
X142742790Y-107981000D01*
X139162910Y-107981000D01*
X138977240Y-107754760D01*
X138674375Y-107506206D01*
X138328840Y-107321513D01*
X137953912Y-107207780D01*
X137707119Y-107183473D01*
X137710444Y-107180744D01*
X137749245Y-107133464D01*
X138019461Y-106863248D01*
X138066744Y-106824444D01*
X138221575Y-106635782D01*
X138336624Y-106420539D01*
X138401228Y-106207571D01*
X138407472Y-106186987D01*
X138431394Y-105944101D01*
X138425400Y-105883242D01*
X138425400Y-102716258D01*
X138431394Y-102655399D01*
X138407472Y-102412513D01*
X138336624Y-102178961D01*
X138322673Y-102152861D01*
X138276426Y-102066337D01*
X138506898Y-101943147D01*
X138764082Y-101732082D01*
X138975147Y-101474898D01*
X139131982Y-101181480D01*
X139228561Y-100863102D01*
X139261172Y-100532000D01*
X139228561Y-100200898D01*
X139131982Y-99882520D01*
X138975147Y-99589102D01*
X138764082Y-99331918D01*
X138506898Y-99120853D01*
X138213480Y-98964018D01*
X137895102Y-98867439D01*
X137646971Y-98843000D01*
X137481029Y-98843000D01*
X137232898Y-98867439D01*
X137008500Y-98935509D01*
X137008500Y-98631990D01*
X137174088Y-98682220D01*
X137466296Y-98711000D01*
X137661704Y-98711000D01*
X137953912Y-98682220D01*
X138328840Y-98568487D01*
X138674375Y-98383794D01*
X138977240Y-98135240D01*
X139012836Y-98091866D01*
X139215561Y-98200224D01*
X139332206Y-98235608D01*
X139449113Y-98271072D01*
X139476699Y-98273789D01*
X139476699Y-99250000D01*
X139493864Y-99424274D01*
X139544697Y-99591851D01*
X139627247Y-99746291D01*
X139738341Y-99881659D01*
X139873709Y-99992753D01*
X140028149Y-100075303D01*
X140195726Y-100126136D01*
X140370000Y-100143301D01*
X141870000Y-100143301D01*
X142044274Y-100126136D01*
X142211851Y-100075303D01*
X142366291Y-99992753D01*
X142501659Y-99881659D01*
X142601774Y-99759669D01*
X142615199Y-99773094D01*
X142883643Y-99952463D01*
X143181921Y-100076014D01*
X143498573Y-100139000D01*
X143821427Y-100139000D01*
X144138079Y-100076014D01*
X144436357Y-99952463D01*
X144704801Y-99773094D01*
X144933094Y-99544801D01*
X144991765Y-99456993D01*
X145422612Y-99456993D01*
X145488137Y-99695860D01*
X145735116Y-99811760D01*
X145999960Y-99877250D01*
X146272492Y-99889812D01*
X146542238Y-99848965D01*
X146798832Y-99756277D01*
X146911863Y-99695860D01*
X146977388Y-99456993D01*
X146200000Y-98679605D01*
X145422612Y-99456993D01*
X144991765Y-99456993D01*
X145112463Y-99276357D01*
X145125399Y-99245126D01*
X145243007Y-99277388D01*
X146020395Y-98500000D01*
X146379605Y-98500000D01*
X147156993Y-99277388D01*
X147395860Y-99211863D01*
X147511760Y-98964884D01*
X147577250Y-98700040D01*
X147589812Y-98427508D01*
X147548965Y-98157762D01*
X147456277Y-97901168D01*
X147395860Y-97788137D01*
X147156993Y-97722612D01*
X146379605Y-98500000D01*
X146020395Y-98500000D01*
X145243007Y-97722612D01*
X145125399Y-97754874D01*
X145112463Y-97723643D01*
X144991766Y-97543007D01*
X145422612Y-97543007D01*
X146200000Y-98320395D01*
X146977388Y-97543007D01*
X146911863Y-97304140D01*
X146664884Y-97188240D01*
X146400040Y-97122750D01*
X146127508Y-97110188D01*
X145857762Y-97151035D01*
X145601168Y-97243723D01*
X145488137Y-97304140D01*
X145422612Y-97543007D01*
X144991766Y-97543007D01*
X144933094Y-97455199D01*
X144704801Y-97226906D01*
X144436357Y-97047537D01*
X144138079Y-96923986D01*
X143821427Y-96861000D01*
X143498573Y-96861000D01*
X143181921Y-96923986D01*
X142883643Y-97047537D01*
X142615199Y-97226906D01*
X142601774Y-97240331D01*
X142501659Y-97118341D01*
X142366291Y-97007247D01*
X142360477Y-97004139D01*
X142341072Y-96807114D01*
X142270224Y-96573561D01*
X142155175Y-96358318D01*
X142000344Y-96169656D01*
X141811682Y-96014825D01*
X141596439Y-95899776D01*
X141362886Y-95828928D01*
X141180859Y-95811000D01*
X141120000Y-95805006D01*
X141059142Y-95811000D01*
X140206990Y-95811000D01*
X140055682Y-95686825D01*
X139840439Y-95571776D01*
X139606886Y-95500928D01*
X139424859Y-95483000D01*
X139364000Y-95477006D01*
X139303141Y-95483000D01*
X139120235Y-95483000D01*
X138977240Y-95308760D01*
X138674375Y-95060206D01*
X138328840Y-94875513D01*
X137953912Y-94761780D01*
X137848147Y-94751363D01*
X139849119Y-92750391D01*
X139944896Y-92981616D01*
X140206343Y-93372899D01*
X140539101Y-93705657D01*
X140930384Y-93967104D01*
X141365155Y-94147192D01*
X141826704Y-94239000D01*
X142297296Y-94239000D01*
X142758845Y-94147192D01*
X143193616Y-93967104D01*
X143584899Y-93705657D01*
X143917657Y-93372899D01*
X144179104Y-92981616D01*
X144359192Y-92546845D01*
X144451000Y-92085296D01*
X144451000Y-91614704D01*
X144359192Y-91153155D01*
X144179104Y-90718384D01*
X143917657Y-90327101D01*
X143584899Y-89994343D01*
X143193616Y-89732896D01*
X142962391Y-89637119D01*
X149574801Y-83024710D01*
X149574800Y-91874441D01*
G36*
X182571905Y-91219374D02*
G01*
X182512898Y-91465524D01*
X182503048Y-91718455D01*
X182542730Y-91968449D01*
X182630422Y-92205896D01*
X182677799Y-92294534D01*
X182906473Y-92347922D01*
X183612395Y-91642000D01*
X183598253Y-91627858D01*
X183777858Y-91448253D01*
X183792000Y-91462395D01*
X183806143Y-91448253D01*
X183894524Y-91536634D01*
X183780341Y-91630341D01*
X183669247Y-91765709D01*
X183586697Y-91920149D01*
X183540212Y-92073393D01*
X183086078Y-92527527D01*
X183139466Y-92756201D01*
X183369374Y-92862095D01*
X183518699Y-92897891D01*
X183518699Y-93562000D01*
X183535864Y-93736274D01*
X183586697Y-93903851D01*
X183669247Y-94058291D01*
X183780341Y-94193659D01*
X183915709Y-94304753D01*
X184070149Y-94387303D01*
X184237726Y-94438136D01*
X184412000Y-94455301D01*
X185712000Y-94455301D01*
X185886274Y-94438136D01*
X186053851Y-94387303D01*
X186208291Y-94304753D01*
X186213001Y-94300888D01*
X186213000Y-98321349D01*
X186054702Y-98274903D01*
X185241605Y-99088000D01*
X186054702Y-99901097D01*
X186213000Y-99854651D01*
X186213000Y-101721789D01*
X185889113Y-102045676D01*
X185862000Y-102043006D01*
X185619113Y-102066928D01*
X185549649Y-102088000D01*
X185385561Y-102137776D01*
X185170318Y-102252825D01*
X184992203Y-102399000D01*
X184895648Y-102399000D01*
X184569337Y-102463908D01*
X184261959Y-102591228D01*
X183985325Y-102776068D01*
X183750068Y-103011325D01*
X183565228Y-103287959D01*
X183437908Y-103595337D01*
X183373000Y-103921648D01*
X183373000Y-104024789D01*
X179468790Y-107929000D01*
X174361210Y-107929000D01*
X178666444Y-103623767D01*
X178785102Y-103721147D01*
X179078520Y-103877982D01*
X179396898Y-103974561D01*
X179645029Y-103999000D01*
X179810971Y-103999000D01*
X180059102Y-103974561D01*
X180377480Y-103877982D01*
X180670898Y-103721147D01*
X180928082Y-103510082D01*
X181139147Y-103252898D01*
X181295982Y-102959480D01*
X181392561Y-102641102D01*
X181425172Y-102310000D01*
X181392561Y-101978898D01*
X181295982Y-101660520D01*
X181139147Y-101367102D01*
X180928082Y-101109918D01*
X180842886Y-101040000D01*
X180928082Y-100970082D01*
X181139147Y-100712898D01*
X181295982Y-100419480D01*
X181392561Y-100101102D01*
X181394570Y-100080702D01*
X184248903Y-100080702D01*
X184320486Y-100324671D01*
X184575996Y-100445571D01*
X184850184Y-100514300D01*
X185132512Y-100528217D01*
X185412130Y-100486787D01*
X185678292Y-100391603D01*
X185803514Y-100324671D01*
X185875097Y-100080702D01*
X185062000Y-99267605D01*
X184248903Y-100080702D01*
X181394570Y-100080702D01*
X181425172Y-99770000D01*
X181392561Y-99438898D01*
X181307507Y-99158512D01*
X183621783Y-99158512D01*
X183663213Y-99438130D01*
X183758397Y-99704292D01*
X183825329Y-99829514D01*
X184069298Y-99901097D01*
X184882395Y-99088000D01*
X184069298Y-98274903D01*
X183825329Y-98346486D01*
X183704429Y-98601996D01*
X183635700Y-98876184D01*
X183621783Y-99158512D01*
X181307507Y-99158512D01*
X181295982Y-99120520D01*
X181139147Y-98827102D01*
X180928082Y-98569918D01*
X180842886Y-98500000D01*
X180928082Y-98430082D01*
X181139147Y-98172898D01*
X181180625Y-98095298D01*
X184248903Y-98095298D01*
X185062000Y-98908395D01*
X185875097Y-98095298D01*
X185803514Y-97851329D01*
X185548004Y-97730429D01*
X185273816Y-97661700D01*
X184991488Y-97647783D01*
X184711870Y-97689213D01*
X184445708Y-97784397D01*
X184320486Y-97851329D01*
X184248903Y-98095298D01*
X181180625Y-98095298D01*
X181295982Y-97879480D01*
X181392561Y-97561102D01*
X181425172Y-97230000D01*
X181392561Y-96898898D01*
X181295982Y-96580520D01*
X181139147Y-96287102D01*
X180928082Y-96029918D01*
X180842886Y-95960000D01*
X180928082Y-95890082D01*
X181139147Y-95632898D01*
X181295982Y-95339480D01*
X181392561Y-95021102D01*
X181425172Y-94690000D01*
X181392561Y-94358898D01*
X181295982Y-94040520D01*
X181139147Y-93747102D01*
X180928082Y-93489918D01*
X180842886Y-93420000D01*
X180928082Y-93350082D01*
X181139147Y-93092898D01*
X181295982Y-92799480D01*
X181392561Y-92481102D01*
X181425172Y-92150000D01*
X181392561Y-91818898D01*
X181295982Y-91500520D01*
X181139147Y-91207102D01*
X180968362Y-90999000D01*
X182673408Y-90999000D01*
X182571905Y-91219374D01*
X182571905Y-91219374D01*
G37*
X182571905Y-91219374D02*
X182512898Y-91465524D01*
X182503048Y-91718455D01*
X182542730Y-91968449D01*
X182630422Y-92205896D01*
X182677799Y-92294534D01*
X182906473Y-92347922D01*
X183612395Y-91642000D01*
X183598253Y-91627858D01*
X183777858Y-91448253D01*
X183792000Y-91462395D01*
X183806143Y-91448253D01*
X183894524Y-91536634D01*
X183780341Y-91630341D01*
X183669247Y-91765709D01*
X183586697Y-91920149D01*
X183540212Y-92073393D01*
X183086078Y-92527527D01*
X183139466Y-92756201D01*
X183369374Y-92862095D01*
X183518699Y-92897891D01*
X183518699Y-93562000D01*
X183535864Y-93736274D01*
X183586697Y-93903851D01*
X183669247Y-94058291D01*
X183780341Y-94193659D01*
X183915709Y-94304753D01*
X184070149Y-94387303D01*
X184237726Y-94438136D01*
X184412000Y-94455301D01*
X185712000Y-94455301D01*
X185886274Y-94438136D01*
X186053851Y-94387303D01*
X186208291Y-94304753D01*
X186213001Y-94300888D01*
X186213000Y-98321349D01*
X186054702Y-98274903D01*
X185241605Y-99088000D01*
X186054702Y-99901097D01*
X186213000Y-99854651D01*
X186213000Y-101721789D01*
X185889113Y-102045676D01*
X185862000Y-102043006D01*
X185619113Y-102066928D01*
X185549649Y-102088000D01*
X185385561Y-102137776D01*
X185170318Y-102252825D01*
X184992203Y-102399000D01*
X184895648Y-102399000D01*
X184569337Y-102463908D01*
X184261959Y-102591228D01*
X183985325Y-102776068D01*
X183750068Y-103011325D01*
X183565228Y-103287959D01*
X183437908Y-103595337D01*
X183373000Y-103921648D01*
X183373000Y-104024789D01*
X179468790Y-107929000D01*
X174361210Y-107929000D01*
X178666444Y-103623767D01*
X178785102Y-103721147D01*
X179078520Y-103877982D01*
X179396898Y-103974561D01*
X179645029Y-103999000D01*
X179810971Y-103999000D01*
X180059102Y-103974561D01*
X180377480Y-103877982D01*
X180670898Y-103721147D01*
X180928082Y-103510082D01*
X181139147Y-103252898D01*
X181295982Y-102959480D01*
X181392561Y-102641102D01*
X181425172Y-102310000D01*
X181392561Y-101978898D01*
X181295982Y-101660520D01*
X181139147Y-101367102D01*
X180928082Y-101109918D01*
X180842886Y-101040000D01*
X180928082Y-100970082D01*
X181139147Y-100712898D01*
X181295982Y-100419480D01*
X181392561Y-100101102D01*
X181394570Y-100080702D01*
X184248903Y-100080702D01*
X184320486Y-100324671D01*
X184575996Y-100445571D01*
X184850184Y-100514300D01*
X185132512Y-100528217D01*
X185412130Y-100486787D01*
X185678292Y-100391603D01*
X185803514Y-100324671D01*
X185875097Y-100080702D01*
X185062000Y-99267605D01*
X184248903Y-100080702D01*
X181394570Y-100080702D01*
X181425172Y-99770000D01*
X181392561Y-99438898D01*
X181307507Y-99158512D01*
X183621783Y-99158512D01*
X183663213Y-99438130D01*
X183758397Y-99704292D01*
X183825329Y-99829514D01*
X184069298Y-99901097D01*
X184882395Y-99088000D01*
X184069298Y-98274903D01*
X183825329Y-98346486D01*
X183704429Y-98601996D01*
X183635700Y-98876184D01*
X183621783Y-99158512D01*
X181307507Y-99158512D01*
X181295982Y-99120520D01*
X181139147Y-98827102D01*
X180928082Y-98569918D01*
X180842886Y-98500000D01*
X180928082Y-98430082D01*
X181139147Y-98172898D01*
X181180625Y-98095298D01*
X184248903Y-98095298D01*
X185062000Y-98908395D01*
X185875097Y-98095298D01*
X185803514Y-97851329D01*
X185548004Y-97730429D01*
X185273816Y-97661700D01*
X184991488Y-97647783D01*
X184711870Y-97689213D01*
X184445708Y-97784397D01*
X184320486Y-97851329D01*
X184248903Y-98095298D01*
X181180625Y-98095298D01*
X181295982Y-97879480D01*
X181392561Y-97561102D01*
X181425172Y-97230000D01*
X181392561Y-96898898D01*
X181295982Y-96580520D01*
X181139147Y-96287102D01*
X180928082Y-96029918D01*
X180842886Y-95960000D01*
X180928082Y-95890082D01*
X181139147Y-95632898D01*
X181295982Y-95339480D01*
X181392561Y-95021102D01*
X181425172Y-94690000D01*
X181392561Y-94358898D01*
X181295982Y-94040520D01*
X181139147Y-93747102D01*
X180928082Y-93489918D01*
X180842886Y-93420000D01*
X180928082Y-93350082D01*
X181139147Y-93092898D01*
X181295982Y-92799480D01*
X181392561Y-92481102D01*
X181425172Y-92150000D01*
X181392561Y-91818898D01*
X181295982Y-91500520D01*
X181139147Y-91207102D01*
X180968362Y-90999000D01*
X182673408Y-90999000D01*
X182571905Y-91219374D01*
G36*
X163665748Y-102073858D02*
G01*
X163651605Y-102088000D01*
X163665748Y-102102143D01*
X163486143Y-102281748D01*
X163472000Y-102267605D01*
X163457858Y-102281748D01*
X163278253Y-102102143D01*
X163292395Y-102088000D01*
X163278253Y-102073858D01*
X163457858Y-101894253D01*
X163472000Y-101908395D01*
X163486143Y-101894253D01*
X163665748Y-102073858D01*
X163665748Y-102073858D01*
G37*
X163665748Y-102073858D02*
X163651605Y-102088000D01*
X163665748Y-102102143D01*
X163486143Y-102281748D01*
X163472000Y-102267605D01*
X163457858Y-102281748D01*
X163278253Y-102102143D01*
X163292395Y-102088000D01*
X163278253Y-102073858D01*
X163457858Y-101894253D01*
X163472000Y-101908395D01*
X163486143Y-101894253D01*
X163665748Y-102073858D01*
G36*
X160997921Y-91576014D02*
G01*
X161314573Y-91639000D01*
X161362790Y-91639000D01*
X162706860Y-92983071D01*
X162745656Y-93030344D01*
X162934318Y-93185175D01*
X163119026Y-93283903D01*
X163149561Y-93300224D01*
X163383113Y-93371072D01*
X163625999Y-93394994D01*
X163686858Y-93389000D01*
X170955340Y-93389000D01*
X170993114Y-93420000D01*
X170955340Y-93451000D01*
X170668859Y-93451000D01*
X170608000Y-93445006D01*
X170547141Y-93451000D01*
X170365114Y-93468928D01*
X170131561Y-93539776D01*
X169916318Y-93654825D01*
X169727656Y-93809656D01*
X169688860Y-93856929D01*
X166672792Y-96872998D01*
X166576252Y-96872998D01*
X166735000Y-96714250D01*
X166735000Y-96087458D01*
X166710597Y-95964777D01*
X166662730Y-95849215D01*
X166593237Y-95745211D01*
X166504789Y-95656763D01*
X166400785Y-95587270D01*
X166285223Y-95539403D01*
X166162542Y-95515000D01*
X165535750Y-95515000D01*
X165377000Y-95673750D01*
X165377000Y-96873000D01*
X165397000Y-96873000D01*
X165397000Y-97127000D01*
X165377000Y-97127000D01*
X165377000Y-97147000D01*
X165123000Y-97147000D01*
X165123000Y-97127000D01*
X162837000Y-97127000D01*
X162837000Y-97147000D01*
X162583000Y-97147000D01*
X162583000Y-97127000D01*
X162563000Y-97127000D01*
X162563000Y-96873000D01*
X162583000Y-96873000D01*
X162583000Y-95679845D01*
X162837000Y-95679845D01*
X162837000Y-96873000D01*
X165123000Y-96873000D01*
X165123000Y-95673750D01*
X164964250Y-95515000D01*
X164337458Y-95515000D01*
X164214777Y-95539403D01*
X164099215Y-95587270D01*
X163995211Y-95656763D01*
X163906763Y-95745211D01*
X163837270Y-95849215D01*
X163789403Y-95964777D01*
X163785260Y-95985607D01*
X163710269Y-95902412D01*
X163476920Y-95728359D01*
X163214099Y-95603175D01*
X163066890Y-95558524D01*
X162837000Y-95679845D01*
X162583000Y-95679845D01*
X162353110Y-95558524D01*
X162205901Y-95603175D01*
X161943080Y-95728359D01*
X161709731Y-95902412D01*
X161635564Y-95984694D01*
X161432608Y-95737392D01*
X161162025Y-95515330D01*
X160853319Y-95350323D01*
X160518353Y-95248712D01*
X160257296Y-95223000D01*
X160082704Y-95223000D01*
X159821647Y-95248712D01*
X159486681Y-95350323D01*
X159177975Y-95515330D01*
X158907392Y-95737392D01*
X158875421Y-95776349D01*
X158865608Y-95764392D01*
X158600811Y-95547078D01*
X158298706Y-95385600D01*
X157970904Y-95286162D01*
X157715429Y-95261000D01*
X157643211Y-95261000D01*
X156729144Y-94346934D01*
X156726573Y-94343801D01*
X157009480Y-94257982D01*
X157302898Y-94101147D01*
X157512660Y-93929000D01*
X157799141Y-93929000D01*
X157860000Y-93934994D01*
X158102886Y-93911072D01*
X158172080Y-93890082D01*
X158336439Y-93840224D01*
X158551682Y-93725175D01*
X158740344Y-93570344D01*
X158779144Y-93523066D01*
X160805783Y-91496427D01*
X160997921Y-91576014D01*
X160997921Y-91576014D01*
G37*
X160997921Y-91576014D02*
X161314573Y-91639000D01*
X161362790Y-91639000D01*
X162706860Y-92983071D01*
X162745656Y-93030344D01*
X162934318Y-93185175D01*
X163119026Y-93283903D01*
X163149561Y-93300224D01*
X163383113Y-93371072D01*
X163625999Y-93394994D01*
X163686858Y-93389000D01*
X170955340Y-93389000D01*
X170993114Y-93420000D01*
X170955340Y-93451000D01*
X170668859Y-93451000D01*
X170608000Y-93445006D01*
X170547141Y-93451000D01*
X170365114Y-93468928D01*
X170131561Y-93539776D01*
X169916318Y-93654825D01*
X169727656Y-93809656D01*
X169688860Y-93856929D01*
X166672792Y-96872998D01*
X166576252Y-96872998D01*
X166735000Y-96714250D01*
X166735000Y-96087458D01*
X166710597Y-95964777D01*
X166662730Y-95849215D01*
X166593237Y-95745211D01*
X166504789Y-95656763D01*
X166400785Y-95587270D01*
X166285223Y-95539403D01*
X166162542Y-95515000D01*
X165535750Y-95515000D01*
X165377000Y-95673750D01*
X165377000Y-96873000D01*
X165397000Y-96873000D01*
X165397000Y-97127000D01*
X165377000Y-97127000D01*
X165377000Y-97147000D01*
X165123000Y-97147000D01*
X165123000Y-97127000D01*
X162837000Y-97127000D01*
X162837000Y-97147000D01*
X162583000Y-97147000D01*
X162583000Y-97127000D01*
X162563000Y-97127000D01*
X162563000Y-96873000D01*
X162583000Y-96873000D01*
X162583000Y-95679845D01*
X162837000Y-95679845D01*
X162837000Y-96873000D01*
X165123000Y-96873000D01*
X165123000Y-95673750D01*
X164964250Y-95515000D01*
X164337458Y-95515000D01*
X164214777Y-95539403D01*
X164099215Y-95587270D01*
X163995211Y-95656763D01*
X163906763Y-95745211D01*
X163837270Y-95849215D01*
X163789403Y-95964777D01*
X163785260Y-95985607D01*
X163710269Y-95902412D01*
X163476920Y-95728359D01*
X163214099Y-95603175D01*
X163066890Y-95558524D01*
X162837000Y-95679845D01*
X162583000Y-95679845D01*
X162353110Y-95558524D01*
X162205901Y-95603175D01*
X161943080Y-95728359D01*
X161709731Y-95902412D01*
X161635564Y-95984694D01*
X161432608Y-95737392D01*
X161162025Y-95515330D01*
X160853319Y-95350323D01*
X160518353Y-95248712D01*
X160257296Y-95223000D01*
X160082704Y-95223000D01*
X159821647Y-95248712D01*
X159486681Y-95350323D01*
X159177975Y-95515330D01*
X158907392Y-95737392D01*
X158875421Y-95776349D01*
X158865608Y-95764392D01*
X158600811Y-95547078D01*
X158298706Y-95385600D01*
X157970904Y-95286162D01*
X157715429Y-95261000D01*
X157643211Y-95261000D01*
X156729144Y-94346934D01*
X156726573Y-94343801D01*
X157009480Y-94257982D01*
X157302898Y-94101147D01*
X157512660Y-93929000D01*
X157799141Y-93929000D01*
X157860000Y-93934994D01*
X158102886Y-93911072D01*
X158172080Y-93890082D01*
X158336439Y-93840224D01*
X158551682Y-93725175D01*
X158740344Y-93570344D01*
X158779144Y-93523066D01*
X160805783Y-91496427D01*
X160997921Y-91576014D01*
G36*
X154617114Y-93911072D02*
G01*
X154799141Y-93929000D01*
X154799142Y-93929000D01*
X154860000Y-93934994D01*
X154920859Y-93929000D01*
X155207340Y-93929000D01*
X155221962Y-93941000D01*
X154571711Y-93941000D01*
X154508981Y-93878270D01*
X154617114Y-93911072D01*
X154617114Y-93911072D01*
G37*
X154617114Y-93911072D02*
X154799141Y-93929000D01*
X154799142Y-93929000D01*
X154860000Y-93934994D01*
X154920859Y-93929000D01*
X155207340Y-93929000D01*
X155221962Y-93941000D01*
X154571711Y-93941000D01*
X154508981Y-93878270D01*
X154617114Y-93911072D01*
G36*
X152489748Y-91333858D02*
G01*
X152475605Y-91348000D01*
X153288702Y-92161097D01*
X153532671Y-92089514D01*
X153613815Y-91918025D01*
X153621000Y-91925211D01*
X153621000Y-92629141D01*
X153615006Y-92690000D01*
X153638928Y-92932886D01*
X153671730Y-93041020D01*
X153077863Y-92447153D01*
X153109097Y-92340702D01*
X152296000Y-91527605D01*
X152281858Y-91541748D01*
X152102253Y-91362143D01*
X152116395Y-91348000D01*
X152102253Y-91333858D01*
X152281858Y-91154253D01*
X152296000Y-91168395D01*
X152310143Y-91154253D01*
X152489748Y-91333858D01*
X152489748Y-91333858D01*
G37*
X152489748Y-91333858D02*
X152475605Y-91348000D01*
X153288702Y-92161097D01*
X153532671Y-92089514D01*
X153613815Y-91918025D01*
X153621000Y-91925211D01*
X153621000Y-92629141D01*
X153615006Y-92690000D01*
X153638928Y-92932886D01*
X153671730Y-93041020D01*
X153077863Y-92447153D01*
X153109097Y-92340702D01*
X152296000Y-91527605D01*
X152281858Y-91541748D01*
X152102253Y-91362143D01*
X152116395Y-91348000D01*
X152102253Y-91333858D01*
X152281858Y-91154253D01*
X152296000Y-91168395D01*
X152310143Y-91154253D01*
X152489748Y-91333858D01*
G36*
X170504740Y-83865908D02*
G01*
X170405988Y-84191449D01*
X170372644Y-84530000D01*
X170405988Y-84868551D01*
X170504740Y-85194092D01*
X170665104Y-85494112D01*
X170880918Y-85757082D01*
X171143888Y-85972896D01*
X171174100Y-85989045D01*
X171044481Y-86106586D01*
X170876963Y-86332580D01*
X170756754Y-86586913D01*
X170716096Y-86720961D01*
X170838085Y-86943000D01*
X171981000Y-86943000D01*
X171981000Y-86923000D01*
X172235000Y-86923000D01*
X172235000Y-86943000D01*
X172255000Y-86943000D01*
X172255000Y-87197000D01*
X172235000Y-87197000D01*
X172235000Y-87217000D01*
X171981000Y-87217000D01*
X171981000Y-87197000D01*
X170838085Y-87197000D01*
X170716096Y-87419039D01*
X170756754Y-87553087D01*
X170876963Y-87807420D01*
X171044481Y-88033414D01*
X171203995Y-88178065D01*
X171165102Y-88198853D01*
X171046444Y-88296233D01*
X167037144Y-84286934D01*
X167006669Y-84249800D01*
X169526341Y-84249800D01*
X169587200Y-84255794D01*
X169830086Y-84231872D01*
X169872519Y-84219000D01*
X170063639Y-84161024D01*
X170278882Y-84045975D01*
X170467544Y-83891144D01*
X170506344Y-83843866D01*
X170528209Y-83822001D01*
X170504740Y-83865908D01*
X170504740Y-83865908D01*
G37*
X170504740Y-83865908D02*
X170405988Y-84191449D01*
X170372644Y-84530000D01*
X170405988Y-84868551D01*
X170504740Y-85194092D01*
X170665104Y-85494112D01*
X170880918Y-85757082D01*
X171143888Y-85972896D01*
X171174100Y-85989045D01*
X171044481Y-86106586D01*
X170876963Y-86332580D01*
X170756754Y-86586913D01*
X170716096Y-86720961D01*
X170838085Y-86943000D01*
X171981000Y-86943000D01*
X171981000Y-86923000D01*
X172235000Y-86923000D01*
X172235000Y-86943000D01*
X172255000Y-86943000D01*
X172255000Y-87197000D01*
X172235000Y-87197000D01*
X172235000Y-87217000D01*
X171981000Y-87217000D01*
X171981000Y-87197000D01*
X170838085Y-87197000D01*
X170716096Y-87419039D01*
X170756754Y-87553087D01*
X170876963Y-87807420D01*
X171044481Y-88033414D01*
X171203995Y-88178065D01*
X171165102Y-88198853D01*
X171046444Y-88296233D01*
X167037144Y-84286934D01*
X167006669Y-84249800D01*
X169526341Y-84249800D01*
X169587200Y-84255794D01*
X169830086Y-84231872D01*
X169872519Y-84219000D01*
X170063639Y-84161024D01*
X170278882Y-84045975D01*
X170467544Y-83891144D01*
X170506344Y-83843866D01*
X170528209Y-83822001D01*
X170504740Y-83865908D01*
G36*
X152489748Y-83285858D02*
G01*
X152475605Y-83300000D01*
X152489748Y-83314143D01*
X152310143Y-83493748D01*
X152296000Y-83479605D01*
X152281858Y-83493748D01*
X152102253Y-83314143D01*
X152116395Y-83300000D01*
X152102253Y-83285858D01*
X152281858Y-83106253D01*
X152296000Y-83120395D01*
X152310143Y-83106253D01*
X152489748Y-83285858D01*
X152489748Y-83285858D01*
G37*
X152489748Y-83285858D02*
X152475605Y-83300000D01*
X152489748Y-83314143D01*
X152310143Y-83493748D01*
X152296000Y-83479605D01*
X152281858Y-83493748D01*
X152102253Y-83314143D01*
X152116395Y-83300000D01*
X152102253Y-83285858D01*
X152281858Y-83106253D01*
X152296000Y-83120395D01*
X152310143Y-83106253D01*
X152489748Y-83285858D01*
M02*
