M48
; DRILL file {KiCad 6.0.0-rc1-unknown-4b7ef22~84~ubuntu18.04.1} date czw, 3 sty 2019, 12:38:02
; FORMAT={-:-/ absolute / inch / decimal}
; #@! TF.CreationDate,2019-01-03T12:38:02+01:00
; #@! TF.GenerationSoftware,Kicad,Pcbnew,6.0.0-rc1-unknown-4b7ef22~84~ubuntu18.04.1
; #@! TF.FileFunction,Plated,1,2,PTH
FMAT,2
INCH
T1C0.0197
T2C0.0236
T3C0.0295
T4C0.0300
T5C0.0315
T6C0.0354
T7C0.0394
T8C0.0400
T9C0.0433
T10C0.0512
T11C0.1063
%
G90
G05
T1
X7.2431Y-2.7165
X7.2665Y-2.6602
X7.2665Y-2.7729
X7.3228Y-2.6368
X7.3228Y-2.7963
X7.3792Y-2.6602
X7.3792Y-2.7729
X7.4026Y-2.7165
X4.0148Y-2.7165
X4.0381Y-2.6602
X4.0381Y-2.7729
X4.0945Y-2.6368
X4.0945Y-2.7963
X4.1509Y-2.6602
X4.1509Y-2.7729
X4.1742Y-2.7165
X4.0148Y-4.7638
X4.0381Y-4.7074
X4.0381Y-4.8202
X4.0945Y-4.6841
X4.0945Y-4.8435
X4.1509Y-4.7074
X4.1509Y-4.8202
X4.1742Y-4.7638
X7.2431Y-4.7638
X7.2665Y-4.7074
X7.2665Y-4.8202
X7.3228Y-4.6841
X7.3228Y-4.8435
X7.3792Y-4.7074
X7.3792Y-4.8202
X7.4026Y-4.7638
T2
X5.8081Y-4.0888
X5.8092Y-3.8124
X5.8598Y-3.7742
X6.2135Y-4.1056
X6.3603Y-3.1872
X6.4829Y-3.4276
T3
X5.3459Y-4.128
X5.6459Y-4.128
X7.2359Y-3.608
X7.2859Y-3.558
X7.2859Y-3.658
X5.0159Y-4.298
X5.3159Y-4.298
T4
X6.3359Y-4.298
X6.3359Y-4.398
X6.3359Y-4.498
X6.3359Y-4.598
X6.4359Y-4.298
X6.4359Y-4.398
X6.4359Y-4.498
X6.4359Y-4.598
T5
X6.6142Y-2.989
X6.6142Y-3.189
X5.9449Y-2.978
X5.9449Y-3.0764
X5.9959Y-3.2795
X5.9959Y-3.378
X6.1559Y-3.2492
X6.1559Y-3.6492
X4.3859Y-4.668
X4.5237Y-4.668
X6.3573Y-3.3512
X6.3573Y-3.5433
X5.0472Y-4.518
X5.2472Y-4.518
X5.3772Y-4.518
X5.5772Y-4.518
X5.5559Y-3.878
X5.6559Y-3.878
X5.7559Y-3.878
X7.2859Y-3.9011
X7.2859Y-4.098
X6.7759Y-2.728
X6.7759Y-2.828
X6.7759Y-2.928
X6.7759Y-3.028
X6.7759Y-3.128
X6.7759Y-3.228
X6.7759Y-3.328
X6.7759Y-3.428
X6.7759Y-3.528
X6.7759Y-3.628
X6.7759Y-3.728
X6.7759Y-3.828
X6.7759Y-3.928
X6.7759Y-4.028
X7.0759Y-2.728
X7.0759Y-2.828
X7.0759Y-2.928
X7.0759Y-3.028
X7.0759Y-3.128
X7.0759Y-3.228
X7.0759Y-3.328
X7.0759Y-3.428
X7.0759Y-3.528
X7.0759Y-3.628
X7.0759Y-3.728
X7.0759Y-3.828
X7.0759Y-3.928
X7.0759Y-4.028
X6.4359Y-3.9995
X6.4359Y-4.098
X4.7172Y-4.518
X4.9172Y-4.518
X5.0159Y-3.958
X5.4159Y-3.958
X5.9959Y-3.498
X5.9959Y-3.5964
X5.0159Y-4.128
X5.2128Y-4.128
X6.1811Y-3.0315
X6.378Y-3.0315
X5.9391Y-4.058
X6.1359Y-4.058
T6
X5.0802Y-4.6781
X5.1802Y-4.6781
X4.7849Y-4.6781
X4.8849Y-4.6781
X5.3755Y-4.6781
X5.4755Y-4.6781
T7
X5.8055Y-2.738
X5.9055Y-2.738
X6.0055Y-2.738
X6.0059Y-3.8189
X6.1059Y-3.8189
X6.2059Y-3.8189
X6.3059Y-3.8189
X6.4059Y-3.8189
X6.5059Y-3.8189
X6.2303Y-2.738
X6.4075Y-2.738
X7.2859Y-2.998
X7.2859Y-3.098
X7.2859Y-3.198
X7.2859Y-3.298
X7.2859Y-3.398
X4.2047Y-4.3071
X4.4094Y-3.1496
X4.6063Y-3.1496
X4.811Y-4.3071
X4.4709Y-2.838
X4.6709Y-2.8383
X5.1127Y-3.1437
X5.1127Y-3.6161
T8
X5.8449Y-4.418
X5.8449Y-4.518
X5.8449Y-4.618
X5.9449Y-4.418
X5.9449Y-4.518
X5.9449Y-4.618
T9
X5.0159Y-3.808
X5.4159Y-3.808
X4.2394Y-3.1496
X4.361Y-4.2173
X4.4094Y-3.1496
X4.5795Y-4.2173
T10
X4.8996Y-2.8406
X5.0965Y-2.8406
X6.1811Y-2.8364
X6.4567Y-2.8364
X5.2933Y-2.8406
X5.4902Y-2.8406
X5.0359Y-3.378
X5.593Y-3.6161
X5.595Y-3.1417
T11
X7.3228Y-2.7165
X4.0945Y-2.7165
X4.0945Y-4.7638
X7.3228Y-4.7638
T0
M30
