G04 #@! TF.GenerationSoftware,KiCad,Pcbnew,(6.0.0-rc1-dev-1491-g0a4812be0)*
G04 #@! TF.CreationDate,2019-01-22T09:02:21+01:00
G04 #@! TF.ProjectId,atmega328,61746d65-6761-4333-9238-2e6b69636164,1*
G04 #@! TF.SameCoordinates,Original*
G04 #@! TF.FileFunction,Copper,L2,Bot*
G04 #@! TF.FilePolarity,Positive*
%FSLAX46Y46*%
G04 Gerber Fmt 4.6, Leading zero omitted, Abs format (unit mm)*
G04 Created by KiCad (PCBNEW (6.0.0-rc1-dev-1491-g0a4812be0)) date 2019-01-22 09:02:21*
%MOMM*%
%LPD*%
G04 APERTURE LIST*
%ADD10C,2.540000*%
%ADD11O,2.200000X1.700000*%
%ADD12R,2.200000X1.700000*%
%ADD13C,1.600000*%
%ADD14R,1.600000X1.600000*%
%ADD15O,2.200000X2.200000*%
%ADD16R,2.200000X2.200000*%
%ADD17C,0.800000*%
%ADD18C,7.000000*%
%ADD19O,1.700000X1.700000*%
%ADD20R,1.700000X1.700000*%
%ADD21C,1.500000*%
%ADD22R,1.300000X1.300000*%
%ADD23C,1.300000*%
%ADD24C,2.300000*%
%ADD25R,2.000000X2.300000*%
%ADD26R,1.500000X1.500000*%
%ADD27R,2.540000X2.540000*%
%ADD28C,1.700000*%
%ADD29C,2.200000*%
%ADD30O,1.727200X1.727200*%
%ADD31R,1.727200X1.727200*%
%ADD32O,1.600000X1.600000*%
%ADD33C,1.800000*%
%ADD34R,1.800000X1.800000*%
%ADD35O,1.700000X2.200000*%
%ADD36R,1.700000X2.200000*%
%ADD37C,3.000000*%
%ADD38C,2.500000*%
%ADD39C,2.000000*%
%ADD40O,1.500000X1.500000*%
%ADD41C,1.524000*%
%ADD42R,1.524000X1.524000*%
%ADD43C,1.200000*%
%ADD44C,0.700000*%
%ADD45C,0.508000*%
%ADD46C,1.000000*%
%ADD47C,2.500000*%
%ADD48C,0.254000*%
G04 APERTURE END LIST*
D10*
X106080000Y-107410000D03*
X111160000Y-107410000D03*
X116240000Y-80740000D03*
X116240000Y-107410000D03*
X121320000Y-80740000D03*
D11*
X185062000Y-76148000D03*
X185062000Y-78688000D03*
D12*
X185062000Y-86308000D03*
D11*
X185062000Y-83768000D03*
X185062000Y-81228000D03*
D13*
X151000000Y-77640000D03*
D14*
X151000000Y-75640000D03*
D13*
X163472000Y-102088000D03*
D14*
X163472000Y-104088000D03*
D15*
X137564000Y-109168000D03*
D16*
X127404000Y-109168000D03*
D17*
X187856155Y-119143845D03*
X186000000Y-118375000D03*
X184143845Y-119143845D03*
X183375000Y-121000000D03*
X184143845Y-122856155D03*
X186000000Y-123625000D03*
X187856155Y-122856155D03*
X188625000Y-121000000D03*
D18*
X186000000Y-121000000D03*
D17*
X105856155Y-119143845D03*
X104000000Y-118375000D03*
X102143845Y-119143845D03*
X101375000Y-121000000D03*
X102143845Y-122856155D03*
X104000000Y-123625000D03*
X105856155Y-122856155D03*
X106625000Y-121000000D03*
D18*
X104000000Y-121000000D03*
D17*
X187856155Y-67143845D03*
X186000000Y-66375000D03*
X184143845Y-67143845D03*
X183375000Y-69000000D03*
X184143845Y-70856155D03*
X186000000Y-71625000D03*
X187856155Y-70856155D03*
X188625000Y-69000000D03*
D18*
X186000000Y-69000000D03*
D17*
X105856155Y-67143845D03*
X104000000Y-66375000D03*
X102143845Y-67143845D03*
X101375000Y-69000000D03*
X102143845Y-70856155D03*
X104000000Y-71625000D03*
X105856155Y-70856155D03*
X106625000Y-69000000D03*
D18*
X104000000Y-69000000D03*
D13*
X150852000Y-103072000D03*
X155852000Y-103072000D03*
D19*
X152550000Y-97000000D03*
X155090000Y-97000000D03*
X157630000Y-97000000D03*
X160170000Y-97000000D03*
X162710000Y-97000000D03*
D20*
X165250000Y-97000000D03*
D21*
X161476000Y-85120000D03*
X161476000Y-90000000D03*
D13*
X162000000Y-77000000D03*
X157000000Y-77000000D03*
X185062000Y-99088000D03*
X185062000Y-104088000D03*
X132404000Y-104850000D03*
X127404000Y-104850000D03*
X114902000Y-118566000D03*
D14*
X111402000Y-118566000D03*
D22*
X185062000Y-92912000D03*
D23*
X185062000Y-90372000D03*
X183792000Y-91642000D03*
D24*
X106040000Y-110140000D03*
X111240000Y-80740000D03*
D25*
X116240000Y-80740000D03*
D24*
X121440000Y-110140000D03*
D26*
X141120000Y-98500000D03*
D21*
X146200000Y-98500000D03*
X143660000Y-98500000D03*
D10*
X134450000Y-72150000D03*
D27*
X139450000Y-72150000D03*
D10*
X124450000Y-72150000D03*
D27*
X129450000Y-72150000D03*
D28*
X158250000Y-69544000D03*
X162750000Y-69544000D03*
D29*
X157000000Y-72044000D03*
X164000000Y-72044000D03*
D30*
X148460000Y-112216000D03*
X151000000Y-112216000D03*
X148460000Y-114756000D03*
X151000000Y-114756000D03*
X148460000Y-117296000D03*
D31*
X151000000Y-117296000D03*
D32*
X141660000Y-114756000D03*
D13*
X136580000Y-114756000D03*
D32*
X133278000Y-114756000D03*
D13*
X128198000Y-114756000D03*
D32*
X124896000Y-114756000D03*
D13*
X119816000Y-114756000D03*
D33*
X139077000Y-118825000D03*
D34*
X136537000Y-118825000D03*
D33*
X131577000Y-118825000D03*
D34*
X129037000Y-118825000D03*
D33*
X124077000Y-118825000D03*
D34*
X121537000Y-118825000D03*
D35*
X150000000Y-69544000D03*
D36*
X147460000Y-69544000D03*
D35*
X152540000Y-69544000D03*
D37*
X127912000Y-85800000D03*
D38*
X129862000Y-79850000D03*
D37*
X142112000Y-79800000D03*
X142062000Y-91850000D03*
D38*
X129862000Y-91850000D03*
D15*
X137564000Y-96722000D03*
D16*
X127404000Y-96722000D03*
D39*
X118641000Y-72094000D03*
X113561000Y-72084000D03*
D40*
X143406000Y-104850000D03*
D26*
X135786000Y-104850000D03*
D13*
X152296000Y-83300000D03*
X152296000Y-85800000D03*
X152296000Y-91348000D03*
X152296000Y-88848000D03*
D32*
X168000000Y-75920000D03*
D13*
X168000000Y-81000000D03*
D32*
X156360000Y-92690000D03*
D13*
X156360000Y-82530000D03*
D32*
X137564000Y-100532000D03*
D13*
X127404000Y-100532000D03*
D32*
X179728000Y-69290000D03*
X172108000Y-102310000D03*
X179728000Y-71830000D03*
X172108000Y-99770000D03*
X179728000Y-74370000D03*
X172108000Y-97230000D03*
X179728000Y-76910000D03*
X172108000Y-94690000D03*
X179728000Y-79450000D03*
X172108000Y-92150000D03*
X179728000Y-81990000D03*
X172108000Y-89610000D03*
X179728000Y-84530000D03*
X172108000Y-87070000D03*
X179728000Y-87070000D03*
X172108000Y-84530000D03*
X179728000Y-89610000D03*
X172108000Y-81990000D03*
X179728000Y-92150000D03*
X172108000Y-79450000D03*
X179728000Y-94690000D03*
X172108000Y-76910000D03*
X179728000Y-97230000D03*
X172108000Y-74370000D03*
X179728000Y-99770000D03*
X172108000Y-71830000D03*
X179728000Y-102310000D03*
D14*
X172108000Y-69290000D03*
D41*
X163472000Y-116788000D03*
X160932000Y-116788000D03*
X163472000Y-114248000D03*
X160932000Y-114248000D03*
X163472000Y-111708000D03*
X160932000Y-111708000D03*
X163472000Y-109168000D03*
D42*
X160932000Y-109168000D03*
D43*
X159394700Y-107814100D03*
X154141700Y-82094500D03*
D44*
X104419400Y-71444400D02*
X105431900Y-70431900D01*
X116320000Y-107120000D02*
X104419400Y-95219400D01*
X104419400Y-95219400D02*
X104419400Y-71444400D01*
X104000000Y-71025000D02*
X104419400Y-71444400D01*
X114902000Y-118566000D02*
X114902000Y-108538000D01*
X114902000Y-108538000D02*
X116320000Y-107120000D01*
X179728000Y-84530000D02*
X181228000Y-84530000D01*
X182372000Y-84832300D02*
X181530300Y-84832300D01*
X181530300Y-84832300D02*
X181228000Y-84530000D01*
X182372000Y-84832300D02*
X182372000Y-84658000D01*
X182372000Y-84658000D02*
X183262000Y-83768000D01*
X183262000Y-83768000D02*
X185062000Y-83768000D01*
X182372000Y-91694000D02*
X182372000Y-84832300D01*
X146200000Y-98500000D02*
X152296000Y-92404000D01*
X152296000Y-92404000D02*
X152296000Y-91348000D01*
X146200000Y-98500000D02*
X146200000Y-106266800D01*
X186875800Y-71518900D02*
X186493900Y-71518900D01*
X186493900Y-71518900D02*
X186000000Y-71025000D01*
X187431900Y-70431900D02*
X187431900Y-70962800D01*
X187431900Y-70962800D02*
X186875800Y-71518900D01*
X186875800Y-71518900D02*
X186875800Y-81954200D01*
X186875800Y-81954200D02*
X185062000Y-83768000D01*
X160932000Y-109168000D02*
X160932000Y-104048300D01*
X163392300Y-101588000D02*
X163472000Y-101588000D01*
X102568100Y-70431900D02*
X101975000Y-69838800D01*
X101975000Y-69838800D02*
X101975000Y-69000000D01*
X102568100Y-122431900D02*
X101975000Y-121838800D01*
X101975000Y-121838800D02*
X101975000Y-121000000D01*
X101975000Y-69000000D02*
X102568100Y-68406900D01*
X102568100Y-68406900D02*
X102568100Y-67568100D01*
X101975000Y-121000000D02*
X102568100Y-120406900D01*
X102568100Y-120406900D02*
X102568100Y-119568100D01*
X158250000Y-69544000D02*
X162000000Y-73294000D01*
X162000000Y-73294000D02*
X162000000Y-77000000D01*
X151747600Y-78140000D02*
X151000000Y-78140000D01*
X152540000Y-71344000D02*
X152996000Y-71800000D01*
X152996000Y-71800000D02*
X152996000Y-76891600D01*
X152996000Y-76891600D02*
X151747600Y-78140000D01*
X151747600Y-78140000D02*
X152296000Y-78688400D01*
X152296000Y-78688400D02*
X152296000Y-83300000D01*
X152296000Y-91348000D02*
X153773300Y-89870700D01*
X153773300Y-89870700D02*
X153773300Y-84777300D01*
X153773300Y-84777300D02*
X152296000Y-83300000D01*
X152540000Y-69544000D02*
X152540000Y-71344000D01*
X114902000Y-118566000D02*
X112468000Y-121000000D01*
X112468000Y-121000000D02*
X106025000Y-121000000D01*
X148460000Y-112216000D02*
X148460000Y-110652400D01*
X146200000Y-106266800D02*
X146200000Y-108392400D01*
X146200000Y-108392400D02*
X148460000Y-110652400D01*
X146200000Y-106266800D02*
X133820800Y-106266800D01*
X133820800Y-106266800D02*
X132404000Y-104850000D01*
X165250000Y-97000000D02*
X165250000Y-93928000D01*
X165250000Y-93928000D02*
X172108000Y-87070000D01*
X106025000Y-121000000D02*
X105431900Y-120406900D01*
X105431900Y-120406900D02*
X105431900Y-119568100D01*
X106025000Y-121000000D02*
X105431900Y-121593100D01*
X105431900Y-121593100D02*
X105431900Y-122431900D01*
X188025000Y-69000000D02*
X187431900Y-69593100D01*
X187431900Y-69593100D02*
X187431900Y-70431900D01*
X188025000Y-69000000D02*
X187431900Y-68406900D01*
X187431900Y-68406900D02*
X187431900Y-67568100D01*
X106025000Y-69000000D02*
X105431900Y-68406900D01*
X105431900Y-68406900D02*
X105431900Y-67568100D01*
X106025000Y-69000000D02*
X105431900Y-69593100D01*
X105431900Y-69593100D02*
X105431900Y-70431900D01*
X185062000Y-99088000D02*
X184262000Y-98288000D01*
X184262000Y-98288000D02*
X184262000Y-98283000D01*
X184262000Y-98283000D02*
X182372000Y-96393000D01*
X182372000Y-96393000D02*
X182372000Y-91694000D01*
D45*
X183792000Y-91642000D02*
X182873000Y-91642000D01*
X182873000Y-91642000D02*
X182821000Y-91694000D01*
X182821000Y-91694000D02*
X182372000Y-91694000D01*
D44*
X185062000Y-99088000D02*
X188567000Y-99088000D01*
X162340630Y-102088000D02*
X161417000Y-103011630D01*
X163472000Y-102088000D02*
X162340630Y-102088000D01*
X161417000Y-103563300D02*
X160932000Y-104048300D01*
X161417000Y-103011630D02*
X161417000Y-103563300D01*
X163472000Y-109168000D02*
X163472000Y-104088000D01*
D46*
X127404000Y-96722000D02*
X129509800Y-98827800D01*
X129509800Y-98827800D02*
X129509800Y-102744200D01*
X129509800Y-102744200D02*
X127404000Y-104850000D01*
X127404000Y-96722000D02*
X127404000Y-94308000D01*
X127404000Y-94308000D02*
X129862000Y-91850000D01*
X160170000Y-97000000D02*
X160170000Y-94367700D01*
X160170000Y-94367700D02*
X170007700Y-84530000D01*
X172108000Y-84530000D02*
X170007700Y-84530000D01*
X170007700Y-84530000D02*
X170007700Y-83007700D01*
X170007700Y-83007700D02*
X168000000Y-81000000D01*
X127404000Y-109168000D02*
X127404000Y-111218300D01*
X127404000Y-111218300D02*
X127660300Y-111218300D01*
X127660300Y-111218300D02*
X130687400Y-114245400D01*
X130687400Y-114245400D02*
X130687400Y-116180900D01*
X130687400Y-116180900D02*
X131577000Y-117070500D01*
X131577000Y-117070500D02*
X131577000Y-118825000D01*
X127404000Y-109168000D02*
X127404000Y-104850000D01*
X131577000Y-119988000D02*
X130539600Y-121025400D01*
X130539600Y-121025400D02*
X126277400Y-121025400D01*
X126277400Y-121025400D02*
X124077000Y-118825000D01*
X139077000Y-118825000D02*
X144767100Y-118825000D01*
X144767100Y-118825000D02*
X146296100Y-117296000D01*
X148460000Y-117296000D02*
X146296100Y-117296000D01*
X131577000Y-119988000D02*
X132614400Y-121025400D01*
X132614400Y-121025400D02*
X138039600Y-121025400D01*
X138039600Y-121025400D02*
X139077000Y-119988000D01*
X139077000Y-119988000D02*
X139077000Y-118825000D01*
X131577000Y-119988000D02*
X131577000Y-118825000D01*
X147460000Y-69544000D02*
X147460000Y-71944300D01*
X151000000Y-75640000D02*
X151000000Y-73539700D01*
X147460000Y-71944300D02*
X149404600Y-71944300D01*
X149404600Y-71944300D02*
X151000000Y-73539700D01*
D44*
X133858000Y-93016000D02*
X137564000Y-96722000D01*
X133858000Y-85852000D02*
X133858000Y-93016000D01*
X129862000Y-81856000D02*
X133858000Y-85852000D01*
X129862000Y-79850000D02*
X129862000Y-81856000D01*
D47*
X129450000Y-72150000D02*
X129450000Y-75670300D01*
X129450000Y-72150000D02*
X134450000Y-72150000D01*
X126389700Y-75670300D02*
X121320000Y-80740000D01*
X129450000Y-75670300D02*
X126389700Y-75670300D01*
X120050001Y-83130001D02*
X118090002Y-85090000D01*
X121320000Y-80740000D02*
X120050001Y-82009999D01*
X120050001Y-82009999D02*
X120050001Y-83130001D01*
X111240000Y-82366345D02*
X111240000Y-80740000D01*
X113963655Y-85090000D02*
X111240000Y-82366345D01*
X118090002Y-85090000D02*
X113963655Y-85090000D01*
X113561000Y-72084000D02*
X113561000Y-76401600D01*
X113561000Y-76401600D02*
X116025600Y-76401600D01*
X116240000Y-76616000D02*
X116240000Y-80740000D01*
X116025600Y-76401600D02*
X116240000Y-76616000D01*
X124131000Y-85800000D02*
X127912000Y-85800000D01*
X113561000Y-76401600D02*
X109526400Y-76401600D01*
X121340990Y-88590010D02*
X124131000Y-85800000D01*
X109526400Y-76401600D02*
X107442000Y-78486000D01*
X107442000Y-78486000D02*
X107442000Y-83518105D01*
X107442000Y-83518105D02*
X112513904Y-88590010D01*
X112513904Y-88590010D02*
X121340990Y-88590010D01*
D44*
X163472000Y-114248000D02*
X169948000Y-107772000D01*
X169948000Y-107772000D02*
X176350900Y-107772000D01*
X176350900Y-107772000D02*
X181181200Y-102941700D01*
X181181200Y-102941700D02*
X181181200Y-98683200D01*
X181181200Y-98683200D02*
X179728000Y-97230000D01*
X151000000Y-114756000D02*
X155342000Y-114756000D01*
X155342000Y-114756000D02*
X159805600Y-119219600D01*
X159805600Y-119219600D02*
X163092200Y-119219600D01*
X163092200Y-119219600D02*
X164884400Y-117427400D01*
X164884400Y-117427400D02*
X164884400Y-115217700D01*
X164884400Y-115217700D02*
X170905100Y-109197000D01*
X170905100Y-109197000D02*
X176370000Y-109197000D01*
X176370000Y-109197000D02*
X182181600Y-103385400D01*
X182181600Y-103385400D02*
X182181600Y-98268900D01*
X182181600Y-98268900D02*
X181371600Y-97458900D01*
X181371600Y-97458900D02*
X181371600Y-93793600D01*
X181371600Y-93793600D02*
X179728000Y-92150000D01*
X160932000Y-116788000D02*
X158108300Y-113964300D01*
X158108300Y-113964300D02*
X158108300Y-104890000D01*
X158108300Y-104890000D02*
X162861900Y-100136400D01*
X162861900Y-100136400D02*
X164075600Y-100136400D01*
X164075600Y-100136400D02*
X168709300Y-104770100D01*
X168709300Y-104770100D02*
X173227900Y-104770100D01*
X173227900Y-104770100D02*
X175074800Y-102923200D01*
X175074800Y-102923200D02*
X175074800Y-99343200D01*
X175074800Y-99343200D02*
X179728000Y-94690000D01*
X182200000Y-78366000D02*
X185062000Y-81228000D01*
X182200000Y-71762000D02*
X182200000Y-78366000D01*
X179728000Y-69290000D02*
X182200000Y-71762000D01*
X137564000Y-100532000D02*
X141628000Y-100532000D01*
X141628000Y-100532000D02*
X143660000Y-98500000D01*
X172108000Y-76910000D02*
X174074400Y-78876400D01*
X174074400Y-78876400D02*
X174074400Y-102451800D01*
X174074400Y-102451800D02*
X172760600Y-103765600D01*
X172760600Y-103765600D02*
X170017500Y-103765600D01*
X170017500Y-103765600D02*
X165386800Y-99134900D01*
X165386800Y-99134900D02*
X162438000Y-99134900D01*
X162438000Y-99134900D02*
X157107900Y-104465000D01*
X157107900Y-104465000D02*
X157107900Y-115000500D01*
X157107900Y-115000500D02*
X160317200Y-118209800D01*
X160317200Y-118209800D02*
X162050200Y-118209800D01*
X162050200Y-118209800D02*
X163472000Y-116788000D01*
X163472000Y-111708000D02*
X169349900Y-105830100D01*
X169349900Y-105830100D02*
X173582600Y-105830100D01*
X173582600Y-105830100D02*
X178228000Y-101184700D01*
X178228000Y-101184700D02*
X178228000Y-99770000D01*
X179728000Y-99770000D02*
X178228000Y-99770000D01*
X160932000Y-111708000D02*
X159394700Y-110170700D01*
X159394700Y-110170700D02*
X159394700Y-107814100D01*
D47*
X118641000Y-72094000D02*
X124394000Y-72094000D01*
D44*
X129037000Y-118825000D02*
X129037000Y-117225000D01*
X129037000Y-117225000D02*
X128198000Y-116386000D01*
X128198000Y-116386000D02*
X128198000Y-114756000D01*
X136537000Y-118825000D02*
X136537000Y-114799000D01*
X136537000Y-114799000D02*
X136580000Y-114756000D01*
X172108000Y-69290000D02*
X170608000Y-69290000D01*
X168000000Y-70041900D02*
X163247900Y-70041900D01*
X163247900Y-70041900D02*
X162750000Y-69544000D01*
X170608000Y-69290000D02*
X169856100Y-70041900D01*
X169856100Y-70041900D02*
X168000000Y-70041900D01*
X168000000Y-70041900D02*
X168000000Y-75920000D01*
X152275300Y-106648700D02*
X151000000Y-107924000D01*
X151000000Y-107924000D02*
X151000000Y-111434200D01*
X155852000Y-103072000D02*
X152275300Y-106648700D01*
X168000000Y-75920000D02*
X154877200Y-89042800D01*
X154877200Y-89042800D02*
X154877200Y-91393900D01*
X154877200Y-91393900D02*
X149350200Y-96920900D01*
X149350200Y-96920900D02*
X149350200Y-103723700D01*
X149350200Y-103723700D02*
X152275300Y-106648700D01*
X151000000Y-112216000D02*
X151000000Y-111434200D01*
X172108000Y-71830000D02*
X173558400Y-70379600D01*
X173558400Y-70379600D02*
X173558400Y-68220700D01*
X173558400Y-68220700D02*
X173154900Y-67817200D01*
X173154900Y-67817200D02*
X157786800Y-67817200D01*
X157786800Y-67817200D02*
X154141800Y-71462200D01*
X154141800Y-71462200D02*
X154141800Y-82094500D01*
X154141800Y-82094500D02*
X154141700Y-82094500D01*
X155090000Y-97000000D02*
X155090000Y-95450000D01*
X172108000Y-74370000D02*
X170608000Y-74370000D01*
X170608000Y-74370000D02*
X170608000Y-75609500D01*
X170608000Y-75609500D02*
X162975200Y-83242300D01*
X162975200Y-83242300D02*
X162975200Y-85708700D01*
X162975200Y-85708700D02*
X158169600Y-90514300D01*
X158169600Y-90514300D02*
X158169600Y-92932300D01*
X158169600Y-92932300D02*
X155651900Y-95450000D01*
X155651900Y-95450000D02*
X155090000Y-95450000D01*
D47*
X138557000Y-73043000D02*
X139450000Y-72150000D01*
X138557000Y-88345000D02*
X138557000Y-73043000D01*
X142062000Y-91850000D02*
X138557000Y-88345000D01*
D44*
X152550000Y-97000000D02*
X152550000Y-98550000D01*
X152550000Y-98550000D02*
X150852000Y-100248000D01*
X150852000Y-100248000D02*
X150852000Y-103072000D01*
D48*
G36*
X101265450Y-66085845D02*
G01*
X104000000Y-68820395D01*
X106734550Y-66085845D01*
X106603722Y-65914000D01*
X183396278Y-65914000D01*
X183265450Y-66085845D01*
X186000000Y-68820395D01*
X188734550Y-66085845D01*
X188603722Y-65914000D01*
X189086000Y-65914000D01*
X189086000Y-66396278D01*
X188914155Y-66265450D01*
X186179605Y-69000000D01*
X188914155Y-71734550D01*
X189086000Y-71603722D01*
X189086001Y-105739000D01*
X185419389Y-105739000D01*
X185554663Y-105712092D01*
X185862041Y-105584772D01*
X186138675Y-105399932D01*
X186373932Y-105164675D01*
X186558772Y-104888041D01*
X186686092Y-104580663D01*
X186751000Y-104254352D01*
X186751000Y-103921648D01*
X186686092Y-103595337D01*
X186558772Y-103287959D01*
X186373932Y-103011325D01*
X186138675Y-102776068D01*
X185862041Y-102591228D01*
X185554663Y-102463908D01*
X185228352Y-102399000D01*
X184895648Y-102399000D01*
X184569337Y-102463908D01*
X184261959Y-102591228D01*
X183985325Y-102776068D01*
X183750068Y-103011325D01*
X183565228Y-103287959D01*
X183437908Y-103595337D01*
X183373000Y-103921648D01*
X183373000Y-104254352D01*
X183437908Y-104580663D01*
X183565228Y-104888041D01*
X183750068Y-105164675D01*
X183985325Y-105399932D01*
X184261959Y-105584772D01*
X184569337Y-105712092D01*
X184704611Y-105739000D01*
X184554000Y-105739000D01*
X184529224Y-105741440D01*
X184505399Y-105748667D01*
X184483443Y-105760403D01*
X184464197Y-105776197D01*
X179676159Y-110564235D01*
X171409877Y-110444434D01*
X171418311Y-110436000D01*
X176309141Y-110436000D01*
X176370000Y-110441994D01*
X176449399Y-110434174D01*
X176612886Y-110418072D01*
X176846439Y-110347224D01*
X177061682Y-110232175D01*
X177250344Y-110077344D01*
X177289144Y-110030066D01*
X183014672Y-104304539D01*
X183061944Y-104265744D01*
X183216775Y-104077082D01*
X183331824Y-103861839D01*
X183402672Y-103628286D01*
X183420600Y-103446259D01*
X183420600Y-103446258D01*
X183426594Y-103385400D01*
X183420600Y-103324541D01*
X183420600Y-100080702D01*
X184248903Y-100080702D01*
X184320486Y-100324671D01*
X184575996Y-100445571D01*
X184850184Y-100514300D01*
X185132512Y-100528217D01*
X185412130Y-100486787D01*
X185678292Y-100391603D01*
X185803514Y-100324671D01*
X185875097Y-100080702D01*
X185062000Y-99267605D01*
X184248903Y-100080702D01*
X183420600Y-100080702D01*
X183420600Y-99158512D01*
X183621783Y-99158512D01*
X183663213Y-99438130D01*
X183758397Y-99704292D01*
X183825329Y-99829514D01*
X184069298Y-99901097D01*
X184882395Y-99088000D01*
X185241605Y-99088000D01*
X186054702Y-99901097D01*
X186298671Y-99829514D01*
X186419571Y-99574004D01*
X186488300Y-99299816D01*
X186502217Y-99017488D01*
X186460787Y-98737870D01*
X186365603Y-98471708D01*
X186298671Y-98346486D01*
X186054702Y-98274903D01*
X185241605Y-99088000D01*
X184882395Y-99088000D01*
X184069298Y-98274903D01*
X183825329Y-98346486D01*
X183704429Y-98601996D01*
X183635700Y-98876184D01*
X183621783Y-99158512D01*
X183420600Y-99158512D01*
X183420600Y-98329759D01*
X183426594Y-98268900D01*
X183409496Y-98095298D01*
X184248903Y-98095298D01*
X185062000Y-98908395D01*
X185875097Y-98095298D01*
X185803514Y-97851329D01*
X185548004Y-97730429D01*
X185273816Y-97661700D01*
X184991488Y-97647783D01*
X184711870Y-97689213D01*
X184445708Y-97784397D01*
X184320486Y-97851329D01*
X184248903Y-98095298D01*
X183409496Y-98095298D01*
X183402672Y-98026013D01*
X183351802Y-97858318D01*
X183331824Y-97792461D01*
X183216775Y-97577218D01*
X183061944Y-97388556D01*
X183014666Y-97349756D01*
X182610600Y-96945690D01*
X182610600Y-93854458D01*
X182616594Y-93793599D01*
X182592672Y-93550713D01*
X182521824Y-93317161D01*
X182501348Y-93278853D01*
X182406775Y-93101918D01*
X182251944Y-92913256D01*
X182204666Y-92874456D01*
X181419159Y-92088949D01*
X181392561Y-91818898D01*
X181362092Y-91718455D01*
X182503048Y-91718455D01*
X182542730Y-91968449D01*
X182630422Y-92205896D01*
X182677799Y-92294534D01*
X182906473Y-92347922D01*
X183612395Y-91642000D01*
X182906473Y-90936078D01*
X182677799Y-90989466D01*
X182571905Y-91219374D01*
X182512898Y-91465524D01*
X182503048Y-91718455D01*
X181362092Y-91718455D01*
X181295982Y-91500520D01*
X181139147Y-91207102D01*
X180928082Y-90949918D01*
X180872836Y-90904579D01*
X180955082Y-90837082D01*
X181021236Y-90756473D01*
X183086078Y-90756473D01*
X183792000Y-91462395D01*
X183806143Y-91448253D01*
X183894524Y-91536634D01*
X183780341Y-91630341D01*
X183669247Y-91765709D01*
X183586697Y-91920149D01*
X183540212Y-92073393D01*
X183086078Y-92527527D01*
X183139466Y-92756201D01*
X183369374Y-92862095D01*
X183518699Y-92897891D01*
X183518699Y-93562000D01*
X183535864Y-93736274D01*
X183586697Y-93903851D01*
X183669247Y-94058291D01*
X183780341Y-94193659D01*
X183915709Y-94304753D01*
X184070149Y-94387303D01*
X184237726Y-94438136D01*
X184412000Y-94455301D01*
X185712000Y-94455301D01*
X185886274Y-94438136D01*
X186053851Y-94387303D01*
X186208291Y-94304753D01*
X186343659Y-94193659D01*
X186454753Y-94058291D01*
X186537303Y-93903851D01*
X186588136Y-93736274D01*
X186605301Y-93562000D01*
X186605301Y-92262000D01*
X186588136Y-92087726D01*
X186537303Y-91920149D01*
X186454753Y-91765709D01*
X186343659Y-91630341D01*
X186208291Y-91519247D01*
X186167025Y-91497190D01*
X186286936Y-91377279D01*
X186459519Y-91118989D01*
X186578396Y-90831994D01*
X186639000Y-90527321D01*
X186639000Y-90216679D01*
X186578396Y-89912006D01*
X186459519Y-89625011D01*
X186286936Y-89366721D01*
X186067279Y-89147064D01*
X185808989Y-88974481D01*
X185521994Y-88855604D01*
X185217321Y-88795000D01*
X184906679Y-88795000D01*
X184602006Y-88855604D01*
X184315011Y-88974481D01*
X184056721Y-89147064D01*
X183837064Y-89366721D01*
X183664481Y-89625011D01*
X183545604Y-89912006D01*
X183485000Y-90216679D01*
X183485000Y-90389643D01*
X183465551Y-90392730D01*
X183228104Y-90480422D01*
X183139466Y-90527799D01*
X183086078Y-90756473D01*
X181021236Y-90756473D01*
X181170896Y-90574112D01*
X181331260Y-90274092D01*
X181430012Y-89948551D01*
X181463356Y-89610000D01*
X181430012Y-89271449D01*
X181331260Y-88945908D01*
X181170896Y-88645888D01*
X180955082Y-88382918D01*
X180872836Y-88315421D01*
X180928082Y-88270082D01*
X181139147Y-88012898D01*
X181295982Y-87719480D01*
X181392561Y-87401102D01*
X181425172Y-87070000D01*
X181392561Y-86738898D01*
X181295982Y-86420520D01*
X181139147Y-86127102D01*
X180928082Y-85869918D01*
X180670898Y-85658853D01*
X180632005Y-85638065D01*
X180791519Y-85493414D01*
X180817769Y-85458000D01*
X183068699Y-85458000D01*
X183068699Y-87158000D01*
X183085864Y-87332274D01*
X183136697Y-87499851D01*
X183219247Y-87654291D01*
X183330341Y-87789659D01*
X183465709Y-87900753D01*
X183620149Y-87983303D01*
X183787726Y-88034136D01*
X183962000Y-88051301D01*
X186162000Y-88051301D01*
X186336274Y-88034136D01*
X186503851Y-87983303D01*
X186658291Y-87900753D01*
X186793659Y-87789659D01*
X186904753Y-87654291D01*
X186987303Y-87499851D01*
X187038136Y-87332274D01*
X187055301Y-87158000D01*
X187055301Y-85458000D01*
X187038136Y-85283726D01*
X186987303Y-85116149D01*
X186904753Y-84961709D01*
X186793659Y-84826341D01*
X186658291Y-84715247D01*
X186517887Y-84640200D01*
X186613862Y-84503608D01*
X186732357Y-84235493D01*
X186753476Y-84124890D01*
X186632155Y-83895000D01*
X185189000Y-83895000D01*
X185189000Y-83915000D01*
X184935000Y-83915000D01*
X184935000Y-83895000D01*
X183491845Y-83895000D01*
X183370524Y-84124890D01*
X183391643Y-84235493D01*
X183510138Y-84503608D01*
X183606113Y-84640200D01*
X183465709Y-84715247D01*
X183330341Y-84826341D01*
X183219247Y-84961709D01*
X183136697Y-85116149D01*
X183085864Y-85283726D01*
X183068699Y-85458000D01*
X180817769Y-85458000D01*
X180959037Y-85267420D01*
X181079246Y-85013087D01*
X181119904Y-84879039D01*
X180997915Y-84657000D01*
X179855000Y-84657000D01*
X179855000Y-84677000D01*
X179601000Y-84677000D01*
X179601000Y-84657000D01*
X178458085Y-84657000D01*
X178336096Y-84879039D01*
X178376754Y-85013087D01*
X178496963Y-85267420D01*
X178664481Y-85493414D01*
X178823995Y-85638065D01*
X178785102Y-85658853D01*
X178527918Y-85869918D01*
X178316853Y-86127102D01*
X178160018Y-86420520D01*
X178063439Y-86738898D01*
X178030828Y-87070000D01*
X178063439Y-87401102D01*
X178160018Y-87719480D01*
X178316853Y-88012898D01*
X178527918Y-88270082D01*
X178583164Y-88315421D01*
X178500918Y-88382918D01*
X178285104Y-88645888D01*
X178124740Y-88945908D01*
X178025988Y-89271449D01*
X177992644Y-89610000D01*
X178025988Y-89948551D01*
X178124740Y-90274092D01*
X178285104Y-90574112D01*
X178500918Y-90837082D01*
X178583164Y-90904579D01*
X178527918Y-90949918D01*
X178316853Y-91207102D01*
X178160018Y-91500520D01*
X178063439Y-91818898D01*
X178030828Y-92150000D01*
X178063439Y-92481102D01*
X178160018Y-92799480D01*
X178316853Y-93092898D01*
X178527918Y-93350082D01*
X178613114Y-93420000D01*
X178527918Y-93489918D01*
X178316853Y-93747102D01*
X178160018Y-94040520D01*
X178063439Y-94358898D01*
X178036841Y-94628948D01*
X175313400Y-97352390D01*
X175313400Y-78937259D01*
X175319394Y-78876400D01*
X175304680Y-78727000D01*
X175295472Y-78633514D01*
X175224624Y-78399961D01*
X175109575Y-78184718D01*
X174954744Y-77996056D01*
X174907472Y-77957261D01*
X173799159Y-76848948D01*
X173772561Y-76578898D01*
X173675982Y-76260520D01*
X173519147Y-75967102D01*
X173308082Y-75709918D01*
X173222886Y-75640000D01*
X173308082Y-75570082D01*
X173519147Y-75312898D01*
X173675982Y-75019480D01*
X173772561Y-74701102D01*
X173805172Y-74370000D01*
X173772561Y-74038898D01*
X173675982Y-73720520D01*
X173519147Y-73427102D01*
X173308082Y-73169918D01*
X173222886Y-73100000D01*
X173308082Y-73030082D01*
X173519147Y-72772898D01*
X173675982Y-72479480D01*
X173772561Y-72161102D01*
X173799159Y-71891051D01*
X174391467Y-71298743D01*
X174438744Y-71259944D01*
X174593575Y-71071282D01*
X174708624Y-70856039D01*
X174745771Y-70733582D01*
X174779472Y-70622487D01*
X174803394Y-70379601D01*
X174797400Y-70318742D01*
X174797400Y-69290000D01*
X178030828Y-69290000D01*
X178063439Y-69621102D01*
X178160018Y-69939480D01*
X178316853Y-70232898D01*
X178527918Y-70490082D01*
X178613114Y-70560000D01*
X178527918Y-70629918D01*
X178316853Y-70887102D01*
X178160018Y-71180520D01*
X178063439Y-71498898D01*
X178030828Y-71830000D01*
X178063439Y-72161102D01*
X178160018Y-72479480D01*
X178316853Y-72772898D01*
X178527918Y-73030082D01*
X178613114Y-73100000D01*
X178527918Y-73169918D01*
X178316853Y-73427102D01*
X178160018Y-73720520D01*
X178063439Y-74038898D01*
X178030828Y-74370000D01*
X178063439Y-74701102D01*
X178160018Y-75019480D01*
X178316853Y-75312898D01*
X178527918Y-75570082D01*
X178613114Y-75640000D01*
X178527918Y-75709918D01*
X178316853Y-75967102D01*
X178160018Y-76260520D01*
X178063439Y-76578898D01*
X178030828Y-76910000D01*
X178063439Y-77241102D01*
X178160018Y-77559480D01*
X178316853Y-77852898D01*
X178527918Y-78110082D01*
X178613114Y-78180000D01*
X178527918Y-78249918D01*
X178316853Y-78507102D01*
X178160018Y-78800520D01*
X178063439Y-79118898D01*
X178030828Y-79450000D01*
X178063439Y-79781102D01*
X178160018Y-80099480D01*
X178316853Y-80392898D01*
X178527918Y-80650082D01*
X178613114Y-80720000D01*
X178527918Y-80789918D01*
X178316853Y-81047102D01*
X178160018Y-81340520D01*
X178063439Y-81658898D01*
X178030828Y-81990000D01*
X178063439Y-82321102D01*
X178160018Y-82639480D01*
X178316853Y-82932898D01*
X178527918Y-83190082D01*
X178785102Y-83401147D01*
X178823995Y-83421935D01*
X178664481Y-83566586D01*
X178496963Y-83792580D01*
X178376754Y-84046913D01*
X178336096Y-84180961D01*
X178458085Y-84403000D01*
X179601000Y-84403000D01*
X179601000Y-84383000D01*
X179855000Y-84383000D01*
X179855000Y-84403000D01*
X180997915Y-84403000D01*
X181119904Y-84180961D01*
X181079246Y-84046913D01*
X180959037Y-83792580D01*
X180791519Y-83566586D01*
X180632005Y-83421935D01*
X180670898Y-83401147D01*
X180928082Y-83190082D01*
X181139147Y-82932898D01*
X181295982Y-82639480D01*
X181392561Y-82321102D01*
X181425172Y-81990000D01*
X181392561Y-81658898D01*
X181295982Y-81340520D01*
X181139147Y-81047102D01*
X180928082Y-80789918D01*
X180842886Y-80720000D01*
X180928082Y-80650082D01*
X181139147Y-80392898D01*
X181295982Y-80099480D01*
X181392561Y-79781102D01*
X181425172Y-79450000D01*
X181413524Y-79331734D01*
X183086571Y-81004781D01*
X183064586Y-81228000D01*
X183098162Y-81568904D01*
X183197600Y-81896706D01*
X183359078Y-82198811D01*
X183576392Y-82463608D01*
X183816706Y-82660829D01*
X183678663Y-82792546D01*
X183510138Y-83032392D01*
X183391643Y-83300507D01*
X183370524Y-83411110D01*
X183491845Y-83641000D01*
X184935000Y-83641000D01*
X184935000Y-83621000D01*
X185189000Y-83621000D01*
X185189000Y-83641000D01*
X186632155Y-83641000D01*
X186753476Y-83411110D01*
X186732357Y-83300507D01*
X186613862Y-83032392D01*
X186445337Y-82792546D01*
X186307294Y-82660829D01*
X186547608Y-82463608D01*
X186764922Y-82198811D01*
X186926400Y-81896706D01*
X187025838Y-81568904D01*
X187059414Y-81228000D01*
X187025838Y-80887096D01*
X186926400Y-80559294D01*
X186764922Y-80257189D01*
X186547608Y-79992392D01*
X186505701Y-79958000D01*
X186547608Y-79923608D01*
X186764922Y-79658811D01*
X186926400Y-79356706D01*
X187025838Y-79028904D01*
X187059414Y-78688000D01*
X187025838Y-78347096D01*
X186926400Y-78019294D01*
X186764922Y-77717189D01*
X186547608Y-77452392D01*
X186505701Y-77418000D01*
X186547608Y-77383608D01*
X186764922Y-77118811D01*
X186926400Y-76816706D01*
X187025838Y-76488904D01*
X187059414Y-76148000D01*
X187025838Y-75807096D01*
X186926400Y-75479294D01*
X186764922Y-75177189D01*
X186547608Y-74912392D01*
X186282811Y-74695078D01*
X185980706Y-74533600D01*
X185652904Y-74434162D01*
X185397429Y-74409000D01*
X184726571Y-74409000D01*
X184471096Y-74434162D01*
X184143294Y-74533600D01*
X183841189Y-74695078D01*
X183576392Y-74912392D01*
X183439000Y-75079804D01*
X183439000Y-72142116D01*
X183661634Y-72434550D01*
X184376612Y-72824748D01*
X185153976Y-73067964D01*
X185963853Y-73154851D01*
X186775118Y-73082069D01*
X187556597Y-72852415D01*
X188278256Y-72474715D01*
X188338366Y-72434550D01*
X188734550Y-71914155D01*
X186000000Y-69179605D01*
X185985858Y-69193748D01*
X185806253Y-69014143D01*
X185820395Y-69000000D01*
X183085845Y-66265450D01*
X182565450Y-66661634D01*
X182175252Y-67376612D01*
X181932036Y-68153976D01*
X181845149Y-68963853D01*
X181913260Y-69723049D01*
X181419159Y-69228949D01*
X181392561Y-68958898D01*
X181295982Y-68640520D01*
X181139147Y-68347102D01*
X180928082Y-68089918D01*
X180670898Y-67878853D01*
X180377480Y-67722018D01*
X180059102Y-67625439D01*
X179810971Y-67601000D01*
X179645029Y-67601000D01*
X179396898Y-67625439D01*
X179078520Y-67722018D01*
X178785102Y-67878853D01*
X178527918Y-68089918D01*
X178316853Y-68347102D01*
X178160018Y-68640520D01*
X178063439Y-68958898D01*
X178030828Y-69290000D01*
X174797400Y-69290000D01*
X174797400Y-68281558D01*
X174803394Y-68220699D01*
X174779472Y-67977813D01*
X174727049Y-67805000D01*
X174708624Y-67744261D01*
X174593575Y-67529018D01*
X174438744Y-67340356D01*
X174391461Y-67301552D01*
X174074045Y-66984135D01*
X174035244Y-66936856D01*
X173846582Y-66782025D01*
X173631339Y-66666976D01*
X173397786Y-66596128D01*
X173215759Y-66578200D01*
X173154900Y-66572206D01*
X173094041Y-66578200D01*
X157847655Y-66578200D01*
X157786799Y-66572206D01*
X157725943Y-66578200D01*
X157725941Y-66578200D01*
X157543914Y-66596128D01*
X157310361Y-66666976D01*
X157095118Y-66782025D01*
X156906456Y-66936856D01*
X156867656Y-66984134D01*
X153996728Y-69855062D01*
X153871496Y-69671000D01*
X152667000Y-69671000D01*
X152667000Y-71114155D01*
X152896890Y-71235476D01*
X152919563Y-71231147D01*
X152896806Y-71462200D01*
X152902800Y-71523059D01*
X152902801Y-81268514D01*
X152822165Y-81389194D01*
X152709921Y-81660175D01*
X152659867Y-81911814D01*
X152507816Y-81873700D01*
X152225488Y-81859783D01*
X151945870Y-81901213D01*
X151679708Y-81996397D01*
X151554486Y-82063329D01*
X151482903Y-82307298D01*
X152296000Y-83120395D01*
X152310143Y-83106253D01*
X152489748Y-83285858D01*
X152475605Y-83300000D01*
X153288702Y-84113097D01*
X153532671Y-84041514D01*
X153653571Y-83786004D01*
X153718138Y-83528420D01*
X153995046Y-83583500D01*
X154288354Y-83583500D01*
X154576025Y-83526279D01*
X154847006Y-83414035D01*
X154897021Y-83380616D01*
X155048068Y-83606675D01*
X155283325Y-83841932D01*
X155559959Y-84026772D01*
X155867337Y-84154092D01*
X156193648Y-84219000D01*
X156526352Y-84219000D01*
X156852663Y-84154092D01*
X157160041Y-84026772D01*
X157436675Y-83841932D01*
X157671932Y-83606675D01*
X157856772Y-83330041D01*
X157984092Y-83022663D01*
X158049000Y-82696352D01*
X158049000Y-82363648D01*
X157984092Y-82037337D01*
X157856772Y-81729959D01*
X157671932Y-81453325D01*
X157436675Y-81218068D01*
X157160041Y-81033228D01*
X156852663Y-80905908D01*
X156526352Y-80841000D01*
X156193648Y-80841000D01*
X155867337Y-80905908D01*
X155559959Y-81033228D01*
X155380800Y-81152938D01*
X155380800Y-77603773D01*
X155469553Y-77818041D01*
X155658552Y-78100898D01*
X155899102Y-78341448D01*
X156181959Y-78530447D01*
X156496253Y-78660632D01*
X156829905Y-78727000D01*
X157170095Y-78727000D01*
X157503747Y-78660632D01*
X157818041Y-78530447D01*
X158100898Y-78341448D01*
X158341448Y-78100898D01*
X158413742Y-77992702D01*
X161186903Y-77992702D01*
X161258486Y-78236671D01*
X161513996Y-78357571D01*
X161788184Y-78426300D01*
X162070512Y-78440217D01*
X162350130Y-78398787D01*
X162616292Y-78303603D01*
X162741514Y-78236671D01*
X162813097Y-77992702D01*
X162000000Y-77179605D01*
X161186903Y-77992702D01*
X158413742Y-77992702D01*
X158530447Y-77818041D01*
X158660632Y-77503747D01*
X158727000Y-77170095D01*
X158727000Y-77070512D01*
X160559783Y-77070512D01*
X160601213Y-77350130D01*
X160696397Y-77616292D01*
X160763329Y-77741514D01*
X161007298Y-77813097D01*
X161820395Y-77000000D01*
X162179605Y-77000000D01*
X162992702Y-77813097D01*
X163236671Y-77741514D01*
X163357571Y-77486004D01*
X163426300Y-77211816D01*
X163440217Y-76929488D01*
X163398787Y-76649870D01*
X163303603Y-76383708D01*
X163236671Y-76258486D01*
X162992702Y-76186903D01*
X162179605Y-77000000D01*
X161820395Y-77000000D01*
X161007298Y-76186903D01*
X160763329Y-76258486D01*
X160642429Y-76513996D01*
X160573700Y-76788184D01*
X160559783Y-77070512D01*
X158727000Y-77070512D01*
X158727000Y-76829905D01*
X158660632Y-76496253D01*
X158530447Y-76181959D01*
X158413743Y-76007298D01*
X161186903Y-76007298D01*
X162000000Y-76820395D01*
X162813097Y-76007298D01*
X162741514Y-75763329D01*
X162486004Y-75642429D01*
X162211816Y-75573700D01*
X161929488Y-75559783D01*
X161649870Y-75601213D01*
X161383708Y-75696397D01*
X161258486Y-75763329D01*
X161186903Y-76007298D01*
X158413743Y-76007298D01*
X158341448Y-75899102D01*
X158100898Y-75658552D01*
X157818041Y-75469553D01*
X157503747Y-75339368D01*
X157170095Y-75273000D01*
X156829905Y-75273000D01*
X156496253Y-75339368D01*
X156181959Y-75469553D01*
X155899102Y-75658552D01*
X155658552Y-75899102D01*
X155469553Y-76181959D01*
X155380800Y-76396227D01*
X155380800Y-73200802D01*
X155455043Y-73311914D01*
X155732086Y-73588957D01*
X156057855Y-73806629D01*
X156419830Y-73956564D01*
X156804101Y-74033000D01*
X157195899Y-74033000D01*
X157580170Y-73956564D01*
X157942145Y-73806629D01*
X158267914Y-73588957D01*
X158544957Y-73311914D01*
X158762629Y-72986145D01*
X158912564Y-72624170D01*
X158989000Y-72239899D01*
X158989000Y-71848101D01*
X158912564Y-71463830D01*
X158762629Y-71101855D01*
X158674007Y-70969222D01*
X158883747Y-70894919D01*
X159021157Y-70821472D01*
X159098792Y-70572397D01*
X158250000Y-69723605D01*
X158235858Y-69737748D01*
X158056253Y-69558143D01*
X158070395Y-69544000D01*
X158056253Y-69529858D01*
X158235858Y-69350253D01*
X158250000Y-69364395D01*
X158264143Y-69350253D01*
X158443748Y-69529858D01*
X158429605Y-69544000D01*
X159278397Y-70392792D01*
X159527472Y-70315157D01*
X159653371Y-70051117D01*
X159725339Y-69767589D01*
X159740611Y-69475469D01*
X159698599Y-69185981D01*
X159652623Y-69056200D01*
X161073961Y-69056200D01*
X161011000Y-69372723D01*
X161011000Y-69715277D01*
X161077829Y-70051248D01*
X161208918Y-70367725D01*
X161399231Y-70652548D01*
X161641452Y-70894769D01*
X161926275Y-71085082D01*
X162197742Y-71197527D01*
X162087436Y-71463830D01*
X162011000Y-71848101D01*
X162011000Y-72239899D01*
X162087436Y-72624170D01*
X162237371Y-72986145D01*
X162455043Y-73311914D01*
X162732086Y-73588957D01*
X163057855Y-73806629D01*
X163419830Y-73956564D01*
X163804101Y-74033000D01*
X164195899Y-74033000D01*
X164580170Y-73956564D01*
X164942145Y-73806629D01*
X165267914Y-73588957D01*
X165544957Y-73311914D01*
X165762629Y-72986145D01*
X165912564Y-72624170D01*
X165989000Y-72239899D01*
X165989000Y-71848101D01*
X165912564Y-71463830D01*
X165836792Y-71280900D01*
X166761000Y-71280900D01*
X166761001Y-74767339D01*
X166588853Y-74977102D01*
X166432018Y-75270520D01*
X166335439Y-75588898D01*
X166308841Y-75858948D01*
X154044134Y-88123656D01*
X153996856Y-88162456D01*
X153892745Y-88289316D01*
X153792772Y-88047959D01*
X153607932Y-87771325D01*
X153372675Y-87536068D01*
X153096041Y-87351228D01*
X153030307Y-87324000D01*
X153096041Y-87296772D01*
X153372675Y-87111932D01*
X153607932Y-86876675D01*
X153792772Y-86600041D01*
X153920092Y-86292663D01*
X153985000Y-85966352D01*
X153985000Y-85633648D01*
X153920092Y-85307337D01*
X153792772Y-84999959D01*
X153607932Y-84723325D01*
X153372675Y-84488068D01*
X153104375Y-84308796D01*
X153109097Y-84292702D01*
X152296000Y-83479605D01*
X151482903Y-84292702D01*
X151487625Y-84308796D01*
X151219325Y-84488068D01*
X150984068Y-84723325D01*
X150799228Y-84999959D01*
X150671908Y-85307337D01*
X150607000Y-85633648D01*
X150607000Y-85966352D01*
X150671908Y-86292663D01*
X150799228Y-86600041D01*
X150984068Y-86876675D01*
X151219325Y-87111932D01*
X151495959Y-87296772D01*
X151561693Y-87324000D01*
X151495959Y-87351228D01*
X151219325Y-87536068D01*
X150984068Y-87771325D01*
X150799228Y-88047959D01*
X150671908Y-88355337D01*
X150607000Y-88681648D01*
X150607000Y-89014352D01*
X150671908Y-89340663D01*
X150799228Y-89648041D01*
X150984068Y-89924675D01*
X151219325Y-90159932D01*
X151487625Y-90339204D01*
X151482903Y-90355298D01*
X152296000Y-91168395D01*
X153109097Y-90355298D01*
X153104375Y-90339204D01*
X153372675Y-90159932D01*
X153607932Y-89924675D01*
X153638200Y-89879375D01*
X153638201Y-90839638D01*
X153599603Y-90731708D01*
X153532671Y-90606486D01*
X153288702Y-90534903D01*
X152475605Y-91348000D01*
X152489748Y-91362143D01*
X152310143Y-91541748D01*
X152296000Y-91527605D01*
X151482903Y-92340702D01*
X151554486Y-92584671D01*
X151809996Y-92705571D01*
X151812653Y-92706237D01*
X148517134Y-96001756D01*
X148469856Y-96040556D01*
X148315025Y-96229219D01*
X148199976Y-96444462D01*
X148175981Y-96523562D01*
X148129128Y-96678014D01*
X148105206Y-96920900D01*
X148111200Y-96981759D01*
X148111201Y-103662842D01*
X148105206Y-103723721D01*
X148123070Y-103905072D01*
X148129129Y-103966586D01*
X148129130Y-103966591D01*
X148129132Y-103966607D01*
X148171776Y-104107175D01*
X148199977Y-104200139D01*
X148199981Y-104200146D01*
X148199984Y-104200157D01*
X148249650Y-104293072D01*
X148315026Y-104415382D01*
X148315034Y-104415392D01*
X148315038Y-104415399D01*
X148349412Y-104457282D01*
X148469857Y-104604044D01*
X148517140Y-104642848D01*
X150523074Y-106648715D01*
X150166934Y-107004856D01*
X150119656Y-107043656D01*
X149964825Y-107232319D01*
X149849776Y-107447562D01*
X149828712Y-107517000D01*
X149778928Y-107681114D01*
X149755006Y-107924000D01*
X149761000Y-107984859D01*
X149761001Y-110965580D01*
X149754728Y-110970728D01*
X149563996Y-111203135D01*
X149348488Y-111009183D01*
X149095978Y-110859036D01*
X148819027Y-110761037D01*
X148587000Y-110881536D01*
X148587000Y-112089000D01*
X148607000Y-112089000D01*
X148607000Y-112343000D01*
X148587000Y-112343000D01*
X148587000Y-112363000D01*
X148333000Y-112363000D01*
X148333000Y-112343000D01*
X147126183Y-112343000D01*
X147005042Y-112575026D01*
X147050778Y-112725814D01*
X147177316Y-112990944D01*
X147353146Y-113226293D01*
X147452433Y-113315649D01*
X147214728Y-113510728D01*
X146995715Y-113777596D01*
X146832974Y-114082064D01*
X146732759Y-114412430D01*
X146698920Y-114756000D01*
X146732759Y-115099570D01*
X146832974Y-115429936D01*
X146995715Y-115734404D01*
X147106175Y-115869000D01*
X146366190Y-115869000D01*
X146296100Y-115862097D01*
X146226010Y-115869000D01*
X146226002Y-115869000D01*
X146040574Y-115887263D01*
X146016358Y-115889648D01*
X145978412Y-115901159D01*
X145747369Y-115971245D01*
X145553676Y-116074776D01*
X145499466Y-116103752D01*
X145336625Y-116237392D01*
X145336622Y-116237395D01*
X145282177Y-116282077D01*
X145237495Y-116336522D01*
X144176018Y-117398000D01*
X140229858Y-117398000D01*
X139942409Y-117205934D01*
X139609916Y-117068211D01*
X139256944Y-116998000D01*
X138897056Y-116998000D01*
X138544084Y-117068211D01*
X138211591Y-117205934D01*
X138072950Y-117298570D01*
X138068659Y-117293341D01*
X137933291Y-117182247D01*
X137778851Y-117099697D01*
X137776000Y-117098832D01*
X137776000Y-115948607D01*
X137891932Y-115832675D01*
X138076772Y-115556041D01*
X138204092Y-115248663D01*
X138269000Y-114922352D01*
X138269000Y-114756000D01*
X139962828Y-114756000D01*
X139995439Y-115087102D01*
X140092018Y-115405480D01*
X140248853Y-115698898D01*
X140459918Y-115956082D01*
X140717102Y-116167147D01*
X141010520Y-116323982D01*
X141328898Y-116420561D01*
X141577029Y-116445000D01*
X141742971Y-116445000D01*
X141991102Y-116420561D01*
X142309480Y-116323982D01*
X142602898Y-116167147D01*
X142860082Y-115956082D01*
X143071147Y-115698898D01*
X143227982Y-115405480D01*
X143324561Y-115087102D01*
X143357172Y-114756000D01*
X143324561Y-114424898D01*
X143227982Y-114106520D01*
X143071147Y-113813102D01*
X142860082Y-113555918D01*
X142602898Y-113344853D01*
X142309480Y-113188018D01*
X141991102Y-113091439D01*
X141742971Y-113067000D01*
X141577029Y-113067000D01*
X141328898Y-113091439D01*
X141010520Y-113188018D01*
X140717102Y-113344853D01*
X140459918Y-113555918D01*
X140248853Y-113813102D01*
X140092018Y-114106520D01*
X139995439Y-114424898D01*
X139962828Y-114756000D01*
X138269000Y-114756000D01*
X138269000Y-114589648D01*
X138204092Y-114263337D01*
X138076772Y-113955959D01*
X137891932Y-113679325D01*
X137656675Y-113444068D01*
X137380041Y-113259228D01*
X137072663Y-113131908D01*
X136746352Y-113067000D01*
X136413648Y-113067000D01*
X136087337Y-113131908D01*
X135779959Y-113259228D01*
X135503325Y-113444068D01*
X135268068Y-113679325D01*
X135083228Y-113955959D01*
X134955908Y-114263337D01*
X134931213Y-114387488D01*
X134845982Y-114106520D01*
X134689147Y-113813102D01*
X134478082Y-113555918D01*
X134220898Y-113344853D01*
X133927480Y-113188018D01*
X133609102Y-113091439D01*
X133360971Y-113067000D01*
X133195029Y-113067000D01*
X132946898Y-113091439D01*
X132628520Y-113188018D01*
X132335102Y-113344853D01*
X132077918Y-113555918D01*
X131992533Y-113659960D01*
X131879648Y-113448766D01*
X131858352Y-113422817D01*
X131746008Y-113285925D01*
X131746001Y-113285918D01*
X131701322Y-113231477D01*
X131646882Y-113186799D01*
X130317057Y-111856974D01*
X147005042Y-111856974D01*
X147126183Y-112089000D01*
X148333000Y-112089000D01*
X148333000Y-110881536D01*
X148100973Y-110761037D01*
X147824022Y-110859036D01*
X147571512Y-111009183D01*
X147353146Y-111205707D01*
X147177316Y-111441056D01*
X147050778Y-111706186D01*
X147005042Y-111856974D01*
X130317057Y-111856974D01*
X129263665Y-110803583D01*
X129278501Y-110785505D01*
X129364580Y-110624464D01*
X129417587Y-110449724D01*
X129435485Y-110268000D01*
X129435485Y-109168000D01*
X135565377Y-109168000D01*
X135603780Y-109557912D01*
X135717513Y-109932840D01*
X135902206Y-110278375D01*
X136150760Y-110581240D01*
X136453625Y-110829794D01*
X136799160Y-111014487D01*
X137174088Y-111128220D01*
X137466296Y-111157000D01*
X137661704Y-111157000D01*
X137953912Y-111128220D01*
X138328840Y-111014487D01*
X138674375Y-110829794D01*
X138977240Y-110581240D01*
X139225794Y-110278375D01*
X139410487Y-109932840D01*
X139524220Y-109557912D01*
X139562623Y-109168000D01*
X139524220Y-108778088D01*
X139410487Y-108403160D01*
X139225794Y-108057625D01*
X138977240Y-107754760D01*
X138674375Y-107506206D01*
X138328840Y-107321513D01*
X137953912Y-107207780D01*
X137661704Y-107179000D01*
X137466296Y-107179000D01*
X137174088Y-107207780D01*
X136799160Y-107321513D01*
X136453625Y-107506206D01*
X136150760Y-107754760D01*
X135902206Y-108057625D01*
X135717513Y-108403160D01*
X135603780Y-108778088D01*
X135565377Y-109168000D01*
X129435485Y-109168000D01*
X129435485Y-108068000D01*
X129417587Y-107886276D01*
X129364580Y-107711536D01*
X129278501Y-107550495D01*
X129162659Y-107409341D01*
X129021505Y-107293499D01*
X128860464Y-107207420D01*
X128831000Y-107198482D01*
X128831000Y-105842702D01*
X131590903Y-105842702D01*
X131662486Y-106086671D01*
X131917996Y-106207571D01*
X132192184Y-106276300D01*
X132474512Y-106290217D01*
X132754130Y-106248787D01*
X133020292Y-106153603D01*
X133145514Y-106086671D01*
X133217097Y-105842702D01*
X132404000Y-105029605D01*
X131590903Y-105842702D01*
X128831000Y-105842702D01*
X128831000Y-105822860D01*
X128934447Y-105668041D01*
X129064632Y-105353747D01*
X129100958Y-105171124D01*
X129351570Y-104920512D01*
X130963783Y-104920512D01*
X131005213Y-105200130D01*
X131100397Y-105466292D01*
X131167329Y-105591514D01*
X131411298Y-105663097D01*
X132224395Y-104850000D01*
X132583605Y-104850000D01*
X133396702Y-105663097D01*
X133640671Y-105591514D01*
X133761571Y-105336004D01*
X133830300Y-105061816D01*
X133844217Y-104779488D01*
X133802787Y-104499870D01*
X133707603Y-104233708D01*
X133640671Y-104108486D01*
X133611750Y-104100000D01*
X134142699Y-104100000D01*
X134142699Y-105600000D01*
X134159864Y-105774274D01*
X134210697Y-105941851D01*
X134293247Y-106096291D01*
X134404341Y-106231659D01*
X134539709Y-106342753D01*
X134694149Y-106425303D01*
X134861726Y-106476136D01*
X135036000Y-106493301D01*
X136536000Y-106493301D01*
X136710274Y-106476136D01*
X136877851Y-106425303D01*
X137032291Y-106342753D01*
X137167659Y-106231659D01*
X137278753Y-106096291D01*
X137361303Y-105941851D01*
X137412136Y-105774274D01*
X137429301Y-105600000D01*
X137429301Y-104850000D01*
X141759070Y-104850000D01*
X141790715Y-105171300D01*
X141884435Y-105480253D01*
X142036628Y-105764985D01*
X142241445Y-106014555D01*
X142491015Y-106219372D01*
X142775747Y-106371565D01*
X143084700Y-106465285D01*
X143325485Y-106489000D01*
X143486515Y-106489000D01*
X143727300Y-106465285D01*
X144036253Y-106371565D01*
X144320985Y-106219372D01*
X144570555Y-106014555D01*
X144775372Y-105764985D01*
X144927565Y-105480253D01*
X145021285Y-105171300D01*
X145052930Y-104850000D01*
X145021285Y-104528700D01*
X144927565Y-104219747D01*
X144775372Y-103935015D01*
X144570555Y-103685445D01*
X144320985Y-103480628D01*
X144036253Y-103328435D01*
X143727300Y-103234715D01*
X143486515Y-103211000D01*
X143325485Y-103211000D01*
X143084700Y-103234715D01*
X142775747Y-103328435D01*
X142491015Y-103480628D01*
X142241445Y-103685445D01*
X142036628Y-103935015D01*
X141884435Y-104219747D01*
X141790715Y-104528700D01*
X141759070Y-104850000D01*
X137429301Y-104850000D01*
X137429301Y-104100000D01*
X137412136Y-103925726D01*
X137361303Y-103758149D01*
X137278753Y-103603709D01*
X137167659Y-103468341D01*
X137032291Y-103357247D01*
X136877851Y-103274697D01*
X136710274Y-103223864D01*
X136536000Y-103206699D01*
X135036000Y-103206699D01*
X134861726Y-103223864D01*
X134694149Y-103274697D01*
X134539709Y-103357247D01*
X134404341Y-103468341D01*
X134293247Y-103603709D01*
X134210697Y-103758149D01*
X134159864Y-103925726D01*
X134142699Y-104100000D01*
X133611750Y-104100000D01*
X133396702Y-104036903D01*
X132583605Y-104850000D01*
X132224395Y-104850000D01*
X131411298Y-104036903D01*
X131167329Y-104108486D01*
X131046429Y-104363996D01*
X130977700Y-104638184D01*
X130963783Y-104920512D01*
X129351570Y-104920512D01*
X130414784Y-103857298D01*
X131590903Y-103857298D01*
X132404000Y-104670395D01*
X133217097Y-103857298D01*
X133145514Y-103613329D01*
X132890004Y-103492429D01*
X132615816Y-103423700D01*
X132333488Y-103409783D01*
X132053870Y-103451213D01*
X131787708Y-103546397D01*
X131662486Y-103613329D01*
X131590903Y-103857298D01*
X130414784Y-103857298D01*
X130469278Y-103802805D01*
X130523723Y-103758123D01*
X130568405Y-103703678D01*
X130568408Y-103703675D01*
X130695807Y-103548439D01*
X130702048Y-103540834D01*
X130834555Y-103292931D01*
X130907390Y-103052825D01*
X130916152Y-103023942D01*
X130927476Y-102908962D01*
X130936800Y-102814298D01*
X130936800Y-102814290D01*
X130943703Y-102744200D01*
X130936800Y-102674110D01*
X130936800Y-100532000D01*
X135866828Y-100532000D01*
X135899439Y-100863102D01*
X135996018Y-101181480D01*
X136152853Y-101474898D01*
X136363918Y-101732082D01*
X136621102Y-101943147D01*
X136914520Y-102099982D01*
X137232898Y-102196561D01*
X137481029Y-102221000D01*
X137646971Y-102221000D01*
X137895102Y-102196561D01*
X138213480Y-102099982D01*
X138506898Y-101943147D01*
X138716660Y-101771000D01*
X141567141Y-101771000D01*
X141628000Y-101776994D01*
X141870886Y-101753072D01*
X141940080Y-101732082D01*
X142104439Y-101682224D01*
X142319682Y-101567175D01*
X142508344Y-101412344D01*
X142547144Y-101365066D01*
X143773211Y-100139000D01*
X143821427Y-100139000D01*
X144138079Y-100076014D01*
X144436357Y-99952463D01*
X144704801Y-99773094D01*
X144933094Y-99544801D01*
X144991765Y-99456993D01*
X145422612Y-99456993D01*
X145488137Y-99695860D01*
X145735116Y-99811760D01*
X145999960Y-99877250D01*
X146272492Y-99889812D01*
X146542238Y-99848965D01*
X146798832Y-99756277D01*
X146911863Y-99695860D01*
X146977388Y-99456993D01*
X146200000Y-98679605D01*
X145422612Y-99456993D01*
X144991765Y-99456993D01*
X145112463Y-99276357D01*
X145125399Y-99245126D01*
X145243007Y-99277388D01*
X146020395Y-98500000D01*
X146379605Y-98500000D01*
X147156993Y-99277388D01*
X147395860Y-99211863D01*
X147511760Y-98964884D01*
X147577250Y-98700040D01*
X147589812Y-98427508D01*
X147548965Y-98157762D01*
X147456277Y-97901168D01*
X147395860Y-97788137D01*
X147156993Y-97722612D01*
X146379605Y-98500000D01*
X146020395Y-98500000D01*
X145243007Y-97722612D01*
X145125399Y-97754874D01*
X145112463Y-97723643D01*
X144991766Y-97543007D01*
X145422612Y-97543007D01*
X146200000Y-98320395D01*
X146977388Y-97543007D01*
X146911863Y-97304140D01*
X146664884Y-97188240D01*
X146400040Y-97122750D01*
X146127508Y-97110188D01*
X145857762Y-97151035D01*
X145601168Y-97243723D01*
X145488137Y-97304140D01*
X145422612Y-97543007D01*
X144991766Y-97543007D01*
X144933094Y-97455199D01*
X144704801Y-97226906D01*
X144436357Y-97047537D01*
X144138079Y-96923986D01*
X143821427Y-96861000D01*
X143498573Y-96861000D01*
X143181921Y-96923986D01*
X142883643Y-97047537D01*
X142615199Y-97226906D01*
X142601774Y-97240331D01*
X142501659Y-97118341D01*
X142366291Y-97007247D01*
X142211851Y-96924697D01*
X142044274Y-96873864D01*
X141870000Y-96856699D01*
X140370000Y-96856699D01*
X140195726Y-96873864D01*
X140028149Y-96924697D01*
X139873709Y-97007247D01*
X139738341Y-97118341D01*
X139627247Y-97253709D01*
X139544697Y-97408149D01*
X139493864Y-97575726D01*
X139476699Y-97750000D01*
X139476699Y-99250000D01*
X139480934Y-99293000D01*
X138716660Y-99293000D01*
X138506898Y-99120853D01*
X138213480Y-98964018D01*
X137895102Y-98867439D01*
X137646971Y-98843000D01*
X137481029Y-98843000D01*
X137232898Y-98867439D01*
X136914520Y-98964018D01*
X136621102Y-99120853D01*
X136363918Y-99331918D01*
X136152853Y-99589102D01*
X135996018Y-99882520D01*
X135899439Y-100200898D01*
X135866828Y-100532000D01*
X130936800Y-100532000D01*
X130936800Y-98897890D01*
X130943703Y-98827800D01*
X130936800Y-98757710D01*
X130936800Y-98757702D01*
X130916152Y-98548059D01*
X130895707Y-98480659D01*
X130883468Y-98440313D01*
X130834555Y-98279069D01*
X130702048Y-98031166D01*
X130669926Y-97992025D01*
X130568408Y-97868325D01*
X130568401Y-97868318D01*
X130523722Y-97813877D01*
X130469282Y-97769199D01*
X129435485Y-96735403D01*
X129435485Y-95622000D01*
X129417587Y-95440276D01*
X129364580Y-95265536D01*
X129278501Y-95104495D01*
X129162659Y-94963341D01*
X129021505Y-94847499D01*
X128930974Y-94799109D01*
X129703083Y-94027000D01*
X130076416Y-94027000D01*
X130497008Y-93943340D01*
X130893196Y-93779233D01*
X131249757Y-93540987D01*
X131552987Y-93237757D01*
X131791233Y-92881196D01*
X131955340Y-92485008D01*
X132039000Y-92064416D01*
X132039000Y-91635584D01*
X131955340Y-91214992D01*
X131791233Y-90818804D01*
X131552987Y-90462243D01*
X131249757Y-90159013D01*
X130893196Y-89920767D01*
X130497008Y-89756660D01*
X130076416Y-89673000D01*
X129647584Y-89673000D01*
X129226992Y-89756660D01*
X128830804Y-89920767D01*
X128474243Y-90159013D01*
X128171013Y-90462243D01*
X127932767Y-90818804D01*
X127768660Y-91214992D01*
X127685000Y-91635584D01*
X127685000Y-92008917D01*
X126444523Y-93249395D01*
X126390078Y-93294077D01*
X126345396Y-93348522D01*
X126345392Y-93348526D01*
X126211753Y-93511366D01*
X126079246Y-93759269D01*
X125997649Y-94028259D01*
X125970097Y-94308000D01*
X125977001Y-94378097D01*
X125977001Y-94752482D01*
X125947536Y-94761420D01*
X125786495Y-94847499D01*
X125645341Y-94963341D01*
X125529499Y-95104495D01*
X125443420Y-95265536D01*
X125390413Y-95440276D01*
X125372515Y-95622000D01*
X125372515Y-97822000D01*
X125390413Y-98003724D01*
X125443420Y-98178464D01*
X125529499Y-98339505D01*
X125645341Y-98480659D01*
X125786495Y-98596501D01*
X125947536Y-98682580D01*
X126122276Y-98735587D01*
X126304000Y-98753485D01*
X127417403Y-98753485D01*
X127506917Y-98843000D01*
X127237648Y-98843000D01*
X126911337Y-98907908D01*
X126603959Y-99035228D01*
X126327325Y-99220068D01*
X126092068Y-99455325D01*
X125907228Y-99731959D01*
X125779908Y-100039337D01*
X125715000Y-100365648D01*
X125715000Y-100698352D01*
X125779908Y-101024663D01*
X125907228Y-101332041D01*
X126092068Y-101608675D01*
X126327325Y-101843932D01*
X126603959Y-102028772D01*
X126911337Y-102156092D01*
X127237648Y-102221000D01*
X127570352Y-102221000D01*
X127896663Y-102156092D01*
X128082801Y-102078991D01*
X128082801Y-102153116D01*
X127082876Y-103153042D01*
X126900253Y-103189368D01*
X126585959Y-103319553D01*
X126303102Y-103508552D01*
X126062552Y-103749102D01*
X125873553Y-104031959D01*
X125743368Y-104346253D01*
X125677000Y-104679905D01*
X125677000Y-105020095D01*
X125743368Y-105353747D01*
X125873553Y-105668041D01*
X125977001Y-105822862D01*
X125977000Y-107198482D01*
X125947536Y-107207420D01*
X125786495Y-107293499D01*
X125645341Y-107409341D01*
X125529499Y-107550495D01*
X125443420Y-107711536D01*
X125390413Y-107886276D01*
X125372515Y-108068000D01*
X125372515Y-110268000D01*
X125390413Y-110449724D01*
X125443420Y-110624464D01*
X125529499Y-110785505D01*
X125645341Y-110926659D01*
X125786495Y-111042501D01*
X125947536Y-111128580D01*
X125977001Y-111137518D01*
X125977001Y-111148193D01*
X125970096Y-111218300D01*
X125997648Y-111498041D01*
X126079245Y-111767031D01*
X126211752Y-112014934D01*
X126390077Y-112232223D01*
X126607366Y-112410548D01*
X126855269Y-112543055D01*
X127015612Y-112591694D01*
X127599616Y-113175699D01*
X127397959Y-113259228D01*
X127121325Y-113444068D01*
X126886068Y-113679325D01*
X126701228Y-113955959D01*
X126573908Y-114263337D01*
X126549213Y-114387488D01*
X126463982Y-114106520D01*
X126307147Y-113813102D01*
X126096082Y-113555918D01*
X125838898Y-113344853D01*
X125545480Y-113188018D01*
X125227102Y-113091439D01*
X124978971Y-113067000D01*
X124813029Y-113067000D01*
X124564898Y-113091439D01*
X124246520Y-113188018D01*
X123953102Y-113344853D01*
X123695918Y-113555918D01*
X123484853Y-113813102D01*
X123328018Y-114106520D01*
X123231439Y-114424898D01*
X123198828Y-114756000D01*
X123231439Y-115087102D01*
X123328018Y-115405480D01*
X123484853Y-115698898D01*
X123695918Y-115956082D01*
X123953102Y-116167147D01*
X124246520Y-116323982D01*
X124564898Y-116420561D01*
X124813029Y-116445000D01*
X124978971Y-116445000D01*
X125227102Y-116420561D01*
X125545480Y-116323982D01*
X125838898Y-116167147D01*
X126096082Y-115956082D01*
X126307147Y-115698898D01*
X126463982Y-115405480D01*
X126549213Y-115124512D01*
X126573908Y-115248663D01*
X126701228Y-115556041D01*
X126886068Y-115832675D01*
X126959000Y-115905607D01*
X126959000Y-116325141D01*
X126953006Y-116386000D01*
X126967516Y-116533318D01*
X126976928Y-116628885D01*
X127047776Y-116862438D01*
X127162825Y-117077681D01*
X127317656Y-117266344D01*
X127364934Y-117305144D01*
X127436732Y-117376942D01*
X127394247Y-117428709D01*
X127311697Y-117583149D01*
X127260864Y-117750726D01*
X127243699Y-117925000D01*
X127243699Y-119598400D01*
X126868483Y-119598400D01*
X125901234Y-118631152D01*
X125833789Y-118292084D01*
X125696066Y-117959591D01*
X125496124Y-117660355D01*
X125241645Y-117405876D01*
X124942409Y-117205934D01*
X124609916Y-117068211D01*
X124256944Y-116998000D01*
X123897056Y-116998000D01*
X123544084Y-117068211D01*
X123211591Y-117205934D01*
X123072950Y-117298570D01*
X123068659Y-117293341D01*
X122933291Y-117182247D01*
X122778851Y-117099697D01*
X122611274Y-117048864D01*
X122437000Y-117031699D01*
X120637000Y-117031699D01*
X120462726Y-117048864D01*
X120295149Y-117099697D01*
X120140709Y-117182247D01*
X120005341Y-117293341D01*
X119894247Y-117428709D01*
X119811697Y-117583149D01*
X119760864Y-117750726D01*
X119743699Y-117925000D01*
X119743699Y-119725000D01*
X119760864Y-119899274D01*
X119811697Y-120066851D01*
X119894247Y-120221291D01*
X120005341Y-120356659D01*
X120140709Y-120467753D01*
X120295149Y-120550303D01*
X120462726Y-120601136D01*
X120637000Y-120618301D01*
X122437000Y-120618301D01*
X122611274Y-120601136D01*
X122778851Y-120550303D01*
X122933291Y-120467753D01*
X123068659Y-120356659D01*
X123072950Y-120351430D01*
X123211591Y-120444066D01*
X123544084Y-120581789D01*
X123883152Y-120649234D01*
X125218795Y-121984878D01*
X125263477Y-122039323D01*
X125317922Y-122084005D01*
X125317925Y-122084008D01*
X125397988Y-122149714D01*
X125480766Y-122217648D01*
X125728669Y-122350155D01*
X125845302Y-122385535D01*
X125997658Y-122431752D01*
X126021874Y-122434137D01*
X126207302Y-122452400D01*
X126207310Y-122452400D01*
X126277400Y-122459303D01*
X126347490Y-122452400D01*
X130469512Y-122452400D01*
X130539600Y-122459303D01*
X130609688Y-122452400D01*
X130609698Y-122452400D01*
X130819341Y-122431752D01*
X131088331Y-122350155D01*
X131336234Y-122217648D01*
X131553523Y-122039323D01*
X131577000Y-122010716D01*
X131600477Y-122039323D01*
X131654922Y-122084005D01*
X131654925Y-122084008D01*
X131725951Y-122142297D01*
X131817766Y-122217648D01*
X132065669Y-122350155D01*
X132334659Y-122431752D01*
X132544302Y-122452400D01*
X132544311Y-122452400D01*
X132614399Y-122459303D01*
X132684487Y-122452400D01*
X137969512Y-122452400D01*
X138039600Y-122459303D01*
X138109688Y-122452400D01*
X138109698Y-122452400D01*
X138319341Y-122431752D01*
X138588331Y-122350155D01*
X138836234Y-122217648D01*
X139053523Y-122039323D01*
X139098209Y-121984873D01*
X140036482Y-121046601D01*
X140090922Y-121001923D01*
X140135601Y-120947482D01*
X140135608Y-120947475D01*
X140269247Y-120784635D01*
X140269248Y-120784634D01*
X140401755Y-120536731D01*
X140483352Y-120267741D01*
X140484902Y-120252000D01*
X144697012Y-120252000D01*
X144767100Y-120258903D01*
X144837188Y-120252000D01*
X144837198Y-120252000D01*
X145046841Y-120231352D01*
X145315831Y-120149755D01*
X145563734Y-120017248D01*
X145781023Y-119838923D01*
X145825709Y-119784473D01*
X146887183Y-118723000D01*
X147376266Y-118723000D01*
X147460383Y-118792033D01*
X147771452Y-118958302D01*
X148108981Y-119060691D01*
X148372042Y-119086600D01*
X148547958Y-119086600D01*
X148811019Y-119060691D01*
X149148548Y-118958302D01*
X149459617Y-118792033D01*
X149486960Y-118769593D01*
X149504741Y-118791259D01*
X149640109Y-118902353D01*
X149794549Y-118984903D01*
X149962126Y-119035736D01*
X150136400Y-119052901D01*
X151863600Y-119052901D01*
X152037874Y-119035736D01*
X152205451Y-118984903D01*
X152359891Y-118902353D01*
X152495259Y-118791259D01*
X152606353Y-118655891D01*
X152688903Y-118501451D01*
X152739736Y-118333874D01*
X152756901Y-118159600D01*
X152756901Y-116432400D01*
X152739736Y-116258126D01*
X152688903Y-116090549D01*
X152637831Y-115995000D01*
X154828790Y-115995000D01*
X158886460Y-120052671D01*
X158925256Y-120099944D01*
X159113918Y-120254775D01*
X159329161Y-120369824D01*
X159536912Y-120432845D01*
X159562714Y-120440672D01*
X159805600Y-120464594D01*
X159866459Y-120458600D01*
X163031341Y-120458600D01*
X163092200Y-120464594D01*
X163335086Y-120440672D01*
X163360888Y-120432845D01*
X163568639Y-120369824D01*
X163783882Y-120254775D01*
X163972544Y-120099944D01*
X164011344Y-120052666D01*
X165717472Y-118346539D01*
X165764744Y-118307744D01*
X165881209Y-118165831D01*
X165874098Y-124086000D01*
X106603722Y-124086000D01*
X106734550Y-123914155D01*
X104000000Y-121179605D01*
X101265450Y-123914155D01*
X101396278Y-124086000D01*
X100914000Y-124086000D01*
X100914000Y-123603722D01*
X101085845Y-123734550D01*
X103820395Y-121000000D01*
X104179605Y-121000000D01*
X106914155Y-123734550D01*
X107434550Y-123338366D01*
X107824748Y-122623388D01*
X108067964Y-121846024D01*
X108154851Y-121036147D01*
X108082069Y-120224882D01*
X107852415Y-119443403D01*
X107474715Y-118721744D01*
X107434550Y-118661634D01*
X106914155Y-118265450D01*
X104179605Y-121000000D01*
X103820395Y-121000000D01*
X101085845Y-118265450D01*
X100914000Y-118396278D01*
X100914000Y-118085845D01*
X101265450Y-118085845D01*
X104000000Y-120820395D01*
X106734550Y-118085845D01*
X106491048Y-117766000D01*
X109670515Y-117766000D01*
X109670515Y-119366000D01*
X109688413Y-119547724D01*
X109741420Y-119722464D01*
X109827499Y-119883505D01*
X109943341Y-120024659D01*
X110084495Y-120140501D01*
X110245536Y-120226580D01*
X110420276Y-120279587D01*
X110602000Y-120297485D01*
X112202000Y-120297485D01*
X112383724Y-120279587D01*
X112558464Y-120226580D01*
X112719505Y-120140501D01*
X112860659Y-120024659D01*
X112976501Y-119883505D01*
X113062580Y-119722464D01*
X113112256Y-119558702D01*
X114088903Y-119558702D01*
X114160486Y-119802671D01*
X114415996Y-119923571D01*
X114690184Y-119992300D01*
X114972512Y-120006217D01*
X115252130Y-119964787D01*
X115518292Y-119869603D01*
X115643514Y-119802671D01*
X115715097Y-119558702D01*
X114902000Y-118745605D01*
X114088903Y-119558702D01*
X113112256Y-119558702D01*
X113115587Y-119547724D01*
X113133485Y-119366000D01*
X113133485Y-118636512D01*
X113461783Y-118636512D01*
X113503213Y-118916130D01*
X113598397Y-119182292D01*
X113665329Y-119307514D01*
X113909298Y-119379097D01*
X114722395Y-118566000D01*
X115081605Y-118566000D01*
X115894702Y-119379097D01*
X116138671Y-119307514D01*
X116259571Y-119052004D01*
X116328300Y-118777816D01*
X116342217Y-118495488D01*
X116300787Y-118215870D01*
X116205603Y-117949708D01*
X116138671Y-117824486D01*
X115894702Y-117752903D01*
X115081605Y-118566000D01*
X114722395Y-118566000D01*
X113909298Y-117752903D01*
X113665329Y-117824486D01*
X113544429Y-118079996D01*
X113475700Y-118354184D01*
X113461783Y-118636512D01*
X113133485Y-118636512D01*
X113133485Y-117766000D01*
X113115587Y-117584276D01*
X113112257Y-117573298D01*
X114088903Y-117573298D01*
X114902000Y-118386395D01*
X115715097Y-117573298D01*
X115643514Y-117329329D01*
X115388004Y-117208429D01*
X115113816Y-117139700D01*
X114831488Y-117125783D01*
X114551870Y-117167213D01*
X114285708Y-117262397D01*
X114160486Y-117329329D01*
X114088903Y-117573298D01*
X113112257Y-117573298D01*
X113062580Y-117409536D01*
X112976501Y-117248495D01*
X112860659Y-117107341D01*
X112719505Y-116991499D01*
X112558464Y-116905420D01*
X112383724Y-116852413D01*
X112202000Y-116834515D01*
X110602000Y-116834515D01*
X110420276Y-116852413D01*
X110245536Y-116905420D01*
X110084495Y-116991499D01*
X109943341Y-117107341D01*
X109827499Y-117248495D01*
X109741420Y-117409536D01*
X109688413Y-117584276D01*
X109670515Y-117766000D01*
X106491048Y-117766000D01*
X106338366Y-117565450D01*
X105623388Y-117175252D01*
X104846024Y-116932036D01*
X104036147Y-116845149D01*
X103224882Y-116917931D01*
X102443403Y-117147585D01*
X101721744Y-117525285D01*
X101661634Y-117565450D01*
X101265450Y-118085845D01*
X100914000Y-118085845D01*
X100914000Y-114589648D01*
X118127000Y-114589648D01*
X118127000Y-114922352D01*
X118191908Y-115248663D01*
X118319228Y-115556041D01*
X118504068Y-115832675D01*
X118739325Y-116067932D01*
X119015959Y-116252772D01*
X119323337Y-116380092D01*
X119649648Y-116445000D01*
X119982352Y-116445000D01*
X120308663Y-116380092D01*
X120616041Y-116252772D01*
X120892675Y-116067932D01*
X121127932Y-115832675D01*
X121312772Y-115556041D01*
X121440092Y-115248663D01*
X121505000Y-114922352D01*
X121505000Y-114589648D01*
X121440092Y-114263337D01*
X121312772Y-113955959D01*
X121127932Y-113679325D01*
X120892675Y-113444068D01*
X120616041Y-113259228D01*
X120308663Y-113131908D01*
X119982352Y-113067000D01*
X119649648Y-113067000D01*
X119323337Y-113131908D01*
X119015959Y-113259228D01*
X118739325Y-113444068D01*
X118504068Y-113679325D01*
X118319228Y-113955959D01*
X118191908Y-114263337D01*
X118127000Y-114589648D01*
X100914000Y-114589648D01*
X100914000Y-107193614D01*
X103883000Y-107193614D01*
X103883000Y-107626386D01*
X103967430Y-108050841D01*
X104133044Y-108450670D01*
X104373479Y-108810506D01*
X104407572Y-108844599D01*
X104199386Y-109156171D01*
X104042818Y-109534161D01*
X103963000Y-109935433D01*
X103963000Y-110344567D01*
X104042818Y-110745839D01*
X104199386Y-111123829D01*
X104426689Y-111464011D01*
X104715989Y-111753311D01*
X105056171Y-111980614D01*
X105434161Y-112137182D01*
X105835433Y-112217000D01*
X106244567Y-112217000D01*
X106645839Y-112137182D01*
X107023829Y-111980614D01*
X107364011Y-111753311D01*
X107653311Y-111464011D01*
X107707875Y-111382349D01*
X120377256Y-111382349D01*
X120491118Y-111662090D01*
X120806296Y-111817961D01*
X121145826Y-111909349D01*
X121496661Y-111932741D01*
X121845319Y-111887240D01*
X122178400Y-111774594D01*
X122388882Y-111662090D01*
X122502744Y-111382349D01*
X121440000Y-110319605D01*
X120377256Y-111382349D01*
X107707875Y-111382349D01*
X107880614Y-111123829D01*
X108037182Y-110745839D01*
X108117000Y-110344567D01*
X108117000Y-110196661D01*
X119647259Y-110196661D01*
X119692760Y-110545319D01*
X119805406Y-110878400D01*
X119917910Y-111088882D01*
X120197651Y-111202744D01*
X121260395Y-110140000D01*
X121619605Y-110140000D01*
X122682349Y-111202744D01*
X122962090Y-111088882D01*
X123117961Y-110773704D01*
X123209349Y-110434174D01*
X123232741Y-110083339D01*
X123187240Y-109734681D01*
X123074594Y-109401600D01*
X122962090Y-109191118D01*
X122682349Y-109077256D01*
X121619605Y-110140000D01*
X121260395Y-110140000D01*
X120197651Y-109077256D01*
X119917910Y-109191118D01*
X119762039Y-109506296D01*
X119670651Y-109845826D01*
X119647259Y-110196661D01*
X108117000Y-110196661D01*
X108117000Y-109935433D01*
X108037182Y-109534161D01*
X107880614Y-109156171D01*
X107704471Y-108892556D01*
X107786521Y-108810506D01*
X108026956Y-108450670D01*
X108192570Y-108050841D01*
X108277000Y-107626386D01*
X108277000Y-107197357D01*
X109001000Y-107197357D01*
X109001000Y-107622643D01*
X109083970Y-108039757D01*
X109246719Y-108432670D01*
X109482996Y-108786282D01*
X109783718Y-109087004D01*
X110137330Y-109323281D01*
X110530243Y-109486030D01*
X110947357Y-109569000D01*
X111372643Y-109569000D01*
X111789757Y-109486030D01*
X112182670Y-109323281D01*
X112536282Y-109087004D01*
X112837004Y-108786282D01*
X112869364Y-108737852D01*
X115091753Y-108737852D01*
X115220076Y-109029871D01*
X115555695Y-109197723D01*
X115917611Y-109296874D01*
X116291916Y-109323514D01*
X116664227Y-109276618D01*
X117020235Y-109157988D01*
X117259924Y-109029871D01*
X117318025Y-108897651D01*
X120377256Y-108897651D01*
X121440000Y-109960395D01*
X122502744Y-108897651D01*
X122388882Y-108617910D01*
X122073704Y-108462039D01*
X121734174Y-108370651D01*
X121383339Y-108347259D01*
X121034681Y-108392760D01*
X120701600Y-108505406D01*
X120491118Y-108617910D01*
X120377256Y-108897651D01*
X117318025Y-108897651D01*
X117388247Y-108737852D01*
X116240000Y-107589605D01*
X115091753Y-108737852D01*
X112869364Y-108737852D01*
X113073281Y-108432670D01*
X113236030Y-108039757D01*
X113319000Y-107622643D01*
X113319000Y-107461916D01*
X114326486Y-107461916D01*
X114373382Y-107834227D01*
X114492012Y-108190235D01*
X114620129Y-108429924D01*
X114912148Y-108558247D01*
X116060395Y-107410000D01*
X116419605Y-107410000D01*
X117567852Y-108558247D01*
X117859871Y-108429924D01*
X118027723Y-108094305D01*
X118126874Y-107732389D01*
X118153514Y-107358084D01*
X118106618Y-106985773D01*
X117987988Y-106629765D01*
X117859871Y-106390076D01*
X117567852Y-106261753D01*
X116419605Y-107410000D01*
X116060395Y-107410000D01*
X114912148Y-106261753D01*
X114620129Y-106390076D01*
X114452277Y-106725695D01*
X114353126Y-107087611D01*
X114326486Y-107461916D01*
X113319000Y-107461916D01*
X113319000Y-107197357D01*
X113236030Y-106780243D01*
X113073281Y-106387330D01*
X112869365Y-106082148D01*
X115091753Y-106082148D01*
X116240000Y-107230395D01*
X117388247Y-106082148D01*
X117259924Y-105790129D01*
X116924305Y-105622277D01*
X116562389Y-105523126D01*
X116188084Y-105496486D01*
X115815773Y-105543382D01*
X115459765Y-105662012D01*
X115220076Y-105790129D01*
X115091753Y-106082148D01*
X112869365Y-106082148D01*
X112837004Y-106033718D01*
X112536282Y-105732996D01*
X112182670Y-105496719D01*
X111789757Y-105333970D01*
X111372643Y-105251000D01*
X110947357Y-105251000D01*
X110530243Y-105333970D01*
X110137330Y-105496719D01*
X109783718Y-105732996D01*
X109482996Y-106033718D01*
X109246719Y-106387330D01*
X109083970Y-106780243D01*
X109001000Y-107197357D01*
X108277000Y-107197357D01*
X108277000Y-107193614D01*
X108192570Y-106769159D01*
X108026956Y-106369330D01*
X107786521Y-106009494D01*
X107480506Y-105703479D01*
X107120670Y-105463044D01*
X106720841Y-105297430D01*
X106296386Y-105213000D01*
X105863614Y-105213000D01*
X105439159Y-105297430D01*
X105039330Y-105463044D01*
X104679494Y-105703479D01*
X104373479Y-106009494D01*
X104133044Y-106369330D01*
X103967430Y-106769159D01*
X103883000Y-107193614D01*
X100914000Y-107193614D01*
X100914000Y-78486000D01*
X105053500Y-78486000D01*
X105065000Y-78602763D01*
X105065001Y-83401333D01*
X105053500Y-83518105D01*
X105099394Y-83984078D01*
X105235313Y-84432144D01*
X105456034Y-84845085D01*
X105678637Y-85116327D01*
X105678642Y-85116332D01*
X105753076Y-85207030D01*
X105843774Y-85281464D01*
X110750540Y-90188231D01*
X110824979Y-90278935D01*
X111186924Y-90575976D01*
X111599864Y-90796697D01*
X112047931Y-90932617D01*
X112397132Y-90967010D01*
X112397141Y-90967010D01*
X112513903Y-90978510D01*
X112630666Y-90967010D01*
X121224228Y-90967010D01*
X121340990Y-90978510D01*
X121457752Y-90967010D01*
X121457762Y-90967010D01*
X121806963Y-90932617D01*
X122255030Y-90796697D01*
X122667970Y-90575976D01*
X123029915Y-90278935D01*
X123104353Y-90188232D01*
X125115586Y-88177000D01*
X126785904Y-88177000D01*
X127145732Y-88326046D01*
X127653263Y-88427000D01*
X128170737Y-88427000D01*
X128678268Y-88326046D01*
X129156351Y-88128017D01*
X129586615Y-87840524D01*
X129952524Y-87474615D01*
X130240017Y-87044351D01*
X130438046Y-86566268D01*
X130539000Y-86058737D01*
X130539000Y-85541263D01*
X130438046Y-85033732D01*
X130240017Y-84555649D01*
X129952524Y-84125385D01*
X129586615Y-83759476D01*
X129156351Y-83471983D01*
X128678268Y-83273954D01*
X128170737Y-83173000D01*
X127653263Y-83173000D01*
X127145732Y-83273954D01*
X126785904Y-83423000D01*
X124247762Y-83423000D01*
X124131000Y-83411500D01*
X124014237Y-83423000D01*
X124014228Y-83423000D01*
X123665027Y-83457393D01*
X123216960Y-83593313D01*
X122804020Y-83814034D01*
X122804018Y-83814035D01*
X122804019Y-83814035D01*
X122532777Y-84036637D01*
X122532773Y-84036641D01*
X122442075Y-84111075D01*
X122367641Y-84201773D01*
X120356405Y-86213010D01*
X120328577Y-86213010D01*
X121648222Y-84893365D01*
X121738926Y-84818926D01*
X122035967Y-84456981D01*
X122173354Y-84199948D01*
X122256688Y-84044041D01*
X122332968Y-83792580D01*
X122392608Y-83595973D01*
X122427001Y-83246772D01*
X122427001Y-83246764D01*
X122438501Y-83130002D01*
X122427001Y-83013239D01*
X122427001Y-82994584D01*
X122762759Y-82658826D01*
X122847998Y-82601871D01*
X123181871Y-82267998D01*
X123238826Y-82182759D01*
X127374285Y-78047300D01*
X128709833Y-78047300D01*
X128498467Y-78188530D01*
X128200530Y-78486467D01*
X127966443Y-78836803D01*
X127805200Y-79226077D01*
X127723000Y-79639327D01*
X127723000Y-80060673D01*
X127805200Y-80473923D01*
X127966443Y-80863197D01*
X128200530Y-81213533D01*
X128498467Y-81511470D01*
X128623001Y-81594681D01*
X128623001Y-81795132D01*
X128617006Y-81856000D01*
X128640928Y-82098886D01*
X128711776Y-82332437D01*
X128711777Y-82332439D01*
X128826826Y-82547682D01*
X128981657Y-82736344D01*
X129028930Y-82775140D01*
X132619000Y-86365210D01*
X132619001Y-92955131D01*
X132613006Y-93016000D01*
X132636928Y-93258886D01*
X132693388Y-93445006D01*
X132707777Y-93492439D01*
X132822826Y-93707682D01*
X132977657Y-93896344D01*
X133024930Y-93935140D01*
X135587471Y-96497681D01*
X135565377Y-96722000D01*
X135603780Y-97111912D01*
X135717513Y-97486840D01*
X135902206Y-97832375D01*
X136150760Y-98135240D01*
X136453625Y-98383794D01*
X136799160Y-98568487D01*
X137174088Y-98682220D01*
X137466296Y-98711000D01*
X137661704Y-98711000D01*
X137953912Y-98682220D01*
X138328840Y-98568487D01*
X138674375Y-98383794D01*
X138977240Y-98135240D01*
X139225794Y-97832375D01*
X139410487Y-97486840D01*
X139524220Y-97111912D01*
X139562623Y-96722000D01*
X139524220Y-96332088D01*
X139410487Y-95957160D01*
X139225794Y-95611625D01*
X138977240Y-95308760D01*
X138674375Y-95060206D01*
X138328840Y-94875513D01*
X137953912Y-94761780D01*
X137661704Y-94733000D01*
X137466296Y-94733000D01*
X137339681Y-94745471D01*
X135097000Y-92502790D01*
X135097000Y-85912858D01*
X135102994Y-85851999D01*
X135079072Y-85609113D01*
X135008224Y-85375561D01*
X134971758Y-85307337D01*
X134893175Y-85160318D01*
X134738344Y-84971656D01*
X134691067Y-84932857D01*
X131247607Y-81489397D01*
X131523470Y-81213533D01*
X131757557Y-80863197D01*
X131918800Y-80473923D01*
X132001000Y-80060673D01*
X132001000Y-79639327D01*
X131918800Y-79226077D01*
X131757557Y-78836803D01*
X131523470Y-78486467D01*
X131225533Y-78188530D01*
X130875197Y-77954443D01*
X130505570Y-77801338D01*
X130776980Y-77656266D01*
X131138925Y-77359225D01*
X131435966Y-76997280D01*
X131656687Y-76584340D01*
X131792607Y-76136273D01*
X131838501Y-75670300D01*
X131827000Y-75553528D01*
X131827000Y-74527000D01*
X134113369Y-74527000D01*
X134213916Y-74547000D01*
X134686084Y-74547000D01*
X135149179Y-74454885D01*
X135585405Y-74274194D01*
X135977998Y-74011871D01*
X136311871Y-73677998D01*
X136418001Y-73519164D01*
X136418000Y-88239935D01*
X136407652Y-88345000D01*
X136418000Y-88450065D01*
X136418000Y-88450074D01*
X136448950Y-88764316D01*
X136571260Y-89167519D01*
X136769882Y-89539114D01*
X137037181Y-89864819D01*
X137118800Y-89931802D01*
X139786704Y-92599706D01*
X139944896Y-92981616D01*
X140206343Y-93372899D01*
X140539101Y-93705657D01*
X140930384Y-93967104D01*
X141365155Y-94147192D01*
X141826704Y-94239000D01*
X142297296Y-94239000D01*
X142758845Y-94147192D01*
X143193616Y-93967104D01*
X143584899Y-93705657D01*
X143917657Y-93372899D01*
X144179104Y-92981616D01*
X144359192Y-92546845D01*
X144451000Y-92085296D01*
X144451000Y-91614704D01*
X144411975Y-91418512D01*
X150855783Y-91418512D01*
X150897213Y-91698130D01*
X150992397Y-91964292D01*
X151059329Y-92089514D01*
X151303298Y-92161097D01*
X152116395Y-91348000D01*
X151303298Y-90534903D01*
X151059329Y-90606486D01*
X150938429Y-90861996D01*
X150869700Y-91136184D01*
X150855783Y-91418512D01*
X144411975Y-91418512D01*
X144359192Y-91153155D01*
X144179104Y-90718384D01*
X143917657Y-90327101D01*
X143584899Y-89994343D01*
X143193616Y-89732896D01*
X142811706Y-89574704D01*
X140696000Y-87458998D01*
X140696000Y-83370512D01*
X150855783Y-83370512D01*
X150897213Y-83650130D01*
X150992397Y-83916292D01*
X151059329Y-84041514D01*
X151303298Y-84113097D01*
X152116395Y-83300000D01*
X151303298Y-82486903D01*
X151059329Y-82558486D01*
X150938429Y-82813996D01*
X150869700Y-83088184D01*
X150855783Y-83370512D01*
X140696000Y-83370512D01*
X140696000Y-81727085D01*
X140980384Y-81917104D01*
X141415155Y-82097192D01*
X141876704Y-82189000D01*
X142347296Y-82189000D01*
X142808845Y-82097192D01*
X143243616Y-81917104D01*
X143634899Y-81655657D01*
X143967657Y-81322899D01*
X144229104Y-80931616D01*
X144409192Y-80496845D01*
X144501000Y-80035296D01*
X144501000Y-79564704D01*
X144409192Y-79103155D01*
X144229104Y-78668384D01*
X144205263Y-78632702D01*
X150186903Y-78632702D01*
X150258486Y-78876671D01*
X150513996Y-78997571D01*
X150788184Y-79066300D01*
X151070512Y-79080217D01*
X151350130Y-79038787D01*
X151616292Y-78943603D01*
X151741514Y-78876671D01*
X151813097Y-78632702D01*
X151000000Y-77819605D01*
X150186903Y-78632702D01*
X144205263Y-78632702D01*
X143967657Y-78277101D01*
X143634899Y-77944343D01*
X143243616Y-77682896D01*
X142808845Y-77502808D01*
X142347296Y-77411000D01*
X141876704Y-77411000D01*
X141415155Y-77502808D01*
X140980384Y-77682896D01*
X140696000Y-77872915D01*
X140696000Y-74313301D01*
X140720000Y-74313301D01*
X140894274Y-74296136D01*
X141061851Y-74245303D01*
X141216291Y-74162753D01*
X141351659Y-74051659D01*
X141462753Y-73916291D01*
X141545303Y-73761851D01*
X141596136Y-73594274D01*
X141613301Y-73420000D01*
X141613301Y-70880000D01*
X141596136Y-70705726D01*
X141545303Y-70538149D01*
X141462753Y-70383709D01*
X141351659Y-70248341D01*
X141216291Y-70137247D01*
X141061851Y-70054697D01*
X140894274Y-70003864D01*
X140720000Y-69986699D01*
X138180000Y-69986699D01*
X138005726Y-70003864D01*
X137838149Y-70054697D01*
X137683709Y-70137247D01*
X137548341Y-70248341D01*
X137437247Y-70383709D01*
X137354697Y-70538149D01*
X137303864Y-70705726D01*
X137286699Y-70880000D01*
X137286699Y-71288299D01*
X137118796Y-71456202D01*
X137037182Y-71523181D01*
X136970204Y-71604794D01*
X136970200Y-71604798D01*
X136821543Y-71785936D01*
X136754885Y-71450821D01*
X136574194Y-71014595D01*
X136311871Y-70622002D01*
X135977998Y-70288129D01*
X135585405Y-70025806D01*
X135149179Y-69845115D01*
X134686084Y-69753000D01*
X134213916Y-69753000D01*
X134113369Y-69773000D01*
X130953105Y-69773000D01*
X130940931Y-69769307D01*
X130720000Y-69747547D01*
X128180000Y-69747547D01*
X127959069Y-69769307D01*
X127746629Y-69833750D01*
X127550843Y-69938400D01*
X127379235Y-70079235D01*
X127238400Y-70250843D01*
X127133750Y-70446629D01*
X127069307Y-70659069D01*
X127047547Y-70880000D01*
X127047547Y-73293300D01*
X126568919Y-73293300D01*
X126574194Y-73285405D01*
X126754885Y-72849179D01*
X126847000Y-72386084D01*
X126847000Y-71913916D01*
X126754885Y-71450821D01*
X126574194Y-71014595D01*
X126311871Y-70622002D01*
X125977998Y-70288129D01*
X125775804Y-70153027D01*
X125720980Y-70108034D01*
X125658433Y-70074602D01*
X125585405Y-70025806D01*
X125504259Y-69992194D01*
X125308040Y-69887313D01*
X124859973Y-69751393D01*
X124510772Y-69717000D01*
X118524228Y-69717000D01*
X118175027Y-69751393D01*
X117726960Y-69887313D01*
X117314020Y-70108034D01*
X116952075Y-70405075D01*
X116655034Y-70767020D01*
X116434313Y-71179960D01*
X116298393Y-71628027D01*
X116252499Y-72094000D01*
X116298393Y-72559973D01*
X116434313Y-73008040D01*
X116655034Y-73420980D01*
X116952075Y-73782925D01*
X117314020Y-74079966D01*
X117726960Y-74300687D01*
X118175027Y-74436607D01*
X118524228Y-74471000D01*
X123831837Y-74471000D01*
X124161785Y-74536630D01*
X119877241Y-78821174D01*
X119792002Y-78878129D01*
X119458129Y-79212002D01*
X119401174Y-79297241D01*
X118617000Y-80081415D01*
X118617000Y-76732762D01*
X118628500Y-76615999D01*
X118617000Y-76499237D01*
X118617000Y-76499228D01*
X118582607Y-76150027D01*
X118446687Y-75701960D01*
X118225966Y-75289020D01*
X117928925Y-74927075D01*
X117838219Y-74852635D01*
X117788966Y-74803381D01*
X117714525Y-74712675D01*
X117352580Y-74415634D01*
X116939640Y-74194913D01*
X116491573Y-74058993D01*
X116142372Y-74024600D01*
X116142362Y-74024600D01*
X116025600Y-74013100D01*
X115938000Y-74021728D01*
X115938000Y-71967228D01*
X115903607Y-71618027D01*
X115767687Y-71169960D01*
X115546966Y-70757020D01*
X115249925Y-70395075D01*
X114887979Y-70098034D01*
X114475039Y-69877313D01*
X114026972Y-69741393D01*
X113561000Y-69695499D01*
X113095027Y-69741393D01*
X112646960Y-69877313D01*
X112234020Y-70098034D01*
X111872075Y-70395075D01*
X111575034Y-70757021D01*
X111354313Y-71169961D01*
X111218393Y-71618028D01*
X111184000Y-71967229D01*
X111184000Y-74024600D01*
X109643162Y-74024600D01*
X109526400Y-74013100D01*
X109409637Y-74024600D01*
X109409628Y-74024600D01*
X109060427Y-74058993D01*
X108657101Y-74181341D01*
X108612360Y-74194913D01*
X108199419Y-74415634D01*
X107928177Y-74638237D01*
X107928173Y-74638241D01*
X107837475Y-74712675D01*
X107763041Y-74803374D01*
X105843778Y-76722637D01*
X105753075Y-76797075D01*
X105456034Y-77159021D01*
X105235313Y-77571961D01*
X105099393Y-78020028D01*
X105065000Y-78369229D01*
X105065000Y-78369238D01*
X105053500Y-78486000D01*
X100914000Y-78486000D01*
X100914000Y-71914155D01*
X101265450Y-71914155D01*
X101661634Y-72434550D01*
X102376612Y-72824748D01*
X103153976Y-73067964D01*
X103963853Y-73154851D01*
X104775118Y-73082069D01*
X105556597Y-72852415D01*
X106278256Y-72474715D01*
X106338366Y-72434550D01*
X106734550Y-71914155D01*
X104000000Y-69179605D01*
X101265450Y-71914155D01*
X100914000Y-71914155D01*
X100914000Y-71603722D01*
X101085845Y-71734550D01*
X103820395Y-69000000D01*
X104179605Y-69000000D01*
X106914155Y-71734550D01*
X107434550Y-71338366D01*
X107824748Y-70623388D01*
X108067964Y-69846024D01*
X108154851Y-69036147D01*
X108101727Y-68444000D01*
X145678515Y-68444000D01*
X145678515Y-70644000D01*
X145696413Y-70825724D01*
X145749420Y-71000464D01*
X145835499Y-71161505D01*
X145951341Y-71302659D01*
X146033001Y-71369675D01*
X146033001Y-71874193D01*
X146026096Y-71944300D01*
X146053648Y-72224041D01*
X146135245Y-72493031D01*
X146267752Y-72740934D01*
X146446077Y-72958223D01*
X146663366Y-73136548D01*
X146911269Y-73269055D01*
X147180259Y-73350652D01*
X147389902Y-73371300D01*
X147389903Y-73371300D01*
X147460000Y-73378204D01*
X147530098Y-73371300D01*
X148813518Y-73371300D01*
X149573001Y-74130783D01*
X149573001Y-74155359D01*
X149541341Y-74181341D01*
X149425499Y-74322495D01*
X149339420Y-74483536D01*
X149286413Y-74658276D01*
X149268515Y-74840000D01*
X149268515Y-76440000D01*
X149286413Y-76621724D01*
X149339420Y-76796464D01*
X149425499Y-76957505D01*
X149541341Y-77098659D01*
X149636686Y-77176907D01*
X149573700Y-77428184D01*
X149559783Y-77710512D01*
X149601213Y-77990130D01*
X149696397Y-78256292D01*
X149763329Y-78381514D01*
X150007298Y-78453097D01*
X150820395Y-77640000D01*
X150806253Y-77625858D01*
X150985858Y-77446253D01*
X151000000Y-77460395D01*
X151014143Y-77446253D01*
X151193748Y-77625858D01*
X151179605Y-77640000D01*
X151992702Y-78453097D01*
X152236671Y-78381514D01*
X152357571Y-78126004D01*
X152426300Y-77851816D01*
X152440217Y-77569488D01*
X152398787Y-77289870D01*
X152359507Y-77180031D01*
X152458659Y-77098659D01*
X152574501Y-76957505D01*
X152660580Y-76796464D01*
X152713587Y-76621724D01*
X152731485Y-76440000D01*
X152731485Y-74840000D01*
X152713587Y-74658276D01*
X152660580Y-74483536D01*
X152574501Y-74322495D01*
X152458659Y-74181341D01*
X152427000Y-74155359D01*
X152427000Y-73609787D01*
X152433903Y-73539699D01*
X152427000Y-73469611D01*
X152427000Y-73469602D01*
X152406352Y-73259959D01*
X152324755Y-72990969D01*
X152192248Y-72743066D01*
X152013923Y-72525777D01*
X151959472Y-72481090D01*
X150810820Y-71332438D01*
X150970811Y-71246922D01*
X151235608Y-71029608D01*
X151432829Y-70789294D01*
X151564546Y-70927337D01*
X151804392Y-71095862D01*
X152072507Y-71214357D01*
X152183110Y-71235476D01*
X152413000Y-71114155D01*
X152413000Y-69671000D01*
X152393000Y-69671000D01*
X152393000Y-69417000D01*
X152413000Y-69417000D01*
X152413000Y-67973845D01*
X152667000Y-67973845D01*
X152667000Y-69417000D01*
X153871496Y-69417000D01*
X154031140Y-69182360D01*
X153980708Y-68893598D01*
X153874911Y-68620223D01*
X153717814Y-68372741D01*
X153515454Y-68160663D01*
X153275608Y-67992138D01*
X153007493Y-67873643D01*
X152896890Y-67852524D01*
X152667000Y-67973845D01*
X152413000Y-67973845D01*
X152183110Y-67852524D01*
X152072507Y-67873643D01*
X151804392Y-67992138D01*
X151564546Y-68160663D01*
X151432829Y-68298706D01*
X151235608Y-68058392D01*
X150970810Y-67841078D01*
X150668705Y-67679600D01*
X150340903Y-67580162D01*
X150000000Y-67546586D01*
X149659096Y-67580162D01*
X149331294Y-67679600D01*
X149029189Y-67841078D01*
X149020353Y-67848330D01*
X148968659Y-67785341D01*
X148827505Y-67669499D01*
X148666464Y-67583420D01*
X148491724Y-67530413D01*
X148310000Y-67512515D01*
X146610000Y-67512515D01*
X146428276Y-67530413D01*
X146253536Y-67583420D01*
X146092495Y-67669499D01*
X145951341Y-67785341D01*
X145835499Y-67926495D01*
X145749420Y-68087536D01*
X145696413Y-68262276D01*
X145678515Y-68444000D01*
X108101727Y-68444000D01*
X108082069Y-68224882D01*
X107852415Y-67443403D01*
X107474715Y-66721744D01*
X107434550Y-66661634D01*
X106914155Y-66265450D01*
X104179605Y-69000000D01*
X103820395Y-69000000D01*
X101085845Y-66265450D01*
X100914000Y-66396278D01*
X100914000Y-65914000D01*
X101396278Y-65914000D01*
X101265450Y-66085845D01*
X101265450Y-66085845D01*
G37*
X101265450Y-66085845D02*
X104000000Y-68820395D01*
X106734550Y-66085845D01*
X106603722Y-65914000D01*
X183396278Y-65914000D01*
X183265450Y-66085845D01*
X186000000Y-68820395D01*
X188734550Y-66085845D01*
X188603722Y-65914000D01*
X189086000Y-65914000D01*
X189086000Y-66396278D01*
X188914155Y-66265450D01*
X186179605Y-69000000D01*
X188914155Y-71734550D01*
X189086000Y-71603722D01*
X189086001Y-105739000D01*
X185419389Y-105739000D01*
X185554663Y-105712092D01*
X185862041Y-105584772D01*
X186138675Y-105399932D01*
X186373932Y-105164675D01*
X186558772Y-104888041D01*
X186686092Y-104580663D01*
X186751000Y-104254352D01*
X186751000Y-103921648D01*
X186686092Y-103595337D01*
X186558772Y-103287959D01*
X186373932Y-103011325D01*
X186138675Y-102776068D01*
X185862041Y-102591228D01*
X185554663Y-102463908D01*
X185228352Y-102399000D01*
X184895648Y-102399000D01*
X184569337Y-102463908D01*
X184261959Y-102591228D01*
X183985325Y-102776068D01*
X183750068Y-103011325D01*
X183565228Y-103287959D01*
X183437908Y-103595337D01*
X183373000Y-103921648D01*
X183373000Y-104254352D01*
X183437908Y-104580663D01*
X183565228Y-104888041D01*
X183750068Y-105164675D01*
X183985325Y-105399932D01*
X184261959Y-105584772D01*
X184569337Y-105712092D01*
X184704611Y-105739000D01*
X184554000Y-105739000D01*
X184529224Y-105741440D01*
X184505399Y-105748667D01*
X184483443Y-105760403D01*
X184464197Y-105776197D01*
X179676159Y-110564235D01*
X171409877Y-110444434D01*
X171418311Y-110436000D01*
X176309141Y-110436000D01*
X176370000Y-110441994D01*
X176449399Y-110434174D01*
X176612886Y-110418072D01*
X176846439Y-110347224D01*
X177061682Y-110232175D01*
X177250344Y-110077344D01*
X177289144Y-110030066D01*
X183014672Y-104304539D01*
X183061944Y-104265744D01*
X183216775Y-104077082D01*
X183331824Y-103861839D01*
X183402672Y-103628286D01*
X183420600Y-103446259D01*
X183420600Y-103446258D01*
X183426594Y-103385400D01*
X183420600Y-103324541D01*
X183420600Y-100080702D01*
X184248903Y-100080702D01*
X184320486Y-100324671D01*
X184575996Y-100445571D01*
X184850184Y-100514300D01*
X185132512Y-100528217D01*
X185412130Y-100486787D01*
X185678292Y-100391603D01*
X185803514Y-100324671D01*
X185875097Y-100080702D01*
X185062000Y-99267605D01*
X184248903Y-100080702D01*
X183420600Y-100080702D01*
X183420600Y-99158512D01*
X183621783Y-99158512D01*
X183663213Y-99438130D01*
X183758397Y-99704292D01*
X183825329Y-99829514D01*
X184069298Y-99901097D01*
X184882395Y-99088000D01*
X185241605Y-99088000D01*
X186054702Y-99901097D01*
X186298671Y-99829514D01*
X186419571Y-99574004D01*
X186488300Y-99299816D01*
X186502217Y-99017488D01*
X186460787Y-98737870D01*
X186365603Y-98471708D01*
X186298671Y-98346486D01*
X186054702Y-98274903D01*
X185241605Y-99088000D01*
X184882395Y-99088000D01*
X184069298Y-98274903D01*
X183825329Y-98346486D01*
X183704429Y-98601996D01*
X183635700Y-98876184D01*
X183621783Y-99158512D01*
X183420600Y-99158512D01*
X183420600Y-98329759D01*
X183426594Y-98268900D01*
X183409496Y-98095298D01*
X184248903Y-98095298D01*
X185062000Y-98908395D01*
X185875097Y-98095298D01*
X185803514Y-97851329D01*
X185548004Y-97730429D01*
X185273816Y-97661700D01*
X184991488Y-97647783D01*
X184711870Y-97689213D01*
X184445708Y-97784397D01*
X184320486Y-97851329D01*
X184248903Y-98095298D01*
X183409496Y-98095298D01*
X183402672Y-98026013D01*
X183351802Y-97858318D01*
X183331824Y-97792461D01*
X183216775Y-97577218D01*
X183061944Y-97388556D01*
X183014666Y-97349756D01*
X182610600Y-96945690D01*
X182610600Y-93854458D01*
X182616594Y-93793599D01*
X182592672Y-93550713D01*
X182521824Y-93317161D01*
X182501348Y-93278853D01*
X182406775Y-93101918D01*
X182251944Y-92913256D01*
X182204666Y-92874456D01*
X181419159Y-92088949D01*
X181392561Y-91818898D01*
X181362092Y-91718455D01*
X182503048Y-91718455D01*
X182542730Y-91968449D01*
X182630422Y-92205896D01*
X182677799Y-92294534D01*
X182906473Y-92347922D01*
X183612395Y-91642000D01*
X182906473Y-90936078D01*
X182677799Y-90989466D01*
X182571905Y-91219374D01*
X182512898Y-91465524D01*
X182503048Y-91718455D01*
X181362092Y-91718455D01*
X181295982Y-91500520D01*
X181139147Y-91207102D01*
X180928082Y-90949918D01*
X180872836Y-90904579D01*
X180955082Y-90837082D01*
X181021236Y-90756473D01*
X183086078Y-90756473D01*
X183792000Y-91462395D01*
X183806143Y-91448253D01*
X183894524Y-91536634D01*
X183780341Y-91630341D01*
X183669247Y-91765709D01*
X183586697Y-91920149D01*
X183540212Y-92073393D01*
X183086078Y-92527527D01*
X183139466Y-92756201D01*
X183369374Y-92862095D01*
X183518699Y-92897891D01*
X183518699Y-93562000D01*
X183535864Y-93736274D01*
X183586697Y-93903851D01*
X183669247Y-94058291D01*
X183780341Y-94193659D01*
X183915709Y-94304753D01*
X184070149Y-94387303D01*
X184237726Y-94438136D01*
X184412000Y-94455301D01*
X185712000Y-94455301D01*
X185886274Y-94438136D01*
X186053851Y-94387303D01*
X186208291Y-94304753D01*
X186343659Y-94193659D01*
X186454753Y-94058291D01*
X186537303Y-93903851D01*
X186588136Y-93736274D01*
X186605301Y-93562000D01*
X186605301Y-92262000D01*
X186588136Y-92087726D01*
X186537303Y-91920149D01*
X186454753Y-91765709D01*
X186343659Y-91630341D01*
X186208291Y-91519247D01*
X186167025Y-91497190D01*
X186286936Y-91377279D01*
X186459519Y-91118989D01*
X186578396Y-90831994D01*
X186639000Y-90527321D01*
X186639000Y-90216679D01*
X186578396Y-89912006D01*
X186459519Y-89625011D01*
X186286936Y-89366721D01*
X186067279Y-89147064D01*
X185808989Y-88974481D01*
X185521994Y-88855604D01*
X185217321Y-88795000D01*
X184906679Y-88795000D01*
X184602006Y-88855604D01*
X184315011Y-88974481D01*
X184056721Y-89147064D01*
X183837064Y-89366721D01*
X183664481Y-89625011D01*
X183545604Y-89912006D01*
X183485000Y-90216679D01*
X183485000Y-90389643D01*
X183465551Y-90392730D01*
X183228104Y-90480422D01*
X183139466Y-90527799D01*
X183086078Y-90756473D01*
X181021236Y-90756473D01*
X181170896Y-90574112D01*
X181331260Y-90274092D01*
X181430012Y-89948551D01*
X181463356Y-89610000D01*
X181430012Y-89271449D01*
X181331260Y-88945908D01*
X181170896Y-88645888D01*
X180955082Y-88382918D01*
X180872836Y-88315421D01*
X180928082Y-88270082D01*
X181139147Y-88012898D01*
X181295982Y-87719480D01*
X181392561Y-87401102D01*
X181425172Y-87070000D01*
X181392561Y-86738898D01*
X181295982Y-86420520D01*
X181139147Y-86127102D01*
X180928082Y-85869918D01*
X180670898Y-85658853D01*
X180632005Y-85638065D01*
X180791519Y-85493414D01*
X180817769Y-85458000D01*
X183068699Y-85458000D01*
X183068699Y-87158000D01*
X183085864Y-87332274D01*
X183136697Y-87499851D01*
X183219247Y-87654291D01*
X183330341Y-87789659D01*
X183465709Y-87900753D01*
X183620149Y-87983303D01*
X183787726Y-88034136D01*
X183962000Y-88051301D01*
X186162000Y-88051301D01*
X186336274Y-88034136D01*
X186503851Y-87983303D01*
X186658291Y-87900753D01*
X186793659Y-87789659D01*
X186904753Y-87654291D01*
X186987303Y-87499851D01*
X187038136Y-87332274D01*
X187055301Y-87158000D01*
X187055301Y-85458000D01*
X187038136Y-85283726D01*
X186987303Y-85116149D01*
X186904753Y-84961709D01*
X186793659Y-84826341D01*
X186658291Y-84715247D01*
X186517887Y-84640200D01*
X186613862Y-84503608D01*
X186732357Y-84235493D01*
X186753476Y-84124890D01*
X186632155Y-83895000D01*
X185189000Y-83895000D01*
X185189000Y-83915000D01*
X184935000Y-83915000D01*
X184935000Y-83895000D01*
X183491845Y-83895000D01*
X183370524Y-84124890D01*
X183391643Y-84235493D01*
X183510138Y-84503608D01*
X183606113Y-84640200D01*
X183465709Y-84715247D01*
X183330341Y-84826341D01*
X183219247Y-84961709D01*
X183136697Y-85116149D01*
X183085864Y-85283726D01*
X183068699Y-85458000D01*
X180817769Y-85458000D01*
X180959037Y-85267420D01*
X181079246Y-85013087D01*
X181119904Y-84879039D01*
X180997915Y-84657000D01*
X179855000Y-84657000D01*
X179855000Y-84677000D01*
X179601000Y-84677000D01*
X179601000Y-84657000D01*
X178458085Y-84657000D01*
X178336096Y-84879039D01*
X178376754Y-85013087D01*
X178496963Y-85267420D01*
X178664481Y-85493414D01*
X178823995Y-85638065D01*
X178785102Y-85658853D01*
X178527918Y-85869918D01*
X178316853Y-86127102D01*
X178160018Y-86420520D01*
X178063439Y-86738898D01*
X178030828Y-87070000D01*
X178063439Y-87401102D01*
X178160018Y-87719480D01*
X178316853Y-88012898D01*
X178527918Y-88270082D01*
X178583164Y-88315421D01*
X178500918Y-88382918D01*
X178285104Y-88645888D01*
X178124740Y-88945908D01*
X178025988Y-89271449D01*
X177992644Y-89610000D01*
X178025988Y-89948551D01*
X178124740Y-90274092D01*
X178285104Y-90574112D01*
X178500918Y-90837082D01*
X178583164Y-90904579D01*
X178527918Y-90949918D01*
X178316853Y-91207102D01*
X178160018Y-91500520D01*
X178063439Y-91818898D01*
X178030828Y-92150000D01*
X178063439Y-92481102D01*
X178160018Y-92799480D01*
X178316853Y-93092898D01*
X178527918Y-93350082D01*
X178613114Y-93420000D01*
X178527918Y-93489918D01*
X178316853Y-93747102D01*
X178160018Y-94040520D01*
X178063439Y-94358898D01*
X178036841Y-94628948D01*
X175313400Y-97352390D01*
X175313400Y-78937259D01*
X175319394Y-78876400D01*
X175304680Y-78727000D01*
X175295472Y-78633514D01*
X175224624Y-78399961D01*
X175109575Y-78184718D01*
X174954744Y-77996056D01*
X174907472Y-77957261D01*
X173799159Y-76848948D01*
X173772561Y-76578898D01*
X173675982Y-76260520D01*
X173519147Y-75967102D01*
X173308082Y-75709918D01*
X173222886Y-75640000D01*
X173308082Y-75570082D01*
X173519147Y-75312898D01*
X173675982Y-75019480D01*
X173772561Y-74701102D01*
X173805172Y-74370000D01*
X173772561Y-74038898D01*
X173675982Y-73720520D01*
X173519147Y-73427102D01*
X173308082Y-73169918D01*
X173222886Y-73100000D01*
X173308082Y-73030082D01*
X173519147Y-72772898D01*
X173675982Y-72479480D01*
X173772561Y-72161102D01*
X173799159Y-71891051D01*
X174391467Y-71298743D01*
X174438744Y-71259944D01*
X174593575Y-71071282D01*
X174708624Y-70856039D01*
X174745771Y-70733582D01*
X174779472Y-70622487D01*
X174803394Y-70379601D01*
X174797400Y-70318742D01*
X174797400Y-69290000D01*
X178030828Y-69290000D01*
X178063439Y-69621102D01*
X178160018Y-69939480D01*
X178316853Y-70232898D01*
X178527918Y-70490082D01*
X178613114Y-70560000D01*
X178527918Y-70629918D01*
X178316853Y-70887102D01*
X178160018Y-71180520D01*
X178063439Y-71498898D01*
X178030828Y-71830000D01*
X178063439Y-72161102D01*
X178160018Y-72479480D01*
X178316853Y-72772898D01*
X178527918Y-73030082D01*
X178613114Y-73100000D01*
X178527918Y-73169918D01*
X178316853Y-73427102D01*
X178160018Y-73720520D01*
X178063439Y-74038898D01*
X178030828Y-74370000D01*
X178063439Y-74701102D01*
X178160018Y-75019480D01*
X178316853Y-75312898D01*
X178527918Y-75570082D01*
X178613114Y-75640000D01*
X178527918Y-75709918D01*
X178316853Y-75967102D01*
X178160018Y-76260520D01*
X178063439Y-76578898D01*
X178030828Y-76910000D01*
X178063439Y-77241102D01*
X178160018Y-77559480D01*
X178316853Y-77852898D01*
X178527918Y-78110082D01*
X178613114Y-78180000D01*
X178527918Y-78249918D01*
X178316853Y-78507102D01*
X178160018Y-78800520D01*
X178063439Y-79118898D01*
X178030828Y-79450000D01*
X178063439Y-79781102D01*
X178160018Y-80099480D01*
X178316853Y-80392898D01*
X178527918Y-80650082D01*
X178613114Y-80720000D01*
X178527918Y-80789918D01*
X178316853Y-81047102D01*
X178160018Y-81340520D01*
X178063439Y-81658898D01*
X178030828Y-81990000D01*
X178063439Y-82321102D01*
X178160018Y-82639480D01*
X178316853Y-82932898D01*
X178527918Y-83190082D01*
X178785102Y-83401147D01*
X178823995Y-83421935D01*
X178664481Y-83566586D01*
X178496963Y-83792580D01*
X178376754Y-84046913D01*
X178336096Y-84180961D01*
X178458085Y-84403000D01*
X179601000Y-84403000D01*
X179601000Y-84383000D01*
X179855000Y-84383000D01*
X179855000Y-84403000D01*
X180997915Y-84403000D01*
X181119904Y-84180961D01*
X181079246Y-84046913D01*
X180959037Y-83792580D01*
X180791519Y-83566586D01*
X180632005Y-83421935D01*
X180670898Y-83401147D01*
X180928082Y-83190082D01*
X181139147Y-82932898D01*
X181295982Y-82639480D01*
X181392561Y-82321102D01*
X181425172Y-81990000D01*
X181392561Y-81658898D01*
X181295982Y-81340520D01*
X181139147Y-81047102D01*
X180928082Y-80789918D01*
X180842886Y-80720000D01*
X180928082Y-80650082D01*
X181139147Y-80392898D01*
X181295982Y-80099480D01*
X181392561Y-79781102D01*
X181425172Y-79450000D01*
X181413524Y-79331734D01*
X183086571Y-81004781D01*
X183064586Y-81228000D01*
X183098162Y-81568904D01*
X183197600Y-81896706D01*
X183359078Y-82198811D01*
X183576392Y-82463608D01*
X183816706Y-82660829D01*
X183678663Y-82792546D01*
X183510138Y-83032392D01*
X183391643Y-83300507D01*
X183370524Y-83411110D01*
X183491845Y-83641000D01*
X184935000Y-83641000D01*
X184935000Y-83621000D01*
X185189000Y-83621000D01*
X185189000Y-83641000D01*
X186632155Y-83641000D01*
X186753476Y-83411110D01*
X186732357Y-83300507D01*
X186613862Y-83032392D01*
X186445337Y-82792546D01*
X186307294Y-82660829D01*
X186547608Y-82463608D01*
X186764922Y-82198811D01*
X186926400Y-81896706D01*
X187025838Y-81568904D01*
X187059414Y-81228000D01*
X187025838Y-80887096D01*
X186926400Y-80559294D01*
X186764922Y-80257189D01*
X186547608Y-79992392D01*
X186505701Y-79958000D01*
X186547608Y-79923608D01*
X186764922Y-79658811D01*
X186926400Y-79356706D01*
X187025838Y-79028904D01*
X187059414Y-78688000D01*
X187025838Y-78347096D01*
X186926400Y-78019294D01*
X186764922Y-77717189D01*
X186547608Y-77452392D01*
X186505701Y-77418000D01*
X186547608Y-77383608D01*
X186764922Y-77118811D01*
X186926400Y-76816706D01*
X187025838Y-76488904D01*
X187059414Y-76148000D01*
X187025838Y-75807096D01*
X186926400Y-75479294D01*
X186764922Y-75177189D01*
X186547608Y-74912392D01*
X186282811Y-74695078D01*
X185980706Y-74533600D01*
X185652904Y-74434162D01*
X185397429Y-74409000D01*
X184726571Y-74409000D01*
X184471096Y-74434162D01*
X184143294Y-74533600D01*
X183841189Y-74695078D01*
X183576392Y-74912392D01*
X183439000Y-75079804D01*
X183439000Y-72142116D01*
X183661634Y-72434550D01*
X184376612Y-72824748D01*
X185153976Y-73067964D01*
X185963853Y-73154851D01*
X186775118Y-73082069D01*
X187556597Y-72852415D01*
X188278256Y-72474715D01*
X188338366Y-72434550D01*
X188734550Y-71914155D01*
X186000000Y-69179605D01*
X185985858Y-69193748D01*
X185806253Y-69014143D01*
X185820395Y-69000000D01*
X183085845Y-66265450D01*
X182565450Y-66661634D01*
X182175252Y-67376612D01*
X181932036Y-68153976D01*
X181845149Y-68963853D01*
X181913260Y-69723049D01*
X181419159Y-69228949D01*
X181392561Y-68958898D01*
X181295982Y-68640520D01*
X181139147Y-68347102D01*
X180928082Y-68089918D01*
X180670898Y-67878853D01*
X180377480Y-67722018D01*
X180059102Y-67625439D01*
X179810971Y-67601000D01*
X179645029Y-67601000D01*
X179396898Y-67625439D01*
X179078520Y-67722018D01*
X178785102Y-67878853D01*
X178527918Y-68089918D01*
X178316853Y-68347102D01*
X178160018Y-68640520D01*
X178063439Y-68958898D01*
X178030828Y-69290000D01*
X174797400Y-69290000D01*
X174797400Y-68281558D01*
X174803394Y-68220699D01*
X174779472Y-67977813D01*
X174727049Y-67805000D01*
X174708624Y-67744261D01*
X174593575Y-67529018D01*
X174438744Y-67340356D01*
X174391461Y-67301552D01*
X174074045Y-66984135D01*
X174035244Y-66936856D01*
X173846582Y-66782025D01*
X173631339Y-66666976D01*
X173397786Y-66596128D01*
X173215759Y-66578200D01*
X173154900Y-66572206D01*
X173094041Y-66578200D01*
X157847655Y-66578200D01*
X157786799Y-66572206D01*
X157725943Y-66578200D01*
X157725941Y-66578200D01*
X157543914Y-66596128D01*
X157310361Y-66666976D01*
X157095118Y-66782025D01*
X156906456Y-66936856D01*
X156867656Y-66984134D01*
X153996728Y-69855062D01*
X153871496Y-69671000D01*
X152667000Y-69671000D01*
X152667000Y-71114155D01*
X152896890Y-71235476D01*
X152919563Y-71231147D01*
X152896806Y-71462200D01*
X152902800Y-71523059D01*
X152902801Y-81268514D01*
X152822165Y-81389194D01*
X152709921Y-81660175D01*
X152659867Y-81911814D01*
X152507816Y-81873700D01*
X152225488Y-81859783D01*
X151945870Y-81901213D01*
X151679708Y-81996397D01*
X151554486Y-82063329D01*
X151482903Y-82307298D01*
X152296000Y-83120395D01*
X152310143Y-83106253D01*
X152489748Y-83285858D01*
X152475605Y-83300000D01*
X153288702Y-84113097D01*
X153532671Y-84041514D01*
X153653571Y-83786004D01*
X153718138Y-83528420D01*
X153995046Y-83583500D01*
X154288354Y-83583500D01*
X154576025Y-83526279D01*
X154847006Y-83414035D01*
X154897021Y-83380616D01*
X155048068Y-83606675D01*
X155283325Y-83841932D01*
X155559959Y-84026772D01*
X155867337Y-84154092D01*
X156193648Y-84219000D01*
X156526352Y-84219000D01*
X156852663Y-84154092D01*
X157160041Y-84026772D01*
X157436675Y-83841932D01*
X157671932Y-83606675D01*
X157856772Y-83330041D01*
X157984092Y-83022663D01*
X158049000Y-82696352D01*
X158049000Y-82363648D01*
X157984092Y-82037337D01*
X157856772Y-81729959D01*
X157671932Y-81453325D01*
X157436675Y-81218068D01*
X157160041Y-81033228D01*
X156852663Y-80905908D01*
X156526352Y-80841000D01*
X156193648Y-80841000D01*
X155867337Y-80905908D01*
X155559959Y-81033228D01*
X155380800Y-81152938D01*
X155380800Y-77603773D01*
X155469553Y-77818041D01*
X155658552Y-78100898D01*
X155899102Y-78341448D01*
X156181959Y-78530447D01*
X156496253Y-78660632D01*
X156829905Y-78727000D01*
X157170095Y-78727000D01*
X157503747Y-78660632D01*
X157818041Y-78530447D01*
X158100898Y-78341448D01*
X158341448Y-78100898D01*
X158413742Y-77992702D01*
X161186903Y-77992702D01*
X161258486Y-78236671D01*
X161513996Y-78357571D01*
X161788184Y-78426300D01*
X162070512Y-78440217D01*
X162350130Y-78398787D01*
X162616292Y-78303603D01*
X162741514Y-78236671D01*
X162813097Y-77992702D01*
X162000000Y-77179605D01*
X161186903Y-77992702D01*
X158413742Y-77992702D01*
X158530447Y-77818041D01*
X158660632Y-77503747D01*
X158727000Y-77170095D01*
X158727000Y-77070512D01*
X160559783Y-77070512D01*
X160601213Y-77350130D01*
X160696397Y-77616292D01*
X160763329Y-77741514D01*
X161007298Y-77813097D01*
X161820395Y-77000000D01*
X162179605Y-77000000D01*
X162992702Y-77813097D01*
X163236671Y-77741514D01*
X163357571Y-77486004D01*
X163426300Y-77211816D01*
X163440217Y-76929488D01*
X163398787Y-76649870D01*
X163303603Y-76383708D01*
X163236671Y-76258486D01*
X162992702Y-76186903D01*
X162179605Y-77000000D01*
X161820395Y-77000000D01*
X161007298Y-76186903D01*
X160763329Y-76258486D01*
X160642429Y-76513996D01*
X160573700Y-76788184D01*
X160559783Y-77070512D01*
X158727000Y-77070512D01*
X158727000Y-76829905D01*
X158660632Y-76496253D01*
X158530447Y-76181959D01*
X158413743Y-76007298D01*
X161186903Y-76007298D01*
X162000000Y-76820395D01*
X162813097Y-76007298D01*
X162741514Y-75763329D01*
X162486004Y-75642429D01*
X162211816Y-75573700D01*
X161929488Y-75559783D01*
X161649870Y-75601213D01*
X161383708Y-75696397D01*
X161258486Y-75763329D01*
X161186903Y-76007298D01*
X158413743Y-76007298D01*
X158341448Y-75899102D01*
X158100898Y-75658552D01*
X157818041Y-75469553D01*
X157503747Y-75339368D01*
X157170095Y-75273000D01*
X156829905Y-75273000D01*
X156496253Y-75339368D01*
X156181959Y-75469553D01*
X155899102Y-75658552D01*
X155658552Y-75899102D01*
X155469553Y-76181959D01*
X155380800Y-76396227D01*
X155380800Y-73200802D01*
X155455043Y-73311914D01*
X155732086Y-73588957D01*
X156057855Y-73806629D01*
X156419830Y-73956564D01*
X156804101Y-74033000D01*
X157195899Y-74033000D01*
X157580170Y-73956564D01*
X157942145Y-73806629D01*
X158267914Y-73588957D01*
X158544957Y-73311914D01*
X158762629Y-72986145D01*
X158912564Y-72624170D01*
X158989000Y-72239899D01*
X158989000Y-71848101D01*
X158912564Y-71463830D01*
X158762629Y-71101855D01*
X158674007Y-70969222D01*
X158883747Y-70894919D01*
X159021157Y-70821472D01*
X159098792Y-70572397D01*
X158250000Y-69723605D01*
X158235858Y-69737748D01*
X158056253Y-69558143D01*
X158070395Y-69544000D01*
X158056253Y-69529858D01*
X158235858Y-69350253D01*
X158250000Y-69364395D01*
X158264143Y-69350253D01*
X158443748Y-69529858D01*
X158429605Y-69544000D01*
X159278397Y-70392792D01*
X159527472Y-70315157D01*
X159653371Y-70051117D01*
X159725339Y-69767589D01*
X159740611Y-69475469D01*
X159698599Y-69185981D01*
X159652623Y-69056200D01*
X161073961Y-69056200D01*
X161011000Y-69372723D01*
X161011000Y-69715277D01*
X161077829Y-70051248D01*
X161208918Y-70367725D01*
X161399231Y-70652548D01*
X161641452Y-70894769D01*
X161926275Y-71085082D01*
X162197742Y-71197527D01*
X162087436Y-71463830D01*
X162011000Y-71848101D01*
X162011000Y-72239899D01*
X162087436Y-72624170D01*
X162237371Y-72986145D01*
X162455043Y-73311914D01*
X162732086Y-73588957D01*
X163057855Y-73806629D01*
X163419830Y-73956564D01*
X163804101Y-74033000D01*
X164195899Y-74033000D01*
X164580170Y-73956564D01*
X164942145Y-73806629D01*
X165267914Y-73588957D01*
X165544957Y-73311914D01*
X165762629Y-72986145D01*
X165912564Y-72624170D01*
X165989000Y-72239899D01*
X165989000Y-71848101D01*
X165912564Y-71463830D01*
X165836792Y-71280900D01*
X166761000Y-71280900D01*
X166761001Y-74767339D01*
X166588853Y-74977102D01*
X166432018Y-75270520D01*
X166335439Y-75588898D01*
X166308841Y-75858948D01*
X154044134Y-88123656D01*
X153996856Y-88162456D01*
X153892745Y-88289316D01*
X153792772Y-88047959D01*
X153607932Y-87771325D01*
X153372675Y-87536068D01*
X153096041Y-87351228D01*
X153030307Y-87324000D01*
X153096041Y-87296772D01*
X153372675Y-87111932D01*
X153607932Y-86876675D01*
X153792772Y-86600041D01*
X153920092Y-86292663D01*
X153985000Y-85966352D01*
X153985000Y-85633648D01*
X153920092Y-85307337D01*
X153792772Y-84999959D01*
X153607932Y-84723325D01*
X153372675Y-84488068D01*
X153104375Y-84308796D01*
X153109097Y-84292702D01*
X152296000Y-83479605D01*
X151482903Y-84292702D01*
X151487625Y-84308796D01*
X151219325Y-84488068D01*
X150984068Y-84723325D01*
X150799228Y-84999959D01*
X150671908Y-85307337D01*
X150607000Y-85633648D01*
X150607000Y-85966352D01*
X150671908Y-86292663D01*
X150799228Y-86600041D01*
X150984068Y-86876675D01*
X151219325Y-87111932D01*
X151495959Y-87296772D01*
X151561693Y-87324000D01*
X151495959Y-87351228D01*
X151219325Y-87536068D01*
X150984068Y-87771325D01*
X150799228Y-88047959D01*
X150671908Y-88355337D01*
X150607000Y-88681648D01*
X150607000Y-89014352D01*
X150671908Y-89340663D01*
X150799228Y-89648041D01*
X150984068Y-89924675D01*
X151219325Y-90159932D01*
X151487625Y-90339204D01*
X151482903Y-90355298D01*
X152296000Y-91168395D01*
X153109097Y-90355298D01*
X153104375Y-90339204D01*
X153372675Y-90159932D01*
X153607932Y-89924675D01*
X153638200Y-89879375D01*
X153638201Y-90839638D01*
X153599603Y-90731708D01*
X153532671Y-90606486D01*
X153288702Y-90534903D01*
X152475605Y-91348000D01*
X152489748Y-91362143D01*
X152310143Y-91541748D01*
X152296000Y-91527605D01*
X151482903Y-92340702D01*
X151554486Y-92584671D01*
X151809996Y-92705571D01*
X151812653Y-92706237D01*
X148517134Y-96001756D01*
X148469856Y-96040556D01*
X148315025Y-96229219D01*
X148199976Y-96444462D01*
X148175981Y-96523562D01*
X148129128Y-96678014D01*
X148105206Y-96920900D01*
X148111200Y-96981759D01*
X148111201Y-103662842D01*
X148105206Y-103723721D01*
X148123070Y-103905072D01*
X148129129Y-103966586D01*
X148129130Y-103966591D01*
X148129132Y-103966607D01*
X148171776Y-104107175D01*
X148199977Y-104200139D01*
X148199981Y-104200146D01*
X148199984Y-104200157D01*
X148249650Y-104293072D01*
X148315026Y-104415382D01*
X148315034Y-104415392D01*
X148315038Y-104415399D01*
X148349412Y-104457282D01*
X148469857Y-104604044D01*
X148517140Y-104642848D01*
X150523074Y-106648715D01*
X150166934Y-107004856D01*
X150119656Y-107043656D01*
X149964825Y-107232319D01*
X149849776Y-107447562D01*
X149828712Y-107517000D01*
X149778928Y-107681114D01*
X149755006Y-107924000D01*
X149761000Y-107984859D01*
X149761001Y-110965580D01*
X149754728Y-110970728D01*
X149563996Y-111203135D01*
X149348488Y-111009183D01*
X149095978Y-110859036D01*
X148819027Y-110761037D01*
X148587000Y-110881536D01*
X148587000Y-112089000D01*
X148607000Y-112089000D01*
X148607000Y-112343000D01*
X148587000Y-112343000D01*
X148587000Y-112363000D01*
X148333000Y-112363000D01*
X148333000Y-112343000D01*
X147126183Y-112343000D01*
X147005042Y-112575026D01*
X147050778Y-112725814D01*
X147177316Y-112990944D01*
X147353146Y-113226293D01*
X147452433Y-113315649D01*
X147214728Y-113510728D01*
X146995715Y-113777596D01*
X146832974Y-114082064D01*
X146732759Y-114412430D01*
X146698920Y-114756000D01*
X146732759Y-115099570D01*
X146832974Y-115429936D01*
X146995715Y-115734404D01*
X147106175Y-115869000D01*
X146366190Y-115869000D01*
X146296100Y-115862097D01*
X146226010Y-115869000D01*
X146226002Y-115869000D01*
X146040574Y-115887263D01*
X146016358Y-115889648D01*
X145978412Y-115901159D01*
X145747369Y-115971245D01*
X145553676Y-116074776D01*
X145499466Y-116103752D01*
X145336625Y-116237392D01*
X145336622Y-116237395D01*
X145282177Y-116282077D01*
X145237495Y-116336522D01*
X144176018Y-117398000D01*
X140229858Y-117398000D01*
X139942409Y-117205934D01*
X139609916Y-117068211D01*
X139256944Y-116998000D01*
X138897056Y-116998000D01*
X138544084Y-117068211D01*
X138211591Y-117205934D01*
X138072950Y-117298570D01*
X138068659Y-117293341D01*
X137933291Y-117182247D01*
X137778851Y-117099697D01*
X137776000Y-117098832D01*
X137776000Y-115948607D01*
X137891932Y-115832675D01*
X138076772Y-115556041D01*
X138204092Y-115248663D01*
X138269000Y-114922352D01*
X138269000Y-114756000D01*
X139962828Y-114756000D01*
X139995439Y-115087102D01*
X140092018Y-115405480D01*
X140248853Y-115698898D01*
X140459918Y-115956082D01*
X140717102Y-116167147D01*
X141010520Y-116323982D01*
X141328898Y-116420561D01*
X141577029Y-116445000D01*
X141742971Y-116445000D01*
X141991102Y-116420561D01*
X142309480Y-116323982D01*
X142602898Y-116167147D01*
X142860082Y-115956082D01*
X143071147Y-115698898D01*
X143227982Y-115405480D01*
X143324561Y-115087102D01*
X143357172Y-114756000D01*
X143324561Y-114424898D01*
X143227982Y-114106520D01*
X143071147Y-113813102D01*
X142860082Y-113555918D01*
X142602898Y-113344853D01*
X142309480Y-113188018D01*
X141991102Y-113091439D01*
X141742971Y-113067000D01*
X141577029Y-113067000D01*
X141328898Y-113091439D01*
X141010520Y-113188018D01*
X140717102Y-113344853D01*
X140459918Y-113555918D01*
X140248853Y-113813102D01*
X140092018Y-114106520D01*
X139995439Y-114424898D01*
X139962828Y-114756000D01*
X138269000Y-114756000D01*
X138269000Y-114589648D01*
X138204092Y-114263337D01*
X138076772Y-113955959D01*
X137891932Y-113679325D01*
X137656675Y-113444068D01*
X137380041Y-113259228D01*
X137072663Y-113131908D01*
X136746352Y-113067000D01*
X136413648Y-113067000D01*
X136087337Y-113131908D01*
X135779959Y-113259228D01*
X135503325Y-113444068D01*
X135268068Y-113679325D01*
X135083228Y-113955959D01*
X134955908Y-114263337D01*
X134931213Y-114387488D01*
X134845982Y-114106520D01*
X134689147Y-113813102D01*
X134478082Y-113555918D01*
X134220898Y-113344853D01*
X133927480Y-113188018D01*
X133609102Y-113091439D01*
X133360971Y-113067000D01*
X133195029Y-113067000D01*
X132946898Y-113091439D01*
X132628520Y-113188018D01*
X132335102Y-113344853D01*
X132077918Y-113555918D01*
X131992533Y-113659960D01*
X131879648Y-113448766D01*
X131858352Y-113422817D01*
X131746008Y-113285925D01*
X131746001Y-113285918D01*
X131701322Y-113231477D01*
X131646882Y-113186799D01*
X130317057Y-111856974D01*
X147005042Y-111856974D01*
X147126183Y-112089000D01*
X148333000Y-112089000D01*
X148333000Y-110881536D01*
X148100973Y-110761037D01*
X147824022Y-110859036D01*
X147571512Y-111009183D01*
X147353146Y-111205707D01*
X147177316Y-111441056D01*
X147050778Y-111706186D01*
X147005042Y-111856974D01*
X130317057Y-111856974D01*
X129263665Y-110803583D01*
X129278501Y-110785505D01*
X129364580Y-110624464D01*
X129417587Y-110449724D01*
X129435485Y-110268000D01*
X129435485Y-109168000D01*
X135565377Y-109168000D01*
X135603780Y-109557912D01*
X135717513Y-109932840D01*
X135902206Y-110278375D01*
X136150760Y-110581240D01*
X136453625Y-110829794D01*
X136799160Y-111014487D01*
X137174088Y-111128220D01*
X137466296Y-111157000D01*
X137661704Y-111157000D01*
X137953912Y-111128220D01*
X138328840Y-111014487D01*
X138674375Y-110829794D01*
X138977240Y-110581240D01*
X139225794Y-110278375D01*
X139410487Y-109932840D01*
X139524220Y-109557912D01*
X139562623Y-109168000D01*
X139524220Y-108778088D01*
X139410487Y-108403160D01*
X139225794Y-108057625D01*
X138977240Y-107754760D01*
X138674375Y-107506206D01*
X138328840Y-107321513D01*
X137953912Y-107207780D01*
X137661704Y-107179000D01*
X137466296Y-107179000D01*
X137174088Y-107207780D01*
X136799160Y-107321513D01*
X136453625Y-107506206D01*
X136150760Y-107754760D01*
X135902206Y-108057625D01*
X135717513Y-108403160D01*
X135603780Y-108778088D01*
X135565377Y-109168000D01*
X129435485Y-109168000D01*
X129435485Y-108068000D01*
X129417587Y-107886276D01*
X129364580Y-107711536D01*
X129278501Y-107550495D01*
X129162659Y-107409341D01*
X129021505Y-107293499D01*
X128860464Y-107207420D01*
X128831000Y-107198482D01*
X128831000Y-105842702D01*
X131590903Y-105842702D01*
X131662486Y-106086671D01*
X131917996Y-106207571D01*
X132192184Y-106276300D01*
X132474512Y-106290217D01*
X132754130Y-106248787D01*
X133020292Y-106153603D01*
X133145514Y-106086671D01*
X133217097Y-105842702D01*
X132404000Y-105029605D01*
X131590903Y-105842702D01*
X128831000Y-105842702D01*
X128831000Y-105822860D01*
X128934447Y-105668041D01*
X129064632Y-105353747D01*
X129100958Y-105171124D01*
X129351570Y-104920512D01*
X130963783Y-104920512D01*
X131005213Y-105200130D01*
X131100397Y-105466292D01*
X131167329Y-105591514D01*
X131411298Y-105663097D01*
X132224395Y-104850000D01*
X132583605Y-104850000D01*
X133396702Y-105663097D01*
X133640671Y-105591514D01*
X133761571Y-105336004D01*
X133830300Y-105061816D01*
X133844217Y-104779488D01*
X133802787Y-104499870D01*
X133707603Y-104233708D01*
X133640671Y-104108486D01*
X133611750Y-104100000D01*
X134142699Y-104100000D01*
X134142699Y-105600000D01*
X134159864Y-105774274D01*
X134210697Y-105941851D01*
X134293247Y-106096291D01*
X134404341Y-106231659D01*
X134539709Y-106342753D01*
X134694149Y-106425303D01*
X134861726Y-106476136D01*
X135036000Y-106493301D01*
X136536000Y-106493301D01*
X136710274Y-106476136D01*
X136877851Y-106425303D01*
X137032291Y-106342753D01*
X137167659Y-106231659D01*
X137278753Y-106096291D01*
X137361303Y-105941851D01*
X137412136Y-105774274D01*
X137429301Y-105600000D01*
X137429301Y-104850000D01*
X141759070Y-104850000D01*
X141790715Y-105171300D01*
X141884435Y-105480253D01*
X142036628Y-105764985D01*
X142241445Y-106014555D01*
X142491015Y-106219372D01*
X142775747Y-106371565D01*
X143084700Y-106465285D01*
X143325485Y-106489000D01*
X143486515Y-106489000D01*
X143727300Y-106465285D01*
X144036253Y-106371565D01*
X144320985Y-106219372D01*
X144570555Y-106014555D01*
X144775372Y-105764985D01*
X144927565Y-105480253D01*
X145021285Y-105171300D01*
X145052930Y-104850000D01*
X145021285Y-104528700D01*
X144927565Y-104219747D01*
X144775372Y-103935015D01*
X144570555Y-103685445D01*
X144320985Y-103480628D01*
X144036253Y-103328435D01*
X143727300Y-103234715D01*
X143486515Y-103211000D01*
X143325485Y-103211000D01*
X143084700Y-103234715D01*
X142775747Y-103328435D01*
X142491015Y-103480628D01*
X142241445Y-103685445D01*
X142036628Y-103935015D01*
X141884435Y-104219747D01*
X141790715Y-104528700D01*
X141759070Y-104850000D01*
X137429301Y-104850000D01*
X137429301Y-104100000D01*
X137412136Y-103925726D01*
X137361303Y-103758149D01*
X137278753Y-103603709D01*
X137167659Y-103468341D01*
X137032291Y-103357247D01*
X136877851Y-103274697D01*
X136710274Y-103223864D01*
X136536000Y-103206699D01*
X135036000Y-103206699D01*
X134861726Y-103223864D01*
X134694149Y-103274697D01*
X134539709Y-103357247D01*
X134404341Y-103468341D01*
X134293247Y-103603709D01*
X134210697Y-103758149D01*
X134159864Y-103925726D01*
X134142699Y-104100000D01*
X133611750Y-104100000D01*
X133396702Y-104036903D01*
X132583605Y-104850000D01*
X132224395Y-104850000D01*
X131411298Y-104036903D01*
X131167329Y-104108486D01*
X131046429Y-104363996D01*
X130977700Y-104638184D01*
X130963783Y-104920512D01*
X129351570Y-104920512D01*
X130414784Y-103857298D01*
X131590903Y-103857298D01*
X132404000Y-104670395D01*
X133217097Y-103857298D01*
X133145514Y-103613329D01*
X132890004Y-103492429D01*
X132615816Y-103423700D01*
X132333488Y-103409783D01*
X132053870Y-103451213D01*
X131787708Y-103546397D01*
X131662486Y-103613329D01*
X131590903Y-103857298D01*
X130414784Y-103857298D01*
X130469278Y-103802805D01*
X130523723Y-103758123D01*
X130568405Y-103703678D01*
X130568408Y-103703675D01*
X130695807Y-103548439D01*
X130702048Y-103540834D01*
X130834555Y-103292931D01*
X130907390Y-103052825D01*
X130916152Y-103023942D01*
X130927476Y-102908962D01*
X130936800Y-102814298D01*
X130936800Y-102814290D01*
X130943703Y-102744200D01*
X130936800Y-102674110D01*
X130936800Y-100532000D01*
X135866828Y-100532000D01*
X135899439Y-100863102D01*
X135996018Y-101181480D01*
X136152853Y-101474898D01*
X136363918Y-101732082D01*
X136621102Y-101943147D01*
X136914520Y-102099982D01*
X137232898Y-102196561D01*
X137481029Y-102221000D01*
X137646971Y-102221000D01*
X137895102Y-102196561D01*
X138213480Y-102099982D01*
X138506898Y-101943147D01*
X138716660Y-101771000D01*
X141567141Y-101771000D01*
X141628000Y-101776994D01*
X141870886Y-101753072D01*
X141940080Y-101732082D01*
X142104439Y-101682224D01*
X142319682Y-101567175D01*
X142508344Y-101412344D01*
X142547144Y-101365066D01*
X143773211Y-100139000D01*
X143821427Y-100139000D01*
X144138079Y-100076014D01*
X144436357Y-99952463D01*
X144704801Y-99773094D01*
X144933094Y-99544801D01*
X144991765Y-99456993D01*
X145422612Y-99456993D01*
X145488137Y-99695860D01*
X145735116Y-99811760D01*
X145999960Y-99877250D01*
X146272492Y-99889812D01*
X146542238Y-99848965D01*
X146798832Y-99756277D01*
X146911863Y-99695860D01*
X146977388Y-99456993D01*
X146200000Y-98679605D01*
X145422612Y-99456993D01*
X144991765Y-99456993D01*
X145112463Y-99276357D01*
X145125399Y-99245126D01*
X145243007Y-99277388D01*
X146020395Y-98500000D01*
X146379605Y-98500000D01*
X147156993Y-99277388D01*
X147395860Y-99211863D01*
X147511760Y-98964884D01*
X147577250Y-98700040D01*
X147589812Y-98427508D01*
X147548965Y-98157762D01*
X147456277Y-97901168D01*
X147395860Y-97788137D01*
X147156993Y-97722612D01*
X146379605Y-98500000D01*
X146020395Y-98500000D01*
X145243007Y-97722612D01*
X145125399Y-97754874D01*
X145112463Y-97723643D01*
X144991766Y-97543007D01*
X145422612Y-97543007D01*
X146200000Y-98320395D01*
X146977388Y-97543007D01*
X146911863Y-97304140D01*
X146664884Y-97188240D01*
X146400040Y-97122750D01*
X146127508Y-97110188D01*
X145857762Y-97151035D01*
X145601168Y-97243723D01*
X145488137Y-97304140D01*
X145422612Y-97543007D01*
X144991766Y-97543007D01*
X144933094Y-97455199D01*
X144704801Y-97226906D01*
X144436357Y-97047537D01*
X144138079Y-96923986D01*
X143821427Y-96861000D01*
X143498573Y-96861000D01*
X143181921Y-96923986D01*
X142883643Y-97047537D01*
X142615199Y-97226906D01*
X142601774Y-97240331D01*
X142501659Y-97118341D01*
X142366291Y-97007247D01*
X142211851Y-96924697D01*
X142044274Y-96873864D01*
X141870000Y-96856699D01*
X140370000Y-96856699D01*
X140195726Y-96873864D01*
X140028149Y-96924697D01*
X139873709Y-97007247D01*
X139738341Y-97118341D01*
X139627247Y-97253709D01*
X139544697Y-97408149D01*
X139493864Y-97575726D01*
X139476699Y-97750000D01*
X139476699Y-99250000D01*
X139480934Y-99293000D01*
X138716660Y-99293000D01*
X138506898Y-99120853D01*
X138213480Y-98964018D01*
X137895102Y-98867439D01*
X137646971Y-98843000D01*
X137481029Y-98843000D01*
X137232898Y-98867439D01*
X136914520Y-98964018D01*
X136621102Y-99120853D01*
X136363918Y-99331918D01*
X136152853Y-99589102D01*
X135996018Y-99882520D01*
X135899439Y-100200898D01*
X135866828Y-100532000D01*
X130936800Y-100532000D01*
X130936800Y-98897890D01*
X130943703Y-98827800D01*
X130936800Y-98757710D01*
X130936800Y-98757702D01*
X130916152Y-98548059D01*
X130895707Y-98480659D01*
X130883468Y-98440313D01*
X130834555Y-98279069D01*
X130702048Y-98031166D01*
X130669926Y-97992025D01*
X130568408Y-97868325D01*
X130568401Y-97868318D01*
X130523722Y-97813877D01*
X130469282Y-97769199D01*
X129435485Y-96735403D01*
X129435485Y-95622000D01*
X129417587Y-95440276D01*
X129364580Y-95265536D01*
X129278501Y-95104495D01*
X129162659Y-94963341D01*
X129021505Y-94847499D01*
X128930974Y-94799109D01*
X129703083Y-94027000D01*
X130076416Y-94027000D01*
X130497008Y-93943340D01*
X130893196Y-93779233D01*
X131249757Y-93540987D01*
X131552987Y-93237757D01*
X131791233Y-92881196D01*
X131955340Y-92485008D01*
X132039000Y-92064416D01*
X132039000Y-91635584D01*
X131955340Y-91214992D01*
X131791233Y-90818804D01*
X131552987Y-90462243D01*
X131249757Y-90159013D01*
X130893196Y-89920767D01*
X130497008Y-89756660D01*
X130076416Y-89673000D01*
X129647584Y-89673000D01*
X129226992Y-89756660D01*
X128830804Y-89920767D01*
X128474243Y-90159013D01*
X128171013Y-90462243D01*
X127932767Y-90818804D01*
X127768660Y-91214992D01*
X127685000Y-91635584D01*
X127685000Y-92008917D01*
X126444523Y-93249395D01*
X126390078Y-93294077D01*
X126345396Y-93348522D01*
X126345392Y-93348526D01*
X126211753Y-93511366D01*
X126079246Y-93759269D01*
X125997649Y-94028259D01*
X125970097Y-94308000D01*
X125977001Y-94378097D01*
X125977001Y-94752482D01*
X125947536Y-94761420D01*
X125786495Y-94847499D01*
X125645341Y-94963341D01*
X125529499Y-95104495D01*
X125443420Y-95265536D01*
X125390413Y-95440276D01*
X125372515Y-95622000D01*
X125372515Y-97822000D01*
X125390413Y-98003724D01*
X125443420Y-98178464D01*
X125529499Y-98339505D01*
X125645341Y-98480659D01*
X125786495Y-98596501D01*
X125947536Y-98682580D01*
X126122276Y-98735587D01*
X126304000Y-98753485D01*
X127417403Y-98753485D01*
X127506917Y-98843000D01*
X127237648Y-98843000D01*
X126911337Y-98907908D01*
X126603959Y-99035228D01*
X126327325Y-99220068D01*
X126092068Y-99455325D01*
X125907228Y-99731959D01*
X125779908Y-100039337D01*
X125715000Y-100365648D01*
X125715000Y-100698352D01*
X125779908Y-101024663D01*
X125907228Y-101332041D01*
X126092068Y-101608675D01*
X126327325Y-101843932D01*
X126603959Y-102028772D01*
X126911337Y-102156092D01*
X127237648Y-102221000D01*
X127570352Y-102221000D01*
X127896663Y-102156092D01*
X128082801Y-102078991D01*
X128082801Y-102153116D01*
X127082876Y-103153042D01*
X126900253Y-103189368D01*
X126585959Y-103319553D01*
X126303102Y-103508552D01*
X126062552Y-103749102D01*
X125873553Y-104031959D01*
X125743368Y-104346253D01*
X125677000Y-104679905D01*
X125677000Y-105020095D01*
X125743368Y-105353747D01*
X125873553Y-105668041D01*
X125977001Y-105822862D01*
X125977000Y-107198482D01*
X125947536Y-107207420D01*
X125786495Y-107293499D01*
X125645341Y-107409341D01*
X125529499Y-107550495D01*
X125443420Y-107711536D01*
X125390413Y-107886276D01*
X125372515Y-108068000D01*
X125372515Y-110268000D01*
X125390413Y-110449724D01*
X125443420Y-110624464D01*
X125529499Y-110785505D01*
X125645341Y-110926659D01*
X125786495Y-111042501D01*
X125947536Y-111128580D01*
X125977001Y-111137518D01*
X125977001Y-111148193D01*
X125970096Y-111218300D01*
X125997648Y-111498041D01*
X126079245Y-111767031D01*
X126211752Y-112014934D01*
X126390077Y-112232223D01*
X126607366Y-112410548D01*
X126855269Y-112543055D01*
X127015612Y-112591694D01*
X127599616Y-113175699D01*
X127397959Y-113259228D01*
X127121325Y-113444068D01*
X126886068Y-113679325D01*
X126701228Y-113955959D01*
X126573908Y-114263337D01*
X126549213Y-114387488D01*
X126463982Y-114106520D01*
X126307147Y-113813102D01*
X126096082Y-113555918D01*
X125838898Y-113344853D01*
X125545480Y-113188018D01*
X125227102Y-113091439D01*
X124978971Y-113067000D01*
X124813029Y-113067000D01*
X124564898Y-113091439D01*
X124246520Y-113188018D01*
X123953102Y-113344853D01*
X123695918Y-113555918D01*
X123484853Y-113813102D01*
X123328018Y-114106520D01*
X123231439Y-114424898D01*
X123198828Y-114756000D01*
X123231439Y-115087102D01*
X123328018Y-115405480D01*
X123484853Y-115698898D01*
X123695918Y-115956082D01*
X123953102Y-116167147D01*
X124246520Y-116323982D01*
X124564898Y-116420561D01*
X124813029Y-116445000D01*
X124978971Y-116445000D01*
X125227102Y-116420561D01*
X125545480Y-116323982D01*
X125838898Y-116167147D01*
X126096082Y-115956082D01*
X126307147Y-115698898D01*
X126463982Y-115405480D01*
X126549213Y-115124512D01*
X126573908Y-115248663D01*
X126701228Y-115556041D01*
X126886068Y-115832675D01*
X126959000Y-115905607D01*
X126959000Y-116325141D01*
X126953006Y-116386000D01*
X126967516Y-116533318D01*
X126976928Y-116628885D01*
X127047776Y-116862438D01*
X127162825Y-117077681D01*
X127317656Y-117266344D01*
X127364934Y-117305144D01*
X127436732Y-117376942D01*
X127394247Y-117428709D01*
X127311697Y-117583149D01*
X127260864Y-117750726D01*
X127243699Y-117925000D01*
X127243699Y-119598400D01*
X126868483Y-119598400D01*
X125901234Y-118631152D01*
X125833789Y-118292084D01*
X125696066Y-117959591D01*
X125496124Y-117660355D01*
X125241645Y-117405876D01*
X124942409Y-117205934D01*
X124609916Y-117068211D01*
X124256944Y-116998000D01*
X123897056Y-116998000D01*
X123544084Y-117068211D01*
X123211591Y-117205934D01*
X123072950Y-117298570D01*
X123068659Y-117293341D01*
X122933291Y-117182247D01*
X122778851Y-117099697D01*
X122611274Y-117048864D01*
X122437000Y-117031699D01*
X120637000Y-117031699D01*
X120462726Y-117048864D01*
X120295149Y-117099697D01*
X120140709Y-117182247D01*
X120005341Y-117293341D01*
X119894247Y-117428709D01*
X119811697Y-117583149D01*
X119760864Y-117750726D01*
X119743699Y-117925000D01*
X119743699Y-119725000D01*
X119760864Y-119899274D01*
X119811697Y-120066851D01*
X119894247Y-120221291D01*
X120005341Y-120356659D01*
X120140709Y-120467753D01*
X120295149Y-120550303D01*
X120462726Y-120601136D01*
X120637000Y-120618301D01*
X122437000Y-120618301D01*
X122611274Y-120601136D01*
X122778851Y-120550303D01*
X122933291Y-120467753D01*
X123068659Y-120356659D01*
X123072950Y-120351430D01*
X123211591Y-120444066D01*
X123544084Y-120581789D01*
X123883152Y-120649234D01*
X125218795Y-121984878D01*
X125263477Y-122039323D01*
X125317922Y-122084005D01*
X125317925Y-122084008D01*
X125397988Y-122149714D01*
X125480766Y-122217648D01*
X125728669Y-122350155D01*
X125845302Y-122385535D01*
X125997658Y-122431752D01*
X126021874Y-122434137D01*
X126207302Y-122452400D01*
X126207310Y-122452400D01*
X126277400Y-122459303D01*
X126347490Y-122452400D01*
X130469512Y-122452400D01*
X130539600Y-122459303D01*
X130609688Y-122452400D01*
X130609698Y-122452400D01*
X130819341Y-122431752D01*
X131088331Y-122350155D01*
X131336234Y-122217648D01*
X131553523Y-122039323D01*
X131577000Y-122010716D01*
X131600477Y-122039323D01*
X131654922Y-122084005D01*
X131654925Y-122084008D01*
X131725951Y-122142297D01*
X131817766Y-122217648D01*
X132065669Y-122350155D01*
X132334659Y-122431752D01*
X132544302Y-122452400D01*
X132544311Y-122452400D01*
X132614399Y-122459303D01*
X132684487Y-122452400D01*
X137969512Y-122452400D01*
X138039600Y-122459303D01*
X138109688Y-122452400D01*
X138109698Y-122452400D01*
X138319341Y-122431752D01*
X138588331Y-122350155D01*
X138836234Y-122217648D01*
X139053523Y-122039323D01*
X139098209Y-121984873D01*
X140036482Y-121046601D01*
X140090922Y-121001923D01*
X140135601Y-120947482D01*
X140135608Y-120947475D01*
X140269247Y-120784635D01*
X140269248Y-120784634D01*
X140401755Y-120536731D01*
X140483352Y-120267741D01*
X140484902Y-120252000D01*
X144697012Y-120252000D01*
X144767100Y-120258903D01*
X144837188Y-120252000D01*
X144837198Y-120252000D01*
X145046841Y-120231352D01*
X145315831Y-120149755D01*
X145563734Y-120017248D01*
X145781023Y-119838923D01*
X145825709Y-119784473D01*
X146887183Y-118723000D01*
X147376266Y-118723000D01*
X147460383Y-118792033D01*
X147771452Y-118958302D01*
X148108981Y-119060691D01*
X148372042Y-119086600D01*
X148547958Y-119086600D01*
X148811019Y-119060691D01*
X149148548Y-118958302D01*
X149459617Y-118792033D01*
X149486960Y-118769593D01*
X149504741Y-118791259D01*
X149640109Y-118902353D01*
X149794549Y-118984903D01*
X149962126Y-119035736D01*
X150136400Y-119052901D01*
X151863600Y-119052901D01*
X152037874Y-119035736D01*
X152205451Y-118984903D01*
X152359891Y-118902353D01*
X152495259Y-118791259D01*
X152606353Y-118655891D01*
X152688903Y-118501451D01*
X152739736Y-118333874D01*
X152756901Y-118159600D01*
X152756901Y-116432400D01*
X152739736Y-116258126D01*
X152688903Y-116090549D01*
X152637831Y-115995000D01*
X154828790Y-115995000D01*
X158886460Y-120052671D01*
X158925256Y-120099944D01*
X159113918Y-120254775D01*
X159329161Y-120369824D01*
X159536912Y-120432845D01*
X159562714Y-120440672D01*
X159805600Y-120464594D01*
X159866459Y-120458600D01*
X163031341Y-120458600D01*
X163092200Y-120464594D01*
X163335086Y-120440672D01*
X163360888Y-120432845D01*
X163568639Y-120369824D01*
X163783882Y-120254775D01*
X163972544Y-120099944D01*
X164011344Y-120052666D01*
X165717472Y-118346539D01*
X165764744Y-118307744D01*
X165881209Y-118165831D01*
X165874098Y-124086000D01*
X106603722Y-124086000D01*
X106734550Y-123914155D01*
X104000000Y-121179605D01*
X101265450Y-123914155D01*
X101396278Y-124086000D01*
X100914000Y-124086000D01*
X100914000Y-123603722D01*
X101085845Y-123734550D01*
X103820395Y-121000000D01*
X104179605Y-121000000D01*
X106914155Y-123734550D01*
X107434550Y-123338366D01*
X107824748Y-122623388D01*
X108067964Y-121846024D01*
X108154851Y-121036147D01*
X108082069Y-120224882D01*
X107852415Y-119443403D01*
X107474715Y-118721744D01*
X107434550Y-118661634D01*
X106914155Y-118265450D01*
X104179605Y-121000000D01*
X103820395Y-121000000D01*
X101085845Y-118265450D01*
X100914000Y-118396278D01*
X100914000Y-118085845D01*
X101265450Y-118085845D01*
X104000000Y-120820395D01*
X106734550Y-118085845D01*
X106491048Y-117766000D01*
X109670515Y-117766000D01*
X109670515Y-119366000D01*
X109688413Y-119547724D01*
X109741420Y-119722464D01*
X109827499Y-119883505D01*
X109943341Y-120024659D01*
X110084495Y-120140501D01*
X110245536Y-120226580D01*
X110420276Y-120279587D01*
X110602000Y-120297485D01*
X112202000Y-120297485D01*
X112383724Y-120279587D01*
X112558464Y-120226580D01*
X112719505Y-120140501D01*
X112860659Y-120024659D01*
X112976501Y-119883505D01*
X113062580Y-119722464D01*
X113112256Y-119558702D01*
X114088903Y-119558702D01*
X114160486Y-119802671D01*
X114415996Y-119923571D01*
X114690184Y-119992300D01*
X114972512Y-120006217D01*
X115252130Y-119964787D01*
X115518292Y-119869603D01*
X115643514Y-119802671D01*
X115715097Y-119558702D01*
X114902000Y-118745605D01*
X114088903Y-119558702D01*
X113112256Y-119558702D01*
X113115587Y-119547724D01*
X113133485Y-119366000D01*
X113133485Y-118636512D01*
X113461783Y-118636512D01*
X113503213Y-118916130D01*
X113598397Y-119182292D01*
X113665329Y-119307514D01*
X113909298Y-119379097D01*
X114722395Y-118566000D01*
X115081605Y-118566000D01*
X115894702Y-119379097D01*
X116138671Y-119307514D01*
X116259571Y-119052004D01*
X116328300Y-118777816D01*
X116342217Y-118495488D01*
X116300787Y-118215870D01*
X116205603Y-117949708D01*
X116138671Y-117824486D01*
X115894702Y-117752903D01*
X115081605Y-118566000D01*
X114722395Y-118566000D01*
X113909298Y-117752903D01*
X113665329Y-117824486D01*
X113544429Y-118079996D01*
X113475700Y-118354184D01*
X113461783Y-118636512D01*
X113133485Y-118636512D01*
X113133485Y-117766000D01*
X113115587Y-117584276D01*
X113112257Y-117573298D01*
X114088903Y-117573298D01*
X114902000Y-118386395D01*
X115715097Y-117573298D01*
X115643514Y-117329329D01*
X115388004Y-117208429D01*
X115113816Y-117139700D01*
X114831488Y-117125783D01*
X114551870Y-117167213D01*
X114285708Y-117262397D01*
X114160486Y-117329329D01*
X114088903Y-117573298D01*
X113112257Y-117573298D01*
X113062580Y-117409536D01*
X112976501Y-117248495D01*
X112860659Y-117107341D01*
X112719505Y-116991499D01*
X112558464Y-116905420D01*
X112383724Y-116852413D01*
X112202000Y-116834515D01*
X110602000Y-116834515D01*
X110420276Y-116852413D01*
X110245536Y-116905420D01*
X110084495Y-116991499D01*
X109943341Y-117107341D01*
X109827499Y-117248495D01*
X109741420Y-117409536D01*
X109688413Y-117584276D01*
X109670515Y-117766000D01*
X106491048Y-117766000D01*
X106338366Y-117565450D01*
X105623388Y-117175252D01*
X104846024Y-116932036D01*
X104036147Y-116845149D01*
X103224882Y-116917931D01*
X102443403Y-117147585D01*
X101721744Y-117525285D01*
X101661634Y-117565450D01*
X101265450Y-118085845D01*
X100914000Y-118085845D01*
X100914000Y-114589648D01*
X118127000Y-114589648D01*
X118127000Y-114922352D01*
X118191908Y-115248663D01*
X118319228Y-115556041D01*
X118504068Y-115832675D01*
X118739325Y-116067932D01*
X119015959Y-116252772D01*
X119323337Y-116380092D01*
X119649648Y-116445000D01*
X119982352Y-116445000D01*
X120308663Y-116380092D01*
X120616041Y-116252772D01*
X120892675Y-116067932D01*
X121127932Y-115832675D01*
X121312772Y-115556041D01*
X121440092Y-115248663D01*
X121505000Y-114922352D01*
X121505000Y-114589648D01*
X121440092Y-114263337D01*
X121312772Y-113955959D01*
X121127932Y-113679325D01*
X120892675Y-113444068D01*
X120616041Y-113259228D01*
X120308663Y-113131908D01*
X119982352Y-113067000D01*
X119649648Y-113067000D01*
X119323337Y-113131908D01*
X119015959Y-113259228D01*
X118739325Y-113444068D01*
X118504068Y-113679325D01*
X118319228Y-113955959D01*
X118191908Y-114263337D01*
X118127000Y-114589648D01*
X100914000Y-114589648D01*
X100914000Y-107193614D01*
X103883000Y-107193614D01*
X103883000Y-107626386D01*
X103967430Y-108050841D01*
X104133044Y-108450670D01*
X104373479Y-108810506D01*
X104407572Y-108844599D01*
X104199386Y-109156171D01*
X104042818Y-109534161D01*
X103963000Y-109935433D01*
X103963000Y-110344567D01*
X104042818Y-110745839D01*
X104199386Y-111123829D01*
X104426689Y-111464011D01*
X104715989Y-111753311D01*
X105056171Y-111980614D01*
X105434161Y-112137182D01*
X105835433Y-112217000D01*
X106244567Y-112217000D01*
X106645839Y-112137182D01*
X107023829Y-111980614D01*
X107364011Y-111753311D01*
X107653311Y-111464011D01*
X107707875Y-111382349D01*
X120377256Y-111382349D01*
X120491118Y-111662090D01*
X120806296Y-111817961D01*
X121145826Y-111909349D01*
X121496661Y-111932741D01*
X121845319Y-111887240D01*
X122178400Y-111774594D01*
X122388882Y-111662090D01*
X122502744Y-111382349D01*
X121440000Y-110319605D01*
X120377256Y-111382349D01*
X107707875Y-111382349D01*
X107880614Y-111123829D01*
X108037182Y-110745839D01*
X108117000Y-110344567D01*
X108117000Y-110196661D01*
X119647259Y-110196661D01*
X119692760Y-110545319D01*
X119805406Y-110878400D01*
X119917910Y-111088882D01*
X120197651Y-111202744D01*
X121260395Y-110140000D01*
X121619605Y-110140000D01*
X122682349Y-111202744D01*
X122962090Y-111088882D01*
X123117961Y-110773704D01*
X123209349Y-110434174D01*
X123232741Y-110083339D01*
X123187240Y-109734681D01*
X123074594Y-109401600D01*
X122962090Y-109191118D01*
X122682349Y-109077256D01*
X121619605Y-110140000D01*
X121260395Y-110140000D01*
X120197651Y-109077256D01*
X119917910Y-109191118D01*
X119762039Y-109506296D01*
X119670651Y-109845826D01*
X119647259Y-110196661D01*
X108117000Y-110196661D01*
X108117000Y-109935433D01*
X108037182Y-109534161D01*
X107880614Y-109156171D01*
X107704471Y-108892556D01*
X107786521Y-108810506D01*
X108026956Y-108450670D01*
X108192570Y-108050841D01*
X108277000Y-107626386D01*
X108277000Y-107197357D01*
X109001000Y-107197357D01*
X109001000Y-107622643D01*
X109083970Y-108039757D01*
X109246719Y-108432670D01*
X109482996Y-108786282D01*
X109783718Y-109087004D01*
X110137330Y-109323281D01*
X110530243Y-109486030D01*
X110947357Y-109569000D01*
X111372643Y-109569000D01*
X111789757Y-109486030D01*
X112182670Y-109323281D01*
X112536282Y-109087004D01*
X112837004Y-108786282D01*
X112869364Y-108737852D01*
X115091753Y-108737852D01*
X115220076Y-109029871D01*
X115555695Y-109197723D01*
X115917611Y-109296874D01*
X116291916Y-109323514D01*
X116664227Y-109276618D01*
X117020235Y-109157988D01*
X117259924Y-109029871D01*
X117318025Y-108897651D01*
X120377256Y-108897651D01*
X121440000Y-109960395D01*
X122502744Y-108897651D01*
X122388882Y-108617910D01*
X122073704Y-108462039D01*
X121734174Y-108370651D01*
X121383339Y-108347259D01*
X121034681Y-108392760D01*
X120701600Y-108505406D01*
X120491118Y-108617910D01*
X120377256Y-108897651D01*
X117318025Y-108897651D01*
X117388247Y-108737852D01*
X116240000Y-107589605D01*
X115091753Y-108737852D01*
X112869364Y-108737852D01*
X113073281Y-108432670D01*
X113236030Y-108039757D01*
X113319000Y-107622643D01*
X113319000Y-107461916D01*
X114326486Y-107461916D01*
X114373382Y-107834227D01*
X114492012Y-108190235D01*
X114620129Y-108429924D01*
X114912148Y-108558247D01*
X116060395Y-107410000D01*
X116419605Y-107410000D01*
X117567852Y-108558247D01*
X117859871Y-108429924D01*
X118027723Y-108094305D01*
X118126874Y-107732389D01*
X118153514Y-107358084D01*
X118106618Y-106985773D01*
X117987988Y-106629765D01*
X117859871Y-106390076D01*
X117567852Y-106261753D01*
X116419605Y-107410000D01*
X116060395Y-107410000D01*
X114912148Y-106261753D01*
X114620129Y-106390076D01*
X114452277Y-106725695D01*
X114353126Y-107087611D01*
X114326486Y-107461916D01*
X113319000Y-107461916D01*
X113319000Y-107197357D01*
X113236030Y-106780243D01*
X113073281Y-106387330D01*
X112869365Y-106082148D01*
X115091753Y-106082148D01*
X116240000Y-107230395D01*
X117388247Y-106082148D01*
X117259924Y-105790129D01*
X116924305Y-105622277D01*
X116562389Y-105523126D01*
X116188084Y-105496486D01*
X115815773Y-105543382D01*
X115459765Y-105662012D01*
X115220076Y-105790129D01*
X115091753Y-106082148D01*
X112869365Y-106082148D01*
X112837004Y-106033718D01*
X112536282Y-105732996D01*
X112182670Y-105496719D01*
X111789757Y-105333970D01*
X111372643Y-105251000D01*
X110947357Y-105251000D01*
X110530243Y-105333970D01*
X110137330Y-105496719D01*
X109783718Y-105732996D01*
X109482996Y-106033718D01*
X109246719Y-106387330D01*
X109083970Y-106780243D01*
X109001000Y-107197357D01*
X108277000Y-107197357D01*
X108277000Y-107193614D01*
X108192570Y-106769159D01*
X108026956Y-106369330D01*
X107786521Y-106009494D01*
X107480506Y-105703479D01*
X107120670Y-105463044D01*
X106720841Y-105297430D01*
X106296386Y-105213000D01*
X105863614Y-105213000D01*
X105439159Y-105297430D01*
X105039330Y-105463044D01*
X104679494Y-105703479D01*
X104373479Y-106009494D01*
X104133044Y-106369330D01*
X103967430Y-106769159D01*
X103883000Y-107193614D01*
X100914000Y-107193614D01*
X100914000Y-78486000D01*
X105053500Y-78486000D01*
X105065000Y-78602763D01*
X105065001Y-83401333D01*
X105053500Y-83518105D01*
X105099394Y-83984078D01*
X105235313Y-84432144D01*
X105456034Y-84845085D01*
X105678637Y-85116327D01*
X105678642Y-85116332D01*
X105753076Y-85207030D01*
X105843774Y-85281464D01*
X110750540Y-90188231D01*
X110824979Y-90278935D01*
X111186924Y-90575976D01*
X111599864Y-90796697D01*
X112047931Y-90932617D01*
X112397132Y-90967010D01*
X112397141Y-90967010D01*
X112513903Y-90978510D01*
X112630666Y-90967010D01*
X121224228Y-90967010D01*
X121340990Y-90978510D01*
X121457752Y-90967010D01*
X121457762Y-90967010D01*
X121806963Y-90932617D01*
X122255030Y-90796697D01*
X122667970Y-90575976D01*
X123029915Y-90278935D01*
X123104353Y-90188232D01*
X125115586Y-88177000D01*
X126785904Y-88177000D01*
X127145732Y-88326046D01*
X127653263Y-88427000D01*
X128170737Y-88427000D01*
X128678268Y-88326046D01*
X129156351Y-88128017D01*
X129586615Y-87840524D01*
X129952524Y-87474615D01*
X130240017Y-87044351D01*
X130438046Y-86566268D01*
X130539000Y-86058737D01*
X130539000Y-85541263D01*
X130438046Y-85033732D01*
X130240017Y-84555649D01*
X129952524Y-84125385D01*
X129586615Y-83759476D01*
X129156351Y-83471983D01*
X128678268Y-83273954D01*
X128170737Y-83173000D01*
X127653263Y-83173000D01*
X127145732Y-83273954D01*
X126785904Y-83423000D01*
X124247762Y-83423000D01*
X124131000Y-83411500D01*
X124014237Y-83423000D01*
X124014228Y-83423000D01*
X123665027Y-83457393D01*
X123216960Y-83593313D01*
X122804020Y-83814034D01*
X122804018Y-83814035D01*
X122804019Y-83814035D01*
X122532777Y-84036637D01*
X122532773Y-84036641D01*
X122442075Y-84111075D01*
X122367641Y-84201773D01*
X120356405Y-86213010D01*
X120328577Y-86213010D01*
X121648222Y-84893365D01*
X121738926Y-84818926D01*
X122035967Y-84456981D01*
X122173354Y-84199948D01*
X122256688Y-84044041D01*
X122332968Y-83792580D01*
X122392608Y-83595973D01*
X122427001Y-83246772D01*
X122427001Y-83246764D01*
X122438501Y-83130002D01*
X122427001Y-83013239D01*
X122427001Y-82994584D01*
X122762759Y-82658826D01*
X122847998Y-82601871D01*
X123181871Y-82267998D01*
X123238826Y-82182759D01*
X127374285Y-78047300D01*
X128709833Y-78047300D01*
X128498467Y-78188530D01*
X128200530Y-78486467D01*
X127966443Y-78836803D01*
X127805200Y-79226077D01*
X127723000Y-79639327D01*
X127723000Y-80060673D01*
X127805200Y-80473923D01*
X127966443Y-80863197D01*
X128200530Y-81213533D01*
X128498467Y-81511470D01*
X128623001Y-81594681D01*
X128623001Y-81795132D01*
X128617006Y-81856000D01*
X128640928Y-82098886D01*
X128711776Y-82332437D01*
X128711777Y-82332439D01*
X128826826Y-82547682D01*
X128981657Y-82736344D01*
X129028930Y-82775140D01*
X132619000Y-86365210D01*
X132619001Y-92955131D01*
X132613006Y-93016000D01*
X132636928Y-93258886D01*
X132693388Y-93445006D01*
X132707777Y-93492439D01*
X132822826Y-93707682D01*
X132977657Y-93896344D01*
X133024930Y-93935140D01*
X135587471Y-96497681D01*
X135565377Y-96722000D01*
X135603780Y-97111912D01*
X135717513Y-97486840D01*
X135902206Y-97832375D01*
X136150760Y-98135240D01*
X136453625Y-98383794D01*
X136799160Y-98568487D01*
X137174088Y-98682220D01*
X137466296Y-98711000D01*
X137661704Y-98711000D01*
X137953912Y-98682220D01*
X138328840Y-98568487D01*
X138674375Y-98383794D01*
X138977240Y-98135240D01*
X139225794Y-97832375D01*
X139410487Y-97486840D01*
X139524220Y-97111912D01*
X139562623Y-96722000D01*
X139524220Y-96332088D01*
X139410487Y-95957160D01*
X139225794Y-95611625D01*
X138977240Y-95308760D01*
X138674375Y-95060206D01*
X138328840Y-94875513D01*
X137953912Y-94761780D01*
X137661704Y-94733000D01*
X137466296Y-94733000D01*
X137339681Y-94745471D01*
X135097000Y-92502790D01*
X135097000Y-85912858D01*
X135102994Y-85851999D01*
X135079072Y-85609113D01*
X135008224Y-85375561D01*
X134971758Y-85307337D01*
X134893175Y-85160318D01*
X134738344Y-84971656D01*
X134691067Y-84932857D01*
X131247607Y-81489397D01*
X131523470Y-81213533D01*
X131757557Y-80863197D01*
X131918800Y-80473923D01*
X132001000Y-80060673D01*
X132001000Y-79639327D01*
X131918800Y-79226077D01*
X131757557Y-78836803D01*
X131523470Y-78486467D01*
X131225533Y-78188530D01*
X130875197Y-77954443D01*
X130505570Y-77801338D01*
X130776980Y-77656266D01*
X131138925Y-77359225D01*
X131435966Y-76997280D01*
X131656687Y-76584340D01*
X131792607Y-76136273D01*
X131838501Y-75670300D01*
X131827000Y-75553528D01*
X131827000Y-74527000D01*
X134113369Y-74527000D01*
X134213916Y-74547000D01*
X134686084Y-74547000D01*
X135149179Y-74454885D01*
X135585405Y-74274194D01*
X135977998Y-74011871D01*
X136311871Y-73677998D01*
X136418001Y-73519164D01*
X136418000Y-88239935D01*
X136407652Y-88345000D01*
X136418000Y-88450065D01*
X136418000Y-88450074D01*
X136448950Y-88764316D01*
X136571260Y-89167519D01*
X136769882Y-89539114D01*
X137037181Y-89864819D01*
X137118800Y-89931802D01*
X139786704Y-92599706D01*
X139944896Y-92981616D01*
X140206343Y-93372899D01*
X140539101Y-93705657D01*
X140930384Y-93967104D01*
X141365155Y-94147192D01*
X141826704Y-94239000D01*
X142297296Y-94239000D01*
X142758845Y-94147192D01*
X143193616Y-93967104D01*
X143584899Y-93705657D01*
X143917657Y-93372899D01*
X144179104Y-92981616D01*
X144359192Y-92546845D01*
X144451000Y-92085296D01*
X144451000Y-91614704D01*
X144411975Y-91418512D01*
X150855783Y-91418512D01*
X150897213Y-91698130D01*
X150992397Y-91964292D01*
X151059329Y-92089514D01*
X151303298Y-92161097D01*
X152116395Y-91348000D01*
X151303298Y-90534903D01*
X151059329Y-90606486D01*
X150938429Y-90861996D01*
X150869700Y-91136184D01*
X150855783Y-91418512D01*
X144411975Y-91418512D01*
X144359192Y-91153155D01*
X144179104Y-90718384D01*
X143917657Y-90327101D01*
X143584899Y-89994343D01*
X143193616Y-89732896D01*
X142811706Y-89574704D01*
X140696000Y-87458998D01*
X140696000Y-83370512D01*
X150855783Y-83370512D01*
X150897213Y-83650130D01*
X150992397Y-83916292D01*
X151059329Y-84041514D01*
X151303298Y-84113097D01*
X152116395Y-83300000D01*
X151303298Y-82486903D01*
X151059329Y-82558486D01*
X150938429Y-82813996D01*
X150869700Y-83088184D01*
X150855783Y-83370512D01*
X140696000Y-83370512D01*
X140696000Y-81727085D01*
X140980384Y-81917104D01*
X141415155Y-82097192D01*
X141876704Y-82189000D01*
X142347296Y-82189000D01*
X142808845Y-82097192D01*
X143243616Y-81917104D01*
X143634899Y-81655657D01*
X143967657Y-81322899D01*
X144229104Y-80931616D01*
X144409192Y-80496845D01*
X144501000Y-80035296D01*
X144501000Y-79564704D01*
X144409192Y-79103155D01*
X144229104Y-78668384D01*
X144205263Y-78632702D01*
X150186903Y-78632702D01*
X150258486Y-78876671D01*
X150513996Y-78997571D01*
X150788184Y-79066300D01*
X151070512Y-79080217D01*
X151350130Y-79038787D01*
X151616292Y-78943603D01*
X151741514Y-78876671D01*
X151813097Y-78632702D01*
X151000000Y-77819605D01*
X150186903Y-78632702D01*
X144205263Y-78632702D01*
X143967657Y-78277101D01*
X143634899Y-77944343D01*
X143243616Y-77682896D01*
X142808845Y-77502808D01*
X142347296Y-77411000D01*
X141876704Y-77411000D01*
X141415155Y-77502808D01*
X140980384Y-77682896D01*
X140696000Y-77872915D01*
X140696000Y-74313301D01*
X140720000Y-74313301D01*
X140894274Y-74296136D01*
X141061851Y-74245303D01*
X141216291Y-74162753D01*
X141351659Y-74051659D01*
X141462753Y-73916291D01*
X141545303Y-73761851D01*
X141596136Y-73594274D01*
X141613301Y-73420000D01*
X141613301Y-70880000D01*
X141596136Y-70705726D01*
X141545303Y-70538149D01*
X141462753Y-70383709D01*
X141351659Y-70248341D01*
X141216291Y-70137247D01*
X141061851Y-70054697D01*
X140894274Y-70003864D01*
X140720000Y-69986699D01*
X138180000Y-69986699D01*
X138005726Y-70003864D01*
X137838149Y-70054697D01*
X137683709Y-70137247D01*
X137548341Y-70248341D01*
X137437247Y-70383709D01*
X137354697Y-70538149D01*
X137303864Y-70705726D01*
X137286699Y-70880000D01*
X137286699Y-71288299D01*
X137118796Y-71456202D01*
X137037182Y-71523181D01*
X136970204Y-71604794D01*
X136970200Y-71604798D01*
X136821543Y-71785936D01*
X136754885Y-71450821D01*
X136574194Y-71014595D01*
X136311871Y-70622002D01*
X135977998Y-70288129D01*
X135585405Y-70025806D01*
X135149179Y-69845115D01*
X134686084Y-69753000D01*
X134213916Y-69753000D01*
X134113369Y-69773000D01*
X130953105Y-69773000D01*
X130940931Y-69769307D01*
X130720000Y-69747547D01*
X128180000Y-69747547D01*
X127959069Y-69769307D01*
X127746629Y-69833750D01*
X127550843Y-69938400D01*
X127379235Y-70079235D01*
X127238400Y-70250843D01*
X127133750Y-70446629D01*
X127069307Y-70659069D01*
X127047547Y-70880000D01*
X127047547Y-73293300D01*
X126568919Y-73293300D01*
X126574194Y-73285405D01*
X126754885Y-72849179D01*
X126847000Y-72386084D01*
X126847000Y-71913916D01*
X126754885Y-71450821D01*
X126574194Y-71014595D01*
X126311871Y-70622002D01*
X125977998Y-70288129D01*
X125775804Y-70153027D01*
X125720980Y-70108034D01*
X125658433Y-70074602D01*
X125585405Y-70025806D01*
X125504259Y-69992194D01*
X125308040Y-69887313D01*
X124859973Y-69751393D01*
X124510772Y-69717000D01*
X118524228Y-69717000D01*
X118175027Y-69751393D01*
X117726960Y-69887313D01*
X117314020Y-70108034D01*
X116952075Y-70405075D01*
X116655034Y-70767020D01*
X116434313Y-71179960D01*
X116298393Y-71628027D01*
X116252499Y-72094000D01*
X116298393Y-72559973D01*
X116434313Y-73008040D01*
X116655034Y-73420980D01*
X116952075Y-73782925D01*
X117314020Y-74079966D01*
X117726960Y-74300687D01*
X118175027Y-74436607D01*
X118524228Y-74471000D01*
X123831837Y-74471000D01*
X124161785Y-74536630D01*
X119877241Y-78821174D01*
X119792002Y-78878129D01*
X119458129Y-79212002D01*
X119401174Y-79297241D01*
X118617000Y-80081415D01*
X118617000Y-76732762D01*
X118628500Y-76615999D01*
X118617000Y-76499237D01*
X118617000Y-76499228D01*
X118582607Y-76150027D01*
X118446687Y-75701960D01*
X118225966Y-75289020D01*
X117928925Y-74927075D01*
X117838219Y-74852635D01*
X117788966Y-74803381D01*
X117714525Y-74712675D01*
X117352580Y-74415634D01*
X116939640Y-74194913D01*
X116491573Y-74058993D01*
X116142372Y-74024600D01*
X116142362Y-74024600D01*
X116025600Y-74013100D01*
X115938000Y-74021728D01*
X115938000Y-71967228D01*
X115903607Y-71618027D01*
X115767687Y-71169960D01*
X115546966Y-70757020D01*
X115249925Y-70395075D01*
X114887979Y-70098034D01*
X114475039Y-69877313D01*
X114026972Y-69741393D01*
X113561000Y-69695499D01*
X113095027Y-69741393D01*
X112646960Y-69877313D01*
X112234020Y-70098034D01*
X111872075Y-70395075D01*
X111575034Y-70757021D01*
X111354313Y-71169961D01*
X111218393Y-71618028D01*
X111184000Y-71967229D01*
X111184000Y-74024600D01*
X109643162Y-74024600D01*
X109526400Y-74013100D01*
X109409637Y-74024600D01*
X109409628Y-74024600D01*
X109060427Y-74058993D01*
X108657101Y-74181341D01*
X108612360Y-74194913D01*
X108199419Y-74415634D01*
X107928177Y-74638237D01*
X107928173Y-74638241D01*
X107837475Y-74712675D01*
X107763041Y-74803374D01*
X105843778Y-76722637D01*
X105753075Y-76797075D01*
X105456034Y-77159021D01*
X105235313Y-77571961D01*
X105099393Y-78020028D01*
X105065000Y-78369229D01*
X105065000Y-78369238D01*
X105053500Y-78486000D01*
X100914000Y-78486000D01*
X100914000Y-71914155D01*
X101265450Y-71914155D01*
X101661634Y-72434550D01*
X102376612Y-72824748D01*
X103153976Y-73067964D01*
X103963853Y-73154851D01*
X104775118Y-73082069D01*
X105556597Y-72852415D01*
X106278256Y-72474715D01*
X106338366Y-72434550D01*
X106734550Y-71914155D01*
X104000000Y-69179605D01*
X101265450Y-71914155D01*
X100914000Y-71914155D01*
X100914000Y-71603722D01*
X101085845Y-71734550D01*
X103820395Y-69000000D01*
X104179605Y-69000000D01*
X106914155Y-71734550D01*
X107434550Y-71338366D01*
X107824748Y-70623388D01*
X108067964Y-69846024D01*
X108154851Y-69036147D01*
X108101727Y-68444000D01*
X145678515Y-68444000D01*
X145678515Y-70644000D01*
X145696413Y-70825724D01*
X145749420Y-71000464D01*
X145835499Y-71161505D01*
X145951341Y-71302659D01*
X146033001Y-71369675D01*
X146033001Y-71874193D01*
X146026096Y-71944300D01*
X146053648Y-72224041D01*
X146135245Y-72493031D01*
X146267752Y-72740934D01*
X146446077Y-72958223D01*
X146663366Y-73136548D01*
X146911269Y-73269055D01*
X147180259Y-73350652D01*
X147389902Y-73371300D01*
X147389903Y-73371300D01*
X147460000Y-73378204D01*
X147530098Y-73371300D01*
X148813518Y-73371300D01*
X149573001Y-74130783D01*
X149573001Y-74155359D01*
X149541341Y-74181341D01*
X149425499Y-74322495D01*
X149339420Y-74483536D01*
X149286413Y-74658276D01*
X149268515Y-74840000D01*
X149268515Y-76440000D01*
X149286413Y-76621724D01*
X149339420Y-76796464D01*
X149425499Y-76957505D01*
X149541341Y-77098659D01*
X149636686Y-77176907D01*
X149573700Y-77428184D01*
X149559783Y-77710512D01*
X149601213Y-77990130D01*
X149696397Y-78256292D01*
X149763329Y-78381514D01*
X150007298Y-78453097D01*
X150820395Y-77640000D01*
X150806253Y-77625858D01*
X150985858Y-77446253D01*
X151000000Y-77460395D01*
X151014143Y-77446253D01*
X151193748Y-77625858D01*
X151179605Y-77640000D01*
X151992702Y-78453097D01*
X152236671Y-78381514D01*
X152357571Y-78126004D01*
X152426300Y-77851816D01*
X152440217Y-77569488D01*
X152398787Y-77289870D01*
X152359507Y-77180031D01*
X152458659Y-77098659D01*
X152574501Y-76957505D01*
X152660580Y-76796464D01*
X152713587Y-76621724D01*
X152731485Y-76440000D01*
X152731485Y-74840000D01*
X152713587Y-74658276D01*
X152660580Y-74483536D01*
X152574501Y-74322495D01*
X152458659Y-74181341D01*
X152427000Y-74155359D01*
X152427000Y-73609787D01*
X152433903Y-73539699D01*
X152427000Y-73469611D01*
X152427000Y-73469602D01*
X152406352Y-73259959D01*
X152324755Y-72990969D01*
X152192248Y-72743066D01*
X152013923Y-72525777D01*
X151959472Y-72481090D01*
X150810820Y-71332438D01*
X150970811Y-71246922D01*
X151235608Y-71029608D01*
X151432829Y-70789294D01*
X151564546Y-70927337D01*
X151804392Y-71095862D01*
X152072507Y-71214357D01*
X152183110Y-71235476D01*
X152413000Y-71114155D01*
X152413000Y-69671000D01*
X152393000Y-69671000D01*
X152393000Y-69417000D01*
X152413000Y-69417000D01*
X152413000Y-67973845D01*
X152667000Y-67973845D01*
X152667000Y-69417000D01*
X153871496Y-69417000D01*
X154031140Y-69182360D01*
X153980708Y-68893598D01*
X153874911Y-68620223D01*
X153717814Y-68372741D01*
X153515454Y-68160663D01*
X153275608Y-67992138D01*
X153007493Y-67873643D01*
X152896890Y-67852524D01*
X152667000Y-67973845D01*
X152413000Y-67973845D01*
X152183110Y-67852524D01*
X152072507Y-67873643D01*
X151804392Y-67992138D01*
X151564546Y-68160663D01*
X151432829Y-68298706D01*
X151235608Y-68058392D01*
X150970810Y-67841078D01*
X150668705Y-67679600D01*
X150340903Y-67580162D01*
X150000000Y-67546586D01*
X149659096Y-67580162D01*
X149331294Y-67679600D01*
X149029189Y-67841078D01*
X149020353Y-67848330D01*
X148968659Y-67785341D01*
X148827505Y-67669499D01*
X148666464Y-67583420D01*
X148491724Y-67530413D01*
X148310000Y-67512515D01*
X146610000Y-67512515D01*
X146428276Y-67530413D01*
X146253536Y-67583420D01*
X146092495Y-67669499D01*
X145951341Y-67785341D01*
X145835499Y-67926495D01*
X145749420Y-68087536D01*
X145696413Y-68262276D01*
X145678515Y-68444000D01*
X108101727Y-68444000D01*
X108082069Y-68224882D01*
X107852415Y-67443403D01*
X107474715Y-66721744D01*
X107434550Y-66661634D01*
X106914155Y-66265450D01*
X104179605Y-69000000D01*
X103820395Y-69000000D01*
X101085845Y-66265450D01*
X100914000Y-66396278D01*
X100914000Y-65914000D01*
X101396278Y-65914000D01*
X101265450Y-66085845D01*
G36*
X161846697Y-102946149D02*
G01*
X161795864Y-103113726D01*
X161778699Y-103288000D01*
X161778699Y-104888000D01*
X161795864Y-105062274D01*
X161846697Y-105229851D01*
X161929247Y-105384291D01*
X162040341Y-105519659D01*
X162175709Y-105630753D01*
X162233001Y-105661376D01*
X162233000Y-108069701D01*
X162187237Y-108001211D01*
X162098789Y-107912763D01*
X161994785Y-107843270D01*
X161879223Y-107795403D01*
X161756542Y-107771000D01*
X161217750Y-107771000D01*
X161059000Y-107929750D01*
X161059000Y-109041000D01*
X161079000Y-109041000D01*
X161079000Y-109295000D01*
X161059000Y-109295000D01*
X161059000Y-109315000D01*
X160805000Y-109315000D01*
X160805000Y-109295000D01*
X160785000Y-109295000D01*
X160785000Y-109041000D01*
X160805000Y-109041000D01*
X160805000Y-108300280D01*
X160826479Y-108248425D01*
X160883700Y-107960754D01*
X160883700Y-107667446D01*
X160826479Y-107379775D01*
X160714235Y-107108794D01*
X160551282Y-106864918D01*
X160343882Y-106657518D01*
X160100006Y-106494565D01*
X159829025Y-106382321D01*
X159541354Y-106325100D01*
X159347300Y-106325100D01*
X159347300Y-105403210D01*
X161895310Y-102855201D01*
X161846697Y-102946149D01*
X161846697Y-102946149D01*
G37*
X161846697Y-102946149D02*
X161795864Y-103113726D01*
X161778699Y-103288000D01*
X161778699Y-104888000D01*
X161795864Y-105062274D01*
X161846697Y-105229851D01*
X161929247Y-105384291D01*
X162040341Y-105519659D01*
X162175709Y-105630753D01*
X162233001Y-105661376D01*
X162233000Y-108069701D01*
X162187237Y-108001211D01*
X162098789Y-107912763D01*
X161994785Y-107843270D01*
X161879223Y-107795403D01*
X161756542Y-107771000D01*
X161217750Y-107771000D01*
X161059000Y-107929750D01*
X161059000Y-109041000D01*
X161079000Y-109041000D01*
X161079000Y-109295000D01*
X161059000Y-109295000D01*
X161059000Y-109315000D01*
X160805000Y-109315000D01*
X160805000Y-109295000D01*
X160785000Y-109295000D01*
X160785000Y-109041000D01*
X160805000Y-109041000D01*
X160805000Y-108300280D01*
X160826479Y-108248425D01*
X160883700Y-107960754D01*
X160883700Y-107667446D01*
X160826479Y-107379775D01*
X160714235Y-107108794D01*
X160551282Y-106864918D01*
X160343882Y-106657518D01*
X160100006Y-106494565D01*
X159829025Y-106382321D01*
X159541354Y-106325100D01*
X159347300Y-106325100D01*
X159347300Y-105403210D01*
X161895310Y-102855201D01*
X161846697Y-102946149D01*
G36*
X171143888Y-85972896D02*
G01*
X171174100Y-85989045D01*
X171044481Y-86106586D01*
X170876963Y-86332580D01*
X170756754Y-86586913D01*
X170716096Y-86720961D01*
X170838085Y-86943000D01*
X171981000Y-86943000D01*
X171981000Y-86923000D01*
X172235000Y-86923000D01*
X172235000Y-86943000D01*
X172255000Y-86943000D01*
X172255000Y-87197000D01*
X172235000Y-87197000D01*
X172235000Y-87217000D01*
X171981000Y-87217000D01*
X171981000Y-87197000D01*
X170838085Y-87197000D01*
X170716096Y-87419039D01*
X170756754Y-87553087D01*
X170876963Y-87807420D01*
X171044481Y-88033414D01*
X171203995Y-88178065D01*
X171165102Y-88198853D01*
X170907918Y-88409918D01*
X170696853Y-88667102D01*
X170540018Y-88960520D01*
X170443439Y-89278898D01*
X170410828Y-89610000D01*
X170443439Y-89941102D01*
X170540018Y-90259480D01*
X170696853Y-90552898D01*
X170907918Y-90810082D01*
X170993114Y-90880000D01*
X170907918Y-90949918D01*
X170696853Y-91207102D01*
X170540018Y-91500520D01*
X170443439Y-91818898D01*
X170410828Y-92150000D01*
X170443439Y-92481102D01*
X170540018Y-92799480D01*
X170696853Y-93092898D01*
X170907918Y-93350082D01*
X170993114Y-93420000D01*
X170907918Y-93489918D01*
X170696853Y-93747102D01*
X170540018Y-94040520D01*
X170443439Y-94358898D01*
X170410828Y-94690000D01*
X170443439Y-95021102D01*
X170540018Y-95339480D01*
X170696853Y-95632898D01*
X170907918Y-95890082D01*
X170993114Y-95960000D01*
X170907918Y-96029918D01*
X170696853Y-96287102D01*
X170540018Y-96580520D01*
X170443439Y-96898898D01*
X170410828Y-97230000D01*
X170443439Y-97561102D01*
X170540018Y-97879480D01*
X170696853Y-98172898D01*
X170907918Y-98430082D01*
X170993114Y-98500000D01*
X170907918Y-98569918D01*
X170696853Y-98827102D01*
X170540018Y-99120520D01*
X170443439Y-99438898D01*
X170410828Y-99770000D01*
X170443439Y-100101102D01*
X170540018Y-100419480D01*
X170696853Y-100712898D01*
X170907918Y-100970082D01*
X170993114Y-101040000D01*
X170907918Y-101109918D01*
X170696853Y-101367102D01*
X170540018Y-101660520D01*
X170443439Y-101978898D01*
X170410828Y-102310000D01*
X170421395Y-102417284D01*
X166410409Y-98406299D01*
X166504789Y-98343237D01*
X166593237Y-98254789D01*
X166662730Y-98150785D01*
X166710597Y-98035223D01*
X166735000Y-97912542D01*
X166735000Y-97285750D01*
X166576250Y-97127000D01*
X165377000Y-97127000D01*
X165377000Y-97147000D01*
X165123000Y-97147000D01*
X165123000Y-97127000D01*
X162837000Y-97127000D01*
X162837000Y-97147000D01*
X162583000Y-97147000D01*
X162583000Y-97127000D01*
X162563000Y-97127000D01*
X162563000Y-96873000D01*
X162583000Y-96873000D01*
X162583000Y-95679845D01*
X162837000Y-95679845D01*
X162837000Y-96873000D01*
X165123000Y-96873000D01*
X165123000Y-95673750D01*
X165377000Y-95673750D01*
X165377000Y-96873000D01*
X166576250Y-96873000D01*
X166735000Y-96714250D01*
X166735000Y-96087458D01*
X166710597Y-95964777D01*
X166662730Y-95849215D01*
X166593237Y-95745211D01*
X166504789Y-95656763D01*
X166400785Y-95587270D01*
X166285223Y-95539403D01*
X166162542Y-95515000D01*
X165535750Y-95515000D01*
X165377000Y-95673750D01*
X165123000Y-95673750D01*
X164964250Y-95515000D01*
X164337458Y-95515000D01*
X164214777Y-95539403D01*
X164099215Y-95587270D01*
X163995211Y-95656763D01*
X163906763Y-95745211D01*
X163837270Y-95849215D01*
X163789403Y-95964777D01*
X163785260Y-95985607D01*
X163710269Y-95902412D01*
X163476920Y-95728359D01*
X163214099Y-95603175D01*
X163066890Y-95558524D01*
X162837000Y-95679845D01*
X162583000Y-95679845D01*
X162353110Y-95558524D01*
X162205901Y-95603175D01*
X161943080Y-95728359D01*
X161709731Y-95902412D01*
X161635564Y-95984694D01*
X161597000Y-95937704D01*
X161597000Y-94958782D01*
X170598783Y-85957000D01*
X171124519Y-85957000D01*
X171143888Y-85972896D01*
X171143888Y-85972896D01*
G37*
X171143888Y-85972896D02*
X171174100Y-85989045D01*
X171044481Y-86106586D01*
X170876963Y-86332580D01*
X170756754Y-86586913D01*
X170716096Y-86720961D01*
X170838085Y-86943000D01*
X171981000Y-86943000D01*
X171981000Y-86923000D01*
X172235000Y-86923000D01*
X172235000Y-86943000D01*
X172255000Y-86943000D01*
X172255000Y-87197000D01*
X172235000Y-87197000D01*
X172235000Y-87217000D01*
X171981000Y-87217000D01*
X171981000Y-87197000D01*
X170838085Y-87197000D01*
X170716096Y-87419039D01*
X170756754Y-87553087D01*
X170876963Y-87807420D01*
X171044481Y-88033414D01*
X171203995Y-88178065D01*
X171165102Y-88198853D01*
X170907918Y-88409918D01*
X170696853Y-88667102D01*
X170540018Y-88960520D01*
X170443439Y-89278898D01*
X170410828Y-89610000D01*
X170443439Y-89941102D01*
X170540018Y-90259480D01*
X170696853Y-90552898D01*
X170907918Y-90810082D01*
X170993114Y-90880000D01*
X170907918Y-90949918D01*
X170696853Y-91207102D01*
X170540018Y-91500520D01*
X170443439Y-91818898D01*
X170410828Y-92150000D01*
X170443439Y-92481102D01*
X170540018Y-92799480D01*
X170696853Y-93092898D01*
X170907918Y-93350082D01*
X170993114Y-93420000D01*
X170907918Y-93489918D01*
X170696853Y-93747102D01*
X170540018Y-94040520D01*
X170443439Y-94358898D01*
X170410828Y-94690000D01*
X170443439Y-95021102D01*
X170540018Y-95339480D01*
X170696853Y-95632898D01*
X170907918Y-95890082D01*
X170993114Y-95960000D01*
X170907918Y-96029918D01*
X170696853Y-96287102D01*
X170540018Y-96580520D01*
X170443439Y-96898898D01*
X170410828Y-97230000D01*
X170443439Y-97561102D01*
X170540018Y-97879480D01*
X170696853Y-98172898D01*
X170907918Y-98430082D01*
X170993114Y-98500000D01*
X170907918Y-98569918D01*
X170696853Y-98827102D01*
X170540018Y-99120520D01*
X170443439Y-99438898D01*
X170410828Y-99770000D01*
X170443439Y-100101102D01*
X170540018Y-100419480D01*
X170696853Y-100712898D01*
X170907918Y-100970082D01*
X170993114Y-101040000D01*
X170907918Y-101109918D01*
X170696853Y-101367102D01*
X170540018Y-101660520D01*
X170443439Y-101978898D01*
X170410828Y-102310000D01*
X170421395Y-102417284D01*
X166410409Y-98406299D01*
X166504789Y-98343237D01*
X166593237Y-98254789D01*
X166662730Y-98150785D01*
X166710597Y-98035223D01*
X166735000Y-97912542D01*
X166735000Y-97285750D01*
X166576250Y-97127000D01*
X165377000Y-97127000D01*
X165377000Y-97147000D01*
X165123000Y-97147000D01*
X165123000Y-97127000D01*
X162837000Y-97127000D01*
X162837000Y-97147000D01*
X162583000Y-97147000D01*
X162583000Y-97127000D01*
X162563000Y-97127000D01*
X162563000Y-96873000D01*
X162583000Y-96873000D01*
X162583000Y-95679845D01*
X162837000Y-95679845D01*
X162837000Y-96873000D01*
X165123000Y-96873000D01*
X165123000Y-95673750D01*
X165377000Y-95673750D01*
X165377000Y-96873000D01*
X166576250Y-96873000D01*
X166735000Y-96714250D01*
X166735000Y-96087458D01*
X166710597Y-95964777D01*
X166662730Y-95849215D01*
X166593237Y-95745211D01*
X166504789Y-95656763D01*
X166400785Y-95587270D01*
X166285223Y-95539403D01*
X166162542Y-95515000D01*
X165535750Y-95515000D01*
X165377000Y-95673750D01*
X165123000Y-95673750D01*
X164964250Y-95515000D01*
X164337458Y-95515000D01*
X164214777Y-95539403D01*
X164099215Y-95587270D01*
X163995211Y-95656763D01*
X163906763Y-95745211D01*
X163837270Y-95849215D01*
X163789403Y-95964777D01*
X163785260Y-95985607D01*
X163710269Y-95902412D01*
X163476920Y-95728359D01*
X163214099Y-95603175D01*
X163066890Y-95558524D01*
X162837000Y-95679845D01*
X162583000Y-95679845D01*
X162353110Y-95558524D01*
X162205901Y-95603175D01*
X161943080Y-95728359D01*
X161709731Y-95902412D01*
X161635564Y-95984694D01*
X161597000Y-95937704D01*
X161597000Y-94958782D01*
X170598783Y-85957000D01*
X171124519Y-85957000D01*
X171143888Y-85972896D01*
G36*
X163665748Y-102073858D02*
G01*
X163651605Y-102088000D01*
X163665748Y-102102143D01*
X163486143Y-102281748D01*
X163472000Y-102267605D01*
X163457858Y-102281748D01*
X163278253Y-102102143D01*
X163292395Y-102088000D01*
X163278253Y-102073858D01*
X163457858Y-101894253D01*
X163472000Y-101908395D01*
X163486143Y-101894253D01*
X163665748Y-102073858D01*
X163665748Y-102073858D01*
G37*
X163665748Y-102073858D02*
X163651605Y-102088000D01*
X163665748Y-102102143D01*
X163486143Y-102281748D01*
X163472000Y-102267605D01*
X163457858Y-102281748D01*
X163278253Y-102102143D01*
X163292395Y-102088000D01*
X163278253Y-102073858D01*
X163457858Y-101894253D01*
X163472000Y-101908395D01*
X163486143Y-101894253D01*
X163665748Y-102073858D01*
M02*
