M48
; DRILL file {KiCad (6.0.0-rc1-dev-1491-g0a4812be0)} date 2019-01-22 09:02:14
; FORMAT={-:-/ absolute / inch / decimal}
; #@! TF.CreationDate,2019-01-22T09:02:14+01:00
; #@! TF.GenerationSoftware,Kicad,Pcbnew,(6.0.0-rc1-dev-1491-g0a4812be0)
; #@! TF.FileFunction,Plated,1,2,PTH
FMAT,2
INCH
T1C0.0197
T2C0.0236
T3C0.0295
T4C0.0300
T5C0.0315
T6C0.0354
T7C0.0394
T8C0.0400
T9C0.0433
T10C0.0512
T11C0.1378
%
G90
G05
T1
X7.2195Y-4.7638
X7.2498Y-4.6907
X7.2498Y-4.8369
X7.3228Y-4.6604
X7.3228Y-4.8671
X7.3959Y-4.6907
X7.3959Y-4.8369
X7.4262Y-4.7638
X3.9911Y-4.7638
X4.0214Y-4.6907
X4.0214Y-4.8369
X4.0945Y-4.6604
X4.0945Y-4.8671
X4.1676Y-4.6907
X4.1676Y-4.8369
X4.1978Y-4.7638
X7.2195Y-2.7165
X7.2498Y-2.6435
X7.2498Y-2.7896
X7.3228Y-2.6132
X7.3228Y-2.8199
X7.3959Y-2.6435
X7.3959Y-2.7896
X7.4262Y-2.7165
X3.9911Y-2.7165
X4.0214Y-2.6435
X4.0214Y-2.7896
X4.0945Y-2.6132
X4.0945Y-2.8199
X4.1676Y-2.6435
X4.1676Y-2.7896
X4.1978Y-2.7165
T2
X6.0686Y-3.2321
X6.2754Y-4.2446
T3
X7.2359Y-3.608
X7.2859Y-3.558
X7.2859Y-3.658
X5.3459Y-4.128
X5.6459Y-4.128
T4
X6.3359Y-4.298
X6.3359Y-4.398
X6.3359Y-4.498
X6.3359Y-4.598
X6.4359Y-4.298
X6.4359Y-4.398
X6.4359Y-4.498
X6.4359Y-4.598
T5
X5.9449Y-2.978
X5.9449Y-3.0567
X6.4359Y-4.0192
X6.4359Y-4.098
X6.7759Y-2.728
X6.7759Y-2.828
X6.7759Y-2.928
X6.7759Y-3.028
X6.7759Y-3.128
X6.7759Y-3.228
X6.7759Y-3.328
X6.7759Y-3.428
X6.7759Y-3.528
X6.7759Y-3.628
X6.7759Y-3.728
X6.7759Y-3.828
X6.7759Y-3.928
X6.7759Y-4.028
X7.0759Y-2.728
X7.0759Y-2.828
X7.0759Y-2.928
X7.0759Y-3.028
X7.0759Y-3.128
X7.0759Y-3.228
X7.0759Y-3.328
X7.0759Y-3.428
X7.0759Y-3.528
X7.0759Y-3.628
X7.0759Y-3.728
X7.0759Y-3.828
X7.0759Y-3.928
X7.0759Y-4.028
X5.9391Y-4.058
X6.1359Y-4.058
X6.3573Y-3.3512
X6.3573Y-3.5433
X6.1811Y-3.0315
X6.378Y-3.0315
X7.2859Y-3.9011
X7.2859Y-4.098
X5.0159Y-4.128
X5.2128Y-4.128
X4.3859Y-4.668
X4.5237Y-4.668
X5.5559Y-3.878
X5.6559Y-3.878
X5.7559Y-3.878
X5.3772Y-4.518
X5.5772Y-4.518
X5.0472Y-4.518
X5.2472Y-4.518
X4.7172Y-4.518
X4.9172Y-4.518
X5.9959Y-3.2795
X5.9959Y-3.378
X5.9959Y-3.498
X5.9959Y-3.5964
X6.6142Y-2.989
X6.6142Y-3.189
X6.1559Y-3.2492
X6.1559Y-3.6492
X5.0159Y-3.958
X5.4159Y-3.958
T6
X5.3755Y-4.6781
X5.4755Y-4.6781
X5.0802Y-4.6781
X5.1802Y-4.6781
X4.7849Y-4.6781
X4.8849Y-4.6781
T7
X7.2859Y-2.998
X7.2859Y-3.098
X7.2859Y-3.198
X7.2859Y-3.298
X7.2859Y-3.398
X6.0059Y-3.8189
X6.1059Y-3.8189
X6.2059Y-3.8189
X6.3059Y-3.8189
X6.4059Y-3.8189
X6.5059Y-3.8189
X4.1748Y-4.3362
X4.3795Y-3.1787
X4.5764Y-3.1787
X4.7811Y-4.3362
X6.2303Y-2.738
X6.4075Y-2.738
X5.8055Y-2.738
X5.9055Y-2.738
X6.0055Y-2.738
X5.1127Y-3.1437
X5.1127Y-3.6161
X4.4709Y-2.838
X4.6709Y-2.8383
X4.1764Y-4.2287
X4.3764Y-4.2287
X4.5764Y-3.1787
X4.5764Y-4.2287
X4.7764Y-3.1787
T8
X5.8449Y-4.418
X5.8449Y-4.518
X5.8449Y-4.618
X5.9449Y-4.418
X5.9449Y-4.518
X5.9449Y-4.618
T9
X5.0159Y-3.808
X5.4159Y-3.808
X5.0159Y-4.298
X5.4159Y-4.298
T10
X5.2933Y-2.8406
X5.4902Y-2.8406
X4.8996Y-2.8406
X5.0965Y-2.8406
X6.1811Y-2.8364
X6.4567Y-2.8364
X5.0359Y-3.378
X5.593Y-3.6161
X5.595Y-3.1417
T11
X7.3228Y-4.7638
X4.0945Y-4.7638
X7.3228Y-2.7165
X4.0945Y-2.7165
T0
M30
